<?xml version="1.0" encoding="UTF-8"?>
<!DOCTYPE svg PUBLIC "-//W3C//DTD SVG 1.1//EN" "http://www.w3.org/Graphics/SVG/1.1/DTD/svg11.dtd">
<!-- Creator: CorelDRAW X8 -->
<svg xmlns="http://www.w3.org/2000/svg" xml:space="preserve" width="1320px" height="60px" version="1.1" style="shape-rendering:geometricPrecision; text-rendering:geometricPrecision; image-rendering:optimizeQuality; fill-rule:evenodd; clip-rule:evenodd"
viewBox="0 0 1320 60"
 xmlns:xlink="http://www.w3.org/1999/xlink">
 <defs>
  <style type="text/css">
   <![CDATA[
    .str0 {stroke:black;stroke-width:1.99961}
    .fil0 {fill:black}
   ]]>
  </style>
 </defs>
 <g id="Слой_x0020_1">
  <metadata id="CorelCorpID_0Corel-Layer"/>
  <rect class="fil0 str0" x="293" y="1" width="6.30992" height="46.0005"/>
  <rect class="fil0 str0" x="148" y="1" width="6.30992" height="46.0005"/>
  <rect class="fil0 str0" x="439" y="1" width="6.30992" height="46.0005"/>
  <rect class="fil0 str0" x="43" y="1" width="6.30992" height="29.8619"/>
  <rect class="fil0 str0" x="64" y="1" width="6.30992" height="29.8619"/>
  <rect class="fil0 str0" x="21" y="1" width="6.30992" height="29.8619"/>
  <rect class="fil0 str0" x="106" y="1" width="6.30992" height="29.8619"/>
  <rect class="fil0 str0" x="127" y="1" width="6.30992" height="29.8619"/>
  <rect class="fil0 str0" x="85" y="1" width="6.30992" height="29.8619"/>
  <rect class="fil0 str0" x="188" y="1" width="6.30992" height="29.8619"/>
  <rect class="fil0 str0" x="209" y="1" width="6.30992" height="29.8619"/>
  <rect class="fil0 str0" x="167" y="1" width="6.30992" height="29.8619"/>
  <rect class="fil0 str0" x="252" y="1" width="6.30992" height="29.8619"/>
  <rect class="fil0 str0" x="273" y="1" width="6.30992" height="29.8619"/>
  <rect class="fil0 str0" x="230" y="1" width="6.30992" height="29.8619"/>
  <rect class="fil0 str0" x="334" y="1" width="6.30992" height="29.8619"/>
  <rect class="fil0 str0" x="355" y="1" width="6.30992" height="29.8619"/>
  <rect class="fil0 str0" x="313" y="1" width="6.30992" height="29.8619"/>
  <rect class="fil0 str0" x="397" y="1" width="6.30992" height="29.8619"/>
  <rect class="fil0 str0" x="419" y="1" width="6.30992" height="29.8619"/>
  <rect class="fil0 str0" x="376" y="1" width="6.30992" height="29.8619"/>
  <rect class="fil0 str0" x="730" y="1" width="6.30992" height="46.0005"/>
  <rect class="fil0 str0" x="585" y="1" width="6.30992" height="46.0005"/>
  <rect class="fil0 str0" x="876" y="1" width="6.30992" height="46.0005"/>
  <rect class="fil0 str0" x="480" y="1" width="6.30992" height="29.8619"/>
  <rect class="fil0 str0" x="501" y="1" width="6.30992" height="29.8619"/>
  <rect class="fil0 str0" x="459" y="1" width="6.30992" height="29.8619"/>
  <rect class="fil0 str0" x="543" y="1" width="6.30992" height="29.8619"/>
  <rect class="fil0 str0" x="564" y="1" width="6.30992" height="29.8619"/>
  <rect class="fil0 str0" x="522" y="1" width="6.30992" height="29.8619"/>
  <rect class="fil0 str0" x="626" y="1" width="6.30992" height="29.8619"/>
  <rect class="fil0 str0" x="647" y="1" width="6.30992" height="29.8619"/>
  <rect class="fil0 str0" x="604" y="1" width="6.30992" height="29.8619"/>
  <rect class="fil0 str0" x="689" y="1" width="6.30992" height="29.8619"/>
  <rect class="fil0 str0" x="710" y="1" width="6.30992" height="29.8619"/>
  <rect class="fil0 str0" x="668" y="1" width="6.30992" height="29.8619"/>
  <rect class="fil0 str0" x="771" y="1" width="6.30992" height="29.8619"/>
  <rect class="fil0 str0" x="793" y="1" width="6.30992" height="29.8619"/>
  <rect class="fil0 str0" x="750" y="1" width="6.30992" height="29.8619"/>
  <rect class="fil0 str0" x="835" y="1" width="6.30992" height="29.8619"/>
  <rect class="fil0 str0" x="856" y="1" width="6.30992" height="29.8619"/>
  <rect class="fil0 str0" x="814" y="1" width="6.30992" height="29.8619"/>
  <rect class="fil0 str0" x="1167" y="1" width="6.30992" height="46.0005"/>
  <rect class="fil0 str0" x="1022" y="1" width="6.30992" height="46.0005"/>
  <rect class="fil0 str0" x="917" y="1" width="6.30992" height="29.8619"/>
  <rect class="fil0 str0" x="938" y="1" width="6.30992" height="29.8619"/>
  <rect class="fil0 str0" x="896" y="1" width="6.30992" height="29.8619"/>
  <rect class="fil0 str0" x="980" y="1" width="6.30992" height="29.8619"/>
  <rect class="fil0 str0" x="1001" y="1" width="6.30992" height="29.8619"/>
  <rect class="fil0 str0" x="959" y="1" width="6.30992" height="29.8619"/>
  <rect class="fil0 str0" x="1062" y="1" width="6.30992" height="29.8619"/>
  <rect class="fil0 str0" x="1083" y="1" width="6.30992" height="29.8619"/>
  <rect class="fil0 str0" x="1041" y="1" width="6.30992" height="29.8619"/>
  <rect class="fil0 str0" x="1126" y="1" width="6.30992" height="29.8619"/>
  <rect class="fil0 str0" x="1147" y="1" width="6.30992" height="29.8619"/>
  <rect class="fil0 str0" x="1105" y="1" width="6.30992" height="29.8619"/>
  <rect class="fil0 str0" x="1208" y="1" width="6.30992" height="29.8619"/>
  <rect class="fil0 str0" x="1229" y="1" width="6.30992" height="29.8619"/>
  <rect class="fil0 str0" x="1187" y="1" width="6.30992" height="29.8619"/>
  <rect class="fil0 str0" x="1272" y="1" width="6.30992" height="29.8619"/>
  <rect class="fil0 str0" x="1293" y="1" width="6.30992" height="29.8619"/>
  <rect class="fil0 str0" x="1250" y="1" width="6.30992" height="29.8619"/>
 </g>
</svg>
