<?xml version="1.0" encoding="UTF-8"?>
<!DOCTYPE svg PUBLIC "-//W3C//DTD SVG 1.1//EN" "http://www.w3.org/Graphics/SVG/1.1/DTD/svg11.dtd">
<!-- Creator: CorelDRAW X8 -->
<svg xmlns="http://www.w3.org/2000/svg" xml:space="preserve" width="500px" height="500px" version="1.1" style="shape-rendering:geometricPrecision; text-rendering:geometricPrecision; image-rendering:optimizeQuality; fill-rule:evenodd; clip-rule:evenodd"
viewBox="0 0 500 500"
 xmlns:xlink="http://www.w3.org/1999/xlink">
 <defs>
  <style type="text/css">
   <![CDATA[
    .fil0 {fill:black}
   ]]>
  </style>
 </defs>
 <g id="Слой_x0020_1">
  <metadata id="CorelCorpID_0Corel-Layer"/>
  <path class="fil0" d="M412 150l0 214c0,16 -14,31 -25,35 -17,6 -31,-2 -40,-14 -11,-15 -8,-28 -8,-53 0,-22 0,-43 0,-64 -10,7 1,4 -27,21 -10,6 -19,13 -30,19 -20,12 -39,25 -60,38 -12,7 -82,53 -90,55 -12,2 -26,-8 -26,-24l0 -241c0,-15 13,-24 24,-23 10,0 79,47 92,55l104 65c11,8 5,7 13,13 0,-20 0,-41 0,-62 0,-25 -4,-40 8,-55 9,-12 22,-20 38,-15 13,4 27,19 27,36z"/>
 </g>
</svg>
