<?xml version="1.0" encoding="UTF-8"?>
<!DOCTYPE svg PUBLIC "-//W3C//DTD SVG 1.1//EN" "http://www.w3.org/Graphics/SVG/1.1/DTD/svg11.dtd">
<!-- Creator: CorelDRAW X8 -->
<svg xmlns="http://www.w3.org/2000/svg" xml:space="preserve" width="1732px" height="772px" version="1.1" style="shape-rendering:geometricPrecision; text-rendering:geometricPrecision; image-rendering:optimizeQuality; fill-rule:evenodd; clip-rule:evenodd"
viewBox="0 0 1732 772"
 xmlns:xlink="http://www.w3.org/1999/xlink">
 <defs>
  <style type="text/css">
   <![CDATA[
    .fil3 {fill:#B63945}
    .fil1 {fill:#B82834}
    .fil2 {fill:#C84649}
    .fil0 {fill:#CE2225}
    .fil5 {fill:#F3F3EC}
    .fil4 {fill:#FEE3DC}
   ]]>
  </style>
 </defs>
 <g id="Слой_x0020_1">
  <metadata id="CorelCorpID_0Corel-Layer"/>
  <g id="_2598154630720">
   <path class="fil0" d="M136 337c-5,5 -4,5 -2,14l18 123 6 2 -3 4c0,1 0,1 0,2 -2,11 4,38 6,51l7 47c1,10 0,8 7,13 -7,4 -4,-3 -4,7 0,3 10,73 13,78 7,9 20,6 32,4 36,-6 21,-4 26,-12 9,2 6,1 10,7 6,-6 3,0 7,-8l5 6c25,-2 67,-8 90,-14 18,-4 27,1 62,-11 4,-1 1,-1 4,-1l15 -1c29,-2 40,-3 68,-9 16,-4 8,-2 19,-2 25,-1 66,-10 92,-14 -21,-15 -16,-5 -25,-10 -7,3 1,3 -8,2 1,-6 -1,-5 1,-11l-193 30c-3,1 -1,0 -5,0l-111 16c-18,3 -25,1 -32,7 -1,0 -1,0 -1,1l-7 5c-10,-4 1,-4 -9,-4 0,0 -1,0 -1,0 -1,0 -1,0 -2,0 0,-1 -4,-2 -6,-2l-9 -66 -6 -2c5,-6 2,-20 1,-29l-15 -104c-7,-46 -16,-93 -21,-141 -6,2 -5,2 -9,3 3,-2 -1,0 3,-3 3,-3 1,-2 3,-3l49 -12c2,-1 4,-2 5,-2 -2,-4 -2,2 -3,-10 2,3 -2,5 5,2 5,-2 3,-2 3,-7 -7,-3 -55,5 -69,7 -11,2 -23,4 -25,15 0,4 2,13 2,17 2,11 1,9 7,15z"/>
   <path class="fil0" d="M1560 465c-4,-6 -5,-6 -15,-3 -8,2 -8,4 -16,8 -9,3 -9,-2 -15,-2 0,0 -1,0 -1,0l-6 3c-5,4 -5,4 -13,1 0,0 0,0 -1,-1 -8,-3 -34,3 -42,5 0,0 1,0 1,1l6 8c-1,-2 -2,-5 -4,-4l-3 5c-1,-6 0,-3 -2,-10 0,1 -1,1 -1,2l-2 1c-4,2 0,0 -7,-1 -3,-1 -4,0 -7,0l-71 11c-22,3 -47,5 -67,12 -4,2 2,1 -4,1l-19 0c-1,9 0,0 0,5 0,0 0,1 0,2 0,3 2,-1 -1,2l-4 -8c-20,1 -18,12 -23,3l-401 59c-11,2 -21,3 -33,5l-65 11c-13,1 -23,2 -36,4 6,14 7,10 0,14l-2 -10c0,0 0,-1 0,-2 -7,-1 -54,6 -66,9 0,0 -2,0 -2,0l-36 5 2 11c4,-1 3,-1 4,-1 3,-1 0,-1 5,-2l1 9c9,-2 -4,5 4,-3 4,-3 -2,1 3,-2 6,3 1,1 8,2 0,1 -2,2 0,6l7 -4c2,-6 -3,-4 6,-7 -9,-4 -8,2 -6,-9 2,4 0,4 6,3 1,0 1,0 2,-1 5,-1 11,-1 14,2l-10 -1c6,10 7,3 2,13l7 -6c0,0 1,-1 1,-1 0,0 1,-1 1,-1 0,0 1,0 1,1l9 4c3,-6 -1,-6 4,-13 6,1 2,-2 6,3 2,3 1,4 4,8l22 -5c7,-4 -3,0 5,-3 5,-3 5,-1 11,1 -2,-15 -1,1 -6,-10 0,-1 3,-3 3,-3 3,-2 0,-1 4,-3 2,6 2,11 0,18 11,-1 10,1 13,-8 0,-1 0,-1 0,-2 3,-6 4,-3 6,-11 9,5 1,2 10,8 -1,-7 -3,-8 -1,-13 6,5 5,4 6,11 2,6 -5,3 1,8 1,2 -1,3 4,2 9,-2 3,-1 6,-6l1 -2c21,10 112,-11 145,-15 9,-1 11,0 14,-4 0,-1 1,-4 2,-5 5,7 -1,2 6,6 0,-1 0,-2 1,-2 0,1 1,-2 1,-3 6,-7 10,-3 14,0 2,1 0,1 4,2 9,1 63,-9 73,-11 2,-2 -1,-6 6,-7 9,-1 4,1 6,2 4,2 3,5 19,0 11,-4 4,-2 15,-2 22,0 105,-15 135,-19l25 -4c15,-3 5,-7 20,-4 9,1 37,-4 49,-6l53 -8c12,-2 20,-6 26,-7 10,-1 17,0 29,-2 10,-1 20,-3 29,-3 0,-5 -1,-8 -1,-11 0,-2 0,-6 0,-8 6,3 5,2 1,11l8 0c-2,1 -4,3 -3,6 14,-1 26,-3 39,-5 23,-4 64,-7 85,-13 3,-1 1,0 4,-1 1,-1 7,-9 17,-2l2 -5c3,3 1,2 6,3 6,-9 11,-17 1,-29 -3,2 -6,5 -11,7l1 10c-8,4 -3,2 -8,8 -4,-5 -3,-2 -1,-8 0,-4 5,-1 -3,-5l3 -2c3,-3 4,-1 4,-8l-13 -2 -5 10c-3,4 -2,0 -6,7z"/>
   <path class="fil0" d="M1560 372l6 -1c0,0 1,0 1,1 1,2 2,-1 5,8l1 2c0,0 0,1 0,1 0,1 1,1 1,2 1,3 2,0 2,7l6 2c1,-5 0,1 0,-3 -1,-7 0,-10 4,-15l6 3c-4,-24 -10,-83 -16,-102 -1,-2 -1,-1 -1,-4 -2,-10 0,-16 -4,-32 -1,-4 -3,-5 -3,-7l0 -2c-1,-12 2,1 -2,-25 -2,-14 -3,-38 -8,-50 -2,-6 2,-19 -7,-45 0,0 -1,-1 -1,-1 -3,-13 13,-29 -40,-21l-130 20c3,4 2,4 3,8 7,14 1,0 1,9 0,6 3,7 10,4 7,-5 -2,-1 1,-9 8,3 10,1 18,3 4,1 1,4 14,2 12,-3 81,-14 88,-12 7,2 0,4 15,1 5,9 0,4 10,8 -8,2 -2,0 -15,-3 -2,-1 -4,-1 -7,-1 0,3 1,6 2,8l15 67c-8,2 -3,1 -6,3 3,19 6,29 7,50l8 3c-2,5 1,0 -2,3l13 114c3,7 -1,3 5,4z"/>
   <path class="fil0" d="M830 191c2,1 6,3 8,4 14,7 24,-3 16,9 -4,6 1,-5 -4,6l19 -1c0,0 -1,-4 -1,-5 0,0 0,-1 0,-1l1 -4c10,1 12,4 20,0 1,0 1,0 1,0 -1,3 -1,2 -3,7 6,0 137,-18 147,-22 2,-1 8,-3 9,-4 4,-3 1,0 5,-8 0,0 0,1 0,1 1,14 46,3 63,0 21,-3 12,-4 23,-8 0,2 -2,1 -1,5 21,-3 37,-6 56,-8l54 -10c-11,-9 -8,-9 -23,-9 -10,-1 -1,-2 -9,1 -1,-1 -1,-1 -2,-4 0,0 0,-3 -1,-5 -50,4 -146,24 -198,29l-59 9c0,0 -47,6 -69,11l-10 1c-6,2 -9,8 -19,5 -2,0 -9,-5 -23,1z"/>
   <path class="fil0" d="M612 303c-3,21 5,15 11,28 4,7 8,19 11,28 10,24 65,157 68,171l21 -3c-1,-19 -6,-41 -8,-61 -2,-13 -3,-17 -7,-27 -8,-21 -7,-20 -13,-16 5,-11 4,-8 -5,-30 -5,-10 -9,-21 -14,-32 -7,-20 -19,-46 -24,-65 -11,1 -32,3 -40,7z"/>
   <path class="fil0" d="M618 222c-12,1 -22,3 -33,5l-18 4c-6,1 -2,0 -8,0 -15,0 -50,6 -66,9l-1 11c0,0 0,-1 0,-1l-6 -8c-6,2 -1,1 -8,1l-4 10 -8 -2c-7,-2 -4,-3 -11,0l9 4c5,3 2,-1 4,4l-5 1c-5,4 -4,-5 -2,7 3,2 5,3 10,1 9,-2 3,0 7,-6 1,1 1,1 2,4 15,0 38,-5 54,-7 11,-2 14,-4 23,-6 9,-3 13,2 20,-3 -7,-3 -2,-2 -9,-2 -8,-1 -5,1 -7,-1 1,0 10,-4 12,-4 9,-3 1,2 13,-4 -1,3 -3,7 -1,11 19,-1 70,-10 98,-13 -1,-7 0,-1 -2,-7 14,2 -5,7 18,4 8,-1 16,-2 25,-3 4,-1 8,-1 12,-2l9 -2c11,-6 4,-14 16,-12 -6,9 -6,4 -11,11 15,0 33,-4 48,-6 16,-3 40,-5 46,-8 -13,-10 -21,-2 -18,-21 -33,3 -76,11 -110,16 -14,2 -90,13 -96,16 -3,2 -1,7 -2,-1z"/>
   <path class="fil0" d="M193 326c12,-1 28,-3 39,-7 10,-3 4,0 13,-3 6,-3 3,1 15,-1l2 -1c25,-2 56,-4 81,-11l3 -1c5,-1 0,3 5,-1 8,-7 -8,1 5,-5 5,-3 5,-1 9,-4l-28 4c-1,0 -2,0 -2,0l-18 3c-16,2 -31,4 -47,6 -23,3 -74,9 -92,15 -1,19 7,55 10,75 4,23 7,47 10,71 7,48 16,94 21,142 9,3 7,-1 11,5l-7 1c-1,-1 -2,0 -2,1 1,9 1,7 9,10 -7,6 -9,9 -4,21 9,3 37,-3 47,-4 9,-1 16,-3 24,-4 23,-3 16,-2 20,-7 9,2 1,4 24,1l103 -15c12,-2 12,-4 15,-5 0,0 25,1 45,-5 10,-2 6,2 7,-2 0,-1 1,-1 1,-1 -9,-7 -17,-5 -31,-3l-172 26c-18,3 -55,10 -70,9 -8,-29 -27,-196 -33,-215l-13 -95z"/>
   <path class="fil0" d="M1439 369c5,-6 -1,1 3,-8l4 -4c7,6 7,5 1,11 5,-1 3,-1 7,0 4,1 5,4 5,4 -12,3 -5,-4 -16,6 1,10 11,32 16,41l19 -1c0,-20 -8,-75 -17,-95l-33 -81c-5,-15 -15,-44 -23,-55 -21,1 -55,1 -32,27 9,9 21,48 28,63l3 7c1,0 1,1 1,1 6,17 28,77 34,84z"/>
   <path class="fil0" d="M554 311c-3,20 5,13 9,25l26 179c1,18 -9,10 -2,30 11,2 35,-1 44,-6 5,-19 -6,-12 -9,-30l-26 -180c2,-6 14,-25 -6,-24 -7,0 -31,4 -36,6z"/>
   <path class="fil0" d="M277 350c2,50 28,107 34,155l-15 3 0 17 19 0c17,43 -6,30 24,51 -12,2 -6,-1 -19,-6 1,16 3,16 18,13 9,-1 20,-2 28,-5 4,-18 -4,-14 -8,-27 -4,-10 -6,-22 -8,-32 -4,-16 -7,-33 -14,-48 -2,-4 -1,-3 -1,-12l-28 -112 -30 3z"/>
   <path class="fil0" d="M839 513c1,0 1,0 1,0l5 0c2,-1 5,-3 6,-4l-10 0c1,-5 5,-12 7,-15 7,3 3,3 5,10l12 -29c4,-31 -3,-77 -19,-101 -18,-26 -54,-34 -47,-73 1,-5 10,-20 1,-31 -35,15 -33,112 11,153 15,14 36,23 33,55 -1,15 -12,18 -5,35z"/>
   <path class="fil0" d="M973 489c7,1 24,-1 32,-2 26,-5 7,-20 4,-26l-31 -211c0,0 -47,-5 -38,18 3,8 5,2 8,12 4,10 8,56 11,70 3,24 7,46 10,70 1,11 3,23 5,34 3,21 -9,18 -1,35z"/>
   <path class="fil0" d="M762 508c4,0 5,-1 7,3 3,6 1,2 -3,6 14,-1 2,3 14,1l10 -2c1,-20 -5,-13 -10,-24l-26 -179c-1,-17 9,-12 3,-30 -7,-2 -31,0 -39,3 -18,5 2,24 3,28l23 159c7,44 -2,24 -1,40 0,7 3,12 11,10 11,-2 3,-7 8,-15z"/>
   <path class="fil1" d="M1330 149c-2,2 -2,5 -2,6l-6 -5c-61,8 -125,18 -187,27l-104 16c-2,1 -8,1 -12,2l-58 9c-4,1 -1,0 -4,1 -1,1 -2,2 -3,2l-1 2c-6,-7 -12,-3 -29,0 -31,4 -49,5 -77,14 -4,1 -3,0 -5,0 -14,3 1,3 -11,1 -9,-1 -107,14 -120,16l-199 30c0,0 -1,0 -1,0l-3 1c-16,4 -22,2 -48,6l8 8c8,0 16,-2 23,-3l73 -11c69,-10 145,-20 213,-31 5,-1 8,-2 11,-2 17,-2 44,-2 56,-12 5,-4 2,1 14,2l184 -27c8,-2 6,0 8,-7 3,5 3,3 4,5l299 -44 -3 -8 -20 2z"/>
   <path class="fil0" d="M1127 449c9,0 6,-2 12,5l-20 4c0,-11 2,-3 1,-16l6 -3 5 5c-2,5 1,2 -4,5zm-59 -214c0,22 5,38 10,58l18 52c-4,6 -6,-1 0,23 2,7 4,15 5,22l-15 3 1 18 19 -2c2,9 7,23 8,31 1,15 -7,14 0,29 12,2 31,-2 43,-6 3,-16 -3,-14 -8,-23 -2,-5 -2,-9 -3,-13 -4,-10 0,0 -7,-7 4,-4 6,-2 -1,-20 -2,-7 -3,-17 -5,-25l-36 -143 -29 3z"/>
   <path class="fil0" d="M1250 448c1,0 1,0 2,1 0,0 1,0 1,0 1,0 1,0 2,0 1,1 36,-1 39,-8 1,-4 0,-8 -2,-11 -19,7 -26,-2 -8,-9 0,-1 1,-1 1,-1l-5 -36 -6 3c0,-17 6,6 4,-16 -1,-7 -3,-13 -6,-18l-18 6c3,-17 0,-13 3,-18 0,1 1,3 1,4 2,3 0,1 2,3l14 0c0,-19 -7,-49 -10,-69 -1,-11 -3,-23 -5,-34 -3,-22 8,-15 2,-36 -1,0 -45,-3 -46,12 0,9 4,10 8,14 6,10 12,85 16,100 3,13 4,-2 3,12l3 29c3,24 9,40 4,56 -3,7 -4,10 1,16z"/>
   <path class="fil0" d="M536 533c-1,-12 1,-11 12,-12l11 8c-7,3 -16,5 -23,4zm-34 -216c-1,9 6,56 9,67 0,1 1,5 1,5l3 24c1,11 5,25 5,35 6,0 10,0 16,0 9,-1 8,-3 11,2 0,2 1,5 -8,5 -10,0 3,-4 -9,-1 -5,1 -2,1 -8,3 1,14 11,68 9,75 -3,9 -8,9 -1,21 6,3 38,-2 43,-6 4,-20 -6,-11 -9,-29l-15 -105c-3,-21 -9,-49 -11,-69 -1,-11 12,-26 -1,-31 -4,-1 -28,4 -35,4z"/>
   <path class="fil0" d="M874 265c1,22 12,88 16,116 3,17 1,15 6,31 0,0 0,1 0,1 3,9 -1,-4 1,3 6,1 8,1 14,1 9,-1 10,-2 14,1 -2,5 0,3 -5,5 -11,3 -5,-1 -8,-1 -8,-2 -5,3 -15,2 0,12 3,27 5,38 4,23 -7,19 -1,38 23,3 3,-8 20,-9 10,-1 11,10 24,2 5,-13 -4,-14 -7,-22 -3,-5 -4,-22 -5,-29l-27 -182c-6,-1 -10,0 -15,1 -7,1 -11,1 -17,4z"/>
   <path class="fil0" d="M382 542l6 -4 12 15c-3,1 -4,0 -8,1 -6,2 -2,3 -10,4 -2,-7 0,-8 0,-16zm-10 -22c5,2 6,2 12,0 3,10 0,3 -1,6 -3,0 -6,-2 -10,-4 0,8 3,23 3,29 -1,11 -10,12 -2,25l38 -3c-2,-26 0,-19 -8,-24l5 -2c-1,-5 -1,-11 -2,-16 -2,-10 1,-6 -7,-10 1,-3 8,-6 2,-19 -7,-14 -3,0 -3,-22 -1,0 -1,-1 -1,-1 0,-17 -3,-27 -5,-43 -4,-33 -11,-66 -14,-100 -10,0 -20,2 -29,3 -25,5 -3,16 1,40l21 141z"/>
   <path class="fil0" d="M1151 223c3,45 28,180 29,207 1,18 -19,35 21,28 8,-1 15,-2 22,-4 2,-17 -2,-13 -9,-24 -3,8 0,14 -12,9l6 -12c0,0 1,-1 1,-1 1,0 1,0 1,-1l-27 -206 -32 4z"/>
   <path class="fil0" d="M1057 466c6,-4 6,1 7,-12 0,-8 -2,-13 -4,-18 -5,1 -2,0 -5,3 -1,2 -1,3 -2,5 -8,-39 -3,-66 -34,-78 7,-12 11,-12 14,-29 2,-22 -3,-60 -16,-77 -8,-11 -15,-14 -33,-13 -1,25 5,17 10,32 3,8 13,67 9,77 -7,23 -1,18 6,31 10,20 7,92 32,98 6,1 12,-1 15,-5 5,-7 4,-10 1,-14z"/>
   <path class="fil0" d="M510 558c6,-7 3,-40 2,-49 0,-13 1,-39 0,-51 -4,-25 -3,7 -1,-20 1,-15 -5,-55 -8,-69l-1 38c-4,-6 -5,-14 -7,-21 -3,-7 -5,-14 -7,-21 -4,-13 -7,-33 -14,-43 -7,0 -31,2 -35,7 -4,5 -1,12 2,15 6,6 5,1 9,13 11,32 52,186 60,201z"/>
   <path class="fil0" d="M1345 441c1,-27 -6,-3 -14,-56 -3,-21 -6,-43 -9,-64l-13 -94c0,-8 5,-14 3,-23l-4 -8c-36,19 -25,107 -20,137 7,40 22,104 57,108z"/>
   <path class="fil0" d="M1351 440c44,-11 27,-142 9,-191 -7,-22 -19,-52 -44,-54 3,36 7,2 15,57l22 156c-1,16 -5,-2 -2,32z"/>
   <path class="fil0" d="M421 541c14,0 9,-2 15,-1 8,2 1,0 4,4 -8,6 -7,0 -23,7l1 20c10,-2 14,-5 20,-18 4,-8 7,-21 9,-30 3,-25 0,-46 -2,-70l-2 -5c1,-3 -11,-111 -59,-114 1,16 0,13 8,24 9,13 28,168 29,183z"/>
   <path class="fil1" d="M446 255c-7,3 1,11 -8,11 3,-7 3,-4 2,-13 -5,2 -4,3 -5,3 -4,1 1,3 -4,-2 0,0 -1,-1 -1,-1l-1 -3c-6,1 -17,2 -23,4 -7,2 1,1 -9,2 -2,0 -4,0 -5,0 -19,0 -25,6 -39,6 -4,0 -9,0 -14,1 -3,13 3,13 -5,16 1,-9 3,-5 4,-15 -6,0 -17,1 -24,2l-17 4c0,1 0,1 0,1 0,5 5,1 0,5 -6,-2 -1,0 -5,-6 -14,4 -36,2 -49,9 7,8 5,-1 9,8 0,0 -1,0 -1,0l-4 2c-2,2 -1,1 -2,5 -3,-5 -2,-8 -3,-14 -5,5 -8,9 -16,13 -13,7 2,-2 -8,2 -1,1 -4,-6 -4,10l26 -4c1,-1 2,-1 3,-1 9,-3 9,0 22,-2 7,-1 17,-2 25,-3 4,-1 8,-1 10,-4 8,-10 -4,2 0,-7l8 8 40 -6c3,-10 -4,-11 6,-12 -5,4 -3,5 -6,11 11,0 21,-2 31,-3 8,-2 17,-3 20,-10 3,-9 -4,4 0,-2 1,3 -1,-1 0,3 0,0 1,1 1,1 0,0 0,1 0,1l1 2c11,1 7,0 16,-2 1,0 1,0 2,0l6 -2c0,0 2,0 3,0 0,0 1,-1 1,-1l24 -1c1,-5 2,-8 4,-12 -6,-13 -7,-1 -3,-12 0,0 0,0 0,-1 -9,2 -6,4 -14,2 1,3 1,2 2,4l2 2c0,0 1,0 1,0 0,1 1,1 1,1z"/>
   <path class="fil1" d="M1534 355c5,-8 2,-13 -3,-17 0,0 -3,-2 -3,-3 -7,-5 -4,1 -6,-8l3 2c0,0 1,1 1,1 0,0 0,0 1,0l5 -3c1,0 1,0 2,0 -2,-10 -3,-19 -5,-28 -2,-13 -3,-1 -2,-12 1,-6 -20,-155 -25,-160 -5,-6 -12,-2 -18,0 -11,4 -16,-5 -27,10 -8,-5 -1,-2 -4,-4 -6,-3 -8,3 -12,7 18,0 33,-4 50,-6 1,15 6,29 6,42 5,-1 4,-2 7,0l-7 3c2,26 6,16 5,27 -1,15 15,111 19,136l3 10c2,-4 -2,-6 5,-7 6,-1 6,4 5,10z"/>
   <path class="fil1" d="M1532 412l4 33c-27,5 -35,4 -61,11 0,0 -5,1 -5,1l-32 3c2,5 2,3 1,5 -11,-8 -100,9 -124,13 -13,3 -30,3 -43,7l0 1c0,0 0,1 0,1l0 2c-1,0 -1,1 -1,1 0,0 -2,4 -2,4 37,-3 74,-12 111,-16 18,-2 36,-5 54,-8 9,-1 18,-3 27,-4 4,-1 10,-1 14,-2 3,-1 4,-1 6,-2l4 -4c8,8 14,1 32,0 11,-1 24,-3 34,-6 1,-10 -3,-37 -6,-46 -2,-1 -7,2 -9,3l-4 3z"/>
   <path class="fil1" d="M1145 503c0,1 0,1 0,1 -1,3 -1,4 -4,3 -9,-2 -28,-1 -34,3l-5 7c-4,-9 -1,-3 -4,-6l-192 29c-13,4 -22,-1 -33,5 7,5 2,-1 4,7 30,-2 25,-8 42,-7l10 0c18,-2 35,-6 54,-8l2 -8c7,9 -1,4 8,6 0,-7 -1,-5 5,-8l4 4c0,1 0,1 0,1 0,1 0,1 0,1 24,0 18,-5 29,-5 18,1 13,0 31,-3 17,-2 11,-3 18,-6 12,4 26,0 46,-3l85 -15c7,0 41,-1 47,-5 0,0 1,-1 1,-1 0,0 -1,-2 3,-1 2,0 -4,4 3,0 6,-3 2,1 4,-5 -10,-5 -19,-1 -35,1 -17,3 -20,1 -38,7 -6,2 -3,0 -10,1l-13 5c-15,4 5,-7 -15,0 -1,0 -2,1 -3,2 -6,1 -5,0 -10,-2z"/>
   <path class="fil2" d="M1592 379l-6 -3c-4,5 -5,8 -4,15 0,4 1,-2 0,3l-6 -2c0,-7 -1,-4 -2,-7 0,-1 -1,-1 -1,-2 0,0 0,-1 0,-1l-1 -2c-3,-9 -4,-6 -5,-8 0,-1 -1,-1 -1,-1l-6 1c-1,3 -8,18 1,26l4 2c0,0 -12,1 -2,13 1,0 2,1 2,2l7 3c0,0 -4,1 -4,1 -5,3 -4,0 -5,7 0,0 -2,2 5,3 9,2 2,-1 2,-1 -3,9 -5,4 -4,16 7,0 13,0 19,-3 6,-2 0,1 4,-2 2,-1 2,-5 11,-3 -1,-15 -4,-39 -8,-57z"/>
   <path class="fil3" d="M560 595l-2 -5 -24 4c-6,1 -2,-2 -8,3 1,5 -1,6 6,6 5,1 4,-2 8,-3l3 0c25,0 20,-1 47,-5 3,0 9,-1 12,-2 3,-1 2,-1 2,-2 2,-1 -2,-1 2,-1 6,4 13,1 22,0l31 -6c29,-1 27,-9 37,-7l20 0c10,-2 16,-5 28,-6 10,0 15,-1 24,-3l-5 -3c9,-6 4,2 7,-6 -17,2 -35,5 -53,8l-56 8c-33,4 -51,9 -79,12 -12,0 -18,0 -22,8z"/>
   <path class="fil0" d="M305 586c2,-20 -11,-12 -13,-37 -4,-42 3,-124 -12,-149 -4,44 9,148 0,169 -15,31 16,22 25,17z"/>
   <path class="fil0" d="M671 534c2,-19 -9,-18 -14,-39 -10,-45 -7,-90 -27,-132 -1,37 23,127 16,152 -2,8 -15,32 25,19z"/>
   <path class="fil1" d="M1414 427c2,-14 -3,4 -2,-10 5,5 6,5 15,5 0,-14 -1,-10 -7,-19 -9,-14 -12,-47 -15,-64 -3,-27 0,-27 -10,-50 -4,-10 6,1 -4,-25l-1 16c0,2 -1,3 -1,7 3,26 15,87 14,109 -1,16 -17,34 11,31z"/>
   <path class="fil1" d="M472 562c9,1 19,0 26,-3 3,-18 -7,-16 -12,-33 -4,-12 -5,-26 -7,-39 -5,-34 -4,-28 -12,-56 -2,-6 -3,-12 -7,-18 1,26 15,92 15,116 0,16 -10,19 -3,33z"/>
   <path class="fil0" d="M1428 184c-4,17 5,16 10,28 4,9 6,23 7,33 2,8 7,57 17,61 -1,-24 -8,-52 -10,-77 -3,-26 22,-64 -24,-45z"/>
   <path class="fil0" d="M707 423l-8 -63c-2,-12 -4,-24 -4,-35 1,-18 10,-15 4,-34 -50,-6 -18,26 -16,31 10,24 5,63 24,101z"/>
   <path class="fil0" d="M804 511c8,-2 1,-3 12,-4 6,7 6,8 17,9 -4,-39 -13,-9 -29,-66 -3,-10 -3,-18 -10,-21 -6,7 0,31 2,41 2,13 2,31 8,41z"/>
   <path class="fil0" d="M828 277c-7,-3 -11,-7 -21,-9 1,4 1,11 2,14 2,10 -1,3 5,8 6,5 9,8 13,17 14,27 6,38 19,42 3,-11 -6,-76 -12,-83 -7,4 -2,4 -6,11z"/>
   <path class="fil0" d="M1095 472c2,-25 -11,-8 -13,-42 -1,-18 0,-38 -2,-56l-8 -2c-1,22 3,49 1,71 -2,18 -12,17 -5,27 5,7 19,5 27,2z"/>
   <path class="fil0" d="M1189 218c0,20 11,30 18,62 3,10 2,16 10,19 5,-11 -6,-67 -9,-83l-19 2z"/>
   <path class="fil0" d="M912 258c-1,18 11,30 18,62 3,14 2,16 9,19 5,-9 -5,-70 -9,-83l-18 2z"/>
   <path class="fil0" d="M1143 309c5,-9 1,-30 1,-42 0,-18 4,-22 2,-42l-19 1c-2,10 3,32 5,43 1,7 2,15 3,22 2,17 1,16 8,18z"/>
   <path class="fil0" d="M849 267l9 65c1,10 0,15 7,18 6,-8 2,-30 2,-41 0,-19 4,-23 1,-43l-19 1z"/>
   <path class="fil1" d="M1360 147c4,1 5,0 9,1l3 2c0,0 1,0 1,0 9,3 40,-4 50,-6 12,-2 15,-1 18,-10 -9,0 -72,5 -81,13z"/>
   <path class="fil2" d="M1340 115c-3,6 0,3 -1,9 -1,5 -2,4 -4,9 16,-3 13,6 23,3 9,-6 3,-3 6,-11l8 -10c5,7 -2,5 7,7l-2 -11c-7,-1 -29,2 -37,4z"/>
   <path class="fil3" d="M425 288c-2,-1 -1,-1 -2,-5 -9,0 -33,3 -38,7l-9 7c4,3 15,0 20,-1 17,-6 0,-1 17,-2 25,-3 40,-3 42,-16 -29,1 -23,8 -30,10z"/>
   <path class="fil1" d="M1534 355l-10 7c2,13 2,33 8,43l12 -12c-5,-17 -2,-32 -10,-38z"/>
   <path class="fil3" d="M1231 131c0,7 2,3 0,9 16,1 1,-3 8,-3 4,1 3,5 2,10l5 -3c3,-2 1,-1 5,-2 0,0 1,3 2,4 0,0 0,1 1,1 4,5 5,4 11,4 2,-9 -2,-5 3,-12 6,-8 -1,5 2,-3l-11 -1c5,-1 -5,0 3,-1 1,0 2,0 2,0 10,-1 8,3 11,-7 -7,-2 -33,2 -44,4z"/>
   <path class="fil2" d="M1303 123l4 5c1,2 1,1 2,3 1,3 -1,2 1,11 9,-2 14,-1 25,-6 0,-6 2,-9 0,-16l-1 -3c-5,0 -5,-1 -8,3l-2 -2c-3,0 -8,0 -11,0 -1,0 -5,2 -5,2 -3,1 -3,2 -5,3z"/>
   <path class="fil3" d="M1287 123c5,11 5,-3 9,11l-19 -2c0,4 0,3 2,6l3 6c1,0 1,-1 1,-1 1,3 0,-2 3,-6l3 2c0,1 1,1 1,1 0,1 1,1 1,1 7,3 4,1 7,1 3,-9 -7,2 7,-16 0,0 -1,-1 -1,-1 0,0 -1,-1 -2,-1 0,0 0,-1 -1,-1 0,0 -1,-1 -1,-1l-13 1z"/>
   <path class="fil4" d="M382 558c8,-1 4,-2 10,-4 4,-1 5,0 8,-1l-12 -15 -6 4c0,8 -2,9 0,16z"/>
   <path class="fil4" d="M1127 449c5,-3 2,0 4,-5l-5 -5 -6 3c1,13 -1,5 -1,16l20 -4c-6,-7 -3,-5 -12,-5z"/>
   <path class="fil5" d="M536 533c7,1 16,-1 23,-4l-11 -8c-11,1 -13,0 -12,12z"/>
  </g>
  <polygon class="fil0" points="145,24 174,107 268,107 192,159 221,242 145,190 69,242 98,159 22,107 116,107 "/>
  <polygon class="fil0" points="380,26 401,85 468,85 413,122 434,182 380,145 326,182 347,122 293,85 359,85 "/>
  <polygon class="fil0" points="551,109 564,147 607,147 572,170 586,209 551,185 516,209 529,170 495,147 538,147 "/>
  <polygon class="fil0" points="1557,503 1548,591 1457,613 1543,645 1534,733 1596,665 1682,697 1634,623 1696,555 1604,578 "/>
  <polygon class="fil0" points="1379,598 1374,660 1309,676 1370,699 1364,762 1408,713 1469,736 1435,683 1479,635 1414,651 "/>
  <polygon class="fil0" points="1219,604 1215,645 1173,655 1212,669 1208,710 1237,679 1276,693 1254,659 1282,628 1240,638 "/>
 </g>
</svg>
