<?xml version="1.0" encoding="UTF-8"?>
<!DOCTYPE svg PUBLIC "-//W3C//DTD SVG 1.1//EN" "http://www.w3.org/Graphics/SVG/1.1/DTD/svg11.dtd">
<!-- Creator: CorelDRAW X8 -->
<svg xmlns="http://www.w3.org/2000/svg" xml:space="preserve" width="650px" height="150px" version="1.1" style="shape-rendering:geometricPrecision; text-rendering:geometricPrecision; image-rendering:optimizeQuality; fill-rule:evenodd; clip-rule:evenodd"
viewBox="0 0 650 150"
 xmlns:xlink="http://www.w3.org/1999/xlink">
 <defs>
  <style type="text/css">
   <![CDATA[
    .str0 {stroke:black;stroke-width:1.99961}
    .fil0 {fill:white}
    .fil1 {fill:white;fill-rule:nonzero}
   ]]>
  </style>
 </defs>
 <g id="Слой_x0020_1">
  <metadata id="CorelCorpID_0Corel-Layer"/>
  <path class="fil0 str0" d="M17 10l616 0c3,0 6,3 6,6l0 117c0,4 -3,6 -6,6l-616 0c-3,0 -6,-2 -6,-6l0 -117c0,-3 3,-6 6,-6zm-5 -7l626 0c5,0 8,4 8,8l0 127c0,5 -3,8 -8,8l-626 0c-5,0 -8,-3 -8,-8l0 -127c0,-4 3,-8 8,-8z"/>
  <path class="fil1 str0" d="M43 68l4 -6c1,1 2,1 3,1 4,0 8,-3 12,-8 0,-1 1,-3 2,-4 1,-2 2,-3 3,-5 0,-2 1,-5 3,-8 1,-4 2,-6 2,-7 1,-2 1,-3 1,-5l-1 0c-3,0 -5,0 -7,2 -1,1 -2,2 -2,3 -1,2 -1,3 -1,4 0,1 0,3 -1,7l0 1 -7 4c0,-1 0,-1 0,-1 0,0 0,-1 0,-1 0,-3 0,-6 1,-9 0,-3 1,-5 2,-7 1,-2 2,-4 3,-5 1,-1 3,-3 6,-4 2,-1 5,-1 7,-1l26 0 -1 6 -1 0c-1,1 -1,1 -1,1 -1,3 -3,6 -5,12l-3 9c-1,3 -2,5 -3,8 0,2 -1,5 -1,7 -1,3 -1,5 -2,6l-8 1 0 -1c1,-2 2,-6 4,-11 1,-6 3,-10 3,-11 1,-4 3,-7 4,-9 1,-5 3,-8 4,-11l0 -1 -9 1c0,1 -1,3 -1,5 0,3 -1,5 -2,7 -1,3 -2,5 -3,7 -1,3 -2,5 -3,7 -3,7 -7,11 -11,14 -1,1 -3,2 -5,3 -2,0 -4,1 -6,1 -1,0 -2,0 -3,-1 0,0 -2,0 -3,-1zm74 -5c-3,2 -5,3 -7,4 -3,2 -6,3 -9,3 -2,0 -3,-1 -5,-1 -1,-1 -2,-2 -3,-4 -1,-1 -1,-3 -1,-5 0,-3 1,-5 3,-8 1,-2 3,-4 6,-6 3,-1 6,-2 8,-2 2,0 3,0 4,1 1,0 2,1 2,1 1,1 1,2 1,3 0,2 -1,4 -2,6 -1,1 -3,2 -4,3 -2,1 -3,1 -4,2 -2,0 -4,1 -7,1 1,2 2,3 4,3 2,0 4,-1 7,-2 2,-1 4,-3 7,-5l0 6zm-17 -7c3,0 5,-1 7,-2 1,-1 2,-2 2,-3 0,-1 0,-1 0,-1 -1,-1 -1,-1 -1,-1 -2,0 -3,1 -5,2 -1,1 -2,3 -3,5zm55 7c-3,2 -5,3 -6,4 -3,1 -5,2 -7,2 -1,0 -2,0 -4,-1 -1,1 -3,1 -4,1 -1,0 -2,0 -3,-1 -1,-1 -1,-2 -1,-3 0,0 0,-1 0,-1 1,0 1,0 3,0 0,0 1,0 2,0l0 0c2,-2 4,-4 5,-6 2,-3 3,-5 3,-7 0,0 0,-1 0,-1 0,0 -1,0 -1,0 -1,0 -2,0 -4,2 -2,1 -4,3 -5,5 -5,6 -8,14 -10,25 0,3 -1,4 -1,5 -1,2 -2,2 -4,2 -1,0 -1,0 -2,0 0,-1 -1,-2 -1,-3 0,-1 1,-4 2,-8 1,-2 2,-5 2,-7 1,-2 2,-4 3,-6 0,-2 2,-5 3,-9 -1,1 -2,2 -3,3 0,0 0,0 0,0 -1,1 -1,1 -1,1 -1,1 -2,1 -2,1 0,0 -1,1 -2,2l0 -6c1,-1 2,-2 3,-2 0,-1 1,-1 1,-1 1,-1 2,-1 2,-2 0,0 1,0 1,-1 0,0 1,0 1,-1 1,0 2,-1 4,-3l0 -3 6 0 -2 6c1,-2 2,-3 4,-4 2,-2 4,-2 6,-2 2,0 4,0 5,2 1,1 2,2 2,4 0,3 -1,5 -2,8 -1,1 -2,3 -4,5 1,0 3,-1 4,-1 1,-1 1,-1 2,-2 2,-1 3,-2 5,-3l0 6zm25 0c-3,2 -5,3 -7,4 -3,2 -7,3 -10,3 -1,0 -3,-1 -4,-1 -2,-1 -3,-2 -3,-4 -1,-1 -2,-3 -2,-5 0,-3 1,-5 3,-8 2,-2 4,-4 6,-6 3,-1 6,-2 9,-2 1,0 2,0 3,1 1,0 2,1 2,1 1,1 1,2 1,3 0,2 0,4 -2,6 -1,1 -2,2 -4,3 -1,1 -3,1 -4,2 -1,0 -3,1 -6,1 0,2 2,3 3,3 2,0 5,-1 7,-2 2,-1 4,-3 8,-5l0 6zm-18 -7c3,0 5,-1 7,-2 2,-1 3,-2 3,-3 0,-1 -1,-1 -1,-1 0,-1 -1,-1 -1,-1 -2,0 -3,1 -4,2 -2,1 -3,3 -4,5zm52 -27l0 6c0,0 -1,0 -1,1 -1,0 -2,1 -2,1 0,0 -2,1 -4,2 -1,1 -2,2 -3,2 -1,0 -2,0 -3,0 -1,0 -2,0 -3,-1 -1,-1 -1,-1 -1,-3 0,-1 0,-2 1,-3 1,-1 3,-2 4,-2 2,0 4,1 6,1l6 -4zm0 34l0 1 -1 0c-4,3 -6,4 -8,5 -1,0 -3,1 -4,1 -2,0 -3,-1 -3,-3 0,-2 0,-4 2,-7 0,0 0,0 0,0 0,-1 0,-1 0,-1l-11 8c-2,2 -4,3 -6,3 -1,0 -1,0 -2,-1 -1,0 -1,-1 -1,-2 0,-1 1,-2 1,-4 1,0 1,-1 1,-1 0,0 0,-1 0,-1l-2 2 0 -6c2,-2 3,-3 4,-3l1 -2 3 -3 2 -4 6 0 -7 16c4,-3 7,-6 9,-8 2,-2 3,-3 4,-3 2,-2 4,-4 5,-5l6 -1c-2,7 -5,12 -7,17 0,0 0,0 0,0 0,1 0,1 0,1 1,0 1,0 2,-1l4 -3 2 -1 0 0 0 6zm48 0c-3,2 -5,4 -7,5 -3,1 -5,2 -6,2 -1,0 -2,-1 -3,-1 -1,-1 -1,-2 -1,-3 0,-1 0,-1 1,-3l0 0 4 -10 -14 14c0,0 0,0 0,0 0,0 -1,0 -1,1 -1,1 -2,2 -3,2 -1,0 -1,0 -2,-1 0,0 0,-1 0,-1 0,-1 0,-1 0,-2 0,0 0,0 0,0 0,-1 0,-1 0,-1 0,0 1,-1 1,-1l4 -11 -13 14c0,0 -1,0 -1,0 0,0 0,0 0,0 -2,2 -3,3 -4,3 0,0 -1,0 -1,-1 -1,0 -1,-1 -1,-2 0,-1 1,-3 2,-5 0,0 0,-1 0,-1l0 0c0,0 -1,1 -2,2l-1 0 0 -6 2 -2 2 -1 2 -2 3 -3 2 -4 6 0 -4 9 9 -7c1,-1 2,-2 2,-2 1,-1 2,-1 3,-1 1,0 2,0 3,0 0,1 1,1 1,2 0,1 -1,3 -3,6 0,1 0,2 0,2l9 -8c2,-1 3,-2 3,-2 1,0 2,0 2,0 1,0 2,0 3,0 0,1 1,1 1,2 0,1 0,1 -1,3l-5 11c-1,0 -1,0 -1,0 0,1 0,1 0,2 0,0 0,0 0,0 1,0 1,0 1,0 3,-2 5,-3 8,-5l0 6zm35 0l-1 1 -1 0c-3,3 -6,4 -8,5 -1,0 -2,1 -4,1 -2,0 -3,-1 -3,-3 0,-2 1,-4 2,-7 0,0 0,0 0,0 0,-1 1,-1 1,-1l-11 8c-3,2 -4,3 -6,3 -1,0 -2,0 -3,-1 0,0 0,-1 0,-2 0,-1 0,-2 1,-4 0,0 0,-1 0,-1 0,0 0,-1 1,-1l-3 2 0 -6c2,-2 3,-3 4,-3l2 -2 2 -3 2 -4 7 0 -8 16c5,-3 8,-6 10,-8 2,-2 3,-3 3,-3 3,-2 4,-4 6,-5l6 -1c-3,7 -5,12 -8,17 0,0 0,0 0,0 0,1 0,1 1,1 0,0 0,0 1,-1l5 -3 1 -1 1 0 0 6zm50 0c-1,1 -3,2 -4,2 -2,0 -3,-1 -5,-1 -1,2 -3,3 -4,4 -2,1 -4,2 -6,2 -2,0 -3,-1 -5,-2 -1,-1 -1,-3 -1,-5 0,0 0,-1 0,-3l-4 3 0 -6c1,-1 1,-1 2,-1 0,-1 1,-1 1,-1 0,0 0,-1 1,-1 0,0 0,0 1,-1 1,-1 2,-1 3,-3l10 -25c0,0 0,0 0,0 0,0 0,-1 0,-1 1,-2 2,-3 3,-4 0,-1 1,-2 2,-2 1,0 2,1 2,1 1,1 1,1 1,2 0,1 0,3 -1,5 0,2 -1,3 -1,4l-8 15 -6 16c0,1 0,1 0,2 0,1 0,1 1,1 1,0 2,0 3,-1 1,0 2,-1 3,-3 0,-1 0,-2 0,-3 0,-3 0,-5 1,-7 1,-2 1,-3 2,-4 1,-1 2,-2 3,-2 2,0 3,2 3,4 0,2 0,4 0,6 -1,1 -1,3 -2,5 0,0 1,0 1,0 1,0 2,-1 4,-2l0 6zm22 0l0 -6 3 -2c0,-2 1,-3 2,-5 2,-2 4,-4 6,-5 2,-1 4,-2 6,-2 1,0 3,0 4,1 1,0 2,1 3,2 0,1 1,2 1,3 0,2 -1,4 -3,6 -2,2 -4,3 -7,4 0,0 0,1 -1,2 0,1 0,1 0,2 0,0 0,1 1,1 1,0 2,0 4,-1 4,-2 7,-4 9,-6l0 6c0,1 -2,2 -4,3 -2,1 -4,2 -5,2 -1,1 -3,1 -5,2 -1,0 -1,0 -2,0 -2,0 -3,-1 -4,-2 0,-1 -1,-2 -1,-3 0,-1 0,-2 0,-3 1,0 1,-2 2,-4 1,-1 1,-2 2,-3l0 0 3 -1c0,0 1,-1 2,-1 1,-1 2,-2 2,-2 0,0 1,-1 1,-2 0,-1 -1,-1 -2,-1 -1,0 -3,0 -4,1 -1,1 -3,2 -4,3 -1,2 -1,4 -2,5l-7 6zm58 0l0 0c0,1 0,1 0,1 -1,0 -1,0 -1,0 -3,2 -5,4 -6,5 -1,0 -3,1 -4,1 -2,0 -3,-1 -3,-4 -1,1 -3,2 -4,3 -1,0 -2,1 -4,1 -1,0 -3,-1 -4,-1 -1,-1 -2,-2 -3,-4 -1,-1 -1,-3 -1,-5 0,-2 1,-4 2,-6 1,-2 2,-4 4,-6 2,-1 5,-2 8,-3 2,-1 5,-1 8,-1 2,0 3,0 5,0l0 5c-2,0 -3,0 -5,0 -3,0 -5,0 -8,1 -2,1 -4,3 -5,5 -2,1 -2,3 -2,5 0,3 1,4 2,4 2,0 3,-1 5,-3 2,-2 4,-5 6,-9l6 0c-3,6 -4,9 -4,10 0,0 0,1 1,1 0,0 3,-2 7,-6l0 0 0 6zm10 -6l12 -10 3 -1 1 -2c1,0 1,0 2,0 1,0 2,0 3,1 1,1 1,2 1,3 0,1 0,2 -1,3l-5 10c0,1 0,1 0,1 0,1 0,1 0,1 0,0 1,0 1,0 3,-2 5,-4 8,-6l0 6c-1,1 -2,1 -3,2 0,0 -1,1 -3,2 -3,2 -6,3 -8,3 -1,0 -1,-1 -2,-1 -1,-1 -1,-2 -1,-3 0,0 0,-1 0,-2l5 -8 1 -1c0,-1 0,-1 0,-1 0,0 0,-1 -1,-1 0,0 -2,2 -4,4l-11 10c-1,1 -2,1 -2,2 0,0 -1,0 -1,1 -1,0 -1,0 -2,0 0,0 -1,0 -1,-1 -1,0 -1,-1 -1,-1 0,-1 0,-2 1,-3l1 -4 -3 2 0 -6 4 -2c0,0 0,-1 0,-1 0,0 1,0 1,0 1,-1 1,-1 3,-1 1,0 2,1 2,3 0,0 0,1 0,1zm49 6c-2,2 -5,3 -6,4 -4,2 -7,3 -10,3 -2,0 -3,-1 -4,-1 -2,-1 -3,-2 -3,-4 -1,-1 -2,-3 -2,-5 0,-3 1,-5 3,-8 1,-2 4,-4 6,-6 3,-1 6,-2 9,-2 1,0 2,0 3,1 1,0 2,1 2,1 1,1 1,2 1,3 0,2 -1,4 -2,6 -1,1 -2,2 -4,3 -1,1 -3,1 -4,2 -2,0 -4,1 -6,1 0,2 1,3 3,3 2,0 5,-1 7,-2 2,-1 4,-3 7,-5l0 6zm-17 -7c3,0 5,-1 7,-2 2,-1 2,-2 2,-3 0,-1 0,-1 0,-1 0,-1 -1,-1 -1,-1 -2,0 -3,1 -5,2 -1,1 -2,3 -3,5zm55 7c-2,2 -4,3 -6,4 -3,1 -5,2 -7,2 -1,0 -2,0 -3,-1 -2,1 -3,1 -5,1 -1,0 -2,0 -3,-1 -1,-1 -1,-2 -1,-3 0,0 0,-1 0,-1 1,0 2,0 3,0 0,0 1,0 2,0l1 0c2,-2 4,-4 5,-6 2,-3 2,-5 2,-7 0,0 0,-1 0,-1 0,0 0,0 -1,0 -1,0 -2,0 -4,2 -2,1 -3,3 -5,5 -5,6 -8,14 -10,25 0,3 0,4 -1,5 -1,2 -2,2 -3,2 -1,0 -2,0 -2,0 -1,-1 -1,-2 -1,-3 0,-1 0,-4 1,-8 1,-2 2,-5 3,-7 0,-2 1,-4 2,-6 1,-2 2,-5 4,-9 -2,1 -3,2 -3,3 0,0 -1,0 -1,0 -1,1 -1,1 -1,1 -1,1 -1,1 -1,1 -1,0 -1,1 -3,2l0 -6c2,-1 2,-2 3,-2 1,-1 1,-1 2,-1 0,-1 1,-1 1,-2 1,0 1,0 1,-1 1,0 1,0 1,-1 1,0 2,-1 4,-3l1 -3 5 0 -2 6c1,-2 3,-3 4,-4 2,-2 4,-2 7,-2 2,0 3,0 4,2 2,1 2,2 2,4 0,3 0,5 -2,8 -1,1 -2,3 -4,5 2,0 3,-1 4,-1 1,-1 2,-1 2,-2 2,-1 3,-2 5,-3l0 6zm25 0c-3,2 -5,3 -7,4 -3,2 -6,3 -9,3 -2,0 -4,-1 -5,-1 -1,-1 -2,-2 -3,-4 -1,-1 -1,-3 -1,-5 0,-3 1,-5 2,-8 2,-2 4,-4 7,-6 2,-1 5,-2 8,-2 1,0 3,0 3,1 1,0 2,1 3,1 0,1 1,2 1,3 0,2 -1,4 -3,6 -1,1 -2,2 -4,3 -1,1 -2,1 -4,2 -1,0 -3,1 -6,1 1,2 2,3 4,3 2,0 4,-1 6,-2 2,-1 5,-3 8,-5l0 6zm-18 -7c3,0 6,-1 7,-2 2,-1 3,-2 3,-3 0,-1 0,-1 -1,-1 0,-1 0,-1 -1,-1 -1,0 -3,1 -4,2 -1,1 -3,3 -4,5zm61 1l0 6c-2,1 -3,1 -5,1 -1,0 -2,0 -3,0l-1 0c0,2 -1,2 -2,3 -2,2 -5,3 -8,3 -2,0 -3,-1 -5,-1 -1,-1 -2,-2 -3,-4 0,-1 -1,-2 -1,-4 0,-1 0,-1 0,-1 0,0 0,0 0,0 -2,0 -3,0 -4,1 -2,1 -3,2 -3,4l-2 4c-1,2 -3,3 -4,3 -2,0 -3,-1 -3,-3 0,-2 0,-3 0,-4 1,0 2,-2 3,-3l1 -1 -3 2 0 -6c0,0 1,-1 1,-1 0,0 1,-1 2,-2l2 -2c1,-1 2,-2 3,-3l2 -4 6 0 -4 10 0 0c2,-1 3,-1 4,-2l1 0c0,-2 1,-3 3,-5 1,-2 3,-3 5,-4 2,-1 4,-1 5,-1 2,0 3,0 5,1 1,0 2,1 3,2 0,1 1,3 1,4 0,1 -1,3 -2,4 0,1 1,1 1,2 0,1 -1,2 -1,3 0,0 1,0 1,0 1,0 2,0 3,-1l1 -1 1 0zm-13 4c-1,-1 -1,-2 -1,-3 0,-2 1,-4 3,-6 0,0 0,0 0,-1 0,0 0,-1 0,-1 -1,0 -2,-1 -2,-1 -2,0 -3,1 -4,2 -1,1 -2,2 -3,4 0,1 -1,3 -1,5 0,1 0,2 1,3 1,0 1,1 2,1 2,0 3,-1 5,-3zm-429 64l-7 0 1 -3c-2,1 -4,2 -5,2 -2,1 -3,1 -6,1 -2,0 -4,-1 -6,-2 -2,-1 -3,-2 -4,-4 -1,-2 -2,-4 -2,-7 0,-3 1,-6 2,-9 1,-4 2,-8 4,-11 2,-3 4,-6 6,-9 2,-2 5,-5 9,-6 3,-2 6,-3 9,-3 2,0 4,1 6,1 1,1 2,1 3,1 0,1 1,2 2,3l0 0 3 -5 7 -1 -2 6c3,-2 5,-3 7,-4 2,0 4,-1 6,-1 2,0 2,0 3,1 1,1 1,1 1,2 0,0 0,1 0,1 0,1 -1,1 -1,2 -1,0 -2,0 -4,1 -4,1 -8,3 -11,6 -4,3 -7,7 -9,11 -2,5 -3,9 -3,13 0,3 0,4 1,6 1,1 3,2 5,2 1,0 3,-1 5,-1 2,-1 4,-2 5,-4 2,-1 3,-3 5,-5 4,-7 6,-12 6,-17 0,-2 -1,-2 -3,-2 -1,0 -3,1 -4,2 -2,2 -2,5 -3,8l-7 3 0 -1c0,-2 0,-4 1,-6 1,-2 2,-4 3,-6 1,-2 3,-3 4,-4 2,-2 5,-3 7,-3 2,0 3,1 5,1 1,1 2,2 3,3 0,1 1,3 1,5 0,2 -1,5 -2,9 -1,3 -2,6 -4,10 -2,3 -5,6 -7,8 -3,2 -6,4 -9,5 -2,1 -5,1 -7,1 -2,0 -4,0 -5,-1 -2,-1 -3,-1 -4,-2l-2 -3 0 -1 -3 7zm6 -31c1,-2 1,-4 1,-7 0,-1 0,-2 0,-3 -1,-1 -2,-2 -3,-3 0,0 -2,0 -3,0 -3,0 -5,0 -7,1 -2,1 -4,3 -6,6 -7,7 -10,15 -10,23 0,1 0,2 0,3 1,1 1,2 2,3 0,0 1,1 2,1 1,1 1,1 3,1 2,0 5,-1 7,-3 2,-2 4,-4 6,-6 2,-2 3,-5 4,-8l4 -8zm59 24c-1,1 -3,2 -4,2 -1,0 -2,0 -3,-1 -1,1 -2,2 -3,3 0,0 -1,1 -2,1 -2,1 -4,2 -6,2 -3,0 -5,-1 -7,-3 -1,-1 -2,-4 -2,-6 0,-4 1,-6 2,-9 2,-3 3,-5 6,-6 2,-2 5,-3 7,-3 3,0 5,1 6,2 2,2 3,3 3,5 0,1 -1,3 -2,4 0,1 0,2 0,2 0,1 0,2 0,3l1 0 0 0c1,0 3,0 4,-2l0 6zm-10 -10l0 -1 0 0c0,-1 0,-1 -1,-2 0,0 -1,0 -1,0 -2,0 -3,0 -4,1 -1,1 -2,2 -3,4 -1,1 -1,3 -1,5 0,1 0,2 1,3 0,1 1,1 2,1 1,0 2,0 3,-2 1,0 1,0 2,0 -1,-2 -1,-3 -1,-4 0,-2 1,-4 3,-5zm58 10c-3,2 -5,4 -7,5 -3,1 -5,2 -6,2 -1,0 -2,0 -3,-1 -1,-1 -1,-2 -1,-3 0,0 0,-1 1,-2l0 -1 4 -9 -14 13c0,0 0,0 0,0 -1,1 -1,1 -1,1 -1,1 -2,2 -3,2 -1,0 -1,0 -2,-1 0,0 0,0 0,-1 0,0 0,-1 0,-2 0,0 0,0 0,0 0,0 0,-1 0,-1 0,0 1,0 1,-1l4 -10 -13 13c0,0 -1,0 -1,0 0,0 0,1 0,1 -2,1 -3,2 -4,2 0,0 -1,0 -1,-1 -1,0 -1,-1 -1,-1 0,-2 1,-3 2,-6 0,0 0,0 0,-1l0 0c0,0 -1,1 -2,2l-1 0 0 -6 2 -1 2 -2 2 -2 3 -3 2 -4 6 0 -4 9 9 -7c1,-1 2,-2 2,-2 1,-1 2,-1 3,-1 1,0 2,0 3,1 0,0 1,1 1,1 0,1 -1,4 -3,7 0,0 0,1 0,1l9 -8c2,-1 2,-1 3,-2 1,0 2,0 2,0 1,0 2,0 3,1 0,0 1,1 1,1 0,1 -1,2 -1,3l-5 11c-1,1 -1,1 -1,1 0,0 0,1 0,1 0,0 0,0 0,0 1,0 1,0 1,0 3,-1 5,-3 8,-5l0 6zm27 0c-2,1 -3,2 -5,2 -1,0 -2,0 -3,-1 -1,1 -2,2 -2,3 -1,0 -2,1 -3,1 -2,1 -4,2 -6,2 -2,0 -5,-1 -6,-3 -2,-1 -2,-4 -2,-6 0,-4 0,-6 2,-9 1,-3 3,-5 5,-6 3,-2 5,-3 8,-3 2,0 4,1 6,2 1,2 2,3 2,5 0,1 0,3 -2,4 1,1 1,2 1,2 0,1 0,2 -1,3l1 0 1 0c1,0 2,0 4,-2l0 6zm-11 -10l1 -1 0 0c0,-1 -1,-1 -1,-2 -1,0 -1,0 -2,0 -1,0 -2,0 -4,1 -1,1 -2,2 -2,4 -1,1 -1,3 -1,5 0,1 0,2 0,3 1,1 2,1 2,1 2,0 3,0 4,-2 0,0 1,0 1,0 -1,-2 -1,-3 -1,-4 0,-2 1,-4 3,-5zm59 4l0 6c-1,1 -3,2 -5,2 -1,0 -1,-1 -2,-1 -3,4 -7,6 -11,6 -3,0 -5,-1 -7,-3 -1,-1 -2,-4 -2,-7 0,-4 1,-7 3,-10 3,-3 5,-5 9,-6l-3 -3c0,-1 -1,-1 -1,-2 0,0 0,-1 0,-2 0,0 0,-1 0,-2 1,-1 1,-1 2,-2l11 -11c2,-1 3,-2 3,-3 1,0 2,0 2,0 2,0 3,1 3,2 0,1 0,1 -1,2l-1 1 0 1 -11 9c0,1 -1,1 -1,2 0,1 0,1 0,2 0,1 0,2 1,3 0,0 1,0 2,1 0,1 1,1 1,1 1,1 1,1 1,1 1,1 1,1 2,2 1,1 2,2 2,4 0,1 -1,3 -2,4 0,1 0,1 0,3 0,0 0,1 0,2 0,0 1,0 1,0 1,0 3,0 4,-2zm-12 4c-1,-1 -1,-2 -1,-3 0,-1 0,-2 0,-3 1,-1 2,-2 3,-2 0,-1 0,-1 0,-1 0,-1 0,-1 -1,-2 0,0 -1,-1 -2,-1 -1,0 -2,1 -3,2 -1,1 -2,2 -3,4 -1,1 -1,3 -1,5 0,1 0,2 1,3 0,1 1,1 2,1 1,0 2,0 2,-1 1,0 2,-1 3,-2zm37 2c-3,2 -5,4 -7,5 -3,1 -6,2 -9,2 -2,0 -4,0 -5,-1 -1,-1 -2,-2 -3,-4 -1,-1 -1,-3 -1,-5 0,-2 1,-5 2,-7 2,-3 4,-5 7,-7 3,-1 5,-2 8,-2 2,0 3,0 4,1 1,0 1,1 2,2 0,0 1,1 1,2 0,3 -1,5 -3,6 -1,1 -2,2 -3,3 -2,1 -3,2 -5,2 -1,1 -3,1 -6,2 1,1 2,2 4,2 2,0 4,0 7,-2 1,-1 4,-2 7,-5l0 6zm-17 -6c2,-1 5,-2 6,-3 2,-1 3,-2 3,-3 0,-1 0,-1 0,-1 -1,0 -1,-1 -2,-1 -1,0 -3,1 -4,2 -1,2 -2,3 -3,6zm47 6l-12 10c-2,5 -3,8 -5,11 -1,2 -3,4 -5,5 -2,1 -4,1 -5,1 -2,0 -3,0 -4,-1 -1,-1 -2,-2 -2,-4 0,-2 1,-4 3,-6 1,-1 2,-2 2,-2 2,-2 5,-4 10,-6 0,0 0,0 0,-1 0,0 0,-1 0,-2 0,0 0,-1 0,-1l0 0c-1,0 -1,0 -1,0 -1,0 -2,0 -3,0 -1,0 -2,0 -2,0 -1,-1 -1,-1 -1,-2 0,-1 0,-1 1,-2 1,-1 1,-1 2,-2 1,0 2,-1 3,-1 1,0 1,1 2,1 4,-3 6,-6 6,-9 0,-1 0,-1 -1,-2 0,0 -1,0 -1,0 -2,0 -4,1 -7,4 -1,1 -1,1 -1,1l-7 6c0,0 0,1 -1,1 0,0 0,1 -1,1l0 -6 1 0c1,-1 1,-2 1,-2l1 0 6 -6c3,-3 6,-5 9,-5 2,0 4,1 5,2 2,2 3,3 3,5 0,3 -1,5 -3,8 -2,1 -4,3 -6,5 0,1 1,2 1,3l1 -1 2 -1 3 -3 4 -3 2 -2 0 6zm-20 14c-2,1 -4,3 -6,4 -1,2 -2,3 -2,4 0,0 0,1 1,1 1,0 2,-1 4,-2 1,-1 1,-2 2,-3 0,-1 0,-2 1,-4zm72 -14c-2,2 -5,4 -7,6 -1,1 -2,2 -3,2 -1,1 -3,3 -4,4l-3 8c-1,2 -2,4 -3,5 -1,1 -2,2 -4,2 0,0 -1,-1 -2,-1 0,-1 -1,-2 -1,-3 0,-2 1,-4 3,-7 1,-2 3,-5 6,-8l1 -3c-2,1 -4,2 -6,2 -2,0 -4,-1 -5,-3 -2,-2 -2,-4 -2,-7 0,-3 1,-6 2,-8 2,-3 5,-5 8,-6 4,-1 7,-2 12,-2 1,0 2,0 4,0l1 5c-3,0 -5,0 -6,0 -3,0 -5,0 -7,1 -3,1 -4,3 -6,4 -1,2 -1,4 -1,6 0,1 0,2 0,3 1,0 1,1 2,1 1,0 2,-1 4,-2 1,-1 1,-1 2,-2 1,-2 3,-4 5,-8l6 0 -5 12 1 -1 7 -4 1 -2 0 6zm30 0l0 1c0,0 0,0 -1,0 0,0 0,0 0,1 -3,2 -5,3 -6,4 -2,1 -3,1 -4,1 -2,0 -3,-1 -3,-4 -2,2 -3,3 -4,3 -1,1 -2,1 -4,1 -1,0 -3,0 -4,-1 -1,-1 -2,-2 -3,-3 -1,-2 -1,-3 -1,-5 0,-3 1,-5 2,-7 1,-2 2,-4 4,-5 2,-2 5,-3 8,-4 2,-1 5,-1 8,-1 2,0 3,0 5,0l0 5c-2,0 -3,0 -5,0 -3,0 -5,1 -8,2 -2,1 -4,2 -5,4 -2,2 -2,3 -2,5 0,3 1,4 2,4 2,0 3,-1 5,-3 2,-2 4,-5 6,-9l6 0c-3,6 -4,10 -4,10 0,1 0,1 0,1 1,0 4,-2 8,-6l0 0 0 6zm48 0c-3,2 -5,4 -7,5 -3,1 -5,2 -6,2 -1,0 -2,0 -3,-1 0,-1 -1,-2 -1,-3 0,0 0,-1 1,-2l0 -1 4 -9 -14 13c0,0 0,0 0,0 0,1 -1,1 -1,1 -1,1 -2,2 -3,2 -1,0 -1,0 -2,-1 0,0 0,0 0,-1 0,0 0,-1 0,-2 0,0 0,0 0,0 0,0 0,-1 0,-1 1,0 1,0 1,-1l5 -10 -14 13c0,0 -1,0 -1,0 0,0 0,1 0,1 -2,1 -3,2 -4,2 0,0 -1,0 -1,-1 -1,0 -1,-1 -1,-1 0,-2 1,-3 2,-6 0,0 0,0 0,-1l0 0c0,0 -1,1 -2,2l-1 0 0 -6 2 -1 2 -2 2 -2 3 -3 2 -4 6 0 -4 9 9 -7c1,-1 2,-2 3,-2 0,-1 1,-1 3,-1 0,0 1,0 2,1 0,0 1,1 1,1 0,1 -1,4 -2,7 -1,0 -1,1 -1,1l9 -8c2,-1 3,-1 3,-2 1,0 2,0 2,0 1,0 2,0 3,1 1,0 1,1 1,1 0,1 0,2 -1,3l-5 11c0,1 0,1 0,1 -1,0 -1,1 -1,1 0,0 0,0 0,0 1,0 1,0 2,0 2,-1 4,-3 7,-5l0 6zm0 -6c0,0 0,0 0,0 0,0 0,0 0,0 2,-2 3,-2 3,-3 0,0 1,0 1,0 0,-1 1,-1 1,-1 2,-2 3,-4 4,-5l1 -3 8 0 -6 12c0,1 -1,2 -1,3 -1,1 -1,2 -1,3 0,1 0,2 1,2 1,0 2,-1 3,-1l1 -1 1 -1 0 0c0,-1 -1,-1 -2,-2 0,-1 0,-1 0,-2 0,-2 0,-3 2,-5 1,-1 2,-2 4,-2 1,0 2,1 3,2 1,0 1,1 1,2 0,1 0,1 0,2 0,0 0,0 0,0 0,0 0,1 0,1 1,0 1,0 2,0 0,-1 1,-2 2,-3 0,-1 1,-3 3,-5 2,-2 3,-3 3,-5l7 0 -1 0 -5 10 0 1 -1 3c-1,1 -1,2 -1,2 0,1 0,1 1,1 0,0 0,0 0,0l1 -1 6 -4 0 6c0,1 0,1 -1,1 0,0 -1,1 -3,2 -2,1 -4,2 -4,2 -3,1 -4,2 -5,2 -1,0 -2,0 -2,-1 -1,-1 -1,-1 -1,-2 0,-1 0,-2 1,-3l0 -1c-2,1 -3,1 -5,1 0,0 0,0 -1,0 0,1 -2,3 -4,4 -2,1 -4,2 -6,2 -2,0 -3,-1 -4,-2 -1,-1 -2,-2 -2,-4 0,-2 1,-3 1,-5 0,0 -1,1 -3,3 0,0 -1,1 -2,1l0 -6z"/>
 </g>
</svg>
