<?xml version="1.0" encoding="UTF-8"?>
<!DOCTYPE svg PUBLIC "-//W3C//DTD SVG 1.1//EN" "http://www.w3.org/Graphics/SVG/1.1/DTD/svg11.dtd">
<!-- Creator: CorelDRAW X8 -->
<svg xmlns="http://www.w3.org/2000/svg" xml:space="preserve" width="400px" height="400px" version="1.1" style="shape-rendering:geometricPrecision; text-rendering:geometricPrecision; image-rendering:optimizeQuality; fill-rule:evenodd; clip-rule:evenodd"
viewBox="0 0 400 400"
 xmlns:xlink="http://www.w3.org/1999/xlink">
 <defs>
  <style type="text/css">
   <![CDATA[
    .str0 {stroke:black;stroke-width:6.00001}
    .fil0 {fill:white}
   ]]>
  </style>
 </defs>
 <g id="Слой_x0020_1">
  <metadata id="CorelCorpID_0Corel-Layer"/>
  <path class="fil0 str0" d="M200 37c15,0 30,2 44,7 5,1 9,2 13,4l10 4c2,1 4,2 7,3 5,3 11,6 16,10 3,2 7,4 10,7 0,0 0,0 0,0 5,5 8,7 15,13l22 28c0,0 0,0 0,0l1 1c3,5 6,10 9,16 0,1 0,1 1,2l1 5c1,1 1,2 2,3 1,3 2,5 3,8 1,2 1,5 2,7 8,26 9,56 2,81 -2,10 -5,18 -8,27l-2 5c-3,6 -7,13 -10,18l-5 7c0,0 0,0 0,0 0,0 0,1 0,1 -1,0 -1,1 -1,1 -1,1 -2,2 -3,3l-1 2c0,0 0,0 0,0 -1,1 0,1 -1,1 -5,6 -11,13 -17,19l-6 4c-1,1 -1,2 -2,2 -1,1 -1,1 -2,2 0,0 0,0 0,0l-5 4c-1,1 -1,1 -2,1 -2,1 -4,3 -6,4l-13 8c-6,3 -12,5 -18,7 -1,1 -2,1 -4,2 -23,8 -46,10 -71,8 -6,-1 -12,-2 -18,-4 -5,-1 -10,-2 -15,-4l-15 -6c-4,-1 -9,-4 -13,-7l-10 -6c-3,-2 -7,-4 -10,-7l-10 -8c-4,-4 -8,-9 -12,-13 -1,-1 -2,-2 -3,-3l-9 -12c0,0 0,0 0,0l-3 -5c-3,-4 -6,-9 -8,-14l-6 -13c-1,-3 -2,-5 -3,-8 -3,-11 -6,-21 -8,-33 -1,-12 -1,-26 1,-38 1,-16 6,-30 11,-44 3,-6 5,-11 8,-17 2,-2 3,-4 4,-6 0,-1 1,-1 1,-1 0,0 0,0 0,0l1 -2c0,0 0,0 0,0l9 -12c5,-6 11,-13 17,-19 1,-1 2,-1 3,-2l6 -6c1,0 1,0 1,0l10 -7c1,-1 2,-2 3,-2 10,-6 17,-10 27,-14l15 -5c8,-3 17,-5 26,-5 6,-1 12,-2 19,-2zm-193 156c0,17 0,26 3,43 0,1 0,1 0,2 1,1 0,0 1,1l10 34c0,1 1,2 1,4l10 19c4,7 7,10 10,16 3,4 6,9 10,12l2 3c3,3 7,6 9,9 2,2 3,3 5,6 2,1 2,1 3,2 3,3 7,6 10,9 2,1 4,3 7,4 1,1 2,2 3,3l11 7c1,0 2,1 3,2l8 4c13,6 25,11 39,14 11,3 30,6 41,6 15,0 26,0 40,-3 7,-1 7,-1 15,-3 7,-1 12,-3 18,-5 6,-2 11,-4 16,-7 2,-1 3,-1 4,-2 7,-3 13,-7 19,-11 2,-1 5,-3 7,-4l19 -16c4,-4 8,-7 12,-12 5,-6 7,-8 13,-16 4,-5 8,-11 12,-17 0,-2 1,-3 2,-4l3 -8c5,-8 10,-20 12,-29 2,-5 3,-9 4,-14l0 -2c0,0 0,0 0,0 5,-25 5,-50 1,-76l-1 -5c0,0 0,0 0,0 -4,-15 -7,-26 -13,-40l-4 -8c-4,-8 -10,-16 -15,-23 -2,-4 -5,-9 -9,-12l-1 -1c-1,-1 0,-1 -1,-2 -3,-3 -7,-6 -9,-9 -2,-2 -3,-3 -5,-6l-13 -11c-10,-7 -21,-14 -32,-20 -2,-1 -3,-1 -4,-2 -2,0 -3,-1 -4,-1l-13 -6c-8,-3 -18,-6 -27,-8 -9,-1 -24,-3 -32,-3 -20,0 -27,0 -46,3 -12,2 -28,8 -39,13l-8 4c-12,5 -28,16 -37,24l-5 4c-3,3 -7,6 -9,9l-11 12c-2,2 -4,4 -6,6 -6,9 -13,19 -18,29 0,1 -1,3 -2,4l-5 12c-3,7 -9,24 -10,31l0 3c-2,9 -4,22 -4,32z"/>
  <path class="fil0 str0" d="M115 176c2,0 4,-3 5,-4 3,-3 12,-12 13,-14l31 30 24 -24 -30 -31c1,0 18,-16 18,-18l-61 0 0 61z"/>
  <path class="fil0 str0" d="M133 242c-1,-2 -10,-11 -13,-14 -1,-1 -3,-4 -5,-4l0 61 61 0c0,-2 -17,-18 -18,-18l30 -31 -24 -24 -31 30z"/>
  <path class="fil0 str0" d="M242 134l-30 30 24 24 30 -30c1,1 17,18 19,18l0 -61 -61 0c0,2 3,4 4,5 3,3 12,12 14,14z"/>
  <path class="fil0 str0" d="M212 236l29 30c-1,2 -10,11 -13,14 -1,1 -4,3 -4,5l61 0 0 -61c-3,0 -16,15 -19,18l-30 -30 -24 24z"/>
 </g>
</svg>
