<?xml version="1.0" encoding="UTF-8"?>
<!DOCTYPE svg PUBLIC "-//W3C//DTD SVG 1.1//EN" "http://www.w3.org/Graphics/SVG/1.1/DTD/svg11.dtd">
<!-- Creator: CorelDRAW X8 -->
<svg xmlns="http://www.w3.org/2000/svg" xml:space="preserve" width="650px" height="90px" version="1.1" style="shape-rendering:geometricPrecision; text-rendering:geometricPrecision; image-rendering:optimizeQuality; fill-rule:evenodd; clip-rule:evenodd"
viewBox="0 0 650 90"
 xmlns:xlink="http://www.w3.org/1999/xlink">
 <defs>
  <style type="text/css">
   <![CDATA[
    .str1 {stroke:black;stroke-width:1.99961}
    .str0 {stroke:#2B2A29;stroke-width:2.36221}
    .fil0 {fill:white}
    .fil1 {fill:white;fill-rule:nonzero}
   ]]>
  </style>
 </defs>
 <g id="Слой_x0020_1">
  <metadata id="CorelCorpID_0Corel-Layer"/>
  <path class="fil0 str0" d="M5 1l640 0c3,0 6,3 6,6l0 76c0,3 -3,6 -6,6l-640 0c-3,0 -6,-3 -6,-6l0 -76c0,-3 3,-6 6,-6zm3 5l634 0c1,0 3,1 3,3l0 72c0,1 -2,2 -3,2l-634 0c-1,0 -3,-1 -3,-2l0 -72c0,-2 2,-3 3,-3z"/>
  <g id="_1871521172576">
   <path class="fil1 str1" d="M20 67l4 -6c1,0 2,1 4,1 3,0 7,-3 11,-8 1,-2 2,-3 3,-5 0,-1 1,-3 2,-4 1,-2 2,-5 3,-8 2,-4 2,-6 3,-8 0,-1 0,-3 0,-5l0 0c-3,0 -6,1 -7,3 -1,1 -2,2 -3,3 0,1 -1,2 -1,4 0,1 0,3 0,7l0 0 -8 4c0,0 0,0 0,0 0,-1 0,-1 0,-2 0,-2 0,-5 1,-9 1,-2 2,-5 2,-6 1,-2 2,-4 3,-5 2,-2 4,-3 6,-4 3,-1 5,-1 8,-1l26 0 -1 6 -2 0c0,1 0,1 0,1 -2,2 -3,6 -5,12l-4 9c0,2 -1,5 -2,8 -1,2 -1,5 -2,7 -1,2 -1,4 -1,6l-8 1 0 -1c1,-3 2,-7 3,-11 2,-6 3,-10 4,-11 1,-4 2,-7 3,-10 2,-4 3,-7 4,-10l1 -1 -10 0c0,2 0,4 -1,6 0,2 -1,5 -1,7 -1,2 -2,5 -3,7 -1,2 -2,5 -3,7 -4,6 -7,11 -11,14 -2,1 -3,2 -5,2 -2,1 -4,1 -6,1 -1,0 -2,0 -3,0 -1,0 -2,-1 -4,-1zm75 -5c-3,2 -5,3 -7,4 -3,2 -7,2 -10,2 -1,0 -3,0 -4,-1 -2,-1 -3,-2 -3,-3 -1,-2 -1,-3 -1,-5 0,-3 0,-5 2,-8 2,-3 4,-5 6,-6 3,-2 6,-2 9,-2 1,0 2,0 3,0 1,1 2,1 3,2 0,1 0,2 0,3 0,2 0,4 -2,6 -1,1 -2,2 -4,3 -1,1 -3,1 -4,2 -1,0 -3,1 -6,1 0,2 2,3 3,3 2,0 5,-1 7,-2 2,-1 5,-3 8,-5l0 6zm-18 -7c3,0 5,-1 7,-2 2,-1 3,-3 3,-4 0,0 0,-1 -1,-1 0,0 0,0 -1,0 -2,0 -3,0 -4,2 -2,1 -3,3 -4,5zm55 7c-2,2 -4,3 -6,4 -2,1 -5,2 -7,2 -1,0 -2,-1 -3,-1 -2,1 -3,1 -5,1 -1,0 -2,0 -3,-1 -1,-1 -1,-2 -1,-3 0,-1 0,-1 1,-1 0,-1 1,-1 2,-1 1,0 1,0 2,0l1 0c2,-2 4,-3 5,-5 2,-3 3,-5 3,-7 0,-1 -1,-1 -1,-1 0,-1 0,-1 -1,-1 -1,0 -2,1 -4,2 -1,2 -3,4 -5,6 -4,6 -8,14 -9,25 -1,2 -1,4 -2,5 -1,1 -2,2 -3,2 -1,0 -2,0 -2,-1 -1,0 -1,-1 -1,-2 0,-1 0,-4 2,-8 0,-3 1,-5 2,-7 0,-2 1,-4 2,-6 1,-3 2,-6 4,-10 -2,2 -3,3 -3,3 0,0 -1,1 -1,1 0,0 -1,1 -1,1 -1,0 -1,1 -1,1 -1,0 -1,1 -2,2l0 -6c1,-1 2,-2 2,-2 1,-1 1,-1 2,-2 1,0 1,-1 2,-1 0,0 0,-1 1,-1 0,0 0,-1 1,-1 1,-1 2,-2 3,-3l1 -3 5 0 -2 6c2,-2 3,-3 4,-4 2,-2 4,-3 7,-3 2,0 3,1 5,2 1,2 1,3 1,5 0,2 0,5 -2,7 -1,2 -2,4 -4,6 2,-1 3,-1 4,-2 1,0 2,0 2,-1 2,-1 4,-2 5,-3l0 6zm25 0c-3,2 -5,3 -7,4 -3,2 -6,2 -9,2 -2,0 -3,0 -5,-1 -1,-1 -2,-2 -3,-3 -1,-2 -1,-3 -1,-5 0,-3 1,-5 2,-8 2,-3 4,-5 7,-6 3,-2 5,-2 8,-2 2,0 3,0 4,0 1,1 1,1 2,2 0,1 1,2 1,3 0,2 -1,4 -3,6 -1,1 -2,2 -3,3 -2,1 -3,1 -5,2 -1,0 -3,1 -6,1 1,2 2,3 4,3 2,0 4,-1 7,-2 1,-1 4,-3 7,-5l0 6zm-17 -7c2,0 5,-1 6,-2 2,-1 3,-3 3,-4 0,0 0,-1 0,-1 -1,0 -1,0 -2,0 -1,0 -3,0 -4,2 -1,1 -2,3 -3,5zm52 -28l-1 7c0,0 0,0 -1,1 -1,0 -1,0 -1,1 -1,0 -2,1 -4,2 -2,1 -3,1 -4,2 -1,0 -1,0 -2,0 -2,0 -3,0 -4,-1 0,-1 -1,-2 -1,-3 0,-1 1,-3 2,-3 1,-1 2,-2 4,-2 2,0 3,0 5,1l7 -5zm0 35l-1 0 -1 1c-3,2 -6,4 -8,5 -1,0 -2,0 -4,0 -2,0 -3,-1 -3,-2 0,-2 1,-4 2,-7 0,0 0,-1 0,-1 1,0 1,0 1,-1l-11 9c-2,2 -4,2 -6,2 -1,0 -2,0 -2,0 -1,-1 -1,-1 -1,-2 0,-1 0,-3 1,-5 0,0 0,0 0,0 0,-1 1,-1 1,-1l-3 2 0 -6c2,-2 3,-3 4,-4l2 -1 2 -3 2 -5 7 0 -7 17c4,-4 7,-6 9,-8 2,-2 3,-3 3,-3 3,-2 4,-4 6,-6l6 0c-3,6 -5,12 -7,16 -1,1 -1,1 -1,1 0,1 0,1 1,1 0,0 1,0 1,-1l5 -3 2 -1 0 0 0 6zm47 0c-3,2 -5,4 -7,5 -2,1 -4,1 -6,1 -1,0 -2,0 -2,-1 -1,0 -1,-1 -1,-2 0,-1 0,-2 0,-3l1 -1 4 -9 -15 14c0,0 0,0 0,0 0,0 0,0 0,0 -2,2 -3,2 -4,2 0,0 -1,0 -1,0 -1,0 -1,-1 -1,-2 0,0 0,0 0,-1 0,0 0,0 1,-1 0,0 0,0 0,0 0,0 0,-1 0,-2l5 -10 -14 13c0,0 0,1 0,1 0,0 -1,0 -1,0 -1,2 -2,2 -3,2 -1,0 -1,0 -2,0 0,-1 0,-1 0,-2 0,-1 0,-3 1,-5 0,-1 0,-1 1,-1l0 0c-1,0 -1,0 -3,1l0 1 0 -6 2 -2 2 -2 1 -1 4 -4 1 -4 6 0 -4 10 9 -8c1,0 2,-1 3,-2 1,0 2,0 3,0 1,0 2,0 2,0 1,1 1,1 1,2 0,1 -1,3 -2,6 0,1 -1,2 -1,2l10 -8c1,-1 2,-2 3,-2 0,0 1,-1 2,-1 1,0 2,1 2,1 1,0 1,1 1,2 0,0 0,1 -1,2l-5 12c0,0 0,0 0,0 0,1 -1,1 -1,1 0,1 1,1 1,1 0,0 1,0 1,-1 2,-1 5,-3 7,-4l0 6zm35 0l0 0 -1 1c-4,2 -7,4 -9,5 -1,0 -2,0 -3,0 -2,0 -3,-1 -3,-2 0,-2 0,-4 2,-7 0,0 0,-1 0,-1 0,0 0,0 0,-1l-11 9c-2,2 -4,2 -6,2 -1,0 -2,0 -2,0 -1,-1 -1,-1 -1,-2 0,-1 0,-3 1,-5 0,0 1,0 1,0 0,-1 0,-1 0,-1l-3 2 0 -6c2,-2 4,-3 4,-4l2 -1 2 -3 2 -5 7 0 -7 17c4,-4 7,-6 9,-8 2,-2 3,-3 4,-3 2,-2 4,-4 5,-6l6 0c-2,6 -5,12 -7,16 0,1 0,1 0,1 0,1 0,1 0,1 0,0 1,0 1,-1l5 -3 2 -1 0 0 0 6zm51 0c-2,1 -3,1 -5,1 -1,0 -3,0 -4,-1 -2,2 -3,4 -5,4 -2,2 -4,2 -6,2 -1,0 -3,0 -4,-1 -1,-1 -2,-3 -2,-5 0,-1 0,-2 0,-3l-3 3 0 -6c0,-1 1,-1 1,-2 1,0 1,0 1,0 0,-1 1,-1 1,-1 0,0 1,-1 2,-1 0,-1 1,-2 2,-3l11 -25c0,0 0,0 0,-1 0,0 0,0 0,0 1,-2 1,-4 2,-5 1,0 2,-1 3,-1 1,0 1,0 2,1 0,0 0,1 0,2 0,1 0,3 0,4 -1,2 -1,4 -2,5l-7 15 -7 16c0,0 0,1 0,2 0,1 0,1 1,1 1,0 2,0 3,-1 1,0 2,-2 4,-4 0,-1 -1,-2 -1,-3 0,-2 1,-4 1,-6 1,-2 2,-3 3,-5 1,-1 2,-1 3,-1 2,0 3,1 3,4 0,2 0,4 -1,6 0,1 -1,3 -2,4 1,0 1,1 2,1 1,0 2,-1 4,-2l0 6zm21 0l0 -6 3 -2c1,-2 2,-4 3,-5 1,-2 3,-4 5,-5 2,-2 4,-2 6,-2 2,0 3,0 4,0 1,1 2,2 3,2 1,1 1,2 1,3 0,2 -1,4 -3,6 -2,2 -4,4 -6,5 -1,0 -1,1 -1,2 0,0 -1,1 -1,1 0,1 1,2 2,2 1,0 2,-1 3,-2 4,-2 8,-3 10,-5l0 6c-1,0 -2,1 -5,2 -2,2 -4,3 -5,3 -1,0 -2,1 -4,1 -1,0 -2,0 -3,0 -1,0 -2,0 -3,-1 -1,-1 -1,-2 -1,-4 0,0 0,-1 0,-2 0,0 1,-2 2,-4 0,-2 1,-3 1,-3l1 0 2 -2c1,0 1,0 2,-1 2,-1 2,-1 3,-1 0,-1 0,-1 0,-2 0,-1 -1,-2 -2,-2 -1,0 -2,1 -4,2 -1,1 -2,2 -3,3 -1,2 -2,3 -2,5l-8 6zm59 0l0 0c-1,0 -1,0 -1,1 0,0 0,0 -1,0 -2,2 -4,4 -6,4 -1,1 -2,1 -4,1 -2,0 -3,-1 -3,-3 -1,1 -2,2 -3,3 -1,0 -3,0 -4,0 -2,0 -3,0 -5,-1 -1,0 -2,-1 -2,-3 -1,-1 -1,-3 -1,-5 0,-2 0,-4 1,-7 1,-2 3,-3 5,-5 2,-1 4,-3 7,-3 3,-1 6,-2 9,-2 1,0 3,1 4,1l0 5c-1,0 -3,0 -4,0 -3,0 -6,0 -8,1 -2,1 -4,2 -6,4 -1,2 -2,4 -2,6 0,2 1,4 3,4 1,0 3,-1 5,-4 2,-2 4,-4 5,-8l7 0c-3,6 -5,9 -5,10 0,0 1,0 1,0 1,0 3,-1 8,-5l0 0 0 6zm9 -6l13 -10 2 -2 2 -1c0,0 1,-1 1,-1 2,0 3,1 3,2 1,1 2,2 2,3 0,1 -1,2 -1,3l-6 10c0,1 0,1 0,1 0,0 0,0 1,0 0,0 0,0 1,0 2,-1 5,-3 7,-5l0 6c-1,1 -2,1 -2,2 -1,0 -2,1 -4,2 -3,2 -5,2 -7,2 -1,0 -2,0 -3,0 0,-1 -1,-2 -1,-3 0,-1 1,-1 1,-2l5 -9 0 -1c0,0 0,0 0,0 0,-1 0,-1 0,-1 -1,0 -2,1 -5,4l-11 10c-1,1 -1,1 -2,1 0,1 0,1 -1,1 0,0 -1,0 -1,0 -1,0 -1,0 -2,0 0,-1 0,-1 0,-2 0,0 0,-1 0,-2l1 -4 -2 2 0 -6 3 -3c0,0 1,0 1,0 0,0 0,0 0,0 1,-1 2,-1 3,-1 2,0 3,1 3,2 0,1 0,1 -1,2zm50 6c-3,2 -5,3 -7,4 -3,2 -6,2 -9,2 -2,0 -4,0 -5,-1 -1,-1 -2,-2 -3,-3 -1,-2 -1,-3 -1,-5 0,-3 1,-5 2,-8 2,-3 4,-5 7,-6 2,-2 5,-2 8,-2 1,0 3,0 4,0 1,1 1,1 2,2 0,1 1,2 1,3 0,2 -1,4 -3,6 -1,1 -2,2 -3,3 -2,1 -3,1 -5,2 -1,0 -3,1 -6,1 1,2 2,3 4,3 2,0 4,-1 6,-2 2,-1 5,-3 8,-5l0 6zm-18 -7c3,0 6,-1 7,-2 2,-1 3,-3 3,-4 0,0 0,-1 0,-1 -1,0 -1,0 -2,0 -1,0 -3,0 -4,2 -1,1 -3,3 -4,5zm56 7c-3,2 -5,3 -6,4 -3,1 -5,2 -7,2 -1,0 -2,-1 -4,-1 -2,1 -3,1 -4,1 -2,0 -3,0 -3,-1 -1,-1 -2,-2 -2,-3 0,-1 1,-1 1,-1 0,-1 1,-1 2,-1 1,0 2,0 3,0l0 0c2,-2 4,-3 5,-5 2,-3 3,-5 3,-7 0,-1 0,-1 0,-1 -1,-1 -1,-1 -1,-1 -1,0 -3,1 -4,2 -2,2 -4,4 -5,6 -5,6 -8,14 -10,25 -1,2 -1,4 -2,5 0,1 -1,2 -3,2 -1,0 -1,0 -2,-1 -1,0 -1,-1 -1,-2 0,-1 1,-4 2,-8 1,-3 1,-5 2,-7 1,-2 1,-4 2,-6 1,-3 2,-6 4,-10 -2,2 -3,3 -3,3 0,0 0,1 -1,1 0,0 0,1 -1,1 0,0 -1,1 -1,1 0,0 -1,1 -2,2l0 -6c1,-1 2,-2 2,-2 1,-1 2,-1 2,-2 1,0 1,-1 2,-1 0,0 1,-1 1,-1 0,0 1,-1 1,-1 1,-1 2,-2 3,-3l1 -3 5 0 -2 6c2,-2 3,-3 4,-4 2,-2 5,-3 7,-3 2,0 4,1 5,2 1,2 2,3 2,5 0,2 -1,5 -3,7 0,2 -2,4 -3,6 1,-1 2,-1 4,-2 0,0 1,0 2,-1 1,-1 3,-2 5,-3l0 6zm24 0c-2,2 -5,3 -7,4 -3,2 -6,2 -9,2 -2,0 -3,0 -5,-1 -1,-1 -2,-2 -3,-3 0,-2 -1,-3 -1,-5 0,-3 1,-5 3,-8 1,-3 3,-5 6,-6 3,-2 6,-2 9,-2 1,0 2,0 3,0 1,1 2,1 2,2 1,1 1,2 1,3 0,2 -1,4 -2,6 -1,1 -3,2 -4,3 -2,1 -3,1 -4,2 -2,0 -4,1 -6,1 0,2 1,3 3,3 2,0 4,-1 7,-2 2,-1 4,-3 7,-5l0 6zm-17 -7c3,0 5,-1 7,-2 1,-1 2,-3 2,-4 0,0 0,-1 0,-1 0,0 -1,0 -1,0 -2,0 -3,0 -5,2 -1,1 -2,3 -3,5zm60 1l0 6c-1,1 -3,1 -5,1 0,0 -1,0 -3,0l0 0c-1,1 -2,2 -3,3 -2,2 -4,2 -8,2 -1,0 -3,0 -4,-1 -1,0 -3,-1 -3,-3 -1,-1 -1,-3 -1,-5 0,0 0,0 0,-1 0,0 -1,0 -1,0 -1,0 -3,1 -4,2 -1,1 -2,2 -3,4l-2 4c-1,2 -2,3 -4,3 -2,0 -3,-1 -3,-4 0,-1 0,-2 1,-3 0,-1 1,-2 3,-3l0 -1 -3 2 0 -6c1,-1 1,-1 1,-1 1,0 1,-1 2,-2l3 -2c1,-1 2,-2 3,-3l2 -5 6 0 -5 11 1 0c1,-1 2,-1 4,-2l0 0c1,-2 2,-4 3,-5 2,-2 3,-3 5,-4 2,-1 4,-1 6,-1 1,0 3,0 4,1 1,0 2,1 3,2 1,1 1,2 1,3 0,2 0,3 -1,5 0,0 0,1 0,2 0,1 0,2 -1,2 1,1 1,1 2,1 1,0 1,-1 2,-1l2 -1 0 0zm-13 4c0,-1 -1,-2 -1,-3 0,-3 1,-4 4,-6 0,0 0,-1 0,-1 0,-1 -1,-1 -1,-1 -1,-1 -1,-1 -2,-1 -1,0 -2,1 -4,2 -1,0 -2,2 -2,3 -1,2 -1,4 -1,5 0,2 0,3 0,3 1,1 2,2 3,2 1,0 3,-1 4,-3z"/>
   <path class="fil1 str1" d="M606 58c3,-3 4,-5 6,-6 1,-2 2,-3 4,-6 2,-3 3,-7 3,-9 0,-1 0,-2 -1,-2 0,-1 -1,-1 -2,-1 -2,0 -3,1 -5,2 -1,1 -1,1 -2,2 -1,1 -2,2 -4,5l-5 -3c2,-2 3,-4 4,-5 0,-1 2,-2 3,-3 3,-3 6,-4 9,-4 2,0 4,0 6,1 1,1 2,1 3,3 1,1 1,2 1,4 0,4 -2,9 -5,14 -1,1 -1,2 -2,3 -1,1 -2,2 -3,3 -1,1 -2,2 -4,4 3,1 5,2 7,2 1,0 3,-1 6,-1 0,0 1,-1 1,-1 0,0 0,0 1,0l-2 7c-2,1 -3,1 -5,1 -3,0 -5,0 -7,-1 -1,0 -3,-1 -6,-2 -2,1 -3,2 -4,2 -2,1 -4,2 -6,2 -2,0 -3,-1 -4,-2 -2,-1 -2,-3 -2,-4 0,-2 0,-3 1,-4 0,-1 1,-1 2,-2 1,-1 2,-1 4,-1 1,0 2,0 3,1 2,0 3,0 5,1zm-4 4c0,0 0,0 0,0 -1,0 -1,0 -1,0 -1,-1 -2,-1 -3,-1 0,0 -1,0 -2,0 0,1 0,1 0,1 0,1 0,1 0,1 1,1 1,1 2,1 1,0 2,-1 4,-2z"/>
  </g>
 </g>
</svg>
