<?xml version="1.0" encoding="UTF-8"?>
<!DOCTYPE svg PUBLIC "-//W3C//DTD SVG 1.1//EN" "http://www.w3.org/Graphics/SVG/1.1/DTD/svg11.dtd">
<!-- Creator: CorelDRAW X8 -->
<svg xmlns="http://www.w3.org/2000/svg" xml:space="preserve" width="600px" height="150px" version="1.1" style="shape-rendering:geometricPrecision; text-rendering:geometricPrecision; image-rendering:optimizeQuality; fill-rule:evenodd; clip-rule:evenodd"
viewBox="0 0 600 150"
 xmlns:xlink="http://www.w3.org/1999/xlink">
 <defs>
  <style type="text/css">
   <![CDATA[
    .str0 {stroke:black;stroke-width:4.00041}
    .fil1 {fill:none;fill-rule:nonzero}
    .fil0 {fill:white;fill-rule:nonzero}
   ]]>
  </style>
 </defs>
 <g id="Слой_x0020_1">
  <metadata id="CorelCorpID_0Corel-Layer"/>
  <g>
   <path class="fil0" d="M48 81c0,-2 0,-4 0,-5 0,-6 -2,-10 -7,-13l-11 40c0,1 0,1 0,2 0,1 0,2 1,2 1,0 2,-1 4,-3 5,-4 9,-10 11,-17l2 -6zm15 -53c0,-1 0,-2 0,-4 0,-3 -1,-5 -4,-5 -4,0 -6,3 -8,9l-8 29c9,-6 14,-11 16,-17l4 -12zm-3 63c-3,9 -8,17 -15,22 -6,3 -12,5 -19,5l-17 0 27 -93c0,0 0,-1 0,-1 0,-1 -1,-2 -1,-3 -1,-1 -2,-2 -3,-2l-18 0c-2,0 -2,-2 -2,-5 0,-3 0,-4 2,-4l26 0c7,0 11,1 12,4 3,-3 7,-5 13,-5 3,0 6,1 9,3 3,2 5,5 5,9 0,1 0,3 -1,5l-2 8c-2,6 -4,12 -8,16 -4,5 -8,8 -12,9 5,2 8,7 8,15 0,3 -1,6 -2,9l-2 8zm12 41c0,-2 1,-5 2,-8 1,-3 0,-6 1,-10 -1,2 -2,3 -3,4 -1,1 -2,3 -2,4 -1,1 -1,2 -2,3 0,2 -1,4 -1,6 0,0 -1,0 -1,1 0,1 1,4 2,4 1,0 3,-2 4,-4zm207 -23c-1,1 -1,1 -2,2 -6,5 -11,7 -16,7 -2,0 -3,-1 -4,-3 -2,-2 -2,-4 -2,-7 0,-2 1,-4 1,-6l5 -15c-1,-4 -6,0 -6,3l-9 28 -15 0 2 -6c-5,4 -10,6 -15,6 -2,0 -3,-1 -3,-5 -3,4 -6,5 -9,5 -6,0 -10,-2 -11,-8 0,0 0,0 0,1 -6,5 -11,7 -16,7 -1,0 -2,0 -4,-1 -2,-2 -2,-4 -2,-7 0,-3 1,-7 2,-13 2,-5 2,-9 2,-9 0,-2 -1,-2 -2,-2 -1,0 -2,1 -3,3l-8 29 -16 0 1 -3c-1,0 -1,1 -2,1 -3,2 -5,2 -8,2 -2,0 -3,-1 -4,-3 -1,-2 -1,-3 -1,-6 0,-2 1,-4 1,-6l1 -6 2 -10 6 -17c1,-2 0,-4 0,-6 0,-1 -1,-1 -2,-1 -1,0 -3,2 -5,6l-7 28 -1 3c-2,6 -3,10 -7,13 -3,3 -7,5 -11,5 -2,0 -5,-1 -7,-3 -1,-1 -2,-3 -2,-5 -5,4 -9,6 -12,7l-3 10c-2,6 -5,11 -9,15 -3,3 -7,4 -11,4 -3,0 -6,-1 -8,-3 -2,-2 -3,-4 -3,-8 0,-2 1,-4 1,-7 2,-7 7,-13 13,-15 -5,-2 -7,-6 -7,-12 0,-4 1,-10 3,-16l9 -32 10 10 -8 31c-1,2 -1,3 -1,5 0,1 0,2 1,2 2,0 3,-3 5,-7l12 -44 11 13 -10 35c0,1 -1,2 -1,3 0,1 1,2 2,2 2,0 5,-2 8,-6 3,-3 4,-6 4,-10l3 4 0 2c-1,4 -1,7 -3,10 0,1 0,2 0,2 1,2 2,2 3,1 1,0 2,-1 2,-3 1,-1 1,-2 2,-3 0,-1 0,-2 1,-3 0,-1 0,-2 1,-3 0,-2 1,-4 1,-5l2 -8c3,-8 6,-14 11,-20 5,-5 9,-8 14,-8 8,0 11,4 11,12 0,4 -1,10 -2,16l-5 16 0 1c-1,1 -1,2 -1,3 0,1 1,2 2,2 1,0 2,-1 3,-1l16 -59 13 11 -2 7c3,-5 7,-8 12,-8 4,0 6,3 6,7 0,2 0,4 -1,6 -1,3 -2,5 -3,7 -2,-1 -9,-3 -8,-4 0,-1 0,-1 0,-1 0,0 0,-1 0,-1 0,-1 0,-2 -1,-2 -3,0 -6,4 -9,10 0,0 1,0 3,-1 1,0 3,0 5,1 1,0 2,0 3,0 0,0 1,1 2,2 1,0 2,1 2,2 0,1 0,3 0,4 0,4 0,8 -2,14 0,1 -1,2 -1,3 0,2 1,3 2,3 2,0 3,-1 5,-3 1,-3 1,-6 3,-10l1 -5c2,-8 5,-14 9,-20 4,-6 8,-9 13,-9 3,0 6,2 8,6l1 -4 10 0 -5 17c-1,2 -2,6 -3,9 -1,4 -2,9 -4,14 0,1 0,2 0,3 0,1 1,2 2,2 1,0 3,0 7,-5l13 -45 11 10 -4 14c2,-1 4,-2 6,-2l6 -22 12 10 -9 32c0,1 0,1 0,2l7 12zm-8 -10c0,0 0,0 0,0 0,0 1,-2 1,-2 0,0 -1,3 -1,4 0,1 0,2 1,2 2,0 4,-2 7,-5 1,-2 1,-5 2,-8l2 -5c2,-8 5,-14 8,-20 4,-6 9,-9 14,-9 3,0 6,2 8,6l1 -4 9 0 -4 17c-1,2 -2,6 -3,9 -1,4 -2,9 -4,14 0,1 0,2 0,3 0,1 0,2 1,2 2,0 5,-2 8,-6 3,-3 5,-7 6,-10l3 6c-2,6 -6,12 -12,18 -6,5 -11,7 -16,7 -2,0 -4,-1 -4,-5 -2,4 -5,5 -8,5 -7,0 -11,-3 -11,-9l-8 -10zm-49 -30c0,-1 0,-1 0,-1 0,-1 0,-2 -2,-2 -1,0 -2,1 -3,3l-9 32c0,2 0,3 0,5 0,1 0,2 1,2 1,0 3,-2 4,-6l9 -33zm84 0c0,-1 0,-1 0,-1 0,-1 -1,-2 -2,-2 -2,0 -4,1 -4,3l-9 31c0,2 -1,5 0,6 1,2 1,2 1,2 2,0 3,-2 4,-6l10 -33zm60 35c3,-11 6,-21 9,-32 -3,1 -8,8 -11,16l-4 16c0,0 0,0 0,1 0,1 1,1 1,1 2,1 4,0 5,-2zm62 -94c-1,2 -2,4 -3,5 -1,2 -2,3 -2,4 -2,4 -3,7 -4,10l-7 0 1 -1c1,-4 2,-7 3,-9l-13 0c0,2 0,4 -1,6l-9 33 -3 8 -9 34c-2,6 -5,11 -8,14 -3,3 -7,4 -11,4 -2,0 -5,-1 -7,-2 -3,-2 -4,-5 -4,-8 0,-1 0,-2 0,-3l5 -17c4,-14 11,-24 21,-30l9 -33c0,0 0,-1 0,-1 0,-1 0,-2 -1,-3 -1,-1 -2,-2 -2,-2l-19 0c-1,0 -2,-2 -2,-5 0,-3 1,-4 3,-4l63 0zm118 100c0,0 -1,0 -1,1 -6,5 -11,7 -16,7 -2,0 -4,-1 -4,-5 -2,4 -5,5 -8,5 -8,0 -12,-4 -12,-11 -1,1 -3,1 -5,1 -2,0 -3,-1 -4,-2 -1,1 -1,1 -2,2 0,1 -1,2 -1,3 -4,6 -9,9 -14,9 -3,0 -6,-1 -8,-5l-1 3 -9 0 3 -10c-1,0 -2,0 -3,0 -2,0 -4,-1 -4,-3 -1,2 -2,3 -3,5 -2,2 -3,3 -4,4 -3,3 -6,4 -8,4 -2,0 -3,0 -4,-1l-9 28 -15 0 9 -32c-4,4 -8,5 -12,5 -3,0 -4,-1 -4,-5 -3,4 -6,5 -9,5 -8,0 -11,-4 -11,-11 0,-5 1,-10 3,-17l9 -32 13 0 -12 43c0,2 0,3 0,5 0,1 0,2 1,2 1,0 3,-2 4,-6l14 -49 11 10 -9 35c-1,1 -1,2 -1,3 0,1 1,2 2,2 1,0 3,-1 5,-3l12 -42 9 0 -1 5c3,-4 7,-5 11,-5 6,0 9,3 9,10 0,4 -1,12 -4,23 -1,1 -1,2 -1,3 0,2 1,3 3,3 0,0 1,-1 2,-1l13 -47c2,-6 4,-10 9,-14 3,-3 7,-5 11,-5 3,0 5,1 7,3 2,2 3,5 3,9 0,2 0,4 0,6 -3,8 -7,13 -13,16 4,1 7,5 7,13 0,4 -1,9 -3,15l0 1 0 1c0,2 1,3 3,3 1,0 2,-1 3,-1 0,-2 1,-4 1,-6l2 -5c2,-8 5,-14 8,-20 4,-6 9,-9 14,-9 3,0 6,2 8,6l1 -4 9 0 -4 17c-1,2 -2,6 -3,9 -1,4 -2,9 -4,14 0,1 0,2 0,3 0,1 0,2 1,2 2,0 4,-1 6,-4l0 11zm-89 -40c0,0 -1,-4 -3,-4 -1,0 -2,1 -3,3l-10 33c-1,2 -2,6 1,7 2,0 4,-2 6,-7l9 -32zm20 36c0,0 -2,5 3,5 2,0 3,-1 4,-3l7 -26c0,-1 0,-3 0,-4 0,-2 -1,-2 -1,-2 -2,0 -4,2 -5,6l-8 24zm17 -61c-1,2 -2,5 -1,8 0,3 -1,6 -1,9 1,-1 2,-2 3,-4 1,-1 2,-2 2,-3 1,-1 2,-2 3,-4 1,-2 1,-2 2,-5 0,0 1,-3 1,-4 0,-1 -4,-2 -5,-2 -2,0 -4,3 -4,5zm39 24c0,-1 0,-1 0,-1 0,-1 -1,-2 -2,-2 -2,0 -4,1 -4,3l-9 32c0,2 -1,4 -1,5 0,2 2,2 2,2 2,0 3,-2 4,-6l10 -33zm13 30c1,-2 1,-6 2,-9l4 -12c2,-6 4,-11 7,-15 3,-5 6,-7 10,-7l11 0c4,0 6,3 6,8 0,2 0,3 0,5l-14 10 1 -10c0,0 0,-1 0,-1 0,-1 -1,-2 -2,-2 -1,0 -2,1 -3,3l-9 32c0,2 -1,3 -1,5 0,1 1,2 2,2l3 0c7,0 13,-3 19,-9 4,-4 6,-8 7,-12l3 6 0 0c-2,7 -6,13 -12,18 -6,5 -11,7 -15,7l-8 0c-6,0 -10,-3 -11,-8l0 -11z"/>
   <path id="1" class="fil1 str0" d="M48 81c0,-2 0,-4 0,-5 0,-6 -2,-10 -7,-13l-11 40c0,1 0,1 0,2 0,1 0,2 1,2 1,0 2,-1 4,-3 5,-4 9,-10 11,-17l2 -6zm15 -53c0,-1 0,-2 0,-4 0,-3 -1,-5 -4,-5 -4,0 -6,3 -8,9l-8 29c9,-6 14,-11 16,-17l4 -12zm-3 63c-3,9 -8,17 -15,22 -6,3 -12,5 -19,5l-17 0 27 -93c0,0 0,-1 0,-1 0,-1 -1,-2 -1,-3 -1,-1 -2,-2 -3,-2l-18 0c-2,0 -2,-2 -2,-5 0,-3 0,-4 2,-4l26 0c7,0 11,1 12,4 3,-3 7,-5 13,-5 3,0 6,1 9,3 3,2 5,5 5,9 0,1 0,3 -1,5l-2 8c-2,6 -4,12 -8,16 -4,5 -8,8 -12,9 5,2 8,7 8,15 0,3 -1,6 -2,9l-2 8zm12 41c0,-2 1,-5 2,-8 1,-3 0,-6 1,-10 -1,2 -2,3 -3,4 -1,1 -2,3 -2,4 -1,1 -1,2 -2,3 0,2 -1,4 -1,6 0,0 -1,0 -1,1 0,1 1,4 2,4 1,0 3,-2 4,-4zm207 -23c-1,1 -1,1 -2,2 -6,5 -11,7 -16,7 -2,0 -3,-1 -4,-3 -2,-2 -2,-4 -2,-7 0,-2 1,-4 1,-6l5 -15c-1,-4 -6,0 -6,3l-9 28 -15 0 2 -6c-5,4 -10,6 -15,6 -2,0 -3,-1 -3,-5 -3,4 -6,5 -9,5 -6,0 -10,-2 -11,-8 0,0 0,0 0,1 -6,5 -11,7 -16,7 -1,0 -2,0 -4,-1 -2,-2 -2,-4 -2,-7 0,-3 1,-7 2,-13 2,-5 2,-9 2,-9 0,-2 -1,-2 -2,-2 -1,0 -2,1 -3,3l-8 29 -16 0 1 -3c-1,0 -1,1 -2,1 -3,2 -5,2 -8,2 -2,0 -3,-1 -4,-3 -1,-2 -1,-3 -1,-6 0,-2 1,-4 1,-6l1 -6 2 -10 6 -17c1,-2 0,-4 0,-6 0,-1 -1,-1 -2,-1 -1,0 -3,2 -5,6l-7 28 -1 3c-2,6 -3,10 -7,13 -3,3 -7,5 -11,5 -2,0 -5,-1 -7,-3 -1,-1 -2,-3 -2,-5 -5,4 -9,6 -12,7l-3 10c-2,6 -5,11 -9,15 -3,3 -7,4 -11,4 -3,0 -6,-1 -8,-3 -2,-2 -3,-4 -3,-8 0,-2 1,-4 1,-7 2,-7 7,-13 13,-15 -5,-2 -7,-6 -7,-12 0,-4 1,-10 3,-16l9 -32 10 10 -8 31c-1,2 -1,3 -1,5 0,1 0,2 1,2 2,0 3,-3 5,-7l12 -44 11 13 -10 35c0,1 -1,2 -1,3 0,1 1,2 2,2 2,0 5,-2 8,-6 3,-3 4,-6 4,-10l3 4 0 2c-1,4 -1,7 -3,10 0,1 0,2 0,2 1,2 2,2 3,1 1,0 2,-1 2,-3 1,-1 1,-2 2,-3 0,-1 0,-2 1,-3 0,-1 0,-2 1,-3 0,-2 1,-4 1,-5l2 -8c3,-8 6,-14 11,-20 5,-5 9,-8 14,-8 8,0 11,4 11,12 0,4 -1,10 -2,16l-5 16 0 1c-1,1 -1,2 -1,3 0,1 1,2 2,2 1,0 2,-1 3,-1l16 -59 13 11 -2 7c3,-5 7,-8 12,-8 4,0 6,3 6,7 0,2 0,4 -1,6 -1,3 -2,5 -3,7 -2,-1 -9,-3 -8,-4 0,-1 0,-1 0,-1 0,0 0,-1 0,-1 0,-1 0,-2 -1,-2 -3,0 -6,4 -9,10 0,0 1,0 3,-1 1,0 3,0 5,1 1,0 2,0 3,0 0,0 1,1 2,2 1,0 2,1 2,2 0,1 0,3 0,4 0,4 0,8 -2,14 0,1 -1,2 -1,3 0,2 1,3 2,3 2,0 3,-1 5,-3 1,-3 1,-6 3,-10l1 -5c2,-8 5,-14 9,-20 4,-6 8,-9 13,-9 3,0 6,2 8,6l1 -4 10 0 -5 17c-1,2 -2,6 -3,9 -1,4 -2,9 -4,14 0,1 0,2 0,3 0,1 1,2 2,2 1,0 3,0 7,-5l13 -45 11 10 -4 14c2,-1 4,-2 6,-2l6 -22 12 10 -9 32c0,1 0,1 0,2m-1 2c0,0 0,0 0,0 0,0 1,-2 1,-2 0,0 -1,3 -1,4 0,1 0,2 1,2 2,0 4,-2 7,-5 1,-2 1,-5 2,-8l2 -5c2,-8 5,-14 8,-20 4,-6 9,-9 14,-9 3,0 6,2 8,6l1 -4 9 0 -4 17c-1,2 -2,6 -3,9 -1,4 -2,9 -4,14 0,1 0,2 0,3 0,1 0,2 1,2 2,0 5,-2 8,-6 3,-3 5,-7 6,-10l3 6c-2,6 -6,12 -12,18 -6,5 -11,7 -16,7 -2,0 -4,-1 -4,-5 -2,4 -5,5 -8,5 -7,0 -11,-3 -11,-9m-57 -40c0,-1 0,-1 0,-1 0,-1 0,-2 -2,-2 -1,0 -2,1 -3,3l-9 32c0,2 0,3 0,5 0,1 0,2 1,2 1,0 3,-2 4,-6l9 -33zm84 0c0,-1 0,-1 0,-1 0,-1 -1,-2 -2,-2 -2,0 -4,1 -4,3l-9 31c0,2 -1,5 0,6 1,2 1,2 1,2 2,0 3,-2 4,-6l10 -33zm60 35c3,-11 6,-21 9,-32 -3,1 -8,8 -11,16l-4 16c0,0 0,0 0,1 0,1 1,1 1,1 2,1 4,0 5,-2zm62 -94c-1,2 -2,4 -3,5 -1,2 -2,3 -2,4 -2,4 -3,7 -4,10l-7 0 1 -1c1,-4 2,-7 3,-9l-13 0c0,2 0,4 -1,6l-9 33 -3 8 -9 34c-2,6 -5,11 -8,14 -3,3 -7,4 -11,4 -2,0 -5,-1 -7,-2 -3,-2 -4,-5 -4,-8 0,-1 0,-2 0,-3l5 -17c4,-14 11,-24 21,-30l9 -33c0,0 0,-1 0,-1 0,-1 0,-2 -1,-3 -1,-1 -2,-2 -2,-2l-19 0c-1,0 -2,-2 -2,-5 0,-3 1,-4 3,-4l63 0zm118 100c0,0 -1,0 -1,1 -6,5 -11,7 -16,7 -2,0 -4,-1 -4,-5 -2,4 -5,5 -8,5 -8,0 -12,-4 -12,-11 -1,1 -3,1 -5,1 -2,0 -3,-1 -4,-2 -1,1 -1,1 -2,2 0,1 -1,2 -1,3 -4,6 -9,9 -14,9 -3,0 -6,-1 -8,-5l-1 3 -9 0 3 -10c-1,0 -2,0 -3,0 -2,0 -4,-1 -4,-3 -1,2 -2,3 -3,5 -2,2 -3,3 -4,4 -3,3 -6,4 -8,4 -2,0 -3,0 -4,-1l-9 28 -15 0 9 -32c-4,4 -8,5 -12,5 -3,0 -4,-1 -4,-5 -3,4 -6,5 -9,5 -8,0 -11,-4 -11,-11 0,-5 1,-10 3,-17l9 -32 13 0 -12 43c0,2 0,3 0,5 0,1 0,2 1,2 1,0 3,-2 4,-6l14 -49 11 10 -9 35c-1,1 -1,2 -1,3 0,1 1,2 2,2 1,0 3,-1 5,-3l12 -42 9 0 -1 5c3,-4 7,-5 11,-5 6,0 9,3 9,10 0,4 -1,12 -4,23 -1,1 -1,2 -1,3 0,2 1,3 3,3 0,0 1,-1 2,-1l13 -47c2,-6 4,-10 9,-14 3,-3 7,-5 11,-5 3,0 5,1 7,3 2,2 3,5 3,9 0,2 0,4 0,6 -3,8 -7,13 -13,16 4,1 7,5 7,13 0,4 -1,9 -3,15l0 1 0 1c0,2 1,3 3,3 1,0 2,-1 3,-1 0,-2 1,-4 1,-6l2 -5c2,-8 5,-14 8,-20 4,-6 9,-9 14,-9 3,0 6,2 8,6l1 -4 9 0 -4 17c-1,2 -2,6 -3,9 -1,4 -2,9 -4,14 0,1 0,2 0,3 0,1 0,2 1,2 2,0 4,-1 6,-4m-89 -29c0,0 -1,-4 -3,-4 -1,0 -2,1 -3,3l-10 33c-1,2 -2,6 1,7 2,0 4,-2 6,-7l9 -32zm20 36c0,0 -2,5 3,5 2,0 3,-1 4,-3l7 -26c0,-1 0,-3 0,-4 0,-2 -1,-2 -1,-2 -2,0 -4,2 -5,6l-8 24zm17 -61c-1,2 -2,5 -1,8 0,3 -1,6 -1,9 1,-1 2,-2 3,-4 1,-1 2,-2 2,-3 1,-1 2,-2 3,-4 1,-2 1,-2 2,-5 0,0 1,-3 1,-4 0,-1 -4,-2 -5,-2 -2,0 -4,3 -4,5zm39 24c0,-1 0,-1 0,-1 0,-1 -1,-2 -2,-2 -2,0 -4,1 -4,3l-9 32c0,2 -1,4 -1,5 0,2 2,2 2,2 2,0 3,-2 4,-6l10 -33zm13 30c1,-2 1,-6 2,-9l4 -12c2,-6 4,-11 7,-15 3,-5 6,-7 10,-7l11 0c4,0 6,3 6,8 0,2 0,3 0,5l-14 10 1 -10c0,0 0,-1 0,-1 0,-1 -1,-2 -2,-2 -1,0 -2,1 -3,3l-9 32c0,2 -1,3 -1,5 0,1 1,2 2,2l3 0c7,0 13,-3 19,-9 4,-4 6,-8 7,-12l3 6 0 0c-2,7 -6,13 -12,18 -6,5 -11,7 -15,7l-8 0c-6,0 -10,-3 -11,-8"/>
  </g>
 </g>
</svg>
