<?xml version="1.0" encoding="UTF-8"?>
<!DOCTYPE svg PUBLIC "-//W3C//DTD SVG 1.1//EN" "http://www.w3.org/Graphics/SVG/1.1/DTD/svg11.dtd">
<!-- Creator: CorelDRAW X8 -->
<svg xmlns="http://www.w3.org/2000/svg" xml:space="preserve" width="700px" height="200px" version="1.1" style="shape-rendering:geometricPrecision; text-rendering:geometricPrecision; image-rendering:optimizeQuality; fill-rule:evenodd; clip-rule:evenodd"
viewBox="0 0 700 200"
 xmlns:xlink="http://www.w3.org/1999/xlink">
 <defs>
  <style type="text/css">
   <![CDATA[
    .str0 {stroke:#2B2A29;stroke-width:1.99961}
    .str1 {stroke:black;stroke-width:1.99961}
    .fil2 {fill:none;fill-rule:nonzero}
    .fil0 {fill:#FAF7F7}
    .fil1 {fill:white;fill-rule:nonzero}
   ]]>
  </style>
 </defs>
 <g id="Слой_x0020_1">
  <metadata id="CorelCorpID_0Corel-Layer"/>
  <path class="fil0 str0" d="M20 6l660 0c9,0 16,9 16,20l0 134c0,11 -7,20 -16,20l-660 0c-9,0 -16,-9 -16,-20l0 -134c0,-11 7,-20 16,-20zm4 6l652 0c8,0 15,8 15,19l0 125c0,10 -7,19 -15,19l-652 0c-8,0 -15,-9 -15,-19l0 -125c0,-11 7,-19 15,-19z"/>
  <g id="_1868649841664">
   <path class="fil1 str0" d="M68 68l4 -5c1,0 2,1 3,1 3,0 7,-3 10,-8 1,-1 2,-2 2,-3 1,-2 2,-3 2,-5 1,-1 2,-4 3,-7 1,-3 2,-5 3,-6 0,-1 0,-3 0,-5l-1 0c-2,0 -4,1 -6,3 -1,0 -1,1 -2,2 0,2 -1,3 -1,4 0,1 0,3 0,6l0 0 -7 4c0,0 0,0 0,-1 0,0 0,0 0,-1 0,-2 0,-5 1,-8 0,-2 1,-4 2,-6 1,-1 1,-3 2,-4 2,-1 3,-2 6,-3 2,-1 4,-2 6,-2l23 0 0 6 -2 0c0,1 0,1 0,1 -2,2 -3,5 -5,10l-3 9c0,2 -1,4 -2,6 0,3 -1,5 -2,7 0,2 0,4 -1,5l-7 1 0 -1c1,-2 2,-5 3,-10 2,-5 3,-8 3,-10 1,-3 3,-5 3,-8 2,-4 3,-7 4,-9l1 -1 -9 0c0,2 0,4 -1,6 0,1 -1,3 -1,6 -1,2 -2,4 -3,6 -1,2 -1,4 -3,6 -3,6 -6,10 -9,12 -1,1 -3,2 -5,3 -2,0 -3,1 -5,1 -1,0 -2,0 -3,-1 0,0 -1,0 -3,-1zm66 -4c-2,1 -4,3 -6,3 -3,2 -5,3 -8,3 -2,0 -3,-1 -4,-1 -1,-1 -2,-2 -3,-3 -1,-2 -1,-3 -1,-5 0,-2 1,-5 2,-7 2,-2 4,-4 6,-5 2,-2 5,-2 7,-2 2,0 3,0 3,0 1,1 2,1 2,2 1,1 1,1 1,2 0,2 0,4 -2,5 -1,2 -2,2 -3,3 -1,1 -3,1 -4,2 -1,0 -3,1 -5,1 0,2 1,3 3,3 2,0 4,-1 6,-2 1,-1 4,-3 6,-5l0 6zm-15 -6c2,-1 4,-1 6,-2 2,-1 2,-2 2,-3 0,-1 0,-1 0,-1 0,-1 -1,-1 -1,-1 -2,0 -3,1 -4,2 -1,1 -2,3 -3,5zm49 6c-2,1 -4,2 -6,3 -2,1 -4,2 -6,2 0,0 -2,0 -3,-1 -1,1 -3,1 -4,1 -1,0 -2,0 -2,-1 -1,0 -2,-1 -2,-2 0,-1 1,-1 1,-2 0,0 1,0 2,0 1,0 1,0 2,0l0 0c2,-1 4,-3 5,-5 2,-2 2,-4 2,-6 0,0 0,-1 0,-1 0,0 0,0 -1,0 -1,0 -2,0 -3,2 -2,1 -3,2 -5,4 -4,6 -7,13 -8,23 -1,2 -1,3 -2,4 0,1 -1,2 -3,2 0,0 -1,0 -1,-1 -1,0 -1,-1 -1,-2 0,-1 0,-3 1,-7 1,-2 2,-4 2,-6 1,-2 2,-4 2,-6 1,-2 2,-4 4,-8 -2,2 -3,2 -3,3 0,0 0,0 -1,0 0,1 0,1 -1,1 0,1 -1,1 -1,1 0,0 -1,1 -2,2l0 -6c1,-1 2,-1 3,-2 0,0 1,0 1,-1 1,0 1,-1 2,-1 0,0 0,0 1,-1 0,0 0,0 0,-1 1,0 2,-1 4,-3l0 -2 5 0 -2 5c1,-1 3,-3 4,-3 2,-2 4,-3 6,-3 1,0 3,1 4,2 1,1 2,3 2,4 0,2 -1,5 -2,7 -1,1 -2,3 -4,5 1,-1 2,-1 4,-2 0,0 1,0 2,-1 1,-1 2,-2 4,-3l0 6zm22 0c-3,1 -5,3 -6,3 -3,2 -6,3 -9,3 -1,0 -3,-1 -4,-1 -1,-1 -2,-2 -2,-3 -1,-2 -1,-3 -1,-5 0,-2 0,-5 2,-7 1,-2 3,-4 5,-5 3,-2 5,-2 8,-2 1,0 2,0 3,0 1,1 1,1 2,2 0,1 1,1 1,2 0,2 -1,4 -2,5 -1,2 -2,2 -4,3 -1,1 -2,1 -4,2 -1,0 -3,1 -5,1 1,2 2,3 3,3 2,0 4,-1 6,-2 2,-1 4,-3 7,-5l0 6zm-16 -6c3,-1 5,-1 6,-2 2,-1 3,-2 3,-3 0,-1 0,-1 -1,-1 0,-1 0,-1 -1,-1 -1,0 -2,1 -4,2 -1,1 -2,3 -3,5zm47 -25l-1 6c0,0 0,0 -1,1 0,0 -1,0 -1,0 -1,1 -2,1 -4,3 -1,0 -2,1 -3,1 0,0 -1,0 -2,0 -1,0 -2,0 -3,-1 -1,0 -1,-1 -1,-2 0,-1 0,-3 1,-3 1,-1 3,-2 4,-2 2,0 3,1 5,1l6 -4zm0 31l-1 0 -1 1c-3,2 -5,3 -7,4 -1,0 -2,0 -3,1 -2,0 -3,-1 -3,-3 0,-1 1,-3 2,-6 0,0 0,0 0,0 0,-1 0,-1 0,-1l-10 7c-2,2 -3,3 -5,3 -1,0 -1,-1 -2,-1 0,0 -1,-1 -1,-2 0,-1 1,-2 1,-4 1,0 1,0 1,0 0,-1 0,-1 0,-1l-2 2 0 -6c2,-1 3,-2 3,-3l2 -1 2 -3 2 -4 6 0 -7 15c4,-3 7,-5 9,-7 1,-2 2,-3 3,-3 2,-2 3,-3 4,-5l6 0c-3,6 -5,10 -7,14 0,1 0,1 0,1 0,1 0,1 0,1 1,0 1,0 2,-1l4 -2 1 -2 1 0 0 6zm42 0c-3,2 -5,3 -7,4 -2,1 -3,2 -5,2 -1,0 -1,-1 -2,-1 -1,-1 -1,-2 -1,-3 0,0 0,-1 1,-2l0 -1 4 -8 -13 12c0,0 0,0 0,0 -1,0 -1,1 -1,1 -1,1 -2,2 -3,2 0,0 -1,-1 -1,-1 0,0 -1,-1 -1,-1 0,0 0,-1 1,-2 0,0 0,0 0,0 0,0 0,0 0,-1 0,0 0,0 1,-1l3 -9 -12 12c0,0 0,0 0,0 0,0 0,0 -1,1 -1,1 -2,2 -3,2 0,0 -1,-1 -1,-1 -1,0 -1,-1 -1,-1 0,-2 1,-3 2,-5 0,-1 0,-1 0,-1l0 0c0,0 -1,1 -2,1l0 1 0 -6 1 -1 2 -2 2 -1 2 -3 2 -4 6 0 -4 9 8 -7c1,-1 1,-1 2,-2 1,0 2,0 3,0 1,0 1,0 2,0 0,0 1,1 1,2 0,1 -1,2 -2,5 -1,1 -1,1 -1,2l9 -7c1,-1 1,-2 2,-2 1,0 1,-1 2,-1 1,0 2,1 2,1 1,0 1,1 1,2 0,0 0,1 -1,2l-4 10c-1,0 -1,0 -1,0 0,1 0,1 0,1 0,1 0,1 0,1 1,0 1,0 1,-1 2,-1 5,-2 7,-4l0 6zm31 0l-1 0 0 1c-4,2 -6,3 -8,4 -1,0 -2,0 -3,1 -2,0 -3,-1 -3,-3 0,-1 1,-3 2,-6 0,0 0,0 0,0 0,-1 0,-1 0,-1l-10 7c-1,2 -3,3 -5,3 -1,0 -1,-1 -2,-1 0,0 0,-1 0,-2 0,-1 0,-2 1,-4 0,0 0,0 0,0 0,-1 0,-1 0,-1l-2 2 0 -6c2,-1 3,-2 4,-3l1 -1 2 -3 2 -4 6 0 -7 15c4,-3 7,-5 9,-7 1,-2 2,-3 3,-3 2,-2 3,-3 5,-5l5 0c-2,6 -5,10 -6,14 -1,1 -1,1 -1,1 0,1 0,1 1,1 0,0 0,0 1,-1l4 -2 2 -2 0 0 0 6zm49 -6l0 6 0 0c-3,2 -5,3 -7,4 -2,1 -3,2 -5,2 -2,0 -3,-1 -3,-3 0,-1 0,-2 1,-3l1 -2 1 -2c-1,0 -1,0 -1,0 -1,0 -1,0 -1,0 -3,0 -5,1 -8,3l-3 6c0,2 -2,3 -3,3 -1,0 -2,-1 -2,-1 -1,-1 -1,-2 -1,-3 0,-1 1,-3 2,-5 1,-1 2,-1 2,-2 -1,1 -2,2 -3,3l0 -6c2,-1 3,-2 5,-4 0,0 0,0 1,-1 0,0 0,0 1,-1 0,-1 1,-2 1,-3l1 -2 6 0 -4 10c1,-1 2,-2 3,-2 2,0 3,0 5,0l1 0 2 -7c1,-1 1,-1 2,-2 0,0 1,0 1,0 1,0 2,0 2,0 1,1 1,1 1,2 0,0 0,1 0,2l-5 11 0 1c-1,0 -1,0 -1,0 0,1 1,1 1,1 1,0 2,0 3,-1l2 -2c0,0 1,-1 1,-1 0,0 1,0 1,0 0,0 0,0 0,0 0,-1 0,-1 0,-1zm27 6l0 0c-1,0 -1,0 -1,0 0,1 0,1 -1,1 -2,2 -4,3 -5,4 -1,0 -2,1 -4,1 -1,0 -2,-1 -2,-4 -1,2 -2,2 -3,3 -1,0 -2,1 -4,1 -1,0 -3,-1 -4,-1 -1,-1 -2,-2 -2,-3 -1,-1 -1,-3 -1,-5 0,-2 0,-4 1,-6 1,-1 3,-3 4,-4 2,-2 4,-3 7,-3 2,-1 5,-2 8,-2 1,0 2,1 3,1l0 4c-1,0 -2,0 -4,0 -2,0 -4,0 -6,1 -2,1 -4,3 -5,4 -2,2 -2,3 -2,5 0,2 0,3 2,3 1,0 3,-1 4,-2 2,-2 4,-5 5,-8l6 0c-2,5 -4,8 -4,9 0,0 0,0 1,0 0,0 3,-1 7,-5l0 0 0 6zm41 0c-3,2 -5,3 -7,4 -2,1 -4,2 -7,2 -2,0 -4,-1 -6,-3 -2,-1 -2,-3 -2,-6 0,-3 0,-5 2,-7 1,-2 3,-4 5,-5 3,-2 5,-2 8,-2 4,0 6,1 6,3 0,0 0,1 0,1 0,1 0,1 0,1 0,1 0,1 -1,1 0,1 0,2 -1,3 0,0 0,0 0,0l-5 0 0 0c0,0 0,0 0,-1 0,0 0,0 0,0 1,-2 1,-3 1,-3 0,-1 0,-1 -1,-1 -2,0 -3,0 -5,2 -1,1 -1,2 -2,3 -1,2 -1,3 -1,4 0,3 1,4 3,4 2,0 4,0 7,-1 1,-1 3,-3 6,-5l0 6zm42 0c-2,2 -4,3 -6,4 -2,1 -4,2 -6,2 0,0 -1,-1 -2,-1 0,-1 -1,-2 -1,-3 0,0 1,-1 1,-2l0 -1 4 -8 -13 12c0,0 0,0 0,0 0,0 0,1 0,1 -2,1 -3,2 -3,2 -1,0 -1,-1 -2,-1 0,0 0,-1 0,-1 0,0 0,-1 0,-2 0,0 0,0 0,0 0,0 0,0 0,-1 0,0 1,0 1,-1l4 -9 -12 12c-1,0 -1,0 -1,0 0,0 0,0 0,1 -2,1 -3,2 -3,2 -1,0 -1,-1 -2,-1 0,0 0,-1 0,-1 0,-2 0,-3 1,-5 0,-1 0,-1 0,-1l1 0c-1,0 -1,1 -2,1l-1 1 0 -6 2 -1 1 -2 2 -1 3 -3 1 -4 6 0 -4 9 8 -7c1,-1 2,-1 2,-2 1,0 2,0 3,0 1,0 2,0 2,0 1,0 1,1 1,2 0,1 -1,2 -2,5 0,1 -1,1 -1,2l9 -7c1,-1 2,-2 2,-2 1,0 2,-1 2,-1 1,0 2,1 3,1 0,0 0,1 0,2 0,0 0,1 0,2l-5 10c0,0 0,0 0,0 0,1 -1,1 -1,1 0,1 0,1 1,1 0,0 0,0 1,-1 2,-1 4,-2 6,-4l0 6zm34 0c-2,1 -4,2 -6,3 -2,1 -4,2 -6,2 0,0 -2,0 -3,-1 -1,1 -3,1 -4,1 -1,0 -2,0 -2,-1 -1,0 -2,-1 -2,-2 0,-1 1,-1 1,-2 0,0 1,0 2,0 1,0 1,0 2,0l0 0c2,-1 4,-3 5,-5 2,-2 2,-4 2,-6 0,0 0,-1 0,-1 0,0 0,0 -1,0 -1,0 -2,0 -3,2 -2,1 -3,2 -5,4 -4,6 -7,13 -8,23 -1,2 -1,3 -2,4 0,1 -1,2 -3,2 0,0 -1,0 -1,-1 -1,0 -1,-1 -1,-2 0,-1 0,-3 1,-7 1,-2 2,-4 2,-6 1,-2 2,-4 2,-6 1,-2 2,-4 4,-8 -2,2 -3,2 -3,3 0,0 0,0 -1,0 0,1 0,1 -1,1 0,1 -1,1 -1,1 0,0 -1,1 -2,2l0 -6c1,-1 2,-1 3,-2 0,0 1,0 1,-1 1,0 1,-1 2,-1 0,0 0,0 1,-1 0,0 0,0 0,-1 1,0 2,-1 4,-3l0 -2 5 0 -2 5c1,-1 3,-3 4,-3 2,-2 4,-3 6,-3 1,0 3,1 4,2 1,1 2,3 2,4 0,2 -1,5 -2,7 -1,1 -2,3 -4,5 1,-1 2,-1 4,-2 0,0 1,0 2,-1 1,-1 2,-2 4,-3l0 6zm27 0l-1 0c0,0 0,0 0,0 -1,1 -1,1 -1,1 -2,2 -4,3 -5,4 -1,0 -3,1 -4,1 -2,0 -3,-1 -3,-4 -1,2 -2,2 -3,3 -1,0 -2,1 -3,1 -2,0 -3,-1 -4,-1 -1,-1 -2,-2 -3,-3 0,-1 0,-3 0,-5 0,-2 0,-4 1,-6 1,-1 2,-3 4,-4 2,-2 4,-3 6,-3 3,-1 6,-2 8,-2 2,0 3,1 4,1l0 4c-1,0 -2,0 -4,0 -2,0 -5,0 -7,1 -2,1 -3,3 -5,4 -1,2 -2,3 -2,5 0,2 1,3 2,3 2,0 3,-1 5,-2 2,-2 4,-5 5,-8l6 0c-3,5 -4,8 -4,9 0,0 0,0 0,0 1,0 3,-1 7,-5l1 0 0 6zm30 -6l0 6 -1 0c-3,2 -5,3 -7,4 -1,1 -3,2 -4,2 -2,0 -3,-1 -3,-3 0,-1 0,-2 0,-3l1 -2 1 -2c0,0 -1,0 -1,0 0,0 0,0 -1,0 -2,0 -5,1 -7,3l-3 6c-1,2 -2,3 -4,3 -1,0 -1,-1 -2,-1 0,-1 -1,-2 -1,-3 0,-1 1,-3 3,-5 1,-1 1,-1 2,-2 -2,1 -3,2 -3,3l0 -6c1,-1 3,-2 4,-4 1,0 1,0 1,-1 0,0 1,0 1,-1 1,-1 1,-2 2,-3l1 -2 6 0 -5 10c1,-1 3,-2 4,-2 1,0 2,0 4,0l1 0 3 -7c0,-1 1,-1 1,-2 0,0 1,0 2,0 1,0 1,0 2,0 0,1 1,1 1,2 0,0 -1,1 -1,2l-5 11 0 1c0,0 0,0 0,0 0,1 0,1 0,1 1,0 2,0 3,-1l2 -2c1,0 1,-1 2,-1 0,0 0,0 0,0 0,0 0,0 0,0 0,-1 0,-1 1,-1zm30 6l0 0 -1 1c-3,2 -5,3 -7,4 -1,0 -2,0 -3,1 -2,0 -3,-1 -3,-3 0,-1 0,-3 1,-6 1,0 1,0 1,0 0,-1 0,-1 0,-1l-10 7c-2,2 -3,3 -5,3 -1,0 -2,-1 -2,-1 -1,0 -1,-1 -1,-2 0,-1 1,-2 1,-4 0,0 0,0 1,0 0,-1 0,-1 0,-1l-2 2 0 -6c1,-1 3,-2 3,-3l1 -1 3 -3 1 -4 6 0 -6 15c4,-3 6,-5 8,-7 2,-2 3,-3 3,-3 2,-2 4,-3 5,-5l6 0c-3,6 -5,10 -7,14 0,1 0,1 0,1 0,1 0,1 0,1 1,0 1,0 1,-1l5 -2 1 -2 0 0 0 6zm31 -6l2 2 -1 4c1,-1 2,-2 3,-3 2,-1 3,-2 4,-2 0,0 0,-1 0,-1l0 6 0 0 -3 2c0,0 -1,1 -3,2 -2,2 -3,3 -3,3 -1,1 -3,2 -3,3 -1,4 -3,8 -4,10 -2,2 -3,3 -5,3 -1,0 -1,0 -2,-1 0,0 -1,-1 -1,-2 0,-2 1,-5 3,-7 1,-2 2,-4 4,-6l1 -1 1 -2c-2,1 -3,2 -4,2 -1,0 -2,-1 -2,-1 -1,-1 -1,-1 -1,-2 0,-1 0,-3 1,-6 0,0 1,0 1,0 0,-1 0,-1 0,-1l-10 7c-2,2 -3,3 -5,3 -1,0 -2,-1 -2,-1 -1,0 -1,-1 -1,-2 0,0 0,-2 1,-4 1,0 1,-1 1,-1l-1 0 -1 1 0 1 -1 0 0 -6 2 -1 2 -2c1,-1 2,-1 3,-2 0,-1 0,-1 1,-2l1 -4 6 0 -6 15 3 -3 5 -4 3 -3c1,0 2,-1 3,-2 0,-1 1,-2 2,-3l6 0c-2,4 -4,7 -6,10 -1,3 -2,5 -2,6 0,0 1,0 1,0 0,0 1,0 1,0l5 -3 1 -2zm38 6c-3,2 -6,4 -7,4 -1,1 -2,2 -2,2 -1,1 -2,3 -4,4 0,0 0,1 0,2 -2,4 -3,7 -4,9 -1,1 -3,2 -4,2 -1,0 -2,0 -2,-1 -1,0 -1,-1 -1,-2 0,-2 1,-4 2,-6 1,-2 3,-4 5,-7l5 -12 -7 7c-3,2 -6,4 -7,4 -1,0 -2,-1 -2,-1 -1,0 -1,-1 -1,-2 0,-1 1,-2 1,-4 1,0 1,0 1,0 0,-1 0,-1 0,-1l0 0c-1,0 -1,0 -1,0 0,1 0,1 0,1l-1 0 -1 1 0 -6c3,-2 4,-3 5,-4 1,-1 2,-2 3,-3l1 -4 6 0 -6 14 15 -14 5 0 -7 17c1,-1 1,-1 2,-2 1,-1 3,-2 5,-3l0 0 1 -1 0 6z"/>
   <path class="fil2 str0" d="M590 80c0,1 0,1 0,2 0,1 0,2 0,3"/>
  </g>
  <g id="_1868649841984">
   <path class="fil1 str1" d="M55 86l-3 4c-3,-1 -5,-3 -6,-3 -1,-1 -2,-2 -3,-4 -2,-2 -3,-5 -3,-8 0,-2 0,-3 1,-4 2,-2 3,-2 6,-2 2,0 5,1 8,2 3,1 6,3 10,6l2 -4 4 4 -2 3c3,4 5,7 7,9 2,3 3,7 3,10 0,5 -2,9 -5,11 -3,3 -8,4 -14,4 -2,0 -3,0 -5,-1 -2,0 -3,0 -5,-1 -2,1 -3,1 -4,1 -1,1 -3,1 -5,1 -3,0 -5,-1 -7,-1 -1,-1 -2,-2 -2,-4 0,-1 1,-2 2,-2 1,-1 3,-1 5,-1 3,0 5,0 9,0 2,-1 3,-2 4,-3 1,-2 3,-6 5,-12 1,-2 2,-4 3,-5 0,-1 1,-2 2,-4 -4,-3 -7,-5 -9,-6 -2,-1 -4,-1 -5,-1 -2,0 -2,0 -2,1 0,1 0,2 1,3 0,1 1,1 2,2 1,1 3,3 6,5zm1 22l1 0c2,0 3,0 4,0 2,0 4,0 6,-1 2,-1 3,-2 4,-3 1,-2 1,-3 1,-5 0,-3 -1,-5 -2,-8 -1,-1 -2,-3 -4,-5 0,1 -1,2 -1,3 0,0 0,1 -1,2l0 2c-1,2 -3,5 -4,8 -1,2 -3,4 -4,7zm48 0c-1,1 -2,1 -4,1 0,0 -1,0 -2,0 -1,1 -2,2 -2,2 -1,1 -2,1 -3,2 -1,0 -3,1 -5,1 -2,0 -4,-1 -6,-2 -1,-2 -2,-4 -2,-6 0,-3 1,-6 2,-8 1,-2 3,-4 5,-6 2,-1 4,-2 7,-2 2,0 4,1 5,2 1,1 2,3 2,4 0,1 0,2 -1,4 0,1 0,1 0,2 0,0 0,1 0,2l1 0 0 0c1,0 2,0 3,-1l0 5zm-9 -9l0 -1 0 0c0,-1 0,-1 0,-2 -1,0 -1,0 -2,0 -1,0 -2,0 -3,1 -1,1 -2,2 -3,3 0,2 -1,3 -1,5 0,1 1,2 1,3 1,0 1,1 2,1 1,0 2,-1 3,-2 0,0 1,0 1,-1 0,-1 -1,-2 -1,-2 0,-2 1,-4 3,-5zm32 9c-3,2 -6,3 -8,4 -2,1 -4,2 -6,2 -3,0 -5,-1 -6,-2 -2,-2 -3,-4 -3,-7 0,-2 1,-5 2,-7 2,-2 3,-4 6,-5 2,-1 5,-2 8,-2 4,0 6,1 6,3 0,1 0,1 0,2 0,0 0,0 -1,1 0,0 0,0 0,1 0,0 -1,1 -1,2 0,0 0,0 0,0l-6 0 0 0c0,0 0,0 1,0 0,0 0,0 0,-1 1,-1 1,-2 1,-3 0,-1 -1,-1 -2,-1 -1,0 -3,1 -4,2 -1,1 -2,2 -3,4 0,1 0,2 0,4 0,2 1,4 3,4 2,0 4,-1 6,-2 2,-1 4,-2 7,-4l0 5zm42 0c-3,2 -5,3 -7,4 -2,1 -4,2 -5,2 -1,0 -2,0 -2,-1 -1,-1 -1,-1 -1,-2 0,-1 0,-2 1,-3l0 0 3 -9 -12 12c0,0 0,0 -1,1 0,0 0,0 0,0 -1,1 -2,2 -3,2 0,0 -1,0 -1,-1 -1,0 -1,0 -1,-1 0,0 0,-1 0,-1 0,0 0,0 1,-1 0,0 0,0 0,0 0,0 0,-1 0,-2l4 -9 -12 12c0,0 0,0 0,1 0,0 -1,0 -1,0 -1,1 -2,2 -3,2 0,0 -1,0 -1,-1 -1,0 -1,-1 -1,-1 0,-1 1,-3 2,-5 0,0 0,0 0,-1l0 0c0,0 -1,1 -2,2l0 0 0 -5 1 -2 2 -1 2 -2 2 -3 2 -3 5 0 -3 8 8 -7c1,0 1,-1 2,-1 1,-1 2,-1 3,-1 0,0 1,0 2,0 0,1 0,1 0,2 0,1 0,3 -2,6 0,0 0,1 0,1l8 -7c1,-1 2,-2 3,-2 1,0 1,0 2,0 1,0 2,0 2,0 1,1 1,1 1,2 0,0 0,1 -1,2l-5 10c0,1 0,1 0,1 0,0 0,0 0,1 0,0 0,0 0,0 0,0 1,0 1,0 2,-1 5,-3 7,-4l0 5zm24 0c-2,1 -3,1 -4,1 -1,0 -2,0 -3,0 -1,1 -2,2 -2,2 -1,1 -1,1 -2,2 -2,0 -4,1 -6,1 -2,0 -4,-1 -5,-2 -2,-2 -2,-4 -2,-6 0,-3 0,-6 1,-8 2,-2 3,-4 5,-6 2,-1 5,-2 7,-2 2,0 4,1 5,2 2,1 2,3 2,4 0,1 0,2 -1,4 0,1 0,1 0,2 0,0 0,1 0,2l1 0 0 0c1,0 2,0 4,-1l0 5zm-9 -9l0 -1 0 0c0,-1 -1,-1 -1,-2 0,0 -1,0 -2,0 -1,0 -2,0 -3,1 -1,1 -2,2 -2,3 -1,2 -1,3 -1,5 0,1 0,2 0,3 1,0 2,1 2,1 1,0 2,-1 3,-2 1,0 1,0 2,-1 -1,-1 -1,-2 -1,-2 0,-2 1,-4 3,-5zm40 9c-1,1 -2,1 -2,1 -3,2 -5,3 -6,4 -1,1 -3,1 -4,1 -1,0 -2,0 -2,-1 -1,0 -1,-1 -1,-2 0,-1 0,-2 0,-3l4 -8 -14 12c0,0 -1,0 -1,0 -1,1 -2,2 -3,2 0,0 -1,0 -1,-1 0,0 -1,-1 -1,-1 0,-1 1,-3 2,-4 0,-1 0,-1 0,-1 0,-1 0,-1 0,-1l-2 2 0 -5c2,-2 3,-4 4,-5l2 -1 1 -2 2 -3 6 -1 -4 10 10 -8c2,-1 3,-2 5,-2 1,0 1,0 2,0 0,1 1,1 1,2 0,0 -1,1 -1,2 0,1 0,1 0,1 0,0 0,0 0,0l-5 9c0,1 0,1 0,1 0,0 0,0 0,0 0,0 0,0 0,0 0,0 0,1 0,1 0,0 0,0 0,0 2,0 3,-1 6,-3 0,0 1,-1 2,-1l0 5zm33 0c-2,2 -4,3 -5,3 -3,2 -5,2 -6,2 -1,0 -2,0 -4,0 -1,0 -2,1 -4,1 -1,0 -2,-1 -2,-1 -1,-1 -1,-2 -1,-3 0,-1 0,-1 0,-1 0,0 1,-1 2,-1 1,0 1,0 2,1l1 0c2,-2 3,-4 4,-6 2,-2 3,-4 3,-6 0,0 -1,0 -1,-1 0,0 0,0 -1,0 0,0 -2,1 -3,2 -2,1 -3,3 -5,5 -4,5 -7,12 -8,22 -1,2 -1,4 -1,5 -1,1 -2,1 -3,1 -1,0 -2,0 -2,0 -1,-1 -1,-2 -1,-3 0,-1 0,-3 1,-7 1,-2 2,-4 2,-6 1,-2 2,-3 2,-5 1,-2 2,-5 4,-8 -2,1 -3,2 -3,2 0,0 0,0 -1,1 0,0 0,0 0,0 -1,1 -1,1 -2,1 0,1 0,1 -2,2l0 -5c1,-1 2,-2 3,-2 0,-1 1,-1 1,-1 1,-1 1,-1 2,-2 0,0 0,0 1,0 0,-1 0,-1 1,-1 0,-1 1,-2 3,-3l0 -3 5 0 -2 6c2,-2 3,-3 4,-4 2,-2 4,-2 6,-2 1,0 3,0 4,1 1,2 2,3 2,5 0,2 -1,4 -2,6 -1,2 -2,3 -4,5 1,0 3,-1 4,-1 0,-1 1,-1 2,-1 1,-1 2,-2 4,-3l0 5zm31 0l-1 0 0 1c-4,2 -6,4 -8,4 -1,1 -2,1 -3,1 -2,0 -3,-1 -3,-3 0,-1 1,-3 2,-5 0,-1 0,-1 0,-1 0,0 0,-1 0,-1l-10 8c-1,1 -3,2 -5,2 -1,0 -1,0 -2,-1 0,0 -1,-1 -1,-1 0,-1 1,-3 2,-4 0,0 0,-1 0,-1 0,0 0,0 0,-1l-2 2 0 -5c2,-2 3,-3 3,-3l2 -2 2 -2 2 -4 6 0 -7 14c4,-3 7,-5 9,-7 1,-1 2,-2 3,-3 2,-2 3,-3 5,-4l5 -1c-2,6 -5,11 -7,15 0,0 0,0 0,1 0,0 0,0 1,0 0,0 0,0 1,0l4 -3 2 -1 0 0 0 5zm0 -5l2 -2 0 0c1,-1 2,-1 3,-1 1,0 2,0 2,0 1,1 1,1 1,2 0,0 0,1 0,1l0 0 12 -11 1 0c1,-1 2,-1 3,-1 1,0 1,0 2,0 1,1 1,1 1,2 0,1 -1,2 -1,4l-1 3 -2 2 10 -9c1,-1 3,-2 5,-2 0,0 1,0 2,0 0,1 0,1 0,2 0,0 0,1 0,2l-5 10c0,0 0,0 0,0 0,0 0,0 0,1 -1,0 -1,0 -1,1 0,0 0,0 1,0 0,0 1,0 3,-2l2 -1 2 -1 0 0 0 5 0 0c0,0 -1,1 -1,1 -1,0 -1,1 -2,1 -4,3 -6,4 -8,4 -1,0 -2,0 -3,-1 0,-1 -1,-1 -1,-2 0,-1 1,-2 1,-3l2 -4 0 0 2 -4 0 0 -12 11 -1 2 -1 0 -1 1c-1,0 -1,0 -2,0 0,0 0,0 -1,-1 0,0 0,0 0,-1 0,-1 0,-2 1,-4l4 -9 -13 13 -1 1c-1,1 -2,1 -3,1 -1,0 -1,-1 -1,-2 0,-1 0,-2 0,-3 1,-1 1,-2 1,-2l-2 1 0 -5zm64 5c-2,2 -4,3 -6,4 -3,1 -5,2 -8,2 -2,0 -3,0 -4,-1 -1,-1 -2,-2 -3,-3 -1,-1 -1,-3 -1,-5 0,-2 1,-4 2,-7 2,-2 4,-4 6,-5 2,-1 5,-2 7,-2 2,0 3,0 3,1 1,0 2,1 2,1 1,1 1,2 1,3 0,2 0,3 -2,5 -1,1 -2,2 -3,3 -2,0 -3,1 -4,1 -1,1 -3,1 -5,1 0,2 1,3 3,3 2,0 4,-1 6,-2 1,-1 4,-2 6,-4l0 5zm-15 -6c2,0 4,-1 6,-2 2,-1 2,-2 2,-3 0,-1 0,-1 0,-1 0,0 -1,0 -1,0 -2,0 -3,0 -4,1 -1,1 -2,3 -3,5zm38 6c-2,2 -4,4 -6,4 -2,1 -4,2 -6,2 -1,0 -1,0 -2,-1 -1,-1 -1,-1 -1,-2 0,-1 1,-3 1,-5l5 -9 0 -1c0,0 0,0 0,0l-2 0c-2,2 -3,4 -5,6 -1,1 -2,2 -3,3 -1,1 -2,2 -4,3l0 -5c2,-2 3,-3 4,-5 2,-1 3,-3 4,-5 -1,0 -1,-1 -1,-2 0,-1 0,-2 1,-3 1,0 1,-1 2,-1 1,0 2,0 3,1 0,1 1,1 1,2 0,1 0,1 0,1l3 0c2,0 4,1 4,3 0,1 -1,3 -1,4l-4 8c-1,1 -1,1 -1,1 0,0 0,0 1,0 1,0 3,-1 6,-4l1 0 0 5zm27 0l0 0c-1,0 -1,1 -1,1 0,0 0,0 0,0 -3,2 -4,3 -6,4 -1,1 -2,1 -4,1 -1,0 -2,-1 -2,-3 -1,1 -2,2 -3,2 -1,1 -2,1 -4,1 -1,0 -2,0 -4,-1 -1,-1 -2,-2 -2,-3 -1,-1 -1,-3 -1,-4 0,-2 0,-4 1,-6 1,-2 3,-4 5,-5 1,-1 4,-2 6,-3 2,-1 5,-1 8,-1 1,0 2,0 4,0l0 5c-2,-1 -3,-1 -4,-1 -3,0 -5,1 -7,2 -2,1 -4,2 -5,3 -1,2 -2,4 -2,5 0,3 1,4 2,4 1,0 3,-1 5,-3 1,-2 3,-4 5,-8l5 0c-2,6 -4,9 -4,9 0,0 1,1 1,1 1,0 3,-2 7,-5l0 0 0 5zm42 0c-2,2 -5,3 -6,4 -2,1 -4,2 -6,2 -1,0 -1,0 -2,-1 0,-1 -1,-1 -1,-2 0,-1 1,-2 1,-3l0 0 4 -9 -13 12c0,0 0,0 0,1 0,0 0,0 0,0 -2,1 -3,2 -3,2 -1,0 -1,0 -2,-1 0,0 0,0 0,-1 0,0 0,-1 0,-1 0,0 0,0 0,-1 0,0 0,0 0,0 0,0 0,-1 1,-2l4 -9 -13 12c0,0 0,0 0,1 0,0 0,0 0,0 -2,1 -3,2 -4,2 0,0 -1,0 -1,-1 0,0 0,-1 0,-1 0,-1 0,-3 1,-5 0,0 0,0 0,-1l0 0c0,0 0,1 -1,2l-1 0 0 -5 2 -2 1 -1 2 -2 3 -3 1 -3 6 0 -4 8 8 -7c1,0 2,-1 2,-1 1,-1 2,-1 3,-1 1,0 2,0 2,0 1,1 1,1 1,2 0,1 -1,3 -2,6 0,0 -1,1 -1,1l9 -7c1,-1 2,-2 2,-2 1,0 2,0 2,0 1,0 2,0 2,0 1,1 1,1 1,2 0,0 0,1 0,2l-5 10c0,1 0,1 0,1 -1,0 -1,0 -1,1 0,0 0,0 1,0 0,0 0,0 1,0 2,-1 4,-3 6,-4l0 5zm22 0c-2,2 -4,3 -6,4 -3,1 -5,2 -8,2 -2,0 -3,0 -4,-1 -1,-1 -2,-2 -3,-3 -1,-1 -1,-3 -1,-5 0,-2 1,-4 2,-7 2,-2 3,-4 6,-5 2,-1 5,-2 7,-2 1,0 2,0 3,1 1,0 2,1 2,1 1,1 1,2 1,3 0,2 -1,3 -2,5 -1,1 -2,2 -3,3 -2,0 -3,1 -4,1 -1,1 -3,1 -6,1 1,2 2,3 4,3 1,0 3,-1 6,-2 1,-1 3,-2 6,-4l0 5zm-15 -6c2,0 4,-1 6,-2 1,-1 2,-2 2,-3 0,-1 0,-1 0,-1 -1,0 -1,0 -1,0 -2,0 -3,0 -4,1 -1,1 -2,3 -3,5zm24 1l11 -9 2 -2 1 -1c1,0 1,0 2,0 1,0 2,0 2,1 1,1 1,2 1,3 0,0 0,1 0,2l-5 10c0,0 0,0 0,0 0,1 0,1 0,1 0,0 0,0 1,0 2,-2 4,-3 7,-5l0 5c-1,1 -2,1 -2,2 -1,0 -2,1 -4,1 -2,2 -5,3 -6,3 -1,0 -2,0 -2,-1 -1,0 -1,-1 -1,-2 0,-1 0,-1 0,-2l4 -8 1 -1c0,0 0,0 0,0 0,0 0,-1 -1,-1 0,0 -1,1 -3,3l-10 10c-1,0 -1,1 -2,1 0,0 -1,1 -1,1 -1,0 -1,0 -1,0 -1,0 -1,0 -2,-1 0,0 0,0 0,-1 0,-1 0,-1 0,-2l1 -4 -2 2 0 -5 3 -2c0,-1 0,-1 1,-1 0,0 0,0 0,0 1,-1 2,-1 2,-1 2,0 3,1 3,2 0,1 0,1 0,2zm22 0c1,-1 2,-2 3,-3 2,-2 4,-4 5,-5l1 -3 6 0 -7 14c0,0 0,1 0,2l0 0c0,1 1,1 2,1 0,0 1,0 2,0 1,-1 1,-1 2,-2 -2,-1 -2,-2 -2,-4 0,-1 0,-3 1,-4 1,-1 3,-1 4,-1 1,0 2,0 3,1 1,0 1,1 1,2 0,1 0,2 -1,3 1,0 2,0 2,0 1,0 1,0 2,0 1,0 1,-1 2,-1l0 5c-2,1 -4,2 -5,2 -1,0 -2,-1 -3,-1 -1,0 -1,1 -2,2 -3,2 -5,3 -7,3 -2,0 -3,0 -4,-1 -1,-1 -2,-3 -2,-4 0,-1 0,-2 1,-4l-1 1 -2 1c0,0 0,0 0,1 -1,0 -1,0 -1,0 0,0 0,0 0,0l0 -5zm56 0l0 5 -1 0c-2,2 -5,4 -6,5 -2,1 -4,1 -5,1 -2,0 -3,-1 -3,-3 0,-1 0,-2 1,-3l0 -1 1 -3c0,0 0,0 -1,0 0,0 0,0 0,0 -3,0 -6,1 -8,3l-3 6c-1,2 -2,3 -3,3 -1,0 -2,0 -3,-1 0,0 0,-1 0,-2 0,-2 1,-3 2,-5 1,-1 2,-2 2,-3 -1,2 -2,3 -3,3l0 -5c2,-2 3,-3 5,-4 0,-1 0,-1 0,-1 1,-1 1,-1 1,-1 1,-1 2,-2 2,-3l1 -2 6 0 -4 9c1,-1 2,-1 3,-1 1,-1 3,-1 4,-1l2 0 2 -7c0,0 1,-1 1,-1 1,-1 1,-1 2,-1 1,0 2,0 2,1 1,0 1,1 1,1 0,1 0,2 -1,3l-4 10 -1 1c0,0 0,1 0,1 0,0 0,0 1,0 1,0 2,0 3,-1l1 -1c1,-1 2,-1 2,-2 0,0 0,0 0,0 0,0 0,0 0,0 1,0 1,0 1,0z"/>
   <path class="fil1 str1" d="M577 108c-2,1 -3,1 -4,1 -1,0 -2,0 -3,0 -1,1 -2,2 -2,2 -1,1 -1,1 -2,2 -2,0 -4,1 -6,1 -2,0 -4,-1 -5,-2 -2,-2 -2,-4 -2,-6 0,-3 0,-6 1,-8 2,-2 3,-4 5,-6 2,-1 5,-2 7,-2 2,0 4,1 5,2 2,1 2,3 2,4 0,1 0,2 -1,4 0,1 0,1 0,2 0,0 0,1 0,2l1 0 0 0c1,0 2,0 4,-1l0 5zm-9 -9l0 -1 0 0c0,-1 -1,-1 -1,-2 0,0 -1,0 -2,0 -1,0 -2,0 -3,1 -1,1 -2,2 -2,3 -1,2 -1,3 -1,5 0,1 0,2 0,3 1,0 2,1 2,1 1,0 2,-1 3,-2 1,0 1,0 2,-1 -1,-1 -1,-2 -1,-2 0,-2 1,-4 3,-5zm31 9c-3,2 -5,3 -7,4 -2,1 -5,2 -7,2 -2,0 -5,-1 -6,-2 -2,-2 -3,-4 -3,-7 0,-2 1,-5 3,-7 1,-2 3,-4 5,-5 3,-1 5,-2 8,-2 4,0 6,1 6,3 0,1 0,1 0,2 0,0 0,0 0,1 0,0 0,0 -1,1 0,0 0,1 -1,2 0,0 0,0 0,0l-5 0 0 0c0,0 0,0 0,0 0,0 0,0 0,-1 1,-1 1,-2 1,-3 0,-1 0,-1 -1,-1 -2,0 -3,1 -5,2 -1,1 -2,2 -2,4 -1,1 -1,2 -1,4 0,2 1,4 3,4 2,0 4,-1 6,-2 2,-1 4,-2 7,-4l0 5zm42 0c-2,2 -5,3 -6,4 -2,1 -4,2 -6,2 -1,0 -1,0 -2,-1 -1,-1 -1,-1 -1,-2 0,-1 0,-2 1,-3l0 0 4 -9 -13 12c0,0 0,0 0,1 0,0 0,0 -1,0 -1,1 -2,2 -2,2 -1,0 -2,0 -2,-1 0,0 0,0 0,-1 0,0 0,-1 0,-1 0,0 0,0 0,-1 0,0 0,0 0,0 0,0 0,-1 1,-2l4 -9 -13 12c0,0 0,0 0,1 0,0 0,0 0,0 -2,1 -3,2 -4,2 0,0 -1,0 -1,-1 0,0 0,-1 0,-1 0,-1 0,-3 1,-5 0,0 0,0 0,-1l0 0c0,0 -1,1 -2,2l0 0 0 -5 1 -2 2 -1 2 -2 3 -3 1 -3 6 0 -4 8 8 -7c1,0 2,-1 2,-1 1,-1 2,-1 3,-1 1,0 1,0 2,0 0,1 1,1 1,2 0,1 -1,3 -2,6 -1,0 -1,1 -1,1l9 -7c1,-1 2,-2 2,-2 1,0 2,0 2,0 1,0 2,0 2,0 1,1 1,1 1,2 0,0 0,1 0,2l-5 10c0,1 0,1 0,1 -1,0 -1,0 -1,1 0,0 0,0 1,0 0,0 0,0 1,0 2,-1 4,-3 6,-4l0 5zm31 0l-1 0 0 1c-3,2 -6,4 -8,4 -1,1 -2,1 -3,1 -2,0 -3,-1 -3,-3 0,-1 1,-3 2,-5 0,-1 0,-1 0,-1 0,0 1,-1 1,-1l-10 8c-2,1 -4,2 -6,2 0,0 -1,0 -2,-1 0,0 0,-1 0,-1 0,-1 0,-3 1,-4 0,0 0,-1 0,-1 0,0 0,0 0,-1l-2 2 0 -5c2,-2 3,-3 4,-3l1 -2 2 -2 2 -4 6 0 -6 14c3,-3 6,-5 8,-7 2,-1 3,-2 3,-3 2,-2 4,-3 5,-4l5 -1c-2,6 -4,11 -6,15 0,0 -1,0 -1,1 0,0 1,0 1,0 0,0 1,0 1,0l4 -3 2 -1 0 0 0 5z"/>
  </g>
  <g>
   <path class="fil1" d="M240 161l9 -19c0,-1 -1,-1 -1,-1 0,-1 -1,-2 -1,-2 0,-1 2,-3 4,-4 0,0 1,0 1,0l8 -18 6 0 -6 14c3,-2 6,-4 8,-7 2,-2 4,-4 6,-7l6 0c-1,3 -3,5 -3,6 -1,1 -3,3 -4,4 -1,1 -2,2 -3,3 -1,1 -3,2 -4,3 -2,2 -3,3 -4,3 -2,1 -3,2 -4,3 -2,1 -2,1 -2,2 0,0 1,2 4,6 3,4 5,7 7,9 2,1 4,3 7,5l-10 0c-1,-1 -2,-2 -3,-3 -2,-2 -4,-5 -7,-9l0 -1 -1 -1 -6 14 -7 0zm59 -5l0 0c0,0 0,0 -1,1 0,0 0,0 0,0 -2,2 -4,3 -5,4 -2,0 -3,1 -4,1 -2,0 -3,-1 -3,-4 -1,2 -2,3 -3,3 -1,1 -2,1 -3,1 -2,0 -3,-1 -4,-1 -1,-1 -2,-2 -3,-3 -1,-1 -1,-3 -1,-5 0,-2 1,-4 2,-5 1,-2 2,-4 4,-5 2,-2 4,-3 6,-3 3,-1 5,-1 8,-1 1,0 3,0 4,0l0 4c-1,0 -3,0 -4,0 -3,0 -5,1 -7,2 -2,0 -4,2 -5,3 -1,2 -2,3 -2,5 0,2 1,4 2,4 2,0 3,-1 5,-3 2,-2 3,-5 5,-8l5 0c-2,5 -3,8 -3,9 0,0 0,0 0,0 1,0 3,-1 7,-4l0 -1 0 6zm0 -6c1,0 2,-1 3,-1 0,-1 1,-1 1,-2 1,0 1,0 2,-1 0,0 0,0 0,-1 1,0 1,0 1,-1 1,0 2,-1 4,-2l0 -3 5 0 -2 6c1,-2 3,-3 4,-4 2,-2 4,-3 6,-3 1,0 3,1 4,2 1,1 2,3 2,4 0,2 -1,5 -2,7 -1,1 -2,3 -4,5 1,-1 2,-1 4,-2 0,0 1,0 2,-1 1,0 2,-1 4,-3l0 6c-2,1 -4,3 -5,3 -3,1 -5,2 -7,2 0,0 -2,0 -3,0 -1,0 -3,1 -4,1 -1,0 -2,-1 -3,-2 0,0 -1,-1 -1,-2 0,-1 1,-1 1,-1 0,-1 1,-1 2,-1 1,0 1,0 2,0l0 0c2,-1 4,-3 5,-5 2,-2 2,-4 2,-6 0,0 0,0 0,-1 0,0 0,0 -1,0 -1,0 -2,0 -3,2 -2,1 -3,2 -5,4 -4,6 -7,13 -8,23 -1,2 -1,4 -2,4 0,2 -1,2 -3,2 0,0 -1,0 -2,0 0,-1 0,-2 0,-3 0,-1 0,-3 1,-7 1,-2 2,-4 2,-6 1,-2 1,-4 2,-6 1,-1 2,-4 3,-8 -1,2 -2,3 -2,3 0,0 0,0 -1,0 0,1 0,1 -1,1 0,1 -1,1 -1,1 0,0 -1,1 -2,2l0 -6zm56 6c-3,2 -5,3 -6,4 -3,1 -6,2 -9,2 -1,0 -2,-1 -4,-1 -1,-1 -2,-2 -2,-3 -1,-2 -1,-3 -1,-5 0,-2 0,-5 2,-7 1,-2 3,-4 5,-5 3,-2 5,-2 8,-2 1,0 2,0 3,0 1,1 2,1 2,2 0,1 1,2 1,2 0,2 -1,4 -2,6 -1,1 -2,2 -4,2 -1,1 -2,2 -3,2 -2,0 -3,1 -6,1 1,2 2,3 3,3 2,0 4,-1 6,-2 2,-1 4,-2 7,-5l0 6zm-16 -6c3,-1 5,-1 6,-2 2,-1 3,-2 3,-3 0,-1 0,-1 -1,-1 0,0 0,-1 -1,-1 -1,0 -2,1 -4,2 -1,1 -2,3 -3,5zm24 1l11 -9 2 -2 2 -1c0,0 1,0 1,0 1,0 2,0 3,1 1,0 1,1 1,2 0,1 0,2 -1,3l-4 9c-1,1 -1,1 -1,1 0,0 1,1 1,1 0,0 0,0 1,-1 2,-1 4,-2 6,-5l0 6c0,1 -1,1 -2,1 0,1 -1,1 -3,2 -3,2 -5,3 -7,3 0,0 -1,0 -2,-1 0,-1 -1,-1 -1,-2 0,-1 1,-1 1,-2l4 -8 1 -1c0,0 0,0 0,0 0,-1 0,-1 -1,-1 0,0 -1,1 -4,3l-10 10c0,0 -1,1 -1,1 -1,0 -1,0 -2,1 0,0 0,0 -1,0 0,0 -1,0 -1,-1 0,0 0,-1 0,-1 0,-1 0,-2 0,-2l1 -4 -2 2 0 -6 3 -2c0,0 0,0 0,0 0,0 1,0 1,0 0,-1 1,-1 2,-1 2,0 3,1 3,2 0,1 -1,1 -1,2zm53 5l0 0 -1 1c-3,2 -6,3 -7,4 -1,0 -2,1 -4,1 -1,0 -2,-1 -2,-3 0,-1 0,-3 1,-6 0,0 1,0 1,0 0,0 0,-1 0,-1l-10 8c-2,1 -4,2 -5,2 -1,0 -2,0 -2,-1 -1,0 -1,-1 -1,-1 0,-1 0,-3 1,-4 0,-1 0,-1 0,-1 0,0 1,-1 1,-1l-3 2 0 -6c2,-1 3,-2 4,-3l1 -1 3 -3 1 -3 6 -1 -6 15c3,-3 6,-5 8,-7 2,-1 3,-2 3,-3 2,-2 4,-3 5,-5l5 0c-2,6 -4,11 -6,15 0,0 0,0 0,0 0,1 0,1 0,1 0,0 1,0 1,-1l5 -2 1 -1 0 -1 0 6zm31 0l0 0 -1 1c-3,2 -6,3 -7,4 -1,0 -2,1 -4,1 -1,0 -2,-1 -2,-3 0,-1 0,-3 1,-6 0,0 1,0 1,0 0,0 0,-1 0,-1l-10 8c-2,1 -4,2 -5,2 -1,0 -2,0 -2,-1 -1,0 -1,-1 -1,-1 0,-1 0,-3 1,-4 0,-1 0,-1 0,-1 1,0 1,-1 1,-1l-3 2 0 -6c2,-1 3,-2 4,-3l1 -1 3 -3 1 -3 6 -1 -6 15c4,-3 6,-5 8,-7 2,-1 3,-2 3,-3 2,-2 4,-3 5,-5l5 0c-2,6 -4,11 -6,15 0,0 0,0 0,0 0,1 0,1 0,1 1,0 1,0 1,-1l5 -2 1 -1 0 -1 0 6z"/>
   <path id="1" class="fil2 str1" d="M240 161l9 -19c0,-1 -1,-1 -1,-1 0,-1 -1,-2 -1,-2 0,-1 2,-3 4,-4 0,0 1,0 1,0l8 -18 6 0 -6 14c3,-2 6,-4 8,-7 2,-2 4,-4 6,-7l6 0c-1,3 -3,5 -3,6 -1,1 -3,3 -4,4 -1,1 -2,2 -3,3 -1,1 -3,2 -4,3 -2,2 -3,3 -4,3 -2,1 -3,2 -4,3 -2,1 -2,1 -2,2 0,0 1,2 4,6 3,4 5,7 7,9 2,1 4,3 7,5l-10 0c-1,-1 -2,-2 -3,-3 -2,-2 -4,-5 -7,-9l0 -1 -1 -1 -6 14 -7 0zm59 -5l0 0c0,0 0,0 -1,1 0,0 0,0 0,0 -2,2 -4,3 -5,4 -2,0 -3,1 -4,1 -2,0 -3,-1 -3,-4 -1,2 -2,3 -3,3 -1,1 -2,1 -3,1 -2,0 -3,-1 -4,-1 -1,-1 -2,-2 -3,-3 -1,-1 -1,-3 -1,-5 0,-2 1,-4 2,-5 1,-2 2,-4 4,-5 2,-2 4,-3 6,-3 3,-1 5,-1 8,-1 1,0 3,0 4,0l0 4c-1,0 -3,0 -4,0 -3,0 -5,1 -7,2 -2,0 -4,2 -5,3 -1,2 -2,3 -2,5 0,2 1,4 2,4 2,0 3,-1 5,-3 2,-2 3,-5 5,-8l5 0c-2,5 -3,8 -3,9 0,0 0,0 0,0 1,0 3,-1 7,-4l0 -1m0 0c1,0 2,-1 3,-1 0,-1 1,-1 1,-2 1,0 1,0 2,-1 0,0 0,0 0,-1 1,0 1,0 1,-1 1,0 2,-1 4,-2l0 -3 5 0 -2 6c1,-2 3,-3 4,-4 2,-2 4,-3 6,-3 1,0 3,1 4,2 1,1 2,3 2,4 0,2 -1,5 -2,7 -1,1 -2,3 -4,5 1,-1 2,-1 4,-2 0,0 1,0 2,-1 1,0 2,-1 4,-3l0 6c-2,1 -4,3 -5,3 -3,1 -5,2 -7,2 0,0 -2,0 -3,0 -1,0 -3,1 -4,1 -1,0 -2,-1 -3,-2 0,0 -1,-1 -1,-2 0,-1 1,-1 1,-1 0,-1 1,-1 2,-1 1,0 1,0 2,0l0 0c2,-1 4,-3 5,-5 2,-2 2,-4 2,-6 0,0 0,0 0,-1 0,0 0,0 -1,0 -1,0 -2,0 -3,2 -2,1 -3,2 -5,4 -4,6 -7,13 -8,23 -1,2 -1,4 -2,4 0,2 -1,2 -3,2 0,0 -1,0 -2,0 0,-1 0,-2 0,-3 0,-1 0,-3 1,-7 1,-2 2,-4 2,-6 1,-2 1,-4 2,-6 1,-1 2,-4 3,-8 -1,2 -2,3 -2,3 0,0 0,0 -1,0 0,1 0,1 -1,1 0,1 -1,1 -1,1 0,0 -1,1 -2,2m56 0c-3,2 -5,3 -6,4 -3,1 -6,2 -9,2 -1,0 -2,-1 -4,-1 -1,-1 -2,-2 -2,-3 -1,-2 -1,-3 -1,-5 0,-2 0,-5 2,-7 1,-2 3,-4 5,-5 3,-2 5,-2 8,-2 1,0 2,0 3,0 1,1 2,1 2,2 0,1 1,2 1,2 0,2 -1,4 -2,6 -1,1 -2,2 -4,2 -1,1 -2,2 -3,2 -2,0 -3,1 -6,1 1,2 2,3 3,3 2,0 4,-1 6,-2 2,-1 4,-2 7,-5l0 6zm-16 -6c3,-1 5,-1 6,-2 2,-1 3,-2 3,-3 0,-1 0,-1 -1,-1 0,0 0,-1 -1,-1 -1,0 -2,1 -4,2 -1,1 -2,3 -3,5zm24 1l11 -9 2 -2 2 -1c0,0 1,0 1,0 1,0 2,0 3,1 1,0 1,1 1,2 0,1 0,2 -1,3l-4 9c-1,1 -1,1 -1,1 0,0 1,1 1,1 0,0 0,0 1,-1 2,-1 4,-2 6,-5l0 6c0,1 -1,1 -2,1 0,1 -1,1 -3,2 -3,2 -5,3 -7,3 0,0 -1,0 -2,-1 0,-1 -1,-1 -1,-2 0,-1 1,-1 1,-2l4 -8 1 -1c0,0 0,0 0,0 0,-1 0,-1 -1,-1 0,0 -1,1 -4,3l-10 10c0,0 -1,1 -1,1 -1,0 -1,0 -2,1 0,0 0,0 -1,0 0,0 -1,0 -1,-1 0,0 0,-1 0,-1 0,-1 0,-2 0,-2l1 -4 -2 2 0 -6 3 -2c0,0 0,0 0,0 0,0 1,0 1,0 0,-1 1,-1 2,-1 2,0 3,1 3,2 0,1 -1,1 -1,2zm53 5l0 0 -1 1c-3,2 -6,3 -7,4 -1,0 -2,1 -4,1 -1,0 -2,-1 -2,-3 0,-1 0,-3 1,-6 0,0 1,0 1,0 0,0 0,-1 0,-1l-10 8c-2,1 -4,2 -5,2 -1,0 -2,0 -2,-1 -1,0 -1,-1 -1,-1 0,-1 0,-3 1,-4 0,-1 0,-1 0,-1 0,0 1,-1 1,-1l-3 2 0 -6c2,-1 3,-2 4,-3l1 -1 3 -3 1 -3 6 -1 -6 15c3,-3 6,-5 8,-7 2,-1 3,-2 3,-3 2,-2 4,-3 5,-5l5 0c-2,6 -4,11 -6,15 0,0 0,0 0,0 0,1 0,1 0,1 0,0 1,0 1,-1l5 -2 1 -1 0 -1 0 6zm31 0l0 0 -1 1c-3,2 -6,3 -7,4 -1,0 -2,1 -4,1 -1,0 -2,-1 -2,-3 0,-1 0,-3 1,-6 0,0 1,0 1,0 0,0 0,-1 0,-1l-10 8c-2,1 -4,2 -5,2 -1,0 -2,0 -2,-1 -1,0 -1,-1 -1,-1 0,-1 0,-3 1,-4 0,-1 0,-1 0,-1 1,0 1,-1 1,-1l-3 2 0 -6c2,-1 3,-2 4,-3l1 -1 3 -3 1 -3 6 -1 -6 15c4,-3 6,-5 8,-7 2,-1 3,-2 3,-3 2,-2 4,-3 5,-5l5 0c-2,6 -4,11 -6,15 0,0 0,0 0,0 0,1 0,1 0,1 1,0 1,0 1,-1l5 -2 1 -1 0 -1 0 6z"/>
  </g>
 </g>
</svg>
