<?xml version="1.0" encoding="UTF-8"?>
<!DOCTYPE svg PUBLIC "-//W3C//DTD SVG 1.1//EN" "http://www.w3.org/Graphics/SVG/1.1/DTD/svg11.dtd">
<!-- Creator: CorelDRAW X8 -->
<svg xmlns="http://www.w3.org/2000/svg" xml:space="preserve" width="700px" height="160px" version="1.1" style="shape-rendering:geometricPrecision; text-rendering:geometricPrecision; image-rendering:optimizeQuality; fill-rule:evenodd; clip-rule:evenodd"
viewBox="0 0 700 160"
 xmlns:xlink="http://www.w3.org/1999/xlink">
 <defs>
  <style type="text/css">
   <![CDATA[
    .str0 {stroke:#2B2A29;stroke-width:1.99961}
    .str1 {stroke:black;stroke-width:1.99961}
    .fil2 {fill:none;fill-rule:nonzero}
    .fil0 {fill:#FAF7F7}
    .fil1 {fill:white;fill-rule:nonzero}
   ]]>
  </style>
 </defs>
 <g id="Слой_x0020_1">
  <metadata id="CorelCorpID_0Corel-Layer"/>
  <path class="fil0 str0" d="M20 17l660 0c9,0 16,7 16,15l0 96c0,8 -7,15 -16,15l-660 0c-9,0 -16,-7 -16,-15l0 -96c0,-8 7,-15 16,-15zm4 5l652 0c8,0 15,6 15,13l0 90c0,8 -7,14 -15,14l-652 0c-8,0 -15,-6 -15,-14l0 -90c0,-7 7,-13 15,-13z"/>
  <g id="_1868646421040">
   <g>
    <path class="fil1 str0" d="M47 80l3 -6c1,1 2,1 3,1 4,0 7,-3 11,-8 1,-1 2,-2 2,-4 1,-1 2,-3 3,-4 0,-2 1,-5 3,-8 1,-3 2,-5 2,-7 0,-1 1,-2 1,-4l-1 0c-3,0 -5,1 -7,2 -1,1 -1,2 -2,3 0,1 -1,2 -1,4 0,0 0,3 0,6l0 1 -7 4c0,-1 0,-1 0,-1 -1,-1 -1,-1 -1,-1 0,-3 1,-6 2,-9 0,-2 1,-5 2,-6 0,-2 1,-3 2,-5 2,-1 4,-2 6,-3 2,-1 5,-2 7,-2l24 0 -1 6 -1 1c-1,0 -1,0 -1,0 -1,2 -2,6 -4,11l-3 9c-1,2 -2,5 -3,7 0,3 -1,5 -1,7 -1,2 -1,4 -1,6l-8 0 0 0c1,-3 2,-6 3,-11 2,-5 3,-9 3,-10 2,-4 3,-6 4,-9 1,-4 3,-7 4,-10l0 0 -9 0c0,1 0,3 -1,5 0,2 -1,4 -1,7 -1,2 -2,4 -3,6 -1,2 -2,4 -3,6 -3,7 -7,11 -10,14 -1,1 -3,2 -5,2 -2,1 -4,1 -5,1 -2,0 -3,0 -3,0 -1,0 -2,-1 -3,-1zm69 -5c-2,2 -5,3 -6,4 -3,1 -6,2 -9,2 -2,0 -3,0 -4,-1 -2,-1 -3,-2 -3,-3 -1,-2 -1,-3 -1,-5 0,-2 0,-5 2,-7 1,-3 3,-5 6,-6 3,-1 5,-2 8,-2 1,0 2,0 3,1 1,0 2,1 2,1 1,1 1,2 1,3 0,2 -1,4 -2,5 -1,1 -2,2 -4,3 -1,1 -2,1 -4,2 -1,0 -3,1 -5,1 0,2 1,3 3,3 2,0 4,-1 6,-2 2,-1 4,-3 7,-5l0 6zm-16 -6c2,-1 5,-2 6,-3 2,-1 3,-2 3,-3 0,0 0,-1 -1,-1 0,0 0,0 -1,0 -1,0 -3,0 -4,2 -1,1 -2,2 -3,5zm51 6c-2,2 -4,3 -5,3 -3,2 -5,2 -7,2 0,0 -2,0 -3,0 -1,1 -3,1 -4,1 -1,0 -2,-1 -3,-1 -1,-1 -1,-2 -1,-3 0,-1 0,-1 0,-1 1,-1 2,-1 3,-1 0,0 1,0 2,0l0 0c2,-1 4,-3 5,-5 2,-2 3,-5 3,-6 0,-1 -1,-1 -1,-1 0,-1 0,-1 -1,-1 -1,0 -2,1 -3,2 -2,2 -4,3 -5,5 -5,6 -8,14 -9,24 -1,2 -1,4 -2,5 0,1 -1,2 -3,2 -1,0 -1,-1 -2,-1 0,-1 0,-2 0,-3 0,-1 0,-3 1,-7 1,-2 2,-5 2,-6 1,-2 2,-4 2,-6 1,-2 2,-5 4,-9 -2,2 -3,2 -3,3 0,0 0,0 -1,0 0,1 0,1 -1,1 0,1 -1,1 -1,1 0,0 -1,1 -2,2l0 -6c1,-1 2,-1 3,-2 0,0 1,-1 1,-1 1,-1 1,-1 2,-1 0,-1 0,-1 1,-1 0,0 0,-1 1,-1 0,-1 2,-2 3,-3l1 -3 5 0 -2 6c1,-2 2,-3 3,-4 2,-2 5,-2 7,-2 1,0 3,0 4,1 1,2 2,3 2,5 0,2 -1,4 -2,7 -1,1 -2,3 -4,5 1,-1 3,-1 4,-2 1,0 1,0 2,-1 1,-1 3,-2 4,-3l0 6zm24 0c-3,2 -5,3 -7,4 -3,1 -6,2 -9,2 -1,0 -3,0 -4,-1 -1,-1 -2,-2 -3,-3 0,-2 -1,-3 -1,-5 0,-2 1,-5 2,-7 2,-3 4,-5 7,-6 2,-1 5,-2 7,-2 2,0 3,0 4,1 1,0 1,1 2,1 0,1 0,2 0,3 0,2 0,4 -2,5 -1,1 -2,2 -3,3 -2,1 -3,1 -4,2 -1,0 -3,1 -6,1 1,2 2,3 3,3 2,0 4,-1 7,-2 1,-1 4,-3 7,-5l0 6zm-17 -6c3,-1 5,-2 7,-3 1,-1 2,-2 2,-3 0,0 0,-1 0,-1 0,0 -1,0 -1,0 -2,0 -3,0 -4,2 -2,1 -3,2 -4,5zm49 -26l0 6c0,0 -1,0 -1,0 -1,1 -1,1 -2,1 0,1 -1,1 -4,3 -1,0 -2,1 -3,1 0,0 -1,0 -2,0 -1,0 -2,0 -3,-1 -1,0 -1,-1 -1,-2 0,-2 0,-3 1,-4 1,0 3,-1 4,-1 2,0 3,0 5,1l6 -4zm0 32l0 0 -1 1c-3,2 -6,4 -8,4 -1,1 -2,1 -3,1 -2,0 -3,-1 -3,-3 0,-1 0,-3 2,-6 0,0 0,0 0,0 0,-1 0,-1 0,-1l-10 8c-2,1 -4,2 -6,2 -1,0 -1,0 -2,0 0,-1 -1,-2 -1,-2 0,-1 1,-3 1,-4 1,-1 1,-1 1,-1 0,0 0,-1 0,-1l-2 2 0 -6c2,-1 3,-2 3,-3l2 -1 2 -3 2 -4 6 0 -6 15c3,-3 6,-6 8,-8 2,-1 3,-2 4,-2 2,-2 4,-4 5,-5l5 -1c-2,6 -4,11 -6,15 -1,1 -1,1 -1,1 0,1 0,1 1,1 0,0 1,0 1,-1l4 -2 2 -2 0 0 0 6zm45 0c-3,2 -5,3 -7,4 -2,2 -4,2 -6,2 0,0 -1,0 -2,-1 0,0 -1,-1 -1,-2 0,-1 0,-2 1,-3l0 0 4 -9 -13 12c0,0 0,1 -1,1 0,0 0,0 0,0 -1,1 -2,2 -3,2 -1,0 -1,0 -2,0 0,-1 0,-1 0,-2 0,0 0,-1 0,-1 0,0 0,0 0,-1 0,0 0,0 0,0 0,0 1,-1 1,-2l4 -9 -13 12c0,0 0,0 0,1 0,0 0,0 -1,0 -1,1 -2,2 -3,2 -1,0 -1,0 -1,0 -1,-1 -1,-1 -1,-2 0,-1 1,-3 2,-5 0,0 0,-1 0,-1l0 0c0,0 -1,1 -2,1l-1 1 0 -6 2 -1 2 -2 2 -2 3 -3 1 -3 6 0 -4 9 9 -8c0,0 1,-1 2,-1 1,-1 2,-1 3,-1 1,0 1,0 2,0 0,1 1,1 1,2 0,1 -1,3 -2,6 -1,1 -1,1 -1,2l9 -8c1,-1 2,-2 3,-2 0,0 1,0 2,0 1,0 2,0 2,0 1,1 1,1 1,2 0,0 0,1 -1,2l-5 11c0,0 0,0 0,0 0,1 0,1 0,2 0,0 0,0 0,0 0,0 1,0 1,0 2,-2 5,-3 7,-5l0 6zm33 0l-1 0 -1 1c-3,2 -6,4 -8,4 -1,1 -2,1 -3,1 -2,0 -3,-1 -3,-3 0,-1 1,-3 2,-6 0,0 0,0 0,0 0,-1 0,-1 1,-1l-11 8c-2,1 -4,2 -5,2 -1,0 -2,0 -3,0 0,-1 0,-2 0,-2 0,-1 0,-3 1,-4 0,-1 0,-1 0,-1 0,0 0,-1 0,-1l-2 2 0 -6c2,-1 3,-2 4,-3l1 -1 3 -3 1 -4 7 0 -7 15c4,-3 7,-6 9,-8 1,-1 3,-2 3,-2 2,-2 4,-4 5,-5l6 -1c-3,6 -5,11 -7,15 0,1 0,1 0,1 0,1 0,1 0,1 0,0 1,0 1,-1l5 -2 1 -2 1 0 0 6zm52 -6l0 6 -1 0c-3,2 -5,4 -7,5 -2,1 -3,1 -5,1 -2,0 -3,-1 -3,-3 0,-1 0,-2 1,-3l0 -1 1 -3c0,0 0,0 -1,0 0,0 0,0 0,0 -3,0 -6,1 -9,3l-2 6c-1,2 -3,3 -4,3 -1,0 -2,0 -2,-1 -1,0 -1,-1 -1,-2 0,-2 1,-3 2,-5 1,-2 2,-2 2,-3 -1,1 -2,2 -3,3l0 -6c2,-1 3,-3 5,-4 0,0 1,-1 1,-1 0,0 0,-1 1,-1 1,-1 1,-2 2,-3l1 -2 6 0 -5 10c1,-1 3,-2 4,-2 1,0 3,0 5,0l1 0 3 -8c0,0 0,-1 1,-1 0,-1 1,-1 2,-1 1,0 1,0 2,1 0,0 1,1 1,1 0,1 -1,2 -1,3l-5 11 0 1c0,0 -1,0 -1,1 0,0 1,0 1,0 1,0 2,0 3,-1l2 -2c1,0 1,-1 2,-1 0,0 0,0 0,0 0,0 0,0 0,0 0,-1 1,-1 1,-1zm28 6l0 0c-1,0 -1,0 -1,1 0,0 0,0 -1,0 -2,2 -4,3 -5,4 -2,1 -3,1 -4,1 -2,0 -3,-1 -3,-3 -1,1 -2,2 -3,2 -1,1 -2,1 -4,1 -1,0 -3,0 -4,-1 -1,-1 -2,-2 -3,-3 0,-1 -1,-3 -1,-5 0,-2 1,-4 2,-6 1,-2 2,-3 4,-5 2,-1 4,-2 7,-3 3,-1 5,-1 8,-1 2,0 3,0 4,0l0 5c-1,0 -2,0 -4,0 -2,0 -5,0 -7,1 -2,1 -4,2 -5,4 -2,2 -2,3 -2,5 0,2 0,4 2,4 1,0 3,-1 5,-3 2,-2 3,-5 5,-8l6 0c-3,5 -4,8 -4,9 0,0 0,0 0,0 1,0 3,-1 8,-5l0 0 0 6zm43 0c-3,2 -5,3 -7,4 -2,2 -5,2 -7,2 -3,0 -5,-1 -7,-2 -1,-2 -2,-4 -2,-7 0,-3 1,-5 2,-8 1,-2 3,-4 6,-5 2,-1 5,-2 8,-2 5,0 7,1 7,3 0,1 0,1 0,2 0,0 -1,0 -1,1 0,0 0,0 0,1 -1,1 -1,2 -1,2 0,0 0,0 0,1l-6 0 0 -1c0,0 0,0 0,0 0,0 0,0 0,0 1,-2 1,-3 1,-4 0,0 0,-1 -1,-1 -2,0 -3,1 -5,2 -1,2 -2,3 -2,4 -1,2 -1,3 -1,5 0,2 1,4 3,4 2,0 4,-1 7,-2 1,-1 4,-3 6,-5l0 6zm45 0c-3,2 -5,3 -7,4 -2,2 -4,2 -5,2 -1,0 -2,0 -3,-1 0,0 -1,-1 -1,-2 0,-1 1,-2 1,-3l0 0 4 -9 -13 12c0,0 0,1 -1,1 0,0 0,0 0,0 -1,1 -2,2 -3,2 -1,0 -1,0 -1,0 -1,-1 -1,-1 -1,-2 0,0 0,-1 0,-1 0,0 0,0 0,-1 0,0 0,0 0,0 1,0 1,-1 1,-2l4 -9 -13 12c0,0 0,0 0,1 0,0 0,0 0,0 -2,1 -3,2 -4,2 0,0 -1,0 -1,0 -1,-1 -1,-1 -1,-2 0,-1 1,-3 2,-5 0,0 0,-1 0,-1l0 0c0,0 -1,1 -2,1l-1 1 0 -6 2 -1 2 -2 2 -2 3 -3 1 -3 6 0 -4 9 9 -8c1,0 1,-1 2,-1 1,-1 2,-1 3,-1 1,0 1,0 2,0 1,1 1,1 1,2 0,1 -1,3 -2,6 -1,1 -1,1 -1,2l9 -8c1,-1 2,-2 3,-2 0,0 1,0 2,0 1,0 2,0 2,0 1,1 1,1 1,2 0,0 0,1 -1,2l-5 11c0,0 0,0 0,0 0,1 0,1 0,2 0,0 0,0 0,0 0,0 1,0 1,0 2,-2 5,-3 7,-5l0 6zm35 0c-2,2 -4,3 -5,3 -3,2 -5,2 -7,2 0,0 -2,0 -3,0 -2,1 -3,1 -4,1 -1,0 -2,-1 -3,-1 -1,-1 -1,-2 -1,-3 0,-1 0,-1 0,-1 1,-1 1,-1 3,-1 0,0 1,0 2,0l0 0c2,-1 4,-3 5,-5 2,-2 2,-5 2,-6 0,-1 0,-1 0,-1 0,-1 0,-1 -1,-1 -1,0 -2,1 -3,2 -2,2 -4,3 -5,5 -5,6 -8,14 -9,24 -1,2 -1,4 -2,5 0,1 -1,2 -3,2 -1,0 -1,-1 -2,-1 0,-1 -1,-2 -1,-3 0,-1 1,-3 2,-7 1,-2 1,-5 2,-6 1,-2 1,-4 2,-6 1,-2 2,-5 4,-9 -2,2 -3,2 -3,3 0,0 0,0 -1,0 0,1 0,1 -1,1 0,1 -1,1 -1,1 0,0 -1,1 -2,2l0 -6c1,-1 2,-1 2,-2 1,0 2,-1 2,-1 1,-1 1,-1 2,-1 0,-1 0,-1 1,-1 0,0 0,-1 1,-1 0,-1 2,-2 3,-3l1 -3 5 0 -2 6c1,-2 2,-3 3,-4 2,-2 4,-2 7,-2 1,0 3,0 4,1 1,2 2,3 2,5 0,2 -1,4 -2,7 -1,1 -2,3 -4,5 1,-1 3,-1 4,-2 1,0 1,0 2,-1 1,-1 3,-2 4,-3l0 6zm29 0l-1 0c0,0 0,0 0,1 0,0 -1,0 -1,0 -2,2 -4,3 -5,4 -2,1 -3,1 -4,1 -2,0 -3,-1 -3,-3 -1,1 -2,2 -3,2 -1,1 -3,1 -4,1 -2,0 -3,0 -4,-1 -1,-1 -2,-2 -3,-3 -1,-1 -1,-3 -1,-5 0,-2 1,-4 2,-6 1,-2 2,-3 4,-5 2,-1 4,-2 7,-3 2,-1 5,-1 8,-1 1,0 3,0 4,0l0 5c-1,0 -3,0 -4,0 -3,0 -5,0 -7,1 -3,1 -4,2 -6,4 -1,2 -2,3 -2,5 0,2 1,4 3,4 1,0 3,-1 4,-3 2,-2 4,-5 6,-8l6 0c-3,5 -4,8 -4,9 0,0 0,0 0,0 1,0 3,-1 7,-5l1 0 0 6zm31 -6l0 6 0 0c-3,2 -5,4 -7,5 -2,1 -4,1 -5,1 -2,0 -3,-1 -3,-3 0,-1 0,-2 0,-3l1 -1 1 -3c0,0 0,0 -1,0 0,0 0,0 -1,0 -2,0 -5,1 -8,3l-3 6c-1,2 -2,3 -4,3 0,0 -1,0 -2,-1 0,0 0,-1 0,-2 0,-2 0,-3 2,-5 1,-2 2,-2 2,-3 -1,1 -3,2 -3,3l0 -6c1,-1 3,-3 5,-4 0,0 0,-1 1,-1 0,0 0,-1 0,-1 1,-1 2,-2 3,-3l0 -2 7 0 -5 10c1,-1 2,-2 3,-2 2,0 4,0 5,0l2 0 2 -8c1,0 1,-1 1,-1 1,-1 2,-1 2,-1 1,0 2,0 3,1 0,0 0,1 0,1 0,1 0,2 0,3l-5 11 0 1c-1,0 -1,0 -1,1 0,0 0,0 1,0 1,0 2,0 3,-1l2 -2c1,0 1,-1 1,-1 1,0 1,0 1,0 0,0 0,0 0,0 0,-1 0,-1 0,-1zm33 6l-1 0 0 1c-4,2 -6,4 -8,4 -1,1 -2,1 -4,1 -1,0 -2,-1 -2,-3 0,-1 0,-3 1,-6 0,0 0,0 1,0 0,-1 0,-1 0,-1l-11 8c-2,1 -3,2 -5,2 -1,0 -2,0 -2,0 -1,-1 -1,-2 -1,-2 0,-1 0,-3 1,-4 0,-1 0,-1 1,-1 0,0 0,-1 0,-1l-3 2 0 -6c2,-1 4,-2 4,-3l2 -1 2 -3 2 -4 6 0 -7 15c4,-3 7,-6 9,-8 2,-1 3,-2 3,-2 3,-2 4,-4 5,-5l6 -1c-2,6 -5,11 -7,15 0,1 0,1 0,1 0,1 0,1 0,1 1,0 1,0 2,-1l4 -2 2 -2 0 0 0 6zm33 -6l2 2 -2 4c1,-1 2,-2 4,-3 2,-1 3,-2 4,-3 0,0 0,0 0,0l0 6 0 0 -3 2c-1,0 -2,1 -4,3 -2,1 -3,2 -3,3 -1,1 -2,2 -3,3 -1,4 -3,8 -4,10 -2,2 -4,4 -5,4 -1,0 -2,-1 -2,-1 -1,-1 -1,-2 -1,-3 0,-2 1,-5 2,-7 1,-2 3,-4 5,-6l0 -1 1 -3c-1,2 -2,2 -4,2 -1,0 -1,0 -2,-1 0,0 -1,-1 -1,-2 0,-1 1,-3 2,-6 0,0 0,0 0,0 0,-1 0,-1 1,-1l-11 8c-2,1 -4,2 -5,2 -1,0 -2,0 -3,0 0,-1 0,-2 0,-2 0,-1 0,-3 1,-4 0,-1 0,-2 1,-2l-1 0 -2 2 0 0 0 0 0 -6 2 -1 2 -2c1,-1 2,-2 2,-2 1,-1 1,-2 2,-2l2 -4 6 0 -7 15 4 -3 5 -5 3 -2c0,-1 1,-1 3,-3 0,0 1,-1 2,-2l6 -1c-2,4 -4,8 -6,11 -1,3 -2,5 -2,6 0,0 0,0 1,0 0,0 1,0 1,0l5 -3 2 -2zm39 6c-3,2 -5,4 -7,5 -1,1 -2,2 -2,2 -1,1 -2,2 -4,4 0,0 0,1 -1,2 -1,4 -2,7 -4,9 -1,2 -2,3 -4,3 -1,0 -1,-1 -2,-1 -1,-1 -1,-2 -1,-2 0,-2 1,-5 2,-7 1,-2 3,-5 6,-8l5 -12 -8 7c-3,3 -6,4 -7,4 -1,0 -2,0 -2,0 -1,-1 -1,-1 -1,-2 0,-1 0,-3 1,-5 0,0 1,0 1,0 0,0 0,-1 0,-1l-1 0c0,0 0,0 0,1 0,0 0,0 -1,0l0 0 -1 1 0 -6c3,-2 4,-3 5,-4 1,-1 2,-2 3,-3l2 -4 6 0 -7 14 16 -14 6 0 -8 17c1,0 1,-1 2,-2 1,0 3,-2 5,-3l1 0 0 -1 0 6z"/>
    <path class="fil2 str0" d="M597 93c1,0 1,0 1,1 0,1 -1,2 -1,4"/>
   </g>
   <g>
    <path class="fil1 str1" d="M60 105l-6 3c0,-3 1,-5 1,-6 1,-2 1,-3 2,-5 0,-1 1,-2 2,-4 1,-2 3,-5 5,-6 2,-1 5,-2 7,-2 1,0 2,0 3,1 1,0 2,1 3,2 0,1 1,2 1,3 0,2 -1,4 -2,6l-11 23c4,-3 7,-5 9,-8 2,-2 4,-3 5,-5 2,-2 4,-3 5,-5 1,-2 3,-4 5,-7l3 -5 6 -1 -8 18c-2,4 -4,8 -5,12 0,2 -1,4 -1,7l-6 1c0,-2 1,-5 1,-7 0,-1 1,-3 1,-4 1,-1 1,-3 2,-5l-13 13c-2,2 -4,3 -7,3 -1,0 -2,0 -2,-1 -1,0 -1,-1 -1,-2 0,-1 0,-2 0,-4 0,-1 1,-2 2,-4 0,0 0,0 0,0 0,-1 0,-1 0,-1l10 -20c0,-1 0,-2 0,-3 0,-1 0,-1 0,-1 0,-1 -1,-1 -1,-1 -2,0 -3,1 -4,3 -1,0 -1,1 -2,2 -1,2 -1,3 -2,4 0,1 -1,3 -2,6zm60 12l0 5 0 0c-3,2 -5,3 -6,4 -2,1 -4,1 -5,1 -2,0 -3,0 -3,-2 0,-1 1,-2 1,-3l1 -1 1 -3c-1,0 -1,0 -1,0 -1,0 -1,0 -1,0 -3,0 -5,1 -7,3l-3 6c-1,1 -2,2 -3,2 -1,0 -2,0 -2,-1 -1,0 -1,-1 -1,-2 0,-1 1,-3 2,-4 1,-1 2,-2 2,-3 -1,2 -2,2 -3,3l0 -5c2,-1 3,-3 5,-4 0,0 0,-1 0,-1 1,0 1,-1 1,-1 1,-1 1,-2 2,-3l1 -1 5 -1 -4 9c1,0 2,-1 3,-1 2,0 3,0 5,0l1 0 2 -7c0,-1 1,-1 1,-2 1,0 1,0 2,0 1,0 1,0 2,1 0,0 1,0 1,1 0,0 -1,1 -1,2l-4 10 -1 1c0,0 0,0 0,1 0,0 0,0 1,0 0,0 1,0 2,-1l2 -1c1,-1 1,-1 1,-1 1,-1 1,-1 1,-1 0,0 0,0 0,0 0,0 0,0 0,0zm40 5c-2,2 -4,3 -6,4 -2,1 -4,1 -5,1 -1,0 -1,0 -2,0 -1,-1 -1,-2 -1,-3 0,0 0,-1 1,-2l0 0 3 -8 -12 11c0,0 0,0 0,0 0,0 0,1 0,1 -1,1 -2,1 -3,1 0,0 -1,0 -1,0 -1,0 -1,-1 -1,-1 0,-1 0,-1 0,-2 0,0 0,0 1,0 0,0 0,0 0,0 0,-1 0,-1 0,-2l4 -8 -12 11c0,0 0,0 0,0 0,0 0,0 0,0 -1,2 -2,2 -3,2 -1,0 -1,0 -2,0 0,0 0,-1 0,-2 0,-1 0,-2 1,-4 0,0 1,-1 1,-1l0 0c-1,0 -1,1 -2,1l-1 1 0 -5 2 -2 2 -1 1 -1 3 -3 1 -3 5 -1 -3 8 7 -6c1,-1 2,-1 3,-2 0,0 1,0 2,0 1,0 1,0 2,0 0,1 1,1 1,2 0,1 -1,2 -2,5 0,1 -1,1 -1,1l8 -6c1,-1 2,-2 3,-2 0,0 1,0 2,0 0,0 1,0 2,0 0,0 0,1 0,2 0,0 0,1 0,2l-5 9c0,0 0,1 0,1 0,0 0,0 0,1 0,0 0,0 0,0 0,0 1,0 1,0 2,-1 4,-3 6,-4l0 5zm21 0c-2,1 -4,3 -6,3 -2,2 -5,2 -8,2 -1,0 -2,0 -3,-1 -2,0 -2,-1 -3,-2 -1,-2 -1,-3 -1,-5 0,-2 1,-4 2,-6 1,-2 3,-4 5,-5 3,-2 5,-2 7,-2 2,0 2,0 3,0 1,1 2,1 2,2 1,1 1,1 1,2 0,2 -1,4 -2,5 -1,1 -2,2 -3,3 -1,0 -3,1 -4,1 -1,1 -3,1 -5,1 1,2 2,3 3,3 2,0 4,-1 6,-2 1,-1 3,-2 6,-4l0 5zm-15 -6c3,0 5,-1 6,-2 2,-1 2,-2 2,-3 0,0 0,0 0,-1 0,0 -1,0 -1,0 -1,0 -3,1 -4,2 -1,1 -2,2 -3,4zm46 6c-2,1 -3,2 -5,3 -2,1 -4,2 -5,2 -1,0 -2,0 -3,-1 -2,1 -3,1 -4,1 -1,0 -2,0 -3,-1 0,-1 -1,-1 -1,-2 0,-1 0,-1 1,-1 0,-1 1,-1 2,-1 0,0 1,0 2,0l0 0c2,-1 3,-3 4,-4 2,-3 3,-5 3,-6 0,0 0,-1 -1,-1 0,0 0,0 0,0 -1,0 -2,0 -4,1 -1,1 -3,3 -4,5 -4,5 -7,12 -8,21 0,2 -1,3 -1,4 -1,1 -2,2 -3,2 -1,0 -1,0 -2,-1 0,0 -1,-1 -1,-2 0,-1 1,-3 2,-6 1,-3 1,-5 2,-6 0,-2 1,-4 2,-6 0,-1 1,-4 3,-7 -2,1 -3,2 -3,2 0,0 0,0 0,1 -1,0 -1,0 -1,0 -1,1 -1,1 -1,1 -1,1 -1,1 -2,2l0 -5c1,-1 2,-2 2,-2 1,0 1,-1 2,-1 0,-1 0,-1 1,-1 0,0 0,-1 1,-1 0,0 0,-1 1,-1 0,0 1,-1 3,-3l0 -2 5 0 -2 5c1,-1 2,-3 3,-3 2,-2 4,-2 6,-2 1,0 3,0 4,1 1,1 1,3 1,4 0,2 0,4 -1,6 -1,2 -2,3 -4,5 1,-1 3,-1 4,-1 0,-1 1,-1 1,-1 2,-1 3,-2 4,-3l0 5zm21 0c-2,1 -4,3 -6,3 -2,2 -5,2 -7,2 -2,0 -3,0 -4,-1 -1,0 -2,-1 -3,-2 -1,-2 -1,-3 -1,-5 0,-2 1,-4 2,-6 2,-2 3,-4 6,-5 2,-2 4,-2 7,-2 1,0 2,0 3,0 0,1 1,1 1,2 1,1 1,1 1,2 0,2 -1,4 -2,5 -1,1 -2,2 -3,3 -1,0 -2,1 -4,1 -1,1 -2,1 -5,1 1,2 2,3 3,3 2,0 4,-1 6,-2 2,-1 4,-2 6,-4l0 5zm-14 -6c2,0 4,-1 5,-2 2,-1 3,-2 3,-3 0,0 -1,0 -1,-1 0,0 0,0 -1,0 -1,0 -2,1 -4,2 -1,1 -2,2 -2,4zm35 6c-3,2 -5,3 -7,4 -2,1 -4,1 -6,1 -2,0 -4,0 -6,-2 -1,-1 -2,-3 -2,-6 0,-2 1,-4 2,-7 1,-2 3,-3 5,-4 2,-2 5,-2 8,-2 3,0 5,1 5,3 0,0 0,1 0,1 0,0 0,1 0,1 0,0 0,1 -1,1 0,1 0,1 0,2 0,0 0,0 -1,0l-5 0 0 0c0,0 0,0 0,0 0,0 1,0 1,0 0,-2 1,-3 1,-3 0,-1 -1,-1 -2,-1 -1,0 -3,0 -4,2 -1,1 -2,2 -2,3 -1,1 -1,3 -1,4 0,2 1,4 3,4 2,0 4,-1 6,-2 1,-1 3,-2 6,-4l0 5zm28 -5l0 5 0 0c-3,2 -5,3 -7,4 -1,1 -3,1 -4,1 -2,0 -3,0 -3,-2 0,-1 1,-2 1,-3l1 -1 1 -3c-1,0 -1,0 -1,0 -1,0 -1,0 -1,0 -3,0 -5,1 -7,3l-3 6c-1,1 -2,2 -3,2 -1,0 -2,0 -2,-1 -1,0 -1,-1 -1,-2 0,-1 1,-3 2,-4 1,-1 2,-2 2,-3 -1,2 -2,2 -3,3l0 -5c2,-1 3,-3 5,-4 0,0 0,-1 0,-1 1,0 1,-1 1,-1 1,-1 1,-2 2,-3l1 -1 5 -1 -4 9c1,0 2,-1 3,-1 2,0 3,0 5,0l1 0 2 -7c0,-1 1,-1 1,-2 1,0 1,0 2,0 1,0 1,0 2,1 0,0 1,0 1,1 0,0 -1,1 -1,2l-4 10 -1 1c0,0 0,0 0,1 0,0 0,0 1,0 0,0 1,0 2,-1l2 -1c1,-1 1,-1 1,-1 1,-1 1,-1 1,-1 0,0 0,0 0,0 0,0 0,0 0,0zm0 0c0,0 0,0 1,0 0,0 0,0 0,0 1,-2 2,-2 2,-3 0,0 0,0 1,0 0,0 0,-1 1,-1 1,-2 2,-3 3,-4l1 -2 6 -1 -5 11c0,1 0,1 -1,2 0,1 0,2 0,3 0,1 0,1 1,1 1,0 1,0 2,-1l1 -1 1 0 0 -1c-1,0 -1,0 -2,-1 0,0 0,-1 0,-2 0,-1 0,-2 1,-4 1,-1 3,-1 4,-1 1,0 2,0 3,1 0,0 1,1 1,2 0,0 0,1 -1,2 0,0 0,0 0,0 0,0 0,0 0,1 1,0 2,-1 2,-1 0,0 1,-1 2,-2 0,-1 1,-2 2,-4 2,-2 2,-3 3,-4l5 -1 0 1 -4 8 0 1 -1 2c-1,1 -1,2 -1,2 0,0 0,1 0,1 1,0 1,0 1,0l0 -1 6 -3 0 5c0,0 -1,0 -1,0 0,1 -1,1 -2,2 -3,1 -4,2 -4,2 -2,1 -4,1 -4,1 -1,0 -2,0 -2,0 -1,-1 -1,-2 -1,-2 0,-1 0,-2 1,-3l0 -1c-1,1 -2,2 -4,2 0,0 0,-1 -1,-1 0,1 -1,3 -4,4 -1,1 -3,1 -4,1 -2,0 -3,0 -4,-1 -1,-1 -1,-2 -1,-4 0,-1 0,-2 1,-4 -1,1 -1,1 -3,2 0,1 -1,1 -2,2l0 -5zm56 5c-3,1 -4,3 -6,3 -3,2 -5,2 -8,2 -1,0 -3,0 -4,-1 -1,0 -2,-1 -2,-2 -1,-2 -1,-3 -1,-5 0,-2 0,-4 2,-6 1,-2 3,-4 5,-5 2,-2 5,-2 7,-2 1,0 2,0 3,0 1,1 2,1 2,2 0,1 1,1 1,2 0,2 -1,4 -2,5 -1,1 -2,2 -3,3 -2,0 -3,1 -4,1 -1,1 -3,1 -5,1 0,2 1,3 3,3 2,0 3,-1 5,-2 2,-1 4,-2 7,-4l0 5zm-15 -6c3,0 4,-1 6,-2 1,-1 2,-2 2,-3 0,0 0,0 0,-1 -1,0 -1,0 -1,0 -2,0 -3,1 -4,2 -1,1 -2,2 -3,4zm67 1l0 5c-1,1 -2,1 -3,1 -1,0 -2,0 -3,0 -1,0 -1,1 -2,2 -1,1 -2,1 -4,2 -1,0 -2,0 -3,0 -1,0 -1,0 -2,0 -1,0 -1,0 -1,0 -1,0 -1,-1 -1,-1l-3 7 0 2c-1,3 -2,5 -3,7 -1,1 -2,2 -4,2 -1,0 -2,-1 -2,-3 0,-1 0,-3 1,-5 1,-1 1,-2 2,-3 0,0 1,-1 2,-3l1 -1 1 -3c-1,1 -2,1 -4,1 -2,0 -3,0 -5,-2 -1,-1 -2,-3 -2,-5 0,-3 1,-5 2,-7 1,-3 3,-5 5,-6 2,-1 4,-2 6,-2 2,0 3,1 4,1l6 -15c1,-2 1,-4 2,-5 1,-1 1,-2 2,-2 1,0 2,1 2,3 0,1 0,2 0,3 -1,3 -1,5 -2,6l-2 4 0 1 -3 6c1,-1 2,-1 2,-2 1,0 1,0 2,0 2,0 3,1 5,2 1,1 1,2 1,4 0,1 0,2 -1,3 0,1 0,2 0,2 0,1 0,2 0,2 0,1 1,1 1,1 0,0 1,-1 2,-1 0,0 1,-1 1,-1zm-10 3c-1,-1 -1,-1 -1,-2 0,-2 1,-4 3,-5 0,0 0,0 0,-1 0,0 0,-1 -1,-1 0,-1 0,-1 -1,-1 -1,0 -2,1 -3,1 -1,1 -2,2 -2,3l-1 4c-1,1 -1,1 -1,2 0,0 1,1 1,2 1,0 1,1 2,1 1,0 1,-1 2,-1 1,0 1,-1 2,-2zm-12 -1l1 -4c1,-1 1,-1 1,-2 0,-1 0,-1 -1,-2 0,0 -1,-1 -2,-1 -1,0 -1,1 -2,1 -1,1 -2,2 -2,3 -1,1 -2,3 -2,5 0,1 0,2 1,3 0,0 1,1 2,1 2,0 3,-2 4,-4zm45 3c-1,1 -3,1 -4,1 -1,0 -1,0 -2,0 -1,1 -2,1 -2,2 -1,0 -2,1 -2,1 -2,1 -4,1 -5,1 -3,0 -5,0 -6,-2 -1,-1 -2,-3 -2,-5 0,-3 1,-5 2,-8 1,-2 3,-4 5,-5 2,-1 4,-2 6,-2 2,0 3,1 5,2 1,1 2,2 2,4 0,1 -1,2 -2,3 1,1 1,1 1,2 0,1 0,1 -1,2l1 0 0 0c1,0 2,0 4,-1l0 5zm-9 -9l0 -1 0 0c0,0 0,-1 0,-1 -1,-1 -1,-1 -2,-1 -1,0 -2,1 -3,2 -1,0 -2,1 -2,3 -1,1 -1,2 -1,4 0,1 0,2 1,2 0,1 1,1 1,1 1,0 2,0 3,-1 0,0 1,0 1,-1 0,-1 -1,-2 -1,-2 0,-2 1,-4 3,-5zm49 9c-3,2 -5,3 -6,4 -2,1 -4,1 -5,1 -1,0 -2,0 -2,0 -1,-1 -1,-2 -1,-3 0,0 0,-1 0,-2l1 0 3 -8 -12 11c0,0 0,0 0,0 0,0 0,1 -1,1 -1,1 -2,1 -2,1 -1,0 -1,0 -2,0 0,0 0,-1 0,-1 0,-1 0,-1 0,-2 0,0 0,0 0,0 0,0 0,0 0,0 0,-1 1,-1 1,-2l4 -8 -12 11c0,0 0,0 0,0 0,0 0,0 -1,0 -1,2 -2,2 -3,2 0,0 -1,0 -1,0 0,0 0,-1 0,-2 0,-1 0,-2 1,-4 0,0 0,-1 0,-1l0 0c0,0 -1,1 -2,1l0 1 0 -5 1 -2 2 -1 2 -1 2 -3 2 -3 5 -1 -4 8 8 -6c1,-1 1,-1 2,-2 1,0 2,0 3,0 0,0 1,0 2,0 0,1 0,1 0,2 0,1 0,2 -2,5 0,1 0,1 0,1l8 -6c1,-1 2,-2 2,-2 1,0 1,0 2,0 1,0 2,0 2,0 1,0 1,1 1,2 0,0 0,1 -1,2l-4 9c0,0 0,1 0,1 -1,0 -1,0 -1,1 0,0 0,0 1,0 0,0 0,0 1,0 2,-1 4,-3 6,-4l0 5zm22 0c-1,1 -2,1 -4,1 0,0 -1,0 -2,0 -1,1 -2,1 -2,2 -1,0 -1,1 -2,1 -2,1 -3,1 -5,1 -2,0 -4,0 -6,-2 -1,-1 -1,-3 -1,-5 0,-3 0,-5 1,-8 1,-2 3,-4 5,-5 2,-1 4,-2 6,-2 2,0 4,1 5,2 2,1 2,2 2,4 0,1 0,2 -1,3 0,1 0,1 0,2 0,1 0,1 0,2l1 0 0 0c1,0 2,0 3,-1l0 5zm-8 -9l0 -1 0 0c0,0 0,-1 -1,-1 0,-1 -1,-1 -1,-1 -1,0 -2,1 -3,2 -1,0 -2,1 -3,3 0,1 -1,2 -1,4 0,1 1,2 1,2 0,1 1,1 2,1 1,0 2,0 3,-1 0,0 0,0 1,-1 -1,-1 -1,-2 -1,-2 0,-2 1,-4 3,-5zm8 9l0 -5 3 -2c0,-1 1,-3 2,-4 1,-2 3,-3 4,-4 2,-2 4,-2 6,-2 1,0 2,0 3,1 1,0 2,1 2,1 1,1 1,2 1,3 0,1 -1,3 -2,5 -2,1 -4,3 -6,3 0,1 0,1 0,2 -1,1 -1,1 -1,2 0,0 0,1 1,1 1,0 2,-1 3,-1 4,-2 6,-4 8,-5l0 5c0,0 -2,1 -3,2 -3,1 -4,2 -5,2 -1,1 -2,1 -4,1 0,0 -1,0 -2,0 -1,0 -2,0 -2,-1 -1,-1 -2,-2 -2,-3 0,0 0,-1 1,-2 0,0 0,-1 1,-3 1,-1 1,-2 2,-3l0 0 2 -1c0,0 1,0 2,-1 1,-1 1,-1 2,-1 0,-1 0,-1 0,-2 0,-1 -1,-1 -2,-1 -1,0 -2,0 -3,1 -1,1 -2,2 -3,3 0,1 -1,3 -2,4l-6 5z"/>
    <path class="fil1 str1" d="M531 122c-2,1 -4,2 -5,3 -2,1 -4,2 -6,2 -1,0 -2,0 -3,-1 -1,1 -3,1 -4,1 -1,0 -2,0 -2,-1 -1,-1 -1,-1 -1,-2 0,-1 0,-1 0,-1 1,-1 1,-1 2,-1 1,0 1,0 2,0l0 0c2,-1 4,-3 5,-4 1,-3 2,-5 2,-6 0,0 0,-1 0,-1 0,0 -1,0 -1,0 -1,0 -2,0 -3,1 -2,1 -3,3 -5,5 -4,5 -6,12 -8,21 0,2 0,3 -1,4 -1,1 -2,2 -3,2 0,0 -1,0 -2,-1 0,0 0,-1 0,-2 0,-1 0,-3 1,-6 1,-3 2,-5 2,-6 1,-2 1,-4 2,-6 1,-1 2,-4 3,-7 -1,1 -2,2 -2,2 0,0 -1,0 -1,1 0,0 -1,0 -1,0 0,1 -1,1 -1,1 0,1 -1,1 -2,2l0 -5c1,-1 2,-2 2,-2 1,0 1,-1 2,-1 0,-1 1,-1 1,-1 1,0 1,-1 1,-1 0,0 1,-1 1,-1 1,0 2,-1 3,-3l1 -2 4 0 -2 5c1,-1 3,-3 4,-3 1,-2 3,-2 5,-2 2,0 3,0 4,1 1,1 2,3 2,4 0,2 -1,4 -2,6 -1,2 -2,3 -3,5 1,-1 2,-1 3,-1 1,-1 1,-1 2,-1 1,-1 2,-2 4,-3l0 5zm25 0l0 0c-1,0 -1,0 -1,1 0,0 0,0 0,0 -2,2 -4,3 -5,3 -2,1 -3,1 -4,1 -1,0 -2,-1 -3,-3 0,1 -1,2 -2,3 -1,0 -2,0 -4,0 -1,0 -2,0 -3,0 -1,-1 -2,-2 -3,-3 0,-1 0,-3 0,-4 0,-2 0,-4 1,-6 1,-2 2,-3 4,-4 2,-2 4,-3 6,-3 2,-1 5,-1 7,-1 1,0 3,0 4,0l0 4c-1,0 -3,0 -4,0 -2,0 -4,0 -6,1 -2,1 -4,2 -5,4 -1,1 -2,3 -2,4 0,2 1,3 2,3 1,0 3,0 4,-2 2,-2 4,-4 5,-7l5 0c-2,5 -3,7 -3,8 0,0 0,0 0,0 1,0 3,-1 7,-4l0 0 0 5zm35 -5l0 5c-2,1 -3,1 -4,1 -1,0 -2,0 -3,0 0,0 -1,1 -2,2 -1,1 -2,1 -3,2 -2,0 -3,0 -4,0 -1,0 -1,0 -2,0 -1,0 -1,0 -1,0 0,0 -1,-1 -1,-1l-3 7 0 2c-1,3 -2,5 -3,7 -1,1 -2,2 -3,2 -2,0 -3,-1 -3,-3 0,-1 0,-3 1,-5 1,-1 1,-2 2,-3 0,0 1,-1 2,-3l1 -1 1 -3c-1,1 -2,1 -4,1 -2,0 -3,0 -5,-2 -1,-1 -1,-3 -1,-5 0,-3 0,-5 1,-7 1,-3 3,-5 5,-6 2,-1 4,-2 6,-2 2,0 3,1 5,1l5 -15c1,-2 2,-4 2,-5 1,-1 1,-2 2,-2 2,0 2,1 2,3 0,1 0,2 0,3 -1,3 -1,5 -2,6l-2 4 0 1 -2 6c0,-1 1,-1 1,-2 1,0 2,0 2,0 2,0 4,1 5,2 1,1 2,2 2,4 0,1 -1,2 -2,3 0,1 0,2 0,2 0,1 0,2 0,2 1,1 1,1 1,1 1,0 1,-1 2,-1 1,0 1,-1 2,-1zm-11 3c-1,-1 -1,-1 -1,-2 0,-2 1,-4 3,-5 0,0 0,0 0,-1 0,0 0,-1 0,-1 -1,-1 -1,-1 -2,-1 -1,0 -2,1 -3,1 -1,1 -1,2 -2,3l-1 4c0,1 0,1 0,2 0,0 0,1 0,2 1,0 1,1 2,1 1,0 1,-1 2,-1 1,0 1,-1 2,-2zm-12 -1l2 -4c0,-1 0,-1 0,-2 0,-1 0,-1 -1,-2 0,0 -1,-1 -1,-1 -1,0 -2,1 -3,1 -1,1 -1,2 -2,3 -1,1 -2,3 -2,5 0,1 1,2 1,3 1,0 1,1 2,1 2,0 3,-2 4,-4zm52 3l-1 0 0 1c-3,2 -6,3 -7,4 -1,0 -2,0 -3,0 -2,0 -3,0 -3,-2 0,-1 0,-3 1,-5 1,-1 1,-1 1,-1 0,0 0,-1 0,-1l-9 7c-2,2 -4,2 -5,2 -1,0 -2,0 -2,0 -1,-1 -1,-1 -1,-2 0,-1 1,-2 1,-3 0,-1 0,-1 1,-1 0,0 0,-1 0,-1l-2 2 0 -5c1,-2 2,-3 3,-3l1 -1 2 -3 2 -3 6 -1 -6 14c3,-3 6,-5 7,-7 2,-1 3,-2 3,-2 2,-2 4,-3 5,-5l5 0c-2,6 -4,10 -6,14 0,0 0,0 0,1 0,0 0,0 0,0 0,0 1,0 1,0l4 -3 2 -1 0 0 0 5zm29 0l-1 0 0 1c-3,2 -6,3 -7,4 -1,0 -2,0 -3,0 -2,0 -3,0 -3,-2 0,-1 1,-3 2,-5 0,-1 0,-1 0,-1 0,0 0,-1 0,-1l-9 7c-2,2 -4,2 -5,2 -1,0 -1,0 -2,0 0,-1 -1,-1 -1,-2 0,-1 1,-2 1,-3 0,-1 1,-1 1,-1 0,0 0,-1 0,-1l-2 2 0 -5c1,-2 3,-3 3,-3l1 -1 3 -3 1 -3 6 -1 -6 14c3,-3 6,-5 8,-7 1,-1 2,-2 2,-2 2,-2 4,-3 5,-5l5 0c-2,6 -4,10 -6,14 0,0 0,0 0,1 0,0 0,0 0,0 0,0 1,0 1,0l4 -3 2 -1 0 0 0 5z"/>
   </g>
  </g>
 </g>
</svg>
