<?xml version="1.0" encoding="UTF-8"?>
<!DOCTYPE svg PUBLIC "-//W3C//DTD SVG 1.1//EN" "http://www.w3.org/Graphics/SVG/1.1/DTD/svg11.dtd">
<!-- Creator: CorelDRAW X8 -->
<svg xmlns="http://www.w3.org/2000/svg" xml:space="preserve" width="400px" height="150px" version="1.1" style="shape-rendering:geometricPrecision; text-rendering:geometricPrecision; image-rendering:optimizeQuality; fill-rule:evenodd; clip-rule:evenodd"
viewBox="0 0 400 150"
 xmlns:xlink="http://www.w3.org/1999/xlink">
 <defs>
  <style type="text/css">
   <![CDATA[
    .str0 {stroke:black;stroke-width:3.00001}
    .fil1 {fill:none;fill-rule:nonzero}
    .fil0 {fill:white;fill-rule:nonzero}
   ]]>
  </style>
 </defs>
 <g id="Слой_x0020_1">
  <metadata id="CorelCorpID_0Corel-Layer"/>
  <g>
   <path class="fil0" d="M317 116c0,0 -1,1 -2,1 -8,4 -15,7 -22,7 -3,0 -5,-1 -7,-3 -1,-2 -2,-4 -2,-6 -2,1 -3,2 -4,3 -8,4 -15,6 -21,6 -5,0 -9,-1 -12,-4 -2,-1 -3,-3 -4,-4 -1,0 -2,1 -3,1 -8,5 -15,7 -21,7l-11 0c-9,0 -15,-2 -17,-7 -8,4 -15,7 -22,7 -7,0 -10,-3 -10,-9 0,-2 1,-4 1,-6l11 -23c0,0 0,-1 0,-1 0,-1 0,-1 -1,-2 -1,0 -2,-1 -2,-1 -2,0 -3,2 -4,4 -4,9 -10,17 -19,22 -3,3 -7,6 -12,9 -8,4 -16,7 -23,7 -3,0 -5,-2 -5,-5 -4,3 -8,5 -12,5 -9,0 -14,-3 -16,-7 0,0 -1,0 -1,0 -9,5 -16,7 -22,7 -2,0 -3,-1 -5,-1 -3,-2 -5,-4 -5,-8 0,-2 1,-4 2,-6l12 -28c1,-1 1,-1 1,-2 0,-1 -2,-2 -4,-2 -1,0 -1,0 -1,0l-21 47 -23 0 37 -84c0,0 1,-1 1,-1 0,-1 -1,-2 -2,-3 -1,-1 -2,-1 -3,-1l-26 0c-3,0 -4,-1 -4,-4 0,-3 1,-5 4,-5l36 0c12,0 19,3 19,9 0,1 -1,3 -2,5l-12 27c0,0 1,0 2,0 3,0 5,-1 6,-3l11 -24c1,-4 4,-7 8,-10 4,-2 8,-4 12,-4l18 0c1,0 2,1 2,2 0,1 -1,3 -3,5 -2,1 -4,2 -6,2l-2 0c-2,0 -3,0 -4,0 -2,1 -5,5 -7,10l-8 19c-2,3 -6,6 -13,8 4,2 6,5 6,7 0,0 -1,1 -1,2l-10 23c-1,2 -1,3 -1,4 0,1 1,2 2,2 2,0 5,-1 7,-2 1,-3 2,-6 4,-10l2 -4c3,-7 7,-13 12,-18 6,-5 12,-8 19,-8 5,0 8,2 11,5l1 -3 14 0 -6 15c-1,2 -3,5 -4,9 -2,3 -4,7 -6,12 0,0 0,1 0,2 0,1 1,2 2,2 3,0 6,-1 9,-4l19 -42 32 19c3,1 4,3 4,6 0,1 0,1 -1,2l-6 15c-1,1 -1,1 -1,2 0,1 1,2 2,2 3,0 5,-1 8,-3 1,-2 2,-5 4,-9l5 -10c2,-6 5,-10 9,-14 5,-4 10,-6 15,-6l15 0c6,0 10,3 10,7 0,3 -2,9 -6,17 -2,6 -7,8 -15,8l-15 0 -3 8c-1,2 -1,3 -1,5 0,1 0,2 2,2l4 0c9,0 18,-3 26,-8 0,-1 0,-1 1,-2l27 -63c3,-5 7,-9 11,-12 5,-3 10,-4 15,-4 4,0 7,1 10,2 4,2 6,4 6,7 0,1 0,2 -1,3l-10 22c-5,13 -15,22 -29,28l-8 17c0,1 0,2 0,3 0,2 1,3 4,3 4,0 9,-1 14,-4 2,-2 4,-4 6,-6l16 -36 17 9 -14 32c-1,1 -1,1 -1,2 0,1 1,2 3,2 2,0 5,-1 9,-4l-1 10zm-202 -36c1,-1 1,-1 1,-1 0,-1 -1,-2 -3,-2 -2,0 -4,1 -4,3l-13 28c-1,2 -1,3 -1,5 0,1 0,2 2,2 2,0 4,-2 5,-6l13 -29zm115 0c0,-1 1,-1 1,-1 0,-1 -1,-2 -3,-2 -2,0 -4,1 -4,3l-6 12 7 0 5 -12zm69 -41c0,0 0,-1 0,-1 0,-1 0,-1 -2,-1 -1,0 -3,1 -3,2 -2,4 -4,9 -7,14 -2,6 -5,12 -8,20 4,-1 7,-5 11,-13l9 -21zm35 10c-1,3 -4,5 -7,7 -3,1 -6,1 -9,1 -2,0 -4,0 -6,-1 -2,-1 -3,-2 -3,-4 0,-1 0,-2 1,-3 1,-2 3,-5 7,-6 3,-2 6,-2 8,-2 3,0 5,0 7,1 1,1 2,3 2,5 0,0 0,1 0,2zm21 31c1,-1 1,-1 1,-1 0,-1 -1,-2 -3,-2 -2,0 -4,1 -4,3l-13 28c-1,2 -1,3 -1,5 0,1 1,2 2,2 2,0 4,-2 5,-6l13 -29zm-37 26c1,-2 2,-5 3,-8l2 -4c3,-7 7,-13 12,-18 6,-5 12,-8 19,-8 5,0 9,2 11,5l2 -3 13 0 -6 15c-1,2 -3,5 -4,9 -2,3 -3,7 -5,12 -1,0 -1,1 -1,2 0,1 1,2 2,2 3,0 7,-2 11,-5 5,-3 8,-6 9,-9l4 5c-3,6 -8,11 -17,16 -8,4 -16,7 -23,7 -3,0 -5,-2 -5,-5 -4,3 -8,5 -12,5 -10,0 -15,-3 -16,-8l1 -10z"/>
   <path id="1" class="fil1 str0" d="M317 116c0,0 -1,1 -2,1 -8,4 -15,7 -22,7 -3,0 -5,-1 -7,-3 -1,-2 -2,-4 -2,-6 -2,1 -3,2 -4,3 -8,4 -15,6 -21,6 -5,0 -9,-1 -12,-4 -2,-1 -3,-3 -4,-4 -1,0 -2,1 -3,1 -8,5 -15,7 -21,7l-11 0c-9,0 -15,-2 -17,-7 -8,4 -15,7 -22,7 -7,0 -10,-3 -10,-9 0,-2 1,-4 1,-6l11 -23c0,0 0,-1 0,-1 0,-1 0,-1 -1,-2 -1,0 -2,-1 -2,-1 -2,0 -3,2 -4,4 -4,9 -10,17 -19,22 -3,3 -7,6 -12,9 -8,4 -16,7 -23,7 -3,0 -5,-2 -5,-5 -4,3 -8,5 -12,5 -9,0 -14,-3 -16,-7 0,0 -1,0 -1,0 -9,5 -16,7 -22,7 -2,0 -3,-1 -5,-1 -3,-2 -5,-4 -5,-8 0,-2 1,-4 2,-6l12 -28c1,-1 1,-1 1,-2 0,-1 -2,-2 -4,-2 -1,0 -1,0 -1,0l-21 47 -23 0 37 -84c0,0 1,-1 1,-1 0,-1 -1,-2 -2,-3 -1,-1 -2,-1 -3,-1l-26 0c-3,0 -4,-1 -4,-4 0,-3 1,-5 4,-5l36 0c12,0 19,3 19,9 0,1 -1,3 -2,5l-12 27c0,0 1,0 2,0 3,0 5,-1 6,-3l11 -24c1,-4 4,-7 8,-10 4,-2 8,-4 12,-4l18 0c1,0 2,1 2,2 0,1 -1,3 -3,5 -2,1 -4,2 -6,2l-2 0c-2,0 -3,0 -4,0 -2,1 -5,5 -7,10l-8 19c-2,3 -6,6 -13,8 4,2 6,5 6,7 0,0 -1,1 -1,2l-10 23c-1,2 -1,3 -1,4 0,1 1,2 2,2 2,0 5,-1 7,-2 1,-3 2,-6 4,-10l2 -4c3,-7 7,-13 12,-18 6,-5 12,-8 19,-8 5,0 8,2 11,5l1 -3 14 0 -6 15c-1,2 -3,5 -4,9 -2,3 -4,7 -6,12 0,0 0,1 0,2 0,1 1,2 2,2 3,0 6,-1 9,-4l19 -42 32 19c3,1 4,3 4,6 0,1 0,1 -1,2l-6 15c-1,1 -1,1 -1,2 0,1 1,2 2,2 3,0 5,-1 8,-3 1,-2 2,-5 4,-9l5 -10c2,-6 5,-10 9,-14 5,-4 10,-6 15,-6l15 0c6,0 10,3 10,7 0,3 -2,9 -6,17 -2,6 -7,8 -15,8l-15 0 -3 8c-1,2 -1,3 -1,5 0,1 0,2 2,2l4 0c9,0 18,-3 26,-8 0,-1 0,-1 1,-2l27 -63c3,-5 7,-9 11,-12 5,-3 10,-4 15,-4 4,0 7,1 10,2 4,2 6,4 6,7 0,1 0,2 -1,3l-10 22c-5,13 -15,22 -29,28l-8 17c0,1 0,2 0,3 0,2 1,3 4,3 4,0 9,-1 14,-4 2,-2 4,-4 6,-6l16 -36 17 9 -14 32c-1,1 -1,1 -1,2 0,1 1,2 3,2 2,0 5,-1 9,-4m-203 -26c1,-1 1,-1 1,-1 0,-1 -1,-2 -3,-2 -2,0 -4,1 -4,3l-13 28c-1,2 -1,3 -1,5 0,1 0,2 2,2 2,0 4,-2 5,-6l13 -29zm115 0c0,-1 1,-1 1,-1 0,-1 -1,-2 -3,-2 -2,0 -4,1 -4,3l-6 12 7 0 5 -12zm69 -41c0,0 0,-1 0,-1 0,-1 0,-1 -2,-1 -1,0 -3,1 -3,2 -2,4 -4,9 -7,14 -2,6 -5,12 -8,20 4,-1 7,-5 11,-13l9 -21zm35 10c-1,3 -4,5 -7,7 -3,1 -6,1 -9,1 -2,0 -4,0 -6,-1 -2,-1 -3,-2 -3,-4 0,-1 0,-2 1,-3 1,-2 3,-5 7,-6 3,-2 6,-2 8,-2 3,0 5,0 7,1 1,1 2,3 2,5 0,0 0,1 0,2zm21 31c1,-1 1,-1 1,-1 0,-1 -1,-2 -3,-2 -2,0 -4,1 -4,3l-13 28c-1,2 -1,3 -1,5 0,1 1,2 2,2 2,0 4,-2 5,-6l13 -29zm-37 26c1,-2 2,-5 3,-8l2 -4c3,-7 7,-13 12,-18 6,-5 12,-8 19,-8 5,0 9,2 11,5l2 -3 13 0 -6 15c-1,2 -3,5 -4,9 -2,3 -3,7 -5,12 -1,0 -1,1 -1,2 0,1 1,2 2,2 3,0 7,-2 11,-5 5,-3 8,-6 9,-9l4 5c-3,6 -8,11 -17,16 -8,4 -16,7 -23,7 -3,0 -5,-2 -5,-5 -4,3 -8,5 -12,5 -10,0 -15,-3 -16,-8"/>
  </g>
 </g>
</svg>
