<?xml version="1.0" encoding="UTF-8"?>
<!DOCTYPE svg PUBLIC "-//W3C//DTD SVG 1.1//EN" "http://www.w3.org/Graphics/SVG/1.1/DTD/svg11.dtd">
<!-- Creator: CorelDRAW X8 -->
<svg xmlns="http://www.w3.org/2000/svg" xml:space="preserve" width="500px" height="150px" version="1.1" style="shape-rendering:geometricPrecision; text-rendering:geometricPrecision; image-rendering:optimizeQuality; fill-rule:evenodd; clip-rule:evenodd"
viewBox="0 0 500 150"
 xmlns:xlink="http://www.w3.org/1999/xlink">
 <defs>
  <style type="text/css">
   <![CDATA[
    .str0 {stroke:black;stroke-width:3.00001}
    .fil1 {fill:none;fill-rule:nonzero}
    .fil0 {fill:white;fill-rule:nonzero}
   ]]>
  </style>
 </defs>
 <g id="Слой_x0020_1">
  <metadata id="CorelCorpID_0Corel-Layer"/>
  <g>
   <path class="fil0" d="M292 135c-10,6 -19,9 -28,9 -2,0 -4,0 -6,-1 -4,-3 -6,-6 -6,-10 0,-4 1,-9 4,-16 3,-6 5,-10 5,-11 0,-2 -1,-3 -3,-3 -3,0 -5,2 -6,5l-14 36 -28 0 15 -37c0,-3 -1,-4 -3,-4 -2,0 -3,1 -4,3 -2,1 -3,5 -5,11 -2,5 -4,9 -6,12 -3,4 -6,7 -10,9 -6,4 -12,6 -19,6 -7,0 -15,-2 -18,-10 -10,7 -19,10 -28,10 -4,0 -7,-2 -7,-6 -5,4 -10,7 -15,7 -12,0 -18,-4 -20,-11 -9,6 -19,10 -30,10 -1,0 -3,0 -5,-1 -4,-2 -7,-6 -7,-11 0,-2 1,-5 2,-8l16 -40c1,-1 1,-2 1,-2 0,-2 -2,-3 -5,-3 -1,0 -2,0 -2,0l-26 65 -29 0 47 -118c1,-2 0,-4 -2,-5 -1,-1 -3,-2 -4,-2l-33 0c-3,0 -4,-2 -4,-6 0,-4 1,-6 5,-6l46 0c15,0 23,4 23,11 0,3 -1,6 -2,8l-15 38c0,0 1,0 2,0 4,0 7,-1 8,-4l13 -34c3,-5 6,-10 11,-14 5,-3 10,-5 15,-5l23 0c2,0 3,1 3,2 0,2 -2,4 -5,7 -2,2 -4,3 -6,3 -3,0 -7,0 -9,1 -3,1 -5,6 -8,13l-11 27c-2,4 -7,8 -15,11 4,3 8,7 6,13l-14 33c-1,3 -2,8 2,8 3,0 6,-1 9,-4 1,-3 3,-8 5,-12l15 -40 25 0 -21 54c-1,2 -2,4 -2,6 0,2 1,3 3,3 2,0 5,-3 7,-8l24 -62 22 13 -18 44c-1,2 -2,6 2,6 4,0 8,-2 14,-7 5,-4 9,-9 11,-13l5 8c-2,5 -5,9 -10,14 1,2 3,3 6,2 3,0 4,-3 5,-6 1,-2 2,-4 3,-6 4,-9 10,-21 20,-25 4,-2 7,-3 12,-3 4,0 7,0 9,0 3,0 4,1 4,1 0,-3 0,-12 -4,-13 -3,0 -6,0 -7,3 -1,2 -1,4 0,5l-18 2c-1,-2 -2,-5 -1,-8 1,-4 2,-6 4,-8 4,-6 9,-9 16,-9 3,0 6,2 9,4 3,2 5,5 7,9l10 -26 23 14 -4 9c6,-6 13,-10 22,-10 11,0 12,8 9,17 -1,3 -3,6 -6,8l-17 -2c0,0 3,-4 3,-4 0,0 0,-1 0,-1 0,-2 0,-2 -2,-2 -4,0 -10,4 -16,12 1,0 3,-1 6,-1 2,0 5,0 9,0 3,0 6,1 9,3 4,1 4,5 4,8 0,5 -1,10 -4,17 -1,2 -1,4 -1,5 0,2 1,3 3,3 1,0 4,0 9,-2l-2 12zm2 -12c1,-5 4,-10 6,-15l16 -39 25 0 -21 54c-1,2 -2,4 -2,6 0,2 1,3 3,3 2,0 5,-3 7,-8l24 -62 22 13 -18 44c-1,2 -2,6 2,6 4,0 8,-2 14,-7 5,-4 9,-9 11,-13l5 8c-3,8 -10,15 -21,22 -11,6 -20,9 -29,9 -4,0 -7,-2 -7,-6 -5,4 -10,7 -15,7 -13,0 -22,-2 -24,-10l2 -12zm25 -54c24,0 0,0 0,0z"/>
   <path id="1" class="fil1 str0" d="M292 135c-10,6 -19,9 -28,9 -2,0 -4,0 -6,-1 -4,-3 -6,-6 -6,-10 0,-4 1,-9 4,-16 3,-6 5,-10 5,-11 0,-2 -1,-3 -3,-3 -3,0 -5,2 -6,5l-14 36 -28 0 15 -37c0,-3 -1,-4 -3,-4 -2,0 -3,1 -4,3 -2,1 -3,5 -5,11 -2,5 -4,9 -6,12 -3,4 -6,7 -10,9 -6,4 -12,6 -19,6 -7,0 -15,-2 -18,-10 -10,7 -19,10 -28,10 -4,0 -7,-2 -7,-6 -5,4 -10,7 -15,7 -12,0 -18,-4 -20,-11 -9,6 -19,10 -30,10 -1,0 -3,0 -5,-1 -4,-2 -7,-6 -7,-11 0,-2 1,-5 2,-8l16 -40c1,-1 1,-2 1,-2 0,-2 -2,-3 -5,-3 -1,0 -2,0 -2,0l-26 65 -29 0 47 -118c1,-2 0,-4 -2,-5 -1,-1 -3,-2 -4,-2l-33 0c-3,0 -4,-2 -4,-6 0,-4 1,-6 5,-6l46 0c15,0 23,4 23,11 0,3 -1,6 -2,8l-15 38c0,0 1,0 2,0 4,0 7,-1 8,-4l13 -34c3,-5 6,-10 11,-14 5,-3 10,-5 15,-5l23 0c2,0 3,1 3,2 0,2 -2,4 -5,7 -2,2 -4,3 -6,3 -3,0 -7,0 -9,1 -3,1 -5,6 -8,13l-11 27c-2,4 -7,8 -15,11 4,3 8,7 6,13l-14 33c-1,3 -2,8 2,8 3,0 6,-1 9,-4 1,-3 3,-8 5,-12l15 -40 25 0 -21 54c-1,2 -2,4 -2,6 0,2 1,3 3,3 2,0 5,-3 7,-8l24 -62 22 13 -18 44c-1,2 -2,6 2,6 4,0 8,-2 14,-7 5,-4 9,-9 11,-13l5 8c-2,5 -5,9 -10,14 1,2 3,3 6,2 3,0 4,-3 5,-6 1,-2 2,-4 3,-6 4,-9 10,-21 20,-25 4,-2 7,-3 12,-3 4,0 7,0 9,0 3,0 4,1 4,1 0,-3 0,-12 -4,-13 -3,0 -6,0 -7,3 -1,2 -1,4 0,5l-18 2c-1,-2 -2,-5 -1,-8 1,-4 2,-6 4,-8 4,-6 9,-9 16,-9 3,0 6,2 9,4 3,2 5,5 7,9l10 -26 23 14 -4 9c6,-6 13,-10 22,-10 11,0 12,8 9,17 -1,3 -3,6 -6,8l-17 -2c0,0 3,-4 3,-4 0,0 0,-1 0,-1 0,-2 0,-2 -2,-2 -4,0 -10,4 -16,12 1,0 3,-1 6,-1 2,0 5,0 9,0 3,0 6,1 9,3 4,1 4,5 4,8 0,5 -1,10 -4,17 -1,2 -1,4 -1,5 0,2 1,3 3,3 1,0 4,0 9,-2m0 0c1,-5 4,-10 6,-15l16 -39 25 0 -21 54c-1,2 -2,4 -2,6 0,2 1,3 3,3 2,0 5,-3 7,-8l24 -62 22 13 -18 44c-1,2 -2,6 2,6 4,0 8,-2 14,-7 5,-4 9,-9 11,-13l5 8c-3,8 -10,15 -21,22 -11,6 -20,9 -29,9 -4,0 -7,-2 -7,-6 -5,4 -10,7 -15,7 -13,0 -22,-2 -24,-10m27 -66c24,0 0,0 0,0z"/>
  </g>
 </g>
</svg>
