<?xml version="1.0" encoding="UTF-8"?>
<!DOCTYPE svg PUBLIC "-//W3C//DTD SVG 1.1//EN" "http://www.w3.org/Graphics/SVG/1.1/DTD/svg11.dtd">
<!-- Creator: CorelDRAW X8 -->
<svg xmlns="http://www.w3.org/2000/svg" xml:space="preserve" width="600px" height="150px" version="1.1" style="shape-rendering:geometricPrecision; text-rendering:geometricPrecision; image-rendering:optimizeQuality; fill-rule:evenodd; clip-rule:evenodd"
viewBox="0 0 600 150"
 xmlns:xlink="http://www.w3.org/1999/xlink">
 <defs>
  <style type="text/css">
   <![CDATA[
    .str0 {stroke:black;stroke-width:4.00041}
    .fil1 {fill:none;fill-rule:nonzero}
    .fil0 {fill:white;fill-rule:nonzero}
   ]]>
  </style>
 </defs>
 <g id="Слой_x0020_1">
  <metadata id="CorelCorpID_0Corel-Layer"/>
  <g>
   <path class="fil0" d="M47 84c1,-1 1,-3 1,-5 0,-5 -3,-9 -8,-12l-13 38c0,1 0,1 0,2 0,1 0,1 1,1 1,0 3,-1 4,-2 7,-4 11,-9 13,-16l2 -6zm17 -49c0,-1 0,-2 0,-3 0,-4 -1,-6 -4,-6 -4,0 -7,3 -9,9l-9 27c10,-5 16,-11 18,-16l4 -11zm-3 58c-3,9 -9,16 -17,21 -6,3 -13,5 -21,5l-19 0 30 -87c0,0 0,-1 0,-1 0,-1 -1,-2 -1,-3 -1,-1 -2,-1 -3,-1l-21 0c-1,0 -2,-2 -2,-5 0,-3 1,-4 3,-4l29 0c7,0 11,1 13,4 4,-3 8,-5 15,-5 3,0 7,1 10,3 4,2 6,5 6,8 0,2 -1,3 -1,5l-3 8c-2,5 -5,10 -9,15 -4,4 -9,6 -14,8 6,2 9,7 9,14 0,2 0,5 -1,8l-3 7zm32 -15c-2,0 -2,-2 -2,-5 0,-1 0,-2 0,-3 -1,1 -2,3 -3,4l-10 32c-1,1 -1,1 -1,2 0,2 1,3 2,3 2,0 3,-2 5,-5l9 -28zm10 -6c1,-1 3,-3 2,-5 0,-2 1,-4 -3,-4 -1,1 -3,2 -3,5 0,1 0,2 1,3 1,1 1,2 1,2 1,0 2,-1 2,-1zm185 37c-1,1 -3,2 -4,3 -7,5 -13,7 -18,7 -3,0 -4,-2 -4,-5 -3,3 -6,5 -10,5 -7,0 -12,-2 -13,-8 -1,1 0,0 -1,1 -7,5 -13,7 -18,7 -1,0 -2,0 -4,-1 -2,-2 -4,-4 -4,-8 0,-2 1,-4 2,-6l10 -31c0,-1 0,-1 0,-1 0,-2 0,-2 -1,-2 -2,0 -3,1 -4,3l-16 46 -17 0 12 -37c-1,1 -3,1 -5,2 0,0 -1,2 -1,3 -1,1 -1,3 -2,5 -6,18 -13,27 -21,27l-13 0c-5,0 -7,-2 -7,-7 -3,2 -6,3 -9,3 -1,0 -2,0 -3,-1l-4 13c-2,6 -5,10 -10,14 -4,3 -8,4 -12,4 -4,0 -7,-1 -9,-3 -2,-2 -3,-4 -3,-8 0,-1 0,-3 1,-6 2,-7 7,-12 14,-14 -5,-1 -7,-5 -7,-13 0,-4 0,-8 2,-13 1,-2 1,-4 2,-5 -1,0 -3,0 -4,1 -1,0 -1,2 -2,3 0,1 -1,3 -1,5 -6,18 -13,27 -21,27l-14 0c-4,0 -7,-3 -7,-9 0,-3 1,-8 3,-14l5 -13c2,-6 5,-11 8,-15 4,-5 8,-7 12,-7l5 0c2,-3 5,-4 9,-4 5,0 7,2 7,7 0,3 0,6 -2,9 1,1 2,1 4,1 1,0 2,-1 4,-2 0,-1 1,-1 2,-2 4,-6 9,-9 15,-9 4,0 7,2 9,5l1 -3 11 0 -12 35c-1,2 -1,3 -1,5 0,1 0,2 2,2 1,0 3,-1 6,-3 0,-2 1,-4 2,-6l4 -13c2,-6 5,-11 8,-15 4,-5 8,-7 12,-7l5 0c3,-3 6,-4 9,-4 5,0 8,2 8,7 0,3 -1,6 -3,9 2,1 3,1 4,1 1,0 1,0 3,-1l5 -15 11 8c3,-5 7,-7 13,-7 6,0 8,4 8,11 0,4 0,8 -2,12l-6 18c0,1 0,2 0,3 0,1 0,2 1,2 3,0 5,-2 8,-5 1,-2 1,-5 2,-7l2 -5c3,-7 6,-13 10,-18 4,-6 9,-9 15,-9 4,0 7,2 9,5l1 -3 11 0 -6 16c0,2 -1,5 -3,8 -1,4 -2,8 -4,13 0,1 0,2 0,3 0,1 0,2 2,2 2,0 4,-2 8,-5l1 9zm-173 22c1,-1 2,-4 3,-7 1,-3 1,-5 2,-9 -1,1 -3,3 -4,4 -1,1 -2,2 -2,3 -1,1 -2,2 -3,3 0,2 -1,4 -2,6 0,0 0,2 0,2 0,1 2,2 3,2 1,0 3,-2 3,-4zm20 -58c0,0 0,-1 0,-1 0,-1 -1,-2 -2,-2 -2,0 -3,1 -3,3l-8 24c-1,1 -1,2 -1,4 0,1 0,2 1,2 2,0 4,-2 5,-7l8 -23zm44 5c-1,0 -2,-2 -2,-5 0,-1 0,-2 0,-3 -1,1 -2,3 -2,4l-11 32c0,1 0,1 0,2 0,2 0,3 1,3 2,0 4,-2 5,-5l9 -28zm10 -5c2,1 2,-3 2,-6 0,-1 -1,-4 -3,-4 -1,0 -3,3 -3,5 0,1 0,3 0,3 1,1 3,2 3,2 1,0 1,1 1,0zm81 0c0,-1 0,-1 0,-1 0,-1 0,-2 -2,-2 -2,0 -3,1 -3,3l-11 30c0,1 0,3 0,4 0,2 0,3 1,3 2,0 3,-2 5,-6l10 -31zm26 58c1,-1 1,-4 2,-7 2,-2 2,-6 2,-9 -1,1 -2,3 -3,4 -2,1 -2,2 -3,3 0,1 -2,2 -2,4 -1,1 -2,3 -3,5 0,1 0,2 0,2 0,2 2,2 3,2 1,0 3,-2 4,-4zm19 -58c0,0 0,-1 0,-1 0,-1 0,-2 -2,-2 -2,0 -3,1 -3,3l-8 24c-1,1 -1,2 -1,4 0,1 0,2 1,2 2,0 4,-2 5,-7l8 -23zm-28 27c0,-4 1,-8 2,-12 3,-7 6,-13 10,-18 5,-6 10,-9 15,-9 4,0 7,2 9,5l1 -3 11 0 -12 35c-1,2 -1,3 -1,5 0,1 1,2 2,2 2,0 5,-2 8,-5 4,-4 6,-7 7,-10l3 6c-1,4 -4,9 -9,13 -5,4 -9,6 -12,6 -2,0 -3,0 -3,-1l-5 13c-2,6 -5,10 -9,14 -4,3 -9,4 -13,4 -4,0 -6,-1 -9,-3 -2,-2 -3,-4 -3,-8 0,-1 0,-3 1,-6 3,-7 7,-12 14,-14 -3,-1 -5,-3 -6,-5l-1 -9zm259 0c-3,4 -7,8 -12,12 -6,4 -12,7 -18,7 -2,0 -4,-2 -4,-5 -3,3 -6,5 -10,5 -8,0 -12,-4 -12,-11 -3,1 -5,2 -7,2 -2,0 -3,-1 -4,-3 -1,1 -1,2 -2,3 0,1 -1,2 -2,2 -4,6 -9,9 -15,9 -3,0 -6,-2 -9,-5l-1 3 -11 0 2 -5c-5,3 -10,5 -14,5 -3,0 -4,-2 -5,-5 -3,3 -6,5 -9,5 -7,0 -11,-2 -13,-7 -6,4 -13,7 -18,7 -1,0 -2,0 -3,-1 -3,-2 -4,-4 -4,-8 0,-2 0,-4 1,-6l10 -30c0,-1 0,-1 0,-1 0,-2 -1,-3 -3,-3 -1,0 -1,0 -1,1l-16 48 -19 0 30 -87c0,0 0,-1 0,-1 0,-1 0,-2 -1,-3 -1,-1 -2,-1 -3,-1l-20 0c-2,0 -3,-2 -3,-5 0,-3 1,-4 3,-4l29 0c9,0 14,2 14,8 0,2 0,4 -1,6l-9 28c0,0 0,0 1,0 2,0 4,-1 5,-4l8 -24c2,-4 4,-8 7,-10 3,-3 6,-4 9,-4l14 0c2,0 2,0 2,1 0,2 -1,3 -2,5 -2,2 -3,3 -5,3l-2 0c-1,0 -2,0 -3,0 -2,1 -3,4 -5,10l-7 19c-1,4 -4,7 -10,9 3,2 5,5 5,7 0,1 -1,2 -1,2l-8 25c-1,1 -1,2 -1,3 0,2 1,3 2,3 2,0 4,-1 6,-3 0,-3 1,-6 2,-9l10 -30 16 0 -14 40c0,1 0,3 0,4 0,2 0,3 1,3 2,0 3,-2 4,-6l16 -46 13 9 -11 33c0,1 0,2 0,3 0,1 0,2 1,2 2,0 4,-1 6,-3l16 -47c2,-6 5,-10 10,-14 4,-3 8,-4 13,-4 3,0 6,1 8,3 2,2 3,4 3,8 0,1 0,3 -1,6 -2,7 -7,12 -14,14 5,1 8,5 8,13 0,4 -1,8 -3,13l0 1 0 1c0,2 1,3 3,3 1,0 2,0 3,-1 1,-2 1,-4 2,-5l1 -5c3,-7 6,-13 10,-18 5,-6 10,-9 15,-9 4,0 7,2 9,5l1 -3 11 0 -5 16c-1,2 -2,5 -3,8 -1,4 -3,8 -4,13 -1,1 -1,2 -1,3 0,1 1,2 2,2 2,0 5,-2 9,-5 1,-2 3,-4 4,-6l4 6zm-87 9c0,0 0,1 0,1 0,1 1,2 2,2 2,0 3,-1 4,-3l7 -24c1,-1 1,-2 1,-4 0,-1 0,-2 -1,-2 -2,0 -3,2 -5,7l-8 23zm20 -58c-1,2 -2,4 -3,7 -1,3 -1,5 -2,9 1,-1 3,-3 4,-4 1,-1 2,-2 2,-3 1,-1 2,-3 3,-4 1,-1 2,-2 3,-5 0,0 0,-2 0,-2 0,-1 -3,-2 -4,-2 -1,0 -2,2 -3,4zm41 22c0,-1 1,-1 1,-1 0,-1 -1,-2 -3,-2 -1,0 -3,1 -3,3l-10 30c-1,1 -1,3 -1,4 0,2 0,3 1,3 2,0 4,-2 5,-6l10 -31zm22 21c0,-1 0,-2 0,-3 0,-4 1,-9 3,-16l4 -12 16 0 -8 23c0,1 -1,3 -1,4 0,2 1,2 2,2 1,0 3,-2 4,-6l1 -1 0 0 9 -27 13 9 -11 33c0,1 -1,2 -1,3 0,1 1,2 2,2 3,0 5,-2 9,-5 3,-4 6,-7 7,-10l3 6 0 0c-2,5 -6,11 -13,16 -7,5 -13,7 -18,7 -2,0 -4,-1 -6,-3 -1,-2 -2,-4 -2,-7 0,-2 1,-4 1,-5l1 -4c-2,1 -4,2 -5,2 -3,0 -5,-1 -6,-2l-4 -6z"/>
   <path id="1" class="fil1 str0" d="M47 84c1,-1 1,-3 1,-5 0,-5 -3,-9 -8,-12l-13 38c0,1 0,1 0,2 0,1 0,1 1,1 1,0 3,-1 4,-2 7,-4 11,-9 13,-16l2 -6zm17 -49c0,-1 0,-2 0,-3 0,-4 -1,-6 -4,-6 -4,0 -7,3 -9,9l-9 27c10,-5 16,-11 18,-16l4 -11zm-3 58c-3,9 -9,16 -17,21 -6,3 -13,5 -21,5l-19 0 30 -87c0,0 0,-1 0,-1 0,-1 -1,-2 -1,-3 -1,-1 -2,-1 -3,-1l-21 0c-1,0 -2,-2 -2,-5 0,-3 1,-4 3,-4l29 0c7,0 11,1 13,4 4,-3 8,-5 15,-5 3,0 7,1 10,3 4,2 6,5 6,8 0,2 -1,3 -1,5l-3 8c-2,5 -5,10 -9,15 -4,4 -9,6 -14,8 6,2 9,7 9,14 0,2 0,5 -1,8l-3 7zm32 -15c-2,0 -2,-2 -2,-5 0,-1 0,-2 0,-3 -1,1 -2,3 -3,4l-10 32c-1,1 -1,1 -1,2 0,2 1,3 2,3 2,0 3,-2 5,-5l9 -28zm10 -6c1,-1 3,-3 2,-5 0,-2 1,-4 -3,-4 -1,1 -3,2 -3,5 0,1 0,2 1,3 1,1 1,2 1,2 1,0 2,-1 2,-1zm185 37c-1,1 -3,2 -4,3 -7,5 -13,7 -18,7 -3,0 -4,-2 -4,-5 -3,3 -6,5 -10,5 -7,0 -12,-2 -13,-8 -1,1 0,0 -1,1 -7,5 -13,7 -18,7 -1,0 -2,0 -4,-1 -2,-2 -4,-4 -4,-8 0,-2 1,-4 2,-6l10 -31c0,-1 0,-1 0,-1 0,-2 0,-2 -1,-2 -2,0 -3,1 -4,3l-16 46 -17 0 12 -37c-1,1 -3,1 -5,2 0,0 -1,2 -1,3 -1,1 -1,3 -2,5 -6,18 -13,27 -21,27l-13 0c-5,0 -7,-2 -7,-7 -3,2 -6,3 -9,3 -1,0 -2,0 -3,-1l-4 13c-2,6 -5,10 -10,14 -4,3 -8,4 -12,4 -4,0 -7,-1 -9,-3 -2,-2 -3,-4 -3,-8 0,-1 0,-3 1,-6 2,-7 7,-12 14,-14 -5,-1 -7,-5 -7,-13 0,-4 0,-8 2,-13 1,-2 1,-4 2,-5 -1,0 -3,0 -4,1 -1,0 -1,2 -2,3 0,1 -1,3 -1,5 -6,18 -13,27 -21,27l-14 0c-4,0 -7,-3 -7,-9 0,-3 1,-8 3,-14l5 -13c2,-6 5,-11 8,-15 4,-5 8,-7 12,-7l5 0c2,-3 5,-4 9,-4 5,0 7,2 7,7 0,3 0,6 -2,9 1,1 2,1 4,1 1,0 2,-1 4,-2 0,-1 1,-1 2,-2 4,-6 9,-9 15,-9 4,0 7,2 9,5l1 -3 11 0 -12 35c-1,2 -1,3 -1,5 0,1 0,2 2,2 1,0 3,-1 6,-3 0,-2 1,-4 2,-6l4 -13c2,-6 5,-11 8,-15 4,-5 8,-7 12,-7l5 0c3,-3 6,-4 9,-4 5,0 8,2 8,7 0,3 -1,6 -3,9 2,1 3,1 4,1 1,0 1,0 3,-1l5 -15 11 8c3,-5 7,-7 13,-7 6,0 8,4 8,11 0,4 0,8 -2,12l-6 18c0,1 0,2 0,3 0,1 0,2 1,2 3,0 5,-2 8,-5 1,-2 1,-5 2,-7l2 -5c3,-7 6,-13 10,-18 4,-6 9,-9 15,-9 4,0 7,2 9,5l1 -3 11 0 -6 16c0,2 -1,5 -3,8 -1,4 -2,8 -4,13 0,1 0,2 0,3 0,1 0,2 2,2 2,0 4,-2 8,-5m-172 31c1,-1 2,-4 3,-7 1,-3 1,-5 2,-9 -1,1 -3,3 -4,4 -1,1 -2,2 -2,3 -1,1 -2,2 -3,3 0,2 -1,4 -2,6 0,0 0,2 0,2 0,1 2,2 3,2 1,0 3,-2 3,-4zm20 -58c0,0 0,-1 0,-1 0,-1 -1,-2 -2,-2 -2,0 -3,1 -3,3l-8 24c-1,1 -1,2 -1,4 0,1 0,2 1,2 2,0 4,-2 5,-7l8 -23zm44 5c-1,0 -2,-2 -2,-5 0,-1 0,-2 0,-3 -1,1 -2,3 -2,4l-11 32c0,1 0,1 0,2 0,2 0,3 1,3 2,0 4,-2 5,-5l9 -28zm10 -5c2,1 2,-3 2,-6 0,-1 -1,-4 -3,-4 -1,0 -3,3 -3,5 0,1 0,3 0,3 1,1 3,2 3,2 1,0 1,1 1,0zm81 0c0,-1 0,-1 0,-1 0,-1 0,-2 -2,-2 -2,0 -3,1 -3,3l-11 30c0,1 0,3 0,4 0,2 0,3 1,3 2,0 3,-2 5,-6l10 -31zm26 58c1,-1 1,-4 2,-7 2,-2 2,-6 2,-9 -1,1 -2,3 -3,4 -2,1 -2,2 -3,3 0,1 -2,2 -2,4 -1,1 -2,3 -3,5 0,1 0,2 0,2 0,2 2,2 3,2 1,0 3,-2 4,-4zm19 -58c0,0 0,-1 0,-1 0,-1 0,-2 -2,-2 -2,0 -3,1 -3,3l-8 24c-1,1 -1,2 -1,4 0,1 0,2 1,2 2,0 4,-2 5,-7l8 -23zm-28 27c0,-4 1,-8 2,-12 3,-7 6,-13 10,-18 5,-6 10,-9 15,-9 4,0 7,2 9,5l1 -3 11 0 -12 35c-1,2 -1,3 -1,5 0,1 1,2 2,2 2,0 5,-2 8,-5 4,-4 6,-7 7,-10l3 6c-1,4 -4,9 -9,13 -5,4 -9,6 -12,6 -2,0 -3,0 -3,-1l-5 13c-2,6 -5,10 -9,14 -4,3 -9,4 -13,4 -4,0 -6,-1 -9,-3 -2,-2 -3,-4 -3,-8 0,-1 0,-3 1,-6 3,-7 7,-12 14,-14 -3,-1 -5,-3 -6,-5m258 -9c-3,4 -7,8 -12,12 -6,4 -12,7 -18,7 -2,0 -4,-2 -4,-5 -3,3 -6,5 -10,5 -8,0 -12,-4 -12,-11 -3,1 -5,2 -7,2 -2,0 -3,-1 -4,-3 -1,1 -1,2 -2,3 0,1 -1,2 -2,2 -4,6 -9,9 -15,9 -3,0 -6,-2 -9,-5l-1 3 -11 0 2 -5c-5,3 -10,5 -14,5 -3,0 -4,-2 -5,-5 -3,3 -6,5 -9,5 -7,0 -11,-2 -13,-7 -6,4 -13,7 -18,7 -1,0 -2,0 -3,-1 -3,-2 -4,-4 -4,-8 0,-2 0,-4 1,-6l10 -30c0,-1 0,-1 0,-1 0,-2 -1,-3 -3,-3 -1,0 -1,0 -1,1l-16 48 -19 0 30 -87c0,0 0,-1 0,-1 0,-1 0,-2 -1,-3 -1,-1 -2,-1 -3,-1l-20 0c-2,0 -3,-2 -3,-5 0,-3 1,-4 3,-4l29 0c9,0 14,2 14,8 0,2 0,4 -1,6l-9 28c0,0 0,0 1,0 2,0 4,-1 5,-4l8 -24c2,-4 4,-8 7,-10 3,-3 6,-4 9,-4l14 0c2,0 2,0 2,1 0,2 -1,3 -2,5 -2,2 -3,3 -5,3l-2 0c-1,0 -2,0 -3,0 -2,1 -3,4 -5,10l-7 19c-1,4 -4,7 -10,9 3,2 5,5 5,7 0,1 -1,2 -1,2l-8 25c-1,1 -1,2 -1,3 0,2 1,3 2,3 2,0 4,-1 6,-3 0,-3 1,-6 2,-9l10 -30 16 0 -14 40c0,1 0,3 0,4 0,2 0,3 1,3 2,0 3,-2 4,-6l16 -46 13 9 -11 33c0,1 0,2 0,3 0,1 0,2 1,2 2,0 4,-1 6,-3l16 -47c2,-6 5,-10 10,-14 4,-3 8,-4 13,-4 3,0 6,1 8,3 2,2 3,4 3,8 0,1 0,3 -1,6 -2,7 -7,12 -14,14 5,1 8,5 8,13 0,4 -1,8 -3,13l0 1 0 1c0,2 1,3 3,3 1,0 2,0 3,-1 1,-2 1,-4 2,-5l1 -5c3,-7 6,-13 10,-18 5,-6 10,-9 15,-9 4,0 7,2 9,5l1 -3 11 0 -5 16c-1,2 -2,5 -3,8 -1,4 -3,8 -4,13 -1,1 -1,2 -1,3 0,1 1,2 2,2 2,0 5,-2 9,-5 1,-2 3,-4 4,-6m-83 15c0,0 0,1 0,1 0,1 1,2 2,2 2,0 3,-1 4,-3l7 -24c1,-1 1,-2 1,-4 0,-1 0,-2 -1,-2 -2,0 -3,2 -5,7l-8 23zm20 -58c-1,2 -2,4 -3,7 -1,3 -1,5 -2,9 1,-1 3,-3 4,-4 1,-1 2,-2 2,-3 1,-1 2,-3 3,-4 1,-1 2,-2 3,-5 0,0 0,-2 0,-2 0,-1 -3,-2 -4,-2 -1,0 -2,2 -3,4zm41 22c0,-1 1,-1 1,-1 0,-1 -1,-2 -3,-2 -1,0 -3,1 -3,3l-10 30c-1,1 -1,3 -1,4 0,2 0,3 1,3 2,0 4,-2 5,-6l10 -31zm22 21c0,-1 0,-2 0,-3 0,-4 1,-9 3,-16l4 -12 16 0 -8 23c0,1 -1,3 -1,4 0,2 1,2 2,2 1,0 3,-2 4,-6l1 -1 0 0 9 -27 13 9 -11 33c0,1 -1,2 -1,3 0,1 1,2 2,2 3,0 5,-2 9,-5 3,-4 6,-7 7,-10l3 6 0 0c-2,5 -6,11 -13,16 -7,5 -13,7 -18,7 -2,0 -4,-1 -6,-3 -1,-2 -2,-4 -2,-7 0,-2 1,-4 1,-5l1 -4c-2,1 -4,2 -5,2 -3,0 -5,-1 -6,-2"/>
  </g>
 </g>
</svg>
