<?xml version="1.0" encoding="UTF-8"?>
<!DOCTYPE svg PUBLIC "-//W3C//DTD SVG 1.1//EN" "http://www.w3.org/Graphics/SVG/1.1/DTD/svg11.dtd">
<!-- Creator: CorelDRAW X8 -->
<svg xmlns="http://www.w3.org/2000/svg" xml:space="preserve" width="600px" height="150px" version="1.1" style="shape-rendering:geometricPrecision; text-rendering:geometricPrecision; image-rendering:optimizeQuality; fill-rule:evenodd; clip-rule:evenodd"
viewBox="0 0 600 150"
 xmlns:xlink="http://www.w3.org/1999/xlink">
 <defs>
  <style type="text/css">
   <![CDATA[
    .str0 {stroke:black;stroke-width:4.00041}
    .fil1 {fill:none;fill-rule:nonzero}
    .fil0 {fill:white;fill-rule:nonzero}
   ]]>
  </style>
 </defs>
 <g id="Слой_x0020_1">
  <metadata id="CorelCorpID_0Corel-Layer"/>
  <g>
   <path class="fil0" d="M149 111c-7,5 -13,7 -18,7l-10 0c-9,0 -14,-3 -14,-11 -2,1 -3,1 -5,1 -2,0 -4,-1 -5,-3 -1,2 -2,3 -4,5 -1,1 -3,3 -4,4 -4,3 -7,4 -10,4 -2,0 -4,-1 -5,-2l-10 29 -19 0 11 -32c-6,4 -10,5 -15,5 -1,0 -2,0 -4,-1 -3,-2 -4,-5 -4,-8 0,-3 0,-5 1,-7l11 -32c0,-1 0,-1 0,-2 0,-1 -1,-2 -3,-2 0,0 -1,0 -1,0l-18 52 -20 0 32 -94c1,0 1,0 1,-1 0,-1 -1,-2 -2,-3 -1,-1 -2,-1 -3,-1l-22 0c-2,0 -3,-2 -3,-5 0,-3 1,-5 3,-5l32 0c10,0 15,3 15,9 0,2 0,4 -1,6l-10 30c0,1 1,1 1,1 3,0 5,-2 6,-4l9 -27c1,-4 4,-8 7,-11 3,-3 7,-4 11,-4l15 0c1,0 2,1 2,2 0,1 -1,3 -3,5 -2,2 -3,3 -5,3l-2 0c-2,0 -3,0 -4,0 -1,1 -3,5 -5,11l-7 21c-2,4 -5,7 -11,9 3,3 4,5 4,8 0,0 0,1 0,2l-9 26c-1,2 -1,3 -1,4 0,2 1,3 2,3 2,0 4,-1 6,-2l14 -43 12 0 -2 5c4,-4 8,-6 14,-6 7,0 11,4 11,11 0,4 -2,12 -6,23 0,1 0,2 0,3 0,1 1,2 3,2 0,0 1,0 1,0 1,-2 2,-4 3,-6l4 -12c2,-6 5,-11 8,-16 4,-4 8,-6 13,-6l13 0c5,0 8,2 8,8 0,3 -2,9 -5,18 -2,7 -6,10 -12,10l-13 0 -3 9c-1,1 -1,3 -1,4 0,2 0,3 1,3l4 0c7,0 14,-2 21,-7 0,-4 1,-7 3,-11l4 -12c2,-6 5,-11 8,-16 4,-4 9,-6 13,-6l13 0c6,0 8,3 8,8 0,1 0,3 0,5l-19 9 3 -9c0,-1 0,-1 0,-1 0,-2 -1,-2 -2,-2 -2,0 -3,1 -4,3l-11 32c-1,1 -1,3 -1,4 0,2 1,3 2,3l3 0c8,0 15,-3 22,-8l17 -48 12 9c3,-5 8,-7 14,-7 5,0 8,2 9,7 4,-5 9,-7 16,-7 6,0 9,4 9,12 0,4 -1,8 -3,13l-6 19c-1,1 -1,2 -1,2 0,2 1,3 2,3 3,0 6,-2 10,-6 3,-3 6,-7 7,-10l3 6 0 0c-2,6 -6,12 -14,17 -7,6 -14,8 -20,8 -1,0 -2,0 -3,-1 -3,-2 -5,-5 -5,-8 0,-2 1,-5 1,-7l12 -33c0,-1 0,-2 0,-2 0,-1 0,-2 -2,-2 -2,0 -3,1 -4,4l-17 49 -18 0 17 -49c0,-1 0,-2 0,-2 0,-1 -1,-2 -2,-2 -2,0 -3,1 -4,4l-17 49 -19 0 2 -5 -38 -2zm-53 -42c0,-1 0,-1 0,-1 0,-2 0,-2 -2,-2 -2,0 -3,1 -4,3l-11 33c-1,2 -1,3 -1,4 0,2 1,3 2,3 1,0 3,-3 5,-7l11 -33zm44 0c0,-1 1,-1 1,-1 0,-2 -1,-2 -3,-2 -2,0 -3,1 -3,3l-5 13 6 0 4 -13zm47 44c-6,3 -11,5 -15,5l-10 0c-7,0 -12,-2 -13,-7l38 2zm199 -2c-1,0 -13,7 -19,7 -1,0 -2,0 -4,-1 -3,-2 -4,-5 -4,-8 0,-3 1,-7 3,-12 2,-6 3,-9 3,-10 0,-1 -1,-2 -2,-2 -2,0 -3,2 -4,4l-10 29 -19 0 2 -6c-6,4 -11,6 -15,6l-10 0c-9,0 -14,-4 -14,-12 0,-4 1,-10 4,-16l4 -12c2,-6 5,-11 8,-16 4,-4 8,-6 13,-6l13 0c5,0 8,3 8,8 0,1 0,3 0,5l-20 9 3 -9c1,-1 1,-1 1,-1 0,-2 -1,-2 -3,-2 -2,0 -3,1 -3,3l-11 32c-1,1 -1,3 -1,4 0,2 0,3 1,3l4 0c8,0 15,-3 23,-9l19 -57 15 11 -2 7c3,-4 8,-7 14,-7 5,0 8,2 8,7 0,2 -1,4 -1,6 -1,3 -3,5 -4,7l-12 -2c0,0 1,-1 1,-2 1,-1 1,-1 1,-1 0,-1 0,-1 0,-1 0,-1 0,-2 -1,-2 -3,0 -7,3 -11,10 0,0 1,-1 3,-1 2,0 4,0 7,0 1,0 2,1 3,1 1,0 2,1 3,1 1,1 2,2 2,3 1,1 1,2 1,4 0,3 -1,8 -3,13 -1,2 -1,3 -1,4 0,2 1,3 2,3 2,0 4,-1 6,-2 0,-3 1,-5 2,-7l5 -15c2,-6 5,-11 8,-16 5,-5 9,-7 14,-7l5 0c3,-3 6,-5 10,-5 5,0 8,3 8,8 0,3 -1,6 -3,10 2,0 3,1 4,1 1,0 2,-1 3,-1l4 -11 12 0 -2 5c3,-4 8,-6 13,-6 8,0 12,4 12,11 0,4 -2,12 -6,23 0,1 0,2 0,3 0,1 1,2 2,2 1,0 3,0 4,-1 0,0 0,-1 0,-1l15 -45 1 0c1,-2 3,-5 4,-9 2,-3 4,-5 6,-7 1,-2 4,-3 6,-4 3,-2 6,-2 9,-2 3,-1 5,0 7,1 2,1 3,2 3,5 0,1 1,2 2,2 3,0 6,-2 10,-5 3,-4 6,-7 7,-11l4 6c-2,5 -6,10 -11,14 -5,5 -9,7 -13,7 -1,0 -1,0 -2,0 -1,0 -2,-1 -2,-2 0,0 -1,-1 -1,-1 0,-1 -1,-1 -1,-1 -2,-1 -4,0 -6,1 -2,2 -3,4 -4,8l-3 8c3,-2 5,-3 8,-3 2,0 5,1 6,3 2,3 2,5 2,9 0,4 -2,12 -5,23 -1,1 -1,2 -1,3 0,1 1,2 3,2 2,0 3,0 5,-1 0,-2 1,-3 1,-5l11 -32 17 0 -14 43c-1,1 -1,3 -1,5 0,1 0,2 1,2 2,0 4,-2 5,-6l17 -50 14 11 -12 35c0,1 0,2 0,2 0,2 0,3 2,3 2,0 5,-2 9,-6 4,-3 6,-7 8,-10l3 6 0 0c-2,6 -7,12 -14,17 -7,6 -14,8 -20,8 -3,0 -4,-2 -5,-5 -3,4 -6,5 -10,5 -10,0 -14,-4 -14,-12 0,0 0,0 0,0 -3,1 -5,2 -8,2 -2,0 -4,-1 -4,-3 -3,4 -7,7 -11,10 -5,2 -9,3 -12,3 -9,0 -13,-4 -14,-11 0,-1 -4,1 -6,1 -3,0 -4,-1 -5,-3 -1,2 -3,3 -4,5 -1,1 -3,3 -5,4 -3,3 -7,4 -10,4 -1,0 -3,-1 -5,-2l-10 29 -18 0 23 -66 -54 32zm33 -37c-2,0 -3,-2 -3,-5 0,-2 0,-3 1,-3 -2,1 -3,2 -3,4l-12 34c0,1 0,2 0,3 0,1 0,2 2,2 2,0 3,-2 5,-5l10 -30zm11 -6c1,-1 1,-3 1,-5 0,-2 -1,-3 -2,-3 -2,0 -4,1 -4,3 0,2 0,4 1,5 0,1 2,1 3,1 0,0 1,-1 1,-1zm10 11c-2,0 -4,1 -6,1 -1,1 -1,2 -2,4 0,1 -1,3 -1,5 -7,19 -15,29 -23,29l-15 0c-4,0 -7,-2 -7,-7l54 -32zm28 -10c0,-1 0,-1 0,-1 0,-2 -1,-2 -2,-2 -2,0 -3,1 -4,3l-11 33c-1,2 -1,3 -1,4 0,2 0,3 1,3 2,0 4,-3 5,-7l12 -33zm47 0c1,-1 1,-1 1,-1 0,-2 -1,-2 -3,-2 -2,0 -3,1 -3,3l-12 33c0,2 -1,3 -1,4 0,2 1,3 2,3 2,0 3,-3 5,-7l11 -33z"/>
   <path id="1" class="fil1 str0" d="M149 111c-7,5 -13,7 -18,7l-10 0c-9,0 -14,-3 -14,-11 -2,1 -3,1 -5,1 -2,0 -4,-1 -5,-3 -1,2 -2,3 -4,5 -1,1 -3,3 -4,4 -4,3 -7,4 -10,4 -2,0 -4,-1 -5,-2l-10 29 -19 0 11 -32c-6,4 -10,5 -15,5 -1,0 -2,0 -4,-1 -3,-2 -4,-5 -4,-8 0,-3 0,-5 1,-7l11 -32c0,-1 0,-1 0,-2 0,-1 -1,-2 -3,-2 0,0 -1,0 -1,0l-18 52 -20 0 32 -94c1,0 1,0 1,-1 0,-1 -1,-2 -2,-3 -1,-1 -2,-1 -3,-1l-22 0c-2,0 -3,-2 -3,-5 0,-3 1,-5 3,-5l32 0c10,0 15,3 15,9 0,2 0,4 -1,6l-10 30c0,1 1,1 1,1 3,0 5,-2 6,-4l9 -27c1,-4 4,-8 7,-11 3,-3 7,-4 11,-4l15 0c1,0 2,1 2,2 0,1 -1,3 -3,5 -2,2 -3,3 -5,3l-2 0c-2,0 -3,0 -4,0 -1,1 -3,5 -5,11l-7 21c-2,4 -5,7 -11,9 3,3 4,5 4,8 0,0 0,1 0,2l-9 26c-1,2 -1,3 -1,4 0,2 1,3 2,3 2,0 4,-1 6,-2l14 -43 12 0 -2 5c4,-4 8,-6 14,-6 7,0 11,4 11,11 0,4 -2,12 -6,23 0,1 0,2 0,3 0,1 1,2 3,2 0,0 1,0 1,0 1,-2 2,-4 3,-6l4 -12c2,-6 5,-11 8,-16 4,-4 8,-6 13,-6l13 0c5,0 8,2 8,8 0,3 -2,9 -5,18 -2,7 -6,10 -12,10l-13 0 -3 9c-1,1 -1,3 -1,4 0,2 0,3 1,3l4 0c7,0 14,-2 21,-7 0,-4 1,-7 3,-11l4 -12c2,-6 5,-11 8,-16 4,-4 9,-6 13,-6l13 0c6,0 8,3 8,8 0,1 0,3 0,5l-19 9 3 -9c0,-1 0,-1 0,-1 0,-2 -1,-2 -2,-2 -2,0 -3,1 -4,3l-11 32c-1,1 -1,3 -1,4 0,2 1,3 2,3l3 0c8,0 15,-3 22,-8l17 -48 12 9c3,-5 8,-7 14,-7 5,0 8,2 9,7 4,-5 9,-7 16,-7 6,0 9,4 9,12 0,4 -1,8 -3,13l-6 19c-1,1 -1,2 -1,2 0,2 1,3 2,3 3,0 6,-2 10,-6 3,-3 6,-7 7,-10l3 6 0 0c-2,6 -6,12 -14,17 -7,6 -14,8 -20,8 -1,0 -2,0 -3,-1 -3,-2 -5,-5 -5,-8 0,-2 1,-5 1,-7l12 -33c0,-1 0,-2 0,-2 0,-1 0,-2 -2,-2 -2,0 -3,1 -4,4l-17 49 -18 0 17 -49c0,-1 0,-2 0,-2 0,-1 -1,-2 -2,-2 -2,0 -3,1 -4,4l-17 49 -19 0 2 -5m-91 -44c0,-1 0,-1 0,-1 0,-2 0,-2 -2,-2 -2,0 -3,1 -4,3l-11 33c-1,2 -1,3 -1,4 0,2 1,3 2,3 1,0 3,-3 5,-7l11 -33zm44 0c0,-1 1,-1 1,-1 0,-2 -1,-2 -3,-2 -2,0 -3,1 -3,3l-5 13 6 0 4 -13zm47 44c-6,3 -11,5 -15,5l-10 0c-7,0 -12,-2 -13,-7m237 0c-1,0 -13,7 -19,7 -1,0 -2,0 -4,-1 -3,-2 -4,-5 -4,-8 0,-3 1,-7 3,-12 2,-6 3,-9 3,-10 0,-1 -1,-2 -2,-2 -2,0 -3,2 -4,4l-10 29 -19 0 2 -6c-6,4 -11,6 -15,6l-10 0c-9,0 -14,-4 -14,-12 0,-4 1,-10 4,-16l4 -12c2,-6 5,-11 8,-16 4,-4 8,-6 13,-6l13 0c5,0 8,3 8,8 0,1 0,3 0,5l-20 9 3 -9c1,-1 1,-1 1,-1 0,-2 -1,-2 -3,-2 -2,0 -3,1 -3,3l-11 32c-1,1 -1,3 -1,4 0,2 0,3 1,3l4 0c8,0 15,-3 23,-9l19 -57 15 11 -2 7c3,-4 8,-7 14,-7 5,0 8,2 8,7 0,2 -1,4 -1,6 -1,3 -3,5 -4,7l-12 -2c0,0 1,-1 1,-2 1,-1 1,-1 1,-1 0,-1 0,-1 0,-1 0,-1 0,-2 -1,-2 -3,0 -7,3 -11,10 0,0 1,-1 3,-1 2,0 4,0 7,0 1,0 2,1 3,1 1,0 2,1 3,1 1,1 2,2 2,3 1,1 1,2 1,4 0,3 -1,8 -3,13 -1,2 -1,3 -1,4 0,2 1,3 2,3 2,0 4,-1 6,-2 0,-3 1,-5 2,-7l5 -15c2,-6 5,-11 8,-16 5,-5 9,-7 14,-7l5 0c3,-3 6,-5 10,-5 5,0 8,3 8,8 0,3 -1,6 -3,10 2,0 3,1 4,1 1,0 2,-1 3,-1l4 -11 12 0 -2 5c3,-4 8,-6 13,-6 8,0 12,4 12,11 0,4 -2,12 -6,23 0,1 0,2 0,3 0,1 1,2 2,2 1,0 3,0 4,-1 0,0 0,-1 0,-1l15 -45 1 0c1,-2 3,-5 4,-9 2,-3 4,-5 6,-7 1,-2 4,-3 6,-4 3,-2 6,-2 9,-2 3,-1 5,0 7,1 2,1 3,2 3,5 0,1 1,2 2,2 3,0 6,-2 10,-5 3,-4 6,-7 7,-11l4 6c-2,5 -6,10 -11,14 -5,5 -9,7 -13,7 -1,0 -1,0 -2,0 -1,0 -2,-1 -2,-2 0,0 -1,-1 -1,-1 0,-1 -1,-1 -1,-1 -2,-1 -4,0 -6,1 -2,2 -3,4 -4,8l-3 8c3,-2 5,-3 8,-3 2,0 5,1 6,3 2,3 2,5 2,9 0,4 -2,12 -5,23 -1,1 -1,2 -1,3 0,1 1,2 3,2 2,0 3,0 5,-1 0,-2 1,-3 1,-5l11 -32 17 0 -14 43c-1,1 -1,3 -1,5 0,1 0,2 1,2 2,0 4,-2 5,-6l17 -50 14 11 -12 35c0,1 0,2 0,2 0,2 0,3 2,3 2,0 5,-2 9,-6 4,-3 6,-7 8,-10l3 6 0 0c-2,6 -7,12 -14,17 -7,6 -14,8 -20,8 -3,0 -4,-2 -5,-5 -3,4 -6,5 -10,5 -10,0 -14,-4 -14,-12 0,0 0,0 0,0 -3,1 -5,2 -8,2 -2,0 -4,-1 -4,-3 -3,4 -7,7 -11,10 -5,2 -9,3 -12,3 -9,0 -13,-4 -14,-11 0,-1 -4,1 -6,1 -3,0 -4,-1 -5,-3 -1,2 -3,3 -4,5 -1,1 -3,3 -5,4 -3,3 -7,4 -10,4 -1,0 -3,-1 -5,-2l-10 29 -18 0 23 -66m-21 -5c-2,0 -3,-2 -3,-5 0,-2 0,-3 1,-3 -2,1 -3,2 -3,4l-12 34c0,1 0,2 0,3 0,1 0,2 2,2 2,0 3,-2 5,-5l10 -30zm11 -6c1,-1 1,-3 1,-5 0,-2 -1,-3 -2,-3 -2,0 -4,1 -4,3 0,2 0,4 1,5 0,1 2,1 3,1 0,0 1,-1 1,-1zm10 11c-2,0 -4,1 -6,1 -1,1 -1,2 -2,4 0,1 -1,3 -1,5 -7,19 -15,29 -23,29l-15 0c-4,0 -7,-2 -7,-7m82 -42c0,-1 0,-1 0,-1 0,-2 -1,-2 -2,-2 -2,0 -3,1 -4,3l-11 33c-1,2 -1,3 -1,4 0,2 0,3 1,3 2,0 4,-3 5,-7l12 -33zm47 0c1,-1 1,-1 1,-1 0,-2 -1,-2 -3,-2 -2,0 -3,1 -3,3l-12 33c0,2 -1,3 -1,4 0,2 1,3 2,3 2,0 3,-3 5,-7l11 -33z"/>
  </g>
 </g>
</svg>
