<?xml version="1.0" encoding="UTF-8"?>
<!DOCTYPE svg PUBLIC "-//W3C//DTD SVG 1.1//EN" "http://www.w3.org/Graphics/SVG/1.1/DTD/svg11.dtd">
<!-- Creator: CorelDRAW X8 -->
<svg xmlns="http://www.w3.org/2000/svg" xml:space="preserve" width="600px" height="150px" version="1.1" style="shape-rendering:geometricPrecision; text-rendering:geometricPrecision; image-rendering:optimizeQuality; fill-rule:evenodd; clip-rule:evenodd"
viewBox="0 0 600 150"
 xmlns:xlink="http://www.w3.org/1999/xlink">
 <defs>
  <style type="text/css">
   <![CDATA[
    .str0 {stroke:black;stroke-width:3.00001}
    .fil1 {fill:none;fill-rule:nonzero}
    .fil0 {fill:white;fill-rule:nonzero}
   ]]>
  </style>
 </defs>
 <g id="Слой_x0020_1">
  <metadata id="CorelCorpID_0Corel-Layer"/>
  <g>
   <path class="fil0" d="M84 23c-2,2 -3,4 -4,5 -1,2 -1,3 -2,4 -2,4 -3,7 -4,10l-7 0 0 -1c1,-4 3,-7 4,-9l-14 0c0,2 -1,4 -1,6 0,0 -1,1 -1,2 0,0 0,1 -1,3 -1,2 -2,5 -3,9 -1,4 -3,9 -5,16 0,0 1,0 1,0 0,0 0,0 1,0 0,0 0,0 1,0 0,0 1,0 1,0 2,0 4,0 5,0 2,0 4,0 6,1 5,3 8,8 8,14 0,2 0,3 -1,5 0,2 0,3 -1,5l-2 7c-3,10 -9,17 -17,21 -6,4 -13,6 -20,6l-18 0 28 -89c1,-2 0,-3 0,-4 -1,-1 -2,-2 -3,-2l-20 0c-2,0 -3,-1 -3,-4 0,-2 1,-3 1,-4 1,-1 1,-1 2,-1l69 0zm-33 68c1,-1 1,-3 1,-5 0,-5 -3,-9 -8,-12l-12 38c0,1 0,2 0,2 0,1 0,2 1,2 1,0 2,-1 4,-2 6,-5 10,-10 12,-17l2 -6zm44 -11c0,-1 0,-1 0,-1 0,-1 0,-2 -2,-2 -1,0 -2,1 -3,3l-4 13 5 0 4 -13zm8 39c0,0 0,1 0,1 -7,4 -12,7 -16,7l-9 0c-8,0 -12,-4 -12,-12 0,-4 1,-9 3,-15l4 -12c1,-5 4,-10 7,-14 3,-4 7,-7 11,-7l12 0c4,0 7,3 7,8 0,3 -1,9 -4,18 -2,6 -6,9 -11,9l-12 0 -3 8c0,2 0,3 0,5 0,1 0,2 1,2l3 0c8,0 15,-3 21,-9 4,-4 7,-7 8,-11l3 6 0 0c-1,3 -3,7 -6,10 0,0 1,1 1,1 1,2 2,2 3,1 1,0 2,-1 2,-2 1,-1 1,-2 2,-3 0,-1 0,-2 1,-3 0,-1 1,-2 1,-4 0,-1 1,-3 2,-5l2 -7c2,-7 6,-13 11,-18 5,-6 10,-9 16,-9 8,0 12,4 12,12 0,4 -1,9 -3,15l-5 15 -1 1c0,1 0,2 0,3 0,1 1,2 2,2 1,0 4,-1 4,-2l-57 9zm57 -9c0,-2 1,-4 2,-7l12 -38 16 0 -5 17c2,-2 5,-3 7,-3 2,0 4,2 5,4 2,2 2,4 2,8 0,2 0,3 0,5 0,1 0,3 -1,5 0,1 0,2 0,2 0,2 1,3 2,3 3,0 5,-1 7,-3l13 -39 12 10 -10 33c-1,1 -1,2 -1,3 0,1 1,2 2,2 1,0 2,0 3,-1 0,-3 1,-7 3,-11l3 -12c2,-5 5,-10 8,-14 3,-4 7,-7 11,-7l11 0c5,0 8,3 8,8 0,3 -2,9 -4,18 -2,6 -6,9 -12,9l-11 0 -3 8c0,2 -1,3 -1,5 0,1 1,2 2,2l3 0c7,0 14,-3 21,-9 4,-4 6,-7 8,-11l3 6 0 0c-2,6 -7,12 -13,17 -7,4 -12,7 -17,7l-8 0c-6,0 -10,-2 -12,-6 -5,4 -10,6 -15,6 -2,0 -4,-1 -5,-3 -1,-2 -2,-5 -2,-8l0 -1c-3,1 -5,2 -8,2 -2,0 -4,-1 -4,-3 -3,4 -6,7 -10,10 -4,2 -7,3 -10,3 -6,0 -10,-2 -11,-7 -3,2 -6,4 -9,5 -2,1 -5,2 -8,2 -2,0 -3,-1 -5,-3 -1,-2 -1,-5 -1,-8 0,-2 0,-3 0,-5l2 -5 3 -9 5 -16c1,-2 1,-3 1,-5 0,-1 -1,-2 -1,-2 -2,0 -3,2 -5,6l-9 29 0 0c-2,5 -4,10 -8,13 -4,3 -8,5 -12,5 -3,0 -5,-1 -7,-3 -2,-1 -3,-3 -3,-5l56 -9zm27 -19c0,0 0,0 0,0 0,-2 0,-2 -2,-2 -1,0 -2,1 -3,3l-6 19c-1,2 -1,3 -1,4 0,2 0,3 1,3 2,0 3,-3 5,-7l6 -20zm68 -11c0,-1 0,-1 0,-1 0,-1 -1,-2 -2,-2 -2,0 -3,1 -3,3l-4 13 5 0 4 -13zm154 10c-1,0 -2,0 -4,1 0,0 0,2 -1,3 0,2 -1,3 -1,5 -6,19 -13,28 -21,28l-12 0c-5,0 -7,-3 -7,-8 -3,3 -6,5 -9,6 -2,1 -5,2 -7,2 -2,0 -4,-1 -5,-3 -2,-2 -3,-5 -3,-8 0,-2 1,-3 1,-5l10 -31c1,-2 1,-4 1,-5 0,-1 0,-2 -1,-2 -2,0 -3,2 -5,6l-15 47 -11 -10 11 -36c1,-2 1,-4 1,-5 0,-1 0,-2 -1,-2 -2,0 -3,2 -4,6l-10 30c-2,5 -4,10 -8,13 -4,3 -8,5 -12,5 -3,0 -5,-1 -7,-3 -3,-2 -4,-5 -4,-8l0 0 7 -7c0,2 0,4 1,5 1,2 2,2 3,1 1,0 2,-1 2,-2 1,-1 1,-2 2,-3 0,-1 0,-2 1,-3 0,-1 0,-2 1,-4 0,-1 1,-3 1,-5l5 -14c3,-10 9,-16 19,-20 2,-1 4,-1 6,-1 5,0 8,1 10,4 3,-3 6,-4 10,-4 8,0 12,4 12,11 0,4 -1,10 -3,16l-4 11 -2 6c0,1 0,2 0,3 0,1 1,2 2,2 1,0 4,-1 6,-3l45 -19zm-17 -5c-1,0 -2,-2 -2,-5 0,-1 0,-2 0,-3 -1,1 -2,2 -2,4l-10 32c-1,1 -1,2 -1,3 0,2 1,2 2,2 1,0 3,-1 4,-5l9 -28zm10 -6c0,-2 1,-3 1,-5 0,-2 -1,-3 -2,-3 -2,0 -2,1 -2,4 0,1 0,2 0,2 1,1 2,2 2,2 1,0 1,0 1,0zm-38 30c1,-2 1,-4 2,-5l4 -14c2,-6 4,-11 8,-15 3,-5 7,-8 11,-8l5 0c2,-2 5,-4 9,-4 4,0 7,3 7,8 0,3 -1,6 -2,9 1,0 2,1 3,1 1,0 1,-1 2,-1 1,-2 3,-4 4,-6 4,-4 7,-7 11,-7l12 0c5,0 7,3 7,8 0,2 0,3 0,5l-17 8 2 -8c0,-1 1,-1 1,-1 0,-1 -1,-2 -2,-2 -2,0 -3,1 -4,3l-9 30c-1,2 -1,3 -1,5 0,1 0,2 1,2l3 0c7,0 14,-2 20,-8l14 -45 11 8c3,-4 7,-7 13,-7 4,0 6,3 7,8 4,-5 9,-8 14,-8 5,0 8,4 8,12 0,4 -1,8 -2,12l-6 18c0,2 0,3 0,3 0,1 0,2 2,2 2,0 4,-2 8,-5 0,-1 0,-2 1,-4l12 -38 16 0 -5 17c2,-2 5,-3 7,-3 2,0 4,2 5,4 2,2 2,4 2,8 0,2 0,3 0,5 0,1 0,3 -1,5 0,1 0,2 0,2 0,2 1,3 2,3 3,0 5,-1 7,-3l13 -39 12 10 -10 33c-1,1 -1,2 -1,3 0,1 1,2 2,2 2,0 5,-2 8,-5 3,-3 6,-7 7,-10l3 6 0 0c-2,6 -6,11 -13,16 -6,5 -12,8 -17,8 -2,0 -4,-1 -5,-3 -1,-2 -2,-5 -2,-8l0 -1c-3,1 -5,2 -8,2 -2,0 -4,-1 -4,-3 -3,4 -6,7 -10,10 -4,2 -7,3 -10,3 -7,0 -11,-3 -12,-9 -1,0 -2,1 -2,1 -7,5 -12,8 -18,8 -1,0 -2,-1 -3,-1 -2,-2 -4,-5 -4,-8 0,-2 1,-4 1,-7l10 -31c0,-1 1,-2 1,-2 0,-1 -1,-2 -2,-2 -2,0 -3,2 -4,4l-15 47 -16 0 15 -47c0,-1 0,-2 0,-2 0,-1 0,-2 -1,-2 -2,0 -3,2 -4,4l-15 47 -17 0 2 -5c-5,3 -9,5 -13,5l-9 0c-8,0 -12,-4 -12,-12 0,-4 1,-9 3,-15l3 -10 -45 19zm172 -18c0,0 0,0 0,0 0,-2 0,-2 -2,-2 -1,0 -2,1 -3,3l-6 19c-1,2 -1,3 -1,4 0,2 0,3 1,3 2,0 3,-3 5,-7l6 -20z"/>
   <path id="1" class="fil1 str0" d="M84 23c-2,2 -3,4 -4,5 -1,2 -1,3 -2,4 -2,4 -3,7 -4,10l-7 0 0 -1c1,-4 3,-7 4,-9l-14 0c0,2 -1,4 -1,6 0,0 -1,1 -1,2 0,0 0,1 -1,3 -1,2 -2,5 -3,9 -1,4 -3,9 -5,16 0,0 1,0 1,0 0,0 0,0 1,0 0,0 0,0 1,0 0,0 1,0 1,0 2,0 4,0 5,0 2,0 4,0 6,1 5,3 8,8 8,14 0,2 0,3 -1,5 0,2 0,3 -1,5l-2 7c-3,10 -9,17 -17,21 -6,4 -13,6 -20,6l-18 0 28 -89c1,-2 0,-3 0,-4 -1,-1 -2,-2 -3,-2l-20 0c-2,0 -3,-1 -3,-4 0,-2 1,-3 1,-4 1,-1 1,-1 2,-1l69 0zm-33 68c1,-1 1,-3 1,-5 0,-5 -3,-9 -8,-12l-12 38c0,1 0,2 0,2 0,1 0,2 1,2 1,0 2,-1 4,-2 6,-5 10,-10 12,-17l2 -6zm44 -11c0,-1 0,-1 0,-1 0,-1 0,-2 -2,-2 -1,0 -2,1 -3,3l-4 13 5 0 4 -13zm8 39c0,0 0,1 0,1 -7,4 -12,7 -16,7l-9 0c-8,0 -12,-4 -12,-12 0,-4 1,-9 3,-15l4 -12c1,-5 4,-10 7,-14 3,-4 7,-7 11,-7l12 0c4,0 7,3 7,8 0,3 -1,9 -4,18 -2,6 -6,9 -11,9l-12 0 -3 8c0,2 0,3 0,5 0,1 0,2 1,2l3 0c8,0 15,-3 21,-9 4,-4 7,-7 8,-11l3 6 0 0c-1,3 -3,7 -6,10 0,0 1,1 1,1 1,2 2,2 3,1 1,0 2,-1 2,-2 1,-1 1,-2 2,-3 0,-1 0,-2 1,-3 0,-1 1,-2 1,-4 0,-1 1,-3 2,-5l2 -7c2,-7 6,-13 11,-18 5,-6 10,-9 16,-9 8,0 12,4 12,12 0,4 -1,9 -3,15l-5 15 -1 1c0,1 0,2 0,3 0,1 1,2 2,2 1,0 4,-1 4,-2m0 0c0,-2 1,-4 2,-7l12 -38 16 0 -5 17c2,-2 5,-3 7,-3 2,0 4,2 5,4 2,2 2,4 2,8 0,2 0,3 0,5 0,1 0,3 -1,5 0,1 0,2 0,2 0,2 1,3 2,3 3,0 5,-1 7,-3l13 -39 12 10 -10 33c-1,1 -1,2 -1,3 0,1 1,2 2,2 1,0 2,0 3,-1 0,-3 1,-7 3,-11l3 -12c2,-5 5,-10 8,-14 3,-4 7,-7 11,-7l11 0c5,0 8,3 8,8 0,3 -2,9 -4,18 -2,6 -6,9 -12,9l-11 0 -3 8c0,2 -1,3 -1,5 0,1 1,2 2,2l3 0c7,0 14,-3 21,-9 4,-4 6,-7 8,-11l3 6 0 0c-2,6 -7,12 -13,17 -7,4 -12,7 -17,7l-8 0c-6,0 -10,-2 -12,-6 -5,4 -10,6 -15,6 -2,0 -4,-1 -5,-3 -1,-2 -2,-5 -2,-8l0 -1c-3,1 -5,2 -8,2 -2,0 -4,-1 -4,-3 -3,4 -6,7 -10,10 -4,2 -7,3 -10,3 -6,0 -10,-2 -11,-7 -3,2 -6,4 -9,5 -2,1 -5,2 -8,2 -2,0 -3,-1 -5,-3 -1,-2 -1,-5 -1,-8 0,-2 0,-3 0,-5l2 -5 3 -9 5 -16c1,-2 1,-3 1,-5 0,-1 -1,-2 -1,-2 -2,0 -3,2 -5,6l-9 29 0 0c-2,5 -4,10 -8,13 -4,3 -8,5 -12,5 -3,0 -5,-1 -7,-3 -2,-1 -3,-3 -3,-5m83 -28c0,0 0,0 0,0 0,-2 0,-2 -2,-2 -1,0 -2,1 -3,3l-6 19c-1,2 -1,3 -1,4 0,2 0,3 1,3 2,0 3,-3 5,-7l6 -20zm68 -11c0,-1 0,-1 0,-1 0,-1 -1,-2 -2,-2 -2,0 -3,1 -3,3l-4 13 5 0 4 -13zm154 10c-1,0 -2,0 -4,1 0,0 0,2 -1,3 0,2 -1,3 -1,5 -6,19 -13,28 -21,28l-12 0c-5,0 -7,-3 -7,-8 -3,3 -6,5 -9,6 -2,1 -5,2 -7,2 -2,0 -4,-1 -5,-3 -2,-2 -3,-5 -3,-8 0,-2 1,-3 1,-5l10 -31c1,-2 1,-4 1,-5 0,-1 0,-2 -1,-2 -2,0 -3,2 -5,6l-15 47 -11 -10 11 -36c1,-2 1,-4 1,-5 0,-1 0,-2 -1,-2 -2,0 -3,2 -4,6l-10 30c-2,5 -4,10 -8,13 -4,3 -8,5 -12,5 -3,0 -5,-1 -7,-3 -3,-2 -4,-5 -4,-8l0 0 7 -7c0,2 0,4 1,5 1,2 2,2 3,1 1,0 2,-1 2,-2 1,-1 1,-2 2,-3 0,-1 0,-2 1,-3 0,-1 0,-2 1,-4 0,-1 1,-3 1,-5l5 -14c3,-10 9,-16 19,-20 2,-1 4,-1 6,-1 5,0 8,1 10,4 3,-3 6,-4 10,-4 8,0 12,4 12,11 0,4 -1,10 -3,16l-4 11 -2 6c0,1 0,2 0,3 0,1 1,2 2,2 1,0 4,-1 6,-3m28 -24c-1,0 -2,-2 -2,-5 0,-1 0,-2 0,-3 -1,1 -2,2 -2,4l-10 32c-1,1 -1,2 -1,3 0,2 1,2 2,2 1,0 3,-1 4,-5l9 -28zm10 -6c0,-2 1,-3 1,-5 0,-2 -1,-3 -2,-3 -2,0 -2,1 -2,4 0,1 0,2 0,2 1,1 2,2 2,2 1,0 1,0 1,0zm-38 30c1,-2 1,-4 2,-5l4 -14c2,-6 4,-11 8,-15 3,-5 7,-8 11,-8l5 0c2,-2 5,-4 9,-4 4,0 7,3 7,8 0,3 -1,6 -2,9 1,0 2,1 3,1 1,0 1,-1 2,-1 1,-2 3,-4 4,-6 4,-4 7,-7 11,-7l12 0c5,0 7,3 7,8 0,2 0,3 0,5l-17 8 2 -8c0,-1 1,-1 1,-1 0,-1 -1,-2 -2,-2 -2,0 -3,1 -4,3l-9 30c-1,2 -1,3 -1,5 0,1 0,2 1,2l3 0c7,0 14,-2 20,-8l14 -45 11 8c3,-4 7,-7 13,-7 4,0 6,3 7,8 4,-5 9,-8 14,-8 5,0 8,4 8,12 0,4 -1,8 -2,12l-6 18c0,2 0,3 0,3 0,1 0,2 2,2 2,0 4,-2 8,-5 0,-1 0,-2 1,-4l12 -38 16 0 -5 17c2,-2 5,-3 7,-3 2,0 4,2 5,4 2,2 2,4 2,8 0,2 0,3 0,5 0,1 0,3 -1,5 0,1 0,2 0,2 0,2 1,3 2,3 3,0 5,-1 7,-3l13 -39 12 10 -10 33c-1,1 -1,2 -1,3 0,1 1,2 2,2 2,0 5,-2 8,-5 3,-3 6,-7 7,-10l3 6 0 0c-2,6 -6,11 -13,16 -6,5 -12,8 -17,8 -2,0 -4,-1 -5,-3 -1,-2 -2,-5 -2,-8l0 -1c-3,1 -5,2 -8,2 -2,0 -4,-1 -4,-3 -3,4 -6,7 -10,10 -4,2 -7,3 -10,3 -7,0 -11,-3 -12,-9 -1,0 -2,1 -2,1 -7,5 -12,8 -18,8 -1,0 -2,-1 -3,-1 -2,-2 -4,-5 -4,-8 0,-2 1,-4 1,-7l10 -31c0,-1 1,-2 1,-2 0,-1 -1,-2 -2,-2 -2,0 -3,2 -4,4l-15 47 -16 0 15 -47c0,-1 0,-2 0,-2 0,-1 0,-2 -1,-2 -2,0 -3,2 -4,4l-15 47 -17 0 2 -5c-5,3 -9,5 -13,5l-9 0c-8,0 -12,-4 -12,-12 0,-4 1,-9 3,-15l3 -10m127 1c0,0 0,0 0,0 0,-2 0,-2 -2,-2 -1,0 -2,1 -3,3l-6 19c-1,2 -1,3 -1,4 0,2 0,3 1,3 2,0 3,-3 5,-7l6 -20z"/>
  </g>
 </g>
</svg>
