<?xml version="1.0" encoding="UTF-8"?>
<!DOCTYPE svg PUBLIC "-//W3C//DTD SVG 1.1//EN" "http://www.w3.org/Graphics/SVG/1.1/DTD/svg11.dtd">
<!-- Creator: CorelDRAW X8 -->
<svg xmlns="http://www.w3.org/2000/svg" xml:space="preserve" width="650px" height="130px" version="1.1" style="shape-rendering:geometricPrecision; text-rendering:geometricPrecision; image-rendering:optimizeQuality; fill-rule:evenodd; clip-rule:evenodd"
viewBox="0 0 650 130"
 xmlns:xlink="http://www.w3.org/1999/xlink">
 <defs>
  <style type="text/css">
   <![CDATA[
    .str0 {stroke:black;stroke-width:1.99961}
    .fil1 {fill:none}
    .fil0 {fill:white}
   ]]>
  </style>
 </defs>
 <g id="Слой_x0020_1">
  <metadata id="CorelCorpID_0Corel-Layer"/>
  <g>
   <path class="fil0" d="M5 0l640 0c3,0 6,4 6,9l0 111c0,5 -3,9 -6,9l-640 0c-3,0 -6,-4 -6,-9l0 -111c0,-5 3,-9 6,-9zm255 121l-252 0c-1,0 -3,-2 -3,-4l0 -92 29 0c1,0 2,0 2,1 1,1 1,2 1,2 0,1 0,1 0,1l-22 74 14 0 19 -63c1,-3 2,-6 5,-9 3,-4 5,-6 7,-6 1,0 1,1 1,2 0,1 0,1 0,2l-19 63c-1,1 -1,2 -1,3 0,3 1,5 2,6 1,2 3,2 4,2 5,0 9,-2 14,-6 0,0 0,0 0,0 0,4 2,6 6,6l10 0c6,0 8,-6 12,-22 2,-4 3,-8 3,-9 2,0 5,1 6,0l-3 9c-1,5 -2,9 -2,13 0,6 3,9 10,9l6 0c4,0 8,-2 13,-6 0,0 1,0 1,0 0,2 1,3 2,4 2,1 4,2 6,2 3,0 6,-1 9,-4 3,-2 6,-6 7,-10l7 -26c1,-3 3,-5 4,-5 0,0 1,1 1,2 0,2 0,3 -1,4l-9 31 9 8 12 -40c1,-3 2,-5 4,-5 0,0 1,1 1,2 0,2 -1,3 -1,4l-8 26c0,2 -1,3 -1,5 0,2 1,4 2,6 1,1 3,2 4,2 2,0 4,0 6,-1 2,-1 4,-3 7,-5 0,4 2,6 5,6l10 0c6,0 12,-7 16,-23 1,-1 1,-3 1,-4 1,-1 1,-2 1,-3 2,0 3,0 4,-1l-9 31 13 0 12 -39c0,-2 1,-3 3,-3 0,0 1,1 1,2 0,0 0,1 0,1l-12 39 13 0 12 -39c0,-2 1,-3 3,-3 0,0 1,1 1,2 0,0 0,1 0,1l-8 26c-1,2 -1,4 -1,6 0,3 1,5 3,6 1,1 2,1 3,1 3,0 8,-1 12,-5l-8 23 1 0zm12 0l7 -19c1,1 2,1 3,1 2,0 5,-1 7,-3 1,-1 2,-2 3,-3 1,-1 2,-3 3,-4 1,2 2,2 4,2 1,0 2,0 3,0 0,5 4,8 10,8l7 0c2,0 6,-1 9,-3l-1 3 13 0 12 -39c1,-2 2,-3 3,-3 1,0 1,1 1,2 0,0 0,1 0,1l-12 39 13 0 12 -39c1,-2 2,-3 3,-3 1,0 1,1 1,2 0,0 0,1 0,1l-8 26c-1,2 -1,4 -1,6 0,3 1,5 3,6 1,1 2,1 3,1 4,0 9,-2 14,-6 0,0 1,-1 1,-1 1,5 4,7 10,7 2,0 5,0 8,-2 3,-2 6,-5 8,-8 0,2 1,2 3,2 5,0 10,-4 16,-14 0,-1 0,-1 1,-2 0,0 0,0 0,-1l-3 -4c-1,3 -2,6 -5,9 -2,2 -4,3 -6,3 -1,0 -2,-1 -2,-2 0,-1 0,-2 1,-2 0,-2 0,-3 0,-4 0,-2 1,-3 1,-5 0,-2 -1,-5 -2,-6 -1,-2 -3,-3 -5,-3 -1,0 -3,1 -5,2l4 -14 -13 0 -9 32c-1,1 -1,2 -1,3 -3,3 -5,4 -7,4 -1,0 -1,-1 -1,-2 0,0 0,-1 0,-2l5 -15c1,-3 2,-7 2,-10 0,-6 -3,-10 -7,-10 -4,0 -8,2 -11,6 -1,-4 -3,-6 -6,-6 -4,0 -7,2 -10,6l-8 -7 -12 38c-4,4 -9,6 -14,6l-3 0c-1,0 -1,0 -1,-2 0,-1 0,-2 1,-3l2 -7 9 0c4,0 5,-3 7,-8 2,-7 4,-12 4,-15 0,-4 -1,-6 -5,-6l-9 0c-3,0 -6,2 -9,5 -2,4 -4,8 -6,12l-3 10c0,2 -1,3 -1,5 0,0 -1,0 -1,0 -1,0 -2,-1 -2,-2 0,-1 0,-2 0,-2 3,-9 4,-15 4,-19 0,-5 -2,-8 -8,-8 -4,0 -7,2 -9,5l1 -4 -8 0 -10 31c-2,3 -4,4 -6,4 -1,0 -1,-1 -1,-2 0,0 0,-1 0,-2l5 -15c1,-3 1,-7 1,-10 0,-6 -2,-10 -6,-10 -4,0 -8,2 -11,6 -1,-4 -3,-6 -6,-6 -4,0 -8,2 -10,6l-8 -7 -4 14c-1,0 -2,0 -2,0 -1,0 -2,0 -3,-1 1,-2 2,-5 2,-7 0,-4 -2,-7 -5,-7 -3,0 -6,2 -8,4l-3 0c-3,0 -6,2 -9,6 -3,3 -5,7 -6,12l-4 12c0,2 -1,3 -1,4 -2,2 -4,3 -5,3 -1,0 -2,-1 -2,-2 0,0 1,-1 1,-2l1 -5 3 -9c2,-6 3,-10 3,-13 0,-7 -4,-10 -10,-10 -3,0 -5,1 -8,3 -1,-2 -4,-3 -8,-3 -1,0 -3,1 -5,2 -7,2 -12,8 -14,16l-4 12c-1,1 -1,3 -1,4 -1,1 -1,2 -1,3 -1,1 -1,1 -1,2 0,1 -1,2 -1,3 -1,1 -1,2 -2,2 -1,0 -2,0 -3,-1 0,0 0,-1 0,-1 2,-3 2,-5 3,-8l0 -3 -5 -4c0,4 0,8 -4,10 -5,6 -9,8 -14,8l-3 0c-1,0 -1,0 -1,-2 0,-1 0,-2 1,-3l7 -26c1,-1 1,-2 3,-2 1,0 1,0 1,1 0,1 0,1 0,1l0 8 12 -8c0,-1 0,-2 0,-3 0,-5 -2,-7 -6,-7l-9 0c-3,0 -6,2 -9,5 -1,2 -2,4 -3,5 -1,1 -1,1 -2,1 -1,0 -1,0 -2,-1 1,-2 1,-5 1,-7 0,-4 -2,-7 -5,-7 -3,0 -5,2 -7,4l-4 0c-3,0 -6,2 -9,6 -3,3 -5,7 -6,12l-4 12c0,2 0,3 -1,4 -2,3 -4,4 -6,4 0,0 -1,-1 -1,-1 0,-1 0,-1 1,-1l18 -61c0,-1 0,-2 0,-3 0,-3 -1,-5 -3,-7 -2,-2 -4,-2 -7,-2 -4,0 -8,1 -12,5 -1,-3 -5,-5 -11,-5l-36 0 0 -5c0,-3 2,-5 3,-5l634 0c1,0 3,2 3,5l0 105c0,2 -2,4 -3,4l-169 0 6 -19c1,1 2,1 3,1 3,0 5,-1 7,-3 1,-1 2,-2 4,-3 1,-1 1,-3 2,-4 1,2 2,2 4,2 1,0 2,0 4,-1 0,1 0,1 0,2 0,5 2,7 5,7l10 0c6,0 12,-7 16,-23 1,-1 1,-3 1,-4 1,-1 1,-2 1,-3 2,0 3,0 4,-1l-9 31 13 0 12 -39c0,-2 1,-3 3,-3 0,0 1,1 1,2 0,0 0,1 0,1l-12 39 13 0 12 -39c0,-2 1,-3 3,-3 0,0 1,1 1,2 0,0 0,1 0,1l-8 26c-1,2 -1,4 -1,6 0,3 1,5 3,6 1,1 2,1 3,1 4,0 9,-2 14,-6 0,4 2,6 5,6l10 0c6,0 12,-7 16,-23 1,-1 1,-3 2,-4 0,-1 0,-2 0,-3 7,-1 11,-4 14,-8l-3 -4c-2,3 -5,4 -6,4 -1,0 -2,0 -3,-1 1,-2 2,-5 2,-7 0,-4 -2,-7 -5,-7 -3,0 -6,2 -7,4l-4 0c-3,0 -6,2 -9,6 -3,3 -5,7 -6,12l-4 12c0,1 0,2 -1,3 -2,2 -4,4 -6,4 -1,0 -1,-1 -1,-2 0,0 0,-1 0,-2l5 -15c1,-3 1,-7 1,-10 0,-6 -2,-10 -6,-10 -4,0 -8,2 -11,6 -1,-4 -3,-6 -6,-6 -4,0 -8,2 -10,6l-9 -7 -3 14c-1,0 -2,0 -2,0 -1,0 -2,0 -3,-1 1,-2 2,-5 2,-7 0,-4 -2,-7 -6,-7 -2,0 -5,2 -7,4l-3 0c-3,0 -6,2 -9,6 -3,3 -5,7 -6,12l-4 12c0,1 0,1 0,1 -1,1 -2,1 -3,1 -1,0 -2,-1 -2,-2 0,-1 0,-2 0,-2 3,-9 4,-15 4,-19 0,-5 -2,-8 -8,-8 -4,0 -7,2 -9,5l4 -12 -9 0 -2 9c-1,0 -2,-1 -2,-1 -1,-1 -2,-1 -3,-1 -2,0 -4,1 -6,2 -2,2 -4,4 -5,6 -2,2 -3,5 -4,8 -1,3 -2,6 -3,11 -1,1 -1,3 -1,5 0,2 -1,4 -1,6 0,2 1,5 2,7 1,2 3,3 5,3 1,0 1,0 2,0 0,0 1,0 2,-1l-6 19 -189 0 1 0zm-188 -52c-1,-1 -1,-2 -1,-5 0,-1 0,-1 0,-2 -1,1 -2,2 -2,3l-8 27c0,1 -1,1 -1,2 0,2 1,2 2,2 1,0 2,-1 3,-4l7 -23zm8 -4c1,-2 1,-4 1,-6 0,-1 -1,-3 -2,-3 -1,0 -3,2 -3,4 0,1 1,3 1,3 0,1 1,2 2,2 0,0 1,0 1,0zm115 4c-1,-1 -2,-2 -2,-5 0,-1 0,-1 1,-2 -1,1 -2,2 -2,3l-9 27c0,1 0,1 0,2 0,2 1,2 1,2 2,0 3,-1 4,-4l7 -23zm8 -6c1,-1 2,-3 2,-4 0,-2 -3,-3 -3,-3 -1,1 -2,2 -2,4 0,1 0,3 0,4 0,1 2,1 3,1 0,0 0,-1 0,-2zm79 1c1,0 1,0 1,-1 0,-1 -1,-1 -2,-1 -1,0 -2,1 -3,2l-8 26c0,2 0,3 0,4 0,1 0,2 1,2 1,0 2,-2 4,-6l7 -26zm31 0c0,0 0,0 0,-1 0,-1 0,-1 -1,-1 -1,0 -2,1 -3,2l-3 11 4 0 3 -11zm82 10c0,0 0,-1 0,-1 0,-1 -1,-1 -2,-1 -1,0 -2,0 -2,2l-5 16c-1,2 -1,3 -1,4 0,1 1,2 1,2 2,0 3,-2 4,-6l5 -16zm88 -10c0,0 0,0 0,-1 0,-1 -1,-1 -2,-1 -1,0 -2,1 -3,2l-7 26c-1,2 -1,3 -1,4 0,1 0,2 1,2 1,0 2,-2 4,-6l8 -26zm-30 26c0,2 0,3 0,4 0,1 0,2 1,2 0,0 1,-1 2,-2 0,-1 1,-1 1,-2 0,0 0,-1 1,-2l7 -26c1,-1 1,-2 -1,-2 -1,0 -2,0 -2,1 -1,1 -1,1 -1,1l-8 26zm61 -21c-1,-1 -2,-2 -2,-5 0,-1 0,-1 1,-2 -1,1 -2,2 -3,3l-8 27c0,1 0,1 0,2 0,2 1,2 1,2 2,0 3,-1 4,-4l7 -23zm8 -5c0,-1 1,-3 1,-5 0,-1 -1,-3 -2,-3 -1,0 -3,3 -3,4 0,1 1,4 1,5 0,0 1,0 2,0 0,0 1,-1 1,-1zm77 5c-1,-1 -2,-2 -2,-5 0,-1 0,-1 1,-2 -1,1 -2,2 -2,3l-8 27c-1,1 -1,1 -1,2 0,2 1,2 1,2 2,0 3,-1 4,-4l7 -23zm9 -6c0,-1 1,-2 1,-4 0,-1 -2,-3 -2,-3 -2,0 -3,3 -3,4 0,1 0,3 1,3 0,1 0,2 1,2 0,0 1,-1 2,-2z"/>
   <path id="1" class="fil1 str0" d="M5 0l640 0c3,0 6,4 6,9l0 111c0,5 -3,9 -6,9l-640 0c-3,0 -6,-4 -6,-9l0 -111c0,-5 3,-9 6,-9zm255 121l-252 0c-1,0 -3,-2 -3,-4l0 -92 29 0c1,0 2,0 2,1 1,1 1,2 1,2 0,1 0,1 0,1l-22 74 14 0 19 -63c1,-3 2,-6 5,-9 3,-4 5,-6 7,-6 1,0 1,1 1,2 0,1 0,1 0,2l-19 63c-1,1 -1,2 -1,3 0,3 1,5 2,6 1,2 3,2 4,2 5,0 9,-2 14,-6 0,0 0,0 0,0 0,4 2,6 6,6l10 0c6,0 8,-6 12,-22 2,-4 3,-8 3,-9 2,0 5,1 6,0l-3 9c-1,5 -2,9 -2,13 0,6 3,9 10,9l6 0c4,0 8,-2 13,-6 0,0 1,0 1,0 0,2 1,3 2,4 2,1 4,2 6,2 3,0 6,-1 9,-4 3,-2 6,-6 7,-10l7 -26c1,-3 3,-5 4,-5 0,0 1,1 1,2 0,2 0,3 -1,4l-9 31 9 8 12 -40c1,-3 2,-5 4,-5 0,0 1,1 1,2 0,2 -1,3 -1,4l-8 26c0,2 -1,3 -1,5 0,2 1,4 2,6 1,1 3,2 4,2 2,0 4,0 6,-1 2,-1 4,-3 7,-5 0,4 2,6 5,6l10 0c6,0 12,-7 16,-23 1,-1 1,-3 1,-4 1,-1 1,-2 1,-3 2,0 3,0 4,-1l-9 31 13 0 12 -39c0,-2 1,-3 3,-3 0,0 1,1 1,2 0,0 0,1 0,1l-12 39 13 0 12 -39c0,-2 1,-3 3,-3 0,0 1,1 1,2 0,0 0,1 0,1l-8 26c-1,2 -1,4 -1,6 0,3 1,5 3,6 1,1 2,1 3,1 3,0 8,-1 12,-5l-8 23m13 0l7 -19c1,1 2,1 3,1 2,0 5,-1 7,-3 1,-1 2,-2 3,-3 1,-1 2,-3 3,-4 1,2 2,2 4,2 1,0 2,0 3,0 0,5 4,8 10,8l7 0c2,0 6,-1 9,-3l-1 3 13 0 12 -39c1,-2 2,-3 3,-3 1,0 1,1 1,2 0,0 0,1 0,1l-12 39 13 0 12 -39c1,-2 2,-3 3,-3 1,0 1,1 1,2 0,0 0,1 0,1l-8 26c-1,2 -1,4 -1,6 0,3 1,5 3,6 1,1 2,1 3,1 4,0 9,-2 14,-6 0,0 1,-1 1,-1 1,5 4,7 10,7 2,0 5,0 8,-2 3,-2 6,-5 8,-8 0,2 1,2 3,2 5,0 10,-4 16,-14 0,-1 0,-1 1,-2 0,0 0,0 0,-1l-3 -4c-1,3 -2,6 -5,9 -2,2 -4,3 -6,3 -1,0 -2,-1 -2,-2 0,-1 0,-2 1,-2 0,-2 0,-3 0,-4 0,-2 1,-3 1,-5 0,-2 -1,-5 -2,-6 -1,-2 -3,-3 -5,-3 -1,0 -3,1 -5,2l4 -14 -13 0 -9 32c-1,1 -1,2 -1,3 -3,3 -5,4 -7,4 -1,0 -1,-1 -1,-2 0,0 0,-1 0,-2l5 -15c1,-3 2,-7 2,-10 0,-6 -3,-10 -7,-10 -4,0 -8,2 -11,6 -1,-4 -3,-6 -6,-6 -4,0 -7,2 -10,6l-8 -7 -12 38c-4,4 -9,6 -14,6l-3 0c-1,0 -1,0 -1,-2 0,-1 0,-2 1,-3l2 -7 9 0c4,0 5,-3 7,-8 2,-7 4,-12 4,-15 0,-4 -1,-6 -5,-6l-9 0c-3,0 -6,2 -9,5 -2,4 -4,8 -6,12l-3 10c0,2 -1,3 -1,5 0,0 -1,0 -1,0 -1,0 -2,-1 -2,-2 0,-1 0,-2 0,-2 3,-9 4,-15 4,-19 0,-5 -2,-8 -8,-8 -4,0 -7,2 -9,5l1 -4 -8 0 -10 31c-2,3 -4,4 -6,4 -1,0 -1,-1 -1,-2 0,0 0,-1 0,-2l5 -15c1,-3 1,-7 1,-10 0,-6 -2,-10 -6,-10 -4,0 -8,2 -11,6 -1,-4 -3,-6 -6,-6 -4,0 -8,2 -10,6l-8 -7 -4 14c-1,0 -2,0 -2,0 -1,0 -2,0 -3,-1 1,-2 2,-5 2,-7 0,-4 -2,-7 -5,-7 -3,0 -6,2 -8,4l-3 0c-3,0 -6,2 -9,6 -3,3 -5,7 -6,12l-4 12c0,2 -1,3 -1,4 -2,2 -4,3 -5,3 -1,0 -2,-1 -2,-2 0,0 1,-1 1,-2l1 -5 3 -9c2,-6 3,-10 3,-13 0,-7 -4,-10 -10,-10 -3,0 -5,1 -8,3 -1,-2 -4,-3 -8,-3 -1,0 -3,1 -5,2 -7,2 -12,8 -14,16l-4 12c-1,1 -1,3 -1,4 -1,1 -1,2 -1,3 -1,1 -1,1 -1,2 0,1 -1,2 -1,3 -1,1 -1,2 -2,2 -1,0 -2,0 -3,-1 0,0 0,-1 0,-1 2,-3 2,-5 3,-8l0 -3 -5 -4c0,4 0,8 -4,10 -5,6 -9,8 -14,8l-3 0c-1,0 -1,0 -1,-2 0,-1 0,-2 1,-3l7 -26c1,-1 1,-2 3,-2 1,0 1,0 1,1 0,1 0,1 0,1l0 8 12 -8c0,-1 0,-2 0,-3 0,-5 -2,-7 -6,-7l-9 0c-3,0 -6,2 -9,5 -1,2 -2,4 -3,5 -1,1 -1,1 -2,1 -1,0 -1,0 -2,-1 1,-2 1,-5 1,-7 0,-4 -2,-7 -5,-7 -3,0 -5,2 -7,4l-4 0c-3,0 -6,2 -9,6 -3,3 -5,7 -6,12l-4 12c0,2 0,3 -1,4 -2,3 -4,4 -6,4 0,0 -1,-1 -1,-1 0,-1 0,-1 1,-1l18 -61c0,-1 0,-2 0,-3 0,-3 -1,-5 -3,-7 -2,-2 -4,-2 -7,-2 -4,0 -8,1 -12,5 -1,-3 -5,-5 -11,-5l-36 0 0 -5c0,-3 2,-5 3,-5l634 0c1,0 3,2 3,5l0 105c0,2 -2,4 -3,4l-169 0 6 -19c1,1 2,1 3,1 3,0 5,-1 7,-3 1,-1 2,-2 4,-3 1,-1 1,-3 2,-4 1,2 2,2 4,2 1,0 2,0 4,-1 0,1 0,1 0,2 0,5 2,7 5,7l10 0c6,0 12,-7 16,-23 1,-1 1,-3 1,-4 1,-1 1,-2 1,-3 2,0 3,0 4,-1l-9 31 13 0 12 -39c0,-2 1,-3 3,-3 0,0 1,1 1,2 0,0 0,1 0,1l-12 39 13 0 12 -39c0,-2 1,-3 3,-3 0,0 1,1 1,2 0,0 0,1 0,1l-8 26c-1,2 -1,4 -1,6 0,3 1,5 3,6 1,1 2,1 3,1 4,0 9,-2 14,-6 0,4 2,6 5,6l10 0c6,0 12,-7 16,-23 1,-1 1,-3 2,-4 0,-1 0,-2 0,-3 7,-1 11,-4 14,-8l-3 -4c-2,3 -5,4 -6,4 -1,0 -2,0 -3,-1 1,-2 2,-5 2,-7 0,-4 -2,-7 -5,-7 -3,0 -6,2 -7,4l-4 0c-3,0 -6,2 -9,6 -3,3 -5,7 -6,12l-4 12c0,1 0,2 -1,3 -2,2 -4,4 -6,4 -1,0 -1,-1 -1,-2 0,0 0,-1 0,-2l5 -15c1,-3 1,-7 1,-10 0,-6 -2,-10 -6,-10 -4,0 -8,2 -11,6 -1,-4 -3,-6 -6,-6 -4,0 -8,2 -10,6l-9 -7 -3 14c-1,0 -2,0 -2,0 -1,0 -2,0 -3,-1 1,-2 2,-5 2,-7 0,-4 -2,-7 -6,-7 -2,0 -5,2 -7,4l-3 0c-3,0 -6,2 -9,6 -3,3 -5,7 -6,12l-4 12c0,1 0,1 0,1 -1,1 -2,1 -3,1 -1,0 -2,-1 -2,-2 0,-1 0,-2 0,-2 3,-9 4,-15 4,-19 0,-5 -2,-8 -8,-8 -4,0 -7,2 -9,5l4 -12 -9 0 -2 9c-1,0 -2,-1 -2,-1 -1,-1 -2,-1 -3,-1 -2,0 -4,1 -6,2 -2,2 -4,4 -5,6 -2,2 -3,5 -4,8 -1,3 -2,6 -3,11 -1,1 -1,3 -1,5 0,2 -1,4 -1,6 0,2 1,5 2,7 1,2 3,3 5,3 1,0 1,0 2,0 0,0 1,0 2,-1l-6 19 -189 0m-187 -52c-1,-1 -1,-2 -1,-5 0,-1 0,-1 0,-2 -1,1 -2,2 -2,3l-8 27c0,1 -1,1 -1,2 0,2 1,2 2,2 1,0 2,-1 3,-4l7 -23zm8 -4c1,-2 1,-4 1,-6 0,-1 -1,-3 -2,-3 -1,0 -3,2 -3,4 0,1 1,3 1,3 0,1 1,2 2,2 0,0 1,0 1,0zm115 4c-1,-1 -2,-2 -2,-5 0,-1 0,-1 1,-2 -1,1 -2,2 -2,3l-9 27c0,1 0,1 0,2 0,2 1,2 1,2 2,0 3,-1 4,-4l7 -23zm8 -6c1,-1 2,-3 2,-4 0,-2 -3,-3 -3,-3 -1,1 -2,2 -2,4 0,1 0,3 0,4 0,1 2,1 3,1 0,0 0,-1 0,-2zm79 1c1,0 1,0 1,-1 0,-1 -1,-1 -2,-1 -1,0 -2,1 -3,2l-8 26c0,2 0,3 0,4 0,1 0,2 1,2 1,0 2,-2 4,-6l7 -26zm31 0c0,0 0,0 0,-1 0,-1 0,-1 -1,-1 -1,0 -2,1 -3,2l-3 11 4 0 3 -11zm82 10c0,0 0,-1 0,-1 0,-1 -1,-1 -2,-1 -1,0 -2,0 -2,2l-5 16c-1,2 -1,3 -1,4 0,1 1,2 1,2 2,0 3,-2 4,-6l5 -16zm88 -10c0,0 0,0 0,-1 0,-1 -1,-1 -2,-1 -1,0 -2,1 -3,2l-7 26c-1,2 -1,3 -1,4 0,1 0,2 1,2 1,0 2,-2 4,-6l8 -26zm-30 26c0,2 0,3 0,4 0,1 0,2 1,2 0,0 1,-1 2,-2 0,-1 1,-1 1,-2 0,0 0,-1 1,-2l7 -26c1,-1 1,-2 -1,-2 -1,0 -2,0 -2,1 -1,1 -1,1 -1,1l-8 26zm61 -21c-1,-1 -2,-2 -2,-5 0,-1 0,-1 1,-2 -1,1 -2,2 -3,3l-8 27c0,1 0,1 0,2 0,2 1,2 1,2 2,0 3,-1 4,-4l7 -23zm8 -5c0,-1 1,-3 1,-5 0,-1 -1,-3 -2,-3 -1,0 -3,3 -3,4 0,1 1,4 1,5 0,0 1,0 2,0 0,0 1,-1 1,-1zm77 5c-1,-1 -2,-2 -2,-5 0,-1 0,-1 1,-2 -1,1 -2,2 -2,3l-8 27c-1,1 -1,1 -1,2 0,2 1,2 1,2 2,0 3,-1 4,-4l7 -23zm9 -6c0,-1 1,-2 1,-4 0,-1 -2,-3 -2,-3 -2,0 -3,3 -3,4 0,1 0,3 1,3 0,1 0,2 1,2 0,0 1,-1 2,-2z"/>
  </g>
 </g>
</svg>
