<?xml version="1.0" encoding="UTF-8"?>
<!DOCTYPE svg PUBLIC "-//W3C//DTD SVG 1.1//EN" "http://www.w3.org/Graphics/SVG/1.1/DTD/svg11.dtd">
<!-- Creator: CorelDRAW X8 -->
<svg xmlns="http://www.w3.org/2000/svg" xml:space="preserve" width="400px" height="150px" version="1.1" style="shape-rendering:geometricPrecision; text-rendering:geometricPrecision; image-rendering:optimizeQuality; fill-rule:evenodd; clip-rule:evenodd"
viewBox="0 0 400 150"
 xmlns:xlink="http://www.w3.org/1999/xlink">
 <defs>
  <style type="text/css">
   <![CDATA[
    .str0 {stroke:black;stroke-width:1.99961}
    .fil0 {fill:white}
   ]]>
  </style>
 </defs>
 <g id="Слой_x0020_1">
  <metadata id="CorelCorpID_0Corel-Layer"/>
  <g id="_1268307213168">
   <path class="fil0 str0" d="M292 101l0 0 0 0zm-237 -73l2 0c2,0 4,0 5,1 7,3 8,8 6,15 -3,9 -6,17 -13,23 -4,2 -6,3 -7,4 3,1 5,4 6,7 2,6 -1,14 -3,21 0,2 -4,11 1,10 3,-1 2,-6 5,-13 1,-5 3,-10 5,-15 3,-4 5,-8 9,-11 2,-1 5,-2 8,-2 3,1 4,3 6,5 0,-1 0,-2 1,-3l8 0c-2,10 -5,19 -8,29 -1,5 -5,14 4,8 2,-2 3,-3 3,-5 3,-8 9,-32 11,-36 2,0 9,7 11,8l-5 17c-2,8 -9,23 1,16 2,-1 2,-2 2,-4 5,-17 11,-37 16,-54 1,-3 2,-7 3,-10l3 -11 15 0 -7 21c-1,3 -6,20 -6,22 3,-2 4,-4 8,-5 4,-1 7,1 8,4 1,6 -4,15 -8,16l0 1c4,1 1,14 0,17 -1,2 -1,3 0,5 5,0 5,-3 6,-8 2,-6 4,-14 6,-20 1,-2 4,-6 5,-8 2,-2 5,-5 8,-5 3,0 4,1 6,-1 2,-1 2,-2 4,-3 1,0 4,0 5,1 6,2 2,12 2,14 2,1 3,1 5,0 0,-2 2,-5 2,-7 1,-2 2,-5 2,-7 2,1 3,3 5,4 1,1 2,2 4,3 2,-1 1,-2 5,-4 2,-1 4,-2 7,-1 8,1 6,15 4,20 -1,6 -5,16 -5,21 4,1 7,-1 8,-5 2,-8 22,-73 22,-75l14 0 -6 21c-1,3 -7,20 -7,22 3,-2 4,-4 8,-5 15,-2 6,19 0,20l0 1c3,1 2,9 1,11 -1,6 -3,7 -1,11 6,0 5,-3 6,-8 2,-6 4,-14 7,-20 8,-17 15,-11 18,-14 2,-1 2,-2 4,-3 3,-1 7,0 9,4 1,5 -1,8 -2,11 3,2 4,1 6,0 1,-1 2,-2 3,-2 1,-1 1,-1 1,-3 0,-5 1,-11 3,-14 1,-2 2,-4 3,-5 4,-3 13,-3 7,10 -5,13 -5,5 0,17 3,8 4,13 2,21 -2,4 -5,6 -7,10 3,0 9,-4 9,-6 1,-2 2,-4 2,-6l22 -73 14 0 -10 32c0,3 -3,9 -3,11 3,-2 4,-4 8,-5 5,-1 7,1 8,4 1,4 -1,8 -2,10 -2,3 -2,4 -4,5 -1,1 -1,1 -2,1l0 1c1,1 1,1 2,2 0,1 0,2 0,3 0,10 -4,12 -2,17 3,0 5,-1 6,-3 1,-1 8,-25 9,-29l4 -11c1,0 1,1 2,2l6 4c1,1 1,2 2,2l-7 26c-1,2 -3,6 -2,8 3,2 7,-2 9,-4 3,-4 2,-4 5,-8 1,1 3,4 2,5 -2,9 -13,18 -21,21 -3,0 -5,0 -7,-1 -2,-1 -2,-4 -3,-6 -4,3 -12,10 -17,6 -6,-4 -3,-13 -1,-19 1,-1 4,-10 -1,-8 -1,1 -3,7 -3,9 -1,3 -5,16 -6,19l-14 0c0,-1 1,-3 1,-4 -6,3 -19,8 -25,-1 -2,-3 -2,-5 -2,-9 0,0 0,0 0,1 0,0 0,0 0,0l-10 9c-2,1 -3,2 -4,3 -3,1 -16,2 -18,0 -2,-1 -3,-2 -3,-4 -2,0 -11,9 -17,3 -5,-4 -1,-14 0,-19 1,-1 2,-3 2,-5 0,-3 -2,-3 -3,-1 -2,1 -7,19 -8,23 0,1 0,3 -1,4l-14 0c0,-1 1,-4 1,-4 -3,1 -8,5 -13,4 -5,-1 -6,-8 -5,-12 2,-9 6,-19 8,-27 1,-1 3,-7 0,-7 -2,1 -3,4 -4,6l-10 33c0,2 -1,6 -2,7l-14 0c1,-1 1,-3 2,-4l6 -21c1,-3 2,-7 2,-9 0,0 -4,1 -4,1 -1,1 -1,2 -1,3 -2,8 -6,23 -13,28 -2,1 -4,2 -7,2 -5,0 -15,2 -15,-5 -2,0 -2,1 -4,2 -3,2 -8,4 -12,3 -9,-5 0,-19 0,-26 1,-3 -1,-3 -3,-1 -1,1 -5,15 -6,18 0,3 -1,6 -2,9l-14 0c0,-1 1,-4 1,-4 -4,2 -12,7 -16,2 -1,-1 -2,-3 -2,-5 -3,2 -5,4 -10,6 -4,1 -8,3 -9,-3 -2,2 -4,4 -7,4l-3 0c0,0 0,0 0,0 -4,0 -8,-2 -8,-6 -6,4 -17,12 -20,-1 -1,-6 4,-19 6,-26 2,-7 -3,-14 -6,-15 0,4 -13,43 -14,48l-15 0c1,-1 1,-4 2,-6l5 -18c3,-9 18,-55 17,-58 0,-5 -6,-4 -11,-4 -1,-1 -1,-2 -1,-4 0,-2 0,-3 1,-4 4,-1 10,0 15,0 8,0 7,1 11,4 3,-2 4,-3 8,-4 1,0 2,0 3,0zm246 81c0,-3 0,-4 0,-8 0,0 3,-6 4,-7 1,-1 3,-5 4,-7 3,2 2,21 -6,22 -2,1 0,0 -2,0zm-9 -8l2 -10c1,-2 0,-2 3,-2 2,-1 3,-1 5,-2 -3,4 -7,12 -10,14zm-19 13c-4,0 -1,-8 0,-11l6 -18c1,-3 1,-6 3,-8 0,15 5,-3 -2,20 -1,3 -2,6 -3,9 0,3 -2,8 -4,8zm-111 0c-3,0 0,-8 1,-11l5 -18c1,-3 2,-6 4,-8 0,15 4,-3 -2,20 -1,4 -4,17 -8,17zm-97 -2c0,-6 6,-21 8,-28 1,-4 1,-7 4,-7 3,0 0,6 -1,11 -1,3 -6,21 -7,23 -2,3 -4,3 -4,1zm281 -28c1,-4 8,-10 8,-6 0,3 -5,5 -8,6zm-102 0c1,-4 8,-10 8,-6 0,3 -5,5 -8,6zm-111 0c1,-4 9,-10 9,-6 0,3 -5,5 -9,6zm156 -9c0,-4 4,-4 4,-2 0,4 -1,3 -1,6 -1,-1 -1,-1 -2,-2 0,0 -1,-2 -1,-2zm-110 0c0,-4 3,-4 3,-2 0,4 0,3 0,6 -2,-1 -3,-2 -3,-4zm170 -4l0 0zm-102 0l0 0zm-110 0l0 0zm177 -5c-1,-2 0,-6 2,-5 1,1 -1,4 -2,5zm-278 3c1,-4 2,-6 2,-9l6 -18c2,-8 10,-8 10,-1 0,2 -2,6 -2,9 -1,3 -2,6 -3,8 -3,4 -10,10 -13,11z"/>
   <path class="fil0 str0" d="M113 58c7,0 12,-8 10,-13 -2,-6 -12,-3 -15,3 -2,5 0,10 5,10z"/>
   <path class="fil0 str0" d="M384 58c7,0 12,-8 10,-13 -2,-6 -12,-3 -15,3 -1,5 0,10 5,10z"/>
   <polygon class="fil0 str0" points="104,66 104,65 104,66 "/>
   <polygon class="fil0 str0" points="376,66 376,65 375,66 "/>
   <polygon class="fil0 str0" points="391,96 391,95 390,95 "/>
  </g>
 </g>
</svg>
