<?xml version="1.0" encoding="UTF-8"?>
<!DOCTYPE svg PUBLIC "-//W3C//DTD SVG 1.1//EN" "http://www.w3.org/Graphics/SVG/1.1/DTD/svg11.dtd">
<!-- Creator: CorelDRAW X8 -->
<svg xmlns="http://www.w3.org/2000/svg" xml:space="preserve" width="400px" height="150px" version="1.1" style="shape-rendering:geometricPrecision; text-rendering:geometricPrecision; image-rendering:optimizeQuality; fill-rule:evenodd; clip-rule:evenodd"
viewBox="0 0 400 150"
 xmlns:xlink="http://www.w3.org/1999/xlink">
 <defs>
  <style type="text/css">
   <![CDATA[
    .str0 {stroke:black;stroke-width:1.99961}
    .fil1 {fill:none;fill-rule:nonzero}
    .fil0 {fill:white;fill-rule:nonzero}
   ]]>
  </style>
 </defs>
 <g id="Слой_x0020_1">
  <metadata id="CorelCorpID_0Corel-Layer"/>
  <g>
   <path class="fil0" d="M44 39c0,-1 0,-2 0,-3 0,-2 -1,-4 -3,-4 -3,0 -5,2 -6,7l-14 45c8,-4 12,-8 13,-13l10 -32zm3 28c-2,8 -6,13 -12,17 -4,3 -9,4 -15,4l-5 17 -13 0 21 -68c0,0 0,-1 0,-1 0,-1 0,-2 -1,-2 0,-1 -1,-2 -2,-2l-6 0c-1,0 -2,-1 -2,-3 0,-2 1,-3 3,-3l11 0c5,0 9,1 10,3 2,-3 6,-4 10,-4 3,0 5,1 7,2 3,2 4,4 4,7 0,1 0,2 -1,3l-9 30zm18 2c0,-1 0,-1 0,-1 0,-1 0,-1 -1,-1 -1,0 -2,0 -2,2l-8 23c0,1 0,2 0,4 0,1 0,1 1,1 1,0 2,-1 3,-4l7 -24zm19 17c-1,5 -4,9 -9,13 -4,4 -9,6 -13,6 -1,0 -2,-2 -3,-4 -2,2 -4,4 -6,4 -6,0 -9,-3 -9,-9 0,-3 1,-7 2,-12l1 -4c2,-5 4,-10 7,-14 3,-4 7,-7 10,-7 3,0 5,2 7,4l0 -2 8 0 -4 12c0,2 -1,4 -2,7 -1,3 -2,6 -3,10 0,0 0,1 0,2 0,1 0,1 1,1 2,0 4,-1 6,-4 3,-2 4,-5 5,-7l2 4zm105 14c-4,3 -8,5 -12,5 -1,0 -2,-1 -3,-3 -1,-1 -1,-3 -1,-5l0 -2c-2,2 -4,2 -6,2 -2,0 -3,-1 -3,-2 -2,3 -4,5 -7,7 -3,2 -6,3 -8,3 -5,0 -8,-3 -8,-7 -1,0 -1,1 -2,1 -4,4 -8,6 -12,6 -2,0 -3,-1 -4,-3 -1,-1 -1,-3 -1,-5 0,-2 0,-3 0,-4l3 -10 0 -1c0,0 0,-1 -1,-1 -1,0 -2,1 -2,3l-7 21 -12 0 1 -4c-1,0 -2,1 -3,1 -1,0 -2,-1 -2,-1l-3 10c-2,4 -4,8 -7,10 -3,3 -6,4 -9,4 -3,0 -4,-1 -6,-2 -2,-2 -2,-4 -2,-6 0,-2 0,-3 0,-5 2,-6 5,-10 10,-11l6 -4 3 -7c-1,0 -1,0 -2,0 0,0 0,0 -1,0l-2 0 2 -8c1,0 1,0 1,0 0,0 0,1 -1,1 0,0 1,0 1,0 0,0 1,0 2,0 0,0 1,-1 2,-2 0,-1 1,-3 1,-4l3 -8c0,-2 0,-2 -1,-2 -1,0 -4,-1 -5,0 0,0 -4,5 -2,6l1 1 -1 4 -4 2c-4,1 -5,-3 -4,-7 1,-2 1,-3 2,-4 0,-1 1,-2 2,-4 2,-4 5,-6 9,-6l8 0c3,0 5,2 5,5 0,1 0,2 0,2 0,1 0,1 0,2 0,1 0,1 0,2 0,1 0,2 -1,3l0 0c0,3 -1,5 -2,6 0,0 -1,1 -1,2 -2,2 -3,3 -4,4 1,1 2,2 2,3 1,1 1,2 1,4 0,1 0,1 1,1 1,0 3,0 4,-2l11 -34 9 7 -3 11c1,-1 3,-2 4,-2l5 -16 9 7 -7 23c0,1 0,2 0,2 0,1 0,1 0,2 -1,0 -1,0 -1,0 0,0 0,0 0,1 0,1 1,1 2,1 1,0 3,-1 5,-3 0,-1 0,-2 1,-3l9 -29 12 0 -4 13c1,-2 3,-3 5,-3 1,0 3,1 4,3 1,1 1,3 1,6 0,2 0,3 0,4 0,1 0,2 -1,4 0,0 0,1 0,2 0,1 1,2 2,2 2,0 3,-1 5,-3l9 -29 9 7 -8 26c0,1 0,1 0,2 0,1 0,1 1,1 1,0 2,0 2,0l1 7zm-103 14c1,-4 3,-8 4,-12 -3,4 -9,5 -10,12 0,0 0,0 0,0 0,1 -1,5 0,5 0,0 6,-4 6,-5zm74 -36c0,-1 0,-1 0,-1 0,-1 0,-2 -1,-2 -1,0 -2,1 -2,3l-5 15c0,1 -1,2 -1,3 0,1 1,2 1,2 2,0 3,-2 4,-5l4 -15zm50 -9c0,-1 0,-1 0,-1 0,-1 -1,-1 -2,-1 -1,0 -2,0 -2,2l-3 10 4 0 3 -10zm-22 24c1,-3 2,-6 3,-9l2 -9c2,-4 3,-8 6,-11 2,-3 5,-5 8,-5l8 0c4,0 5,2 5,6 0,3 -1,7 -3,14 -1,4 -4,7 -8,7l-8 0 -2 6c0,1 -1,2 -1,3 0,2 1,2 1,2l3 0c5,0 10,-2 15,-7 3,-2 5,-5 6,-8l2 4 0 0c-2,5 -5,9 -10,13 -4,4 -8,6 -12,6l-6 0c-4,0 -7,-2 -8,-5l-1 -7zm166 5c0,1 0,1 0,1 -5,4 -9,6 -13,6 -1,0 -2,-1 -2,-1 -2,-2 -3,-4 -3,-6 0,-2 0,-4 1,-5l7 -24c0,-1 0,-1 0,-1 0,-1 0,-2 -1,-2 -1,0 -2,1 -3,3l-11 36 -12 0 11 -36c0,-1 0,-1 0,-1 0,-1 0,-2 -1,-2 -1,0 -2,1 -2,3l-11 36 -12 0 8 -29c0,0 -2,1 -3,1 0,1 -1,2 -1,3 0,1 -1,2 -1,4 -4,14 -9,21 -15,21l-9 0c-3,0 -5,-3 -5,-7 0,-1 0,-1 0,-2 -1,1 -3,1 -4,1 -2,0 -3,-1 -3,-2 -1,1 -2,2 -3,4 0,1 -1,2 -3,3 -2,1 -4,2 -6,2 -1,0 -2,0 -3,-1l-6 21 -12 0 6 -21c-1,1 -1,1 -2,1 -1,0 -1,0 -2,0 -2,0 -3,-1 -4,-2 -1,-2 -2,-5 -2,-7 0,-2 0,-4 1,-6 0,-1 0,-3 1,-4 1,-4 2,-8 3,-10 1,-3 2,-5 3,-7 1,-3 3,-4 5,-6 1,-1 3,-2 6,-2 1,0 1,1 2,1 0,0 1,1 1,1l3 -8 8 0 -4 11c3,-3 5,-5 9,-5 5,0 7,3 7,8 0,3 -1,9 -3,17 -1,0 -1,1 -1,2 0,1 1,2 2,2 1,0 2,0 3,-1l3 -12c2,-4 3,-8 6,-11 3,-4 5,-6 8,-6l4 0c1,-2 3,-3 6,-3 3,0 5,2 5,6 0,2 0,4 -1,7 0,0 1,0 2,0 0,0 1,0 1,0l4 -12 8 6c2,-4 5,-5 9,-5 3,0 5,2 6,5 2,-3 6,-5 10,-5 4,0 6,3 6,9 0,3 -1,6 -2,9l-4 14c0,1 0,1 0,2 0,1 0,1 1,1 1,0 3,-1 5,-3l-1 8zm-86 -29c0,-1 0,-1 0,-1 0,-1 0,-1 -1,-1 -1,0 -2,0 -2,2l-8 24c0,1 0,2 0,3 0,1 0,2 1,2 1,0 2,-2 3,-5l7 -24zm-26 24c-1,1 -1,2 -1,3 0,1 0,2 1,2 0,0 1,-1 2,-2 0,-1 0,-1 1,-2 0,0 0,-1 0,-1l7 -24c1,-2 1,-2 -1,-2 -1,0 -1,0 -2,1 0,0 0,0 0,1l-7 24zm55 -20c-1,-1 -1,-2 -1,-4 0,-1 0,-2 0,-2 -1,0 -2,1 -2,3l-7 24c-1,1 -1,2 -1,2 0,1 1,2 1,2 2,0 3,-1 4,-4l6 -21zm7 -5c1,-1 1,-2 1,-3 0,-2 -1,-3 -1,-3 -1,0 -2,1 -2,3 0,1 0,1 1,2 0,1 0,1 1,1 0,0 0,0 0,0zm72 5c-1,-1 -2,-2 -2,-4 0,-1 0,-2 0,-2 -1,0 -1,1 -2,3l-7 24c0,1 0,2 0,2 0,1 0,2 1,2 1,0 2,-1 3,-4l7 -21zm7 -5c0,-1 0,-2 0,-3 0,-2 0,-3 -1,-3 -1,0 -2,1 -2,3 0,1 1,1 1,2 0,1 1,1 1,1 0,0 1,0 1,0zm-28 22c1,-1 1,-2 1,-3l4 -11c1,-4 3,-8 5,-11 3,-4 6,-6 9,-6l3 0c2,-2 4,-3 6,-3 4,0 5,2 5,6 0,2 0,4 -1,7 1,0 1,0 2,0 2,0 4,-1 6,-3l3 3c-3,5 -7,7 -13,8 0,1 0,2 -1,3 0,1 0,2 -1,4 -4,14 -9,21 -14,21l-10 0c-3,0 -5,-3 -5,-7l1 -8z"/>
   <path id="1" class="fil1 str0" d="M44 39c0,-1 0,-2 0,-3 0,-2 -1,-4 -3,-4 -3,0 -5,2 -6,7l-14 45c8,-4 12,-8 13,-13l10 -32zm3 28c-2,8 -6,13 -12,17 -4,3 -9,4 -15,4l-5 17 -13 0 21 -68c0,0 0,-1 0,-1 0,-1 0,-2 -1,-2 0,-1 -1,-2 -2,-2l-6 0c-1,0 -2,-1 -2,-3 0,-2 1,-3 3,-3l11 0c5,0 9,1 10,3 2,-3 6,-4 10,-4 3,0 5,1 7,2 3,2 4,4 4,7 0,1 0,2 -1,3l-9 30zm18 2c0,-1 0,-1 0,-1 0,-1 0,-1 -1,-1 -1,0 -2,0 -2,2l-8 23c0,1 0,2 0,4 0,1 0,1 1,1 1,0 2,-1 3,-4l7 -24zm19 17c-1,5 -4,9 -9,13 -4,4 -9,6 -13,6 -1,0 -2,-2 -3,-4 -2,2 -4,4 -6,4 -6,0 -9,-3 -9,-9 0,-3 1,-7 2,-12l1 -4c2,-5 4,-10 7,-14 3,-4 7,-7 10,-7 3,0 5,2 7,4l0 -2 8 0 -4 12c0,2 -1,4 -2,7 -1,3 -2,6 -3,10 0,0 0,1 0,2 0,1 0,1 1,1 2,0 4,-1 6,-4 3,-2 4,-5 5,-7l2 4zm105 14c-4,3 -8,5 -12,5 -1,0 -2,-1 -3,-3 -1,-1 -1,-3 -1,-5l0 -2c-2,2 -4,2 -6,2 -2,0 -3,-1 -3,-2 -2,3 -4,5 -7,7 -3,2 -6,3 -8,3 -5,0 -8,-3 -8,-7 -1,0 -1,1 -2,1 -4,4 -8,6 -12,6 -2,0 -3,-1 -4,-3 -1,-1 -1,-3 -1,-5 0,-2 0,-3 0,-4l3 -10 0 -1c0,0 0,-1 -1,-1 -1,0 -2,1 -2,3l-7 21 -12 0 1 -4c-1,0 -2,1 -3,1 -1,0 -2,-1 -2,-1l-3 10c-2,4 -4,8 -7,10 -3,3 -6,4 -9,4 -3,0 -4,-1 -6,-2 -2,-2 -2,-4 -2,-6 0,-2 0,-3 0,-5 2,-6 5,-10 10,-11l6 -4 3 -7c-1,0 -1,0 -2,0 0,0 0,0 -1,0l-2 0 2 -8c1,0 1,0 1,0 0,0 0,1 -1,1 0,0 1,0 1,0 0,0 1,0 2,0 0,0 1,-1 2,-2 0,-1 1,-3 1,-4l3 -8c0,-2 0,-2 -1,-2 -1,0 -4,-1 -5,0 0,0 -4,5 -2,6l1 1 -1 4 -4 2c-4,1 -5,-3 -4,-7 1,-2 1,-3 2,-4 0,-1 1,-2 2,-4 2,-4 5,-6 9,-6l8 0c3,0 5,2 5,5 0,1 0,2 0,2 0,1 0,1 0,2 0,1 0,1 0,2 0,1 0,2 -1,3l0 0c0,3 -1,5 -2,6 0,0 -1,1 -1,2 -2,2 -3,3 -4,4 1,1 2,2 2,3 1,1 1,2 1,4 0,1 0,1 1,1 1,0 3,0 4,-2l11 -34 9 7 -3 11c1,-1 3,-2 4,-2l5 -16 9 7 -7 23c0,1 0,2 0,2 0,1 0,1 0,2 -1,0 -1,0 -1,0 0,0 0,0 0,1 0,1 1,1 2,1 1,0 3,-1 5,-3 0,-1 0,-2 1,-3l9 -29 12 0 -4 13c1,-2 3,-3 5,-3 1,0 3,1 4,3 1,1 1,3 1,6 0,2 0,3 0,4 0,1 0,2 -1,4 0,0 0,1 0,2 0,1 1,2 2,2 2,0 3,-1 5,-3l9 -29 9 7 -8 26c0,1 0,1 0,2 0,1 0,1 1,1 1,0 2,0 2,0m-102 21c1,-4 3,-8 4,-12 -3,4 -9,5 -10,12 0,0 0,0 0,0 0,1 -1,5 0,5 0,0 6,-4 6,-5zm74 -36c0,-1 0,-1 0,-1 0,-1 0,-2 -1,-2 -1,0 -2,1 -2,3l-5 15c0,1 -1,2 -1,3 0,1 1,2 1,2 2,0 3,-2 4,-5l4 -15zm50 -9c0,-1 0,-1 0,-1 0,-1 -1,-1 -2,-1 -1,0 -2,0 -2,2l-3 10 4 0 3 -10zm-22 24c1,-3 2,-6 3,-9l2 -9c2,-4 3,-8 6,-11 2,-3 5,-5 8,-5l8 0c4,0 5,2 5,6 0,3 -1,7 -3,14 -1,4 -4,7 -8,7l-8 0 -2 6c0,1 -1,2 -1,3 0,2 1,2 1,2l3 0c5,0 10,-2 15,-7 3,-2 5,-5 6,-8l2 4 0 0c-2,5 -5,9 -10,13 -4,4 -8,6 -12,6l-6 0c-4,0 -7,-2 -8,-5m165 -2c0,1 0,1 0,1 -5,4 -9,6 -13,6 -1,0 -2,-1 -2,-1 -2,-2 -3,-4 -3,-6 0,-2 0,-4 1,-5l7 -24c0,-1 0,-1 0,-1 0,-1 0,-2 -1,-2 -1,0 -2,1 -3,3l-11 36 -12 0 11 -36c0,-1 0,-1 0,-1 0,-1 0,-2 -1,-2 -1,0 -2,1 -2,3l-11 36 -12 0 8 -29c0,0 -2,1 -3,1 0,1 -1,2 -1,3 0,1 -1,2 -1,4 -4,14 -9,21 -15,21l-9 0c-3,0 -5,-3 -5,-7 0,-1 0,-1 0,-2 -1,1 -3,1 -4,1 -2,0 -3,-1 -3,-2 -1,1 -2,2 -3,4 0,1 -1,2 -3,3 -2,1 -4,2 -6,2 -1,0 -2,0 -3,-1l-6 21 -12 0 6 -21c-1,1 -1,1 -2,1 -1,0 -1,0 -2,0 -2,0 -3,-1 -4,-2 -1,-2 -2,-5 -2,-7 0,-2 0,-4 1,-6 0,-1 0,-3 1,-4 1,-4 2,-8 3,-10 1,-3 2,-5 3,-7 1,-3 3,-4 5,-6 1,-1 3,-2 6,-2 1,0 1,1 2,1 0,0 1,1 1,1l3 -8 8 0 -4 11c3,-3 5,-5 9,-5 5,0 7,3 7,8 0,3 -1,9 -3,17 -1,0 -1,1 -1,2 0,1 1,2 2,2 1,0 2,0 3,-1l3 -12c2,-4 3,-8 6,-11 3,-4 5,-6 8,-6l4 0c1,-2 3,-3 6,-3 3,0 5,2 5,6 0,2 0,4 -1,7 0,0 1,0 2,0 0,0 1,0 1,0l4 -12 8 6c2,-4 5,-5 9,-5 3,0 5,2 6,5 2,-3 6,-5 10,-5 4,0 6,3 6,9 0,3 -1,6 -2,9l-4 14c0,1 0,1 0,2 0,1 0,1 1,1 1,0 3,-1 5,-3m-87 -21c0,-1 0,-1 0,-1 0,-1 0,-1 -1,-1 -1,0 -2,0 -2,2l-8 24c0,1 0,2 0,3 0,1 0,2 1,2 1,0 2,-2 3,-5l7 -24zm-26 24c-1,1 -1,2 -1,3 0,1 0,2 1,2 0,0 1,-1 2,-2 0,-1 0,-1 1,-2 0,0 0,-1 0,-1l7 -24c1,-2 1,-2 -1,-2 -1,0 -1,0 -2,1 0,0 0,0 0,1l-7 24zm55 -20c-1,-1 -1,-2 -1,-4 0,-1 0,-2 0,-2 -1,0 -2,1 -2,3l-7 24c-1,1 -1,2 -1,2 0,1 1,2 1,2 2,0 3,-1 4,-4l6 -21zm7 -5c1,-1 1,-2 1,-3 0,-2 -1,-3 -1,-3 -1,0 -2,1 -2,3 0,1 0,1 1,2 0,1 0,1 1,1 0,0 0,0 0,0zm72 5c-1,-1 -2,-2 -2,-4 0,-1 0,-2 0,-2 -1,0 -1,1 -2,3l-7 24c0,1 0,2 0,2 0,1 0,2 1,2 1,0 2,-1 3,-4l7 -21zm7 -5c0,-1 0,-2 0,-3 0,-2 0,-3 -1,-3 -1,0 -2,1 -2,3 0,1 1,1 1,2 0,1 1,1 1,1 0,0 1,0 1,0zm-28 22c1,-1 1,-2 1,-3l4 -11c1,-4 3,-8 5,-11 3,-4 6,-6 9,-6l3 0c2,-2 4,-3 6,-3 4,0 5,2 5,6 0,2 0,4 -1,7 1,0 1,0 2,0 2,0 4,-1 6,-3l3 3c-3,5 -7,7 -13,8 0,1 0,2 -1,3 0,1 0,2 -1,4 -4,14 -9,21 -14,21l-10 0c-3,0 -5,-3 -5,-7"/>
  </g>
 </g>
</svg>
