<?xml version="1.0" encoding="UTF-8"?>
<!DOCTYPE svg PUBLIC "-//W3C//DTD SVG 1.1//EN" "http://www.w3.org/Graphics/SVG/1.1/DTD/svg11.dtd">
<!-- Creator: CorelDRAW X8 -->
<svg xmlns="http://www.w3.org/2000/svg" xml:space="preserve" width="400px" height="135px" version="1.1" style="shape-rendering:geometricPrecision; text-rendering:geometricPrecision; image-rendering:optimizeQuality; fill-rule:evenodd; clip-rule:evenodd"
viewBox="0 0 400 135"
 xmlns:xlink="http://www.w3.org/1999/xlink">
 <defs>
  <style type="text/css">
   <![CDATA[
    .str0 {stroke:black;stroke-width:3.00001}
    .fil1 {fill:none;fill-rule:nonzero}
    .fil0 {fill:white;fill-rule:nonzero}
   ]]>
  </style>
 </defs>
 <g id="Слой_x0020_1">
  <metadata id="CorelCorpID_0Corel-Layer"/>
  <g>
   <path class="fil0" d="M65 23c0,-1 0,-2 0,-3 0,-3 -1,-5 -5,-5 -3,0 -6,3 -8,8l-20 55c11,-5 17,-10 19,-15l14 -40zm4 35c-3,9 -9,16 -17,21 -6,3 -13,4 -22,4l-7 21 -18 0 30 -84c0,0 0,0 0,-1 0,-1 -1,-2 -2,-3 0,-1 -1,-1 -2,-1l-9 0c-2,0 -3,-1 -3,-4 0,-3 1,-5 3,-5l17 0c8,0 12,2 14,5 3,-3 8,-5 14,-5 4,0 8,1 11,2 4,2 5,5 5,9 0,1 0,3 0,4l-14 37zm5 57c0,-1 1,-3 2,-6 1,-2 2,-5 3,-9 -1,2 -3,3 -4,4 -1,1 -2,2 -2,3 -1,1 -1,2 -2,3 -1,2 -1,3 -2,5 0,0 0,1 0,1 0,1 1,2 2,2 1,0 2,-1 3,-3zm34 -18c-5,3 -9,5 -13,6l-3 9c-2,5 -5,10 -10,13 -4,3 -8,4 -13,4 -3,0 -6,-1 -8,-3 -2,-1 -3,-4 -3,-7 0,-2 0,-4 1,-6 2,-7 7,-12 14,-14 -5,-1 -8,-5 -8,-11 0,-3 1,-8 3,-14l10 -29 12 9 -9 28c-1,2 -1,3 -1,4 0,2 0,2 1,2 2,0 3,-2 5,-6l14 -39 12 11 -11 32c0,1 0,2 0,2 0,1 0,3 1,2l6 -2c0,-3 1,-6 2,-9l4 -11c2,-6 5,-10 8,-14 4,-4 8,-6 12,-6l12 0c5,0 7,3 7,8 0,1 0,2 0,4l-18 8 3 -8c0,-1 0,-1 0,-1 0,-1 -1,-2 -2,-2 -2,0 -3,1 -3,3l-11 28c0,2 0,3 0,5 0,1 0,2 1,2l4 0c7,0 14,-3 20,-8l18 -51 14 10 -2 6c3,-4 8,-6 13,-6 5,0 7,2 7,6 0,1 0,3 -1,5 -1,3 -2,5 -4,6l-10 -1c0,0 0,-1 1,-2 0,-1 1,-1 1,-1 0,0 0,-1 0,-1 0,-1 -1,-1 -2,-1 -2,0 -6,3 -10,8 1,0 2,0 4,0 1,-1 3,0 6,0 1,0 2,0 2,0 1,0 2,1 3,2 1,0 2,1 2,2 1,1 1,2 1,4 0,3 -1,7 -3,12 0,1 0,2 0,3 0,1 0,2 1,2 2,0 5,-1 5,-1l-85 8zm85 -8c0,-3 1,-7 2,-10l4 -11c2,-6 5,-10 8,-14 4,-4 8,-6 12,-6l12 0c5,0 7,3 7,8 0,2 -1,8 -4,16 -2,6 -6,8 -12,8l-12 0 -2 8c-1,2 -1,3 -1,5 0,1 0,2 1,2l4 0c7,0 14,-3 20,-8 1,-2 2,-5 3,-8l2 -5c2,-7 5,-13 9,-18 5,-5 10,-8 15,-8 4,0 7,2 9,5l1 -3 11 0 -5 15c-1,2 -2,5 -3,9 -1,3 -3,7 -4,12 -1,1 -1,1 -1,2 0,1 1,2 2,2 2,0 5,-1 9,-5 3,-3 5,-6 7,-9l3 5c-1,3 -3,6 -5,8 0,2 0,3 1,3 1,2 2,2 3,1 1,0 2,-1 3,-2 0,-1 1,-2 1,-3 0,-1 1,-2 1,-3 0,-1 1,-2 1,-3 1,-1 1,-3 2,-5l0 0 2 -6c3,-7 7,-13 12,-18 6,-5 11,-8 16,-8 9,0 13,4 13,11 0,4 -1,9 -3,15l-5 14 -1 1c0,1 0,1 0,2 0,1 0,2 2,2 1,0 3,0 4,-2 1,-2 2,-6 3,-9l2 -5c2,-7 5,-13 9,-18 5,-5 10,-8 15,-8 4,0 7,2 9,5l1 -3 11 0 -5 15c-1,2 -2,5 -3,9 -1,3 -3,7 -4,12 -1,1 -1,1 -1,2 0,1 1,2 2,2 2,0 5,-1 9,-5 3,-3 6,-6 7,-9l3 5c-2,6 -6,11 -13,16 -7,5 -13,7 -18,7 -3,0 -5,-2 -5,-5 -3,4 -6,5 -10,5 -6,0 -10,-2 -12,-6 -3,2 -5,3 -8,4 -3,1 -6,2 -8,2 -2,0 -4,-1 -5,-3 -2,-2 -2,-4 -2,-7 0,-2 0,-3 1,-5l1 -4 3 -9 6 -15c0,-2 1,-3 1,-5 0,-1 -1,-2 -2,-2 -2,0 -3,2 -4,6l-10 27 0 0c-2,5 -5,9 -9,13 -3,2 -7,4 -12,4 -3,0 -5,-1 -8,-3 -1,-1 -2,-3 -3,-5 0,0 -1,1 -2,1 -6,5 -12,7 -18,7 -2,0 -4,-2 -4,-5 -3,4 -6,5 -10,5 -7,0 -11,-2 -12,-7 -7,4 -13,7 -18,7l-9 0c-7,0 -10,-2 -12,-6 -6,4 -12,6 -18,6 -1,0 -2,0 -3,-1 -3,-2 -4,-4 -4,-7 0,-3 1,-7 3,-11 1,-5 2,-8 2,-9 0,-1 0,-1 -1,-1 -2,0 -3,1 -4,3l-9 26 -17 0 1 -5c-5,3 -10,5 -14,5l-9 0c-7,0 -11,-2 -12,-7l85 -8zm30 -29c0,-1 0,-1 0,-1 0,-1 -1,-2 -2,-2 -2,0 -3,1 -3,3l-5 12 6 0 4 -12zm39 0c1,-1 1,-1 1,-1 0,-1 -1,-2 -2,-2 -2,0 -3,1 -4,3l-10 28c-1,2 -1,3 -1,5 0,1 1,2 2,2 1,0 3,-2 4,-6l10 -29zm106 0c0,-1 0,-1 0,-1 0,-1 -1,-2 -2,-2 -2,0 -3,1 -4,3l-10 28c0,2 -1,3 -1,5 0,1 1,2 2,2 1,0 3,-2 4,-6l11 -29z"/>
   <path id="1" class="fil1 str0" d="M65 23c0,-1 0,-2 0,-3 0,-3 -1,-5 -5,-5 -3,0 -6,3 -8,8l-20 55c11,-5 17,-10 19,-15l14 -40zm4 35c-3,9 -9,16 -17,21 -6,3 -13,4 -22,4l-7 21 -18 0 30 -84c0,0 0,0 0,-1 0,-1 -1,-2 -2,-3 0,-1 -1,-1 -2,-1l-9 0c-2,0 -3,-1 -3,-4 0,-3 1,-5 3,-5l17 0c8,0 12,2 14,5 3,-3 8,-5 14,-5 4,0 8,1 11,2 4,2 5,5 5,9 0,1 0,3 0,4l-14 37zm5 57c0,-1 1,-3 2,-6 1,-2 2,-5 3,-9 -1,2 -3,3 -4,4 -1,1 -2,2 -2,3 -1,1 -1,2 -2,3 -1,2 -1,3 -2,5 0,0 0,1 0,1 0,1 1,2 2,2 1,0 2,-1 3,-3zm34 -18c-5,3 -9,5 -13,6l-3 9c-2,5 -5,10 -10,13 -4,3 -8,4 -13,4 -3,0 -6,-1 -8,-3 -2,-1 -3,-4 -3,-7 0,-2 0,-4 1,-6 2,-7 7,-12 14,-14 -5,-1 -8,-5 -8,-11 0,-3 1,-8 3,-14l10 -29 12 9 -9 28c-1,2 -1,3 -1,4 0,2 0,2 1,2 2,0 3,-2 5,-6l14 -39 12 11 -11 32c0,1 0,2 0,2 0,1 0,3 1,2l6 -2c0,-3 1,-6 2,-9l4 -11c2,-6 5,-10 8,-14 4,-4 8,-6 12,-6l12 0c5,0 7,3 7,8 0,1 0,2 0,4l-18 8 3 -8c0,-1 0,-1 0,-1 0,-1 -1,-2 -2,-2 -2,0 -3,1 -3,3l-11 28c0,2 0,3 0,5 0,1 0,2 1,2l4 0c7,0 14,-3 20,-8l18 -51 14 10 -2 6c3,-4 8,-6 13,-6 5,0 7,2 7,6 0,1 0,3 -1,5 -1,3 -2,5 -4,6l-10 -1c0,0 0,-1 1,-2 0,-1 1,-1 1,-1 0,0 0,-1 0,-1 0,-1 -1,-1 -2,-1 -2,0 -6,3 -10,8 1,0 2,0 4,0 1,-1 3,0 6,0 1,0 2,0 2,0 1,0 2,1 3,2 1,0 2,1 2,2 1,1 1,2 1,4 0,3 -1,7 -3,12 0,1 0,2 0,3 0,1 0,2 1,2 2,0 5,-1 5,-1m0 0c0,-3 1,-7 2,-10l4 -11c2,-6 5,-10 8,-14 4,-4 8,-6 12,-6l12 0c5,0 7,3 7,8 0,2 -1,8 -4,16 -2,6 -6,8 -12,8l-12 0 -2 8c-1,2 -1,3 -1,5 0,1 0,2 1,2l4 0c7,0 14,-3 20,-8 1,-2 2,-5 3,-8l2 -5c2,-7 5,-13 9,-18 5,-5 10,-8 15,-8 4,0 7,2 9,5l1 -3 11 0 -5 15c-1,2 -2,5 -3,9 -1,3 -3,7 -4,12 -1,1 -1,1 -1,2 0,1 1,2 2,2 2,0 5,-1 9,-5 3,-3 5,-6 7,-9l3 5c-1,3 -3,6 -5,8 0,2 0,3 1,3 1,2 2,2 3,1 1,0 2,-1 3,-2 0,-1 1,-2 1,-3 0,-1 1,-2 1,-3 0,-1 1,-2 1,-3 1,-1 1,-3 2,-5l0 0 2 -6c3,-7 7,-13 12,-18 6,-5 11,-8 16,-8 9,0 13,4 13,11 0,4 -1,9 -3,15l-5 14 -1 1c0,1 0,1 0,2 0,1 0,2 2,2 1,0 3,0 4,-2 1,-2 2,-6 3,-9l2 -5c2,-7 5,-13 9,-18 5,-5 10,-8 15,-8 4,0 7,2 9,5l1 -3 11 0 -5 15c-1,2 -2,5 -3,9 -1,3 -3,7 -4,12 -1,1 -1,1 -1,2 0,1 1,2 2,2 2,0 5,-1 9,-5 3,-3 6,-6 7,-9l3 5c-2,6 -6,11 -13,16 -7,5 -13,7 -18,7 -3,0 -5,-2 -5,-5 -3,4 -6,5 -10,5 -6,0 -10,-2 -12,-6 -3,2 -5,3 -8,4 -3,1 -6,2 -8,2 -2,0 -4,-1 -5,-3 -2,-2 -2,-4 -2,-7 0,-2 0,-3 1,-5l1 -4 3 -9 6 -15c0,-2 1,-3 1,-5 0,-1 -1,-2 -2,-2 -2,0 -3,2 -4,6l-10 27 0 0c-2,5 -5,9 -9,13 -3,2 -7,4 -12,4 -3,0 -5,-1 -8,-3 -1,-1 -2,-3 -3,-5 0,0 -1,1 -2,1 -6,5 -12,7 -18,7 -2,0 -4,-2 -4,-5 -3,4 -6,5 -10,5 -7,0 -11,-2 -12,-7 -7,4 -13,7 -18,7l-9 0c-7,0 -10,-2 -12,-6 -6,4 -12,6 -18,6 -1,0 -2,0 -3,-1 -3,-2 -4,-4 -4,-7 0,-3 1,-7 3,-11 1,-5 2,-8 2,-9 0,-1 0,-1 -1,-1 -2,0 -3,1 -4,3l-9 26 -17 0 1 -5c-5,3 -10,5 -14,5l-9 0c-7,0 -11,-2 -12,-7m115 -37c0,-1 0,-1 0,-1 0,-1 -1,-2 -2,-2 -2,0 -3,1 -3,3l-5 12 6 0 4 -12zm39 0c1,-1 1,-1 1,-1 0,-1 -1,-2 -2,-2 -2,0 -3,1 -4,3l-10 28c-1,2 -1,3 -1,5 0,1 1,2 2,2 1,0 3,-2 4,-6l10 -29zm106 0c0,-1 0,-1 0,-1 0,-1 -1,-2 -2,-2 -2,0 -3,1 -4,3l-10 28c0,2 -1,3 -1,5 0,1 1,2 2,2 1,0 3,-2 4,-6l11 -29z"/>
  </g>
 </g>
</svg>
