<?xml version="1.0" encoding="UTF-8"?>
<!DOCTYPE svg PUBLIC "-//W3C//DTD SVG 1.1//EN" "http://www.w3.org/Graphics/SVG/1.1/DTD/svg11.dtd">
<!-- Creator: CorelDRAW X8 -->
<svg xmlns="http://www.w3.org/2000/svg" xml:space="preserve" width="694px" height="162px" version="1.1" style="shape-rendering:geometricPrecision; text-rendering:geometricPrecision; image-rendering:optimizeQuality; fill-rule:evenodd; clip-rule:evenodd"
viewBox="0 0 694 162"
 xmlns:xlink="http://www.w3.org/1999/xlink">
 <defs>
  <style type="text/css">
   <![CDATA[
    .str0 {stroke:#2B2A29;stroke-width:3.00003}
    .fil0 {fill:#FAF7F7}
    .fil1 {fill:white;fill-rule:nonzero}
   ]]>
  </style>
 </defs>
 <g id="Слой_x0020_1">
  <metadata id="CorelCorpID_0Corel-Layer"/>
  <path class="fil0 str0" d="M19 7l660 0c9,0 16,8 16,17l0 114c0,9 -7,17 -16,17l-660 0c-8,0 -16,-8 -16,-17l0 -114c0,-9 8,-17 16,-17zm4 5l652 0c8,0 15,7 15,16l0 106c0,9 -7,16 -15,16l-652 0c-8,0 -15,-7 -15,-16l0 -106c0,-9 7,-16 15,-16z"/>
  <path class="fil1 str0" d="M105 135l4 -6c1,1 2,1 3,1 4,0 8,-3 12,-8 0,-1 1,-3 2,-4 1,-2 2,-3 2,-5 1,-2 2,-4 4,-8 1,-4 2,-6 2,-7 1,-2 1,-3 1,-5l-1 0c-3,0 -5,1 -7,2 -1,1 -2,2 -2,3 -1,2 -1,3 -1,4 0,1 0,3 -1,7l0 1 -7 4c0,0 0,-1 0,-1 0,0 0,-1 0,-1 0,-3 0,-6 1,-9 0,-3 1,-5 2,-7 1,-2 2,-3 3,-5 1,-1 3,-2 6,-3 2,-1 5,-2 7,-2l26 0 -1 6 -2 1c0,0 0,0 0,0 -1,3 -3,7 -5,12l-3 9c-1,3 -2,5 -3,8 0,3 -1,5 -2,7 0,3 0,5 -1,6l-8 1 0 0c1,-3 2,-7 4,-12 1,-6 3,-9 3,-11 1,-3 3,-7 4,-9 1,-5 3,-8 4,-11l0 0 -9 0c0,2 -1,4 -1,6 -1,2 -1,4 -2,6 -1,3 -2,5 -3,7 -1,3 -2,5 -3,7 -3,7 -7,11 -11,14 -1,1 -3,2 -5,3 -2,1 -4,1 -6,1 -1,0 -2,0 -3,0 0,-1 -2,-1 -3,-2zm87 -5c-2,2 -4,3 -6,4 -3,1 -5,2 -7,2 -1,0 -2,0 -3,-1 -2,1 -3,2 -5,2 -1,0 -2,-1 -3,-2 -1,0 -1,-1 -1,-3 0,0 0,-1 0,-1 1,0 2,0 3,0 0,0 1,0 2,0l1 0c2,-2 3,-4 5,-6 1,-3 2,-5 2,-7 0,0 0,0 0,-1 0,0 -1,0 -1,0 -1,0 -2,0 -4,2 -2,1 -3,3 -5,5 -5,6 -8,15 -10,25 0,3 -1,5 -1,5 -1,2 -2,3 -3,3 -1,0 -2,-1 -3,-1 0,-1 0,-2 0,-3 0,-1 0,-4 1,-8 1,-2 2,-5 3,-7 0,-2 1,-4 2,-6 1,-2 2,-5 3,-9 -1,2 -2,3 -2,3 -1,0 -1,0 -1,0 -1,1 -1,1 -1,1 -1,1 -1,1 -2,1 0,1 0,1 -2,2l0 -6c1,-1 2,-1 3,-2 1,0 1,-1 2,-1 0,-1 1,-1 1,-2 1,0 1,0 1,-1 1,0 1,0 1,-1 1,0 2,-1 4,-3l1 -3 5 0 -2 7c1,-2 3,-4 4,-5 2,-1 4,-2 7,-2 1,0 3,0 4,2 2,1 2,3 2,4 0,3 -1,5 -2,8 -1,1 -2,3 -4,5 1,0 3,-1 4,-1 1,-1 1,-1 2,-1 2,-1 3,-3 5,-4l0 6zm35 0l-1 1 -1 0c-3,3 -6,4 -8,5 -1,0 -2,1 -4,1 -2,0 -3,-1 -3,-3 0,-2 1,-4 2,-6 0,-1 0,-1 0,-1 1,0 1,-1 1,-1l-11 9c-2,1 -4,2 -6,2 -1,0 -2,0 -2,-1 -1,0 -1,-1 -1,-2 0,-1 0,-2 1,-4 0,0 0,-1 0,-1 0,0 1,0 1,-1l-3 2 0 -6c2,-1 3,-3 4,-3l2 -2 2 -3 2 -4 7 0 -7 16c4,-3 7,-6 9,-8 2,-1 3,-2 3,-3 3,-2 4,-4 6,-5l6 0c-3,6 -5,11 -7,16 -1,0 -1,0 -1,1 0,0 0,0 1,0 0,0 1,0 1,0l5 -3 2 -2 0 0 0 6zm37 0c-2,2 -4,3 -5,4 -3,1 -5,2 -7,2 -1,0 -2,0 -4,-1 -2,1 -3,2 -4,2 -2,0 -3,-1 -3,-2 -1,0 -2,-1 -2,-3 0,0 0,-1 1,-1 0,0 1,0 2,0 1,0 2,0 3,0l0 0c2,-2 4,-4 5,-6 2,-3 3,-5 3,-7 0,0 0,0 -1,-1 0,0 0,0 0,0 -1,0 -3,0 -4,2 -2,1 -4,3 -5,5 -5,6 -8,15 -10,25 -1,3 -1,5 -2,5 0,2 -2,3 -3,3 -1,0 -2,-1 -2,-1 -1,-1 -1,-2 -1,-3 0,-1 1,-4 2,-8 1,-2 1,-5 2,-7 1,-2 1,-4 2,-6 1,-2 2,-5 4,-9 -2,2 -3,3 -3,3 0,0 0,0 -1,0 0,1 -1,1 -1,1 0,1 -1,1 -1,1 0,1 -1,1 -2,2l0 -6c1,-1 2,-1 2,-2 1,0 2,-1 2,-1 1,-1 1,-1 2,-2 0,0 0,0 1,-1 0,0 1,0 1,-1 1,0 2,-1 3,-3l1 -3 5 0 -2 7c2,-2 3,-4 4,-5 2,-1 5,-2 7,-2 2,0 4,0 5,2 1,1 2,3 2,4 0,3 -1,5 -3,8 0,1 -2,3 -3,5 1,0 2,-1 4,-1 0,-1 1,-1 2,-1 1,-1 3,-3 4,-4l0 6zm27 0c-1,1 -3,2 -4,2 -1,0 -2,-1 -3,-1 -1,1 -2,2 -3,3 0,0 -1,1 -2,1 -2,1 -4,2 -6,2 -3,0 -5,-1 -7,-3 -1,-1 -2,-4 -2,-7 0,-3 1,-5 2,-8 2,-3 4,-5 6,-6 2,-2 5,-3 7,-3 3,0 5,1 6,2 2,2 3,3 3,5 0,1 -1,2 -2,4 0,1 0,2 0,2 0,1 0,2 0,3l1 0 0 0c1,0 3,-1 4,-2l0 6zm-10 -10l0 -1 0 0c0,-1 0,-1 -1,-2 0,0 -1,-1 -1,-1 -2,0 -3,1 -4,2 -1,1 -2,2 -3,4 -1,1 -1,3 -1,5 0,1 0,2 1,3 0,1 1,1 2,1 1,0 2,-1 4,-2 0,0 0,0 1,-1 -1,-1 -1,-2 -1,-3 0,-2 1,-4 3,-5zm41 10c-3,2 -5,4 -8,6 -1,1 -2,2 -2,2 -2,1 -3,3 -5,4l-3 8c-1,2 -2,4 -3,5 -1,1 -2,2 -3,2 -1,0 -2,-1 -2,-1 -1,-1 -1,-2 -1,-3 0,-2 1,-4 2,-7 1,-2 3,-5 6,-8l1 -3c-2,1 -4,2 -5,2 -3,0 -4,-1 -6,-3 -1,-2 -2,-4 -2,-7 0,-3 1,-6 3,-8 2,-3 4,-5 8,-6 3,-2 7,-2 11,-2 1,0 3,0 5,0l0 5c-2,0 -4,0 -6,0 -2,0 -5,0 -7,1 -2,1 -4,3 -5,4 -1,2 -2,4 -2,6 0,1 0,2 1,3 0,0 1,1 1,1 2,0 3,-1 4,-2 1,-1 2,-1 2,-2 2,-2 3,-4 5,-8l7 0 -5 11 1 0 6 -5 2 -1 0 6zm30 0l0 0c-1,1 -1,1 -1,1 0,0 0,0 -1,1 -2,2 -4,3 -6,4 -1,1 -2,1 -4,1 -2,0 -3,-1 -3,-4 -1,2 -2,3 -3,3 -1,1 -3,1 -4,1 -2,0 -3,0 -5,-1 -1,-1 -2,-2 -2,-3 -1,-2 -1,-4 -1,-5 0,-3 0,-5 1,-7 1,-2 3,-4 5,-5 2,-2 4,-3 7,-4 3,-1 6,-1 9,-1 1,0 3,0 4,0l0 5c-1,0 -3,0 -4,0 -3,0 -6,1 -8,2 -2,1 -4,2 -6,4 -1,1 -2,3 -2,5 0,3 1,4 3,4 1,0 3,-1 5,-3 2,-2 4,-5 5,-9l7 0c-3,6 -5,10 -5,10 0,1 1,1 1,1 1,0 3,-2 8,-6l0 0 0 6zm22 6l10 -22c0,0 0,0 0,0 -1,-1 -1,-2 -1,-3 0,-1 1,-3 4,-4 1,0 1,-1 1,-1l9 -19 7 0 -7 15c4,-2 7,-5 9,-7 2,-2 5,-5 7,-8l7 0c-2,3 -3,5 -4,6 -1,2 -3,3 -4,5 -1,1 -2,2 -4,3 -1,2 -3,3 -4,4 -2,1 -3,2 -5,4 -2,1 -3,2 -5,2 -1,1 -1,2 -1,2 0,1 1,3 4,8 3,4 6,7 8,9 2,2 5,4 8,6l-12 0c-1,-1 -2,-2 -3,-3 -2,-2 -4,-6 -7,-10l-1 -2 -1 -1 -7 16 -8 0zm67 -6l0 0c0,1 -1,1 -1,1 0,0 0,0 0,1 -3,2 -5,3 -6,4 -2,1 -3,1 -5,1 -1,0 -2,-1 -3,-4 -1,2 -2,3 -3,3 -1,1 -2,1 -4,1 -2,0 -3,0 -4,-1 -2,-1 -3,-2 -3,-3 -1,-2 -1,-4 -1,-5 0,-3 0,-5 1,-7 2,-2 3,-4 5,-5 2,-2 5,-3 7,-4 3,-1 6,-1 9,-1 2,0 3,0 4,0l0 5c-1,0 -2,0 -4,0 -3,0 -5,1 -8,2 -2,1 -4,2 -5,4 -2,1 -2,3 -2,5 0,3 0,4 2,4 1,0 3,-1 5,-3 2,-2 4,-5 6,-9l6 0c-3,6 -4,10 -4,10 0,1 0,1 0,1 1,0 4,-2 8,-6l0 0 0 6zm38 0c-3,2 -5,3 -6,4 -3,1 -5,2 -7,2 -1,0 -2,0 -4,-1 -1,1 -3,2 -4,2 -1,0 -2,-1 -3,-2 -1,0 -1,-1 -1,-3 0,0 0,-1 0,-1 1,0 1,0 3,0 0,0 1,0 2,0l0 0c3,-2 4,-4 6,-6 1,-3 2,-5 2,-7 0,0 0,0 0,-1 0,0 -1,0 -1,0 -1,0 -2,0 -4,2 -2,1 -3,3 -5,5 -5,6 -8,15 -10,25 0,3 -1,5 -1,5 -1,2 -2,3 -4,3 0,0 -1,-1 -2,-1 0,-1 -1,-2 -1,-3 0,-1 1,-4 2,-8 1,-2 2,-5 2,-7 1,-2 2,-4 3,-6 0,-2 2,-5 3,-9 -1,2 -2,3 -3,3 0,0 0,0 0,0 -1,1 -1,1 -1,1 -1,1 -1,1 -2,1 0,1 -1,1 -2,2l0 -6c1,-1 2,-1 3,-2 0,0 1,-1 2,-1 0,-1 1,-1 1,-2 0,0 1,0 1,-1 1,0 1,0 1,-1 1,0 2,-1 4,-3l1 -3 5 0 -2 7c1,-2 2,-4 4,-5 2,-1 4,-2 6,-2 2,0 4,0 5,2 1,1 2,3 2,4 0,3 -1,5 -2,8 -1,1 -2,3 -4,5 1,0 3,-1 4,-1 1,-1 1,-1 2,-1 2,-1 3,-3 5,-4l0 6zm25 0c-3,2 -5,4 -7,5 -3,1 -7,2 -10,2 -1,0 -3,0 -4,-1 -2,-1 -3,-2 -3,-4 -1,-1 -1,-3 -1,-5 0,-2 0,-5 2,-8 2,-2 4,-4 6,-6 3,-1 6,-2 9,-2 1,0 2,0 3,1 1,0 2,1 3,2 0,0 0,1 0,2 0,3 0,4 -2,6 -1,1 -2,2 -4,3 -1,1 -3,2 -4,2 -1,0 -3,1 -6,2 0,1 2,2 3,2 2,0 5,0 7,-2 2,-1 5,-2 8,-5l0 6zm-18 -6c3,-1 5,-2 7,-3 2,-1 3,-2 3,-3 0,-1 0,-1 -1,-1 0,-1 0,-1 -1,-1 -2,0 -3,1 -4,2 -2,1 -3,3 -4,6zm27 0l13 -10 2 -1 2 -2c0,0 0,0 1,0 1,0 2,0 3,1 1,1 1,2 1,3 0,1 0,2 -1,3l-5 11c0,0 0,0 0,1 0,0 0,0 0,0 1,0 1,0 1,0 3,-1 5,-3 8,-6l0 6c-1,1 -2,2 -3,2 0,1 -1,1 -3,2 -3,2 -6,3 -8,3 -1,0 -1,0 -2,-1 -1,-1 -1,-1 -1,-2 0,-1 0,-2 1,-2l4 -9 1 -1c0,-1 0,-1 0,-1 0,0 0,-1 -1,-1 0,0 -1,2 -4,4l-11 10c-1,1 -1,1 -2,2 0,0 -1,1 -1,1 -1,0 -1,0 -2,0 0,0 -1,0 -1,-1 0,0 -1,-1 -1,-1 0,-1 1,-2 1,-3l1 -3 -2 1 0 -6 3 -2c0,0 0,0 0,-1 1,0 1,0 1,0 1,0 2,-1 3,-1 1,0 2,1 2,3 0,0 0,1 0,1zm60 6l-1 1 -1 0c-3,3 -6,4 -8,5 -1,0 -2,1 -4,1 -2,0 -3,-1 -3,-3 0,-2 1,-4 2,-6 0,-1 0,-1 0,-1 0,0 0,-1 1,-1l-12 9c-2,1 -4,2 -5,2 -1,0 -2,0 -3,-1 0,0 -1,-1 -1,-2 0,-1 1,-2 2,-4 0,0 0,-1 0,-1 0,0 0,0 0,-1l-2 2 0 -6c2,-1 3,-3 4,-3l1 -2 3 -3 2 -4 6 0 -7 16c4,-3 8,-6 10,-8 2,-1 3,-2 3,-3 2,-2 4,-4 6,-5l6 0c-3,6 -6,11 -8,16 0,0 0,0 0,1 0,0 0,0 0,0 1,0 1,0 2,0l5 -3 1 -2 1 0 0 6zm34 0l0 1 -1 0c-4,3 -6,4 -8,5 -1,0 -3,1 -4,1 -2,0 -3,-1 -3,-3 0,-2 1,-4 2,-6 0,-1 0,-1 0,-1 0,0 0,-1 0,-1l-11 9c-2,1 -4,2 -6,2 -1,0 -1,0 -2,-1 0,0 -1,-1 -1,-2 0,-1 1,-2 2,-4 0,0 0,-1 0,-1 0,0 0,0 0,-1l-2 2 0 -6c2,-1 3,-3 4,-3l1 -2 3 -3 2 -4 6 0 -7 16c4,-3 7,-6 10,-8 1,-1 3,-2 3,-3 2,-2 4,-4 5,-5l6 0c-2,6 -5,11 -7,16 0,0 0,0 0,1 0,0 0,0 0,0 1,0 1,0 2,0l4 -3 2 -2 0 0 0 6zm-583 -51l5 -6c0,1 1,1 3,1 3,0 7,-3 11,-8 1,-2 2,-3 3,-4 0,-2 1,-4 2,-5 1,-2 2,-5 3,-8 2,-4 2,-6 3,-8 0,-1 0,-3 0,-5l0 0c-3,0 -6,1 -7,3 -1,1 -2,2 -3,3 0,1 -1,3 -1,4 0,1 0,3 0,7l0 0 -8 4c0,0 0,0 0,0 0,-1 0,-1 0,-2 0,-2 0,-5 1,-9 1,-2 2,-5 2,-6 1,-2 2,-4 3,-5 2,-2 4,-3 6,-4 3,-1 5,-1 8,-1l26 0 -1 6 -2 0c0,1 0,1 0,1 -2,2 -3,6 -5,12l-4 9c0,2 -1,5 -2,8 -1,2 -1,5 -2,7 -1,2 -1,4 -1,6l-8 1 0 -1c1,-3 2,-6 3,-11 2,-6 3,-10 4,-11 1,-4 2,-7 3,-10 2,-4 3,-7 4,-10l1 -1 -10 0c0,2 0,4 -1,6 0,2 -1,5 -1,7 -1,2 -2,5 -3,7 -1,2 -2,5 -3,7 -4,6 -7,11 -11,14 -2,1 -3,2 -5,2 -2,1 -4,2 -6,2 -1,0 -2,-1 -3,-1 -1,0 -2,-1 -4,-1zm75 -5c-3,2 -5,3 -7,4 -3,2 -6,3 -10,3 -1,0 -3,-1 -4,-2 -1,0 -3,-2 -3,-3 -1,-2 -1,-3 -1,-5 0,-3 0,-5 2,-8 2,-2 4,-5 6,-6 3,-2 6,-2 9,-2 1,0 2,0 3,0 1,1 2,1 3,2 0,1 0,2 0,3 0,2 0,4 -2,6 -1,1 -2,2 -4,3 -1,1 -3,1 -4,2 -1,0 -3,1 -6,1 1,2 2,3 3,3 3,0 5,-1 7,-2 2,-1 5,-3 8,-5l0 6zm-18 -7c3,0 5,-1 7,-2 2,-1 3,-3 3,-4 0,0 0,0 -1,-1 0,0 0,0 -1,0 -1,0 -3,1 -4,2 -2,1 -3,3 -4,5zm55 7c-2,2 -4,3 -6,4 -2,1 -5,2 -7,2 0,0 -2,-1 -3,-1 -2,1 -3,1 -5,1 -1,0 -2,0 -3,-1 -1,-1 -1,-2 -1,-3 0,-1 0,-1 1,-1 0,-1 1,-1 2,-1 1,0 1,0 2,0l1 0c2,-1 4,-3 5,-5 2,-3 3,-5 3,-7 0,0 0,-1 -1,-1 0,-1 0,-1 -1,-1 -1,0 -2,1 -4,2 -1,2 -3,4 -5,6 -4,6 -8,14 -9,25 -1,2 -1,4 -2,5 -1,2 -2,2 -3,2 -1,0 -2,0 -2,-1 -1,0 -1,-1 -1,-2 0,-1 0,-4 2,-8 0,-3 1,-5 2,-7 0,-2 1,-4 2,-6 1,-3 2,-6 4,-9 -2,1 -3,2 -3,2 0,0 0,1 -1,1 0,0 -1,1 -1,1 -1,0 -1,1 -1,1 -1,0 -1,1 -2,2l0 -6c1,-1 2,-2 2,-2 1,-1 1,-1 2,-2 1,0 1,-1 2,-1 0,0 0,-1 1,-1 0,0 0,-1 1,-1 1,-1 2,-2 3,-3l1 -3 5 0 -2 6c2,-2 3,-3 4,-4 2,-2 5,-3 7,-3 2,0 3,1 5,2 1,2 1,3 1,5 0,2 0,5 -2,7 -1,2 -2,4 -4,6 2,-1 3,-1 4,-2 1,0 2,0 2,-1 2,-1 4,-2 5,-3l0 6zm25 0c-3,2 -5,3 -7,4 -3,2 -6,3 -9,3 -2,0 -3,-1 -5,-2 -1,0 -2,-2 -3,-3 -1,-2 -1,-3 -1,-5 0,-3 1,-5 2,-8 2,-2 4,-5 7,-6 3,-2 5,-2 8,-2 2,0 3,0 4,0 1,1 1,1 2,2 0,1 1,2 1,3 0,2 -1,4 -2,6 -2,1 -3,2 -4,3 -2,1 -3,1 -5,2 -1,0 -3,1 -6,1 1,2 2,3 4,3 2,0 4,-1 7,-2 1,-1 4,-3 7,-5l0 6zm-17 -7c2,0 5,-1 7,-2 1,-1 2,-3 2,-4 0,0 0,0 0,-1 -1,0 -1,0 -2,0 -1,0 -3,1 -4,2 -1,1 -2,3 -3,5zm52 -28l-1 7c0,0 0,0 -1,1 -1,0 -1,0 -1,1 -1,0 -2,1 -4,2 -2,1 -3,1 -4,2 -1,0 -1,0 -2,0 -2,0 -3,0 -4,-1 0,-1 -1,-2 -1,-3 0,-1 1,-3 2,-3 1,-1 2,-2 4,-2 2,0 3,0 5,1l7 -5zm0 35l-1 0 -1 1c-3,2 -6,4 -8,5 -1,0 -2,0 -4,1 -2,-1 -3,-2 -3,-3 0,-2 1,-4 2,-7 0,0 0,0 0,-1 1,0 1,0 1,-1l-11 9c-2,2 -4,3 -6,3 -1,0 -2,-1 -2,-1 -1,-1 -1,-1 -1,-2 0,-1 0,-3 1,-4 0,-1 0,-1 0,-1 0,-1 1,-1 1,-1l-3 2 0 -6c2,-2 3,-3 4,-4l2 -1 2 -3 2 -4 7 -1 -7 17c4,-4 7,-6 9,-8 2,-2 3,-3 3,-3 3,-2 5,-4 6,-6l6 0c-3,7 -5,12 -7,16 -1,1 -1,1 -1,1 0,1 0,1 1,1 0,0 1,0 1,-1l5 -3 2 -1 0 0 0 6zm47 0c-2,2 -5,4 -7,5 -2,1 -4,2 -6,2 -1,0 -2,-1 -2,-2 -1,0 -1,-1 -1,-2 0,-1 0,-2 0,-3l1 0 4 -10 -15 14c0,0 0,0 0,0 0,0 0,0 0,0 -2,2 -3,3 -3,3 -1,0 -2,-1 -2,-1 0,0 -1,-1 -1,-2 0,0 0,0 0,-1 0,0 1,0 1,-1 0,0 0,0 0,0 0,0 0,-1 1,-2l4 -10 -14 13c0,1 0,1 0,1 0,0 0,0 -1,0 -1,2 -2,3 -3,3 -1,0 -1,-1 -2,-1 0,-1 0,-1 0,-2 0,-1 0,-3 1,-5 0,-1 0,-1 1,-1l0 0c-1,0 -1,1 -3,1l0 1 0 -6 2 -2 2 -2 2 -1 3 -4 1 -3 7 -1 -5 10 9 -8c1,0 2,-1 3,-2 1,0 2,0 3,0 1,0 2,0 2,0 1,1 1,1 1,2 0,1 -1,3 -2,6 0,1 -1,2 -1,2l10 -8c1,-1 2,-2 3,-2 0,0 1,-1 2,-1 1,0 2,1 2,1 1,0 1,1 1,2 0,0 0,1 -1,2l-5 12c0,0 0,0 0,0 0,1 -1,1 -1,1 0,1 1,1 1,1 0,0 1,0 1,-1 2,-1 5,-2 7,-4l0 6zm35 0l0 0 -1 1c-4,2 -7,4 -9,5 -1,0 -2,0 -3,1 -2,-1 -3,-2 -3,-3 0,-2 0,-4 2,-7 0,0 0,0 0,-1 0,0 0,0 0,-1l-11 9c-2,2 -4,3 -6,3 -1,0 -1,-1 -2,-1 -1,-1 -1,-1 -1,-2 0,-1 1,-3 1,-4 0,-1 1,-1 1,-1 0,-1 0,-1 0,-1l-3 2 0 -6c2,-2 4,-3 4,-4l2 -1 3 -3 2 -4 6 -1 -7 17c4,-4 7,-6 9,-8 2,-2 3,-3 4,-3 2,-2 4,-4 5,-6l6 0c-2,7 -5,12 -7,16 0,1 0,1 0,1 0,1 0,1 0,1 1,0 1,0 1,-1l5 -3 2 -1 0 0 0 6zm56 -6l0 6 -1 0c-3,3 -6,4 -8,5 -1,1 -3,2 -5,2 -2,0 -3,-2 -3,-4 0,-1 0,-2 1,-3l0 -2 2 -2c-1,0 -1,0 -1,0 -1,0 -1,0 -1,0 -3,0 -6,1 -9,3l-3 7c-1,2 -2,3 -4,3 -1,0 -2,-1 -3,-1 0,-1 0,-2 0,-3 0,-1 1,-3 2,-5 1,-2 2,-3 2,-3 -1,1 -2,2 -3,3l0 -6c2,-2 4,-3 5,-5 1,0 1,-1 1,-1 0,0 1,-1 1,-1 1,-1 2,-2 2,-3l1 -2 7 -1 -5 11c1,-1 2,-1 4,-2 1,0 3,0 5,0l1 0 3 -8c0,-1 1,-1 1,-2 1,0 1,0 2,0 1,0 2,0 3,0 0,1 0,1 0,2 0,1 0,2 0,3l-5 12 -1 0c0,1 0,1 0,1 0,1 0,1 1,1 1,0 2,0 3,-1l2 -2c1,-1 1,-1 2,-1 0,-1 0,-1 0,-1 0,0 0,0 0,0 0,0 1,0 1,0zm30 6l-1 0c0,0 0,0 0,1 0,0 -1,0 -1,0 -2,2 -4,4 -6,4 -1,1 -3,2 -4,2 -2,0 -3,-2 -3,-4 -1,1 -2,2 -3,3 -1,0 -3,1 -4,1 -2,0 -4,-1 -5,-2 -1,0 -2,-1 -3,-3 0,-1 -1,-3 -1,-5 0,-2 1,-4 2,-6 1,-3 3,-4 5,-6 2,-1 4,-2 7,-3 3,-1 5,-2 9,-2 1,0 3,1 4,1l0 5c-1,0 -3,0 -5,0 -2,0 -5,0 -7,1 -3,1 -5,3 -6,4 -1,2 -2,4 -2,6 0,2 1,4 2,4 2,0 4,-1 6,-4 1,-2 3,-4 5,-8l6 0c-2,6 -4,9 -4,10 0,0 0,0 1,0 0,0 3,-1 7,-5l1 0 0 6zm46 0c-3,2 -6,4 -8,5 -2,1 -5,2 -7,2 -3,0 -6,-1 -7,-3 -2,-2 -3,-4 -3,-7 0,-3 1,-6 2,-8 2,-3 4,-5 7,-6 2,-2 5,-2 8,-2 5,0 7,1 7,3 0,1 0,1 0,2 0,0 0,1 0,1 0,0 0,1 -1,1 0,1 0,2 -1,3 0,0 0,0 0,0l-6 0 0 0c0,0 0,0 0,0 0,-1 0,-1 0,-1 1,-2 2,-3 2,-3 0,-1 -1,-2 -2,-2 -2,0 -3,1 -5,3 -1,1 -2,2 -3,4 0,1 -1,3 -1,4 0,3 1,5 4,5 2,0 4,-1 7,-2 2,-1 4,-3 7,-5l0 6zm48 0c-3,2 -6,4 -8,5 -2,1 -4,2 -6,2 -1,0 -1,-1 -2,-2 -1,0 -1,-1 -1,-2 0,-1 0,-2 1,-3l0 0 4 -10 -14 14c0,0 0,0 -1,0 0,0 0,0 0,0 -1,2 -2,3 -3,3 -1,0 -1,-1 -2,-1 0,0 0,-1 0,-2 0,0 0,0 0,-1 0,0 0,0 0,-1 0,0 0,0 0,0 0,0 0,-1 1,-2l4 -10 -14 13c0,1 0,1 0,1 0,0 0,0 0,0 -2,2 -3,3 -4,3 -1,0 -1,-1 -2,-1 0,-1 0,-1 0,-2 0,-1 0,-3 1,-5 1,-1 1,-1 1,-1l0 0c0,0 -1,1 -2,1l-1 1 0 -6 2 -2 2 -2 2 -1 3 -4 2 -3 6 -1 -4 10 9 -8c1,0 1,-1 2,-2 1,0 2,0 3,0 1,0 2,0 3,0 0,1 0,1 0,2 0,1 0,3 -2,6 0,1 0,2 -1,2l10 -8c1,-1 2,-2 3,-2 1,0 1,-1 2,-1 1,0 2,1 3,1 0,0 1,1 1,2 0,0 -1,1 -1,2l-6 12c0,0 0,0 0,0 0,1 0,1 0,1 0,1 0,1 0,1 0,0 1,0 1,-1 3,-1 5,-2 8,-4l0 6zm37 0c-2,2 -4,3 -6,4 -2,1 -5,2 -6,2 -1,0 -3,-1 -4,-1 -2,1 -3,1 -4,1 -2,0 -3,0 -4,-1 0,-1 -1,-2 -1,-3 0,-1 0,-1 1,-1 0,-1 1,-1 2,-1 1,0 1,0 2,0l1 0c2,-1 4,-3 5,-5 2,-3 3,-5 3,-7 0,0 0,-1 -1,-1 0,-1 0,-1 -1,-1 0,0 -2,1 -4,2 -1,2 -3,4 -5,6 -4,6 -7,14 -9,25 -1,2 -1,4 -2,5 -1,2 -2,2 -3,2 -1,0 -2,0 -2,-1 -1,0 -1,-1 -1,-2 0,-1 1,-4 2,-8 0,-3 1,-5 2,-7 1,-2 1,-4 2,-6 1,-3 2,-6 4,-9 -2,1 -3,2 -3,2 0,0 0,1 -1,1 0,0 -1,1 -1,1 0,0 -1,1 -1,1 0,0 -1,1 -2,2l0 -6c1,-1 2,-2 2,-2 1,-1 1,-1 2,-2 1,0 1,-1 2,-1 0,0 0,-1 1,-1 0,0 0,-1 1,-1 1,-1 2,-2 3,-3l1 -3 5 0 -2 6c2,-2 3,-3 4,-4 2,-2 5,-3 7,-3 2,0 3,1 5,2 1,2 2,3 2,5 0,2 -1,5 -3,7 -1,2 -2,4 -4,6 2,-1 3,-1 4,-2 1,0 2,0 3,-1 1,-1 3,-2 4,-3l0 6zm30 0l0 0c0,0 0,0 -1,1 0,0 0,0 0,0 -3,2 -5,4 -6,4 -2,1 -3,2 -4,2 -2,0 -3,-2 -3,-4 -2,1 -3,2 -4,3 -1,0 -2,1 -4,1 -1,0 -3,-1 -4,-2 -1,0 -2,-1 -3,-3 -1,-1 -1,-3 -1,-5 0,-2 1,-4 2,-6 1,-3 2,-4 4,-6 2,-1 5,-2 8,-3 2,-1 5,-2 8,-2 2,0 3,1 5,1l0 5c-2,0 -3,0 -5,0 -3,0 -5,0 -8,1 -2,1 -4,3 -5,4 -2,2 -2,4 -2,6 0,2 1,4 2,4 2,0 3,-1 5,-4 2,-2 4,-4 6,-8l6 0c-3,6 -4,9 -4,10 0,0 0,0 0,0 1,0 4,-1 8,-5l0 0 0 6zm34 -6l0 6 0 0c-3,3 -6,4 -8,5 -2,1 -4,2 -5,2 -2,0 -3,-2 -3,-4 0,-1 0,-2 0,-3l1 -2 1 -2c0,0 0,0 -1,0 0,0 0,0 -1,0 -3,0 -6,1 -9,3l-3 7c0,2 -2,3 -4,3 -1,0 -1,-1 -2,-1 0,-1 -1,-2 -1,-3 0,-1 1,-3 3,-5 1,-2 2,-3 2,-3 -2,1 -3,2 -4,3l0 -6c2,-2 4,-3 6,-5 0,0 0,-1 1,-1 0,0 0,-1 1,-1 1,-1 1,-2 2,-3l1 -2 6 -1 -4 11c1,-1 2,-1 3,-2 2,0 4,0 5,0l2 0 3 -8c0,-1 0,-1 1,-2 0,0 1,0 2,0 1,0 2,0 2,0 1,1 1,1 1,2 0,1 0,2 -1,3l-5 12 0 0c0,1 0,1 0,1 0,1 0,1 0,1 1,0 2,0 4,-1l2 -2c0,-1 1,-1 1,-1 0,-1 1,-1 1,-1 0,0 0,0 0,0 0,0 0,0 0,0zm35 6l-1 0 0 1c-4,2 -7,4 -9,5 -1,0 -2,0 -3,1 -2,-1 -3,-2 -3,-3 0,-2 0,-4 1,-7 1,0 1,0 1,-1 0,0 0,0 0,-1l-11 9c-2,2 -4,3 -6,3 -1,0 -2,-1 -2,-1 -1,-1 -1,-1 -1,-2 0,-1 0,-3 1,-4 0,-1 0,-1 1,-1 0,-1 0,-1 0,-1l-3 2 0 -6c2,-2 4,-3 4,-4l2 -1 2 -3 2 -4 7 -1 -7 17c4,-4 7,-6 9,-8 2,-2 3,-3 4,-3 2,-2 4,-4 5,-6l6 0c-3,7 -5,12 -7,16 0,1 -1,1 -1,1 0,1 1,1 1,1 0,0 1,0 1,-1l5 -3 2 -1 0 0 0 6zm35 -6l2 2 -2 4c1,-1 3,-2 4,-3 2,-2 4,-3 4,-3 0,0 0,0 0,0 0,0 1,0 1,0l0 6 0 0 -4 2c0,1 -1,1 -3,3 -2,2 -4,3 -4,3 -1,1 -3,2 -3,4 -2,4 -3,8 -5,10 -1,3 -3,4 -5,4 -1,0 -2,0 -2,-1 -1,-1 -1,-1 -1,-3 0,-2 1,-5 3,-8 1,-1 2,-3 4,-6l1 -1 1 -2c-1,1 -3,2 -4,2 -1,0 -2,-1 -3,-1 0,-1 -1,-2 -1,-2 0,-2 1,-4 2,-7 0,0 0,0 1,-1 0,0 0,0 0,-1l-11 9c-2,2 -4,3 -6,3 -1,0 -2,-1 -2,-1 -1,-1 -1,-1 -1,-2 0,-1 0,-2 1,-4 0,-1 1,-2 1,-2l-1 0 -2 1 0 1 0 0 0 -6 2 -2 2 -2c1,-1 2,-1 3,-2 0,-1 1,-2 1,-2l2 -4 7 -1 -7 16 3 -2 6 -5 4 -3c0,0 1,-1 2,-3 1,0 2,-1 3,-3l6 0c-2,4 -4,8 -6,12 -1,3 -2,5 -2,6 0,0 0,0 0,0 1,0 1,0 2,0l5 -4 2 -1zm42 6c-4,2 -6,4 -7,5 -2,1 -2,2 -3,2 -1,1 -2,3 -4,5 0,0 0,1 -1,1 -1,5 -3,8 -4,10 -1,2 -3,3 -5,3 -1,0 -1,0 -2,-1 -1,0 -1,-1 -1,-2 0,-2 1,-4 2,-7 2,-2 4,-5 6,-8l6 -13 -9 7c-3,3 -5,5 -7,5 -1,0 -2,-1 -2,-1 -1,-1 -1,-1 -1,-2 0,-1 0,-3 1,-5 0,0 0,0 0,0 1,-1 1,-1 1,-1l-1 0c0,0 0,0 0,0 0,1 -1,1 -1,1l0 0 -1 1 0 -6c2,-2 4,-4 5,-5 1,-1 2,-2 4,-3l1 -4 7 -1 -7 16 17 -15 5 -1 -8 19c1,0 2,-1 2,-2 2,-1 3,-2 6,-3l1 -1 0 0 0 6z"/>
 </g>
</svg>
