<?xml version="1.0" encoding="UTF-8"?>
<!DOCTYPE svg PUBLIC "-//W3C//DTD SVG 1.1//EN" "http://www.w3.org/Graphics/SVG/1.1/DTD/svg11.dtd">
<!-- Creator: CorelDRAW X8 -->
<svg xmlns="http://www.w3.org/2000/svg" xml:space="preserve" width="694px" height="162px" version="1.1" style="shape-rendering:geometricPrecision; text-rendering:geometricPrecision; image-rendering:optimizeQuality; fill-rule:evenodd; clip-rule:evenodd"
viewBox="0 0 694 162"
 xmlns:xlink="http://www.w3.org/1999/xlink">
 <defs>
  <style type="text/css">
   <![CDATA[
    .str0 {stroke:#2B2A29;stroke-width:3.00003}
    .fil0 {fill:#FAF7F7}
    .fil1 {fill:white;fill-rule:nonzero}
   ]]>
  </style>
 </defs>
 <g id="Слой_x0020_1">
  <metadata id="CorelCorpID_0Corel-Layer"/>
  <path class="fil0 str0" d="M19 7l660 0c9,0 16,8 16,17l0 114c0,9 -7,17 -16,17l-660 0c-8,0 -16,-8 -16,-17l0 -114c0,-9 8,-17 16,-17zm4 5l652 0c8,0 15,7 15,16l0 106c0,9 -7,16 -15,16l-652 0c-8,0 -15,-7 -15,-16l0 -106c0,-9 7,-16 15,-16z"/>
  <g id="_1868607044432">
   <path class="fil1 str0" d="M21 75l4 -5c1,0 2,1 4,1 3,0 7,-3 11,-9 1,-1 2,-2 2,-4 1,-1 2,-3 3,-5 1,-2 2,-4 3,-8 1,-3 2,-6 3,-7 0,-1 0,-3 0,-5l-1 0c-3,0 -5,1 -7,3 0,0 -1,1 -2,3 0,1 -1,2 -1,4 0,0 0,3 0,6l0 1 -8 4c0,0 0,0 0,-1 0,0 0,0 0,-1 0,-2 0,-5 1,-9 1,-3 1,-5 2,-7 1,-2 2,-3 3,-4 2,-2 4,-3 6,-4 3,-1 5,-2 8,-2l26 0 -1 7 -2 0c0,0 -1,1 -1,1 -1,2 -3,6 -4,11l-4 10c-1,2 -1,5 -2,7 -1,3 -2,5 -2,8 -1,2 -1,4 -1,6l-8 0 0 0c0,-3 2,-7 3,-11 2,-6 3,-10 3,-12 2,-3 3,-6 4,-9 2,-4 3,-8 4,-10l1 -1 -10 0c0,2 0,4 -1,6 0,2 -1,4 -2,7 0,2 -1,4 -2,7 -1,2 -2,4 -3,6 -4,7 -8,12 -11,14 -2,2 -3,3 -5,3 -3,1 -4,1 -6,1 -2,0 -3,0 -3,0 -1,0 -2,-1 -4,-2zm74 -5c-2,2 -5,4 -6,5 -4,1 -7,2 -10,2 -1,0 -3,0 -4,-1 -2,-1 -3,-2 -3,-3 -1,-2 -2,-4 -2,-5 0,-3 1,-6 3,-8 1,-3 4,-5 6,-6 3,-2 6,-3 9,-3 1,0 2,1 3,1 1,0 2,1 2,2 1,1 1,2 1,3 0,2 -1,4 -2,5 -1,2 -2,3 -4,4 -1,0 -3,1 -4,1 -1,1 -4,1 -6,2 0,2 2,3 3,3 2,0 5,-1 7,-2 2,-1 4,-3 7,-6l0 6zm-17 -6c3,-1 5,-2 7,-3 2,-1 3,-2 3,-3 0,0 -1,-1 -1,-1 0,0 -1,0 -1,0 -2,0 -3,0 -4,2 -2,1 -3,3 -4,5zm55 6c-2,2 -4,4 -6,4 -2,2 -5,2 -7,2 -1,0 -2,0 -3,0 -2,1 -3,1 -5,1 -1,0 -2,0 -3,-1 -1,-1 -1,-2 -1,-3 0,-1 0,-1 1,-2 0,0 1,0 2,0 0,0 1,0 2,0l1 0c2,-2 4,-4 5,-6 2,-2 2,-5 2,-6 0,-1 0,-1 0,-1 0,-1 0,-1 -1,-1 -1,0 -2,1 -4,2 -2,2 -3,3 -5,5 -5,6 -8,15 -9,26 -1,2 -1,4 -2,5 -1,1 -2,2 -3,2 -1,0 -2,0 -2,-1 -1,-1 -1,-1 -1,-2 0,-2 0,-4 1,-8 1,-3 2,-5 3,-7 0,-2 1,-4 2,-7 1,-2 2,-5 4,-9 -2,2 -3,3 -3,3 0,0 -1,0 -1,1 -1,0 -1,0 -1,1 -1,0 -1,1 -1,1 -1,0 -1,1 -3,1l0 -6c2,0 2,-1 3,-2 1,0 1,-1 2,-1 0,0 1,-1 1,-1 1,-1 1,-1 1,-1 1,-1 1,-1 2,-1 0,-1 2,-2 3,-3l1 -3 5 -1 -2 7c1,-2 3,-3 4,-4 2,-2 4,-3 7,-3 2,0 3,1 4,2 2,1 2,3 2,5 0,2 0,5 -2,7 -1,2 -2,3 -4,5 2,0 3,0 4,-1 1,0 2,-1 2,-1 2,-1 3,-2 5,-4l0 6zm25 0c-3,2 -5,4 -7,5 -3,1 -6,2 -9,2 -2,0 -4,0 -5,-1 -1,-1 -2,-2 -3,-3 -1,-2 -1,-4 -1,-5 0,-3 1,-6 2,-8 2,-3 4,-5 7,-6 2,-2 5,-3 8,-3 1,0 3,1 4,1 0,0 1,1 2,2 0,1 1,2 1,3 0,2 -1,4 -3,5 -1,2 -2,3 -3,4 -2,0 -3,1 -5,1 -1,1 -3,1 -6,2 1,2 2,3 4,3 2,0 4,-1 6,-2 2,-1 5,-3 8,-6l0 6zm-18 -6c3,-1 6,-2 7,-3 2,-1 3,-2 3,-3 0,0 0,-1 -1,-1 0,0 0,0 -1,0 -1,0 -3,0 -4,2 -1,1 -3,3 -4,5zm53 -28l-1 6c0,1 0,1 -1,1 -1,1 -1,1 -1,1 -1,1 -2,2 -5,3 -1,1 -2,1 -3,1 -1,1 -2,1 -2,1 -2,0 -3,-1 -4,-1 -1,-1 -1,-2 -1,-3 0,-2 1,-3 2,-4 1,-1 2,-1 4,-1 1,0 3,0 5,1l7 -5zm0 34l-1 1 -1 1c-3,2 -6,4 -8,4 -1,1 -2,1 -4,1 -2,0 -3,-1 -3,-3 0,-1 1,-3 2,-6 0,0 0,-1 0,-1 0,0 1,0 1,-1l-12 9c-2,1 -4,2 -5,2 -1,0 -2,0 -3,0 0,-1 -1,-2 -1,-2 0,-1 1,-3 2,-5 0,0 0,0 0,-1 0,0 0,0 1,0l-3 1 0 -6c2,-1 3,-2 4,-3l1 -1 3 -3 2 -5 7 0 -8 16c4,-3 8,-6 10,-7 2,-2 3,-3 3,-3 3,-3 4,-5 6,-6l6 0c-3,6 -5,12 -8,16 0,0 0,1 0,1 0,0 0,0 1,0 0,0 0,0 1,0l5 -3 1 -1 1 -1 0 6zm47 0c-3,3 -5,4 -7,5 -2,2 -4,2 -6,2 -1,0 -2,0 -3,-1 0,-1 -1,-1 -1,-2 0,-1 1,-2 1,-3l0 -1 5 -9 -15 13c0,0 0,0 0,1 0,0 0,0 0,0 -2,1 -3,2 -4,2 0,0 -1,0 -1,0 -1,-1 -1,-1 -1,-2 0,0 0,-1 0,-1 0,0 0,-1 0,-1 1,0 1,0 1,0 0,-1 0,-1 0,-2l5 -10 -14 13c0,0 0,0 0,1 -1,0 -1,0 -1,0 -1,1 -3,2 -3,2 -1,0 -2,0 -2,0 0,-1 -1,-1 -1,-2 0,-1 1,-3 2,-6 0,0 0,0 0,0l1 -1c-1,1 -2,1 -3,2l0 0 0 -6 1 -1 2 -2 2 -2 3 -3 2 -4 6 0 -4 10 9 -8c1,-1 2,-1 3,-2 1,0 2,-1 3,-1 1,0 1,0 2,1 1,0 1,1 1,2 0,1 -1,3 -2,6 -1,1 -1,1 -1,2l10 -8c1,-1 2,-2 3,-2 0,-1 1,-1 2,-1 1,0 2,0 2,1 1,0 1,1 1,1 0,1 0,2 -1,3l-5 12c0,0 0,0 0,0 -1,0 -1,1 -1,1 0,0 0,1 1,1 0,0 0,-1 1,-1 2,-1 5,-3 7,-5l0 6zm35 0l-1 1 0 1c-4,2 -7,4 -9,4 -1,1 -2,1 -3,1 -2,0 -3,-1 -3,-3 0,-1 0,-3 1,-6 1,0 1,-1 1,-1 0,0 0,0 0,-1l-11 9c-2,1 -4,2 -6,2 -1,0 -2,0 -2,0 -1,-1 -1,-2 -1,-2 0,-1 0,-3 1,-5 0,0 0,0 1,-1 0,0 0,0 0,0l-3 1 0 -6c2,-1 4,-2 4,-3l2 -1 2 -3 2 -5 7 0 -7 16c4,-3 7,-6 9,-7 2,-2 3,-3 4,-3 2,-3 4,-5 5,-6l6 0c-3,6 -5,12 -7,16 0,0 -1,1 -1,1 0,0 1,0 1,0 0,0 1,0 1,0l5 -3 2 -1 0 -1 0 6zm55 -6l0 7 0 0c-3,2 -6,4 -8,5 -2,1 -3,1 -5,1 -2,0 -3,-1 -3,-3 0,-1 0,-2 1,-3l0 -2 1 -2c0,0 0,0 -1,-1 0,0 0,0 0,0 -4,0 -7,2 -9,4l-3 6c-1,2 -3,3 -4,3 -1,0 -2,0 -3,-1 0,0 -1,-1 -1,-2 0,-2 1,-4 3,-6 1,-1 2,-2 2,-2 -1,1 -3,2 -3,2l0 -6c2,-1 3,-3 5,-4 0,0 1,-1 1,-1 0,0 1,-1 1,-1 1,-1 1,-2 2,-4l1 -2 7 0 -5 11c1,-1 2,-2 3,-2 2,0 4,0 6,0l1 0 3 -8c0,-1 1,-2 1,-2 1,0 1,-1 2,-1 1,0 2,1 2,1 1,1 1,1 1,2 0,0 0,1 0,2l-6 12 0 1c0,1 0,1 0,1 0,1 0,1 1,1 0,0 2,-1 3,-2l2 -1c1,-1 1,-1 1,-2 1,0 1,0 1,0 0,0 0,0 0,0 0,0 0,0 0,-1zm31 6l-1 1c0,0 0,0 0,0 -1,1 -1,1 -1,1 -3,2 -4,3 -6,4 -1,1 -3,1 -4,1 -2,0 -3,-1 -3,-3 -1,1 -2,2 -4,2 -1,1 -2,1 -4,1 -1,0 -3,0 -4,-1 -1,-1 -2,-2 -3,-3 -1,-2 -1,-3 -1,-5 0,-3 1,-5 2,-7 1,-2 2,-4 5,-5 2,-2 4,-3 7,-4 2,0 5,-1 8,-1 2,0 3,0 5,0l0 6c-2,-1 -3,-1 -5,-1 -2,0 -5,1 -7,2 -3,1 -5,2 -6,4 -1,2 -2,4 -2,6 0,2 1,3 2,3 2,0 3,-1 5,-3 2,-2 4,-5 6,-8l6 0c-3,6 -4,9 -4,9 0,1 0,1 1,1 0,0 3,-2 7,-5l1 -1 0 6zm46 0c-3,3 -6,4 -8,5 -2,2 -5,2 -7,2 -3,0 -6,-1 -8,-2 -1,-2 -2,-5 -2,-7 0,-3 1,-6 2,-9 2,-2 4,-4 6,-6 3,-1 6,-2 9,-2 5,0 7,2 7,4 0,1 0,1 0,2 0,0 0,0 0,1 0,0 -1,0 -1,1 0,1 -1,2 -1,2 0,0 0,0 0,1l-6 0 0 0c0,-1 0,-1 0,-1 0,0 0,0 0,0 1,-2 2,-3 2,-4 0,-1 -1,-1 -2,-1 -2,0 -4,1 -5,2 -1,2 -2,3 -3,4 -1,2 -1,3 -1,5 0,3 1,4 4,4 2,0 4,0 7,-2 1,-1 4,-2 7,-5l0 6zm48 0c-3,3 -6,4 -8,5 -2,2 -4,2 -6,2 -1,0 -2,0 -2,-1 -1,-1 -1,-1 -1,-2 0,-1 0,-2 0,-3l1 -1 4 -9 -14 13c0,0 -1,0 -1,1 0,0 0,0 0,0 -2,1 -3,2 -3,2 -1,0 -2,0 -2,0 0,-1 -1,-1 -1,-2 0,0 0,-1 1,-1 0,0 0,-1 0,-1 0,0 0,0 0,0 0,-1 0,-1 1,-2l4 -10 -14 13c0,0 0,0 0,1 0,0 0,0 -1,0 -1,1 -2,2 -3,2 -1,0 -1,0 -2,0 0,-1 0,-1 0,-2 0,-1 0,-3 1,-6 0,0 1,0 1,0l0 -1c0,1 -1,1 -2,2l-1 0 0 -6 2 -1 2 -2 2 -2 3 -3 2 -4 6 0 -4 10 9 -8c0,-1 1,-1 2,-2 1,0 2,-1 3,-1 1,0 2,0 2,1 1,0 1,1 1,2 0,1 -1,3 -2,6 0,1 -1,1 -1,2l10 -8c1,-1 2,-2 3,-2 0,-1 1,-1 2,-1 1,0 2,0 2,1 1,0 1,1 1,1 0,1 0,2 0,3l-6 12c0,0 0,0 0,0 0,0 0,1 0,1 0,0 0,1 0,1 0,0 1,-1 1,-1 3,-1 5,-3 8,-5l0 6zm37 0c-2,2 -4,4 -6,4 -2,2 -5,2 -7,2 -1,0 -2,0 -3,0 -2,1 -3,1 -5,1 -1,0 -2,0 -3,-1 -1,-1 -1,-2 -1,-3 0,-1 0,-1 1,-2 0,0 1,0 2,0 1,0 1,0 2,0l1 0c2,-2 4,-4 5,-6 2,-2 3,-5 3,-6 0,-1 -1,-1 -1,-1 0,-1 0,-1 -1,-1 -1,0 -2,1 -4,2 -1,2 -3,3 -5,5 -4,6 -8,15 -9,26 -1,2 -1,4 -2,5 -1,1 -2,2 -3,2 -1,0 -2,0 -2,-1 -1,-1 -1,-1 -1,-2 0,-2 0,-4 2,-8 0,-3 1,-5 2,-7 0,-2 1,-4 2,-7 1,-2 2,-5 4,-9 -2,2 -3,3 -3,3 0,0 -1,0 -1,1 0,0 -1,0 -1,1 -1,0 -1,1 -1,1 -1,0 -1,1 -2,1l0 -6c1,0 2,-1 2,-2 1,0 1,-1 2,-1 0,0 1,-1 2,-1 0,-1 0,-1 1,-1 0,-1 0,-1 1,-1 0,-1 2,-2 3,-3l1 -3 5 -1 -2 7c1,-2 3,-3 4,-4 2,-2 4,-3 7,-3 2,0 3,1 5,2 1,1 1,3 1,5 0,2 0,5 -2,7 -1,2 -2,3 -4,5 2,0 3,0 4,-1 1,0 2,-1 2,-1 2,-1 4,-2 5,-4l0 6zm30 0l0 1c0,0 -1,0 -1,0 0,1 0,1 0,1 -3,2 -5,3 -6,4 -2,1 -3,1 -5,1 -1,0 -2,-1 -3,-3 -1,1 -2,2 -3,2 -1,1 -2,1 -4,1 -2,0 -3,0 -4,-1 -1,-1 -2,-2 -3,-3 -1,-2 -1,-3 -1,-5 0,-3 0,-5 2,-7 1,-2 2,-4 4,-5 2,-2 5,-3 7,-4 3,0 6,-1 9,-1 2,0 3,0 4,0l0 6c-1,-1 -2,-1 -4,-1 -3,0 -5,1 -8,2 -2,1 -4,2 -5,4 -2,2 -2,4 -2,6 0,2 0,3 2,3 1,0 3,-1 5,-3 2,-2 4,-5 6,-8l6 0c-3,6 -4,9 -4,9 0,1 0,1 0,1 1,0 4,-2 8,-5l0 -1 0 6zm34 -6l0 7 0 0c-4,2 -6,4 -8,5 -2,1 -4,1 -5,1 -2,0 -4,-1 -4,-3 0,-1 1,-2 1,-3l1 -2 1 -2c0,0 -1,0 -1,-1 0,0 -1,0 -1,0 -3,0 -6,2 -9,4l-3 6c-1,2 -2,3 -4,3 -1,0 -2,0 -2,-1 -1,0 -1,-1 -1,-2 0,-2 1,-4 3,-6 1,-1 1,-2 2,-2 -2,1 -3,2 -4,2l0 -6c2,-1 4,-3 6,-4 0,0 0,-1 1,-1 0,0 0,-1 1,-1 0,-1 1,-2 2,-4l1 -2 6 0 -5 11c2,-1 3,-2 4,-2 2,0 3,0 5,0l2 0 2 -8c1,-1 1,-2 2,-2 0,0 1,-1 2,-1 1,0 1,1 2,1 1,1 1,1 1,2 0,0 0,1 -1,2l-5 12 0 1c0,1 -1,1 -1,1 0,1 1,1 1,1 1,0 2,-1 3,-2l2 -1c1,-1 2,-1 2,-2 0,0 0,0 0,0 1,0 1,0 1,0 0,0 0,0 0,-1zm35 6l-1 1 -1 1c-3,2 -6,4 -8,4 -1,1 -2,1 -3,1 -3,0 -4,-1 -4,-3 0,-1 1,-3 2,-6 0,0 0,-1 1,-1 0,0 0,0 0,-1l-11 9c-2,1 -4,2 -6,2 -1,0 -2,0 -2,0 -1,-1 -1,-2 -1,-2 0,-1 0,-3 1,-5 0,0 0,0 0,-1 0,0 1,0 1,0l-3 1 0 -6c2,-1 3,-2 4,-3l2 -1 2 -3 2 -5 7 0 -7 16c4,-3 7,-6 9,-7 2,-2 3,-3 3,-3 3,-3 5,-5 6,-6l6 0c-3,6 -5,12 -7,16 -1,0 -1,1 -1,1 0,0 0,0 1,0 0,0 1,0 1,0l5 -3 2 -1 0 -1 0 6zm35 -6l2 2 -2 4c1,0 2,-2 4,-3 2,-1 3,-2 4,-2 0,0 0,0 1,-1l0 6 -1 1 -3 2c0,0 -1,1 -4,3 -2,2 -3,2 -3,3 -1,1 -3,2 -4,3 -1,5 -2,9 -4,11 -2,3 -3,4 -5,4 -1,0 -2,0 -3,-1 0,-1 0,-2 0,-3 0,-2 1,-5 2,-8 1,-2 3,-4 5,-6l1 -1 1 -3c-1,2 -3,2 -5,2 0,0 -1,0 -2,-1 0,0 -1,-1 -1,-2 0,-1 1,-3 2,-6 0,0 0,-1 0,-1 0,0 1,0 1,-1l-11 9c-2,1 -4,2 -6,2 -1,0 -2,0 -3,0 0,-1 0,-2 0,-2 0,-1 0,-3 1,-5 0,0 0,-1 1,-1l-1 0 -2 1 0 0 0 0 0 -6 2 -1 2 -2c1,-1 2,-2 3,-2 0,-1 1,-2 1,-2l2 -5 7 0 -7 16 3 -3 6 -4 3 -3c1,-1 2,-2 3,-3 0,-1 1,-2 3,-3l6 0c-2,4 -4,8 -6,11 -1,4 -2,6 -2,7 0,0 0,0 0,0 1,0 1,0 2,-1l5 -3 2 -2zm42 6c-4,3 -6,5 -8,6 -1,1 -2,2 -2,2 -1,1 -3,3 -4,4 0,1 0,1 -1,2 -1,5 -3,8 -4,10 -2,2 -3,3 -5,3 -1,0 -1,0 -2,-1 -1,-1 -1,-1 -1,-2 0,-2 1,-5 2,-7 1,-3 3,-5 6,-8l6 -13 -9 7c-3,3 -6,4 -8,4 0,0 -1,0 -2,0 0,-1 0,-1 0,-2 0,-1 0,-3 1,-5 0,0 0,-1 0,-1 0,0 0,0 1,0l-1 0c0,0 0,0 0,0 -1,0 -1,0 -1,1l-1 0 0 0 0 -6c2,-2 4,-3 5,-4 1,-1 2,-2 3,-4l2 -4 6 0 -6 16 17 -16 5 0 -8 19c1,-1 1,-1 2,-2 1,-1 3,-2 6,-4l0 0 1 -1 0 6z"/>
   <g>
    <path class="fil1 str0" d="M31 138l4 -6c1,0 2,1 3,1 4,0 8,-3 12,-9 1,-1 1,-2 2,-4 1,-1 2,-3 3,-5 0,-1 1,-4 3,-8 1,-3 2,-6 2,-7 1,-1 1,-3 1,-5l-1 0c-3,0 -5,1 -7,3 -1,0 -1,2 -2,3 -1,1 -1,2 -1,4 0,0 0,3 -1,6l0 1 -7 4c0,0 0,0 0,-1 0,0 0,0 0,-1 0,-2 0,-5 1,-9 0,-3 1,-5 2,-7 1,-1 2,-3 3,-4 1,-2 3,-3 6,-4 2,-1 5,-1 7,-1l26 0 -1 6 -1 0c-1,0 -1,1 -1,1 -1,2 -3,6 -5,11l-3 10c-1,2 -2,5 -2,7 -1,3 -2,5 -2,8 -1,2 -1,4 -1,6l-9 1 1 -1c0,-3 1,-7 3,-11 2,-6 3,-10 3,-12 1,-3 3,-6 4,-9 1,-4 3,-8 4,-10l0 -1 -9 0c0,2 0,4 -1,6 0,2 -1,4 -2,7 -1,2 -1,5 -2,7 -1,2 -3,4 -4,6 -3,7 -7,12 -10,15 -2,1 -4,2 -6,2 -2,1 -4,1 -6,1 -1,0 -2,0 -3,0 0,0 -1,-1 -3,-1zm87 -5c-2,1 -4,3 -6,3 -2,2 -5,2 -7,2 -1,0 -2,0 -3,0 -2,1 -3,1 -5,1 -1,0 -2,0 -3,-1 -1,-1 -1,-2 -1,-3 0,-1 0,-1 1,-1 0,-1 1,-1 2,-1 1,0 1,0 2,0l1 0c2,-2 4,-4 5,-5 2,-3 3,-5 3,-7 0,-1 -1,-1 -1,-1 0,-1 0,-1 -1,-1 -1,0 -2,1 -4,2 -1,2 -3,3 -5,5 -4,7 -8,15 -9,26 -1,2 -1,4 -2,5 -1,1 -2,2 -3,2 -1,0 -2,0 -2,-1 -1,-1 -1,-1 -1,-2 0,-2 0,-4 1,-8 1,-3 2,-5 3,-7 0,-2 1,-4 2,-7 1,-2 2,-5 4,-9 -2,2 -3,3 -3,3 0,0 -1,0 -1,1 -1,0 -1,0 -1,1 -1,0 -1,1 -1,1 -1,0 -1,1 -3,2l0 -6c2,-1 2,-2 3,-3 1,0 1,0 2,-1 0,0 1,-1 1,-1 1,-1 1,-1 1,-1 1,-1 1,-1 2,-1 0,-1 2,-2 3,-3l1 -3 5 -1 -2 7c1,-2 3,-3 4,-4 2,-2 4,-3 7,-3 2,0 3,1 4,2 2,1 2,3 2,5 0,2 0,5 -2,7 -1,2 -2,4 -4,6 2,-1 3,-1 4,-2 1,0 2,-1 2,-1 2,-1 4,-2 5,-3l0 6zm35 0l-1 0 0 1c-4,2 -7,4 -9,5 -1,0 -2,0 -3,0 -3,0 -4,-1 -4,-3 0,-1 1,-3 2,-6 0,0 1,-1 1,-1 0,0 0,0 0,-1l-11 9c-2,1 -4,2 -6,2 -1,0 -2,0 -2,0 -1,-1 -1,-1 -1,-2 0,-1 0,-3 1,-5 0,0 0,0 0,0 1,-1 1,-1 1,-1l-3 2 0 -6c2,-2 3,-3 4,-4l2 -1 2 -3 2 -5 7 0 -7 17c4,-4 7,-6 9,-8 2,-2 3,-3 4,-3 2,-3 4,-4 5,-6l6 0c-3,6 -5,12 -7,16 -1,0 -1,1 -1,1 0,0 1,1 1,1 0,0 1,-1 1,-1l5 -3 2 -1 0 0 0 6zm38 0c-3,1 -5,3 -6,3 -3,2 -5,2 -7,2 -1,0 -2,0 -4,0 -1,1 -3,1 -4,1 -1,0 -2,0 -3,-1 -1,-1 -2,-2 -2,-3 0,-1 1,-1 1,-1 0,-1 1,-1 2,-1 1,0 2,0 3,0l0 0c2,-2 4,-4 5,-5 2,-3 3,-5 3,-7 0,-1 0,-1 0,-1 -1,-1 -1,-1 -1,-1 -1,0 -3,1 -4,2 -2,2 -4,3 -5,5 -5,7 -8,15 -10,26 0,2 -1,4 -1,5 -1,1 -2,2 -4,2 -1,0 -1,0 -2,-1 0,-1 -1,-1 -1,-2 0,-2 1,-4 2,-8 1,-3 1,-5 2,-7 1,-2 2,-4 2,-7 1,-2 2,-5 4,-9 -2,2 -3,3 -3,3 0,0 0,0 -1,1 0,0 0,0 -1,1 0,0 -1,1 -1,1 0,0 -1,1 -2,2l0 -6c1,-1 2,-2 3,-3 0,0 1,0 1,-1 1,0 1,-1 2,-1 0,-1 1,-1 1,-1 0,-1 1,-1 1,-1 1,-1 2,-2 3,-3l1 -3 6 -1 -3 7c2,-2 3,-3 4,-4 3,-2 5,-3 7,-3 2,0 4,1 5,2 1,1 2,3 2,5 0,2 -1,5 -2,7 -1,2 -3,4 -4,6 1,-1 2,-1 4,-2 0,0 1,-1 2,-1 1,-1 3,-2 5,-3l0 6zm26 0c-1,0 -3,1 -4,1 -1,0 -2,0 -3,0 -1,1 -2,2 -2,2 -1,1 -2,1 -3,2 -2,1 -4,1 -6,1 -3,0 -5,-1 -6,-2 -2,-2 -3,-4 -3,-7 0,-3 1,-6 2,-9 2,-2 4,-5 6,-6 2,-2 5,-2 8,-2 2,0 4,0 5,2 2,1 3,3 3,4 0,2 -1,3 -2,4 0,1 1,2 1,2 0,1 -1,2 -1,3l1 1 0 0c1,0 3,-1 4,-2l0 6zm-10 -11l0 -1 0 0c0,-1 0,-1 0,-2 -1,0 -2,0 -2,0 -2,0 -3,0 -4,1 -1,1 -2,3 -3,4 0,2 -1,3 -1,5 0,1 0,2 1,3 1,1 1,1 2,1 1,0 2,0 4,-1 0,0 0,-1 1,-1 -1,-1 -1,-2 -1,-3 0,-3 1,-4 3,-6zm41 11c-3,1 -5,3 -8,5 -1,1 -2,2 -2,2 -1,2 -3,3 -4,5l-4 7c-1,3 -2,4 -3,5 -1,1 -2,2 -3,2 -1,0 -2,0 -2,-1 -1,-1 -1,-1 -1,-2 0,-3 1,-5 2,-7 1,-3 4,-6 6,-9l1 -3c-2,2 -3,2 -5,2 -3,0 -4,-1 -6,-2 -1,-2 -2,-5 -2,-7 0,-4 1,-6 3,-9 2,-3 5,-4 8,-6 3,-1 7,-2 11,-2 1,0 3,0 5,0l0 6c-2,-1 -4,-1 -5,-1 -3,0 -5,1 -8,2 -2,1 -4,2 -5,4 -1,1 -2,3 -2,5 0,1 0,2 1,3 0,1 1,1 2,1 1,0 2,-1 4,-2 0,0 1,-1 2,-2 1,-1 3,-4 5,-7l6 0 -5 11 1 -1 6 -4 2 -1 0 6zm30 0l0 0c-1,0 -1,0 -1,0 0,1 0,1 -1,1 -2,2 -4,3 -5,4 -2,1 -3,1 -5,1 -2,0 -3,-1 -3,-3 -1,1 -2,2 -3,2 -1,1 -2,1 -4,1 -2,0 -3,0 -4,-1 -2,-1 -3,-2 -3,-3 -1,-1 -1,-3 -1,-5 0,-2 0,-5 1,-7 1,-2 3,-4 5,-5 2,-2 4,-3 7,-4 3,0 6,-1 9,-1 1,0 3,0 4,0l0 6c-1,-1 -3,-1 -4,-1 -3,0 -6,1 -8,2 -2,1 -4,2 -6,4 -1,2 -2,4 -2,6 0,2 1,3 3,3 1,0 3,-1 5,-3 2,-2 4,-5 6,-8l6 0c-3,6 -4,9 -4,10 0,0 0,0 0,0 1,0 3,-2 8,-5l0 0 0 6zm36 -11c0,4 -1,8 -2,11 -1,4 -1,6 -3,8 -1,1 -2,2 -4,2 0,0 -1,0 -1,-1 -1,-1 -1,-1 -1,-2 0,-2 0,-4 1,-8 1,-3 2,-6 3,-11 2,-4 3,-9 5,-13 1,-3 2,-5 3,-7 1,-2 2,-4 3,-5 1,-1 2,-3 3,-4 3,-3 6,-4 9,-4 2,0 4,0 6,1 1,1 2,3 3,5 1,2 1,4 1,6 0,4 0,8 -1,11 -1,3 -3,6 -4,9 -2,3 -4,5 -7,6 -2,2 -4,3 -7,3 -2,0 -4,-1 -4,-3 0,-2 1,-3 3,-4l2 0c1,-1 3,-2 4,-3 2,-1 3,-3 4,-4 1,-2 2,-4 2,-7 1,-2 1,-5 1,-7 0,-5 -1,-7 -4,-7 -1,0 -2,1 -4,2 -1,2 -3,5 -5,9 -1,2 -3,7 -5,14l-1 1 0 2zm52 11l-1 0c0,0 0,0 0,0 -1,1 -1,1 -1,1 -2,2 -4,3 -6,4 -1,1 -3,1 -4,1 -2,0 -3,-1 -3,-3 -1,1 -2,2 -3,2 -1,1 -3,1 -4,1 -2,0 -4,0 -5,-1 -1,-1 -2,-2 -3,-3 0,-1 -1,-3 -1,-5 0,-2 1,-5 2,-7 1,-2 3,-4 5,-5 2,-2 4,-3 7,-4 2,0 5,-1 9,-1 1,0 3,0 4,0l0 6c-1,-1 -3,-1 -5,-1 -2,0 -5,1 -7,2 -3,1 -5,2 -6,4 -1,2 -2,4 -2,6 0,2 1,3 2,3 2,0 4,-1 6,-3 1,-2 3,-5 5,-8l6 0c-2,6 -4,9 -4,10 0,0 0,0 1,0 0,0 3,-2 7,-5l1 0 0 6zm34 -35l0 7c0,0 0,0 -1,0 -1,1 -1,1 -2,1 0,1 -2,2 -4,3 -1,1 -2,1 -3,1 -1,1 -2,1 -3,1 -1,0 -2,-1 -3,-1 -1,-1 -1,-2 -1,-3 0,-2 0,-3 1,-4 2,-1 3,-1 5,-1 1,0 3,0 5,1l6 -5zm0 35l0 0 -1 1c-4,2 -6,4 -8,5 -1,0 -3,0 -4,0 -2,0 -3,-1 -3,-3 0,-1 1,-3 2,-6 0,0 0,-1 0,-1 0,0 0,0 0,-1l-11 9c-2,1 -4,2 -6,2 0,0 -1,0 -2,0 0,-1 -1,-1 -1,-2 0,-1 1,-3 2,-5 0,0 0,0 0,0 0,-1 0,-1 0,-1l-2 2 0 -6c2,-2 3,-3 4,-4l1 -1 3 -3 2 -5 6 0 -7 17c4,-4 7,-6 10,-8 1,-2 3,-3 3,-3 2,-3 4,-4 5,-6l6 0c-2,6 -5,12 -7,16 0,0 0,1 0,1 0,0 0,1 0,1 1,0 1,-1 2,-1l4 -3 2 -1 0 0 0 6zm35 0c-3,2 -5,3 -7,4 -3,1 -6,2 -9,2 -1,0 -2,0 -3,-1 -1,-1 -2,-2 -2,-4 0,-2 1,-4 3,-7 0,-1 1,-1 1,-1 0,0 1,0 1,0 2,-1 3,-2 5,-3 1,-1 2,-2 2,-3 0,0 0,-1 0,-1 -1,0 -1,0 -1,0 -1,0 -3,1 -4,2 -2,1 -4,3 -6,5 -2,2 -3,4 -5,7 -1,2 -2,4 -3,5 -2,1 -3,1 -4,1 -1,0 -2,0 -2,-1 0,-2 1,-3 2,-5 0,-1 0,-1 0,-2 0,0 0,0 0,-1l-3 3 0 -6c2,-2 3,-3 4,-4 2,-2 3,-3 4,-4l11 -25c0,-2 1,-4 2,-5 1,-1 2,-1 3,-1 0,0 1,0 2,1 0,0 0,1 0,2 0,1 0,3 0,5 -1,2 -2,4 -2,5l-7 13 -2 5c2,-1 3,-3 4,-4 3,-1 5,-2 7,-2 1,0 3,1 4,1 1,1 2,1 2,2 1,1 1,2 1,3 0,3 -1,5 -4,7 -1,1 -2,2 -3,3 -1,0 -2,1 -4,2 0,0 0,0 0,0 0,0 0,0 0,0 -1,1 -1,1 -1,2 0,0 0,0 1,0 1,0 3,0 5,-1 2,-1 5,-3 8,-5l0 6zm27 0c-1,0 -3,1 -4,1 -1,0 -2,0 -3,0 -1,1 -2,2 -3,2 0,1 -1,1 -2,2 -2,1 -4,1 -6,1 -3,0 -5,-1 -7,-2 -1,-2 -2,-4 -2,-7 0,-3 1,-6 2,-9 1,-2 3,-5 6,-6 2,-2 5,-2 7,-2 3,0 4,0 6,2 2,1 3,3 3,4 0,2 -1,3 -2,4 0,1 0,2 0,2 0,1 0,2 0,3l1 1 0 0c1,0 2,-1 4,-2l0 6zm-10 -11l0 -1 0 0c0,-1 0,-1 -1,-2 0,0 -1,0 -2,0 -1,0 -2,0 -3,1 -1,1 -2,3 -3,4 -1,2 -1,3 -1,5 0,1 0,2 1,3 0,1 1,1 2,1 1,0 2,0 3,-1 1,0 1,-1 2,-1 -1,-1 -1,-2 -1,-3 0,-3 1,-4 3,-6zm44 5l0 6 0 0c-4,2 -6,4 -8,5 -2,1 -4,1 -5,1 -2,0 -4,-1 -4,-3 0,-1 1,-2 1,-3l1 -2 1 -2c0,0 -1,0 -1,0 0,0 -1,0 -1,0 -3,0 -6,1 -9,3l-3 6c-1,2 -2,3 -4,3 -1,0 -2,0 -2,0 -1,-1 -1,-2 -1,-3 0,-2 1,-3 3,-6 1,-1 1,-2 2,-2 -2,1 -3,2 -4,3l0 -6c2,-2 4,-3 6,-5 0,0 0,-1 1,-1 0,0 0,-1 1,-1 0,-1 1,-2 2,-4l1 -2 6 0 -5 11c2,-1 3,-2 4,-2 2,0 3,0 5,0l2 0 2 -8c1,-1 1,-2 2,-2 0,0 1,0 2,0 1,0 1,0 2,0 1,1 1,1 1,2 0,0 0,1 -1,3l-5 11 0 1c-1,1 -1,1 -1,1 0,1 1,1 1,1 1,0 2,-1 3,-2l2 -1c1,-1 2,-1 2,-1 0,-1 0,-1 0,-1 0,0 1,0 1,0 0,0 0,0 0,0zm35 6c-3,2 -6,3 -7,4 -4,1 -7,2 -9,2 -2,0 -3,0 -4,-1 -1,-1 -1,-2 -1,-4 0,-2 1,-4 2,-7 1,-1 1,-1 2,-1 0,0 0,0 0,0 2,-1 4,-2 5,-3 2,-1 3,-2 3,-3 0,0 -1,-1 -1,-1 0,0 0,0 -1,0 -1,0 -2,1 -4,2 -2,1 -3,3 -5,5 -2,2 -4,4 -5,7 -2,2 -3,4 -4,5 -1,1 -2,1 -3,1 -2,0 -2,0 -2,-1 0,-2 0,-3 1,-5 0,-1 0,-1 1,-2 0,0 0,0 0,-1l-3 3 0 -6c2,-2 3,-3 4,-4 2,-2 3,-3 4,-4l10 -25c1,-2 2,-4 3,-5 0,-1 1,-1 2,-1 1,0 2,0 2,1 1,0 1,1 1,2 0,1 0,3 -1,5 0,2 -1,4 -2,5l-7 13 -2 5c2,-1 4,-3 5,-4 2,-1 4,-2 7,-2 1,0 2,1 3,1 1,1 2,1 3,2 1,1 1,2 1,3 0,3 -1,5 -4,7 -1,1 -2,2 -3,3 -1,0 -3,1 -5,2 0,0 0,0 0,0 0,0 0,0 0,0 0,1 0,1 0,2 0,0 0,0 0,0 2,0 3,0 5,-1 2,-1 5,-3 9,-5l0 6zm27 0c-2,0 -3,1 -5,1 -1,0 -2,0 -3,0 -1,1 -2,2 -2,2 -1,1 -2,1 -3,2 -2,1 -4,1 -6,1 -2,0 -5,-1 -6,-2 -2,-2 -2,-4 -2,-7 0,-3 0,-6 2,-9 1,-2 3,-5 5,-6 3,-2 5,-2 8,-2 2,0 4,0 6,2 1,1 2,3 2,4 0,2 0,3 -2,4 1,1 1,2 1,2 0,1 0,2 -1,3l1 1 1 0c1,0 2,-1 4,-2l0 6zm-11 -11l1 -1 0 0c0,-1 -1,-1 -1,-2 -1,0 -1,0 -2,0 -1,0 -2,0 -4,1 -1,1 -2,3 -2,4 -1,2 -2,3 -2,5 0,1 1,2 1,3 1,1 2,1 2,1 2,0 3,0 4,-1 0,0 1,-1 1,-1 -1,-1 -1,-2 -1,-3 0,-3 1,-4 3,-6z"/>
    <path class="fil1 str0" d="M583 133c-4,2 -6,3 -8,4 -3,2 -5,2 -8,2 -3,0 -5,-1 -7,-2 -2,-2 -2,-4 -2,-7 0,-3 0,-6 2,-9 1,-2 3,-4 6,-5 3,-2 6,-3 9,-3 5,0 7,2 7,4 0,1 0,1 0,2 0,0 0,0 -1,1 0,0 0,0 0,1 0,1 -1,2 -1,2 0,0 0,1 0,1l-7 0 0 0c1,0 1,-1 1,-1 0,0 0,0 0,0 1,-2 1,-3 1,-4 0,0 0,-1 -1,-1 -2,0 -4,1 -5,2 -2,2 -3,3 -3,4 -1,2 -1,4 -1,5 0,3 1,5 3,5 3,0 5,-1 7,-2 2,-1 5,-3 8,-5l0 6zm35 0c-4,2 -6,3 -8,4 -3,1 -6,2 -8,2 -2,0 -3,0 -4,-1 -1,-1 -2,-2 -2,-4 0,-2 1,-4 3,-7 0,-1 1,-1 1,-1 1,0 1,0 1,0 2,-1 4,-2 5,-3 1,-1 2,-2 2,-3 0,0 0,-1 0,-1 0,0 -1,0 -1,0 -1,0 -3,1 -4,2 -2,1 -4,3 -6,5 -1,2 -3,4 -5,7 -1,2 -2,4 -3,5 -1,1 -2,1 -3,1 -2,0 -3,0 -3,-1 0,-2 1,-3 2,-5 0,-1 0,-1 0,-2 0,0 0,0 0,-1l-2 3 0 -6c1,-2 2,-3 4,-4 1,-2 3,-3 3,-4l11 -25c1,-2 1,-4 2,-5 1,-1 2,-1 3,-1 1,0 1,0 2,1 0,0 1,1 1,2 0,1 -1,3 -1,5 -1,2 -2,4 -2,5l-7 13 -2 5c2,-1 3,-3 5,-4 2,-1 4,-2 6,-2 2,0 3,1 4,1 1,1 2,1 3,2 0,1 0,2 0,3 0,3 -1,5 -3,7 -1,1 -3,2 -4,3 -1,0 -2,1 -4,2 0,0 0,0 0,0 0,0 0,0 0,0 -1,1 -1,1 -1,2 0,0 1,0 1,0 1,0 3,0 5,-1 2,-1 5,-3 9,-5l0 6zm34 0l0 0 -1 1c-4,2 -7,4 -8,5 -2,0 -3,0 -4,0 -2,0 -3,-1 -3,-3 0,-1 0,-3 2,-6 0,0 0,-1 0,-1 0,0 0,0 0,-1l-11 9c-2,1 -4,2 -6,2 -1,0 -1,0 -2,0 -1,-1 -1,-1 -1,-2 0,-1 1,-3 1,-5 1,0 1,0 1,0 0,-1 0,-1 0,-1l-2 2 0 -6c2,-2 3,-3 4,-4l1 -1 3 -3 2 -5 6 0 -7 17c4,-4 7,-6 9,-8 2,-2 3,-3 4,-3 2,-3 4,-4 5,-6l6 0c-2,6 -5,12 -7,16 0,0 0,1 0,1 0,0 0,1 0,1 1,0 1,-1 2,-1l4 -3 2 -1 0 0 0 6z"/>
   </g>
  </g>
 </g>
</svg>
