<?xml version="1.0" encoding="UTF-8"?>
<!DOCTYPE svg PUBLIC "-//W3C//DTD SVG 1.1//EN" "http://www.w3.org/Graphics/SVG/1.1/DTD/svg11.dtd">
<!-- Creator: CorelDRAW X8 -->
<svg xmlns="http://www.w3.org/2000/svg" xml:space="preserve" width="500px" height="150px" version="1.1" style="shape-rendering:geometricPrecision; text-rendering:geometricPrecision; image-rendering:optimizeQuality; fill-rule:evenodd; clip-rule:evenodd"
viewBox="0 0 500 150"
 xmlns:xlink="http://www.w3.org/1999/xlink">
 <defs>
  <style type="text/css">
   <![CDATA[
    .str0 {stroke:black;stroke-width:3.00001}
    .fil1 {fill:none;fill-rule:nonzero}
    .fil0 {fill:white;fill-rule:nonzero}
   ]]>
  </style>
 </defs>
 <g id="Слой_x0020_1">
  <metadata id="CorelCorpID_0Corel-Layer"/>
  <g>
   <path class="fil0" d="M62 87c0,-2 1,-3 1,-5 0,-5 -4,-9 -11,-13l-18 40c0,1 0,1 0,2 0,1 0,1 1,1 2,0 4,0 6,-2 9,-4 15,-10 18,-17l3 -6zm23 -52c0,-1 1,-2 1,-4 0,-3 -3,-5 -7,-5 -5,0 -9,3 -12,9l-13 28c15,-5 23,-11 26,-16l5 -12zm-4 62c-4,9 -12,17 -24,21 -8,4 -18,6 -29,6l-26 0 41 -92c0,0 0,-1 0,-1 0,-1 0,-2 -1,-3 -2,-1 -3,-2 -4,-2l-29 0c-2,0 -4,-1 -4,-5 0,-3 2,-4 5,-4l40 0c10,0 16,1 19,4 4,-3 11,-5 20,-5 5,0 10,1 14,3 5,2 8,5 8,9 0,1 0,3 -1,5l-4 8c-3,6 -7,11 -13,16 -6,4 -12,7 -18,8 8,3 12,8 12,15 0,3 -1,6 -2,9l-4 8zm46 -22c1,0 1,-1 1,-1 0,-1 -1,-2 -3,-2 -3,0 -4,1 -5,3l-14 32c-1,2 -1,3 -1,5 0,1 0,2 2,2 2,0 4,-2 6,-6l14 -33zm22 40c-1,0 -1,1 -2,1 -9,5 -18,8 -25,8 -4,0 -6,-2 -6,-5 -4,3 -9,5 -14,5 -11,0 -17,-4 -17,-12 0,-4 1,-9 4,-16l2 -5c4,-8 8,-14 14,-19 6,-6 13,-9 21,-9 5,0 9,1 12,5l2 -3 15 0 -8 16c-1,3 -2,6 -4,10 -1,3 -3,8 -6,13 0,1 0,2 0,3 0,1 1,2 2,2 3,0 7,-2 12,-6 5,-3 8,-6 10,-10l4 6c-1,3 -3,6 -6,9 0,1 0,2 1,3 1,1 3,2 4,1 2,0 3,-1 4,-3 1,-1 1,-2 2,-3 0,-1 1,-2 1,-3 1,-1 1,-2 2,-3 1,-2 1,-3 2,-5l0 0 4 -8c3,-7 8,-14 16,-19 7,-6 15,-9 22,-9 12,0 18,4 18,12 0,4 -2,10 -5,16l-7 16 0 1c0,1 -1,2 -1,3 0,1 1,2 3,2 2,0 4,-1 6,-2 1,-3 2,-7 4,-11l2 -5c4,-8 8,-14 14,-19 6,-6 13,-9 20,-9 6,0 10,1 13,5l1 -3 16 0 -8 16c-1,3 -2,6 -4,10 -2,3 -4,8 -6,13 0,1 0,2 0,3 0,1 0,2 2,2 3,0 7,-2 12,-5 0,-3 1,-5 3,-8l2 -5c3,-8 8,-14 13,-19 7,-6 14,-9 21,-9 5,0 10,1 12,5l2 -3 15 0 -7 16c-1,3 -3,6 -4,10 -2,3 -4,8 -6,13 -1,1 -1,2 -1,3 0,1 1,2 3,2 3,0 7,-2 12,-6 5,-3 8,-6 9,-10l5 6c-2,4 -4,7 -8,10 0,1 0,2 1,2 1,1 3,2 4,1 2,0 3,-1 4,-3 1,-1 1,-2 2,-3 0,-1 1,-2 1,-3 1,-1 1,-2 2,-3 1,-2 1,-3 2,-5l0 0 7 -15c5,-10 14,-17 27,-21 4,-1 7,-1 9,-1 7,0 12,1 15,4 4,-3 9,-4 14,-4 12,0 17,4 17,12 0,4 -1,9 -4,16l-5 11 -3 7c0,1 -1,2 -1,3 0,1 1,2 3,2 3,0 7,-2 12,-6 5,-3 8,-6 10,-10l4 6 0 0c-3,6 -9,12 -18,17 -5,3 -9,5 -13,6 -3,1 -7,2 -11,2 -3,0 -5,-1 -7,-3 -2,-2 -4,-5 -4,-8 0,-2 1,-4 2,-5l14 -33c1,-1 1,-3 1,-5 0,-1 0,-2 -1,-2 -3,0 -5,2 -7,6l-22 49 -17 -10 17 -38c1,-1 2,-3 2,-5 0,-1 -1,-2 -2,-2 -3,0 -5,2 -7,6l-13 32c-3,5 -7,10 -13,13 -5,3 -10,5 -16,5 -5,0 -8,-1 -11,-3 -2,-1 -4,-3 -5,-5l-209 -1zm209 1c0,0 0,0 -1,0 -9,5 -17,8 -25,8 -4,0 -6,-2 -6,-5 -4,3 -8,5 -13,5 -11,0 -17,-3 -18,-9 0,0 -1,1 -2,1 -9,5 -18,8 -25,8 -4,0 -6,-2 -7,-5 -3,3 -8,5 -13,5 -9,0 -15,-2 -17,-7 -4,2 -8,4 -11,5 -4,1 -8,2 -12,2 -3,0 -5,-1 -7,-3 -2,-2 -3,-5 -3,-8 0,-2 1,-4 2,-5l2 -5 4 -10 8 -17c0,-1 1,-3 1,-4 0,-2 -1,-3 -2,-3 -2,0 -4,2 -6,7l-13 29 0 1c-3,5 -7,10 -13,13 -5,3 -10,5 -16,5 -5,0 -8,-1 -11,-3 -3,-2 -4,-4 -5,-6l209 1zm-85 -41c0,0 0,-1 0,-1 0,-1 0,-2 -2,-2 -3,0 -5,1 -5,3l-14 32c-1,2 -1,3 -1,5 0,1 0,2 2,2 2,0 4,-2 6,-6l14 -33zm65 0c0,0 0,-1 0,-1 0,-1 -1,-2 -3,-2 -2,0 -4,1 -5,3l-14 32c-1,2 -1,3 -1,5 0,1 1,2 2,2 2,0 4,-2 6,-6l15 -33z"/>
   <path id="1" class="fil1 str0" d="M62 87c0,-2 1,-3 1,-5 0,-5 -4,-9 -11,-13l-18 40c0,1 0,1 0,2 0,1 0,1 1,1 2,0 4,0 6,-2 9,-4 15,-10 18,-17l3 -6zm23 -52c0,-1 1,-2 1,-4 0,-3 -3,-5 -7,-5 -5,0 -9,3 -12,9l-13 28c15,-5 23,-11 26,-16l5 -12zm-4 62c-4,9 -12,17 -24,21 -8,4 -18,6 -29,6l-26 0 41 -92c0,0 0,-1 0,-1 0,-1 0,-2 -1,-3 -2,-1 -3,-2 -4,-2l-29 0c-2,0 -4,-1 -4,-5 0,-3 2,-4 5,-4l40 0c10,0 16,1 19,4 4,-3 11,-5 20,-5 5,0 10,1 14,3 5,2 8,5 8,9 0,1 0,3 -1,5l-4 8c-3,6 -7,11 -13,16 -6,4 -12,7 -18,8 8,3 12,8 12,15 0,3 -1,6 -2,9l-4 8zm46 -22c1,0 1,-1 1,-1 0,-1 -1,-2 -3,-2 -3,0 -4,1 -5,3l-14 32c-1,2 -1,3 -1,5 0,1 0,2 2,2 2,0 4,-2 6,-6l14 -33zm22 40c-1,0 -1,1 -2,1 -9,5 -18,8 -25,8 -4,0 -6,-2 -6,-5 -4,3 -9,5 -14,5 -11,0 -17,-4 -17,-12 0,-4 1,-9 4,-16l2 -5c4,-8 8,-14 14,-19 6,-6 13,-9 21,-9 5,0 9,1 12,5l2 -3 15 0 -8 16c-1,3 -2,6 -4,10 -1,3 -3,8 -6,13 0,1 0,2 0,3 0,1 1,2 2,2 3,0 7,-2 12,-6 5,-3 8,-6 10,-10l4 6c-1,3 -3,6 -6,9 0,1 0,2 1,3 1,1 3,2 4,1 2,0 3,-1 4,-3 1,-1 1,-2 2,-3 0,-1 1,-2 1,-3 1,-1 1,-2 2,-3 1,-2 1,-3 2,-5l0 0 4 -8c3,-7 8,-14 16,-19 7,-6 15,-9 22,-9 12,0 18,4 18,12 0,4 -2,10 -5,16l-7 16 0 1c0,1 -1,2 -1,3 0,1 1,2 3,2 2,0 4,-1 6,-2 1,-3 2,-7 4,-11l2 -5c4,-8 8,-14 14,-19 6,-6 13,-9 20,-9 6,0 10,1 13,5l1 -3 16 0 -8 16c-1,3 -2,6 -4,10 -2,3 -4,8 -6,13 0,1 0,2 0,3 0,1 0,2 2,2 3,0 7,-2 12,-5 0,-3 1,-5 3,-8l2 -5c3,-8 8,-14 13,-19 7,-6 14,-9 21,-9 5,0 10,1 12,5l2 -3 15 0 -7 16c-1,3 -3,6 -4,10 -2,3 -4,8 -6,13 -1,1 -1,2 -1,3 0,1 1,2 3,2 3,0 7,-2 12,-6 5,-3 8,-6 9,-10l5 6c-2,4 -4,7 -8,10 0,1 0,2 1,2 1,1 3,2 4,1 2,0 3,-1 4,-3 1,-1 1,-2 2,-3 0,-1 1,-2 1,-3 1,-1 1,-2 2,-3 1,-2 1,-3 2,-5l0 0 7 -15c5,-10 14,-17 27,-21 4,-1 7,-1 9,-1 7,0 12,1 15,4 4,-3 9,-4 14,-4 12,0 17,4 17,12 0,4 -1,9 -4,16l-5 11 -3 7c0,1 -1,2 -1,3 0,1 1,2 3,2 3,0 7,-2 12,-6 5,-3 8,-6 10,-10l4 6 0 0c-3,6 -9,12 -18,17 -5,3 -9,5 -13,6 -3,1 -7,2 -11,2 -3,0 -5,-1 -7,-3 -2,-2 -4,-5 -4,-8 0,-2 1,-4 2,-5l14 -33c1,-1 1,-3 1,-5 0,-1 0,-2 -1,-2 -3,0 -5,2 -7,6l-22 49 -17 -10 17 -38c1,-1 2,-3 2,-5 0,-1 -1,-2 -2,-2 -3,0 -5,2 -7,6l-13 32c-3,5 -7,10 -13,13 -5,3 -10,5 -16,5 -5,0 -8,-1 -11,-3 -2,-1 -4,-3 -5,-5m0 0c0,0 0,0 -1,0 -9,5 -17,8 -25,8 -4,0 -6,-2 -6,-5 -4,3 -8,5 -13,5 -11,0 -17,-3 -18,-9 0,0 -1,1 -2,1 -9,5 -18,8 -25,8 -4,0 -6,-2 -7,-5 -3,3 -8,5 -13,5 -9,0 -15,-2 -17,-7 -4,2 -8,4 -11,5 -4,1 -8,2 -12,2 -3,0 -5,-1 -7,-3 -2,-2 -3,-5 -3,-8 0,-2 1,-4 2,-5l2 -5 4 -10 8 -17c0,-1 1,-3 1,-4 0,-2 -1,-3 -2,-3 -2,0 -4,2 -6,7l-13 29 0 1c-3,5 -7,10 -13,13 -5,3 -10,5 -16,5 -5,0 -8,-1 -11,-3 -3,-2 -4,-4 -5,-6m124 -40c0,0 0,-1 0,-1 0,-1 0,-2 -2,-2 -3,0 -5,1 -5,3l-14 32c-1,2 -1,3 -1,5 0,1 0,2 2,2 2,0 4,-2 6,-6l14 -33zm65 0c0,0 0,-1 0,-1 0,-1 -1,-2 -3,-2 -2,0 -4,1 -5,3l-14 32c-1,2 -1,3 -1,5 0,1 1,2 2,2 2,0 4,-2 6,-6l15 -33z"/>
  </g>
 </g>
</svg>
