<?xml version="1.0" encoding="UTF-8"?>
<!DOCTYPE svg PUBLIC "-//W3C//DTD SVG 1.1//EN" "http://www.w3.org/Graphics/SVG/1.1/DTD/svg11.dtd">
<!-- Creator: CorelDRAW X8 -->
<svg xmlns="http://www.w3.org/2000/svg" xml:space="preserve" width="400px" height="120px" version="1.1" style="shape-rendering:geometricPrecision; text-rendering:geometricPrecision; image-rendering:optimizeQuality; fill-rule:evenodd; clip-rule:evenodd"
viewBox="0 0 400 120"
 xmlns:xlink="http://www.w3.org/1999/xlink">
 <defs>
  <style type="text/css">
   <![CDATA[
    .fil1 {fill:black}
    .fil0 {fill:black;fill-rule:nonzero}
   ]]>
  </style>
 </defs>
 <g id="Слой_x0020_1">
  <metadata id="CorelCorpID_0Corel-Layer"/>
  <g id="_2712469418320">
   <path class="fil0" d="M58 33l32 0 0 47 5 0 0 19 -6 0 0 -12 -36 0 0 12 -6 0 0 -19 4 0c4,-6 7,-19 7,-39l0 -8zm25 6l-19 0 0 3c0,5 0,11 -1,19 -1,8 -2,14 -5,19l25 0 0 -41zm15 48l20 -54 8 0 22 54 -8 0 -6 -17 -23 0 -6 17 -7 0zm15 -22l18 0 -5 -15c-2,-5 -3,-9 -4,-12 -1,4 -2,7 -3,11l-6 16zm46 -32l34 0 0 54 -7 0 0 -48 -20 0 0 28c0,5 0,10 0,12 -1,3 -2,5 -4,6 -1,2 -4,2 -6,2 -2,0 -4,0 -6,0l1 -7c2,1 3,1 3,1 2,0 3,0 4,-2 1,-1 1,-4 1,-8l0 -38zm46 0l6 0 0 42 29 -42 7 0 0 54 -7 0 0 -43 -28 43 -7 0 0 -54zm54 54l0 -54 38 0 0 6 -31 0 0 17 29 0 0 6 -29 0 0 18 33 0 0 7 -40 0z"/>
   <polygon class="fil1" points="375,59 327,33 327,89 "/>
  </g>
 </g>
</svg>
