<svg id="Слой_1" data-name="Слой 1" xmlns="http://www.w3.org/2000/svg" viewBox="0 0 180 180">
  <defs>
    <style>
      .cls-1 {
        font-size: 27.88px;
        font-family: Arial-BoldMT, Arial;
        font-weight: 700;
      }

      .cls-2 {
        fill: none;
      }
    </style>
  </defs>
  <title>games</title>
  <text class="cls-1" transform="translate(49 158.9)">ИГРЫ</text>
  <text></text>
  <g>
    <path d="M75.9,84.8c0,2.4.4,5.1-.5,7.2-7.6,0-6.8,1.8-6.8-7.2h-6c0-2-.3-6.2.2-8s4.1-.2,5.8-.2a35.7,35.7,0,0,1,.3-6.9h6.8a35.7,35.7,0,0,1,.3,6.9c1.7,0,4.3-.3,5.8.2a27,27,0,0,1,0,7.7c-1.5.7-4,.2-5.8.2ZM159,104c-.4-11.6-3.7-24.2-5.9-31.7-3-10.1-5.5-19.5-9.2-29.4-1.2-3.2-1.7-3.1-3.6-5.5-3.4-4.5.7-6.8-15.1-12.6-4.5-1.6-9.5-3.5-13.6-.2s-11.9,2.1-17.6,2.1H80c-5.1,0-7.6,1-12-2.4S60,23,56.8,24.1a55.6,55.6,0,0,0-10.3,4.3c-6.2,3.6-3.5,4.2-6.8,8.8-1.2,1.7-2.3,2.3-3.2,4.5q-3.4,8.7-6.1,17.8c-3.9,12.7-9.1,29.9-9.5,44.5v3.9a45.9,45.9,0,0,0,.5,5.7,25.3,25.3,0,0,0,4.3,11.3c1.9,2.5,6.4,6,9.2,5.3,7-1.6,18.5-27.4,33.1-27.3h39.4c9.3,0,10.7,0,18.1,6.9,4.9,4.6,7.8,9.3,12.1,14.1s8.2,9.2,15,2.7c4.4-4.2,6.1-10.8,6.4-18.2v-4.3ZM96.1,79.5a26.7,26.7,0,0,1,1.1-5.3c5.2-13.3,22.1-9.3,22.1,5.3.1,7.4-5.1,13.4-11.4,13.5a10.8,10.8,0,0,1-8.3-4A16.9,16.9,0,0,1,96.1,79.5Zm23.2-12.2c-.5-3.7,1.7-7.2,4.9-7.8a5.8,5.8,0,0,1,6.7,5.7c.9,9.2-10.2,10.4-11.6,2.2Zm-76.1-10c-1.1-7.3,3.1-14.3,9.4-15.7S65,45.1,66.1,52.4,63,66.7,56.8,68,44.4,64.5,43.3,57.3Zm66.9-2.2a8.5,8.5,0,0,1,1.7-4.6c4-5,9.9-1.2,10.1,4.4.1,3.7-2.4,6.8-5.6,6.9h0a5.5,5.5,0,0,1-5.6-3.9,25.9,25.9,0,0,1-.6-2.8ZM96.1,55l.4-1.6c1.5-4.5,7.2-2.9,7.1,1.7-.1,2.4-1.9,4.3-3.9,4.2a3.5,3.5,0,0,1-2.4-1.2A7.4,7.4,0,0,1,96,55Zm44.6.5c-.3,2-.3,3.1-1.7,4.6-4.1,4.3-10.6.1-9.8-5.8.5-3.5,3.2-6.6,6.4-6a6.3,6.3,0,0,1,5.1,4.5,4.2,4.2,0,0,1,.2,2.7Zm-56.9,0c-.3,2.4-1.6,4.2-4,3.9a4.1,4.1,0,0,1-3.4-4.6v-.2c.5-5.4,8-4.7,7.2.9Zm35.6-9.7c-.6-3.6,2-7.5,4.9-7.8a6.2,6.2,0,0,1,6.8,5.7C131.9,52.8,120.8,53.9,119.4,45.7ZM83,38.8c-1.7-10,11.9-13.7,13.9-3,.8,4.2-2,9.1-5.6,9.6a7.8,7.8,0,0,1-8.4-6.6Z"/>
    <path d="M46.7,54.7c.2-5,3.6-8.9,7.8-9.1,10.6-.2,10.1,18.5,0,18.2a8.2,8.2,0,0,1-7-5.3C47.4,58.2,46.7,55,46.7,54.7Zm6-11.6c-2,.7-1.7.1-3.7,1.7a12.8,12.8,0,0,0-4.4,12.1c1,6.5,6.6,11.1,12.1,9.6s9-7.5,7.9-13.8-6.8-11.4-12-9.5Z"/>
    <path d="M100,79.5c.2-5,3.6-8.9,7.8-9.1,10.2-.2,10.5,18.2,0,18.2a8.2,8.2,0,0,1-7-5.3C100.7,83,100,79.8,100,79.5ZM105.8,68c-3.1,1.2-4.3,1.4-6.3,4.6-5.7,8.9,1.7,21.1,10.4,18.7,5.5-1.3,9-7.5,7.9-13.8S111.1,66,105.8,68Z"/>
    <path d="M53.2,47.6a5.4,5.4,0,0,0-4,3c-3.3,5.5,1.3,13.4,7,11.6C64.6,59.6,61.5,45,53.2,47.6Z"/>
    <path d="M106.4,72.4a5.4,5.4,0,0,0-4,3c-3.3,5.5,1.3,13.4,7,11.6,3.5-1.1,5.6-5.3,4.6-9.3a7.7,7.7,0,0,0-2.5-4.2A5.1,5.1,0,0,0,106.4,72.4Z"/>
    <path d="M69.8,78c-1.5.6-4.1.2-5.8.2v5.3h6v6.9h4.6V83.6h6V78.3c-1.7,0-4.3.3-5.8-.2l-.2-6.8c-1.2-.5-4.3-.8-4.6.7S70.3,76.2,69.8,78Z"/>
    <path d="M133.8,50.1c-6.5,2.3-2.9,11.6,2.2,10s4.1-9.2-.1-10.3h-1C133.8,49.8,134.1,50,133.8,50.1Z"/>
    <path d="M115,50.1c-6.5,2.3-2.8,11.6,2.2,10,2.4-.8,3.9-3.7,3.2-6.5a5,5,0,0,0-3.3-3.7C115.4,49.4,115.1,50.1,115,50.1Z"/>
    <path d="M124.7,39.4a3.4,3.4,0,0,0-2.9,1.6c-2.8,3.5-.2,9.2,4,8.6s5-10-.1-10.5C124.2,39,125.2,39.3,124.7,39.4Z"/>
    <path d="M124.7,61.1c-1.5.5-1.7.1-2.9,1.6-2.8,3.5-.2,9.2,4,8.6C131.9,70.6,130,59.6,124.7,61.1Z"/>
    <path d="M85.7,41.8c2.2,2.5,6.3,3.1,8.3.1-.3-2.4-2.7-5-4.3-6.2C87.7,38.4,87.1,38.2,85.7,41.8Z"/>
    <path d="M99.1,52.5c-3.1,1.6-1,6.2,1.6,5.1a2.8,2.8,0,0,0,1.4-3.5A2.3,2.3,0,0,0,99.1,52.5Z"/>
    <path d="M79.4,52.5c-3.4,1.7-1.1,6.2,1.6,5.1S82.4,51.2,79.4,52.5Z"/>
    <path d="M91.4,33.6c.4,1.5,1.3,2.2,1.9,3.3a21.4,21.4,0,0,1,1.3,3.9c1.9-3,1.2-6.2-1-8.6Z"/>
    <path d="M85.2,41c.5-1.2.3-2,1.3-3.8a31.4,31.4,0,0,1,2-3.1c-.8-1.3-1-1.2-2.2-1.8C83.8,35.6,83.8,36.9,85.2,41Z"/>
    <path d="M87.5,31.5c2.5.1.9,1.6,4.1,0l.5-.2A3.7,3.7,0,0,0,87.5,31.5Z"/>
  </g>
  <rect class="cls-2" x="69.3" width="46.3" height="180"/>
</svg>
