<svg id="Слой_1" data-name="Слой 1" xmlns="http://www.w3.org/2000/svg" viewBox="0 0 180 180">
  <defs>
    <style>
      .cls-1 {
        font-size: 27.88px;
        font-family: Arial-BoldMT, Arial;
        font-weight: 700;
      }

      .cls-2 {
        letter-spacing: -0.02em;
      }

      .cls-3 {
        fill: none;
      }

      .cls-4 {
        fill-rule: evenodd;
      }
    </style>
  </defs>
  <title>historich</title>
  <text class="cls-1" transform="translate(21.6 157.5)">И<tspan class="cls-2" x="20" y="0">СТ</tspan><tspan x="55.8" y="0">ОРИЯ</tspan></text>
  <text></text>
  <rect class="cls-3" width="180" height="180"/>
  <rect class="cls-3" width="180" height="180"/>
  <g>
    <g>
      <path class="cls-4" d="M115.6,126.4c-.2-1.4-.9-.9-1.1-2.3a34,34,0,0,1,0-3.7c-3.4,0-6.3-.3-9.7-.3v-.6c2.1,0,3.7-.3,6-.3h3.1c1.2-.1,1.7-.3,3.1-.3l.6-4.6a7,7,0,0,0-3.7-.6l-12.2-.9c-2.7-.1-5.6,0-8.2-.3s-5.1-.1-7.1-.5l33.5-.3c.6-.9.1-.7,1.2-2.5s.2.1.5-.9l-28.5-.3-9.4-.3h-29c-1.3.4-7,8.9-.3,17.3,1.2,1.6,1.3.9,3.4.9,6.4-.1,12.7.3,19.1.3Z"/>
      <path class="cls-4" d="M107.9,25.1l.3,1.1-.3-1.1ZM137.6,4h1.5c5.1.1,10.1,1.1,13,3.7,6.2,5.7,1.7,23.1-9.1,17.1-4-2.2-4.4-9.7-.6-11.4,5.8-2.5,8.3,8,9.8,1.5.5-2-1.4-4.3-3.1-5.1s-5.9-.8-7.6-.4c-5.6,1.4-7.1,1.9-12,5.1a92.9,92.9,0,0,0-18.1,16.1c-9.8,11.4-13.8,17.7-21,30.2L85.8,69c-.9,1.4-.4,2.1-1.8,2.2a170,170,0,0,1,1.2-17.3l1.9-9.2c.3-1,.4-2,.7-3,1.1-3.9,6.7-15.5,9.9-15.8l.3,8.3a4.9,4.9,0,0,0,.1,1.3l.4.9c.1-2.6-.2-5.7.1-8.2s.4-4.2,1-5.3c1.8-3.1,8.1-8.2,9.9-8s-1.5,4.1-1.2,9.7l.5-1.7c.7-3,1.7-9.1,4-10.8a52.1,52.1,0,0,1,11.1-6C126.7,5.1,132.1,4.1,137.6,4Z"/>
      <path class="cls-4" d="M82.1,79.6c3.6,2.4,4.8-3.1,6.2-5.3,4.8-7.5,7.1-9.2,14.9-11.3a7.2,7.2,0,0,1,5.5.2c1.6.7,2.6,2.2,1.3,3.7s-4.3-.4-6.2.6-2.1,7.3,2,8.5c8.5,2.5,15.4-12.2,3.9-17.3l-1.3-.8c.4-.5,9.7-7.1,9.6-10.7-2.2-1.6-10.9-.1-13-.1,1.2-1.1,4.8-1.5,6.6-1.9a30.9,30.9,0,0,1,7.9-.6c.8-1,3-4.7,2.9-5.5-3-1.1-11.1.8-12.1.8l3.9-2c11.9-2.9,10.7-.2,12.9-6.7.5-1.6,3.8-10,4.7-11.5s.5-1.4,1.1-2.3,2.1-3.4,2.2-4.6c-3.4.3-14.7,9.7-17.4,12.5a120.5,120.5,0,0,0-13.7,16.5c-1.9,2.9-4.4,5.8-6.1,8.7C95.1,55.1,82,77,82.1,79.6Z"/>
      <path class="cls-4" d="M126.5,130.5c-1.9-3.2-3.5-3.2-7.5-3.2h-57c-6.8,0-6.8.8-9-2.4a14.6,14.6,0,0,1-2.7-8.7c.1-2.3,1.5-6.5,3-8.2s2.6-1,4.7-1l16.8.3H86.3l11.1.3h22.8c1.9,0,3.6.4,4.9-.8a6.9,6.9,0,0,0,2-3.7H103.4L80,102.8H56.4c-2.7,0-4.5-.8-7.5,4.2s-3.2,16.4,2.9,22.4c1.2,1.2,1.5,1.5,2.3,1.6H111C119.4,130.9,125.6,130.8,126.5,130.5Z"/>
      <path class="cls-4" d="M54.8,84.9l.3,1.6,14.4.7c4.5.3,9.5.5,14,.5-.8.5-2.1.2-3.1.4l-23.7.5a7,7,0,0,0,.3,3.1c1.8,1.1,5.1.3,6.8,1.4-2.1,0-4.5-.3-6.6.5l-.4,1.9c2,.7,30.1.2,34.6.2,2.9,0,5.5.3,8.3.3h13c1,.1,4.2.4,5.1.1s.7,0,1.1-2.3.7-8.4-3.9-8.4C108,85.4,55.7,84.5,54.8,84.9Z"/>
      <path class="cls-4" d="M66.4,65.2,64.3,65c-1.3-.1-.7.2-2,0a40,40,0,0,1-4.1-1c.1,2.8,2.5,6,4.8,7.4,4.2,2.5,9.9,1.7,10.5,2,1.6,1.9,1.4,4.4,2.4,5.8h1.9c-.5-4.8-7.2-22-10.7-26.6-1.6-2-4.3-5.8-6.3-7.4-4.3-3.6-9.4-8.2-16.3-5A6,6,0,0,0,41,45.4v1.5a6.9,6.9,0,0,0,1,2.8c1.2,2,5.7,2,5.8-1,0-1.4-.9-2.2-1.4-3.4-2.1-5.3,7-3.8,7.1,4.6a30.2,30.2,0,0,0,1.1,8.3C56.5,64.7,64.4,63.8,66.4,65.2Z"/>
      <path class="cls-4" d="M56.7,40.7c.2.8,4.5,3.8,6.6,5.9A48.8,48.8,0,0,1,74.9,66.3a47.6,47.6,0,0,0,1.7,4.9c3.2-1.6,4.2-8.5,3.9-10.5s-.1-5.3-.6-6.5.1-.6-.8-1-.7,4.7-1.9,6.3v-.4c-.1-.9,1.5-6.2.5-8.6a19.3,19.3,0,0,0-2.4-2.7,26.9,26.9,0,0,0-2.9-2.5A25.1,25.1,0,0,0,65.4,42C64.3,41.5,57.3,40.1,56.7,40.7Z"/>
    </g>
    <path class="cls-4" d="M51.1,80.6A4.6,4.6,0,0,0,53,83.7c1.1.6,14.4.2,16.3.3l41.9.9c3.3,0,7.4-.9,8.4,2.7s.6,6.7-1.1,9.2c-4,.3-6.1-.2-8.8-.2H92c-3.1,0-5.9-.3-9.1-.3H60.7c-2.1.3-9.3-1.4-9.8,3.6,3.4.8,16.3.3,20.8.3l20.6.4c2.1.3,17.6.1,21,.1s3.1.3,4.8.3a8.8,8.8,0,0,0,2.5-.1c3.3-1.1,5-13.8.4-18.2-2.2-2.1-6.6-.8-9.4-1.1s-27.8-.9-29.9-.7C77.3,81.2,52.1,80.2,51.1,80.6Z"/>
  </g>
</svg>
