<svg id="Слой_1" data-name="Слой 1" xmlns="http://www.w3.org/2000/svg" viewBox="0 0 180 159">
  <defs>
    <style>
      .cls-1 {
        font-size: 28px;
        font-family: Arial-BoldMT, Arial;
        font-weight: 700;
      }

      .cls-2 {
        letter-spacing: -0.02em;
      }

      .cls-3 {
        fill: #00000b;
      }
    </style>
  </defs>
  <title>home</title>
  <text class="cls-1" transform="translate(22.1 148.5)"><tspan class="cls-2">Г</tspan><tspan x="15.2" y="0">ЛАВНАЯ</tspan></text>
  <text y="-13.9"></text>
  <g>
    <path class="cls-3" d="M67.1,29.4c-1.7,1.4-3.6,1.5-4.9,5.4-6.8,2-12.2,3.2-17,9.7a16.8,16.8,0,0,0-2.4,15.4,49.2,49.2,0,0,0,2.3,4.6c-2.6.6-7.7,3.9-8.9,5.1s-4.6,4.3-6.2,7.8C21.5,95.6,40.9,113,63.2,109.8c3.4-.5,8.6-1.7,10.7-3.6v-7H70.6V74.4c-1.8.4-4.1,3.8-6.2,4.4-1.2-1.6-2.1-2.2-2.6-3a37.3,37.3,0,0,1,3.4-3.1L90.9,51.2c1.1.4,1,.6,1.8,1.3l9.2,7.8c2.7,2.6,10,8,12.9,10.8s3.3,2.4,5.4,4.7a32.5,32.5,0,0,1-2.6,3c-2-.5-4.2-3.9-6.1-4.4V99.2l-3.5.2v7.4c1.9,1.5,8.5,2.2,11.4,2.3,11.1.5,22.5-3.9,28.6-11.7,10.6-13.7,3-28.6-8-34.7-.4-10.5-5.6-14.3-15.3-17.4a16.8,16.8,0,0,0-6.4-9.9c-6.1-4.4-6.5-3.2-11.7-5.1C105.9,8.4,68.4,8.9,67.1,29.4Z" transform="translate(0 -13.9)"/>
    <path class="cls-3" d="M76.8,124.8c-2.8,1.1-6.6,3.1-6.5,6.5h41.6c.1-3.6-2.9-4.9-5.6-6.2-1-.5-.7-.2-1.1-.9V99.4H76.8Z" transform="translate(0 -13.9)"/>
    <path class="cls-3" d="M85.7,92.1H96.1c1.3,0,1.3-.3,1.3-1.6V80.8c0-1.3.1-1.4-1.3-1.4-13.2,0-11.8-.8-11.7,2.5v7.8C84.3,91.4,83.9,92.1,85.7,92.1Z" transform="translate(0 -13.9)"/>
  </g>
</svg>
