<svg id="Слой_1" data-name="Слой 1" xmlns="http://www.w3.org/2000/svg" viewBox="0 0 180 180">
  <defs>
    <style>
      .cls-1 {
        font-size: 27.88px;
        font-family: Arial-BoldMT, Arial;
        font-weight: 700;
      }

      .cls-2 {
        fill: none;
      }

      .cls-3 {
        fill-rule: evenodd;
      }
    </style>
  </defs>
  <title>igra</title>
  <text class="cls-1" transform="translate(49 158.9)">ИГРЫ</text>
  <text></text>
  <rect class="cls-2" width="180" height="180"/>
  <g>
    <path class="cls-3" d="M81.6,83.1H76.5c0,7.7,1.1,6.5-6.1,6.5-1.6,0-1.1-3.1-1.1-6.5H63.4c0-9-1.5-7.3,5.9-7.3,0-2.6-.2-4.1.3-6.2h6.7c.5,2.1.3,3.7.3,6.2,7.3,0,5.9-1.5,5.9,6.5,0,.6-.2.8-.8.8Zm77.1,16a79.3,79.3,0,0,0-3.6-19.6c-.7-2.3-1.2-4.2-1.9-6.5-1.6-5.1-8.3-29-12.3-32.2a4.6,4.6,0,0,1-1.9-2.2c-.6-1.8-.5-3.2-3.1-5-4.3-2.9-12.2-5.6-17.4-6.4-7.6-1.1-6,3.3-11.9,3.3H74.1a10.2,10.2,0,0,1-5.7-2.2c-2.2-1.6-2.9-1.5-6-1.1a50.8,50.8,0,0,0-17.5,6.3c-1.9,1.3-2.4,2.4-3.2,4.8s-1.6-1-6.1,10.2c-1.6,3.9-2.9,7.9-4.2,11.9s-4,13.4-5.7,18.8-3.6,14.3-3.6,21c0,8.6,1,16.5,7.6,21.3,1.3,1,4.2,2.4,6.3,2.4s7.9-6.2,9.1-7.9l5-5.7c3.1-3.3,11.2-11.2,16.6-11.2h47.5c6.3,0,15.4,9.6,19.7,14.7l6.9,7.1c.6.5,3.5,3,4.1,3s4.8-1.4,6.1-2.3c5.3-3.7,7.4-10.5,7.8-17.9V99.1ZM108,66.2a11.3,11.3,0,0,1,7.7,3.1c7.7,6.5,3.1,21.2-7.5,21.2a11.1,11.1,0,0,1-7.3-2.7l-2.1-2.3a7.8,7.8,0,0,1-1.1-1.9c-3.6-7.9,2-17.3,10.2-17.3Zm11.5.3c0-7.9,11.5-8.8,11.5.3,0,7.3-11.5,7.5-11.5-.3Zm-75.2-9a12.2,12.2,0,0,0,1.3,4.5,11.5,11.5,0,0,0,5.7,5.3c5.5,2.4,11.3.1,14.4-5.5,1.4-2.5,1.3-4.4,1.3-7.1s-2.6-7.2-5.2-8.8a11.1,11.1,0,0,0-14,1.4c-3.1,3-3.4,6.4-3.4,10.2Zm72-7.3a6,6,0,0,1,5.8,5.7,5.8,5.8,0,0,1-10.1,4.5c-3.2-3.7-.7-10.2,4.3-10.2Zm-15.7,2.3A4,4,0,0,1,104,56c0,3.9-4.1,5.3-6.3,3a3.9,3.9,0,0,1,2.8-6.6Zm35,9.9c-6.6,0-8-6.7-4.6-10.2a3.7,3.7,0,0,1,1.5-1.2c4.4-2,8.1,1.3,8.3,5.1s-2,6.4-5.2,6.4ZM77,56a4,4,0,0,1,3.5-3.7A3.9,3.9,0,0,1,83.3,59c-2.2,2.3-6.3.9-6.3-3Zm42.4-9c0-3.8,2.9-6.2,4.8-6.2s3.6-.1,5.2,1.8c3.2,3.8.9,10.3-4.2,10.3a6.1,6.1,0,0,1-5.9-5.9Zm-36-6.2A7.7,7.7,0,0,1,85.5,35c4.1-4,11.8-1.9,11.8,5.7,0,3.2-3.1,6.8-6.1,6.8H89.6C86.5,47.5,83.4,44,83.4,40.8Z"/>
    <path class="cls-3" d="M108,70.1c4,0,7.7,3.4,7.7,7.3s-.2,4.9-2.3,6.8a7.6,7.6,0,0,1-10.8-.3c-4.7-5.2-1.2-13.9,5.4-13.9ZM107.2,89c4.3,0,6.7-1.1,9.3-4.6a12.1,12.1,0,0,0,1.9-5.9c.3-5.4-4.6-10.9-9.3-10.9s-8.2,1.8-10.2,6.4C95.4,81.4,101.8,89,107.2,89Z"/>
    <path class="cls-3" d="M55.4,47.8a7.7,7.7,0,0,1,7.7,7.6c0,11.8-14.9,11.2-15.3.8-.2-4.4,3.3-8.4,7.6-8.4Zm-.3,18.9c5.9,0,10.3-4.4,10.6-10.5a12,12,0,0,0-2.7-7.5,15.1,15.1,0,0,0-2.7-2.2,10,10,0,0,0-9.5-.1A11.6,11.6,0,0,0,48,48.7a11.1,11.1,0,0,0-1.8,11.6,10,10,0,0,0,4.8,5.3A8.5,8.5,0,0,0,55.1,66.7Z"/>
    <path class="cls-3" d="M49,56a6.8,6.8,0,0,0,6.9,6.8c7.5,0,8.6-13.5-.5-13.5C51.6,49.2,49,52.9,49,56Z"/>
    <path class="cls-3" d="M101.6,78.3a7.9,7.9,0,0,0,1.8,4.6c4.2,4.6,11.2,1.3,11.2-4.6s-6.8-9.2-11.1-4.7A7.7,7.7,0,0,0,101.6,78.3Z"/>
    <path class="cls-3" d="M69.8,77.2H64.7V82h5.9v6.2h4.5V82H81V77.2H76c-2.1,0,.5-6.5-1.6-6.5H71.4C69.3,70.7,72,77.2,69.8,77.2Z"/>
    <path class="cls-3" d="M111.7,56a4.5,4.5,0,1,0,9.1.3C120.8,49.8,111.7,50.3,111.7,56Z"/>
    <path class="cls-3" d="M130.4,56.3c0,4.1,4.9,6.3,7.7,3.3s.8-8.1-3.2-8.1A4.7,4.7,0,0,0,130.4,56.3Z"/>
    <path class="cls-3" d="M120.8,46.7c0,6.6,8.8,5.7,8.8.8C129.6,39.3,120.8,41.2,120.8,46.7Z"/>
    <path class="cls-3" d="M120.8,66.2c0,6.6,8.8,5.7,8.8.8C129.6,58.8,120.8,60.6,120.8,66.2Z"/>
    <path class="cls-3" d="M86.1,44.4c1.9,1.4,3.5,2.5,6.4,1.4s2.4-1.9.2-4.7a13.1,13.1,0,0,0-2.6-2.3c-1.1,1.7-2.1,1.8-3.2,3.9S86.4,43.7,86.1,44.4Z"/>
    <path class="cls-3" d="M102.6,56.3a2.5,2.5,0,0,0-2.4-2.5c-2.1,0-3,2.8-1.6,4.3A2.4,2.4,0,0,0,102.6,56.3Z"/>
    <path class="cls-3" d="M78.4,56.3a2.4,2.4,0,0,0,4,1.7c1.4-1.5.5-4.3-1.6-4.3A2.5,2.5,0,0,0,78.4,56.3Z"/>
    <path class="cls-3" d="M92,36.8c.2,2.6,1.7,1,2.9,6.8l.6-1c1.4-3-.6-5.5-1.4-6.9A12.3,12.3,0,0,0,92,36.8Z"/>
    <path class="cls-3" d="M84.8,39.9c0,2.5.4,2,.8,3.7l.3-.8c.1-.4.1-.5.2-.9a6.7,6.7,0,0,1,.8-1.7c.6-1.1,1.3-1.8,1.9-2.8s-1-1-2.1-1.7C85.8,36.9,84.8,37.8,84.8,39.9Z"/>
    <path class="cls-3" d="M88,34.8l2.2,1c.4,0,1.4-.6,2.4-.7s0-.3-.8-.6S89.4,34.5,88,34.8Z"/>
  </g>
</svg>
