<?xml version="1.0" encoding="UTF-8"?>
<!DOCTYPE svg PUBLIC "-//W3C//DTD SVG 1.1//EN" "http://www.w3.org/Graphics/SVG/1.1/DTD/svg11.dtd">
<!-- Creator: CorelDRAW X8 -->
<svg xmlns="http://www.w3.org/2000/svg" xml:space="preserve" width="500px" height="500px" version="1.1" style="shape-rendering:geometricPrecision; text-rendering:geometricPrecision; image-rendering:optimizeQuality; fill-rule:evenodd; clip-rule:evenodd"
viewBox="0 0 500 500"
 xmlns:xlink="http://www.w3.org/1999/xlink">
 <defs>
  <style type="text/css">
   <![CDATA[
    .fil0 {fill:black}
    .fil1 {fill:#3F5B3F}
    .fil2 {fill:#9E9E9E}
   ]]>
  </style>
 </defs>
 <g id="Слой_x0020_1">
  <metadata id="CorelCorpID_0Corel-Layer"/>
  <path class="fil0" d="M311 332c4,-1 7,-3 11,-5l0 8c-1,3 -8,4 -10,6l-1 3c3,0 8,-4 11,-4l0 7c-3,2 -10,4 -11,6l0 2c3,0 9,-3 12,-4l0 6c0,2 0,2 -2,3 -3,1 -6,3 -10,4l1 4c2,0 7,-4 10,-5l0 8 -10 5 -1 3c4,0 8,-4 12,-4l0 8c-3,1 -9,5 -12,5l0 4c4,0 8,-4 12,-5 0,9 1,7 -7,11 -1,1 -6,3 -7,5 -2,2 -3,4 -4,7 -15,22 -46,28 -68,11 -5,-5 -10,-11 -12,-16 -2,-3 -2,-6 -3,-8 -4,0 -8,3 -12,4 0,-10 -1,-7 6,-10 7,-3 5,-2 5,-6 -3,1 -7,4 -11,5l0 -8 11 -5 0 -3c-3,1 -7,3 -11,4l0 -8 11 -5 0 -3c-3,0 -8,4 -11,4 0,-13 -1,-6 10,-13 2,0 1,1 1,-3 -3,0 -8,3 -11,4l0 -8c3,-1 9,-4 11,-5l0 -3c-3,0 -7,4 -11,5l0 -9c3,-1 4,-2 7,-3 4,-2 5,-1 4,-6 -3,1 -8,4 -11,5l0 -8c3,-2 8,-4 11,-6l0 -6 10 0 0 6c3,1 11,4 12,6l0 6c10,0 55,1 57,0 -2,-2 -9,-3 -12,-5l0 -7c4,1 9,4 13,4l0 -10c15,0 9,-1 11,10 3,0 7,-3 11,-4 0,9 1,7 -6,10 -5,2 -6,1 -6,6l0 0zm-65 -29l0 0c1,3 5,6 6,7 0,2 -5,5 -6,7l11 0 0 10c3,-1 5,-5 8,-6 3,1 5,4 8,6 0,-13 -3,-10 13,-10 -2,-3 -6,-4 -7,-7 1,-3 5,-4 7,-7l-13 0 -1 -11c-1,1 -2,2 -3,3 -1,1 -2,2 -4,3l-8 -6 0 11 -11 0zm120 -66l0 0c2,-2 7,-4 7,1 0,2 -2,3 -2,5 -2,0 -4,-4 -5,-6zm-155 17l0 0c0,3 -1,6 1,8 2,3 6,2 8,0 2,-1 3,-3 5,-5l2 -5c1,-1 1,-1 2,-2 -1,5 -6,15 -8,19 -2,3 -3,6 -5,9 -1,2 -4,7 -5,9 10,0 9,-3 12,-9 4,-12 6,-18 13,-28 1,-2 8,-9 12,-9 1,4 -9,13 -6,21 2,3 7,3 10,1 3,-3 4,-7 6,-8 1,12 12,11 19,4 2,2 2,3 4,4 6,3 11,-3 14,-8 2,-3 3,-7 5,-11 2,-4 4,-9 8,-9 -2,7 -8,14 -8,21 -1,5 1,9 7,8 2,-1 5,-4 6,-5l1 -2c1,-1 0,0 1,-1 0,3 0,5 2,7 7,5 13,-7 15,-9 -1,4 -1,9 3,10 5,1 7,-4 10,-5 1,2 2,4 5,5 9,2 16,-12 17,-14 -4,0 -6,-2 -5,-6 2,-5 3,-2 1,-8 -2,1 -4,5 -4,8 -1,5 2,5 4,7 -1,3 -6,8 -8,10 -2,1 -5,1 -7,-1 -1,-3 2,-3 0,-7 -2,-2 -4,5 -7,8 -5,2 -7,-1 -4,-8 1,-3 3,-7 5,-10 2,-4 3,-7 6,-10 -1,0 -5,0 -6,1 -3,0 -6,10 -8,13 -2,4 -10,17 -14,14 -3,-3 5,-17 8,-22 1,-3 2,-4 4,-6 -2,0 -5,0 -6,0 -2,1 -3,3 -4,4 -1,3 -3,7 -4,10 -3,4 -7,15 -13,14 -4,-2 4,-17 7,-22 1,-3 2,-3 4,-6 -2,0 -7,0 -9,0 -3,0 -4,2 -5,4 -4,5 -8,19 -14,23 -1,1 -4,2 -6,0 -3,-2 1,-4 -1,-6 -3,-4 -3,5 -11,8 -8,3 -8,-7 -6,-11 6,-2 11,-2 16,-10 5,-8 -3,-12 -11,-6 -5,4 -7,7 -10,15 -2,3 -8,14 -12,11 -2,-6 9,-21 10,-27 -6,1 -14,7 -18,11 -2,2 -3,3 -5,5 1,-5 5,-12 3,-17 -3,0 -5,1 -7,1 1,3 1,5 0,9 -1,3 -2,5 -4,8 -1,2 -6,12 -9,10 -1,-1 -1,-1 -1,-3 0,-5 5,-14 8,-18l-5 0c-3,0 -6,8 -7,10 -13,21 -19,10 -6,-7 2,-3 10,-12 14,-8 2,2 1,2 2,3 4,-3 -4,-9 -14,-4 -4,2 -9,7 -11,12 -1,3 -3,6 -3,9 0,4 1,8 4,9 6,1 11,-7 13,-10l0 0zm-46 -53l0 0c4,-1 13,0 17,-1 1,-1 1,-2 2,-3 6,-9 13,-3 10,1 -2,1 -4,2 -6,3 -4,1 -4,0 -6,4 -1,2 -2,3 -2,6 -6,12 -8,23 -15,38 -1,1 -6,11 -6,10 0,0 -1,0 -1,0 -1,-8 -4,-4 1,-10 3,-5 6,-12 8,-18l14 -29c-4,0 -6,0 -9,1 -6,1 -5,-1 -7,-2l0 0zm52 65l0 0c-1,3 -4,7 -6,9 -3,1 -5,3 -9,4 -19,6 -31,-16 -33,-33 0,-9 0,-6 6,-8 10,-4 21,-12 30,-18l7 -7c1,-1 3,-2 4,-3l8 -9c1,-1 1,-1 1,-2 2,-1 2,-2 3,-4 3,-3 4,-6 7,-6 1,3 -14,21 -17,24l-6 5c-1,1 -1,1 -2,2 -5,4 -10,8 -16,12 -12,8 -13,6 -19,9 0,7 7,36 21,36 5,0 10,-2 13,-4 7,-3 5,-6 8,-7l0 0zm20 190l0 0c-1,1 -1,1 -2,1 -1,0 -3,-2 -3,-3 0,-4 4,-3 8,-5l0 0c3,0 3,1 7,1 3,0 4,1 7,1 7,0 6,4 8,7 1,3 4,2 5,-1 1,-2 1,-4 3,-5 2,-2 1,1 5,-1 4,0 3,1 6,-2 2,1 2,2 4,3l4 2c2,0 1,0 3,0 1,0 2,0 3,0 1,0 1,-1 2,-2l2 0c0,2 0,1 1,2 -1,2 -2,4 -2,7 3,2 3,0 10,-1l4 -1c3,-1 4,-2 7,-3 2,-1 2,-1 4,-2 1,-1 3,-1 4,-1 2,-1 4,-2 6,-3 3,-1 4,0 5,-3 1,-1 2,-2 2,-3 1,-1 1,-2 2,-4 1,0 2,-1 4,-1 1,0 4,3 8,0 0,-1 1,-1 1,-1 4,-2 4,1 8,3 2,1 4,0 5,4l14 0c3,-7 -1,-9 4,-12 2,-1 2,-1 2,-4 0,-2 0,1 0,-1l1 -2c0,0 0,-1 0,-1 2,-6 2,-5 2,-11 -1,-3 -1,-1 -1,-4 0,-7 0,-5 -1,-9 0,-1 0,-1 0,-2 -1,-3 -2,-5 -5,-5 -1,-1 -2,-1 -4,-1 1,-2 5,-5 5,-9 1,-6 2,-14 0,-20 0,-3 -1,-2 -3,-3 -3,-2 -2,-2 -5,-2 -1,0 -2,0 -2,0 -2,0 -3,1 -6,0 -7,-3 -9,2 -19,-13 -1,0 -1,-1 -2,-2 -1,-3 -3,-5 -3,-10 -1,-5 1,-11 1,-16 0,-4 1,-8 1,-13 0,-2 -1,-2 -1,-4 -2,0 -1,0 -3,-2 -2,-1 -2,-2 -3,-4 0,0 0,0 -1,-1 0,-1 -1,-3 0,-4 0,-2 1,-3 2,-3 2,-2 5,0 7,0 6,0 7,1 11,-3 2,-2 3,-3 3,-7 0,-3 0,-7 0,-9 1,-3 1,-5 3,-7 2,6 11,5 17,-9 1,0 1,-1 2,-2 1,-2 1,-2 1,-4 -3,0 -3,2 -4,4 -1,2 -2,3 -2,5 -8,12 -16,9 -1,-14 1,-2 2,-6 4,-6l0 -1c-4,0 -3,-1 -7,1 -1,-2 -2,-3 -5,-3 -2,1 -4,2 -6,3 -1,-2 -1,-3 -2,-5l-6 -8c-2,-1 -1,-2 -3,-3 3,-4 1,-5 -2,-10 -2,-4 -3,-10 -5,-15l-2 -4c0,0 0,0 0,0l-2 -5c-1,-4 -2,-9 -5,-11 -2,-1 -2,-1 -3,-1 -3,-12 0,-34 -2,-42 0,-3 0,-1 -1,-5 0,-1 -1,-2 -1,-3l-2 -2c-2,-1 1,-1 -2,-2 -1,-1 0,0 -2,-1 -1,0 -1,-1 -1,-1 0,0 0,0 0,0l-1 -1c-1,-2 0,-2 0,-2 0,0 0,0 0,-1 -1,-2 1,-2 0,-6 -1,-1 0,-1 -1,-2 0,-1 0,-1 -1,-2 0,-1 0,0 0,-1 -1,-2 -2,-4 -3,-5 0,-2 0,-1 -1,-2l0 -1c0,0 -1,0 -1,-1l-8 -10c-2,-2 -4,-3 -6,-5l-3 -4c-3,-5 -4,-7 -10,-11l-5 -4c-3,-1 -8,-2 -11,0 0,6 -1,6 -7,6 0,3 -1,2 -1,4 -1,1 0,2 -1,3 0,1 0,0 -1,2 -2,-1 -5,-2 -7,-2 -3,-1 -3,0 -6,-2 -4,-3 0,-10 -3,-11 -1,0 -1,0 -2,0 -1,-1 -1,-1 -2,-1l1 -5c0,-2 0,-4 0,-6 -5,0 -8,-2 -12,-3l-21 -7c-1,0 -3,0 -4,0l-16 -4c-11,-3 -12,-4 -10,6l2 15c0,3 2,10 3,13 3,12 0,17 3,23 3,5 3,7 2,12 -1,2 -1,3 -1,5 -2,0 -5,0 -7,0 -1,-1 -3,-1 -5,-1 -2,0 -3,2 -3,3 -1,3 1,3 1,5 -3,4 -1,-2 -5,10 0,1 -1,1 -1,1 0,2 0,2 -1,3 -1,2 -5,1 -4,7 1,1 2,1 3,2 1,1 2,2 3,3 -1,2 0,4 -3,5 -3,0 -4,0 -6,4 -3,6 -3,13 -1,20 2,4 3,7 8,5l2 6c-2,0 -4,1 -5,2 -2,2 -2,3 -2,6 -1,2 -1,4 -1,7 0,1 1,2 1,3 0,2 0,1 1,3 -5,-1 -26,4 -31,15 -4,7 -5,16 3,22 3,2 8,3 12,1 6,-2 10,-7 10,-14 0,-3 0,-5 -3,-5 0,6 0,13 -6,16 -17,9 -21,-24 8,-31 2,0 8,-2 10,-1 2,0 5,4 5,6 1,7 -3,12 -6,17 -3,8 -2,7 -7,10 -1,1 -2,2 -4,2 -2,1 -6,1 -4,6l5 7c-10,14 -30,25 -46,21 -4,0 -9,-3 -11,-5 -3,-3 -6,-6 -6,-12 0,-10 3,-12 8,-17 4,-3 -1,-3 -3,-1 -15,9 -10,34 12,40 2,0 4,1 7,1l8 0c9,0 17,-4 24,-10 3,-2 7,-5 9,-9l0 1c0,0 1,1 1,1 0,1 0,1 0,1 1,2 1,2 2,4 1,2 2,3 5,4 2,1 4,2 5,4 1,2 2,4 4,6 1,1 2,3 3,5 1,2 2,4 3,7l2 7c1,3 2,4 3,6 1,2 3,5 3,7 0,1 0,1 -1,2l-7 11c-1,2 -1,1 -1,2 -1,2 -6,10 -8,11 -2,2 -2,3 -3,4l-7 7c-2,1 -3,2 -5,3 -4,3 -7,6 -11,8 -3,2 -7,7 -10,10 -2,1 -3,3 -4,4 -2,1 -3,3 -5,4 -3,2 -5,3 -8,5 0,1 0,1 0,1l-5 4c-2,1 -1,2 -3,3l-5 4c-2,2 -3,2 -6,3 -2,1 -1,3 -4,5 -2,1 -5,3 -5,4 -2,3 -1,6 1,9 1,1 3,2 4,3 0,2 0,3 1,5 1,0 6,1 8,3 2,1 5,2 6,3 2,0 1,0 3,1 0,0 1,0 1,1l10 5c0,0 0,0 1,0l6 4c0,0 0,1 2,1 5,0 1,-1 7,2l5 3c1,1 2,1 2,1l27 15c1,1 1,2 3,3 1,0 1,1 2,1l8 4c1,1 0,0 2,1 1,0 0,0 1,0 0,0 0,1 1,1l1 1c0,0 0,0 0,0 0,0 1,0 1,0l1 1c1,1 1,1 2,1 5,0 12,5 19,2 1,-1 3,-1 5,-2 0,-2 -1,-1 -1,-3 1,-1 1,-2 3,-2 3,-2 6,2 6,-7 2,1 3,3 5,4 0,0 0,0 0,0 2,0 3,2 4,2 1,0 2,0 3,0 0,-1 1,-1 2,-2 1,-1 0,-1 1,-3 1,-2 1,-2 2,-3 0,0 0,0 0,0 1,-1 1,-2 1,-3 1,-1 0,-2 -1,-2 -2,-1 -1,0 -3,-2 -1,-1 -1,-2 -3,-1 -2,0 -1,0 -2,0l-1 1 0 0z"/>
  <path class="fil0" d="M259 391c1,-1 1,-2 2,-2 1,0 0,2 1,3 1,1 1,2 2,3 0,0 0,-1 0,-1l1 -2c2,7 1,3 0,6 0,1 0,3 0,4 -1,0 -1,-1 -2,-1 0,2 0,3 0,5 -2,-1 -2,-1 -3,-2l0 5c-2,0 -4,-2 -6,-1 -2,0 -1,2 -6,1 0,-2 0,0 -1,-1 -1,-2 1,0 -1,-2 1,-1 1,0 0,-2 2,-1 1,0 2,-2 2,0 0,0 2,1 1,0 1,1 2,0 0,-1 0,0 -1,-1 0,0 1,1 -1,0 0,-2 0,-2 0,-4 0,0 0,0 0,0l-1 0c0,0 0,0 0,0l0 0c0,0 0,0 -1,0 0,-7 6,-15 9,-16 4,4 -1,1 2,9l0 0zm-3 -41l0 0c0,1 3,2 4,2 2,1 4,0 6,0l-8 2c-1,-1 -2,-2 -2,-4l0 0zm-4 6l0 0c1,-3 1,-2 0,-4 -2,-2 -2,0 -1,-2l-1 -2 -2 2c-2,0 1,1 -3,0l0 2 -2 -1c0,1 -1,2 -1,3 1,1 3,0 3,2 0,2 -1,1 -1,4 0,0 0,0 0,0l1 0c1,0 0,0 1,1 -1,1 -1,2 -1,4 2,-1 1,-1 3,-2 -2,7 2,3 2,3 1,1 1,1 2,2 1,0 2,-1 3,-2l-2 -1c0,0 0,0 0,0 1,-2 1,-1 3,-3l-2 0 5 -3 -7 -3 0 0zm35 -4l0 0c-1,-1 -1,-1 -2,-2 -1,-2 0,0 1,-1l1 -1c-3,-4 -3,-1 -5,-4 0,-1 0,-1 0,-1 0,0 0,0 0,0 -4,0 -4,1 -6,1 -2,0 -3,0 -6,0 -3,1 -2,2 -4,3 -1,1 -3,1 -5,2l1 2c3,0 5,-3 7,1 0,1 -1,1 -2,1 -1,1 -1,0 -2,1l-1 0c1,2 2,1 5,1 0,0 0,0 0,0l-13 6c1,1 1,1 2,2 -1,0 -2,1 -4,1 0,0 1,0 1,0l1 1c0,2 -5,5 -7,6 -3,-1 2,-1 -6,-1l-1 -2c-2,1 -2,1 -2,1 0,3 1,-1 0,1 0,0 -1,1 -1,1l2 1 -2 0 1 2 -2 0c2,1 1,2 2,3 2,-1 1,-1 3,-1l1 2c2,3 2,1 3,0 0,0 0,0 0,0 1,1 1,1 3,2l0 -2c1,0 0,0 1,0l2 2c1,-1 -1,-3 3,-3 0,1 0,2 1,3 1,2 1,2 2,3 0,2 0,4 0,6 2,-1 1,-1 3,-2 0,3 1,4 1,6l1 -1c2,-2 -1,1 0,-1 1,0 1,0 2,-1 1,3 0,4 2,7 1,2 2,3 3,5l2 -2c2,6 5,1 6,4 -3,0 -3,0 -5,1l1 1 -1 1 2 0 -1 2 2 0 0 1c1,1 0,0 2,1 1,1 -1,0 1,1 4,-3 1,-3 4,-5 2,-1 4,-2 5,-3 -1,-2 -2,-2 -3,-4l2 -1c-1,-2 -2,-2 -3,-4l2 -1c0,-2 -2,-2 -3,-4 2,-1 1,0 2,-1 -3,-2 -3,0 -5,-4 1,-1 3,-2 4,-4 -3,0 -4,0 -6,-2 0,-1 -2,-3 -3,-4l2 -2c1,0 1,0 1,1 1,1 0,0 1,0 1,-2 1,-2 1,-4 2,1 1,1 2,1l0 -4c2,1 2,1 3,2 0,-4 0,-4 -1,-7l2 0c0,-2 -1,-3 -1,-6 1,0 1,0 2,1 0,-3 0,-3 -2,-4 1,-1 1,0 1,-1l0 0zm14 -14l0 0 -70 0c-1,8 0,20 0,29 0,19 -3,36 13,47 21,16 52,5 57,-17 1,-7 0,-22 0,-30 0,-9 1,-21 0,-29z"/>
  <path class="fil0" d="M265 249c6,-1 10,-4 13,-9 1,-1 2,-4 1,-5 -3,-3 -13,10 -14,14z"/>
  <path class="fil0" d="M261 310c1,1 3,3 4,4 1,-1 4,-3 5,-4 -1,-1 -4,-3 -5,-4l-3 3c-1,1 -1,0 -1,1z"/>
  <path class="fil0" d="M186 199c3,0 6,-1 6,-4 -4,0 -5,3 -6,4z"/>
  <path class="fil1" d="M327 117l0 1 -1 0 1 -1zm1 4l0 0c0,-2 0,-1 0,-2 -1,-2 -1,-1 -1,-2l0 0c-4,0 -3,0 -5,-4 0,1 0,1 0,1 0,0 -1,0 0,2l1 1c0,0 0,0 0,0 0,0 0,1 1,1 2,1 1,0 2,1 3,1 0,1 2,2z"/>
  <path class="fil2" d="M237 456l-1 0c-1,1 0,1 -2,1 0,-3 -1,-1 -2,-4 2,-2 3,-3 5,-3 0,0 2,0 2,0 1,0 0,1 1,-1 -4,2 -8,1 -8,5 0,1 2,3 3,3 1,0 1,0 2,-1l0 0z"/>
 </g>
</svg>
