<?xml version="1.0" encoding="UTF-8"?>
<!DOCTYPE svg PUBLIC "-//W3C//DTD SVG 1.1//EN" "http://www.w3.org/Graphics/SVG/1.1/DTD/svg11.dtd">
<!-- Creator: CorelDRAW X8 -->
<svg xmlns="http://www.w3.org/2000/svg" xml:space="preserve" width="1000px" height="1000px" version="1.1" style="shape-rendering:geometricPrecision; text-rendering:geometricPrecision; image-rendering:optimizeQuality; fill-rule:evenodd; clip-rule:evenodd"
viewBox="0 0 1000 1000"
 xmlns:xlink="http://www.w3.org/1999/xlink">
 <defs>
  <style type="text/css">
   <![CDATA[
    .fil1 {fill:black}
    .fil2 {fill:#3F5B3F}
    .fil0 {fill:#5BA1C8}
    .fil3 {fill:#9E9E9E}
   ]]>
  </style>
 </defs>
 <g id="Слой_x0020_1">
  <metadata id="CorelCorpID_0Corel-Layer"/>
  <rect class="fil0" y="-3" width="1000" height="1000"/>
  <path class="fil1" d="M644 656c8,-2 15,-7 23,-10l0 16c-2,5 -18,8 -22,11l-1 6c6,0 17,-7 23,-8l0 15c-7,5 -22,9 -23,12l0 5c6,-1 18,-7 24,-9l0 12c0,5 0,4 -4,6 -6,2 -12,6 -20,9l1 7c5,0 16,-7 22,-9l0 16 -22 11 -1 6c8,0 17,-8 24,-9l0 16c-5,2 -19,10 -24,11l0 7c7,0 16,-8 24,-9 0,18 3,14 -14,22 -3,2 -13,6 -15,9 -3,5 -5,10 -8,16 -29,44 -92,56 -137,21 -11,-9 -21,-21 -26,-33 -3,-5 -3,-12 -6,-16 -7,0 -16,7 -23,9 0,-20 -3,-15 11,-21 14,-6 11,-4 11,-11 -7,1 -15,7 -22,9l0 -16 22 -10 0 -7c-7,2 -15,8 -22,9l0 -17 22 -9 0 -7c-6,1 -16,8 -22,9 0,-26 -3,-13 20,-26 3,-1 2,1 2,-7 -7,0 -16,7 -22,9l0 -16c5,-3 17,-10 22,-11l0 -7c-7,1 -15,8 -22,10l0 -17c5,-2 8,-4 13,-7 8,-4 10,-1 9,-12 -6,2 -16,8 -22,11l0 -16c6,-5 15,-8 22,-13l0 -12 21 -1 0 13c5,3 21,9 24,12l0 13c19,0 112,2 115,0 -3,-4 -18,-6 -23,-10l0 -14c8,1 17,7 25,8l0 -21c31,-1 19,-2 22,20 6,1 16,-6 23,-8 0,18 3,15 -13,21 -9,3 -11,1 -11,12zm-133 -59l0 0c2,5 11,11 12,14 0,3 -10,10 -12,14l24 0 0 21c5,-2 10,-10 16,-12 6,2 9,8 15,12 0,-27 -6,-20 26,-21 -3,-5 -11,-8 -14,-14 3,-6 10,-8 14,-14l-26 0 -1 -22c-3,2 -4,3 -7,6 -2,2 -4,4 -7,5l-16 -11 0 22 -24 0zm245 -134l0 0c3,-5 13,-8 13,1 0,5 -3,7 -4,11 -4,-1 -7,-9 -9,-12zm-315 34l0 0c0,6 -2,12 2,17 4,5 11,4 15,0 4,-2 7,-7 10,-11l6 -10c1,-3 1,-2 3,-4 -2,10 -12,30 -17,39 -3,6 -6,12 -9,18 -2,3 -9,15 -10,18 19,1 17,-5 23,-19 10,-24 13,-36 28,-56 2,-4 16,-19 23,-18 3,8 -18,26 -11,42 3,6 13,7 19,2 7,-6 10,-13 13,-15 2,23 25,22 39,8 3,3 3,6 8,8 13,6 22,-6 29,-17 4,-7 6,-15 10,-23 4,-8 7,-17 15,-18 -3,14 -15,28 -16,44 -1,10 3,17 14,15 4,-2 10,-7 12,-10l2 -3c2,-2 0,0 2,-2 0,6 0,10 4,13 15,10 28,-14 31,-18 -1,9 -1,18 7,20 10,2 14,-7 19,-10 3,5 4,9 11,10 19,5 33,-24 34,-29 -8,0 -12,-3 -9,-12 3,-10 6,-4 2,-15 -4,2 -8,10 -8,15 -2,11 3,11 8,15 -3,7 -12,17 -16,20 -5,3 -11,3 -14,-1 -4,-7 3,-7 -1,-14 -5,-5 -9,10 -15,15 -9,5 -13,-1 -8,-15 3,-8 7,-15 10,-22 4,-7 6,-13 13,-19 -3,0 -11,0 -13,1 -5,1 -12,20 -16,27 -4,7 -19,35 -27,29 -7,-6 10,-35 15,-45 3,-7 5,-8 9,-12 -4,0 -11,0 -13,0 -4,1 -5,5 -7,8 -3,6 -6,13 -10,19 -5,9 -14,32 -25,30 -9,-5 8,-36 13,-45 3,-7 4,-7 9,-12 -4,0 -14,0 -18,0 -6,0 -9,3 -11,7 -7,10 -15,39 -27,47 -3,3 -10,5 -14,1 -6,-5 2,-8 -1,-13 -7,-8 -7,10 -22,16 -17,7 -17,-13 -12,-23 11,-4 22,-3 32,-19 10,-17 -7,-24 -22,-12 -11,8 -15,14 -21,30 -3,7 -16,29 -24,23 -5,-12 18,-44 21,-55 -13,1 -29,13 -38,21 -3,4 -5,7 -9,11 2,-10 9,-24 5,-34 -5,-1 -9,1 -14,1 2,7 3,10 0,18 -1,6 -4,11 -7,16 -3,6 -14,25 -20,22 -2,-2 -2,-2 -2,-6 1,-11 11,-29 17,-37l-10 -1c-6,1 -12,16 -15,21 -25,43 -39,20 -12,-14 5,-6 21,-24 29,-16 3,3 1,3 4,5 9,-5 -8,-17 -28,-8 -9,5 -18,15 -23,25 -2,5 -5,12 -5,19 -1,7 1,15 7,17 12,3 22,-14 27,-20zm-93 -107l0 0c8,-3 25,-1 33,-3 3,-1 3,-3 4,-5 13,-19 27,-7 20,1 -3,3 -7,5 -12,7 -8,2 -7,-1 -11,7 -2,4 -4,7 -5,12 -11,26 -16,47 -30,77 -1,2 -12,23 -13,22 0,-1 -1,0 -1,0 -3,-18 -8,-8 1,-22 6,-10 13,-23 18,-35l27 -59c-7,0 -12,0 -18,1 -12,2 -9,-1 -13,-3zm104 131l0 0c-1,7 -8,15 -12,18 -5,3 -10,7 -17,9 -40,13 -63,-33 -67,-68 -1,-17 0,-12 12,-16 19,-7 43,-24 60,-37l15 -13c2,-3 5,-5 7,-7l17 -18c2,-1 2,-2 3,-3 3,-3 4,-5 6,-8 6,-7 8,-14 13,-14 3,8 -29,44 -35,50l-12 10c-1,1 -2,2 -3,3 -10,9 -21,17 -33,25 -24,16 -27,13 -38,19 -1,14 13,72 43,72 9,0 19,-3 25,-7 14,-7 10,-13 16,-15zm41 386l0 0c-2,3 -1,3 -4,3 -2,-1 -5,-5 -5,-6 0,-9 7,-7 15,-10l1 0c6,0 6,2 13,2 7,0 8,2 15,2 14,0 12,8 16,14 3,5 9,4 11,-2 1,-4 2,-8 5,-10 5,-4 2,1 11,-2 7,-1 5,1 12,-4 3,2 3,4 7,5l9 4c4,1 3,0 7,1 2,0 3,0 6,0 1,-1 2,-2 3,-4l4 0c0,3 0,2 2,3 -2,5 -4,8 -4,14 6,5 6,1 20,-2l8 -2c7,-2 8,-4 16,-6 3,-1 4,-2 7,-4 3,-1 6,-2 9,-2 4,-2 8,-4 12,-5 5,-2 7,-1 10,-6 1,-3 4,-4 4,-6 2,-3 1,-5 4,-8 1,-1 4,-3 7,-3 3,0 9,6 17,0 1,-1 2,-1 3,-2 8,-4 8,2 15,6 5,3 8,1 11,8l28 0c6,-13 -1,-18 8,-24 4,-2 4,-3 5,-9 0,-3 -1,2 0,-1l1 -4c0,-1 0,-2 1,-3 3,-12 4,-9 3,-22 -1,-6 -2,-2 -1,-7 0,-15 -1,-11 -2,-19 -1,-2 0,-3 -1,-5 -1,-6 -3,-9 -9,-10 -3,-1 -4,-1 -8,-1 1,-5 9,-10 10,-18 1,-12 4,-30 0,-42 -1,-5 -3,-4 -7,-6 -5,-3 -4,-4 -11,-3 -1,0 -3,-1 -4,0 -4,0 -6,2 -11,0 -15,-7 -18,3 -39,-26 -1,-1 -2,-3 -3,-5 -4,-6 -7,-11 -8,-20 -1,-11 2,-23 3,-33 0,-8 2,-17 1,-26 0,-4 -1,-4 -1,-9 -4,0 -2,0 -6,-3 -4,-2 -4,-5 -6,-8 0,-1 -1,-1 -2,-3 -1,-2 -2,-5 -1,-8 0,-3 2,-5 4,-6 4,-3 10,1 16,1 12,0 14,2 22,-7 4,-5 5,-7 5,-14 0,-6 0,-14 1,-18 2,-6 1,-11 6,-14 3,11 21,9 34,-18 2,-2 3,-4 4,-6 2,-4 3,-4 2,-8 -5,0 -5,5 -7,9 -2,3 -4,7 -6,10 -15,25 -32,18 -2,-29 2,-4 6,-11 10,-11l0 -2c-9,0 -8,-3 -15,2 -2,-4 -5,-6 -10,-6 -5,1 -9,3 -12,5 -2,-3 -3,-6 -5,-9l-12 -16c-3,-3 -1,-6 -5,-8 5,-7 2,-9 -4,-19 -5,-9 -7,-20 -12,-30l-3 -8c0,-1 -1,-1 -1,-1l-3 -10c-2,-8 -4,-18 -11,-23 -3,-2 -3,-2 -6,-1 -6,-24 1,-70 -3,-85 -1,-6 -1,-2 -3,-12 0,-1 -1,-4 -2,-5l-3 -5c-4,-2 1,-1 -4,-4 -2,-1 -1,1 -5,-2 -1,0 -1,-1 -1,-1 0,0 0,0 0,0l-2 -3c-2,-4 -1,-3 -1,-4 0,0 0,0 0,-1 -1,-5 2,-4 0,-13 -1,-1 0,-1 -1,-3 0,-2 0,-2 -2,-5 0,-1 0,0 -1,-2 -2,-4 -4,-7 -6,-11 -1,-3 -1,-2 -2,-4l-1 -2c0,0 -1,0 -1,-1l-16 -21c-4,-3 -9,-6 -12,-9l-6 -8c-7,-10 -8,-15 -21,-24l-10 -7c-7,-3 -17,-4 -23,0 0,12 -1,12 -13,12 0,6 -2,5 -3,9 -1,2 0,3 -1,5 -1,2 -1,1 -2,4 -4,-2 -11,-3 -15,-4 -6,-2 -7,0 -13,-4 -7,-6 1,-20 -6,-22 -2,-1 -2,0 -4,-1 -1,-1 -1,-1 -3,-2l2 -10c0,-3 0,-8 0,-11 -10,0 -16,-5 -25,-7l-42 -13c-3,0 -6,-1 -8,-1l-34 -9c-22,-5 -24,-8 -19,14l4 29c0,7 3,21 5,28 7,23 0,34 7,45 6,10 5,15 3,26 -1,3 -2,6 -2,9 -4,0 -9,0 -13,0 -3,-1 -7,-2 -11,-2 -3,1 -6,4 -6,7 -1,5 2,6 3,10 -6,8 -2,-5 -11,20 0,1 -1,2 -1,2 -1,3 0,4 -2,6 -3,4 -11,3 -8,14 1,3 3,3 6,5 2,2 3,4 5,6 -2,4 0,8 -5,9 -7,1 -10,1 -14,8 -6,13 -6,27 -1,41 4,9 5,14 16,11l5 11c-5,1 -8,2 -11,5 -4,3 -4,5 -5,11 -1,4 -1,9 -1,15 0,3 1,4 1,6 1,5 2,3 3,7 -10,-3 -52,8 -63,29 -8,15 -10,34 6,45 7,5 16,7 25,3 12,-5 19,-15 19,-28 0,-6 0,-11 -5,-12 0,14 0,28 -13,34 -33,18 -43,-49 17,-63 3,-1 17,-4 20,-3 4,0 10,8 10,13 2,13 -5,25 -11,35 -7,15 -4,14 -15,20 -3,1 -4,3 -8,4 -4,1 -13,2 -9,12l10 15c-19,28 -60,50 -93,42 -8,-1 -18,-7 -23,-11 -6,-6 -11,-12 -11,-24 0,-20 5,-25 17,-35 7,-6 -3,-5 -7,-2 -30,19 -21,70 24,81 4,1 9,3 14,3l16 0c20,0 36,-8 50,-20 6,-4 14,-11 18,-18l0 1c0,0 1,2 1,2 1,2 1,2 1,3 1,3 2,4 3,7 3,4 6,6 11,8 5,2 8,5 10,9 3,4 5,7 8,11 2,4 4,8 6,12 3,4 4,8 6,13l5 14c2,6 3,8 6,13 2,4 5,9 5,13 1,4 0,4 -2,6l-14 22c-2,3 -1,1 -2,3 -1,4 -12,20 -15,23 -5,4 -4,5 -7,8l-14 14c-4,3 -7,5 -11,7 -8,6 -14,12 -22,16 -5,3 -14,14 -19,19 -4,3 -6,6 -10,9 -4,3 -6,6 -10,9 -5,3 -10,6 -15,10 0,1 0,1 -1,2l-10 8c-3,2 -2,3 -5,5l-11 8c-4,4 -5,5 -12,7 -5,2 -3,5 -9,10 -4,2 -9,6 -10,9 -3,5 -1,12 2,17 2,3 6,4 9,6 0,4 -1,7 2,10 1,1 12,3 17,6 3,2 9,5 12,6 4,1 1,0 5,2 1,1 2,1 3,2l19 11c1,1 1,1 2,1l12 7c2,1 2,3 6,2 9,0 2,-2 13,5l11 6c1,1 3,2 4,2l54 30c3,2 2,3 7,5 1,1 2,2 4,2l15 9c3,3 0,1 4,2 2,1 0,0 2,1 1,0 1,1 2,2l3 2c0,0 0,0 0,0 0,0 1,0 1,0l3 2c2,1 3,1 5,1 10,1 24,11 37,4 3,-1 7,-1 10,-3 0,-4 -1,-3 -1,-7 2,-1 2,-3 5,-4 8,-4 14,4 14,-15 3,2 5,7 10,9 0,0 0,0 0,0 3,1 5,4 8,4 2,1 3,0 5,0 1,-2 2,-2 4,-4 3,-3 1,-2 3,-7 1,-3 2,-3 4,-6 0,0 0,0 0,0 2,-2 2,-3 2,-5 1,-3 -1,-4 -3,-5 -4,-2 -2,0 -5,-3 -2,-2 -3,-4 -7,-3 -4,0 -1,0 -3,1l-3 1z"/>
  <path class="fil1" d="M539 776c2,-2 2,-4 4,-5 1,1 0,4 2,7 1,2 2,3 4,5 0,0 0,-1 0,-1l2 -4c4,14 1,6 0,12 0,2 0,5 0,8 -2,-1 -2,-2 -5,-2 1,4 1,5 0,9 -3,-1 -3,-2 -6,-3l1 10c-4,0 -10,-3 -13,-2 -5,1 -2,4 -12,3 -1,-4 0,0 -2,-3 -3,-3 2,0 -3,-3 2,-3 2,0 1,-5 3,-2 2,-1 3,-4 4,0 1,0 4,1 2,1 3,2 5,0 -1,-2 0,0 -2,-1 -1,0 1,1 -2,0 -1,-4 -1,-5 0,-8 0,0 -1,0 -1,0l-1 0c0,0 0,0 0,0l-1 0c0,0 0,0 -1,0 0,-14 12,-30 19,-33 7,9 -4,2 4,19zm-8 -83l0 0c2,1 8,4 10,4 3,1 7,-1 12,0l-16 4c-2,-3 -4,-5 -6,-8zm-7 11l0 0c1,-5 2,-3 -1,-7 -4,-4 -3,-1 -1,-5l-3 -3 -4 3c-3,1 2,3 -6,0l0 4 -4 -2c0,3 -1,5 -1,7 2,1 5,0 5,4 0,4 -2,1 -2,7 0,0 0,0 0,0l2 1c3,0 0,-1 2,1 -2,2 -1,4 -1,8 3,-2 2,-2 5,-3 -3,13 4,6 5,5 2,2 2,2 3,5 3,-1 5,-3 7,-5l-4 -2c0,0 0,0 0,0 2,-3 2,-2 5,-5l-4 -1 11 -6 -14 -6zm72 -8l0 0c-2,-1 -4,-1 -5,-3 -2,-4 -1,-1 2,-3l1 -1c-5,-10 -5,-3 -9,-10 -1,-1 -1,-1 -1,-2 0,0 0,0 0,0 -8,0 -8,2 -12,3 -4,0 -6,-1 -11,1 -6,1 -5,3 -9,5 -2,2 -6,2 -9,4l2 5c6,0 10,-6 14,1 -1,2 -3,3 -5,3 -2,1 -2,0 -3,1l-3 0c3,4 5,2 10,2 0,1 0,1 0,1l-27 12c3,2 4,1 6,3 -2,1 -6,2 -9,3 0,0 1,0 1,0l4 2c-1,4 -12,9 -16,11 -5,-2 4,-2 -12,-2l-2 -3c-4,2 -3,1 -3,2 -1,5 2,-2 0,1 0,1 -2,2 -2,2l3 2 -4 1 2 3 -3 1c4,3 2,4 4,7 3,-2 1,-3 6,-3l2 4c3,6 4,2 5,1 0,-1 0,-1 0,-1 2,2 3,3 6,5l0 -5c3,1 1,0 2,1l4 4c3,-3 -2,-6 6,-7 2,2 2,5 4,7 1,4 2,3 4,6 -1,4 -1,7 0,12 3,-3 2,-3 6,-5 0,6 1,8 2,12l1 -2c4,-4 -2,3 1,-1 1,-1 1,-1 3,-2 2,5 1,8 4,13 2,4 5,7 7,10l4 -4c3,13 9,2 11,9 -5,0 -6,-1 -10,2l3 1 -2 3 3 1 -1 3 4 1 -1 2c3,1 1,0 4,1 3,3 -1,1 2,2 8,-5 3,-5 9,-10 3,-2 8,-4 11,-7 -2,-4 -4,-3 -6,-8l4 -1c-3,-5 -5,-5 -7,-8l4 -2c0,-5 -4,-5 -7,-8 4,-2 3,-1 5,-3 -6,-4 -6,0 -11,-7 2,-3 7,-4 9,-8 -6,0 -9,0 -12,-4 -1,-2 -5,-6 -6,-9l4 -5c2,1 1,0 2,2 2,2 -1,0 2,1 2,-4 1,-4 1,-8 4,1 2,1 5,2l-1 -9c5,2 4,3 6,5 2,-8 0,-8 -2,-15l5 1c0,-5 -1,-7 -2,-12 3,-1 2,0 5,1 0,-5 -1,-5 -4,-7 1,-2 2,-1 2,-3zm27 -29l0 0 -141 0c-2,18 0,41 0,60 0,39 -7,72 25,96 43,31 106,9 116,-36 2,-13 0,-45 0,-60 0,-18 2,-43 0,-60z"/>
  <path class="fil1" d="M551 486c11,-2 20,-8 26,-17 1,-3 3,-9 1,-11 -5,-6 -26,21 -27,28z"/>
  <path class="fil1" d="M542 611c2,2 6,7 9,8 2,-1 7,-6 9,-8 -2,-3 -7,-6 -9,-8l-7 6c-2,2 -1,0 -2,2z"/>
  <path class="fil1" d="M389 386c6,0 12,-3 12,-8 -7,-1 -9,5 -12,8z"/>
  <path class="fil2" d="M676 219l0 1 -1 0 1 -1zm3 7l0 0c0,-3 0,-2 -1,-4 -1,-3 -1,-2 -2,-3l0 -1c-8,0 -6,0 -10,-7 0,1 0,1 0,1 0,1 -1,0 1,4l2 3c0,0 0,0 0,0 0,0 0,1 1,1 4,3 3,1 5,2 5,3 0,2 4,4z"/>
  <path class="fil3" d="M493 907l-2 1c-2,1 0,1 -3,1 -1,-5 -2,-2 -4,-7 3,-4 5,-6 10,-6 0,0 3,0 3,0 2,0 1,1 2,-2 -8,3 -15,1 -15,10 0,1 3,5 5,6 3,0 2,0 4,-3z"/>
 </g>
</svg>
