<svg id="Слой_1" data-name="Слой 1" xmlns="http://www.w3.org/2000/svg" viewBox="0 0 240 215.4">
  <defs>
    <style>
      .cls-1 {
        font-size: 38px;
        font-family: Arial-BoldMT, Arial;
        font-weight: 700;
      }

      .cls-2 {
        fill: #fcfcfc;
      }

      .cls-2, .cls-3 {
        fill-rule: evenodd;
      }
    </style>
  </defs>
  <title>lirika</title>
  <text class="cls-1" transform="translate(41 201.1)">ЛИРИКА</text>
  <g>
    <g>
      <path class="cls-2" d="M109.1,114.8c.1-.9.2-2-.3-2.5s0,.5-.5.6-.1-1.9-.5-2.4h0l-.4.9c-.9-.7.2-2.7-1.2-3.1-.1,1.1.5,1.2.4,2s-.5.5.6,1.7l1,1.4.5.7Z" transform="translate(0 -16.7)"/>
      <path class="cls-2" d="M129.8,147.1c-.2-.9-3.6-5.3-4.4-6.3s-.3-.7-.9-.6,2.9,4.4,3.6,5.5A2.7,2.7,0,0,0,129.8,147.1Z" transform="translate(0 -16.7)"/>
      <path class="cls-2" d="M164.4,125.1a4.4,4.4,0,0,0,2.4.6c1-.2,2.1.1,3-.3s.2-.5-1-.8a14.4,14.4,0,0,0-4,.1C164.4,124.9,164.6,124.9,164.4,125.1Z" transform="translate(0 -16.7)"/>
    </g>
    <g>
      <path class="cls-3" d="M113.4,173.6l-.3.2.3-.2Zm-.7-157h7.6l1.5.5a10.6,10.6,0,0,1,3.1,1.7l.5.4c-.5-2.1,1.7-2.1,2.5-.5.7-.2,1-.4,1.9-.1a1.8,1.8,0,0,1,1.1,1.1c.2.6,0,.4.4.6s.4.1.7.3,1.9,2.7,2.6,3.8a9.7,9.7,0,0,1,1.4,2.8c1.2,0,1.5.1,1.8,1A5.4,5.4,0,0,1,138,31c1.9.5.7,3.4.5,4s.3.2.4.8a5.3,5.3,0,0,1-.4,2.8,4,4,0,0,0-.3,1.7,10,10,0,0,1-.5,1.6c.8,1.2.3,1.7-.3,3s-.6,2.2-1.7,2.4.3,1.3.4,2.1a22.8,22.8,0,0,1-.3,4.1,2.6,2.6,0,0,1-.5,1.7c.5.9.4.6.3,1.6s.1,1.2.1,1.8.5,2.3-1.3,1.9c0,2.9-1.7,4.9-1.7,7.1,1.1.1,1.7,2.6,2.1,3.5s1.8,3.3,2.3,4.9.8.7,1.7,1l2.1.7c1.8.7,5,1.6,6.9,2.2a3.7,3.7,0,0,0,1.4.3,1,1,0,0,1,.4-.7l.9-1.3.4-.6c.8-1.4,2.9-1.7,4.4-1.1s2.8,2,4.1,3.1l1.7,1.5c.8.7,1.2,1.5,1.9,2.2s2,2.2,3.2,3.1l.6.5,2.3,2.9,1.7,3.5c.6,1.3.7,2.3,1.8,3.4l.5.6c.4.6,1.2.8,1.9,1.2l4.4,2.9c1,.7,2.4,1.1,3.2,2l1.1.9c.8.6,1.4,1.4,2.3,2a8.6,8.6,0,0,1,2.4,1.8,12.2,12.2,0,0,0,2.4,1.7,31.9,31.9,0,0,1,4.3,2c.8.5.8.2,1.5.5s2.4,2.3,3,3.3l2.1,4c.2.5.3,1,.6,1.5l1.9,4.4c.9,2.3.5,2.8-.3,5s-1.4,1.8-1.7,2.4.2.6-.5,1.3-10.4,1.3-10.8,1.1c0,1.7-2.5,1.9-3.7,2.3l-2.5.5c-1.7.4-2.9.3-5.1.9a6.9,6.9,0,0,0-2.1.8c-1.4.9-3.9,1-4.2-.5-.7.2-.6.4-1.6.4a4.6,4.6,0,0,0-1.6.3c-1.8.5-2.1-.1-3.2.1s-2.1,0-3.1.8a5.4,5.4,0,0,1-2.4,1.5c.3.5.4.2,1.2.3l1,.3,8.5,2.2a3.4,3.4,0,0,1,1.8.9,1.9,1.9,0,0,0,.8.6c.6.3,1.2.7,1.1,1.5s-.2.6-.7.7.4.3.8.7l.5.9a2.7,2.7,0,0,1,.9-1.8l1.2-1.5a10.9,10.9,0,0,1,1.6-1.1,12.8,12.8,0,0,1,3.2-2l6.7-2.5c3.5-1.1,10.7-3.1,14.1-3h2.4V141a51.6,51.6,0,0,0-6.2.8c-2,.3-4,.5-5.9.9l-2.7.8-.9.2a42.8,42.8,0,0,0-6.7,2.5,26.7,26.7,0,0,0-2.8,1.8,23.2,23.2,0,0,0-2.3,2.2c1.3-.1,3.1-.7,3.9.6a2.2,2.2,0,0,1,.5,2,1.5,1.5,0,0,1-1.6,1c.3.5.5.3.4,1.3s-4.5,1.9-5.7,2.3a1.1,1.1,0,0,1-1.2-.2c-.6-.5-.2-.4-1.1-.3l-3.9.9a7.5,7.5,0,0,1-1.1.5l-2.5.7-2.4.8c-1.3.6-4.6,1.2-6.3,1.8a61.4,61.4,0,0,0-6.2,1.9c-.7.4-1.7.5-2.4.8s-2.4.7-3.5,1.3a5.5,5.5,0,0,1-1.3.3c-.6.2-.7.4-1.2.5l-3.6,1.2c-3.1,1.2-4.4,1.4-7.3,2.4l-1.2.4-1.1.5-3.6,1.2c-1.2.4-2.2,1-3.5,1.4l-3.7,1.1-1.1.6-1.2.4-1.1.5-1.3.4-1.1.5-1.2.4-1,.6c-1.5.5-4.2,1.2-4.2-1.3a5.4,5.4,0,0,1-1.7-.9c-1.1-.7-2.3-1-3.4-1.7l-.7-.5-1.7-.8c-.8-.5-1.7-.8-2.5-1.3a21.4,21.4,0,0,0-2.5-1.2l-2.6-1.2L90,168c-1.2-.5-2.2-1.1-3.3-1.7s-4.2-1.6-5.2-2.7l-1-1c0,1.2.1,1,.8,1.5a12.2,12.2,0,0,1,1,1.1c.9.9,1.1,1.7,1.8,2.5l1,1.2c.6.9,1.5,1.5,1.7,2.6s1,.6-.3,3.3a4.7,4.7,0,0,1-1.9,2.4c-.6.4-.7.7-1.2,1a9.4,9.4,0,0,1-3.2,1.2H71.6c-3.1,0-2-.5-3.4-.9s-.7.1-1.6-.7l-1.2-.9a5.5,5.5,0,0,1-1.4-2.8,8.5,8.5,0,0,1,2.7-6c.7-.7,1.2-1.7,1.9-2.5l.8-.9c.7-.7,0-1,1.1-1.6a5.3,5.3,0,0,0-.6-1.6c-.6-.4-3.2.1-3.9.3l-1.8.3c-1.4.4-4.6,1.4-5.3.2s-.2-.9-.1-1.5-6.8,2.5-5.9-1.5c-.8.4-6.2,1.6-7.4,1.1L42.1,159a1.7,1.7,0,0,1-1.2-1c-1-1.8-2-2.1-3.7-3a13,13,0,0,1-1.3-.9c-.6-.4-.8-.3-1.1-1a8.6,8.6,0,0,1-.6-1.6V137.7a11.7,11.7,0,0,1,.2-1.7,34,34,0,0,1,.8-3.7,6.4,6.4,0,0,0,.3-.9c.2-1,1.6-3.9,2.1-5.6a11.5,11.5,0,0,1,.7-1.6c.3-.6.4-1,.6-1.6l.6-1.7a18.5,18.5,0,0,0,0-4.2,39.2,39.2,0,0,1,.1-6.5c0-.7.2-1.4.3-2s0-1.5.1-2,.3-1.1.4-1.9l1.3-4.3a58.5,58.5,0,0,1,2.2-5.7,8.3,8.3,0,0,0,.8-1.4,4.7,4.7,0,0,1,.8-1.5l.9-1.4c.4-.7.6-.7,1-1.3a24.7,24.7,0,0,1,3-3.7c.7-.7,1.3-2.1,1.8-2.6,3.7-3.5,6.7-.3,7.9.3s3.2-.9,4.2-1.1l7.4-2.5a8.1,8.1,0,0,1-.8-1.9,6.8,6.8,0,0,1-.2-2.3c-.1-.8-.9-.8-1.2-1.4a33.9,33.9,0,0,1-1.9-3.4l-.4-.9a20.7,20.7,0,0,1-.9-3.1c-.4-1.1-.2-1.1-.2-2.2s-.2-.5-.3-1a22.9,22.9,0,0,0-.9-3.1,10.3,10.3,0,0,1-.7-4.4l.2-1.2c.6-3.3,3.6-4.4,3.9-1.9v.2l.8.4c.7.4.9,1.4,1.4,2.1l.4.8A19.5,19.5,0,0,0,72.4,58c1.2,1.5,1.2,1.8,1.9,2.8s1.8,1.9,2.6,3.1,1.2.6,2.4,3.3l1.2,2.2a7.7,7.7,0,0,0,1.6,1.8,14.8,14.8,0,0,1,1.7,2.8c.4-.3.1-.1.4-.5a10.2,10.2,0,0,0,1-2.2l.2-.6A20.2,20.2,0,0,1,87,67.5c1.2-2,2.2-4.2,3.6-6.2A10.4,10.4,0,0,1,92,59.4c.7-.7,1-.8,2.4-.8a2.2,2.2,0,0,0-.2-1.2,8.5,8.5,0,0,1-.3-1.1c-.3-1.2-1-3.7-.4-5s.8-1,1.3-1.7c-1.1-.5-.9-.2-1.4-1.5a27.3,27.3,0,0,1-1.3-4.3,3,3,0,0,1,.3-2.3c-.9-.6-1.7-2.1-.1-3.1a4.5,4.5,0,0,1-.5-3.9l.3-.5c.3-.3.1-.2.5-.3a4.1,4.1,0,0,1,.2-1.8L94,27.4a6.5,6.5,0,0,1,2.2-2.8c.7-.5.6-1.1,1.5-1.3s.6.1,1.1.4l.2.2a1.2,1.2,0,0,1,.7,1.1c-.1,1.2-1.4.7-2.1,1.7a13.6,13.6,0,0,0-1.4,2.4A12.6,12.6,0,0,0,95.1,32c.6-.4,2-3.7,5.1-4.9,1-.4,3.4-.9,4,.2s.1.6-.1.9-.1,0-.2.8-1.2,1-1.2,1.3h0c-.1.5,0,.6-.4.9s-2.1,1.3-2.9,2.6,2.5-1.5,2.9-.1-2.4,1.7-3.1,3.4.2.9-.2,1.6-2,1.4-2.4-.5a.9.9,0,0,1-1.2-.4,1.3,1.3,0,0,1-.1-1.4c.1-.5-.4-.6-.4-1.2a8.4,8.4,0,0,1,.3-1.3l-.3-.4-.3-.4a1.1,1.1,0,0,1-1.1,1.1c0,3.9,1.9,3.4,1.7,4.8s-.8.8-1.2,1a1.1,1.1,0,0,1,.9,1.4c-.2.5,0,.2-.4.3s2,.8,2.7,1.4a4.9,4.9,0,0,1,.7,1.4v.4l.4,1.1.3-.6c.6-1,.7-1.1,1.7-1.1s-.5-.4-.9-.9-1.5-2.7.3-2.9c-.9-1.7-.5-2.1,0-2.8h.9l.2.3v.3l.3.5c0-.9-.3-.6,0-1.6a5.1,5.1,0,0,1,2.4-2.8c-.4-1.4-1-1.7-.2-3.3s.1-.8.4-1.3.7-.8,1.2-.6-.1-1,.2-1.4a1.1,1.1,0,0,1,1.2-.3c.4.1.8,1,1.6,1.5a3.5,3.5,0,0,0,2.6.6,4.1,4.1,0,0,0,2.5-.5c-2.2,0-3.8.2-5.2-.7a3.4,3.4,0,0,1-1.3-1.6,1.4,1.4,0,0,1,.2-1.1c.3-.4.5-.4.9-.6-.2-1.8.1-1.6,1.1-2.2s.2-.2.4-.6,5-2.4,6.5-2.6,3,.2,4.3.2l-1.3-.7a10.8,10.8,0,0,0-5.2-.6,22.8,22.8,0,0,0-3.4.5l-.8.2a8,8,0,0,0-4.4,2.3,19,19,0,0,0-1.9,2,1.7,1.7,0,0,1-1.1.9,1.1,1.1,0,0,1-1.3-.4c-.7-1.1.4-1.9,1-2.4l.6-.5c.7-.5.9-1,1.5-1.4s2.9-2.4,5-2.8a7.9,7.9,0,0,1,2.5-.4h1Zm.7,157Zm-29.5-1.7c-.1.1-.2,0-.1.5s0,.2.3.4a2.7,2.7,0,0,0-.1-.9ZM76,170.8c-.1.7-.3.7-.3,1.6h.9a2.2,2.2,0,0,0-.5-1.4H76Zm7.6.8c0,.4.1,0,.1,0s-.1-.3-.1,0Zm-.1-.4,0,0Zm-.3-.4,0,0h0Zm-.1-.1c-.1-.4,0-.2-.3-.4s0,.2.3.4Zm-11.5,1.5c.1-1.3,1.2-2.5,1.2-3.9h-.4a23.1,23.1,0,0,1-1.9,3.7l1.1.2Zm46.1-3.6-.3.2.3-.2Zm.3-.1h0Zm-16.2-.5h0Zm-.3-.1a2.2,2.2,0,0,0-1.3-.7,2.6,2.6,0,0,0,1.3.7Zm-1.3-.7h0Zm-.3-.1h0Zm-.3-.1c-.1-.1.2-.1-.4-.1s-.2.1.4.1Zm-.4-.1h0Zm-.3-.1h0Zm-.3-.1h0Zm-.3-.1h0Zm-.3-.1Zm-.5-.3c-.2.2.1.1.1.1s0-.2-.1-.1Zm49.3-3.9-10.9,3.1c-1.7.6-4.6,1.2-6.4,1.9l-7.6,2.3a8.1,8.1,0,0,0-2,.8l-2.8,1.4c-1.3.8-1,.3-1.9.9s-1.3.6-1.7,1l2.1-.7,2.1-.8,4.2-1.4,6.3-2.1,2-.7c2.2-.6,5.8-2.1,8.4-2.9l1.1-.4,6.2-2.1A2.1,2.1,0,0,0,146.9,162Zm0,0c.6,0,.2,0,.4-.1s-.2,0-.4.1Zm.7-.3c-.2.2.1.1.1.1s0-.2-.1-.1Zm.4-.1h0Zm-20.1,0h0Zm20.5-.1h0Zm.3-.1c-.2.2.1,0,.2.1s-.1-.2-.2-.1Zm-19.4-.1-.3.2.3-.2Zm.1-.1h0Zm-42.1,0h0Zm0,0h0Zm42.1,0h.6c.6-.2.1,0,.4-.2h-.6c-.6.2-.1,0-.4.2Zm14.5-.4h0Zm-13.5.1c.6,0,.2,0,.4-.1s-.2,0-.4.1Zm-71.7,0Zm72.2-.3h0Zm-44.5,0h0Zm44.9-.1h0Zm.5-.1-.3.2.3-.2Zm14.6-.3-.3.2.3-.2Zm.5-.1h0Zm-15.1.4h.5l-.5.3Zm15.5-.5c-.6,0-.3,0-.4.1s.3,0,.4-.1Zm-14.3.1.3-.2-.3.2Zm14.9-.3h0Zm-14.5,0c-.2.2.1.1.1.1s0-.2-.1-.1Zm14.5,0c.6,0,.2,0,.4-.1s-.2,0-.4.1Zm-13.8-.1-.3.2.3-.2Zm14.3-.1c-.2.2.1,0,.2.1s-.1-.2-.2-.1Zm-13.9,0c-.6,0-.3,0-.4.1s.3,0,.4-.1Zm14.9-.1c-.6,0-.2,0-.4.1s.2,0,.4-.1Zm.5-.1h0Zm0,0,.3-.2-.3.2Zm-64.8.8c-.3-.5-.4-.5-.3-1.1l-1.3.3v.3c.8.1,1,.4,1.6.5Zm65.2-1.1c-.2.2.1,0,.2.1s-.1-.2-.2-.1Zm-15.8.5.8-.2.4-.2.2-.2-.7.2-.4.2-.2.2Zm16.3-.7c-.2.2.1.1.1.1s0-.2-.1-.1Zm-15,.1h.8c-.1-.1.1-.2-.5-.1s-.3.1-.3.2Zm16.2-.4h-.8s.1.1.4.1.1,0,.4-.2Zm-14.9,0c-.6,0-.2,0-.4.1s.2,0,.4-.1Zm14.9,0c.6,0,.2,0,.4-.1s-.2,0-.4.1Zm-14.5-.1c-.6,0-.3,0-.4.1s.3,0,.4-.1Zm15.1-.1h0Zm-14.9,0h0Zm-68.6.5c.7,0,.9.2,1.5.1a1.9,1.9,0,0,0,1-.6h-.9c-.8,0-.3-.3-1.3,0s-.5,0-1.2,0H66.9c-1.3.1-4.7.7-5.8,1.6,1.2,0,1-.4,2-.4a14.6,14.6,0,0,0,3.1-.4l1-.2a8.4,8.4,0,0,1,1.9-.3ZM138,158h0Zm0,0c.5,0,.4,0,.7-.3s-.4,0-.7.3Zm.7-.3h.6c.6-.2.1,0,.4-.2s-.6-.1-.9.3Zm-60.7.1c.8,0,.6.3,1.1.2l.8-.4H80c-.7,0-1.7,0-2,.4Zm61.6-.4c.6,0,.2,0,.4-.1s-.2,0-.4.1Zm-59.5-.1c-.2.2.2,0,.2.1s0-.2-.2-.1Zm60.3-.1-.3.2.3-.2Zm.3-.1h0Zm.4-.1c-.6,0-.3,0-.4.1S140.9,157.1,141.1,156.9Zm0,0c.5,0,.4,0,.7-.3s-.4,0-.7.3Zm1.1-.4c-.6,0-.3,0-.4.1s.3,0,.4-.1Zm.4-.1c-.6,0-.3,0-.4.1s.3,0,.4-.1Zm.4-.1c-.6,0-.3,0-.4.1s.3,0,.4-.1Zm-56.8-.4Zm15.5,12a24.3,24.3,0,0,1,3.8,1.6l1.8.9c1.3.5.9.4,1.8-.2s-.9-1.7-2.6-2.6L98.3,164l-3-1.3-5.8-2.8-1.5-.7a3.3,3.3,0,0,0-1.5-.7c.3-.4.9-.4,1.4-.6a6.4,6.4,0,0,1,1.6-.6c.3,1.2,2.7,1.7,3.8,2.2s2.9,1.2,4.2,1.8a56.8,56.8,0,0,1,5.6,2.5l5.4,2.6c.7.4,2,1.6,2.7.6s-2.2-2.5-3.2-3.2-6.2-2.8-7.7-3.5l-8.6-3.6a5.6,5.6,0,0,0-1.6-.6,6.9,6.9,0,0,0,2.1-2.5l2.6,1.1,2.9,1,2,.8.7.4,8,3.6c1,.5,3.4,1.1,4.1,1.7a1.9,1.9,0,0,0,1.4.6c-.5.4-1.6-.3-2.1-.6l-2.3-.9-11.5-4.8-1.2-.5a1.3,1.3,0,0,0-1.3.1c-.6,2.5,1.5,2.2,3.7,3.3l1.3.5a8.3,8.3,0,0,0,1.3.6l2.7,1,1.2.6,2.6,1.1,1.3.6L113,165c.7.2.7-.1,1.3.1s.1.1.7,0-1.2,1.1-.3,1.9l.3.2.4.2a4.5,4.5,0,0,0-1.5.8,1.3,1.3,0,0,0-.1,1.8,2,2,0,0,0-1.3.6c-.4.5-.1.8-.4,1.3s-.7.6-.4,1.2a.9.9,0,0,0,.5.4l.7.4c-1,.1-2.3,1-3.2,1s-.6-.2-1-.4l-1.8-1-.4-.2c-3.4-1.7-6.8-3.5-10.3-5l-7.8-3.9-1-.4c-1.3-.7-4.9-2.7-6.2-2.4,0-1.4,0-.9-.5-1.7l1.9-.5c-.4.6-.8.8-.1,1.6s3.8,1.9,5.4,2.7l8.9,4.2.9.4.9.4,7,3.7c.9.4.9.6,1.6,1.1s1.2.2,1.8-.2-1.1-2-2.1-2.6a50.7,50.7,0,0,1-5.1-2.8Zm-15.5-12c.3-.1.2.1.3-.3s-.2-.1-.3.3Zm56.8.4a6.1,6.1,0,0,0,1.9-.6,5.5,5.5,0,0,0,1.6-.6l-1.9.5-.9.3-.7.3Zm3.9-1.3c-.6,0-.3,0-.4.1s.3,0,.4-.1Zm20.5.8c1-.2,3-1,3.9-1.1l-.2-.5c-1.1.7-.7.4-1.9.3s-1.2.3-2.1.3.3.3.3.9Zm-20.5-.8a9.9,9.9,0,0,0,2.5-.8,4.7,4.7,0,0,0-1.4.3l-.6.2-.5.3Zm2.9-.9c-.6,0-.3,0-.4.1s.3,0,.4-.1Zm.4-.1c-.6,0-.3,0-.4.1S150.1,154,150.2,153.8Zm0,0h.4c.6-.2.1,0,.4-.2s-.5,0-.8.3Zm1.2-.4c-.6,0-.3,0-.4.1s.3,0,.4-.1Zm25.7,1.3,1.7-.7.8-.4.9-.4a3.5,3.5,0,0,1-.3-.8c-1.4,0-1.2.7-2.3.7l-.9-.2c-.5.1-.2.3-.7.3s-.7-.3-1.5.1a1.5,1.5,0,0,0-.8.7c1,.1.5.4,1.3.5ZM64.6,150.9ZM89.9,153l.8-1.2a3.9,3.9,0,0,0,.6-1.4l-1.4.4-1.4.4a1.3,1.3,0,0,0,.6,1.2c.3.3.5.6.9.7Zm61.5.4,8.7-2.3c3.1-.9,2-.3,4.8-.7s3.2,1.4,2.3,1.7a14.6,14.6,0,0,1-2.5.3l-4.7.8-2.1.6-1.2.3-4.2,1.2-1,.3-2,.6-3.1,1-1,.4-1.2.3-22.8,8.5-.9.4-.9.4-.9.5c-.3.2-.6.3-.8.6a14,14,0,0,0,3.3-1.1,32.9,32.9,0,0,1,3.1-1.4l1.6-.7,1.5-.6,9.6-3.7c3.8-1.4,7.9-2.7,11.7-3.8l1.7-.4c3.5-1,7-2,10.5-2.8l7.2-1.6c1.3-.2,2-.3,2.7.5l.2.3h.1v.3c.3-1.3,2-2,2.1-2.5s-1.7-.8-3-1.1-1.9-.7-3.2-.7a17.2,17.2,0,0,0-3.6.3,14.2,14.2,0,0,1-3.3.6c-.5,1.1-.1.9-2.4,1.5s-5.7,1.3-6.5,2Zm-63.1-5.1a4,4,0,0,1,1.3-.3v-.3c-.9-.2-.7-1-1.2-1.3s-.1,1-.1,1.9Zm79.7-1.7h0Zm-.7,0c.2.1-.3.1.4.1s.3-.1-.4-.1Zm-48-2.4a1.5,1.5,0,0,0,.8.5l.8.4c.6-2.1,4.5,1.5,5.8,1.9-.3-1.4-.9-1.6-1.7-2.8a3.1,3.1,0,0,1-2.6,0l-.9-.5h-1.2c-.4.2-.2.3-.9.5Zm3.9-2.3,0,0h0Zm-.3-.1h0Zm-7.6-1.3c-.2.7-.5.4-.7,1.1,1.6,0,1.3.7,2.7.7-.2-.4-.6-.5-1-.9s-.5-.7-1-.8Zm7.5,1.2c-.2-.6-.6-.7-.8-1.3l-.7.3a7.2,7.2,0,0,0,1.5,1.1Zm2.5-.9c-.3-.4-.3-.7-.9-.6s2.9,4.4,3.6,5.5a2.7,2.7,0,0,0,1.7,1.4c-.2-.9-3.6-5.3-4.4-6.3Zm21.2-1.3Zm-7.2-4.4c0-.5,0-.3.1-.7a11.2,11.2,0,0,0-3.1,1.4c-1.2.9-2.5,1-3,1.5l2.3.5a15.4,15.4,0,0,0,2.4.4,2.2,2.2,0,0,1-.1-1.2l.5-.3a1.1,1.1,0,0,1,.9-1.7Zm61.5-4.5c-.3.2-.2,0-.3.4s.2,0,.3-.4Zm.1-.4c-.1.1-.1-.2-.1.4s.1.2.1-.4ZM107.3,129a1.4,1.4,0,0,1,.2-.7c.9-1,2,.7,2.9,1s5.9,1.5,7.6,3l3.7,3.5c.9,1.1,1.5,2.5,2.3,2.5s-2.1-3-2.5-5,.1-.2-.2-.7l-.5-.5-1-.9-.5-.5-.3-.3c-2.9-3.1-3-2.4-6.4-3.1l-1.6-.3-1.5-.4c-1.4-.3-1.8,0-2.9-.7l-.6.4c-.9.5-1.4,1.2-1.8,1.3s.3.5-.2,1.3,0,2.1-.6,2.7a1.4,1.4,0,0,1-2.1-.1c-.3-.4-.2-.5-.2-1l-2,1.4-1.8,1.5-.9.8c-.4.3-.5.3-.9.7s-1.7,1.8-3,1c-.8,1.2-1.4.6-2.4,3-.2.4-.4.8-.6,1.2a18.6,18.6,0,0,0-1.1,6v-.2h0v-.2c.3-.6,1-.8,1.6-1.1s1.7,1.3,4.4,1.3a13.1,13.1,0,0,0,6.1-1l.6-.3a3.8,3.8,0,0,1,1.5-.4c-.2-.6-.7-.7-.4-1.3s1.7-.7,2.8-.4l3.4.9a4.4,4.4,0,0,0,1.6.4c.2-.7.5-.9.8-1.5a7,7,0,0,1-2-.9,16,16,0,0,0-2.2-.8c-1-.4-3-1.5-3-2.7s.2-1,.8-1l.5.2c1.3.7,3.6,1.5,5.1,2.3a9.5,9.5,0,0,0,2.1,1.1c.3-1.1,1-.8,1.2-1.6s-.2-.1-.6-.3l-2.9-1.8L109,136c-.8-.4-1.8-.7-2.6-1.2-2.6-1.7-1.1-3.8.3-3s1,1.1,2.7,1.8l1,.5c1.1.4,2.3.8,3.3,1.3l.9.6,1,.4c.9.5,3.7,2.8,4.4,3s.2-.2.4-.9-1.2-1.1-1.7-2.2a5.3,5.3,0,0,0-2.2-1.7c-.1.4-.1.5-.5.8-2,1.5-2.6-1.5-.9-2-.3-.4-.5-.3-1.2-.4l-1.1-.4-1.3-.3c-1.2-.3-4.2-1.9-4.2-3.3Zm-22.6-4.7c0,2.2-.8.7-1,2.2a3.4,3.4,0,0,0,.7,2.3c.4.4.6.3,1.1.1s1.3-.5,1.1-2.1,0-.5,0-1.2l-.9-.7-.9-.7Zm79.7.8a4.4,4.4,0,0,0,2.4.6c1-.2,2.1.1,3-.3s.2-.5-1-.8a14.4,14.4,0,0,0-4,.1c-.6.2-.4.1-.5.4Zm-17.8,14.3c-.4-1.7-1.2-.7-1.3-2.5-.4-5.7.3-2.5,2.2-5.3.8-1.2.6-1.2,1.8-2.1s-.4-1.5.4-1.9,2.3,1,1.9,2.2a19.3,19.3,0,0,1-.4,2.2c-.5,1.2-.4.4-.8,1.7a11.9,11.9,0,0,0-.6,1.9c-.2,1-.9,2.4.3,2.8h1.1a1.4,1.4,0,0,1,.2-.7c.2-.4.3,0,.2-.5s-.3-.5.1-1.3a4.9,4.9,0,0,0,.6-1.1c.5-1.4,1-2.5,1.4-3.9s.2-2.2,1.4-1.9,1.2,1.4.9,2.5a10.2,10.2,0,0,0-.3,1.5,25.8,25.8,0,0,1-1.2,3.2l-.2.6c-1.2,2.2-.4,1.6-.2,2.5a12.6,12.6,0,0,0,1.6-.5,10.8,10.8,0,0,1,1.1-3.5c.4-.8.9-2.4,2.1-2.2s0,3-.3,4.4a2.8,2.8,0,0,1-.3.8c-.2.4-.2.2-.3.8a4.8,4.8,0,0,0,2,.5c-.2-1,.9-2.4,1.5-3.3s2.7-1.5,2.8.2l1.5.3.7.2c.6.4,0,.2.6.3s4-.1,5.9-.4.8-1.3,2.3-2.3a5.7,5.7,0,0,0-.2-1.5l-.9-2.6a7,7,0,0,0-3.8-3c-.8-.3-.3-.2-1.2-.1h-3.3l-2.6-.8c-1.2-.3-1.5-.2-2.9-.5s-.8,0-2.4-.9c0,.5.2.6,0,1.1a1.3,1.3,0,0,1-.7.6,1.4,1.4,0,0,1-1.4-1.1c-1.5.4-1.1,1-2.5,0a2.7,2.7,0,0,1,.3-1.5h-2.3a20.6,20.6,0,0,1-3,3.6l-.4.5-3.7,3.6a1.5,1.5,0,0,1,1,1.6c-.1.9-.7,1-1.7,1s.4,2.2.7,3.3,1.7,1.1,2.5,1.5Zm-4.7-13.9c1.2.3,2.8-1.2,1.6-3.5-.5.3-.3.2-.7.7l-.5.7c-.5,1-.4.7-.4,2.1Zm-57.2-1.2Zm69.5-5.5c0,1.4-.5,1.8-.5,3.1l6.4,1.7a6.8,6.8,0,0,0,2.3.1v-.3c-.7-.2-3.2-1.8-4.2-2.3l-4-2.3ZM108,120.6h.2l.6.2c-.3-.4-.1-.3-.8-.3Zm90.2,11.8-5.1-6.9-1.1-1.3-1.2-1.2-5.9-3.6c-4.4-1.5-3.5-.7-7-1.3a4.4,4.4,0,0,0-2.9.2,8.3,8.3,0,0,1,3.3.6c1.4.5,1.8.2,3.2.7s4.1,1,5.4,2.2l2.1,1.8.5.5.4.5a15.4,15.4,0,0,1,2.5,2.4l.5.5c.3.4.4.8.8,1s1.6,1.2-.3,2.3-2.4-.4-5.8.1h-1.1l-6.6,1.4c-1.3,0-2.2-1.5-.3-2.3l.6-.3c.3-.1,2.5-.3,3.7-.7,4.1-1.2,3.9-.4,4.8-.6s.5,0,1.3,0a.9.9,0,0,0-.5-.9,2.4,2.4,0,0,1-.7-.7,20.3,20.3,0,0,0-2.2-2.2,5,5,0,0,0-.7-.8,14.4,14.4,0,0,0-4.1-1.8,7.9,7.9,0,0,0-2.5-.4c-1.3-.2-1.8-.6-3.5-.9H172a7.5,7.5,0,0,0-2.1.6l-2.3,1.5a5,5,0,0,1,3,.7l.5.2c3.1,1.4,3.3,2.4,5.1,4.7a10.9,10.9,0,0,1,1,1.8c.6,1.2,1.1,4,1.4,4.2s5.6-.9,7-1.1l2.3-.5,9.1-.3,1.1-.2ZM173.8,118c-.2,0-.3.2-.4.3h1.2a1.2,1.2,0,0,0-.8-.3Zm-16.7-.8h0Zm-.3-.1h0Zm-.3-.1Zm-53.9-2.1c.1.2-.2.3.9.6s.5.2.8-.3-1.1,0-1.7-.3Zm76-1.1h0Zm.4,0c.7,0,1.9-.5,2.9-.5s.1-.1-.3-.2a3.4,3.4,0,0,0-2,.4l-.5.3Zm-22,3.5,1.9,1,.6.4a34.9,34.9,0,0,0,4.9,2.7,1.1,1.1,0,0,0,.7-.2l.6-.4,1.2-.6c1.7-1.2,1.4-.6,3.1-2.7s2-1.1,3.2-2.1a12.1,12.1,0,0,0,1.8-2.3,36.6,36.6,0,0,0-4.8.8c-3.2,1-3.5,1-6.5,1.8l-2,.6c-2,.5-2.7.9-4.6.9ZM201,130.1h0v-.3c.5-1.2.8-1.6.6-2.2a12.2,12.2,0,0,0-1-2.8c-.3-.4-.2-.1-.3-.6a31.2,31.2,0,0,0-3.4-6.9,8.3,8.3,0,0,0-1.6-2.1l-1.9-.9-.6-.3-2.5-1.1c.2,1,0,1.6-1.2,1.6.3.4.1.1.5.4s.7,1.3,3.9,2.4a5.3,5.3,0,0,1,1.9,1.7c.4,1-.3,1.6-1.6,1.6s-2.7-1.3-3.7-1.8a3.6,3.6,0,0,1-1.1-.7c-2.5-2.2-3.4-1.7-3.4-3.7-.7.2-.2.1-.6.6a1.4,1.4,0,0,1-.7.5l-1.9.4h.4c2.5.8.4-.1,3.3,1.4l.3.2,1.6.9.7.4.7.3a7,7,0,0,1,1.1.9,9.7,9.7,0,0,1,2.3,1.8l3.8,4.5c.6.7.6,1,.9,1.3,2.3,2.2,1.2,1.3,2.3,1.5a1.1,1.1,0,0,1,.9,1.1Zm-25.5-17.5Zm-66.7-.3c-.3.5,0,.5-.5.6s-.1-1.9-.5-2.4h0l-.4.9c-.9-.7.2-2.7-1.2-3.1-.1,1.1.5,1.2.4,2s-.5.5.6,1.7l1,1.4.5.7.5.7c.1-.9.2-2-.3-2.5Zm-13,3.5a3.8,3.8,0,0,1-.9-1l-2.5-2.9a7.7,7.7,0,0,1-2-2.5c-.5-.9-.5-1,0-1.7s-.4-.3-.9-.7-.6-.2-1.1-.6-1.1-1.4-1.5-1.7l-6.9,2.8a13.7,13.7,0,0,1-2.9,1.3l-3.8,1.5-2,.7v.3a30.7,30.7,0,0,1,3.3,2.3l.9.6,10.4,7.7a9,9,0,0,1,1.6,1.2l.8.7,3.7,3.1a16.6,16.6,0,0,0,2.7,1.6l.7.6c.6.5,1.3.4,1.5,1.2s3.7-2.8,4.3-3.3a3.6,3.6,0,0,1,1.6-.8c-.3-1-.8-.2-.8-2-.4-.1-2.6-1.4-1.9-2.9-1.3-.1-2.6-1.4-3.4-2.4s-1.7-1.7-1-3Zm45.4-11.2Zm-39.4-.9Zm39.4.9-1.7-1.4c-1.5-1.2-2.3-2.8-3.6-2.2s-1.3,1-1.5,1.5l1.7.6c1.8.6,2.7,1.4,5,1.6Zm-39.4-.9a1.2,1.2,0,0,0-.4-1c-.9-1.2-.3-2-1.8-2,.2.4.2.3.5.8a7.9,7.9,0,0,0,1.6,2.1Zm-23.8.7,3.3-2a9.4,9.4,0,0,1,1.6-.9,5.2,5.2,0,0,1,1.7-.9,12,12,0,0,0-1.8-2.8l-1.9-2.7c0,1.2-1.5,5.3-2.1,7.2s-.6,1-.9,2.1Zm20.6-5.2,0,0c0-.6,0-.2-.1-.4s0,.2.1.4Zm-1.7-2.7a3.8,3.8,0,0,0,.1.7c.1-.1.1,0,.1-.3a2.3,2.3,0,0,0,0-.4Zm-4.6-6c.2.4,0,.3.4.7l.6.5c-.2-.4,0-.6-.2-1s.2,0-.7-.2Zm-.8-1.2ZM64.6,150.9c1.3-.1,2.4-.8,3.7-.7h.6l1.4.3c2.4.5,3.8.2,6.5.1l4.8-.6c.6-.1.6-.4,1.3-.5a1.3,1.3,0,0,1,1.4,1.7c-.5,1.1-2.6,1.5-3.9,1.5h-.9c-1.3.3-1.4,0-2.1.2a2.8,2.8,0,0,1-1.3.2H74.3a7.2,7.2,0,0,1-1.5,0,7.2,7.2,0,0,1-3-.3l-1.7-.2a7.4,7.4,0,0,0-3.8,1.2c-2.6,2-4.2.7-3.3-1.2a21.4,21.4,0,0,0,1.2-2.4c1.7-4.7.7-3.1,3-7.5.3-.5.4-.6.7-1.2a12.9,12.9,0,0,1,2.2-3,21.7,21.7,0,0,1,3.7-3.2,3.2,3.2,0,0,1,2.1-.5h4.2l3.3-.3,2.9-.6,4.6-.8,1.5-.2c1.3-.1,2,.9,2.7.6a5.4,5.4,0,0,0,1.8-1.7c-.6,0-2.4-1.4-3.1-1.8s-2.1-1.9-2.8-2a3.4,3.4,0,0,1-2.3,3.3,4.3,4.3,0,0,1-4.4-.7c-.9-.9-.5-.8-1-1.8a3.4,3.4,0,0,1-.4-2.3,2.7,2.7,0,0,1,2.6-2.7l-1.6-1.4-.8-.7L76.5,118l-.8-.6L74,116.2l-3.4-2.4a27.1,27.1,0,0,1-.7,5,53,53,0,0,1-1.7,6.7c-1,2.5-.5,1.9-.9,3.4v.4h0v3.2c-.1,2.2-2.5,1.4-2.9-.1s.4-1-.2-2.3-.4-2.9-1-4.6-.5-2.5.7-2.9,1.4.9,1.6,1.7.1,0,.2.5a14.5,14.5,0,0,0,1.1-3.9c.4-2.2,1.1-3.8,1.2-6.3s-.3-1.3.3-2.1-.1-.6.1-1.9-.3-1.3-.3-3.8a7.6,7.6,0,0,0,.1-2.4c-.3-1.4,0-3-.4-4.6s-1.2-4.2-1.7-5.6l-2.6-4.7c-.3-.5-.9-1-1-1.6a1.3,1.3,0,0,1,.9-1.4c1.7-.3,2.8,2.9,3.4,4s.7.9.9,1.5a35.6,35.6,0,0,1,1.4,3.5l.8,3c1.1,3.1.8,6.6.8,9.9.8-.2,1.2-.6,2-.8l2-.6c-.1-.5-.3-.4-.3-1.1a1.7,1.7,0,0,1,.3-1c.6-1.1,1.1-2.5,1.7-3.6a44.1,44.1,0,0,0,1.9-5.8c.3-1,.5-3.3,1.6-3.6s-.7-.8-1-1.2-.6-1-.9-1.3-.7,0-1.3-1l-.4-.7-.9-1.4-.4-.7-1.5-2.9c-.5-1.7-.7-1.5-2.1-.9l-1.2.4-2.3.9-1.2.6L63.2,85c-.8.3-.8-.1-1.2.6s-.3.7-.8.8-1.7-.4-2.2-.8l-.9-.7-1-.6a3,3,0,0,0-1.1-.6c-1.5-.4-1.6-.5-2.7,1.1S51.8,87,51,88.1l-1.3,1.5a31.5,31.5,0,0,0-4.1,7,8,8,0,0,0-.8,2,2.3,2.3,0,0,1-.4,1.1c-.3.5-.2.3-.3,1s-.4,1.3-.6,2.2l-.3,1.2-.3,1.1-.7,8.8c0,.7-.1.6-.1,1.2h.3c.4-1.8,1.3-3.1,1.9-4.7l.5-1.7a4.2,4.2,0,0,1,.7-1.6,1.1,1.1,0,0,1,1.4-.5c.6.2.8.6.6,1.4l-1,3.5c-.2.6-.4.9-.7,1.5a14.9,14.9,0,0,0-.6,1.5l-.9,2.3-.3.8-.7,1.5-.3.7c-.7,1.2-1,2.7-1.6,3.9a14.6,14.6,0,0,0-.6,1.5l-3.3,9.6a10.1,10.1,0,0,1-.5,1.8,11.2,11.2,0,0,0-.1,2.1c-.1,2.6-.8,5.2-.8,7.7l-.7,3.6c1.3,0,1.2.5,1.2,1.7s.7.4,1.1.7l1.2.7,2.1,1.6,3.6,3.8c1.8-.1,6.7-1.8,8.2-1.1s.3.4.7.7l1.4-2.6a16,16,0,0,0,1.9-4.1l3.3-8.7a28.5,28.5,0,0,1,2.2-3.8c.6-1,1.4-1.4,1.8-2a3.9,3.9,0,0,1-1.9-.7c-.5-.5-.4-.9-.3-1.6h.1c1.5-.8,1.1-.2,2.5-.1a21.8,21.8,0,0,0,2.6.3l1.2-.4c2-.6,2.6.9,1.8,1.7a2.2,2.2,0,0,1-1,.6,3.5,3.5,0,0,0-1.5.9,12.3,12.3,0,0,0-3,2.4l-.6,1-1.2,1.9-.5,1.1c-.5,1-.5,1.3-.9,2.2s-1.5,4.3-1.6,4.6c-.9,2-1.2,3.3-2.4,5.4l-.5,1-1,2,4.4-1.4.7-.4a30.9,30.9,0,0,1,5.4-1.3l6.3-.4,2.1-.2,4-.4H81l2.8-.7c1.4-.4,1-.7,2.3.2l.4-.4a5.3,5.3,0,0,1-.8-2.1,21.5,21.5,0,0,1-.3-2.6c0-.7.8-7.3,1.4-8.7l.4-.9c1.4-3.6.8-1.7,1.9-3.8a12.9,12.9,0,0,0-1.9.4l-2.1.2-.9.3-.9.2-2,.3-2.1.2-4.2.2c-1,0-1,.1-1.6-.3l-.2.2a8.1,8.1,0,0,0-1.9,1.8l-1.7,1.4a2.7,2.7,0,0,0-.5.8l-.6.9-2.3,4.1c-.2.4-.1,0-.2.5s-.1.3-.2.7l-.2.5-1,3.1ZM116,86.3c-.2.2.2,0,.2.1s0-.2-.2-.1ZM91.5,89.2a2.5,2.5,0,0,0-1-2.4l-1.2-1.3c-.3-.2.2-.2-.6-.2l1.4,1.9c.8,1,.7,1.5,1.4,2ZM119,83.5c.6,0,.2,0,.4-.1s-.2,0-.4.1ZM81.6,82.1h0Zm0,0h0Zm-.3-.1c-.3-.3-.3-.4-.8-.4v.2l.8.2Zm94.2,30.6a8.4,8.4,0,0,1,2.8-1.6c2-.6,1.7-.7,3.4-.2a27.2,27.2,0,0,0,7.2,1.3L185,109a8.9,8.9,0,0,1-1.3-1l-1.3-1-1.2-1-6.9-4.4c-2.5-1.5-1.8-.4-3.8-3L170,98a5.4,5.4,0,0,1-1.2-2.3,16.9,16.9,0,0,0-3.2-6c-1-1.2-3.3-3.2-4-4l-.5-.6-2.3-2.2c-.8-1.1-4-3.8-5.2-3.9s-1.3,1.4-2.4,2.1.2,1.1-.3,1.7c1.1,0,1.5.9,2,1.9a46,46,0,0,1,2.9,9.2,20.3,20.3,0,0,0,.3,2.5,20.9,20.9,0,0,1,.2,3.6c0,2.6-.5,5.9-.5,6.9l.4-.7c.7-1.3,1.2-.8,1.9-.7s.5-1.3.7-2.1a48.2,48.2,0,0,0,1.8-6.6c.1-1.6-.5-1.3-.7-2.2s3.2-2.3,3.1,2.2a66.2,66.2,0,0,1-1.9,6.5l-.8,1.9c-.6,1.9-1.1,2.3-1.4,4.2s.1,1.7-.8,2.1a1.2,1.2,0,0,1-1.3-.1h-.1l-.3-.5c-.1.5-.2.3-.4,1.1l-1.2,3c1.1-.7,3-1.4,3.4-1.8l4-6.4.5-.9a10.6,10.6,0,0,1,1.4-2.3c1.6-2.2,3.8-.2,2,1.1s-.3.2-.6.8-1.8,3.1-2.4,4.2-1.4,2.1-2.4,3.9c.8,0,7-1.7,7.8-2l1.9-.6a7.1,7.1,0,0,1,4.1,0c.8.3.8.6.8,1.6ZM85.6,80.9Zm13-.7.2.7,2.1,4.3a13.2,13.2,0,0,1,1.5,3.2c.1.6-.1.3.2.7l.4.5c.9,1.2,1.8,3.4,2.2,4.2s4.2,6.7,5,7.8a5.2,5.2,0,0,1,.8,1.1c.5.9.7.5,1.6,2l2,3.5.3.6a14.2,14.2,0,0,1,1,1.8l1.8,3.7c.4,1.2,1.4,2.9,1.5,3.9a19.5,19.5,0,0,0,1.9-3.2,28.2,28.2,0,0,0,1.5-3.4l.8-1.7a12.4,12.4,0,0,0,.9-2.8l2.3-8.8c.1-.8.2-1.2.4-2.1l.9-9-2,2.8c-.6.7-1.5,2.2-2.4,2.4s.8,1.8.8,3.7c0,5.2-.4,4.1-2,7.9-.5,1.3-.7,2.7-1,3a1.3,1.3,0,0,1-2.3-.2c-.4-.8.4-.8-.4-.9s-3.2.3-1.7-1.9c-.9-.2-.9-.3-.9-1.3-1.9.9-2.2-.6-3.7-1.6s-.5-.3-1.6-.6-.7-2.1-.2-3a13.5,13.5,0,0,0,1.2-6L110,90.5c-2.1-1.2-1.2-.9-2.8-1.9s-3.6-3.4-4.8-4.4l-.9-.6c-.5-.5-.3-.8-1.4-1.6s-1-1.3-1.5-1.6Zm47.8,24.8c.5.7,2.3.6,3.5.5l1.7.2c.6,0,.9-.4,1.6-.1a12.8,12.8,0,0,1,.5-3,22.5,22.5,0,0,0,0-3.3c0-3-.3-2.6-.4-4.8s-1.8-6.9-2.8-9-1-1.2-.3-2.5a6,6,0,0,1-3.1-.6c-2.6-.9-5.1-1.6-7.7-2.3l-1.4-.5c.2.4.1.5.2,1a3,3,0,0,1,.4.8,10.9,10.9,0,0,0,.6,1.8,49.8,49.8,0,0,0,2.1,5.1c.3.7.3,1.2.5,1.9l4.7,9.7a4.1,4.1,0,0,1,.7,1.7,3,3,0,0,0,.4.8c.4.7,1,1.9.3,2.6s-1,.2-1.7.1ZM111.4,78.9Zm-31.6,0c0,.4.1,0,.1,0s-.1-.3-.1,0Zm5.9,2c0-1.5-1.6-1.9-1.9-3.1-.4.3-.2.4.2.8l.5.8a3.5,3.5,0,0,0,.5.8l.6.7Zm60.8,24.2-5.3-10.5c-1-2-1.4-3.7-2.2-5.6l-2.1-5.7-.4-1.2c-.7-1.9-1.2-4-1.9-5.8s-.7-1.3-1-2.1a28.4,28.4,0,0,1-1.8-4.3c-.5.3-.1,0-.4.6a7.7,7.7,0,0,1-1,1.8c-.4.6-.4.3-.7,1.1a1.4,1.4,0,0,1-.8,1,4.9,4.9,0,0,1,.3,1.9c0,.7-.2,1.2-.3,1.9s.8,1.6,1.2,2.7a14.3,14.3,0,0,1,.5,3.2v2.4c-.1.5,0,.3,0,.7.3,2.5-.5,4.5-.8,6.8a18.9,18.9,0,0,1-.4,3.3,8.4,8.4,0,0,0-.3,1.6,14,14,0,0,1-.4,1.5,25.6,25.6,0,0,1-.7,3,8.2,8.2,0,0,0-.4,1.6l-.7,2.1c-.6,2.7-1.1,2.8-1.7,4.8a19.4,19.4,0,0,1-1,1.8l-3.6,6.7-.3.6-.2.7c-.3,1.2-.7,1.6-2.1,1.6v.7c.4.1.4.1.7.4s.3,1.4-.1,2a24.2,24.2,0,0,1,2.3,2.2c4.8,4.8,2.7,3.8,3.6,5.2l.9,1.4c.6,1.1,1.4,1.6,1.4,3s.6,1.9,1.5,3.1l2.9,3.8a12.5,12.5,0,0,0,1.1,1.2,3.8,3.8,0,0,1,.8,1.3c.9-.2,0-.4,2-.4.2-.5-.1.5,0-.2l.3-.6a3,3,0,0,1,2.9-.7c.4-1.3,2.1-.8,3.5-.8s1-1.3,2-1.5a7.9,7.9,0,0,1,2.9.4c.6-.4.4-.7,1.3-.7h1.9c1.1,0,2.3.9,1.6,1.8s-1.5.4-2.3.4-.1-.1-.6.2-2.2.1-3.5,0c-.5,2-3.2,1.9-4,1.5s-.1.6-.5.8h-3.4c.5,2.2-2.3,1.2-2.1,2.1s-.1-.6,0,.2a1.6,1.6,0,0,1,.1.6c0,1.4-1.5,1.3-2.4.7l-.9-.4c-1.1-.4-.5-1.4-1.7-2.2,0,1.5-.8,1.5-2.7,1l-1-.3c-2.3-.7-2.4-.3-4.2-1.5-.3,1.2-1.9.4-2.6,0l-.8-.4c0,.7-.2.8-.5,1.2a8.5,8.5,0,0,1-3.5-1.2c0,1.4-1,1.2-2.1.9l-.7-.3-1.9-.6c-.7,1-1.3.7-2.4.4a1,1,0,0,1-.7,1.5c-.8.2-1-.4-1.8-.5s-.4,1.8-1.7,1.5-3.2-.4-4.7-.8-3.9-.2-4.7-.6-.5,1.3-.5,2.1a11.7,11.7,0,0,0,1.6.5,8.1,8.1,0,0,0,1.4.6l.8.2a50.3,50.3,0,0,1,5.1,2.1c.7.4,3.6,1.4,5.1,2.1l3.5,1.4,3,1.2,1.4.6a1.5,1.5,0,0,1,.7,1.3c1.2-.3,3.1-1.4,4.5-1.8l1.4-.6c2-.8,4.1-1.4,6-2.3l1.6-.6,9.1-3.3,1.5-.5,4.6-1.7a48.5,48.5,0,0,1,4.8-1.4l3.3-.9c1.7-.4,3.5-.6,5.2-1.1a57.2,57.2,0,0,1,9.2-1.1l-3.7-1.1-1.4-.2-5.3-1.2a38.8,38.8,0,0,1-4-.8l-2.7-.5-1.4-.2c-3-.4-5.3-1.1-8.1-1.5s-4.2-.5-5.5-.9l-4-.8c-1-.2-3.1-.4-2.8-1.8s1.1-.9,2.2-.9,1.2-1.6,2.1-2.1a16.5,16.5,0,0,1,2.5-1.5l3-1.2a5,5,0,0,1,3.2-.6c.8-1.5,2.7-2.8,3.9-4a33.5,33.5,0,0,0,2.9-3l1.1-1.3.3-.3c.4-.5,1.5-1.1,1.6-1.3s.7-4,.7-5.2.1-1.1.1-1.7a7.3,7.3,0,0,1,.2-1.8,7.4,7.4,0,0,0,.2-1.7,7.4,7.4,0,0,0-1.1,1.3,13.3,13.3,0,0,1-1.2,1.5l-1.9,2.3-.6.6-1.7,1.7c-1.1.8-.5,1.2-2.4,2.1a3,3,0,0,0,.1.7c.7-.5,1-.9,1.9-.3a2.7,2.7,0,0,1,.8,1.8,4.8,4.8,0,0,1-2.7,5.1,2.9,2.9,0,0,1-3.8-.7c-.5-.6-.4-1.2-.4-2.2l-4.2,4.1c-1,.6-.7,1-2.1,2l-.9.7c-.5.4-.7.9-1.4,1.1s-2.4-.4-1.6-1.8a7.1,7.1,0,0,1,2.3-1.9,40.6,40.6,0,0,0,4.2-4.1l1.1-1a10.4,10.4,0,0,0,.9-1.1c1-1,2.5-2.2,3.2-3.1s2.1-2,3.1-3.1a47.5,47.5,0,0,0,4.5-4.9l.4-.6a7.5,7.5,0,0,1,.8-1.2,6,6,0,0,0,.9-1.1l.8-1.2c-1.1,0-2.5.1-3.2,0l-3.1-.3h-.7a60.6,60.6,0,0,1-7.4-1.7c-.7-.4-1.6-.6-2.4-.9s-2.4-.3-3-1.3-1-.8-1-1.4,1.1-1.3,1.7-1.7l1.8-1.5a2.1,2.1,0,0,1,1.1-.7,3.1,3.1,0,0,1,2.9.1l.8.4.9.9,2.7,2.3,1,.8,1.9,1.4c.4.3.5.5,1,.6ZM119,83.5a20.8,20.8,0,0,0-2.1-.2l-1.8-.3-5.2-1.5-3.1-1.3c-1.2-.7-.6-1.1-3-2.4s-2.4-3.3-3.6-4.2a10.1,10.1,0,0,1-1.9-4.6c-.5.4-.3,1.8-.3,2.5a21.6,21.6,0,0,0,2.3,5.2c1,1.4,1,2,1.7,2.9l.2.2,1.1,1.4a46.8,46.8,0,0,0,5.7,4.7l.7.5h.1a26.3,26.3,0,0,0,3.3,2.8c.8.4,1.4.6,1.4,1.6a13,13,0,0,1-.4,4l-.9,3.5a14.2,14.2,0,0,1,2.6,2.2l.7.9.9-7c-.1-.9-.3-3.1.2-3.7a1.1,1.1,0,0,1,1.4-.3c1,.4.6,1.4,1,2s.5,0,.9,2a10.3,10.3,0,0,1,0,4.5l-1,4.6c-.1.2-.2.4-.1.5s.5-.3.8-.9l.7-1.3c.4-.7.6-.5.7-1.3a19.2,19.2,0,0,0-.1-5.6,21.6,21.6,0,0,1-1-3.1c-.1-1.5,1.1-1,2-2l1.8-2.3a19.6,19.6,0,0,0,1.4-2.6c.2-.7-.5-2.2-.5-3.3l-1.1.5c-.5.3-.6.3-1.3.3s.8.6.6,1.4-1.5,1.7-2.1,2.2l-1.2.8a16,16,0,0,1-2.8,1.5c-1.3.7-1.8.9-3,0s.1-1.2.7-1.7c-1.1,0-1.8.4-2.6-.5a1.1,1.1,0,0,1,.7-1.8c.7-.1,1.9,0,3.1-.3a10.3,10.3,0,0,0,2.7-.6ZM74.1,70.2h0Zm2.9-1.5h0Zm20-2v.4h.5a3.6,3.6,0,0,1-.1-1.2.8.8,0,0,0-.4.8Zm-23.6-2V65a6.4,6.4,0,0,1,.7,1.3c1.5-.3.2-1.4,0-2s-.2.3-.8.4Zm23.8-.5c0-1.2.3-.9-.6-1.6s-1.2-1.8-1.8-2.2-.5.2-1.1.9l-.6.6c-.5.6-.7,1.3-1.2,1.9a18.6,18.6,0,0,0-1.7,3,21.6,21.6,0,0,0-1,2.1l-.8,1.6a26,26,0,0,0-1.2,2.7c-1.1,2.3-.3,1.1-.7,2.4s-.3.5-.6.9a26.2,26.2,0,0,1,1.9,2.9c.2.5.5,1.2.8,1.6s.8,1,1.2,1.2a2.4,2.4,0,0,1,1.2,1.2c.8,1.6,1.5,1.8,2.1,2.7l1.1,1.3a24.3,24.3,0,0,1,1.7,3.1,7.1,7.1,0,0,0,.9,1.5c1.7,1.5,1.9,3,4.1,5.5a7.7,7.7,0,0,1,1.1,1.2c.3.6.2,1,.7,1.7l.5.7.4.8,1.9,2.9a7,7,0,0,0,1,1.4,29.1,29.1,0,0,1,3.1,4.1,9.2,9.2,0,0,1,.8,1.6c.3,1,.1.9.8,1.6a24.4,24.4,0,0,1,1.9,2.9l1.8,3a6.9,6.9,0,0,0,2,2.6c.6-1.2.5-.9-.3-2.9l-2.3-5.6a15.3,15.3,0,0,1-.9-1.7l-2.8-5.1L105,98l-.5-.8-.6-.8c-1.4-2-2.6-4.9-3.6-6.9l-2.2-4.4-.9-1.8L96,80.5a36.2,36.2,0,0,1-1.2-4c-.1-.3-.2-.7-.2-1.1a14.8,14.8,0,0,1-.5-2.2,43,43,0,0,1,.7-6.7c.2-1.3,1-3.1,2.6-2.3Zm.5-4.1c-.1-.4,0-.3-.4-.4l.4.4Zm28.4-1.6a1,1,0,0,1,.1-.4c-.3.1-.1-.1-.2.2s.1.2.1.2Zm-26.5-2c0,.3,0,0,.1,0s-.1-.4-.1,0Zm30-1.2ZM96,55.1h.2c.7-.8.5-.1.9-.7H95.8l.2.8Zm6.8-1.6-.3.2Zm0,0Zm.3-.3h0Zm.7-.3Zm-4.2,0,0,0c-.2-.3,0-.2-.4-.3s0,.2.4.3Zm-.4-.3Zm30.5,2.5h.4c-.3-.6.4-1.4,1-1.4s1.2.7,1.6.9.6-1.5.7-2.5l-2.1.8c-.9.4-.6.5-1.7,1a1.1,1.1,0,0,1,.1,1.3ZM97.8,51.7m0,0A2.4,2.4,0,0,0,97,51l-.5.2-.3.2c.9,0,.8.2,1.6.3Zm-3.2-2.1.3-.2-.3.2Zm2.1-.9c0,.3.1,0,.1,0s-.1-.3-.1,0Zm4.2-4h0Zm-.8-3.9Zm1.6-1.7.2.3-.2-.3Zm33.8-.1a2.5,2.5,0,0,0,.7-.9c-.4.1-.3.2-.7,0v.9ZM99.2,34.3Zm.1-.1h0Zm37.2,0ZM99.4,34h0Zm15.9-.8h-.8c-.8-1.2-.3-.9,0-2a5.6,5.6,0,0,1-2.4.5c.3.5.5.2.7.8a.9.9,0,0,1-.4,1.1c-.8.6-1.7.1-2.4.5s.8.3,1.4.2l1.4-.3,2.6-.7Zm11.5-2ZM99.8,29.6Zm.3-.1h0Zm.3-.1h0Zm0,0,.3-.2-.3.2Zm13.4-.3h0Zm1.3-.3c.4.3.6.7.7-.1Zm2.1-3.3-1.7.6-1.9.3a7.7,7.7,0,0,1-3.9-.1c.7,1,3.9.6,5,.5s1.2.6,2.5-1.3Zm.1-.1h0Zm.1-.1h0Zm0,0,.9-.8c1.4-1.2,2.7-1.4,3.1-2s-1.8-.4-2.9-.4a17.7,17.7,0,0,0-6,.7c-1.2.5-1.1,1-2.2,1s1.4.5,2,.5c3,0,5.8-1.9,5.1.9Zm19,8.9h-.9c-.3-.4-.5-.7-.3-1.3l.5-1.3c-.9-.5-.2,0-1-.7s-.7-.4-1.4-2.1a12.8,12.8,0,0,0-1.2-2.1l-1.7-3.4c-.5.4-.6,1-1.4,1.3s-1.3-.1-1.8-.6-.7-.4-.5-1.7-.4-1.1-.6-1.8h0v.3a1.4,1.4,0,0,1-.7.9c-1.1.7-.6-.3-1.1.6a1.4,1.4,0,0,1,1.4,1.6c-.4,1.2-1.8.3-2.5.4a9.3,9.3,0,0,0-4.5,2.7c-.6.8-.9,2.5-1.3,3.5a5.5,5.5,0,0,1-2,2.7c1.4-.1,1.7-.4,2.9.3a7.6,7.6,0,0,0,2.1,1.3c.5-2.2,2.5-.4,3.3.1s.5.4.8,1c1.9,3.4-.5,3.2-.9,2.9a1.8,1.8,0,0,1-.6-1.1c-.5.1-.3.3-1,.4a5.7,5.7,0,0,1-5.1-1.1,4.1,4.1,0,0,1-1.2-1.4c-2.4.6-.9.5-4.1.9a12,12,0,0,1-4.5-.1,2.2,2.2,0,0,0-1.1-.2l-.9.3a1.5,1.5,0,0,0-1.1,1.3c-.2,1.1,1.1,1.5.3,2.6s-.3.3-.9.4,1.1.4,1.8.2.5-.3,1.7,0,.5,1.9.2,2.4a3.8,3.8,0,0,1-1.8,1c-1.3.5-2.7,1.3-4.5.3.1.3.2.5.7.8s1.8,0,2.5-.3.8-.6,2-.6.5.8.9,1l.4.2c.6.4.4,1,0,1.5s-2,1.3-2.6,2.2c1.4,0,1.2,1.2.6,2a15.2,15.2,0,0,1-1.7,1.8c.6.1.9.2,1.1.8s-.4.8-.3,1.4a1,1,0,0,1-.2,1.3c-.3.4-.6.4-.9.9,2.4.1,1.2,3.7-2.3,1.9.4,1.5-.5,2.1-1.7,1.6l-1.5-.8c.1.5.6.7.9,1.1l.9,1c.3.5.2,1.1.6,1.4s.8-.2,1.4-.1.8.4.8,1.2a7.8,7.8,0,0,1-.1,1.8,3,3,0,0,1-2,1.8l1,1.8.6.8.9,1.8,1.9,2.1c2.4,2.4.4.8,3.1,2.3.7.4-.2.1,1.7,1a13,13,0,0,1,1.8.8s-.8-1.7.6-2.1,1.5.6,2,1a7.6,7.6,0,0,1,.9.7c1.1,1.1.8,1.2,1.8,1.5s6.3.4,7-.1a8.8,8.8,0,0,0,1.4-1.8l1.6-4.7c1.4-2.4,2.5-3.4,3.1-6.2a27.8,27.8,0,0,1,1.3-3.6l.5-1c.7-1.4.2-3.9.8-5.3-1.2,0,0,.2-1.2,1.1l-2.6.9c-.7.1-1.8.1-2.2-.5v-.3h0c0,.3.7,3,.8,4.3l.3,4.3h0c.3,1,0,1.4-.7,1.7l-1.8.8a4.2,4.2,0,0,1-3.4-1.1,1.8,1.8,0,0,1-1.9.3l-1.8-.6c-.9-.5-1.4-.9-.9-2.4s1-3.5,2.6-3,.1,2.2,0,3.1a4.5,4.5,0,0,1,3.2.4c1.2.8,1.2,1.5,2.4.9l-.4-4.2c-.1-.6-.3-1.5-.3-2.1-.4-3-1-1.9.2-4.5l.4-.7c.3-.7.2-.9.8-1.5a3.2,3.2,0,0,1,1.5-.8c-.2-.4-.3-.5-.1-1s4.8-3.8,6.6-3.8c-.1-.2-.2-1.2-.3-1.7-.5-2,.1-3.4-.2-5.4s0-1.2-.1-1.9a10.4,10.4,0,0,0-1.4-4.5c-1.6,0-1.5.6-2.1-.8h-.7c-.2.8-.4,1.5-1.3,1.6a2.1,2.1,0,0,1-.1.8c-.3.6,0,.3-.4.4a1,1,0,0,1-1.6-.6l-.8-1.6-.4-.8a1,1,0,0,1,1.2-1.5c-.1-1.5.1-1.7,1.6-1.6a1.1,1.1,0,0,1,.6-1.4c.7-.3,1,.1,1.4.4s.2-.3.9-.3a1.9,1.9,0,0,1,1.5,1.7c.8,0,1.1,0,1.3.5a2.1,2.1,0,0,1-.1,1.5c.7.3,1.1.3,1.6,1l.7,1.7a3.4,3.4,0,0,0,1.7-2.1ZM120.7,20c-.2.2.1.1.1.1S120.9,19.9,120.7,20Z" transform="translate(0 -16.7)"/>
      <path class="cls-3" d="M192.1,149h0Zm3.3-3.1-4.9,1.2a10.1,10.1,0,0,0-2.3.8,1,1,0,0,0-.3,1.4l.4.3h.1c-.8,0-2.4.1-2.9.8s.4,1.7,1.4,1.6l19.3-3.5v-2.1c-1.6,0-12.3,2.3-13.1,2.3a4.6,4.6,0,0,1,1.5-.5l1.6-.4,10-2v-3.6a16.6,16.6,0,0,0-2.9.5c-1.3.4-5.8,1.4-7,2S195.5,145.2,195.5,146Z" transform="translate(0 -16.7)"/>
      <path class="cls-3" d="M107.9,52.2c0,1.5,1.2,1.6,2.2.9s.3,0,2.1-.2.4.1.9.2.9-.2,1.7.3l.2.2c-.8,0-1.8.2-2.1.9s-.1.3,0,.8h-.7c.8-1.1.1-1.9-1.4-1.3s-3.7,1.1-3.4,2.6a1.2,1.2,0,0,0,1.1.9c.7.1,2.3,1.5,2.7.4h.3a1.2,1.2,0,0,0,.6.8,2.9,2.9,0,0,0,2.2.2c.1.9.8,1.1,1.6.9a3.3,3.3,0,0,0,1.5-.6l.5-.3c1.1-.7-.1-1.2.9-1.7s2.4-.2,1.4-2.2c.7-.2,1.7-.3,1.7-1.2s-3-2.1-3.6-2.6-.1-.4-1.8-.4-1-.9-2.1-.9c-2.8,0-1.5-.5-2.7-.5S107.9,51.5,107.9,52.2Z" transform="translate(0 -16.7)"/>
      <path class="cls-3" d="M61.9,134.5h.1c.1-.3.9-1.9-1.2-2s-1.8-.5-3.2-.5a11.7,11.7,0,0,0-6.1,1.4l-1.2.6L48.6,135a25.5,25.5,0,0,0-3.7,2.9l-.9.9-1.1.7c-.7.5-1.8.9-1.2,2.1s4.5-1.4,5.5-2.4l3.1-2.5a22,22,0,0,1,3.7-1.9l1.4-.5h3.4c-.3.4-.5.3-1.3.9a20.1,20.1,0,0,0-2.6,3l-.5.7a10.4,10.4,0,0,0-.7,1.5c-.5,1.6-2.2,4.2,0,4.5s1.6-1.7,1.8-2.3a34.1,34.1,0,0,1,2.3-4.5c.4-.6.4-.1,1.2-1s2.6-.5,1.6-2.4C61.4,134.9,61.3,134.6,61.9,134.5Z" transform="translate(0 -16.7)"/>
      <path class="cls-3" d="M123.8,73m0,0c1.9,0,2-.6,2-1.7s-1.8-1.1-2.7-1a8.7,8.7,0,0,0-5.1-.2c-.8.2-2.9.2-3.4,1.1s1.3,1.7,2.3,1.7c.6,2.4,5.1,2.2,6.2,1.9S123.9,74,123.8,73Z" transform="translate(0 -16.7)"/>
      <path class="cls-3" d="M42.8,151.3a1.3,1.3,0,0,0,1.3,1.2c.9,0,1-.8,1.5-1.3,2.5-2.7,3-3.8,4.4-7l1.9-3.7c.8-2,1-.9,1-2.4s-2.1-1.8-2.9.3-1.9,3.9-2.7,5.9a8.5,8.5,0,0,1-.9,1.9l-1.2,1.8C44.2,149.4,42.8,150.5,42.8,151.3Z" transform="translate(0 -16.7)"/>
      <path class="cls-3" d="M39.3,134.3c0,.5.5.9.8,1.1-.8,3.2-1.6,3.7-2.2,5.5a8.4,8.4,0,0,1-.5,1.4,14.6,14.6,0,0,0-1.1,4.9c0,1.2,2.2,1.9,2.5.1a6.8,6.8,0,0,1,.3-2,25,25,0,0,1,2.5-6.5c.7-1.4,2-5-.3-5.7C40.6,132.9,39.3,133.3,39.3,134.3Z" transform="translate(0 -16.7)"/>
      <path class="cls-3" d="M99.7,136.5c0,.3.4.9.4.9l-.2,1.6c-2,.2-.7,3.6,1.1,3.6s.9-.7.9-1.2l-.6-1.7c1.3-.9.9-1.1,1.1-2.8a8.3,8.3,0,0,0,0-1.8c0-.7.5-1,.5-1.4s-1.4-1.7-2.8,0-.3.5-.3,1.2A12.2,12.2,0,0,0,99.7,136.5Z" transform="translate(0 -16.7)"/>
      <path class="cls-3" d="M106.8,68.8a23.5,23.5,0,0,0,1.4,7.2c1.3,2.5,2.6,1.2,2.6-.1s-.6-1-1-1.6l-.8-4.3a14.2,14.2,0,0,1-.1-2.4c-.6-.4-.1-.4-1.2-.4S106.8,68.1,106.8,68.8Z" transform="translate(0 -16.7)"/>
      <path class="cls-3" d="M105.1,60.6c0,.9,1.1,2.7,1.6,3.3s1.1,2.5,2.7,2.5.7-.6.7-.9a7,7,0,0,0-.9-2.1l-.7-.9-1-2c-.2-.5-.1-.8-.6-1A1.2,1.2,0,0,0,105.1,60.6Z" transform="translate(0 -16.7)"/>
      <path class="cls-3" d="M157.4,127.5a1.3,1.3,0,0,0,1.9,1.2,1.5,1.5,0,0,0,.4.9c.8.9,3,.3,1.6-2.5S157.4,126.1,157.4,127.5Z" transform="translate(0 -16.7)"/>
      <path class="cls-3" d="M161.3,132.7c0,2.3,4.3,2.6,2.9.1s-.1-1.7-1.6-1.7A1.4,1.4,0,0,0,161.3,132.7Z" transform="translate(0 -16.7)"/>
      <rect x="34.1" y="111.4" width="0.1" height="0.8"/>
      <rect x="34.1" y="117.3" width="0.1" height="0.8"/>
      <path class="cls-3" d="M205,127.8v-.4C204.7,127.6,204.7,127.6,205,127.8Z" transform="translate(0 -16.7)"/>
      <path class="cls-3" d="M205,127.4l.2-.3Z" transform="translate(0 -16.7)"/>
      <path class="cls-3" d="M205,127.8v0Z" transform="translate(0 -16.7)"/>
    </g>
  </g>
</svg>
