<svg id="Слой_1" data-name="Слой 1" xmlns="http://www.w3.org/2000/svg" viewBox="0 0 180 153.9">
  <defs>
    <style>
      .cls-1 {
        font-size: 27.88px;
        font-family: Arial-BoldMT, Arial;
        font-weight: 700;
      }

      .cls-2 {
        fill-rule: evenodd;
      }
    </style>
  </defs>
  <title>mans</title>
  <text class="cls-1" transform="translate(29.5 143.4)">ЖИТЕЛИ</text>
  <path class="cls-2" d="M125.3,55.4c0-1.5.1-4.6,1.1-5.4.1,3.8,4.7,8.5,7.2,11.7a26.1,26.1,0,0,1,2.7,3.8c-1.3.6-1.9-.2-3.5,2.7s-1.2,3.2-2.5,4.1l-1-4.4c-.4-1.7-.7-3-1.2-4.4s-2.9-5.2-2.9-8.2Zm34.6,35.3c-.4-2.4-3.2-5.1-4.2-6.8s-3-3.5-3.5-5-.3-4.1-.3-5.9.8-.7.8-1.7-3.1-1.7-3.1-5.7,3.3-5.6,0-10.2c-1.8-2.6-5.4-3.1-7.4-.3s-.7,2.7-2.8,3.2c.3,1.5.1,1.3-.1,3s1.2.9.4,2.6c-1.3-.4-1.5-2.4-2.2-3.5-2.3-4.2-6-5.6-7-10.8s-1-8.9-6.3-11.5c-2.4-1.2-2.9-1.8-2.9-4.4s1.7-.9,2.3-1.9.2-.9,1-1.5,3.2-1.3,3.7-3.4c-2,0-3.1.8-5.4.8,0-6.8-6.4-9.2-10-5.2a6.7,6.7,0,0,0-1.3,4.6c-2.4,0-3.6.3-5.9.3.3,1.3,1.7,1.5,2.9,1.9l3.9,1.2c-.4,1.5-.5,1.2.1,2.4s-.3,2.4,1,2.4,1.3-.3,2.5-.3c0,1.7-.6,1.8-1.9,2.4-2.9,1.2-7.3,1.8-7.7,5.6s.4,3.4-1.3,7.5a20.3,20.3,0,0,0-1.9,7.2c-.6-1-.7-2.3-1.1-3.4s-1.3-2.1-1-3.3c.7-2.8.2-.6.2-3.8a26.2,26.2,0,0,0-.1-4.4c-1.9-10.1-5-8-7.4-9.6a2.4,2.4,0,0,1-.7-.9l.6-1.5v-.2a3.3,3.3,0,0,0,.7-1.9h.8c0-4.3.8-1.2.8-6.5a3,3,0,0,0,2.5-2c-1.5-.1-2.4-1.8-3.7-2.5-3.8-2.3-8.2-2.4-10.4,1.8-1.2,2.3-.4,5.4-.4,8.4s-5.5,3.1-8.2,3.4c-6.6.7-5.6,11-7.9,15.3a12.8,12.8,0,0,1-2.5,3.1l-3.2,2.8a23.2,23.2,0,0,0-3.6-8.6c-.4-.6-.1-.1-.4-.7A2.2,2.2,0,0,0,57.6,42a5.2,5.2,0,0,0-5.3.7l-2.5,2.4c-3,2.9-1.6,9.6-1.6,13.4-2.3.2-5.7,1.6-5.7,4.2,0,1.1,1.1,1.1,1.1,2.3a7.9,7.9,0,0,1-2.8,5.4c-1.6-1.1-1-1.3-3.5-2.2-6.8-2.3-.4-5.2-.3-7.5s-.2.5-.2-.9a7.7,7.7,0,0,0-1.1-4.8c-2.3-4.5-7-3.1-9,.1l-1.1,2v3.4c.2,1.9,1,2.1,2,3.4s1.2,1,1.2,1.9c0,2.7-5.7,0-7.4,4.8a8.5,8.5,0,0,0-.5,2.2v1.5c0,.5.1,1.1.2,1.8.9,6.5-1.7,5.8,3.3,12,1.5,1.9-.3,5.1-.4,7.4s-.3,3.5-.3,6c0,.6.6.8.9,2.2a26.7,26.7,0,0,1-.1,9.8c-.2.9-.5.5-.6,1.9s.4,1.2.4,1.9-.6,1.5-.6,3.4a16,16,0,0,0,3.1.8c-.2,2.6-1.4,2.5-1.4,4.5,2.3.5,2.6-.2,4.8-.3a11.4,11.4,0,0,0,.3-3.4c0-2.9,1.4-2,.7-6.3l-.4-18c.2.3.1-.2.4.7,1.7,4.9,1.3,12.5,1.3,17.7,0,1.6-.8,1.4-.8,2.5s.6,1.3-.2,2.9-.9,1-.2,2.6.1,4.2,3.2,4.2c1,0,1.9-1.3,2.7-1.9,2.8-2.2,2.5-2.7,1-5.5,2.5-3.7.3-3.3.6-6.5.6-8.2.7-22.7-.9-30.3a33.8,33.8,0,0,1-.5-6.5c1.5,1.1.1,2,2.8,2a4.1,4.1,0,0,0,3.3,3.5c3.4,1,1.4.5,2.9,8.5s1,10.4,1,17.2l2,.8c0,8.7,2,5.8,2,10.5s-3.8,8.8,2.5,8.8c1.9,0,2.3-1.5,2.3-3.1,1.1,0,2.4-.1,3.2-.8s-.6-5.5-.6-9.7c0-1.4,1.8-4.2,2.7-5a3.6,3.6,0,0,0,1.4-2.3l1.3-18.2a36.9,36.9,0,0,0-1.4-11c2.4-1.2,1.3-.7.8-3.6a22.9,22.9,0,0,1,.6-7.5c.3-1.3-.4-.4.6-1.1a26.2,26.2,0,0,0,1.7,5.1c1.1,2.6,1.7,1.9,4,3.1l-1,16.9a49,49,0,0,0-.2,6.9c0,1.8.8,2.5,1.5,3.9a13.3,13.3,0,0,0,3.4,4.8c1.8,1.5.1,4,.1,8.1s4.5,5.6,6.4,2.5c.8-1.3.2-2.6.1-3.9s0-3.1,0-4.5-.6-2.5-.6-4.2,2-1.8,2-5.4c0-.8-.6-.8-.9-1.4s-.6-5.8-.5-6.5a17.8,17.8,0,0,1,1.4-6.8,2.9,2.9,0,0,1,.6-.8l.3,15c0,1.6-.5,2-.6,3.4s.1,2.8-.1,4.2c-1.5,11.7-.3,7.4.1,10.6s-1.4,8-.7,8.9,4.3.6,5.7.1.4-3.3.4-5c0-4,4.7-1.9,4.8-5.9.1-1.6-.2-3.9,0-5.4s1.5-2,2.1-3.6.1-3.5.2-5.2,1.2-3.1,1.3-4.3-.5-3.1-.5-4.8-.3-3.2-.3-5.4.3-3.1.3-5.1l-1-6.9c-1-5.3-.4-5.7-.4-11.2,0-2.9-2.8-12.4.3-14.4.1,1.4.9,1.2,1.5,1.9a20.3,20.3,0,0,1,.9,2.5,13.4,13.4,0,0,1,.8,2.6c.2.9.3,1.8.6,2.8,1,3.3,4.4,7.4,4.4,9.2s-2.2,2.5.3,5.4c-1,1.3-.7-.2-.8,1.4a4.3,4.3,0,0,0,3.7.6c.7-2.8-.3-5.9-.3-9.1,0-1.5,2.3-4.8,2.3-8.5s.3-2.3.9-4.5a14.5,14.5,0,0,1,.7-2.2c.3-.9.4-1.4,1-1.8a18.6,18.6,0,0,1,1.1,5.7,16.9,16.9,0,0,1-.3,6.2c-2.3,9.1-3.2,12.3-.4,21.8,1.9,6.3,4.2,12.1,5,18.8.2,2.2-.5,6.6.3,8.5s1.2-.8,1.2,7.1c0,1.2-.4.9-.4,1.7s.4.5.4,1.7-1.1,3.6-1.1,5.7,5.4,3.1,5.4.6-.8-4.7-.8-7.4,2-2.4,2.2-5.4a14.5,14.5,0,0,1,.5-3.4,19.3,19.3,0,0,0,.8-3.1c.2-1.2,0-2.4.1-3.6l.8-11.1c0-3.8,2.4-8.3,3.6-12a19.8,19.8,0,0,1,2.4-5.5c.6-.7,1.3-1.3,2-2a6.1,6.1,0,0,0,1.6-2.3h.6a17.6,17.6,0,0,0,.9,5.1c2.1,6.4,1.5,5-.2,13.5-.3,1.6-.6,2.7-1,4.1s-1.1,2.3-1.1,4.2l3.3.9c1.1.5.6,2.5.6,3.9s-.5,6.4.5,8.3c1.8,3.6,2,1.6,1.3,6.5-.2,1.4-.5,2.3,0,3.5s3.6,3.4,3.6.9c0-4.2-.6-7.3-.6-9.6V102.7c0-1.6.3-1.7.3-3.1h.8c0,2.9-.2,6.3.3,8.7s.5,9.2.5,13.1-5.2,6.5.8,6.5c1.2,0,1.6-1.3,1.7-2.5s.2-1.3.2-1.7-.2-.9-.2-2c0-4.2.9-7.6.9-11.6A40.6,40.6,0,0,1,149.7,99l2.9-.7c4.6-1,2.4-2-.4-8.9-.4-.9-.8-1.5-1.2-2.5-2.5-5.9-3.8-6.1-2-10.4v-.2c1,4.1-1,4,2.5,6.9,7.3,6.1,3.8,7.1,6.9,8.7-.2-.9-.4-.8-.6-1.7,1.1.8.8,1.6,1.7,2.3a2.5,2.5,0,0,0,.3-.8v-1Zm-92.1-31c0-1.1-1.2-2.1-1.7-2.8l4.3-4.2c1.3-1.3,2.6-3.7,3.9-4.6,0,7.6-.8,7.9-2.1,13.2-.3,1.4-.8,3.2-.9,4.4s.9,6.7-1.7,4.1S67.8,62.9,67.8,59.6Z" transform="translate(0 -16.1)"/>
</svg>
