<svg id="Слой_1" data-name="Слой 1" xmlns="http://www.w3.org/2000/svg" viewBox="0 0 240 216.4">
  <defs>
    <style>
      .cls-1 {
        font-size: 38px;
        font-family: Arial-BoldMT, Arial;
        font-weight: 700;
      }

      .cls-2 {
        letter-spacing: -0.01em;
      }

      .cls-3 {
        letter-spacing: -0.06em;
      }

      .cls-4 {
        fill-rule: evenodd;
      }
    </style>
  </defs>
  <title>map</title>
  <text class="cls-1" transform="translate(57.9 202.1)">КА<tspan class="cls-2" x="50.6" y="0">Р</tspan><tspan class="cls-3" x="75.5" y="0">Т</tspan><tspan x="96.3" y="0">А</tspan></text>
  <g>
    <path class="cls-4" d="M44.7,161.3c0-6.2,1.7-15.3,2.7-21.7s2.2-14.9,2.2-22.1l41.4,6.1c0,5.9-3.2,42.3-4.6,43.7s-29.5-6-41.7-6Zm101.2-46.2c12.5,1,27.1,4.9,40.2,4.9.6,6.7,2.4,17,3.3,23.5,1.1,8.1,2.8,17.5,2.8,25.2l-42.7-9.7c0-15.2-3.7-28.9-3.7-43.8Zm-1.2-6.1c0-5.9,1.1-6.8,1.2-13.4.3-11.6,3.7-27.7,3.7-41.3a216,216,0,0,0,21.2,8.1l21.5,7.7c0,4.8-4.4,40.3-5.4,41.9s1.3,1.9-8.9.5L144.7,109ZM131.3,61.6c5.4-.1,7.4-1.8,11-3.6,0,17.7-3.7,32.3-3.7,51.1-12.1,2.8-22.5,3.1-32.8,4.9-4.9.8-5.7,1.8-6.2,7.2,13.8,0,30.2-4.7,39-4.9.1,6.6,2.1,14.8,2.4,21.9s1.2,16.4,2.4,21.9c-9,2.1-45.7,7.7-50,9.7l4.9-47.4c0-2.6-2.8-5.9-3.7-9.7H91.1v3.6c-10.3-.2-30.3-5.3-40.2-6.1L44.7,64c8.6,2,17.9,9,26.8,9.7-.1-3.8.4-2.3-.9-5.2-2.5-5.3-30.1-14.2-33.2-14.3,0,17.4,6.1,38.6,6.1,54.7,0,9.1-7.9,54.3-5,57.2s9.8,2.1,13.2,2.7c40.1,6.9,28.4,9.9,68.1,2.8,31.9-5.7,21-7.9,52.7-.4,7.8,1.8,17.4,4.6,27.1,4.6,0-17.4-6.1-49-6.1-57.1,0-12.5,6.1-35.4,6.1-52.3,0-2.7-20.8-9.1-23.9-10.2-31.2-11.1-22-11.2-37.2-4.6C133,54,131.9,54.7,131.3,61.6Z" transform="translate(0 -15.7)"/>
    <path class="cls-4" d="M98.4,64c-3.8,0-9.6-3-12-5.1-15.2-13.8.3-30.2,12-30.2,13.5,0,24.6,17.5,12.5,29.5-2,2-9.4,5.7-12.5,5.7ZM66.7,45.8c0,12.8,3.4,14.2,9.7,25.6L88.6,94.4c2.1,3.7,6.4,11.5,7.4,15.8,5-.4,1.9.6,4.3-1.8s-.3.6.9-1.5l22.5-42c23-31.4-18.7-64.9-47.4-41.2C71,27.9,66.7,36.4,66.7,45.8Z" transform="translate(0 -15.7)"/>
  </g>
</svg>
