<svg id="Слой_1" data-name="Слой 1" xmlns="http://www.w3.org/2000/svg" viewBox="0 0 180 158.3">
  <defs>
    <style>
      .cls-1 {
        font-size: 28px;
        font-family: Arial-BoldMT, Arial;
        font-weight: 700;
      }

      .cls-2 {
        fill-rule: evenodd;
      }
    </style>
  </defs>
  <title>music</title>
  <text class="cls-1" transform="translate(28.5 147.8)">МУЗЫКА</text>
  <text y="-12.6"></text>
  <g>
    <path class="cls-2" d="M50.8,67.7c-1.5-7.8-1.9-21.1,5.9-25.9,2.5-1.6,4.5-.9,6.4-1.9s4-4.3,10.4-6.6c1.4-.5,6.1-1.5,6.7-1.8-.7-9.5,2.3-11.6,2.5-13.5-10.6,1.4-17.9,1.6-27.3,7.7a34.6,34.6,0,0,0-4.8,3.8c-2.5,2.4-2,3.1-2.2,6.3s-1.6,3.5-2.6,5.8a44.4,44.4,0,0,0-2.3,6.4,46.7,46.7,0,0,0-1.1,15.8c.1,1.7,1.3,6.2.8,7.2s-3.7,2.6-4.9,3.7C31,81,27.1,88.8,27.6,98.7a29.5,29.5,0,0,0,24.8,27.6c2.2.3,6,.7,8-.1s2.3-4.1,2.1-6.4c-.5-5.4-.7-10.9-1.1-16.3-.2-2.2-.1-6-.8-8s-2.2-3.2-2.9-5.9a26.5,26.5,0,0,1-.9-7.8c.2-3.4.7-3.9,1.9-6.9s.8-5.1-1.1-6.6S53.1,68.5,50.8,67.7Z" transform="translate(0 -12.6)"/>
    <path class="cls-2" d="M114.2,21.5c-.5.5,0,3.6,0,4.4a19.4,19.4,0,0,1-.9,4.3c-.6,2.3-2.8,5.3-.9,6.9s2.9,2.6,6.8,3.6a14.6,14.6,0,0,1,6.1,4.2c3.2,3.6,3.8,12.4,3.4,16.9-.1,1.5-.2,3.3-.5,4.7s-1,2-2.6,1.7c-3.4-.5-5.8-.1-6.1,3.9s-.4,1.8.8,4a15.4,15.4,0,0,1,1.5,3.6,16.5,16.5,0,0,1,.1,8.9,16.3,16.3,0,0,1-3.6,6.7c-1,1-1,7.4-1.1,9.1s-.4,6.4-.7,9.6-.8,8.2-.5,9.6c1,5.4,12.2,2.6,15.7,1.3a29.6,29.6,0,0,0,18.8-22.2,31.7,31.7,0,0,0,.5-4.1V95.2c-.5-8.4-4.8-15.7-11.6-21.5-2.4-2-4.9-1.4-4-5.3A43.8,43.8,0,0,0,133.1,42c-1.1-2.6-2.9-4.2-2.9-6.9s-.4-4.4-3.2-6.8a37.2,37.2,0,0,0-6-4.2C120,23.6,114.9,20.7,114.2,21.5Z" transform="translate(0 -12.6)"/>
    <path class="cls-2" d="M93.7,75.8c4.6-1.4,11.8,1.9,14.1,6.2s1.1,12.1-2.6,15.7a17,17,0,0,1-6.7,3.7c-.8.2-.9-3-1.1-3.7-.8-4.4-1.4-8.6-2.2-13.1-.5-2.9-.9-5.9-1.5-8.8Zm-6.3,56.8a15.1,15.1,0,0,0,10.1-4.7,13.4,13.4,0,0,0,3-11.2c-.7-4-1.5-8.7-2-12.8,5.3-1.5,10-3.1,13.7-7.5s6.1-9.8,4.7-15.7-5.4-9-10-11.2a24.2,24.2,0,0,0-8.5-2.1c-3.4.1-6.3,1.6-6.6-2.9a24.6,24.6,0,0,0-.7-4.8c-1-3.8.3-4.5,2.7-6.6a35.9,35.9,0,0,0,2.6-2.7,63.5,63.5,0,0,0,9.3-11.9c2.9-4.9,4.5-11.4,3.6-17.1s-5.3-10.8-11.6-8.2c-4.4,1.8-8.3,6.5-10.7,10.5-4.1,6.9-4.2,8.8-2.6,16.6.4,2,2.4,6.4,2,7.8s-4.3,3.7-5.6,4.8c-4.1,3.3-7.7,5.9-11.3,9.9-7.5,8.5-10.8,20.5-3.5,30.3s19.2,11.9,30.9,11c.2,3.4.6,6.8.9,10.2s.8,5.8-.6,9.8a10.1,10.1,0,0,1-5.4,5.8c-1.6.7-8.2,2-9.5,1s1-1.3,1.7-1.6a16.4,16.4,0,0,0,2.3-1.4,6.1,6.1,0,0,0,2.8-4.7c.1-3.9-3.3-7.1-7-7.8-8.8-1.6-15.4,7.8-6.6,14.3a16.5,16.5,0,0,0,8.1,2.9ZM92,76c-.6-.3-3.8,1.3-4.5,1.8a12.1,12.1,0,0,0-3.3,3c-1.9,2.5-2.7,7.1-1.1,9.9s5.4,3.4,5.7,4-5.9.4-10-4.5S77.4,77,82.2,72.7s7.3-3.7,8.3-4.3-.5-4.4-.6-5.2-.7-3.9-.9-5.5c-2.2,1.7-10,9-12.2,11.2a46.4,46.4,0,0,0-5.4,6.3c-2.1,3.1-2.8,5.1-2.5,8.9.5,6.6,2.8,11.4,8.6,14.8a27,27,0,0,0,8.7,3c2.2.4,8.4,1.1,10.3,0L92,76Zm12.6-49.6c-.6,6.3-4.3,10-8.8,14-2,1.8-4.4,3.4-6.3,5.1s-1.4-.9-1.7-2.3a15.5,15.5,0,0,1-.3-5.3c.5-4.5,5-11.4,8-14.8.9-1,5.2-4.9,6.3-5.1s2.2,2.1,2.5,3A13.7,13.7,0,0,1,104.6,26.5Z" transform="translate(0 -12.6)"/>
    <path class="cls-2" d="M114.9,99.9c-1.1.9-1,2.1-4.5,3.7a30.4,30.4,0,0,1-2.9,1.3c-.9.3-.7,2.5-.8,3.4-.2,2.6-.4,5.2-.5,7.8s-.9,5.1,1,6.9a3.8,3.8,0,0,0,5.7-.5c1.1-1.5,1-5.3,1.1-7.2S115.2,100.4,114.9,99.9Z" transform="translate(0 -12.6)"/>
    <path class="cls-2" d="M63.5,98.1c-.1,3.6.6,8.4.8,12.2.1,1.4.5,11.3,1.2,11.7s.9-3.2,1.1-3.6a16.2,16.2,0,0,1,4-5.8c1.7-1.7,1.6-.6,1.4-3.4s-.2-3-.3-4.5.5-2.5-1.7-3.3-2.2-1-3.4-1.5S64.2,98.4,63.5,98.1Z" transform="translate(0 -12.6)"/>
  </g>
</svg>
