<svg id="Слой_1" data-name="Слой 1" xmlns="http://www.w3.org/2000/svg" viewBox="0 0 180 180">
  <defs>
    <style>
      .cls-1 {
        font-size: 27.88px;
        font-family: Arial-BoldMT, Arial;
        font-weight: 700;
      }

      .cls-2 {
        letter-spacing: -0.02em;
      }

      .cls-3 {
        fill: none;
      }

      .cls-4 {
        fill: #8b8c8d;
      }

      .cls-4, .cls-5, .cls-6 {
        fill-rule: evenodd;
      }

      .cls-6 {
        fill: #a3a4a6;
      }
    </style>
  </defs>
  <title>news</title>
  <text class="cls-1" transform="translate(20 157.5)">НО<tspan class="cls-2" x="41.8" y="0">В</tspan><tspan x="61.3" y="0">О</tspan><tspan class="cls-2" x="82.9" y="0">С</tspan><tspan x="102.4" y="0">ТИ</tspan></text>
  <text></text>
  <rect class="cls-3" width="180" height="180"/>
  <rect class="cls-3" width="180" height="180"/>
  <g>
    <g>
      <path class="cls-4" d="M116.7,35.8h.5a1.3,1.3,0,0,1,.1-.8.7.7,0,0,0-.1.7Z"/>
      <path class="cls-4" d="M129,47.9c.2,0,0-.2-.1-.2Z"/>
      <path class="cls-4" d="M28.6,76.1h-.1C28.4,76.2,28.5,76,28.6,76.1Z"/>
      <path class="cls-4" d="M148.9,47h0Z"/>
    </g>
    <g>
      <path class="cls-5" d="M17,86.7h.1c.9-.7,4.6-1.2,5.6-1.3h5.1a5,5,0,0,1,1.5.3,67.9,67.9,0,0,1,10.2,3.9,103.5,103.5,0,0,1,9.2,5A159.3,159.3,0,0,1,67.1,108l1.9,1.6.9.8c2.2,1.7,4.5,4,6.6,5.7l3.9,3.2a16.6,16.6,0,0,0,1.9,1.6c2.9,2,5.7,1.5,8.9,1.8a21.4,21.4,0,0,1-6.2.5,20.8,20.8,0,0,1-8.1-2.3,17.9,17.9,0,0,1-4.2-2.8l-1.9-1.6L69,115l-1.7-1.8-1.7-1.8-3.3-3.7-.8-.9-4.2-4.6a48.7,48.7,0,0,0-7.5-6.4,58.7,58.7,0,0,0-20-7.9A52.7,52.7,0,0,0,17,86.7ZM28.7,76h-.2c0,.2,0,0,.1.1l16.7,7.5c6.4,2.9,13.8,6.8,20,10.3,3.8,2.2,7.5,4.6,11.1,7s4.4,3.3,6.9,5.2,4,2.9,6.2,2.9a3.8,3.8,0,0,0,2.3-.7c1.3-1.5-4.5-5.7-5.4-6.4-9.7-6.9-21.1-11.5-32-16.4l-4.2-1.8c-4.8-1.8-13.9-5.1-17.8-7.9a1.3,1.3,0,0,0-1.1-.4,10.7,10.7,0,0,0-2.5.4Zm-4.4,1.9c.8-.1,4.5,1.4,5.2,1.7l4.7,2.3,4.6,2.4,4.7,2.3,9.3,4.7c4.7,2.5,13.8,7.3,17.6,10.4,1.1.9,4.3,3.6,5.6,4.9s4.3,3.7,5.7,4.7c3.1,2.3,5.9,4.1,10.1,4,2.2-.1,4-.5,5.2-1.7a8.2,8.2,0,0,0,1.6-10.2,23.6,23.6,0,0,0-4.7-5.8,51.6,51.6,0,0,0-5.8-4.6c-4.1-2.5-10.6-4.3-15.3-5.6-11.3-3.1-25.9-6.6-35.6-13.3a5.8,5.8,0,0,0-5.5-.1c.3.3,3.7,2,4.3,2.3a124.4,124.4,0,0,0,23.4,9.5c6.3,1.9,13.8,4.1,19.7,6.6s12,6.3,15.7,10.6c.8.9,2.2,2.8,1.9,4.6s-1.9,3-3,3.6c-7,3.9-17.2-5.7-21.7-9.5l-3.6-3c-3.4-2.7-12.1-7.9-16.2-10.1s-5.7-3.1-8.6-4.5-5.9-2.8-9-4.1a23.5,23.5,0,0,0-7.6-2.2,11.4,11.4,0,0,0-2.9.3h0Zm10.2-8.5c.1.2,0,.1.2.3A41.4,41.4,0,0,0,40.7,74l2.4,1.2a50.1,50.1,0,0,0,5.1,2.2l5.4,1.8c3.8,1.1,7.6,2.1,11.5,3,10.7,2.5,24,4.7,31.4,12.2a17.5,17.5,0,0,1,3.2,4.1,14.7,14.7,0,0,1,1.8,5.5c.6,5.1-1.1,8.3-3.8,10.6a12.2,12.2,0,0,1-11.3,2.1,13.3,13.3,0,0,1-4.6-2.6l-8.1-6.4c-4-3.1-8.5-6.2-12.7-9.1s-5.8-3.8-8.8-5.7c-7.1-4.4-16.2-9.4-24.3-12a4.7,4.7,0,0,0-1.4-.4,29.5,29.5,0,0,0-4.7.2l-.3.2L24,82c6.2,2.4,12.8,4.9,18.8,7.7a133.2,133.2,0,0,1,19.4,10.9l4.5,3.1,6.5,5,6.1,5.1c1.3,1.1,2.9,2.6,4.1,3.5,8.6,6.7,21.5-.6,20.9-11.8-.4-7.7-7.8-13.1-13.9-16.4-7.9-4.3-14.3-5.2-22.7-7.6-3.9-1.1-7.6-2.4-11.3-3.8a75,75,0,0,1-12.5-6.5l-1.1-.8c-.8-.5-.7-.6-1.3-.6-2.3-.1-4.7-.5-7-.6Zm60.3,55.7a15,15,0,0,0,4.1-1.5c3.5-1.9,9.5-6.8,12.7-9.5l2.2-2c1.4-1.2,3-2.8,4.4-4l3.5-3.4,4.2-4.1,1.4-1.4,4.2-4.2,2.8-2.8,2.7-2.8,4.1-4.2.7-.7,6.1-6.4,6.1-6.5,2.7-2.9.7-.7,1.3-1.4c1.8-2.1,3.4-3.2,4.3-6.8,1.5-5.9-.1-14-2-19.2s-4.6-9-9.5-12.8c-7.2-5.5-13.4-8.9-22.8-10.6-4.9-.9-9.8-1.1-14.6-2.1-3.2-.6-2.1-1-4,.5C102.5,21.5,90.8,27.7,82,31.9L66.8,39.1l-7.6,3.5-7.5,3.6a149.3,149.3,0,0,0-14.3,7.9c-1.2.8-5.7,4-6.2,4.9h.1l2.1,1.5,2.2,1.6,4.6,3.1c9.2,5.9,20.6,11.7,31.3,15,6.8,2.1,17.4,4.7,23.3,7.6a25,25,0,0,1,6.7,4.9c3.4,3.4,5.9,7.6,5.9,13.4a18.2,18.2,0,0,1-3.9,12.1,21,21,0,0,1-7.6,6.1l-1.3.6ZM10.2,88.9h5.7a79.3,79.3,0,0,1,14.5,2.8c8,2.3,15.3,5.5,21,10.8l1.5,1.4,1.5,1.4,7.1,7.3,2.9,2.9,1.5,1.4,1.5,1.4,1.6,1.4c4.3,3.6,10.3,7.6,16.7,9.3s13.3-.3,18.3-3.4a64,64,0,0,0,6.6-4.9l3.1-2.7,1.1-1.1.4-.3,4.4-4.2,2.9-2.9,5.8-5.8,4.3-4.5c.8-.7,3.4-3.6,4.2-4.4l2.8-3,1.4-1.5c1.3-1.5,2.8-2.9,4.1-4.5l2.7-3,2.8-3,2.7-3,.4-.4,1-1.1,1.3-1.5,6.7-7.7a9.4,9.4,0,0,0,1.2-1.6c2.3-4.1,2-10.6,1.4-15.1s-2.5-12.5-5.9-17.2c-6.6-9.1-17.8-14.4-29-17.2a83.9,83.9,0,0,0-9.9-1.7l-5-.8-4.8-1a17.1,17.1,0,0,1-2.3,1.9c-7.1,5.7-15.5,10-23.8,14.1l-2.9,1.4L79,30,67.4,35.2,55.7,40.4,49.9,43c-3.6,1.7-7.8,3.6-11.3,5.5a101.9,101.9,0,0,0-10.6,6.2c-.8.6-4.2,3-4.6,3.8,1.3,2.5,7,5.2,9.6,6.4a22.6,22.6,0,0,1,3.4,1.9l-7.3.5c.2.8,1.5,1.8,2.2,2.3l.8.6-3.3.7a15.9,15.9,0,0,0-2.8,1.2l.5.2A6,6,0,0,1,29,73.5c-.8.7-6.9.3-7.6,1l2.5,1.5.3.2-3.4.4a18.4,18.4,0,0,0-3.5.4,4.6,4.6,0,0,0,1.4.9l1.5.7c-1,.6-3.8.9-4.7,1.4A24.7,24.7,0,0,0,18,81.3l1.2.7,1.2.7h-.9l-.9.2a16.3,16.3,0,0,0-6.3,4Z"/>
      <path class="cls-5" d="M68.2,72.9l2.9,1.7,2.1-1.6,2.1-1.5c5.5-4.1,11.3-8.2,16.8-12.3l4.2-3.1,4.2-3.1,4.2-3.1,16.8-12.3,8.4-6.2,8.4-6.2a14,14,0,0,0-.9-1.2c-.3.1-16,11.2-17.4,12.2l-8.7,6.1-13,9.1L96.3,53l-6.5,4.6-13,9.2-6.5,4.6Z"/>
      <path class="cls-5" d="M57,49.2c.6.5,2.8-1.7,6.9.8l3,1.9,2.9,2A32.3,32.3,0,0,1,72.6,56l-4-.4-4-.4-8.1-.8c-1.5-.1-5.4-.5-6.9-.8s-.5,0-.8.2a26.1,26.1,0,0,1-5.1,2.7l-.4.2H43c.3.2.7,0,1.2-.1l1.6-.2a4.2,4.2,0,0,1,2.9,1.2c3.6,2.7,7,5.2,10.5,8.1,1,.8,2.7,2,2.8,3.4s-1,2-1.4,2.7l.2.2L65.1,69l2.3-1.4a24,24,0,0,0,2.4-1.3c-.3-.3-.3-.1-1.3.2a6.3,6.3,0,0,1-4.8-.2,16.3,16.3,0,0,1-2.3-1.4l-2.3-1.6-6.6-4.8-1.1-.8-1.1-.9,3.3.3,3.3.3c1.9.2,18.5,1.7,19.7,2.2s-.9,2.3-1,2.7.3.1,1.1-.5l2.9-2.1,4.2-2.4c-.4-.3-.4,0-1.4.2a6.3,6.3,0,0,1-4.9-.6l-2.4-1.4-4.6-3-4.4-3.2c-1.1-.8-2.7-1.9-1.8-3.4s.8-.8.9-1.1-.2-.1-1,.4a35.8,35.8,0,0,1-5.1,2.9A20.3,20.3,0,0,0,57,49.2Z"/>
      <path class="cls-5" d="M116.7,35.8h.4a.7.7,0,0,1,.1-.7c.1-.4.4-.6.5-.9l-.7-.7-3.3-3.8-1.3-1.6a52.7,52.7,0,0,1-3.7-4.9c-.6-1.1-.5-1.2.2-2s-.4.1-1.1.5a21,21,0,0,1-3.9,2s0,.2.6.1h.5c1.5-.4,1.7-.1,2.8.9a90.2,90.2,0,0,1,6.8,8l.6.8-5-1.1-5-1.2c-1.7-.4-5.6-1.4-7.2-2s-.6-1.2-.4-1.7-.5.1-.8.3a30.6,30.6,0,0,1-3.8,2.1l-1.6.7c.2.2.2.1.5.1h.7c2.4-.4,6.6.8,9,1.4.4.1.9.1,1.1.4s4.2,5.6,4.5,6.1l-2.6-.6c-3.4-.8-12.6-2.9-15.4-4-1.1-.4-.8-.9-.3-1.5h.1c0-.3-.7.3-.8.3A36.7,36.7,0,0,1,83,35.2c-.3.1-.7.2-.9.4s1.2-.2,1.7-.2a17.8,17.8,0,0,1,5.4.7l6.7,1.6L109,41.1c-.1-.9.5-1.2.7-1.7l-1.3-1.7c-.6-.7-3.6-4.5-3.9-5.1C106.4,33,116.2,35.7,116.7,35.8Z"/>
      <path class="cls-5" d="M66.2,44.3c.4.3,1.9-.5,3.6-.1s11,6.7,12.5,7.8,3.5,2.2,2.3,4.1a3.2,3.2,0,0,0-.4.6c.3.1.2.1.5-.1a114,114,0,0,1,11.7-7.6l2.1-1.3a14.9,14.9,0,0,0,2.1-1.3l-.8-.5-2.6-1.6-.4.2c.3.5,1.5,1.1.1,2.6a15.6,15.6,0,0,1-2.3,1.7c-1.3.9-3.2,2.5-5.4,2.7a4.3,4.3,0,0,1-3.1-.9L78.6,46l1.2-.7,1.3-.7,2.6-1.5a7.6,7.6,0,0,1,2.9-1.2h1.9c1.1.1,1.3.5,1.6,0l-1.3-.5a13.6,13.6,0,0,1-2.4-1.4l-1-.9-.4.2c.4.9.5,1.2-.8,2.1l-2.2,1.3-4.5,2.6a11.1,11.1,0,0,1-2.8-2.1c-1.1-1.4.3-2.2,1.3-2.8s4.8-2.7,7.3-2.7c.5,0,.8.2,1.2,0a15.5,15.5,0,0,0-2.2-1.3c-.6-.4-.5-.5-1.2-.1a112.9,112.9,0,0,1-13.5,7.5C67.2,43.9,66.3,44.1,66.2,44.3Z"/>
      <path class="cls-5" d="M125.1,40.2c.3-.5,7.4-6,7.8-6.2a68.7,68.7,0,0,1,6.2-4.3,3.6,3.6,0,0,1,2.7-.8c2.7.4,4.9,2.2,6.8,3.7l1.8,1.7c1.2,1.2,6,6.6,5.7,8.3h-.2L152,46.3l-.8.7-.8.7L144.7,53a11.9,11.9,0,0,1-1.7,1.5,32.3,32.3,0,0,0-3.3-4.7,31.7,31.7,0,0,0-4-4.1L133.4,44a26.1,26.1,0,0,0-5.2-2.8l-3-1Zm-2.1.2h.9a28.9,28.9,0,0,1,8.5,4,35.1,35.1,0,0,1,3.8,3,39.6,39.6,0,0,1,6.2,7.5,8.6,8.6,0,0,0,.9,1.4l3-2.7,1.5-1.4c1.1-1.2,3.4-3,4.5-4.1l2.2-2,3-2.7c.5-.4.6-.3.6-.8a13.4,13.4,0,0,0-2-3.7c-3-4.1-8.8-10.7-14.3-11.4a3,3,0,0,0-2.2.5c-3.2,1.6-10.3,7.1-13.2,9.6C125.9,38,123.3,40.1,123.1,40.4Z"/>
      <path class="cls-5" d="M110.2,99.8a12.5,12.5,0,0,0,1.3,1.9l2.2-1.6c2.4-1.8,5.3-4.1,7.6-6.1l1.1-.9,5.2-4.5,1-.9,4-3.8,8.7-8.8,2.8-3.1-.2-.8c-.3.1-2.5,2.4-3,2.9l-4,3.8-4.1,3.7-3.1,2.8-4.2,3.6c-3.7,3-6.9,5.7-10.8,8.6Z"/>
      <path class="cls-5" d="M111.2,105.7a14.6,14.6,0,0,0,1.4,2.1c.4-.2,4.8-4,5.4-4.5l8.2-7.7,6-6,1-1,3.9-4.1,1.9-2,1-1.1.5-.5,2.4-2.6,2-2-.2-1.3a19.7,19.7,0,0,0-2,1.9l-4,4.1-2,2c-2.1,2.1-4.9,5-7.1,7l-3.1,2.9-5.3,4.7c-2.1,1.9-6.6,5.5-8.9,7.2Z"/>
      <path class="cls-5" d="M117.3,17.4a1.4,1.4,0,0,1-.2.6,19.1,19.1,0,0,0-5.2,1.5c-1.4.7-3.3,1.9-2,3.9s2.5,1.9,4.5,2.1c4.2.5,8-1.7,11.2-2s4.3,1.2,4.2,2.4-2.5,2.4-4,2.7a14.6,14.6,0,0,1-4.6-.1,3.2,3.2,0,0,0-1.4-.1l3.1,2.3c.7.7.4-.4.4-.6a12.6,12.6,0,0,0,5.2-1.4c1.3-.8,3.3-1.8,3-3.6s-2-2.7-3.5-3.1c-3.8-1.2-7.5.8-11.2,1.5-1.8.3-4.4.3-5.5-.8s1.5-2.8,2.9-3.1a13.6,13.6,0,0,1,4.6-.2c.4.1,1.1.3,1.4,0a14.6,14.6,0,0,1-2.2-1.5C117.8,17.3,117.9,17.2,117.3,17.4Z"/>
      <path class="cls-5" d="M108.2,95.7l1.2,1.7,1.1-.8,1.2-.9c3.6-2.7,7.8-5.9,11.1-8.8,1.5-1.3,4-3.3,5.3-4.6l2.1-1.9,1-1,4.2-3.8,1-.9,1-1,2.1-2,1-1,1-1,1-1c.4-.4.4-.4.2-.9v-.3h0L134.6,75c-2.3,2.1-6.1,5.2-8.5,7.2l-4.3,3.5c-3.4,2.6-7.7,5.9-11.3,8.3Z"/>
      <path class="cls-5" d="M105.3,92.6a11.4,11.4,0,0,0,1.2,1.5l1.2-.8,3.6-2.6,4.7-3.5,9.2-7.2c2.9-2.4,6.1-5,8.9-7.5l1.1-.9,2.8-2.4,3.8-3.4c.2-.1.5-.3.4-.5a2,2,0,0,0-.3-.7l-4.3,3.8-3.3,2.8c-1.6,1.4-3.9,3.3-5.6,4.6-6,4.8-12.2,9.4-18.6,13.8L107.7,91Z"/>
      <path class="cls-5" d="M102.5,89.9l1.1,1.3c.5-.2,9.4-6.6,9.7-6.9,4.6-3.3,9.7-7.3,14.1-10.8l2.3-1.9,4.5-3.8,2.2-1.9,2.2-1.9,2.2-2-.3-.8-4.5,3.8c-4.2,3.6-9.7,7.8-14.1,11s-6.7,4.9-9.8,7S105.8,87.8,102.5,89.9Z"/>
      <path class="cls-5" d="M99.9,87.5a5.4,5.4,0,0,0,1.1,1.3l1.2-.9,8.8-6.2c2.3-1.7,5.2-3.6,7.4-5.4l12.1-9.2,2.4-1.9,4.7-3.9,1.2-1,1.1-1-.2-.5a24.9,24.9,0,0,0-2.4,1.9l-2.4,1.9c-3,2.4-6.6,5.1-9.7,7.4-6.7,4.8-13.3,9.4-20.2,14.1l-2.6,1.7Z"/>
      <path class="cls-5" d="M97.2,85.5a4.3,4.3,0,0,0,1.1,1.1c.4-.2,20.5-14.4,20.5-14.4,4.3-3.1,8.4-6.1,12.5-9.3l4.9-3.8,1.2-1,1.2-1-.3-.5-5,3.8-2.5,1.9L118,71.3l-13,8.9-5.2,3.5Z"/>
      <path class="cls-5" d="M130.5,40.9a84.1,84.1,0,0,1,7.2,5c2,1.6,1.6,1.5,2.8,3.3l1.2,1.8a4.4,4.4,0,0,1,1,2,26.1,26.1,0,0,0,2.6-2.2,77.6,77.6,0,0,0-5.3-7c-1.1-.9-5.9-4.5-7.4-5Z"/>
      <path class="cls-5" d="M94.6,83.8l1,.9,10.5-7.3,10.5-7.3c5.3-3.8,10.2-7.3,15.5-11.3l2.5-1.9,2.5-2-.3-.5-5.2,3.8L126.5,62c-7,5-14.1,9.7-21.2,14.6l-5.3,3.6Z"/>
      <path class="cls-5" d="M92,82.4a4.8,4.8,0,0,0,1,.8l8-5.6,2.7-1.9,5.4-3.7,10.7-7.5,5.3-3.8,5.3-3.8L133,55l1.3-1,.6-.5.3-.2.3-.3-.4-.4a9.8,9.8,0,0,0-1.4.9c-4.5,3.3-10,7.2-14.7,10.3l-5.4,3.7L102.8,75l-8.1,5.5Z"/>
      <path class="cls-5" d="M89.6,81.1l.9.6,8.1-5.7,8.1-5.7,5.4-3.8c5.5-3.8,10.8-7.6,16.2-11.4l2.7-1.9,2-1.5c.2-.1.5-.3.6-.5l-.4-.3-5.4,3.8-5.5,3.8-5.5,3.7-13.7,9.3C101.8,72.6,89.7,80.8,89.6,81.1Z"/>
      <path class="cls-5" d="M135.4,39.1l.8.5.8.5c1.7,1.2,4.8,3.2,5.8,4.8s1.5,2.3,2.1,3.2l.6.8a7,7,0,0,1,.3,1l2.6-2.2-.5-.8-1.7-2.3c-2.9-3.9-2.8-3.9-6.8-6.6L137.8,37Z"/>
      <path class="cls-5" d="M86.8,79.8l.9.7,5.4-3.9L109.6,65l10.9-7.7,5.4-3.8,5.1-3.6c.2-.1.2-.1.3-.3l-.4-.3c-.3.1-2.3,1.6-2.8,1.9l-8.3,5.7-5.5,3.8c-4.5,3.1-9.4,6.3-13.8,9.5l-8.3,5.8Z"/>
      <path class="cls-5" d="M129,47.9v-.2c-.6-.1.1-.5-1.4.6l-1.4,1L117.6,55,112,58.9l-5.6,3.9-5.6,3.9c-4.6,3.1-9.3,6.6-13.9,9.8l-2.8,2a2.8,2.8,0,0,0,.9.5l2.7-2,2.7-2L118,55.7l9.6-6.8Z"/>
      <path class="cls-5" d="M81.5,77.5l.8.5,1.4-1c6.9-5,13.7-10.1,20.7-15l11.1-7.9,11.2-7.9a.8.8,0,0,0-.5-.4l-11.3,7.8c-3.6,2.4-7.6,5.3-11.2,7.9l-11.1,8C92,69.9,81.7,77.2,81.5,77.5Z"/>
      <path class="cls-5" d="M78.9,76.5l.8.5,22.1-16.4,2.8-2,8.4-6,5.6-4,2.8-2,1.4-1,.7-.5.3-.2h.2l.2-.2-.5-.3-5.8,3.9-5.7,3.9-5.6,4-5.6,4L90,68.3l-2.8,2C86.4,71,79.1,76.3,78.9,76.5Z"/>
      <path class="cls-5" d="M142.4,34.4l3,1.8a17.3,17.3,0,0,1,2.8,2.1,4.9,4.9,0,0,1,1,1.4l2.5,3.6a4.4,4.4,0,0,0,.3.9l2.6-2.2c-.3-.6-4.7-6.4-5.3-6.9a37.1,37.1,0,0,0-4.5-2.9l-1.2,1C143.3,33.5,142.6,34,142.4,34.4Z"/>
      <path class="cls-5" d="M76.4,75.6l.8.5a9.9,9.9,0,0,0,1.4-1l9.6-7.2,16.4-12.3c5.1-3.8,10.1-7.4,15.4-11l1.4-1c-.8-.3-1.1.2-1.7.5-4.4,2.9-8.5,5.8-12.8,8.9l-2.8,2L95.6,61l-2.7,2.1-11,8.3-2.7,2.1C78.7,73.7,76.5,75.3,76.4,75.6Z"/>
      <path class="cls-5" d="M148.8,46.9h.2a32.9,32.9,0,0,0,2.5-2.2,32.9,32.9,0,0,0-5.8-7.1l-1.2-1-.6-.5-.6-.5a16.7,16.7,0,0,0-2.4,2c1.1.9,4,2.5,4.7,3.9l1.6,2.6A8.5,8.5,0,0,1,148.8,46.9Z"/>
      <path class="cls-5" d="M147.5,71.9a2.7,2.7,0,0,0,.3,1.3l12.7-13c1.2-1.3,1.2-.7,1-2.5a5.5,5.5,0,0,0-.9.9L158,61.2,156.2,63l-.9.9Z"/>
      <path class="cls-5" d="M145.6,64.9l.3.9c.3-.1.2-.2.5-.5l2.5-2.4,1-1L160,52.3a10.7,10.7,0,0,0,1.4-1.5,1.7,1.7,0,0,0-.2-.8,5,5,0,0,0-1,.9l-1,.9-7.8,7.4-2,1.9-2.9,2.8Z"/>
      <path class="cls-5" d="M144.5,61.9l.3.8c.4-.2,2.4-2.2,3-2.7l1-.9,4.6-4.2.5-.5,5.1-4.7a12.1,12.1,0,0,0,1.5-1.4,1.4,1.4,0,0,0-.2-.8c-.3.1-4,3.7-4.9,4.5L152,55.2l-3.5,3.1-3,2.7Z"/>
      <path class="cls-5" d="M143.3,59.1l.3.7,4.9-4.3,1-.9,2-1.8.5-.4,7.4-6.6a2.8,2.8,0,0,0-.3-.7c-.3.1-2.4,2.1-3,2.6l-7.9,7-1,.9Z"/>
      <path class="cls-5" d="M146.6,68.3a1.6,1.6,0,0,0,.2.7l14.1-14.1.9-1v-.5l-.9.9-8.5,8.3-1.9,1.9-1.9,1.9Z"/>
    </g>
    <polygon class="cls-6" points="24.3 77.9 24.3 77.7 24.1 77.7 24.3 77.9"/>
  </g>
</svg>
