<svg id="Слой_1" data-name="Слой 1" xmlns="http://www.w3.org/2000/svg" viewBox="0 0 180 180">
  <defs>
    <style>
      .cls-1 {
        font-size: 27.88px;
        font-family: Arial-BoldMT, Arial;
        font-weight: 700;
      }

      .cls-2 {
        fill: none;
      }

      .cls-3 {
        fill-rule: evenodd;
      }
    </style>
  </defs>
  <title>otkritki</title>
  <text class="cls-1" transform="translate(11.8 158.9)">ОТКРЫТКИ</text>
  <text></text>
  <rect class="cls-2" width="180" height="180"/>
  <g>
    <path class="cls-3" d="M38.5,46.1H145v55.2c0,4.1.7,5.8-2.4,5.8-5.4,0-10.5-1-13.7,3.1-1.8,2.3-1.4,7.3-1.4,10.5,0,1.2.2,2.4-1.5,2.6H57.7c-2.9,0-14.7.4-16.6-.4s-2.6-2.9-2.6-5.4V46.1ZM49.8,14.7a3.5,3.5,0,0,0-2.2,1.2,2.8,2.8,0,0,0-.5,3c-4,.3-6.4-.5-10.1,1.8-6,3.8-4.5,11.2-4.5,18.1v78c0,6.5,2.5,11.6,9.9,12h85.5c1.8-.2,2.4-1.2,6.5-5l12-11.1c2.4-2.2,4.7-3.3,4.7-6.8-.3-21.9-.1-44.8-.1-66.9,0-6.9,1.5-14.4-4.4-18.2-3.8-2.5-6.2-1.5-10.2-1.9,1-1.9-.9-3.9-3-4.2h-.9c-2.2.2-4.1,2.2-3.1,4.2H116c0-1.4.2-2-.8-3.1a3.7,3.7,0,0,0-2.2-1.2h-1.5a3.2,3.2,0,0,0-2.8,4.2H95.3c0-1.8,0-4-3-4.2H91.1c-3,.3-3,2.5-3,4.2H74.7a3.2,3.2,0,0,0-2.9-4.2H70.6c-2.7.2-3.1,2.2-3.1,4.2H54.1c1.1-2-.8-3.9-3.1-4.2Z"/>
    <path class="cls-3" d="M87.4,73.5l.7,28.5c0,1-.2,1.1-.2,2s0,1.5,0,2.2L82.5,94.8c-1.1-2-5.3-9-6.8-10.3a3.2,3.2,0,0,0-1.9,1.3c.3,1.2,2.8,5.8,3.5,7.4,2.5,5.9,6.9,20.1,6.8,26H97.7c.4-9.3,4.7-25,8.7-34.4.5-1.2,1.7-3.3,2-4.3l-1.8-1.6c-2.3,1.2-8,13-9.5,16.2-.6,1.4-1.7,5.3-2.6,6.1L94,92c-.2-1.1-.3-2.3-.4-3.4-.2-3.3-2.6-18.1-3.6-19.6H86.9C86.9,70.5,87.4,72.1,87.4,73.5Z"/>
    <path class="cls-3" d="M67.3,75.5c0,1.4.2,1.1-2.2,2.6l-1.3.8c-.6.4-.9.5-1.1,1l5.2,1.4,1.7,5c4.8-4.4,0-4.2,8.9-4.2-1-3.3-5.1-1.7-1.4-9.1-1.4.1-4.6,1.7-5.6,1.4s-3.3-2.4-4.5-3Z"/>
    <path class="cls-3" d="M112.5,69.4l-5.1-2.2,1.1,5c-.6.8-3.7,3.6-3.6,4s4.8-.1,5.7,1,1.6,3,2.5,4c1-1.2,1.4-3.2,2.1-4.3s4.5-1.3,5.6-1.3-3.2-2.7-4.1-3.8.7-3.7.7-5.1C116,67.6,113.9,68.5,112.5,69.4Z"/>
    <path class="cls-3" d="M79,60.5c4.2,3.4,5.2,1.1,4.3,8.2,1-.2,3.7-2.2,4.6-2.9l5.5,1.6c-.3-1.1-1.8-4.3-1.6-5.1s2.6-2.8,3-4.1c-8.2,0-4.2.4-8.6-4.2l-.3.4-.7,1.8c-1.1,2.9-.2,2.5-4.9,3.7Z"/>
  </g>
</svg>
