<svg id="Слой_1" data-name="Слой 1" xmlns="http://www.w3.org/2000/svg" viewBox="0 0 180 180">
  <defs>
    <style>
      .cls-1 {
        font-size: 27.88px;
        font-family: Arial-BoldMT, Arial;
        font-weight: 700;
      }

      .cls-2 {
        letter-spacing: -0.01em;
      }

      .cls-3 {
        fill: none;
      }

      .cls-4, .cls-5, .cls-6, .cls-7, .cls-8, .cls-9 {
        fill-rule: evenodd;
      }

      .cls-5 {
        fill: #50170f;
      }

      .cls-6 {
        fill: #60252b;
      }

      .cls-7 {
        fill: #803133;
      }

      .cls-8 {
        fill: #854f4e;
      }

      .cls-9 {
        fill: #764140;
      }
    </style>
  </defs>
  <title>partnyrs</title>
  <text class="cls-1" transform="translate(9.6 158.5)">ПА<tspan class="cls-2" x="40.2" y="0">Р</tspan><tspan x="58.4" y="0">ТНЕРЫ</tspan></text>
  <text></text>
  <rect class="cls-3" width="180" height="180"/>
  <rect class="cls-3" width="180" height="180"/>
  <g>
    <path class="cls-4" d="M48.3,32.8l.2-.2a22.2,22.2,0,0,0,1.8-2c.3-.4,1.7-1.6,1.8-1.9l.5-.5,3.5-3.1a56.6,56.6,0,0,1,12.5-7.7,56.1,56.1,0,0,1,44.5-.4,57.3,57.3,0,0,1,12.7,7.5l3.6,3.1.2.2c7.5,7.4,12.7,15.5,15.5,25.7a55.8,55.8,0,1,1-104.7-8,63.8,63.8,0,0,1,7.9-12.8Zm-6.5,75.5.4.4a8.2,8.2,0,0,0,1,1.2l2,2.2,2.8,2.8.5.4c.3.3.6.7,1,.8l.3.3.6.6c.3.2.5.5.8.5l.2.2a63.5,63.5,0,0,0,87.2-6.8c22.8-24.9,21.6-63.8-2.2-87.5S73.9-1.6,48.8,21.1A63.3,63.3,0,0,0,28.1,61.6C26.5,78.3,31,95.3,41.8,108.2Z"/>
    <path class="cls-4" d="M106.7,92.6l-.2-.2c-.6-.6-4.4-2.4-4.5-2.8s3,.4,4,.9l3.6,2c1.1.7,2.7,1.9,4,1.6a5.5,5.5,0,0,0,3.1-2.6c.8-1.2,1.4-3,.9-4.4s-2-1.9-3.2-2.5L109,81.6c-.4-.3-1.6-.8-1.7-1.1s3.1.5,4.2,1.1l7.7,4.3c1.8,1,3.8-.8,4-1.3l.2-.2c1-.9,2-3.7,1.6-4.9a2.6,2.6,0,0,0-1.5-1.8l-6.6-3.8c-.5-.3-4.2-2.3-4.3-2.5s1.5-.4,2-.2l4.8,2.7,3.2,1.8c1.1.6,2.3,1.6,3.5,1.4s4.1-3.6,4.3-5.7-.7-2.3-1.9-3l-9.5-5.5c-2.1-1.2-4.4-2.4-6.4-3.7s-4.3-2.4-6.4-3.7l-3.2-1.8a25.2,25.2,0,0,0-3.2-1.8l-.2-.2c-.6-.3-.8-.8-1.4-.3-3.1,2.3-2.8,1.4-3.5,3.9s-1.4,6-1.8,8-.9,4.4-5,4.7-8.3-1.4-9.8-4.8c-.5-1.2.1-3,.4-4.2s1.4-5.4,1.8-8,.6-2.6.9-3.9A4.7,4.7,0,0,1,82.7,44c1-.8,5.2-3.5,5.5-4.3-2.3-1-3.3-2.1-5.8-.6L77.6,42l-9.9,5.7c-2.4,1.4-1,1-5.7-.1-2-.5-4.2-1.2-6.2-1.7l-6.1-1.7c-1.2-.3-5.4-1.5-6.3-1.6a72.8,72.8,0,0,0-3.2,7.2,54.2,54.2,0,0,0-3.2,17.9,21.6,21.6,0,0,0,0,2.6,21.5,21.5,0,0,1,.1,2.5,29.6,29.6,0,0,0,.7,4.7l7.6,2,7.6,2,5.2,1.3c.7-1.1.9-1.9,2-2.7s4.1-.7,5.8.1a7.9,7.9,0,0,1,3.7,3.4c.9-.6,1.5-4.6,5.9-3.8l1.9.6a8.5,8.5,0,0,1,4.1,3.5,2.5,2.5,0,0,0,.5-.6,4.5,4.5,0,0,1,2.4-1.4c2.4-.4,5.5,1.2,7,3a6.4,6.4,0,0,1,1,1.6,3.5,3.5,0,0,1,.3,2l1.1-.2h1.2c3.1.8,6.7,3.8,6,6.8-.2,1.1-1.4,2.4-1.8,3.5a10.7,10.7,0,0,0,2.9,1.6C105.8,101.1,108.8,94.1,106.7,92.6Z"/>
    <path class="cls-4" d="M89.9,65.4l.3-.3c.7-.7,1-3.2,1.2-4.2s.7-3,1-4.5c1.1-4.7,0-3.1,4.6-6.4,1.2-.9.7-1.2,3.4.5l3.5,2,7,4,14,8,3.5,2a6,6,0,0,1,3,2.5c1.4,2.8-.3,5.8-2,8l-.3.3a13.4,13.4,0,0,1-1.9,1.2l-.9.2c-.1.5.6.9.1,3.1a6.4,6.4,0,0,0-.2,1l1.2-.2,3.5-1,1.1-.3c1.8-.6,5.1-1.3,7-1.9l1.2-.3,1.1-.3c.4-.1,3.4-.9,3.5-1s.8-8.5.8-9.7-.1-.7-.1-1.2A51.3,51.3,0,0,0,142.5,50a62.7,62.7,0,0,0-3.3-7.4l-6.9,1.8-2.3.6-4.6,1.2-4.6,1.2c-2.3.6-1.3.6-4.1-.9L113,44.5l-7.5-4.3-.3-.2c-.8-.6-1.9-1.1-2.7-1.6s-3.8-2.6-6.6-1.9a7.6,7.6,0,0,0-2.8,1.7c-1.9,1.5-9,6.3-10,7.8s-1.6,5.6-1.9,7-1.3,4.8-1.7,7.2-.6,2.1.5,3.3a10.2,10.2,0,0,0,6.3,2.7C87.7,66.3,88.9,66.3,89.9,65.4Z"/>
    <path class="cls-4" d="M90.2,86.1l-.2-.2c-1-1.5-4.3-2.7-6-2s-2.8,3.9-3.4,5l-3.1,5.3c-1.1,1.8-2.8,4-.6,5.8a24.5,24.5,0,0,0,2.7,1.6c1.2.7,1.8,1.2,3.2.6s2.7-3.7,3.5-5,2.1-3.6,3.1-5.3,1.1-1.8,1.6-2.7A2.8,2.8,0,0,0,90.2,86.1Z"/>
    <path class="cls-4" d="M92.9,90.2c-1.4.3-1.4.8-2.1,1.9l-1.5,2.6c-.4.7-4.2,7-4.4,7.6a2.8,2.8,0,0,0,.8,2.9,26.5,26.5,0,0,0,2.5,1.5c2.2,1.2,3.6,1.6,5.1-1L97.9,98c1.2-2,2.5-3.3.7-5.5S94.8,89.7,92.9,90.2Z"/>
    <path class="cls-4" d="M73.7,81.6c-1.1.3-1.3.8-1.9,1.7l-1.3,2.3c-.8,1.5-1.8,3.1-2.7,4.6s-1,1.4-.9,2.7a2.6,2.6,0,0,0,1.5,2.2l2.3,1.3c2.2,1.3,3.4,1,4.7-1.1l4-6.9c1-1.7,1.8-2.7-.4-4.9S75.5,81.2,73.7,81.6Z"/>
    <path class="cls-4" d="M62.1,81.4c-1.7.3-1.8,1.4-2.7,2.7s-1.7,2.6-1.5,3.7,1.3,2,2.6,2.8,2.5,1.7,3.9,1.4,1.9-1.6,2.6-2.7l1-1.6a2.6,2.6,0,0,0,.6-2.1c-.1-1.1-1.5-2.4-2.3-3A5.7,5.7,0,0,0,62.1,81.4Z"/>
    <path class="cls-5" d="M52,28.6a.7.7,0,0,0,.5-.5Z"/>
    <path class="cls-6" d="M42.2,108.7l-.4-.4C41.9,108.5,41.9,108.5,42.2,108.7Z"/>
    <path class="cls-6" d="M49.7,116.4l-.3-.3C49.5,116.4,49.5,116.3,49.7,116.4Z"/>
    <path class="cls-7" d="M89.9,65.4c.3-.1.2,0,.3-.3Z"/>
    <path class="cls-7" d="M129.7,27.8l-.2-.2Z"/>
    <path class="cls-8" d="M48.3,32.8l.2-.2Z"/>
    <path class="cls-9" d="M105.5,40.3l-.3-.2Z"/>
    <path class="cls-9" d="M99.6,51.9l-.2-.2Z"/>
    <path class="cls-6" d="M129.3,77.3l.3-.3Z"/>
    <path class="cls-9" d="M123.1,84.7l.2-.2Z"/>
    <path class="cls-9" d="M90.2,86.1l-.2-.2Z"/>
    <path class="cls-7" d="M106.7,92.6l-.2-.2Z"/>
    <path class="cls-9" d="M51.3,117.8l-.2-.2Z"/>
  </g>
</svg>
