<svg id="Слой_1" data-name="Слой 1" xmlns="http://www.w3.org/2000/svg" viewBox="0 0 240 213.8">
  <defs>
    <style>
      .cls-1 {
        font-size: 38px;
        font-family: Arial-BoldMT, Arial;
        font-weight: 700;
      }

      .cls-2 {
        letter-spacing: -0.02em;
      }

      .cls-3 {
        fill-rule: evenodd;
      }
    </style>
  </defs>
  <title>photo</title>
  <text class="cls-1" transform="translate(62.8 199.5)">ФО<tspan class="cls-2" x="62" y="0">Т</tspan><tspan x="84.3" y="0">О</tspan></text>
  <g>
    <path class="cls-3" d="M99.8,137.3a1.2,1.2,0,0,1,.4-1c.4-.5.4-.3,1.1-.4l12.2-6.1c.2-.1.7-.5.9-.4s.1.1-.2.3l-3,1.9a38.3,38.3,0,0,1-3.8,1.9c-1.4.6-2.5,1.2-3.7,1.9l-1.9.9-2,.9Zm23.2-117h-1.8l-11,.8c-1.5.2-5.8,2.3-7.5,3.1l-2.9,1.5a53.1,53.1,0,0,0-5.3,3.5,28.5,28.5,0,0,0-3.4,2.6,3.5,3.5,0,0,1-1.8,1.2,14.4,14.4,0,0,0-.6-3.1c-.4-1.4-.3-1.5-1.6-2.1-3.3-1.7-9.1-1.9-12.9-1.6-1.2.1-9.5,1-10.5,1.4a11.2,11.2,0,0,1-2.2.6l-.7.2a11.7,11.7,0,0,0-2.1.7A6.3,6.3,0,0,0,57,31.2a3.6,3.6,0,0,0-1.4,2.3c-.6,3.3,0,2.5-3,4.4a52.5,52.5,0,0,0-4.3,3.1A38.9,38.9,0,0,0,43,45.7l-.4.6c-.4.5-1.1.1-2.7,1A6.1,6.1,0,0,0,38,49c-1.4,2-1.3,3.4-1.7,5.7a17.1,17.1,0,0,0,.1,3.5c.2,1.1.3,2.2.4,3.3l2.1,12.6a24.6,24.6,0,0,0,1.1,4.3c1.1,2.7-.3,1.9-3.3,6.4s-5.5,12.9-5.6,19.9v1.2a67.5,67.5,0,0,0,2.3,16.2,62,62,0,0,0,4,10.9l1.5,2.7a48.5,48.5,0,0,0,7.1,9.3l.7.7c5.2,5.6,13.1,10.5,20.9,10.5s8.3-1.4,13.2-3.5,10.3-4.8,14-8.1l1.3-1.1c.4-.3.9.2,1.7.5l2.9,1,8.8,2.7c3.7,1.3,7.4,2.7,11,4.3l13.5,5.9,2.6,1.2,12.8,6.5c2.1,1.1,3.7,2,6.4,2s9.4-3.2,12.8-5.8l5.9-4.8c1.3-1.1,4.2-4,5.4-5.2l.6-.7,4.3-5a49.5,49.5,0,0,0,3.2-4.7,45.6,45.6,0,0,0,2.7-5.2c.9-2.1,0-5.3.3-7.5s-.1-3.6.1-5.2l.2-3.8c0-3.6.8-12.1,1.3-15.9a350,350,0,0,1,7.3-40.5l1.1-4.2,2.3-8.3.5-2.1a15.8,15.8,0,0,0,.4-2.4v-.8c-.2-2-1.7-2.1-4.5-2.9-.4-.1-.4-.1-.5-.4s-.3-1-.4-1.3c-1.5-4.2-5.6-5.9-10-7.1s-5.7-.9-8.7-1.5a21,21,0,0,0-3-.5c-5.3-.1-11.1-.9-16.6-.5h-3.1c-1-4.5-1.2-9.5-6.7-9.9l-2.3-.2-4.2-.5c-1.4-.1-2.9-.4-4.4-.4l-6.7-.4h-9.8ZM101.4,133.5l2.3-1,2.2-1.1,7.5-3.9a21.6,21.6,0,0,0,4.1-2.4,1.4,1.4,0,0,0,.4-1.2c-.6.1-5.7,2.8-6.6,3.3l-2.1,1.2-6.1,3.6c-.8.5-1.6.4-1.8,1.4Zm21.7-11.7c-.7.2-1,1-1.3,1.6a16.4,16.4,0,0,1-1,1.8l-1.2,1.7c-1.5,2-2.4,2.8-3.9,4.6a16.2,16.2,0,0,0-2.4,3.2,25.2,25.2,0,0,0,3.3.1c4.3-.5,8.1-3.3,10.6-6.7a28.1,28.1,0,0,0,2.5-4.3,2.5,2.5,0,0,0-1.5,1.4,16.2,16.2,0,0,1-1.2,1.7,16,16,0,0,1-2.9,2.8,23.3,23.3,0,0,1-3.6,2.3l-2,.9c-1.1.5-1.3.4-2.2,0a8.9,8.9,0,0,1,1.7-2.8C119.3,128.5,123,123.4,123.1,121.8Zm0,0Zm-19.6,6c.7-1.5,1.2-1.6,2.8-2.3l1.1-.6,2.1-1.2c.4-.2,10.2-5.8,10.9-5.9s.3,1-.4,1.5l-1,.6c-4.2,2.5-8.6,4.7-13,6.9a8.4,8.4,0,0,1-2.5.9Zm-70.8-22c0-16.6,9.1-33.3,27.3-29.6l2.1.6a30.4,30.4,0,0,1,9.1,4.2l1.5,1.1,4.2,3.9c.7.9,1.8,1.8,2.5,2.7l2.4,3c9.9,13.2,14.5,37.4,4.8,52.9a20.4,20.4,0,0,1-10.6,8.8c-4.9,1.8-11.4,1.1-16-1a36.4,36.4,0,0,1-10.2-6.8c-1.4-1.3-2.6-2.7-3.9-4L42.7,138a37.1,37.1,0,0,1-2.1-3.2l-1-1.6-2.6-5.4-.7-1.8-.3-1a59,59,0,0,1-3.3-19.2Zm92.9-1.5c1.4-.9,3.8-2.1,5.2-2.9a7.9,7.9,0,0,1,1.9-.9c0,2.1.4,4,.1,6.6-.1.8.1,1.7-.1,2.5l-.3,4.9a49,49,0,0,1-6,3l-2.2.9a56,56,0,0,0,1.4-10.3c0-.7.1-1.1.1-1.9s-.1-1.1-.1-1.9Zm-22.1,11.8c.1-1.5,3.1-2.8,4.2-3.4l4.8-2.9,2.5-1.3c2.9-1.3,4.9-2.2,7.8-3.7,0,1.1-1.2,1.5-2.5,2.2l-12.3,6.8-.7.3-3.7,2.1Zm-.6-5.9c-.4-.7-.3-1.1.5-1.7l11.1-6.2.6-.3,5.6-3.1a5.5,5.5,0,0,1,1.3-.7c1.7,1.2-.9,2.1-1.7,2.5s-3.6,1.8-5,2.6l-8.6,4.9a22.9,22.9,0,0,1-3.9,1.9Zm22.1-10.8a10.2,10.2,0,0,1-.4-1.9c1.1-.7,4.2-2.6,5.3-3.1l2.1-.8c.7,1.4.4,1.8-.4,2.2L127,98.4l-1.9,1Zm-23.3,5.5h-.4c0-1.4.9-1.4,2.1-2.1l2.5-1.5,5.1-2.9.6-.3.6-.4,1.3-.7,1.3-.7,3.9-2c1.5-.9,2.4-1.4,2.4,0s-3.6,2.5-4.5,2.9l-4.9,2.6c-2.1,1.1-6.7,3.2-8.7,4.5a3.4,3.4,0,0,1-1.3.6Zm22.2-9.8a47.8,47.8,0,0,1,5.3-3.1,13.9,13.9,0,0,1,1.9-.9,2.6,2.6,0,0,1,.4,1.6,21.3,21.3,0,0,0-5.1,2.5l-2.1,1c-.3,0-.3-.5-.4-1Zm-24,4.6a3,3,0,0,1-1-1.9,4.4,4.4,0,0,0,1.1-.7,81.5,81.5,0,0,1,8.6-4.6l7.7-3.6a13.5,13.5,0,0,1,2.6-1.2,6.3,6.3,0,0,1,.8,2.5l-17.3,8.3a19.2,19.2,0,0,1-2.5,1.2Zm-2.6-5.7a5.4,5.4,0,0,1-1.6-2.5l16.6-8.5c.4-.2,2.4-1.3,2.9-1.1a5.3,5.3,0,0,1,1.6,2.6l-9.7,4.8c-1.1.6-9.3,4.6-9.8,4.7Zm-3.2-5.5c-.9,0-1.7-1.9-1.8-2.3l1.2-.6,13-6.7,2.5-1.1a7.4,7.4,0,0,1,2.7-1.1c1,0,1.4,1.5,1.8,2.2l-4.8,2.3c-2.3,1-10.3,4.9-12.1,6a13.5,13.5,0,0,1-2.4,1.3ZM90.3,83c-.5,0-1-.6-1.3-.9S88.4,81,88,80.9v-.2a5.9,5.9,0,0,0,1.3-.7l1.3-.7c2.1-1.1,3.7-1.7,5.5-2.6s6.9-3,9.8-4.5c.8-.4.9-.6,1.4-.3a4,4,0,0,1,1.1.9c.4.3.8.7.9,1.3a3.9,3.9,0,0,0-1.1.5c-1.8,1.1-11.7,5.9-14.1,6.9-.8.3-3.1,1.6-3.8,1.6ZM57.9,73.9H56.3a10.3,10.3,0,0,0-1.4.1v-.2l3.6-1.3,1.9-.5c2.8-.8,2.2-.2,4.7-.2h1.3c2.5-.1,5.8,1.3,8,2.3a24,24,0,0,1,3.8,2,38.7,38.7,0,0,1,3.5,2.4,41.2,41.2,0,0,1,3.1,2.7,19.1,19.1,0,0,1,1.5,1.4l1.5,1.6a57.6,57.6,0,0,1,8.3,12.3l1,2.1a47.6,47.6,0,0,1,4.5,16.1l.3,2.8c.3,2.1.3,8.1-1.4,10.1-.3-1.3.3-3,.3-4.5v-1.5a5.5,5.5,0,0,0-4,1.9c-.4.4-.2.2-.2.8a9,9,0,0,1-.4,1.9H94.8a9.3,9.3,0,0,1-.1-2.1c.5-.1.7-.1,1-.4s-1.9.2-1.9-.7,1.4-.2,1.7-1.2-1.2-.2-1.8-.4,1.3-.5,1.8-.8-1.1-.8-2-.8v-1.1l1.7-.7c-.4-.8-.9-.4-1.8-.4s-.3-.5-.3-1.6l1.1-.3c.4-.2.5-.3.6-.7s-.9-.2-1.8-.2a3.6,3.6,0,0,1-.3-1.5H93c.5-.2,1-.2,1.3-.6s-.9-.4-1.9-.4l-.3-1.2c.3-.2,2-.9,1.1-1.3s-2.2-.1-1.6-1.1,1.2-.2,1.2-1.1-1.2-.2-1.6-.2-.5-1.2-.7-1.8a4.5,4.5,0,0,0,.9-.6c.4-.4.1-.1.1-.3s-1.2.3-1.7-1l-.2-.8c.7-.3,1.5-.4,1-1.3s-1.7.5-2-1,1.1-.6.9-1.7-2,.9-2.1-1.1,1-.3.9-1.3-.9.2-1.3.2-.8-.8-.8-1.2.5-.3.7-.4.2-.1.3-.3,0-.2,0-.3.1-.5-.7-.3S85,93.9,85,93s.7-.4.3-1.1L84,91.7c0-.8.8-1.7.1-1.7s-.8.5-1.2,0,0-.9.4-1.3.3-.9-.3-.9-.6.4-1.2.4-.9-.9-1-1.2.5-.5.6-1-.7,0-1.6.1-.6-.5-.6-.9.4-.2.6-.9-.9-.2-1.6,0a1.3,1.3,0,0,1-.7-.9c.4-.6,1.1-.8.7-1.6l-.9.4c-.7.3-1,.4-1.6-.2a1.2,1.2,0,0,1-.4-.8,1.4,1.4,0,0,0,1.1-1.2c-.3-.1-.2,0-.3-.2s-1.3.8-1.8.8a4.6,4.6,0,0,1-1.7-1.2c0-.5.2-.4.3-.9l-.5-.5c-1.6.3-.3,1.2-2.7-.4a3,3,0,0,0-.1-1c-.9,0-1.6.9-2.7-1.1-1,.1-.9.4-2,0a6.9,6.9,0,0,1-1.5-1.1c-.8.1-.8.3-1.7.1s-.5-.6-.9-1.1a8.7,8.7,0,0,1-3.1.6Zm27.3,3.9c-.5,0-3-1.5-3.1-2.6l5.5-2.4,5.7-2.2,5.7-2.3,1.4-.6c1-.5,1.7.1,2.7.8l.6.4c.3.3.2.3.6.4a39.2,39.2,0,0,1-4.7,2.1l-4.7,2.2c-2.5,1.2-5,2-7.2,3a10.7,10.7,0,0,1-2.3,1.1Zm-5.6-3.9-1.1-.3c-.7-.3-.6-.4-1-.6v-.2c.5-.1,2.5-1.3,3.1-1.7l3.3-1.7,2.2-1,4.5-2a32,32,0,0,1,4.9-1.7,1.8,1.8,0,0,1,1.1.4l.4.3c.3.2.1.2.5.3a2.1,2.1,0,0,1-1,.5L79.6,73.9Zm107.1,32.3v4.5c0,.7.1.8.1,1.5a19.3,19.3,0,0,0-6.8,2.9l.3,3.7c.2,1.7,0,9.6,0,11.8,0,3.8.6,3.4-1.9,6l-.5.5-2.7,2.3a1.6,1.6,0,0,1-1.3.7,112.8,112.8,0,0,1,.8-14.7c.4-3.6.6-7.3,1.1-10.6a153,153,0,0,1,6.8-28.4c1-3,1.9-5.9,3.1-8.7l1.3-3.1c.4-1.1,2.8-6.1,3.4-6.9a19.7,19.7,0,0,1,2.9-2.9c.6-.4,1-1.1,1.6-1.5a15.5,15.5,0,0,1-.2,2.9,14.4,14.4,0,0,1-.6,2.6c-.6,1.6-1.5.1-2.5,3.8A57.1,57.1,0,0,0,189,83.1c-.3,1.8-.4,3.9-.6,5.7-.5,4.7-1.7,13-1.7,17.4ZM69.4,70.1,75.3,67a56.8,56.8,0,0,1,6.2-2.5c-.1.4-.5.5-1.4.8a43.7,43.7,0,0,0-4.5,2.4l-4.3,2.5c-.6.3-1.1-.2-1.9-.2Zm3.4.9c.6-.9,2.9-1.7,4.1-2.3l4.5-2c3-1.2,6-2.9,10-2.9h-.2l-.3.2L75.2,71.5c-.7.3-1,.5-2.4-.5ZM39.7,63.3a14.6,14.6,0,0,0,4.5,1.9,27.4,27.4,0,0,0,7.9.7,45.7,45.7,0,0,0,16.4-3.7L72,60.7a2.6,2.6,0,0,1,1.2-.4l.4,3.8a11.6,11.6,0,0,1,.1,1.3l-2.5,1.2-2.5,1.2-3.7,1.9c-.9.5-.6.2-2.2.2a22.1,22.1,0,0,0-5.6,1.4,62.2,62.2,0,0,0-13.2,6l-1.1.7-.9-3.6-.9-3.6L40,65.3a13.9,13.9,0,0,1-.3-2Zm46.2-.9H84.7a17.3,17.3,0,0,1,3-2.1c5.9-3.6,14.5-2.3,20.6.7a30.7,30.7,0,0,1,4.7,3,39.7,39.7,0,0,1,4.2,3.6,36,36,0,0,1,2.6,2.5l.6.7,1.2,1.4c1,1.3,1.9,2.3,2.8,3.7l2,3.2.9,1.7a52.5,52.5,0,0,1,3.1,7.2,12.5,12.5,0,0,1,.6,2.1l-3.5,2-3.7,1.9c-.4-.8-.7-2.1-1-3l-1.2-3c-1.7-4-5.2-10.1-8.3-13.3a47.8,47.8,0,0,0-3.6-3.6l-.6-.4a38.5,38.5,0,0,0-9.5-6,24.9,24.9,0,0,0-10.2-2.3c-1.4,0-2.3.3-3.6.3Zm23.7-2.8c.2.3.1.3.6.6a40.6,40.6,0,0,1,6,4l1.2,1,.6.5,3.9,4a23.1,23.1,0,0,1,2,2.5,57.3,57.3,0,0,1,3.6,5.3l.8,1.4a51.1,51.1,0,0,1,4.7,10.9,52.6,52.6,0,0,1,1.7,7.2,60.8,60.8,0,0,1,.8,10.9c0,4.9-.7,6.6-1.7,10.7a26.5,26.5,0,0,0-.6,5.6c0,1.8-.8,9.1-1,11.3l-1,8.3c-.2,2.5-.3,5.7-1.3,7.8a56.6,56.6,0,0,1-7.1-2.3,33.6,33.6,0,0,0-5.4-1.7l-1.9-.3c.3.8,1.9,1,2.5,1.2l2.7,1,6.4,2.8,1.2.6,2.6,1.1,2.6,1.1,1.2.5,1.2.6,2.5,1.1,2.6,1.1,9.7,4.9c2.1,1,5.7,2.7,8,1.1.3-.2.2-.1.4-.5a90.4,90.4,0,0,0,2.8-12.5l.9-5.6c.3-1.9.5-3.7.8-5.7s.4-5.3.7-7.5a104.5,104.5,0,0,0,.7-10.4c-1.3.7-1.3,2-3,3.4a26,26,0,0,1-3.9,2.4c0,3.8-1.3,13.5-2,17.5-.4,2.3-.9,6.1-1.5,8.2s-3.1,7.9-5.8,4.5c-1.3-1.6-.8-1.6-.3-3.8s.3-1.4.5-2.2a39.3,39.3,0,0,0,.7-4.7c.2-2.4.5-5,.6-7.4,0-.6.1-.7.1-1.2s0-.9,0-1.3.1-.6.1-1.2a33.5,33.5,0,0,1,.1-3.8c.3-2.9-.2-7.7.9-9.7a9.9,9.9,0,0,0,3.5-.4,6.9,6.9,0,0,0,4.6-4.9c.6-2.4-.9-7-2.3-8.7s-3.9-3.3-4.9-4.6-.8-7.8-1.1-10.3l-.3-3.5c-.1-2.6-.8-7.8-1.1-10.3l-.5-3.3c-.1-1-.4-2.2-.5-3.3-.7-5.8-.7-5.5-4.6-6.8s-9.9-2.7-15.1-3.9c-2.2-.5-16.9-3.3-19.5-3.3Zm42.3-16.5h1.6v6.6a10.3,10.3,0,0,1-2-.2V47.9l.6-4.8Zm4.2,6.9c-1.1.3-.7,0-1.7-.1.2-2.4.2-4.2.2-6.6h1.7v2.3c0,1.6-.3,2.7-.3,4.2Zm1.5-6.6a2.5,2.5,0,0,1,1.6,0v6.8c-1.7.1-.1.1-1.8,0,0-1.1.2-2.3.2-3.4a16.8,16.8,0,0,1,0-1.7,7.3,7.3,0,0,0,0-1.7Zm2.8,0a4.1,4.1,0,0,1,1.6-.1,24.7,24.7,0,0,1,.1,5.3,13.5,13.5,0,0,0-.2,1.7c-.9.1-.6.2-1.6,0,0-1.7.4-4.8.2-6.1v-.8Zm4-.3c.1.4.2.6.3.9.4,2-.2,3.7-.3,5.5s-.1.9-1.3.9a18.2,18.2,0,0,1,.2-2.1,15.9,15.9,0,0,0,0-4.4c-.1-.7-.3-.8,1.2-.8Zm-14.2,6.3a5.2,5.2,0,0,1-1.8-.4,25.9,25.9,0,0,1,.6-6.4c.5.2,1.1.1,1.7.4l-.3,3a31.5,31.5,0,0,0-.1,3.3ZM85.2,47.1a11.5,11.5,0,0,0,.4,4.4h-5a35.1,35.1,0,0,1-5.1-.3c-1.8-.3-1.6-1.3-3.5.7a7.6,7.6,0,0,1-1.5,1.1c-4.9,2.9-12.6,5.7-18.2,5.7-3.2,0-6.9-.1-9.7-1A7.9,7.9,0,0,1,39.7,56a4.5,4.5,0,0,1-1.5-3c0-1,1.8-3.2,2.9-4.1l.6-.5a1.2,1.2,0,0,0,.5-.7c1.8,0,1.5,1.1,3.1,1.3s5.1,0,6.8,0l5.9.2h6c.3,0,.5-.3.7-.4s-1-.7-2-.7H52.2l-5.1-.2H44.5c1.1-2.1,5.3-5.2,7.6-6.6a29.2,29.2,0,0,1,3-1.8c.7,3.2,6.8,4,9.5,4s5.7,0,6.9-.2,5.4-.1,7.2-.3a53,53,0,0,0,5.7-.7l1.1-.2c0,1.8-.3,3.2-.3,5ZM165.6,43c.6-.3,1.3-.1,1.8-.3,1.1,2.1.2,4.9.2,7.2a3.3,3.3,0,0,1-2,.1c0-1.7.7-5.4,0-6.9Zm3.2-.4a5.3,5.3,0,0,1,2.1-.4v2c0,1.8-.3,3.2-.3,5-.7,0-1.3.3-2,.3s.6-6,.1-6.9Zm-21.7,5.3v.9c-1.6,0-1.4-1-1.4-2.7s.3-3.1.3-4a3,3,0,0,1,1.5.4,31.4,31.4,0,0,0-.6,5.4Zm-2.3-.1c-1.6-.4-.9-5.1-.9-6.6.7.1.8.3,1.2.6l-.3,4.4q0,.8,0,1.7Zm27.1-6,.8-.2.8-.2c0,.7.1.8.1,1.5a36,36,0,0,1-.5,5.2c-.1,1-.3.6-1.1.9s-.1-1.8,0-2.6.5-3.3-.1-4.6ZM70.7,41.1a9.3,9.3,0,0,1-3.7.1,30.1,30.1,0,0,1,.2-4.9,13.8,13.8,0,0,0,.2-1.6l2.8-.2h.9c0,2.9-.4,3.3-.4,6.5Zm-5-1.1c0,1.3.6,1.3-1.5,1.3h-1c0-1.8.7-4.4.7-6.7l2.2.2c0,2.4-.4,3.6-.4,5.3Zm19.9-2.3c.5-2.1,0-5.7.3-6.4s.8-.6,1.3-.9c.1,1.5.4.7.4,4.4a4.6,4.6,0,0,1-.5,1.9c-.4.7-.8.8-1.6,1ZM61.9,40.9c-.7.1-.9.3-1.9-.2s.1-.8.1-1.3V38.1l.2-3.9a5.4,5.4,0,0,1,2.2.4,22,22,0,0,1-.4,3.2,19.3,19.3,0,0,0-.4,3.2Zm10.2-6.4a9.5,9.5,0,0,1,2.4-.5c2.2-.2,2.5-1.4,1.9,3.5-.1.9-.3,2.1-.3,2.9-1.7.1-1.1.4-4.4.4,0-1.1.8-5.4.3-6.4ZM58.9,40.5c-2.5-1.3-1.3-5.6-1.2-7.3.9.1,1,.5,1.7.7s-.4,5.6-.4,6.6Zm110.6-6.1h3.6l6.7.7,3.2.5a39.8,39.8,0,0,1,11.3,3.5c-.8,1.2-2.9,2.4-4.1,3.4s-4.7,3.3-6.6,4.7-4.3,3.3-6.6,4.8l-6.8,4.5c-3.4,2.3-7,4.4-10.4,6.7l-1.2.7a19.1,19.1,0,0,0,.3,2.7c.4,2,1.4,5.5,3.9,5.5s4-1.5,5.5-2.2,3.4-1.8,5-2.7c3.3-2,10.8-7,13.6-9.7l1.5-1.3c1.2-.9,2.4-2.2,3.7-3.1l1-.9,1-.9,1-1,1.3-1.6a14.2,14.2,0,0,0,1.6-3.3,3.6,3.6,0,0,1,2.6,1.9c.7,1.8-1.2,3-2.3,4.1a55.6,55.6,0,0,1-6.2,5.2l-2.6,2-1.2,1c-4.9,4.3-12.2,8.8-17.6,12.2l-2.9,1.7-1.5.8-1.6.7c-1.1.6-2.2,1.1-2.2,2.6a16,16,0,0,0,.5,3.5,64,64,0,0,1,1.5,9.6c.1,2.2.1,4.7.3,6.8l.2,3.8c0,.4.1,1.4.2,1.9s0,1.3.1,1.9a21.7,21.7,0,0,1-.1,5.6l-.4-.6-.4-.7a16.4,16.4,0,0,0-7.5-7c-.9-.4-.6-.7-.6-2.6,0-6.1.6-8.1,0-14.5a25,25,0,0,1-.4-5.7c.2-1.6-1.3-8-1.6-10s.2-2.3-2-3.3-15.9-3.8-19.2-4.4l-8.8-1.6-9.1-1.4c-3.1-.4-6.3-.6-9.3-1-5.9-.8-7.8-2.2-13.9-1l-1.7.4-1.9.4c0-3.7-1.4-4.7,2.1-3.7S97,55,99.9,55.5a81.9,81.9,0,0,0,12.9,1.1c2.2,0,8.3-.5,9.4-1.2l6.5-4.2,3.2-2,6.3-4.3c1-.7,2.2-1.9,3.4-2a12,12,0,0,0,1.3,5.3c.4.9,1,1.1,1.8,1.6,3.7,1.9,9.2,2.8,13.8,2.8s8.2-.2,13.2-1.6l2.1-.8.9-.5c2.7-1.9,2.5-7.1,1.7-10s-1.7-3-4.1-4.1l-1.5-.5-1.2-.4c-.4-.2-.1,0-.2-.3ZM80.4,39.7c-1,0-1.1.4-2.8.4,0-1.8.2-3.8.2-4.8s0-1.1,0-1.7a11,11,0,0,1,3.1-.7c0,2.1-.6,5.5-.6,6.7Zm1.6-7,.6-.3,2.2-.8a38.8,38.8,0,0,1-.3,5c-.1.5-.1.8-.1,1.2s-.3.7-1.5,1.1l-1.1.3c0-1.3.6-5.8.2-6.6Zm38.5,20.7c-3.4,1.6-11.3,1.1-15,.6L99,53c-3.1-.5-7.5-1.1-10.2-2.7l-1.2-.7a68.8,68.8,0,0,1,1.1-7.1c.4-2.3.8-4.9,1.7-6.5s3-2.8,4.3-3.8,3-2.5,4.7-3.6c4.3-2.9,8-4.6,13.5-5l1.9-.2,11.9-.5a126.4,126.4,0,0,1,12.8.4l3.9.4,3.7.5,1.8.3,1.8.3c1,.3,1.3,1,1.9,2.3a17.8,17.8,0,0,1,1.1,3.2,17.8,17.8,0,0,1,.5,3.7c-.9,0-1.1-.7-1.5-1.7s-1-4.2-2.4-5.7-.7-.7-1-.7-10.9,5.5-12.8,6.6l-3.4,1.9c-3.1,1.7-5.9,3.5-8.9,5.2l-1.1.7c-1.5.9-1.5.7-1.9,3.4l-.3,3.2C120.8,48.1,120.8,51.6,120.4,53.4Z" transform="translate(0 -20.3)"/>
    <path class="cls-3" d="M57.9,122.5v-1.2c0-1.4,1-4.1,2.2-4.1s2,2.6,2.6,3.7c1.9,3.3,4.3,6.1,8.1,6.9,1.8.4,2.7,1.1,1.4,2.7a4.7,4.7,0,0,1-4,2.2c-5.1,0-10.3-5.2-10.3-10.1ZM63.6,105c0-2.6,0-4.2,2-6.3s5-3,6.9-1.3,4.4,6.3,5.4,7.9c2,3.3,2.2,5.4-.6,8.3a4,4,0,0,1-1.9,1.2c-3.3,1.2-5.5.1-7.8-1.9a20,20,0,0,1-2.1-2.6,10.1,10.1,0,0,1-1.9-5.2Zm-5-.4c-2,0-2.9-2.4-2.9-4.1s-.1-3,1.1-4.2c3-3,5.7-.5,5.7,2.1v.8c0,2.2-1.9,5.5-3.9,5.5ZM51,105.8c0-4.4,1.7-8.8,5.3-11.3a11.9,11.9,0,0,1,4.7-2l2.9-.3a1.6,1.6,0,0,0-.7-.8l-.9-.6-1.8-1-2-.9c-3.1-1-4.4-.2-6.6,2a18.7,18.7,0,0,0-2.3,2.7l-.6.9c-5,7.6-1.9,23,2.4,30.7l1.3,2.2,1.5,2.1,1.6,2,4.6,4.3,1,.8,2.1,1.4c1.1.7,3.4,1.9,5.2,1.9a2.4,2.4,0,0,0,2.7-2,11.9,11.9,0,0,1-2.2-1.1c-1.5-.8-2.7-1.5-4.2-2.4-3.3-2.2-4.5-3.1-6.8-6.3A61.2,61.2,0,0,1,53,116.9a43.6,43.6,0,0,1-2-11.1Zm-12.3,2.1a35.3,35.3,0,0,0,1.9,11.9l1.7,4.6A36.2,36.2,0,0,0,50,135.9a26.5,26.5,0,0,0,3.4,3c3.6,2.7,8.4,5.3,13.2,5.9a16,16,0,0,0,5.7-.4,8,8,0,0,0,2.2-.9c4.5-2.4,7.5-8.8,8.5-13.9a36,36,0,0,0-.3-13.3,50.1,50.1,0,0,0-5.9-14.8,49,49,0,0,0-2.9-4.2c-4.2-5.3-12.4-11-19.2-11-5,0-5.8.6-9.6,3.5S40.5,97,39.7,100A31.8,31.8,0,0,0,38.7,107.9Z" transform="translate(0 -20.3)"/>
    <path class="cls-3" d="M139.7,113.3c0,6.3-.2,12.4-.6,18.4l-.5,6.5c-.1.8-.1,1.5-.2,2.3-.3,3.1-1,5.8-1,8.8a7.1,7.1,0,0,0,.4,1.9c1.2-.6,1.3-1.8,1.5-3.5l.9-8.9c0-1.5.3-3.2.4-4.6.6-7.3,1.2-12.2,1.2-20.1,0-.5,0-1,0-1.6s-.1-.9-.1-1.5,0-1.1,0-1.6c-.1-2.1-.3-5.7-.3-7.7s-.1-.9-.1-1.5,0-1.1,0-1.6l-.2-3c0-2.4-1.6-14-2-17.1s-.6-3.6-1-5.3-1-4.1-2.3-4.1.3,4.2.4,4.7c.8,3.4,2.1,12.5,2.4,16,.1.9.1,1.8.2,2.8l.5,7.1c.1,1.4,0,3.1.1,4.4Z" transform="translate(0 -20.3)"/>
    <path class="cls-3" d="M91.3,47.2c0,1,0,3,1.3,3s1-1.2,1.9-1.2a2.4,2.4,0,0,0,.7,1.3,1.9,1.9,0,0,0,1.4.7c.7,0,.5-1.8,1.3-1.8s1,3.2,2.3,1.1c.2-.4.4-.6.8-.8s1.5,3.3,2.6.9c.2-.5.3-.9.9-1s1,3,2.7,1.4.7-.5.8-1h.3c.5,2.2,3.1,2,3.5.7a2.8,2.8,0,0,1,.9.6c1.3,1,2.2.2,2.9-1s1.1-3.3.4-4.6c-1.4.4-.9,3.4-2.7,3.6a9.2,9.2,0,0,1-.1-2.1c0-.2.1-1.8-.6-1.8s-1.1,1.8-1.8,3.1-.4.7-.9.8.1-3.3-1-4.4-.7,1.2-1.2,2.1a3.1,3.1,0,0,1-1.6,1.7c-.7-1.4.2-3.4-1.2-3.7s-.9,2.7-1.6,4-.4.7-1.2.7a6.5,6.5,0,0,1-.2-2.7c0-1.7-.1-1.7-.9-2.1-1,1.4-.4,3.1-1.5,3.8s-.1-2.3-.6-4.2h-.7a17.1,17.1,0,0,0-.9,2.3c-.3.7-.6,1.7-1.4,1.9-.6-2.6-.1-2.4-.6-4.2h-.6c-1.1.7-1,3.4-2.3,3.8s.2-3.8.2-4.5-.3-.4-.9-.6A12.2,12.2,0,0,0,91.3,47.2Z" transform="translate(0 -20.3)"/>
    <path class="cls-3" d="M111.5,42.7h4c1.3,0,3,.1,3.5-.7s-3.3-.6-5.5-.9l-6.1-.3-4.3-.4a64.1,64.1,0,0,1-8.3-1.3c-.5-.1-.8-.3-1.2,0-2.4,1.8,5.6,2.4,6.3,2.5A72.6,72.6,0,0,0,111.5,42.7Z" transform="translate(0 -20.3)"/>
    <path class="cls-3" d="M60.3,148.4c0,1.2,0,1.1.6,1.9h.9c1,1.6,1.4.5,2,.4a1.6,1.6,0,0,0,2.2.3c1.3.8,1.1.5,2.5.2s.5.6,1.5.6a1.5,1.5,0,0,0,1.3-1c.6.1,1,.6,1.7-.1s-.2,0-1.1-1.2l-.5-.6a.9.9,0,0,0-.8-.3l-.2.6c0,.2-.1.5-.1.7s-.2.8-.7.8,0-1.3-.6-2.1h-.6c-.3,1.3-.6,1.9-1.6,1.9l-.3-1.3c-.1-.6-.1-.7-.7-.9s-.1,1.4-1.1,1.5.1-.9.1-1.5a1.2,1.2,0,0,0-1-.3l-.3.9a1.2,1.2,0,0,1-.6.7,4.9,4.9,0,0,0-.4-1.7c-.4-.6-.7-.2-.8-.8v-.5C60.7,146.4,60.3,147.4,60.3,148.4Z" transform="translate(0 -20.3)"/>
    <path class="cls-3" d="M47.6,140.8v.7H49c0,1-.1.9.4,1.7h1.2c.1,1.1.7,1,1.4,1.8a1.4,1.4,0,0,0,2.1.5c.1.1.6,1.8,1.5,1.8a4.5,4.5,0,0,0,1.1-.3,3.8,3.8,0,0,0,1,1.7c1.3-.8,2.6-1.8,1.9-3.2-1.1.6-.6,1.3-1.7,1.3s.2-1-.2-1.7-2.3,2-2.3.3.4-.9.6-1.5-.2-.3-.8-.3-.8.9-2.1.9.5-1.4-1-1.5v-1.1c-.4-.1-.3,0-.4-.3s-.8.2-1.6.2.3-.5.3-1.1-.6-.4-1.1-.7.2-.3.3-.8-.8-.5-1.4.1A1.8,1.8,0,0,0,47.6,140.8Z" transform="translate(0 -20.3)"/>
    <path class="cls-3" d="M147.9,113.7c0,2.5,1.9,3.6,1.9,2.8s-.3-.7-.3-1.9a3.8,3.8,0,0,1,2.8-3.8,2.8,2.8,0,0,0,1.5-.7c-.3-1.5-.7-1.5-1.8-1.5a4,4,0,0,0-1.7.6l-.7.5-.6.6A5.6,5.6,0,0,0,147.9,113.7Z" transform="translate(0 -20.3)"/>
    <path class="cls-3" d="M152,114.6a2.2,2.2,0,0,0,3.8,1.8c1.3-1.2.8-4.3-1.5-4.3A2.4,2.4,0,0,0,152,114.6Z" transform="translate(0 -20.3)"/>
    <path class="cls-3" d="M123.5,89.1c.6,1.1-.1,3.7,5.6-.1-.3-.6-.1-1.2-.6-1.7S124.4,88.6,123.5,89.1Z" transform="translate(0 -20.3)"/>
    <path class="cls-3" d="M126.2,84.1a20.9,20.9,0,0,1-2.6,1.2,1.3,1.3,0,0,0-1.6-1c0,1.9.3,1.5,1,2.6s4.7-1.4,4.7-2.8-1.4-2.5-1.6-1.3S126.2,83.7,126.2,84.1Z" transform="translate(0 -20.3)"/>
    <path class="cls-3" d="M97.3,120.3c1.7.4,2.1-.4,2.8-1.8s-.4-.1-.9,0A4.8,4.8,0,0,0,97.3,120.3Z" transform="translate(0 -20.3)"/>
    <path class="cls-3" d="M34.7,111.5c.2.9,1.4,1.1,2.5.9S35.4,110.5,34.7,111.5Z" transform="translate(0 -20.3)"/>
    <path class="cls-3" d="M35.1,114.2c1.6,1.1,1.7,1.1,2.5.6a1.7,1.7,0,0,0-1.9-1.2C35.2,113.6,35.3,113.8,35.1,114.2Z" transform="translate(0 -20.3)"/>
    <path class="cls-3" d="M34.4,109c0,.7,1.4,1,2,1.1a1.3,1.3,0,0,0,.3-.7C36.8,108.8,34.4,108.1,34.4,109Z" transform="translate(0 -20.3)"/>
    <path class="cls-3" d="M69.2,88.1c1.4-.3,1.7-1.1,2.2-2.2a1.7,1.7,0,0,0-1.6.6A2.4,2.4,0,0,0,69.2,88.1Z" transform="translate(0 -20.3)"/>
    <path class="cls-3" d="M81.2,141.7a2.4,2.4,0,0,0,1,1.1c.6.3,1.1.3,1.4-.2A1.8,1.8,0,0,0,81.2,141.7Z" transform="translate(0 -20.3)"/>
    <path class="cls-3" d="M73.7,92.3c.9,0,.9,0,1.4-.5a2.4,2.4,0,0,0,.6-1.3c-.7-.4-.8-.2-1.3.4A3.1,3.1,0,0,0,73.7,92.3Z" transform="translate(0 -20.3)"/>
    <path class="cls-3" d="M35.5,116.3c.5.9,1.8,1.7,2.5.3C37.1,116.1,36.5,115.6,35.5,116.3Z" transform="translate(0 -20.3)"/>
    <path class="cls-3" d="M67.9,83.3c-.4,0-.4-.1-.7,0s-1.9,4.1.4.7C67.7,83.8,67.8,83.7,67.9,83.3Z" transform="translate(0 -20.3)"/>
    <path class="cls-3" d="M71,88.8c0,.3,0,.1.1.4s1.8-.9,1.9-1.9h-.6A1.9,1.9,0,0,0,71,88.8Z" transform="translate(0 -20.3)"/>
    <path class="cls-3" d="M64.4,84.3c0,1,.8.3,1,0a3.6,3.6,0,0,0,.6-1.7A1.5,1.5,0,0,0,64.4,84.3Z" transform="translate(0 -20.3)"/>
    <path class="cls-3" d="M67.9,86.8a3.1,3.1,0,0,0,1.3-.9c1.3-1.5-.2-1.6-.9-.6A2.2,2.2,0,0,0,67.9,86.8Z" transform="translate(0 -20.3)"/>
    <path class="cls-3" d="M72.3,90.4a1.6,1.6,0,0,0,1.9-.9c.2-.4.1-.4.1-1S72.7,89,72.3,90.4Z" transform="translate(0 -20.3)"/>
    <path class="cls-3" d="M82.6,139.8c0,.8,1.4.9,2.3.7s.3-.5-1-.9S82.6,139.1,82.6,139.8Z" transform="translate(0 -20.3)"/>
    <path class="cls-3" d="M36.2,119.2c.7.5.6.5,1.9.6l.3-.6A1.2,1.2,0,0,0,36.2,119.2Z" transform="translate(0 -20.3)"/>
    <path class="cls-3" d="M37.4,124.2c1.3,0,2,.1,2.2-1S37.5,123,37.4,124.2Z" transform="translate(0 -20.3)"/>
    <path class="cls-3" d="M38.1,126.3c1,.2,2,0,2.2-1A1.5,1.5,0,0,0,38.1,126.3Z" transform="translate(0 -20.3)"/>
    <path class="cls-3" d="M34.4,106.6a1.9,1.9,0,0,0,.9,1c1.7.7,1.4-1.3-.4-1.3S34.7,106.4,34.4,106.6Z" transform="translate(0 -20.3)"/>
    <path class="cls-3" d="M36.7,121.3v.4a4.3,4.3,0,0,0,1.8-.1c.3-.2.2-.1.4-.4s-1.6-.5-1.9-.2S36.7,121,36.7,121.3Z" transform="translate(0 -20.3)"/>
    <path class="cls-3" d="M83.6,137.5c1,.2,1.4.8,2.1,0S83.7,136.2,83.6,137.5Z" transform="translate(0 -20.3)"/>
    <path class="cls-3" d="M39.4,128.4c.5,0,1.6-.3,1.6-.7s-.1-.2-.1-.7a1.8,1.8,0,0,0-1.1.3C39.2,127.7,39.3,127.8,39.4,128.4Z" transform="translate(0 -20.3)"/>
    <path class="cls-3" d="M97.7,116.8c1.8.4,2.2-1.1,1.6-1.1S97.7,116.1,97.7,116.8Z" transform="translate(0 -20.3)"/>
    <path class="cls-3" d="M40.3,130.1c.5,0,.2,0,.5-.1s.8-.5.8-1.2S40.2,129.3,40.3,130.1Z" transform="translate(0 -20.3)"/>
  </g>
</svg>
