<svg id="Слой_1" data-name="Слой 1" xmlns="http://www.w3.org/2000/svg" viewBox="0 0 180 180">
  <defs>
    <style>
      .cls-1 {
        font-size: 27.88px;
        font-family: Arial-BoldMT, Arial;
        font-weight: 700;
      }

      .cls-2 {
        letter-spacing: -0.02em;
      }

      .cls-3 {
        fill: none;
      }

      .cls-4, .cls-5, .cls-6 {
        fill-rule: evenodd;
      }

      .cls-5 {
        fill: #acacab;
      }

      .cls-6 {
        fill: #c9c9c9;
      }
    </style>
  </defs>
  <title>scool</title>
  <text class="cls-1" transform="translate(36.9 159.5)">ШК<tspan class="cls-2" x="45" y="0">О</tspan><tspan x="66" y="0">ЛА</tspan></text>
  <text></text>
  <rect class="cls-3" width="180" height="180"/>
  <rect class="cls-3" width="180" height="180"/>
  <g>
    <g>
      <path class="cls-4" d="M92.2,65.3c.4-.7,3.3-1.7,4.1-2.1a17.5,17.5,0,0,1,5-1.1c2.3-.3,8.7,1,9.7,2.5a29.8,29.8,0,0,0-5.7-1h-1.3l-5.1.2a50.9,50.9,0,0,0-6.6,1.6Zm19.6-17.2c.2.1.2.1.3.4s-.2,0-.4-.3a34.2,34.2,0,0,0-11.3-6.4,31.8,31.8,0,0,0-15.1-1.3,40,40,0,0,0-13.1,4.4c-.8.4-5.3,2.8-5.6,3.2s-1.3,6.4-1.8,7.5h0s.6-9.1.7-9.4,4.8-3.4,5.6-3.9a37.1,37.1,0,0,1,10-4,39.2,39.2,0,0,1,4-.6,28.3,28.3,0,0,1,12.1,1.2,34.3,34.3,0,0,1,6.5,2.9l2.9,1.9a43,43,0,0,1,5.2,4.4ZM59.6,42.5l1,.8a2.6,2.6,0,0,1-1-.6c-.3-.1-10.1-6-11.4-6.7l-3.8-2.2a3.8,3.8,0,0,1,1.1-.5c1.2-.5.4-.5,3,1.2L52.2,37l7.5,5.4ZM99.7,20.8a21.5,21.5,0,0,0,2.5,1.7l2.5,1.7,15.2,10,10.1,6.7,7.6,5c.8.5.5.6,1.4.1l1.4-.6c-.2-.3-9.1-5.7-10.2-6.2l-5.1-3.1-5.1-3L115,30l-5.1-3.1-5.1-3.1-2.5-1.6A27.9,27.9,0,0,0,99.7,20.8Zm0,0h0Zm-.2-.1-.2-.2.2.2Zm-.2-.2ZM34.5,32.7c.5.8,2.4,1.6,3.3,2.1l6.9,3.8c1.2.5,2.3,1.4,3.5,1.9s4.6,2.7,6.9,3.8,5.1,3,6.9,3.8l-.5,8.3a8.5,8.5,0,0,0,0,2.4,2.9,2.9,0,0,0,.2,1.1,15.9,15.9,0,0,0,2-.5,7.3,7.3,0,0,1,2.2-.3,16.9,16.9,0,0,1,10.8,4.2,31,31,0,0,1,3.9,3.8c.6.7,1.1,1.5,1.7,2.2A42.4,42.4,0,0,1,85.5,74c.3.6.4.8,1.1.4l1.2-.7,4.7-3c2.5-1.5,9.2-2.8,12-2.8s5-.2,8.3.9,2.8,1.3,4.3,1.8c.3-2.1.9-4.1,1.2-6.3s.3-2.2.4-3.3-.1-.8,1.8-1.8l4.7-2.3,4.7-2.3c3.1-1.4,6.3-3.2,9.4-4.6s8-4.1,9.5-4.5a13.7,13.7,0,0,0-3-2.4c-3-1.9-7-4.7-9.9-6.3s-4.4-2.8-6.6-4.1l-6.7-4.1-13.3-8.3-6.6-4.1L96,12.2c-1-.6-2.4-1.8-3.5-1.4l-3.8,1.6-7.7,3-15.3,6L50.2,27.2C45,29.1,39.7,31.1,34.5,32.7Z"/>
      <path class="cls-4" d="M113.2,111.6a4.7,4.7,0,0,1-1.7,2.2,4.3,4.3,0,0,1-3,.7c-3,0-3.6-4.8-1.3-7.6.5-.6.5-.6,1.1-.1s4.6,4.5,4.8,4.8Zm-15.4-.4c-.5,3.1-1,4.6-.2,7.8a7.4,7.4,0,0,0,3.9,4.4c3.5,1.8,9.4.6,12.6-1.7s6.2-6.6,5.6-11.3a8.5,8.5,0,0,0-3.3-5.1,6.3,6.3,0,0,0-3-1.1c-.7-.1-2.7.1-3.3.7s3.4,3.3,5.1,5.7.6.9.3,2a4.5,4.5,0,0,1-.9,1.8c-1.8,2.1-4.6,3.7-7.3,3.1a11.7,11.7,0,0,1-3.6-1.6c-.9-.5-4.7-3.6-6-4.6Zm6.1,1.1c0-.8-.2-1.5-.2-2.4a7.5,7.5,0,0,1,2.3-5.1,9.3,9.3,0,0,1,4.6-2.5l1.8-.3a26.9,26.9,0,0,0-2.7-1.6l-1.3-.9-1.2-.9a16,16,0,0,0-5,4.1,28.9,28.9,0,0,0-3.4,6l1.2,1,3.8,2.6Zm7.8-19.5-10.8-3.1c-3.6-1.1-7.1-1.9-10.7-3.2s-8.4-3-10.5-3.5l-2.8-.7c-.9-.3-1.5-.7-2.5-1-2.5-.6-3,.8-3.9,2.9s-1.6,4-1.4,6.1,1.9,3,3.1,4.2,4.7,4.9,7.2,7.1l7.5,6.8c2.2,2,5.6,5.7,7.3,7.1.1-.8.1-1.7.2-2.4a28.9,28.9,0,0,1,1.8-5.9c2.6-6.4,6.8-9.7,12.3-12.7l3.3-1.6ZM59.5,84.9l-2.7-1L54,83.1a53.1,53.1,0,0,0-5.9-1.5A80.8,80.8,0,0,0,35,80c-2.6,0-4.8-.3-7-.3s-1-.6-1.2-2.7a30.6,30.6,0,0,1,1.3-10.5,29,29,0,0,1,2.5-5.3c1.4-2.6,3.7-4.1,5.5-5.9s1.3-1.3,2.3-.3,4.1,4.1,5.9,5.6l2.1,1.8c1.3,1.2,2.8,2.3,4.2,3.5l4.3,3.3c1,.8,8.6,6,8.8,6.4l-.8.8-.8.9a12.8,12.8,0,0,0-2.3,6.1c-.1.5-.1,1-.2,1.5Zm-2.5,2.7c-.3,1.2-3.3,3.5-4.3,4.2A30.6,30.6,0,0,1,41.1,97a25.7,25.7,0,0,1-5.5.6h-2c.2,1.2,3,2.3,3.8,2.8s3.7,1.5,4.5,2l-5.9,5.1-.9.7.9.2,2.8.4a13.6,13.6,0,0,0,5.6,0,50.6,50.6,0,0,0,4.9-1.6,25.3,25.3,0,0,0,2.9-1.4,22,22,0,0,0,5.4-3.3,8.1,8.1,0,0,1,2.6-1.8l.8,3.9c1.4,7.7-.1,16-5.2,21.7a21.5,21.5,0,0,0-2.3,2.3c4.2-1.1,2.6-.4,6.9-2.3a20.1,20.1,0,0,1,2.1-1l.8,2.3a28.2,28.2,0,0,1,.9,7c0,.3.1.4.1.7s0,.6,0,.9,1.3-.7,2.7-3a52.2,52.2,0,0,0,3-5.7c.6-2.1,1.4-5,1.8-7l.3-1.2c.1-.6.2-3.7.2-4.3a76.1,76.1,0,0,0-.7-8.3c-.1-.8-.2-1.9-.3-2.7a33.8,33.8,0,0,1,.1-5.8c.2,0,6.3,7.3,7.2,8.3l1.8,2c1.6,1.9,4,4.3,5.7,6,4.3,4.3,12.2,11.9,17.8,12.9,3.3.6,8.7-.9,11.5-3.2a19.2,19.2,0,0,0,6.6-9.1,9.8,9.8,0,0,0,.2-6.8,11.3,11.3,0,0,0-3.2-4.7,29.2,29.2,0,0,0-4.4-3.3,46.9,46.9,0,0,1-4.6-3.2l1.9-1.2c2.8-1.6,5.9-2.1,6.9-2.6a68.6,68.6,0,0,0-9.4-3.3l-9.8-3.1-9.8-3.1-4.9-1.5-5.1-1.3a19.4,19.4,0,0,1-4.6-1.8c-.8-.6-1.2-1.9-3.1-3.6a9.9,9.9,0,0,0-4.3-2.2c-1-.2-2,0-2.9-.1s-1.3-.7-2-1.2c-5-3.7-9.8-7.7-14.7-11.5a73.9,73.9,0,0,1-7.1-6.1c-.6-.6-2.9-2.9-3.5-3.1s-3.5,1.3-4.4,1.9c-6.6,4.5-8.7,8.5-9.8,17.1a36.6,36.6,0,0,0-.3,9.7c.4,4,1.2,2.3,6.7,2.5l6,.3a26.5,26.5,0,0,1,5.3,1Z"/>
      <path class="cls-4" d="M124,24.9c2.6-.4,4.5-1.6,7-2.3a20,20,0,0,1,8.3-.1,18.1,18.1,0,0,1,11.3,7.7c3,4.2,5.1,9.3,5.1,14.7a21.6,21.6,0,0,1-1.9,8c-3.1,6.5-10.3,9.3-15,13.8a19.2,19.2,0,0,0-4.3,5.3c-1.9,3.8-.8,4.9-1,6.3s-.7.9-1.1,1.3-1.7,1.3-1.8,3a4.9,4.9,0,0,0,1.3,3.6c1.6,2,2.3,1.3,2.5,2.3s-.7,2,2.3,7.7a18,18,0,0,1,1.6,3.3c1,3.3,0,5.5-.8,8.4a6.9,6.9,0,0,0,1.5-1.5,10.8,10.8,0,0,0,1.1-2.1,21,21,0,0,0,1.1-5.2c1.5,1.1,2.7,4,3.2,5.9a15,15,0,0,1,.3,2.9,7.4,7.4,0,0,0,1-1.8,15.4,15.4,0,0,0-.2-5.1c-.3-1.7-.9-1.3-.6-2.2a12.9,12.9,0,0,1,1.9.5l2.3.3c1,.1,3.8.2,4.4-.4s-1.3-.1-2.6-.6a9.9,9.9,0,0,1-4.9-4.9c-.7-1.5.1-3.5-1.1-5.7a8.5,8.5,0,0,0-3.6-3,4.5,4.5,0,0,0-1.9-6c-3-1.8-5.5,1.3-4.2-3.3s5.7-7,8.6-9.2l10-7.6c3-2.2,6.4-6.6,7.4-10.5a15.8,15.8,0,0,0,.5-3.2V43.3c-.4-7.7-5.7-15.5-11.3-19.3s-8.5-3.7-13.5-3.7S127.2,21.4,124,24.9Z"/>
    </g>
    <path class="cls-5" d="M59.6,42.6a2.6,2.6,0,0,0,1,.6l-1-.8Z"/>
    <path class="cls-6" d="M111.7,48.2c.2.2.2.2.4.3s-.1-.2-.3-.4Z"/>
  </g>
</svg>
