<svg id="Слой_1" data-name="Слой 1" xmlns="http://www.w3.org/2000/svg" viewBox="0 0 180 180">
  <defs>
    <style>
      .cls-1 {
        font-size: 27.88px;
        font-family: Arial-BoldMT, Arial;
        font-weight: 700;
      }

      .cls-2 {
        letter-spacing: -0.09em;
      }

      .cls-3 {
        letter-spacing: -0.05em;
      }

      .cls-4 {
        fill: none;
      }

      .cls-5 {
        fill: #c8c9c9;
      }

      .cls-10, .cls-11, .cls-5, .cls-6, .cls-7, .cls-8, .cls-9 {
        fill-rule: evenodd;
      }

      .cls-6 {
        fill: #80807f;
      }

      .cls-7 {
        fill: #6b6a6a;
      }

      .cls-8 {
        fill: #a7a7a8;
      }

      .cls-9 {
        fill: #919191;
      }

      .cls-10 {
        fill: #373838;
      }
    </style>
  </defs>
  <title>uprava</title>
  <text class="cls-1" transform="translate(33.5 157.5)">УП<tspan class="cls-2" x="37.4" y="0">Р</tspan><tspan x="53.5" y="0">А</tspan><tspan class="cls-3" x="73.7" y="0">В</tspan><tspan x="92.4" y="0">А</tspan></text>
  <text></text>
  <rect class="cls-4" width="180" height="180"/>
  <rect class="cls-4" width="180" height="180"/>
  <g>
    <g>
      <path class="cls-5" d="M112.3,31.5v-.3H112C112.2,31.7,111.8,31.4,112.3,31.5Z"/>
      <path class="cls-5" d="M119.5,36.3V36h-.3C119.3,36.5,119,36.2,119.5,36.3Z"/>
      <path class="cls-5" d="M55.8,44.8h.3v-.3C55.6,44.6,55.9,44.4,55.8,44.8Z"/>
      <path class="cls-5" d="M115.6,40.7c-.2-.4.1-.1-.3-.3v.3Z"/>
      <path class="cls-5" d="M110.6,41.8v-.3h-.3C110.4,41.9,110.2,41.6,110.6,41.8Z"/>
      <path class="cls-5" d="M59.9,42h.3v-.3C59.8,41.9,60.1,41.6,59.9,42Z"/>
      <path class="cls-5" d="M81.3,32.2c.4-.1.1.1.3-.3h-.3Z"/>
    </g>
    <g>
      <path class="cls-6" d="M66.4,69.8H77.5V80c0,1.1-.2.8-1.3.8H68c-.9,0-1.4.3-1.5-.5s0-1.5,0-2.1C66.5,75.7,66.7,72.1,66.4,69.8Zm0,0c-.3.5-.1,4.9-.1,5.5s-.2,4.7.1,5.5L72,81c1.2,0,4.8.3,5.7-.2a73.7,73.7,0,0,0,0-11.2c-1.3-.2-6.5,0-8.5,0S66.8,69.4,66.4,69.8Z"/>
      <path class="cls-6" d="M98.9,34c0-.5-.2-.4-.6-.5v.3Z"/>
      <path class="cls-6" d="M85.8,29.2c.5-.2.4-.1.6-.5h-.6Z"/>
      <path class="cls-6" d="M105.9,38.7v-.3h-.5l.2.3Z"/>
      <polygon class="cls-6" points="78.7 33.9 79.1 33.8 79.2 33.5 78.8 33.6 78.7 33.9"/>
      <path class="cls-6" d="M116.3,41.1c-.2-.3,0-.2-.5-.4S115.8,41,116.3,41.1Z"/>
    </g>
    <g>
      <path class="cls-7" d="M99.9,80.4V69.9H111V80.8H100.3c-.3,0-.4-.1-.4-.4Zm0,.6c1.1.1,10.8.2,11.1-.1s.1.2.2-.5,0-10.4-.1-10.7-10.5-.2-11.3,0A77.3,77.3,0,0,0,99.9,80.9Z"/>
      <path class="cls-7" d="M93.8,81c-.2-.3.4-.3-1.2-.3H83.3V69.9H94.4c-.1-.2.2-.3-1.1-.2s-9.2-.1-10.2.1-.1,10.8,0,11.2S92.1,81,93.8,81Z"/>
      <path class="cls-7" d="M83.9,30.4a1,1,0,0,0,.8-.6h-.5C84,30.2,84,30,83.9,30.4Z"/>
      <path class="cls-7" d="M60.8,46c.5-.3.4-.1.6-.5h-.6Z"/>
    </g>
    <g>
      <path class="cls-8" d="M23.4,127.3c-.4-1.3-.1-46.4,0-46.5s19.1-.2,21.2-.2h6.3c.8,0,.7.1.8.3v46.6H52c0-15.1-.2-30.8,0-45.8,0-1.2.1-.9-2.8-.9H24.2c-1,0-1.1-.1-1.1.9.2,13.8,0,28.2,0,42.1v3.3C23.3,127.3,23.1,127,23.4,127.3Z"/>
      <path class="cls-8" d="M134.3,86.9h.1c.3-.3.3-.2.8-.3h10.1V97.4c-1.2,0-10.3.1-10.6,0s-.3-.4-.3-1v-8c0-.2,0-.5,0-.7a1.7,1.7,0,0,0,0-.4c-.1-.4,0-.1-.1-.3,0,1.8-.1,9.5.1,10.6s10.4.2,11.1-.1.2-10.1.1-11.1-10-.2-11.2,0Z"/>
      <path class="cls-8" d="M42.6,97.4H32.1V86.5c2,0,9.6-.2,10.9.1v9.7c0,.6.1,1.1-.4,1.1ZM32,97.6c.8.4,9.6.2,11.1.1V86.4H31.9C31.8,87.5,31.8,97,32,97.6Z"/>
      <path class="cls-8" d="M134.3,103.2c1.8-.4,8.6-.1,11.1-.1.2,2.2-.2,7.6,0,9.7v1.4c.2-.1.3.2.3-1.1v-4.4a45.9,45.9,0,0,0-.1-5.7c-1-.2-8-.1-10-.1C135,102.9,134.5,102.8,134.3,103.2Z"/>
      <path class="cls-8" d="M32.1,114.1V103H43c0,.5,0,.1.2.3v-.4H31.9v11C32.1,114.2,31.8,113.9,32.1,114.1Z"/>
      <path class="cls-8" d="M131.9,44.6v-.3h-.5C131.6,44.5,131.5,44.5,131.9,44.6Z"/>
      <path class="cls-8" d="M103.4,37v-.3h-.3C103.3,37.1,103,36.8,103.4,37Z"/>
    </g>
    <g>
      <path class="cls-9" d="M154,80.6v46.5c-.9.2-12.2.1-14.1.1-4.6,0-9.6.2-14.1,0V103.8c0-2.9-.2-22.2.1-23.3h-.4c0,15.1.2,30.8,0,45.8,0,1.2-.1.9,2.8.9h23.1c3,0,3,.3,2.9-.9-.2-13.8,0-28.2,0-42.1V81.1C154.1,80.6,154.4,80.9,154,80.6Z"/>
      <polygon class="cls-9" points="71.6 38.7 71.9 38.6 72 38.3 71.6 38.4 71.6 38.7"/>
      <path class="cls-9" d="M109.1,36.3c-.2-.3,0-.2-.5-.4S108.6,36.2,109.1,36.3Z"/>
      <path class="cls-9" d="M68.4,36.3c.4-.1.3.1.5-.4S68.6,36,68.4,36.3Z"/>
    </g>
    <g>
      <path class="cls-10" d="M23.4,127.3c0,.3.4.1,1.5.1H51.6v-.3H23.5V80.8H51.7c-.1-.2,0-.3-.8-.3H44.6c-2.1,0-20.9-.2-21.2.2S23.1,126,23.4,127.3Z"/>
      <path class="cls-10" d="M66.4,64.2c.3-1.5-.2-10.6.2-11.1s9.7-.1,10.9-.1V64.1C75.5,64.1,67.8,63.9,66.4,64.2Zm0,0a87.2,87.2,0,0,0,11.3,0c.2-.7.3-10.7,0-11.4s-10.6-.2-11.3,0S66.1,63.7,66.4,64.2Z"/>
    </g>
    <g>
      <path class="cls-11" d="M109.3,97.8H99.9c-.4-.7-.3-9.6-.1-11.4s8.9-.1,10.6-.1.3,0,.8.2.1,8.2.1,10.5-.1.9-2,.9Zm-14.9-.1c-.6.1-10.9.2-11.1-.1S83,95.6,83,95s-.1-7.4.1-8.6,10.8-.3,11.4-.1.3,10.7-.1,11.3ZM66.5,86.6c1.4-.3,8.7-.1,10.7-.1.3,0,.4.1.4.4V97.2c0,.3-.1.4-.4.4-2,0-9.3.2-10.7-.1V86.6Zm33.4-5.7a77.3,77.3,0,0,1,0-11.3c.8-.1,10.6-.1,11.3,0s.2,9.4.1,10.7,0,.3-.2.5-10,.2-11.1.1ZM66.4,69.8c.3-.5,2.1-.2,2.7-.2s7.2-.1,8.5,0a73.7,73.7,0,0,1,0,11.2c-.8.4-4.4.2-5.7.2l-5.5-.2c-.3-.8-.1-4.3-.1-5.5s-.1-5,.1-5.5ZM93.8,81c-1.7,0-9.7.2-10.7-.1s-.2-10.4,0-11.2,8-.1,10.2-.1,1,0,1.1.2L93.8,81Zm17.3-28V64.1H99.9c-.2-.2-.1,0-.2-.4a2.9,2.9,0,0,1,0-.4c-.1-2-.1-9.8.2-10.6a47.2,47.2,0,0,1,5.6-.1h2.9c.5,0,2.5-.3,2.6.2ZM94.3,64.2H83.3c-.4-.3-.3-.7-.2-1.3,0-2.1-.1-9.1.1-10s10.6-.2,11.3,0,.2,4.4.2,5.6.1,4.9-.1,5.5v.2Zm-27.9,0c-.3-.5-.2-10.7-.1-11.3s10.3-.2,11.3,0,.3,10.7,0,11.4a87.2,87.2,0,0,1-11.3,0Zm20-35.6c-.2.4-.1.3-.6.5l-1.1.5a1,1,0,0,1-.8.6l-2.4,1.5c-.1.4.1.2-.3.3l-2,1.3-.2.3h-.3L72,38.3l-.2.3h-.3L61.4,45.5c-.3.5-.1.3-.6.5L57,48.3v78.8H79.3v-26H98c.4,1,.2,22.9.2,26h22V48.3l-9.6-6.5c-.4-.1-.2.1-.3-.3l-4.4-2.7h-.3l-.2-.3-2-1.3c-.4-.1-.1.1-.3-.3L98.9,34l-.5-.2v-.3c-.1-.3-5-3.5-5.9-4.1l-3-2C88.4,26.8,86.5,28.3,86.4,28.7Z"/>
      <path class="cls-11" d="M134.3,103.2c.2-.4.7-.3,1.2-.3,2.1,0,9-.1,10,.1a45.9,45.9,0,0,1,.1,5.7V113c0,1.3,0,1-.3,1.1h-11V103.2Zm0-16.1h0v-.5c1.2-.2,10.3-.2,11.2,0s.1,10.7-.1,11.1-9.6.2-11.1.1-.1-8.9-.1-10.6ZM154,80.6H125.9c-.3,1.1-.1,20.4-.1,23.3v23.4c4.5.2,9.6,0,14.1,0,1.9,0,13.3.1,14.1-.1Z"/>
      <path class="cls-11" d="M43.2,103.3V114h-11c-.3-.2-.1.1-.2-.2v-11H43.1v.4ZM32,97.6c-.2-.5-.2-10-.1-11.2H43.2V97.7c-1.6.1-10.4.2-11.1-.1Zm19.7,29.5V80.8H23.6v46.4Z"/>
      <path class="cls-11" d="M55.8,44.8c.2-.4-.1-.2.3-.3L59.9,42c.2-.4-.1-.2.3-.3l8.2-5.5c.2-.3,0-.2.5-.4s8.5-5.5,9.8-6.3,8-6.1,10.1-6.1,8.1,4.9,10.1,6.1,9.3,6.3,9.8,6.3.3.1.5.4l6.2,4.1c.4.1.2-.1.3.3h.2c.5.2.3.1.5.4a54.6,54.6,0,0,0,6.2,4.1c2.2.3,7.8,0,10.4,0l-.9-.6c-.4-.1-.3-.1-.5-.5l-11.9-7.8c-.5-.2-.2.1-.3-.3l-6.9-4.5c-.5-.2-.2.1-.3-.3l-23-15.4h-.5L44.6,45.1Z"/>
      <path class="cls-11" d="M125.5,73.6v3.2H157V73.5C153.6,73.5,126.4,73.3,125.5,73.6Z"/>
      <path class="cls-11" d="M20.5,76.9H52V73.6H20.5Z"/>
    </g>
  </g>
</svg>
