<svg id="Слой_1" data-name="Слой 1" xmlns="http://www.w3.org/2000/svg" viewBox="0 0 180 158.9">
  <defs>
    <style>
      .cls-1 {
        font-size: 28px;
        font-family: Arial-BoldMT, Arial;
        font-weight: 700;
      }

      .cls-2 {
        fill: #919191;
      }

      .cls-3 {
        fill: #757575;
      }

      .cls-4 {
        fill: #5e5e5e;
      }
    </style>
  </defs>
  <title>video</title>
  <text class="cls-1" transform="translate(39.6 148.4)">ВИДЕО</text>
  <text y="-11"></text>
  <g>
    <path d="M136.6,115.8l-.6.5a6.1,6.1,0,0,1-2.1.9H50.4c-3.5,0-3.9-.8-4.7-.9l-.7-.6h-.1a3.4,3.4,0,0,1-1-1.2c-1-1.7-.7-7.7-.7-10s-.1-31.2,0-32.6,42.6-.2,47.4-.2,47.1-.2,47.6.2.2,20.6.2,22.7v11.5c0,2.7.6,8-1.7,9.8Zm-4.2,12.9a16.1,16.1,0,0,0,6.8-1.1c1.4-.6,4.1-2.1,5-3.3l1.1-1.1c1.7-1,4.6-7,4.1-8.9s.1-13.5.1-17.4V53.2c0-2.6.2-6.2,0-8.8-.5-.4-13.3-.2-14.9-.2H89c.5-.3,13.3-2.9,14.8-3.1s12.1-2.4,15-3l7.4-1.5,22.6-4.5c0-.8-.7-3.9-.9-5l-2.7-13.4a4.1,4.1,0,0,0-.1-.7l-.2-.5a10,10,0,0,1-.5-1.5l-1,.2c-1.1-.2-25.9,4.9-29,5.5L100,20c-14.3,2.6-29,6-43.5,8.6L42.1,31.5A12.6,12.6,0,0,0,35.9,34c-1.3,1.1-3.4,3.5-3.4,5.3-.7,3.8-.4,14-.4,18.5v47.1c0,3-.1,6.4.1,9.4s3,8.1,5.6,10.5,7.7,3.9,12.5,3.9ZM119.7,59.6c.6-.2,4-3.8,4.7-4.6l4.7-4.7h.1c.5-.5,6.2-.3,7.3-.3h7.6c-.1.8-1.4,1.8-2,2.4l-2.3,2.3-4.4,4.4c-1.4,1.4-.9,1.2-3,1.2s-12.3.2-13-.2l.3-.4Zm-29.6.1,9.5-9.5c.9-.3,13-.2,14.8-.1-.1.8-1.1,1.5-2,2.4l-6.6,6.6c-1.4,1.4-.9,1.2-3.1,1.2s-12.4.2-13-.2l.3-.4ZM75,60.1H60.6c.2-.7,9.4-9.7,9.6-9.8H84.6C84.4,50.9,75.9,59.4,75,60.1ZM58.5,34c.7.2,4.3-.7,5.4-.9l1.9-.4,5.5-1.1a2.2,2.2,0,0,1,1.9.2c1.1.7,9.9,6.8,10.7,7.1l.4.2-.4.3L72.8,41.5l-1.9.3c-1,.2-.7.5-1.6-.1l-2.7-1.8-8.1-5.3-.4-.3Zm54.4-.9.4.3-.9.3c-.7-.1-9.7,1.8-11,2.1s-2.1.9-3.4,0-10.1-6.6-10.6-7.1l.3-.2h.4l.9-.2,11.2-2.2c.7-.1,1.1-.4,1.8,0s10,7,10.8,7.1Zm29-5.7.3.3-.3.3a15.8,15.8,0,0,0-3.7.6l-7.6,1.3c-1.5.3-2.7.8-3.6.2s-10.4-6.8-10.8-7.4l3.7-.7,9.3-1.9a1.9,1.9,0,0,1,1.8.1c.7.4,10.2,7,10.9,7.1Z" transform="translate(0 -11)"/>
    <path d="M85,108.6l1.3-.7,1.4-.8c.5.2.2.1.3,0l.5-.4,1.5-.9h.1l.6-.4c.5.2.2.1.2-.1l1.1-.7c.4,0,.5.1.8-.4l1.5-1.1.9-.5c.3.1.3.3.4-.2l.9-.6c.5.2.2.1.2-.1l1-.7.7-.5,1.4-.8.8-.4.7-.5,2.1-1.4,2.1-1.3L109,94h.5c0-.6,0-.1-.1-.2l-.9-.6c-.3-.3-.5-.5-.9-.5l-.6-.5c0-.4-.2-.3-.5-.2l-.6-.3L104,90.5l-.5-.3-3-1.8-1.3-.8-.8-.5-.8-.5-1.3-.8-.8-.5-.5-.4c0-.2.3-.2-.3-.1l-1.1-.6-.8-.5-1.1-1L90.6,82h-.1l-1.2-.7-1.5-1-.5-.4c-.1-.2.2-.3-.3,0l-1.4-.8-.5-.3-.7-.4V109Z" transform="translate(0 -11)"/>
    <path class="cls-2" d="M43.9,114.4c.2-.9-.3-1.1-.3-2.2-.1-6.6-.1-39.7.1-40.3s73.8-.1,82.8-.1c1.6,0,10.7-.3,11.4.2s.1,35.2.1,39.5c0,2.7-1.1,3.1-1.4,4.3,2.4-1.8,1.7-7.1,1.7-9.8V94.5c0-2.1.2-22.4-.2-22.7s-43.4-.2-47.6-.2-46.3-.2-47.4.2,0,29.8,0,32.6S42.9,112.7,43.9,114.4Z" transform="translate(0 -11)"/>
    <path class="cls-2" d="M32.1,114.3c-.2-3-.1-6.4-.1-9.4V57.8c0-4.5-.3-14.7.4-18.5-.5.5-.7,1.9-.7,3.5V113A2.4,2.4,0,0,0,32.1,114.3Z" transform="translate(0 -11)"/>
    <path class="cls-2" d="M149.4,114.3a4.4,4.4,0,0,0,.4-2V45.4a1.6,1.6,0,0,0-.4-.9,86.1,86.1,0,0,1,0,8.8V97C149.5,100.8,149.7,111.1,149.4,114.3Z" transform="translate(0 -11)"/>
    <path class="cls-3" d="M90.1,59.7l-.3.4c.6.4,10.8.2,13,.2s1.7.2,3.1-1.2l6.6-6.6c.9-.9,1.9-1.6,2-2.4-1.8-.1-13.9-.2-14.8.1,1.4.3,5.6.1,7.3.1h7.3l-9.7,9.8H90.3Z" transform="translate(0 -11)"/>
    <path class="cls-3" d="M85,108.6l-.8.3V78.3l.7.4c-.1-.7-.4-.6-1.1-.6v31.2C84.7,109.2,84.9,109.2,85,108.6Z" transform="translate(0 -11)"/>
    <path class="cls-3" d="M119.7,59.6l-.3.4c.7.4,10.8.2,13,.2s1.7.2,3-1.2l4.4-4.4,2.2-2.2c.6-.6,1.9-1.6,2-2.4h-7.6c-2.5,0-6.8-.3-7.3.3h14.6L134,60.1H119.8Z" transform="translate(0 -11)"/>
    <path class="cls-2" d="M90.1,59.7c.7,0,4.1-3.8,4.8-4.5l3.6-3.6c.5-.5,1-.8,1.1-1.4Z" transform="translate(0 -11)"/>
    <path class="cls-3" d="M105.6,95.9c.6.2,1.3-.5,1.9-.8s1.4-.7,1.6-1.2Z" transform="translate(0 -11)"/>
    <path class="cls-3" d="M103.6,90a5.8,5.8,0,0,0-3-1.8Z" transform="translate(0 -11)"/>
    <path class="cls-2" d="M103.5,97.2c.5.2.6-.1,1.2-.4s.9-.4,1-.9Z" transform="translate(0 -11)"/>
    <path class="cls-3" d="M101.4,98.6c.6.1.7-.1,1.2-.5l.5-.3c.7-.5.3-.2.4-.6Z" transform="translate(0 -11)"/>
    <path class="cls-4" d="M145,12.8a11.2,11.2,0,0,0-.2-1.6h-.9c-.6.1-.2,0-.4.3l1-.2A10,10,0,0,0,145,12.8Z" transform="translate(0 -11)"/>
    <path class="cls-3" d="M105.9,91.5c-.1-.4,0-.2-.2-.5l-.5-.3a1.7,1.7,0,0,0-1.2-.5Z" transform="translate(0 -11)"/>
    <path class="cls-3" d="M134,117.2a6.1,6.1,0,0,0,2.1-.9c-1,0-.9.6-1.9.5Z" transform="translate(0 -11)"/>
    <path class="cls-2" d="M44.9,115.6c-.1-.5,0-.3-.3-.7s-.3-.4-.7-.5A3.4,3.4,0,0,0,44.9,115.6Z" transform="translate(0 -11)"/>
    <path class="cls-2" d="M93,83.5c0-.5,0-.3-.4-.6s-.3-.3-.9-.2Z" transform="translate(0 -11)"/>
    <path class="cls-2" d="M89.2,81.3c0-.5-1.1-1-1.5-1Z" transform="translate(0 -11)"/>
    <path class="cls-2" d="M85,108.6c.6.2.2.2.7-.1s.5-.1.5-.6Z" transform="translate(0 -11)"/>
    <path class="cls-2" d="M92.7,104l.9-.4c.7-.4.6-.1.6-.7Z" transform="translate(0 -11)"/>
    <path class="cls-3" d="M98.5,100.4c.5.2,1.2-.4,1.4-.8Z" transform="translate(0 -11)"/>
    <path class="cls-2" d="M88.5,106.5c.5,0,.3.1.8-.2s.4-.1.7-.6Z" transform="translate(0 -11)"/>
    <path class="cls-3" d="M86.9,79.8a1.4,1.4,0,0,0-1.4-.8Z" transform="translate(0 -11)"/>
    <path class="cls-3" d="M86.3,107.8a1.5,1.5,0,0,0,1.4-.8Z" transform="translate(0 -11)"/>
    <path class="cls-2" d="M100.6,88.2a1.2,1.2,0,0,0-1.3-.8Z" transform="translate(0 -11)"/>
    <path class="cls-2" d="M97.7,86.4a1.3,1.3,0,0,0-1.3-.8Z" transform="translate(0 -11)"/>
    <path class="cls-3" d="M90.5,82c-.2-.4.1-.1-.5-.5s-.3-.2-.8-.2Z" transform="translate(0 -11)"/>
    <path class="cls-3" d="M144.2,124.3a1.7,1.7,0,0,0,1.1-1.1Z" transform="translate(0 -11)"/>
    <path class="cls-2" d="M91.7,82.7c-.1-.4.3-.1-.3-.5l-.7-.3Z" transform="translate(0 -11)"/>
    <path class="cls-3" d="M112.4,33.7l.9-.3-.4-.3-.4.6Z" transform="translate(0 -11)"/>
    <path class="cls-2" d="M94.9,84.6a.9.9,0,0,0-1.1-.6Z" transform="translate(0 -11)"/>
    <path class="cls-2" d="M93.8,84c-.1-.3.2-.2-.3-.4s-.1-.1-.6-.1Z" transform="translate(0 -11)"/>
    <path class="cls-3" d="M94.2,102.9c.6.1.7-.1.9-.5Z" transform="translate(0 -11)"/>
    <path class="cls-2" d="M96.7,101.6c.5-.1.8-.2,1-.7Z" transform="translate(0 -11)"/>
    <path class="cls-2" d="M97.7,100.9c.5,0,.7,0,.7-.5Z" transform="translate(0 -11)"/>
    <path class="cls-2" d="M100.7,99.1c.5,0,.7,0,.7-.5Z" transform="translate(0 -11)"/>
    <path class="cls-2" d="M99.3,87.4c-.2-.6-.3-.5-.8-.5Z" transform="translate(0 -11)"/>
    <path class="cls-3" d="M90.8,105.2c.6-.2.8-.2,1.1-.7Z" transform="translate(0 -11)"/>
    <path class="cls-2" d="M96.4,85.6c-.2-.6-.3-.5-.8-.5Z" transform="translate(0 -11)"/>
    <path class="cls-2" d="M98.5,86.9c-.1-.5-.3-.5-.8-.5Z" transform="translate(0 -11)"/>
    <path class="cls-2" d="M99.8,99.5c.5.1.6.1.8-.4Z" transform="translate(0 -11)"/>
    <path class="cls-2" d="M136,116.3l.6-.5C136,115.7,136.1,115.9,136,116.3Z" transform="translate(0 -11)"/>
    <path class="cls-2" d="M109.5,93.6c-.2-.5-.4-.5-.9-.6Z" transform="translate(0 -11)"/>
    <path class="cls-2" d="M95.6,102.2c.6-.1.6,0,.9-.6Z" transform="translate(0 -11)"/>
    <polygon class="cls-4" points="58.5 23.6 58.5 23 58.1 23.3 58.5 23.6"/>
    <path class="cls-2" d="M45.7,116.3c-.2-.5-.1-.5-.7-.6Z" transform="translate(0 -11)"/>
    <polygon class="cls-2" points="106.5 80.8 106.4 80.4 105.9 80.5 106.5 80.8"/>
    <polygon class="cls-4" points="141.9 16.9 142.3 16.6 141.9 16.3 141.9 16.9"/>
    <polygon class="cls-3" points="84 28.3 84.4 28 84 27.8 84 28.3"/>
    <path class="cls-2" d="M107.7,92.5c0-.4-.2-.4-.6-.5Z" transform="translate(0 -11)"/>
    <polygon class="cls-2" points="85.5 68 85.4 67.6 85 67.7 85.5 68"/>
    <path class="cls-2" d="M90.1,105.7c.5,0,.4-.1.6-.4Z" transform="translate(0 -11)"/>
    <path class="cls-2" d="M95.6,85.1c-.1-.5,0-.4-.5-.4Z" transform="translate(0 -11)"/>
    <polygon class="cls-2" points="88 95.9 88.4 95.9 88.5 95.5 88 95.9"/>
    <polygon class="cls-2" points="104 79.3 103.9 78.9 103.6 79 104 79.3"/>
    <path class="cls-2" d="M87.7,80.2c-.1-.4-.1-.3-.5-.4Z" transform="translate(0 -11)"/>
  </g>
</svg>
