<svg id="Слой_1" data-name="Слой 1" xmlns="http://www.w3.org/2000/svg" viewBox="0 0 180 180">
  <defs>
    <style>
      .cls-1 {
        font-size: 27.88px;
        font-family: Arial-BoldMT, Arial;
        font-weight: 700;
      }

      .cls-2 {
        letter-spacing: -0.01em;
      }

      .cls-3 {
        fill: none;
      }
    </style>
  </defs>
  <title>vk1</title>
  <text class="cls-1" transform="translate(2.8 158.9)">Г<tspan class="cls-2" x="15.8" y="0">Р</tspan><tspan x="34" y="0">УППА VK1</tspan></text>
  <text></text>
  <rect class="cls-3" width="180" height="180"/>
  <path d="M39.3,107.4V56.8c0-5.9-.8-19.1,1.4-24A18.6,18.6,0,0,1,55.7,21.9c7.5-.8,18.5-.1,26.3-.1h26.4c6.2,0,19.9-.8,25.1,1.3a18,18,0,0,1,11.4,14.4c.8,7.2.1,17.7.1,25.2V88c0,5.9.8,19.1-1.4,24a18.6,18.6,0,0,1-15.1,10.9c-7.5.8-18.5.1-26.3.1H75.8c-6.2,0-19.9.8-25.1-1.3S39.9,113.5,39.3,107.4ZM62,15l-7.1.2A25.2,25.2,0,0,0,36.3,26.1,24.6,24.6,0,0,0,32.2,39v64.7c0,2.2.1,3.7.1,4.3a24.4,24.4,0,0,0,11.4,17.7,27.4,27.4,0,0,0,13.6,4h72a25.7,25.7,0,0,0,18.6-11,24.6,24.6,0,0,0,4.2-12.9V40.9c0-2.2-.1-3.7-.1-4.3A24.4,24.4,0,0,0,140.5,19a27.4,27.4,0,0,0-13.6-4Z"/>
  <path d="M81.6,51c-1,2.7.8.3,1.9,6.5.7,3.6.8,13.9-1.2,16.9s-4.3,1.7-6.1.1S67.7,61.7,65.6,57c-.8-1.8-1.8-5.1-3.4-6.2s-11.7-.3-12.8.1,1,5.4,1.9,7.3A155.9,155.9,0,0,0,72,90.8c3.9,5,7.4,6.8,13.4,7.6,2.5.3,7.4.9,9.8.4A2.8,2.8,0,0,0,97.5,96a14,14,0,0,1,.6-4.7c.9-2.8,3.3-4.7,6.2-4s7,7.3,10.9,10.3a9.1,9.1,0,0,0,4.7,1.7h4.3L129,99c7.8,0,6.2-1.3,1.9-7.1-2.8-3.8-7.8-7.2-10.1-10.9s3.5-10.9,6-14.1,8.1-11,7.5-13.5-1.9-1.4-3.2-1.5a86.8,86.8,0,0,0-9.7,0c-5.6,0-3.5-.3-7.7,8.4-2,4.2-10,20.3-14.9,14.1-2-2.6-1.4-10.1-1.4-14.8a46.6,46.6,0,0,0,.2-5.4c-.5-4.6-3.3-3.4-6.5-3.9S83.6,50.2,81.6,51Z"/>
</svg>
