<svg id="Слой_1" data-name="Слой 1" xmlns="http://www.w3.org/2000/svg" viewBox="0 0 180 180">
  <defs>
    <style>
      .cls-1 {
        font-size: 27.88px;
        font-family: Arial-BoldMT, Arial;
        font-weight: 700;
      }

      .cls-2 {
        letter-spacing: -0.09em;
      }

      .cls-3 {
        fill: none;
      }

      .cls-4 {
        stroke: #000;
        stroke-width: 0.24px;
      }

      .cls-4, .cls-6 {
        stroke-miterlimit: 22.93;
      }

      .cls-4, .cls-5, .cls-6 {
        fill-rule: evenodd;
      }

      .cls-6 {
        fill: #1b1b1b;
        stroke: #1b1b1b;
        stroke-width: 0.57px;
      }
    </style>
  </defs>
  <title>vov</title>
  <text class="cls-1" transform="translate(10.6 160.5)">ВЕТЕ<tspan class="cls-2" x="74.4" y="0">Р</tspan><tspan x="90.5" y="0">АНЫ</tspan></text>
  <text></text>
  <rect class="cls-3" width="180" height="180"/>
  <rect class="cls-3" width="180" height="180"/>
  <g>
    <path class="cls-4" d="M72.7,113h.9c.3,1.1-.5.9,1.1.9a3.4,3.4,0,0,1,.5-2.2c.2-.5-.2-.4.6-.4v5.3c0,.9.3.3.4,1.5s.3.5.4,1.4.3.8.7,1.2L78,122c.5,1.1.4.1,1-.1s0,.2.2.6l.6,1.1c.2.3.2-.2.3.6H78.9c.6.3.1.1.4.6a15.7,15.7,0,0,0,1.4,2.1c1,1.4.2.6.8,1.3s1,1,.6,1.5-2.9-2.7-3.4-3.3l-.8-.7c-.3-.3-.3-.5-.6-.8s-.4-1.1-1.5-2.8,0-.2-.4-1,0-.6-.3-1.1-.1.1-.3-.4a4.8,4.8,0,0,1,0-.7c-.1-.5-.6-.4-.5-3.8-.7-.4-.6-.5-.9-1.1a7.2,7.2,0,0,1-.8-1.2ZM71,109.1c0,1.8,0,.8.3,1.8s.3.4.9,1.1-.1.6.7.6-1-2-1.2-2.9.1-.6-.7-.6Zm11.4-2.4c.6,0,.8-.1,1.2.2l.9.6a3.4,3.4,0,0,1,1.3,1.7l-.8.3a16.2,16.2,0,0,1-2.6-2.9ZM53.4,95.4h.5v1.2c.8.4.1-.2.6.9s0-.1.2.4-.1.6.5,2,0,.2.1.4.1,0,.4.6a3.3,3.3,0,0,1,.1.7c.2.8,0-.1.4.7s-.1.1.3.6l.5.5a3.5,3.5,0,0,1,.9,2.9c-.2,1-.5.1-.4,1.7s-.3,0-.6.8l-1.3,1.7c-.4.4-.4.5-.2,1.2s-.2-.1.4-.3.5-.1,1-.3a28.2,28.2,0,0,1,2.5-1.4c0,1.4-.4.7-.5,2.3s-.1.4-.4,1-3.1,1.9-3.8,2.2.3.2-.5.2c-.2-3,0-.9.5-2.3a5.7,5.7,0,0,0,.4-3.5c0-.4,0-.9,0-1.3s-.3-.1-.4-1.1a8.2,8.2,0,0,0-.1-1.2c-.3-1.1-.3.2-.4-1s-.5-1.8-.4-2.3.6.7.5-2.2a8.1,8.1,0,0,0-.3-2.4,8.3,8.3,0,0,1-.1-2.6Zm32-10.6c.5.2,0,.2.3.7s.1-.2.5.6.6.7,1.2,1a4.3,4.3,0,0,1-.5,1.5c-.6,1.1-1.1.1-1.1,0s.1.2-.7.6-.8.3-1.6-.1-.2.1-.6-.3-.1-1.1.5-.8,2.6.7,3-.4c-1.5-.9-2.3-.1-2.6-1a1.5,1.5,0,0,1,1.6-1.8Zm12.7.5c2.7,0,.5.5,3.1.5-.7.4-3,1-3.1-.5Zm-1.3.8c0,2.8.3,1.8-1.2,3.3s-1.9.3-2.3,0-2.2-1-1.7-4l1.6-.8V83.5h.4c0,.9.5.5,1.4,1.1s.6-.1,1.1.8l.2.5c-1.9-.2-.6.7-1.3,1.8s-2.2.7-1.3,1.6,2.4-.2,2.7-1.8-.4-1.1.2-1.3Zm-9.7-.7c.7-.1,0,0,.4-.2s.5-.7.8-1,1.4-.1,2.1-.3-1.7-.2-2.5-.5,0-.3-.9-.3-1.1-.1-1.2.4.2.5.5.9.1.3.5.7.1.1.3.3ZM77,81a10.2,10.2,0,0,0-.1,1.3c0,1,0,.2-.2.9s.3,1.2.3,2.1a3,3,0,0,0,.1,1.3c.3.6.3.1.3,1s-.4.8-.4,2.3-.9.5-.8,4.6c0,1.4.5.9.5,2.2s.2,1.4,1.3.8l2.1-.7,2.1-.6c.9-.5.8-.1,1.8-.9l5.4-2.7c.9-.4.7-.8,1.3-1.4s1.3-.8,1.5-1.1-1.1-.4-1.5-1.1-1.2-.3-2.3-.4.1.4-.9.9l-.3.2c-.5.3-.5.1-1,.2-2.2.6-.5,1.1-2.5.3s-.3-.1-.6-.6-1.6-.6-3-2.7c-.3-.5-.9-.7-.9-1.5s0-1.2.9-1.3c.4-2.4.9-.7,2.2-1.4s.1-.2-.5-.3h-.8c-.3-.1-1.3-1.3-1.5-1.3s-1-.4-2.4-.4Zm12,.4c.2-.4.1-.3.3-.7s.1,0,.2-.7l.8-3.2a3.2,3.2,0,0,1,.6-1.4l4.6-.2c.3,2.7.1.9.4,1.9s.1.8.2,1,.2,0,.4.9,1,1.6.7,2,.3-.2-.2.2l-1.7,1c-1.3.8-.7.6-3.1.6a4.3,4.3,0,0,1-2-.7H90c-.6-.5-.5-.3-1.1-.6Zm-8.9-2.9c-.7,0-.7-.2-1-.4l-.6-.2c-.6-.2.3-.2-.5-.3s.2.5-.9.5a2.6,2.6,0,0,1,.1-.9.9.9,0,0,1,.5-.5c1.6,0,1.6-.1,2.9.6l-.4,1.2ZM101.2,80a5,5,0,0,1-1.1,3.1H97.6c0-.5-.1-.1.2-.5l.4-.5c.1-.2.1.3.1-.4s0-.3-.3-1.7-.6-.6-.5-1.4a9.4,9.4,0,0,1,1-1c.9-1,.9,0,1.8,1.2l.8,1.2Zm13.5-2.8c-1.1.6-1.4.2-2.1,0s-.2.1-.3-.4,1.8.2,1.8.2l.7.2ZM88.1,74.6A1.5,1.5,0,0,0,89,76c.4-.3.9-1.1.4-1.6s-.8-.2-1.3-.2v.4Zm-34.8,15c.4-.2.1-.4.7-1s.4-.3.4-1.1a2.1,2.1,0,0,0-.3-1.4c-.4-.6-.2-.6-.2-1.3L53.4,83c-.4-.8-.1-.4-.3-1.2s-.1-.2-.2-.5-.1-5-.2-6.1.1-.7.3-1.2a7,7,0,0,1,1-2.1c.7-.9.2-.3.5-1s.4-.1.4-1.1c-1.6,0-.6.1-1.3.4h-.2c-.6.2-.2.2-.7.6s-.8.5-.9,1.6-.5-.2-.5,4.6c-1.6.1-.1-1.4-1.5-1.8s-.2,1.2-.5,1.9-.1,1-.1,2.1a40.3,40.3,0,0,1-.6,4.5c-.1,1.2,0,6,0,7.8s-.5,1-.8,1.6.4.4.5,1.3a4.5,4.5,0,0,1-.5,3.1c-.3.9-.5.1-.5,1.2s1.2.6,1.4,1.6a16.8,16.8,0,0,1,.5,2.4c.1,1.4.8,3,2.2,3a4.3,4.3,0,0,0-.3-1.8,4.9,4.9,0,0,1-.4-1.3c-.5-1.4-.8-.4-1-3.1-.1-1-.3-.1-.5-1.7s-.2-.5-.4-1.6,0-1.8,0-2.1.4-.1.4-1.6c-.1-3.6.5-2.3.5-3.7a12.9,12.9,0,0,1,0-2.1c.2-.9.3-.4.3-1.7s-.2-7,.3-7.8a11.6,11.6,0,0,0,.2,1.9,4.1,4.1,0,0,1,.4,1.5c.1.6.1.4.3.8a5.6,5.6,0,0,1,.1.8c.2,1,.4.4.4,1.5a3.4,3.4,0,0,0,.4,1.6c.2.3,0,0,.2.2s0,.2.4.9-.2,3,.5,3.4ZM89.2,71.3c-.1.5,0,.6-.4.9s.5.6.5,1.1-.5,0-1.3-.6l-1.2.5-.4-1.5a1.6,1.6,0,0,0,.7-1.5c1.6,0-.6.8,2.2,1.1ZM74,99.4c-2.9,0-2.1-.3-3.7,1.1a.8.8,0,0,1-.6.3h-2a4.6,4.6,0,0,0-.2-2.3c-.3-.6,0-1.5.2-2.1s.2-3.5.4-4.7a8.3,8.3,0,0,0,.4-2c0-1.3-.7-2.8-.5-4.7s.5-.9.5-2.1.3-.8.4-2a4,4,0,0,1,.1-1.2c.2-.6.2-.2.3-1a10.2,10.2,0,0,1,.4-2.1c.1-.4,0-.8.1-1.2s.3-.5.4-.9,0-.7.1-1.1.3-.1.4-.9.3-1.4.4-2.2.9-2.9,1.8-3.4.2.9,2.3.1,1.5-.9,2.4-.9a4.1,4.1,0,0,1-.4,1.8c-.2.6,0,1.5-.3,2.1s-.1,1.3-.3,1.9-.3-.3-.4,1.9a6.8,6.8,0,0,1-.1,2.1c-.2.5-.3-.1-.3.9l-.2,4.4c-.2.5-.3.1-.3.9a34.3,34.3,0,0,1-.3,4.3,32.8,32.8,0,0,0-.1,3.4c0,.8-.1.4-.3.9s-.1,1.7-.2,2.1a3.4,3.4,0,0,1-.1,1.1c-.2.5-.2.2-.3.9s-.1,3.1-.1,4.6ZM85.8,70.5c-.8.6-.7.3-1.5.5a.7.7,0,0,0-.1,1.2c.7.4.7.2,1,1,.8,2.3.9,1.6,1.7,1.5l.5,1.4c.2.5-.1.1.1.6l.8,2.1c.1.8-.4.9-.2,1.6l-1.8,1.1c-.6.4-.2.3-1.2.9v1.2a3.4,3.4,0,0,0-1.9.5c.1-.6.1-.2.8-1h.1c.3-.4-.1-.1.4-.4s-.3-.7-1.8-1.2l-2.1-.8c0-.8.2-.8.4-1.4l.6-3.1c.1-.6-.1-.3.3-.9s.1-.4.3-.4,1,.1,1.4-.3a.6.6,0,0,0-.1-1l-3.1.2V75c-.7.2-.9-.7-2.2-.4s.2.5-.9.5a6.7,6.7,0,0,1,.3-2.3,17.6,17.6,0,0,0,.1-2.5c.1-.9.1-.2.4-.9s0-.7.2-1.1.2-.1.4-.9.7-1.2.8-1.8-.2-.8.6-1.4,1.8-.7,2.8-1.3.5-.1.8-.4,0-.3,1-.3,0,.6.3,1.3-.1.4-.2,1.1.1.6-.8,2.3-.8,1.1.2,1.9a4.2,4.2,0,0,1,1.2,1,2.7,2.7,0,0,1,.2.6Zm3-9.1c.1.7.4-.1.5,1.2l.7.2.7.6.2.2c1.1,1.2.6.4.9,1.1a4.2,4.2,0,0,0,.9,1.4s.1.2.6.2.4-1.5-.1-2.3-.3-.1-.3-1a4.1,4.1,0,0,1,.1-1.2c.6-.2,1.3,1.6,1.6,2.2l.2.4a7.5,7.5,0,0,0,.9,1.5,22.7,22.7,0,0,1,2.2,3.3v.2c.2.4,0,.3.3.9s.1.4.3.9.1-.2.4.8a6.5,6.5,0,0,1,0,2.1c-1.7,0-1.3.1-2-.5s-.5-.4-.6-.6,0-.8.5-1.7l.2-.3c.1-.1.2.2.2-.4s-.4.2-.5-.7a1.6,1.6,0,0,0-.6.6c-.3.5-.1.4-.5.8l-.6.7c-.8.9-1.1.7-1.5.9l-1.1.6a2.8,2.8,0,0,1-1.6.4,7.6,7.6,0,0,1,.1-1.8c.1-.3,1.4-1.8-.7-2-.6-.1-1.2.1-1.4-.4a1.9,1.9,0,0,0,1.6-1.4c.1-.9-.1-.6.2-1.3a2.7,2.7,0,0,0,.2-1.4c-.5,0-.7-.2-1.4.9a3.9,3.9,0,0,0-.7,1.7h-1c-1.8-.1-.6.5-1.6-.4s-.1-.3.1-2.4h1.2c1.2-.2.2-.1.9-.4s.5.5,1.3.3-1.9-1.3-2.3-1.5L87,62.3c-.1-.4.1-.4-.1-.8s-.3.3-.4-.6.2,0,.4-.2H87a10.5,10.5,0,0,1,2.1-1.4c0,2.3-.4.6-.4,2.1Zm-25.5-21h-.4c0-.9-.2-2.1.8-2.1,0,1.5-.5.5-.5,2.1Zm24.1-8.1a1,1,0,0,1-1-.8h1.1v.9Zm-1.1-.7h-.6c.3-.2.4-.3.6.1ZM88,29.3c.6,0,1.5.3,1.6.8s-1.3-.4-1.6-.8Zm2.7-5.4v0Zm0,0-2-1.1-2.1-1a8.6,8.6,0,0,0-2.5-.6H81.1c-1.8,0-1.7.5-2.6.5s-6.1,2.1-7.7,3.2a5.3,5.3,0,0,1-.9.7c-1,.5-4,3.4-5,4a16.6,16.6,0,0,0-2.9,3A7.2,7.2,0,0,1,60.5,34c-1,.9-.3,1.6-1,1.8s-.5-4.8-.5-5.9V23.5c.1-1,.8-1.1,1.5-1.7s.9-1.4,1.5-1.8.8-.2.8-.7-.4-.7-.8-.6-2.5,2.2-3.4,3.1a3,3,0,0,0-.8,2.4c.2,2.7-.1,7,.4,9.3s-.2,2.8,1.5,5c.4.6.8.2,1.3.4s.6.7.7.9-.1,2.6,1.3,3.6.7.9,1.5,1,.8.6,2.2.3.1-.7,1-.8-.1.5.4,1.2a12.1,12.1,0,0,1,.7,1.5c.3.6.1-.1.3.5s-.1.3.5.8a20.2,20.2,0,0,0,2.7,2.4h.2c.4.3-.2.1.5.3l3.1,1.5.6.2c.4.3-.2.1.5.3a3.4,3.4,0,0,1,1.3.9c.4.4.6.1,1,.6l.9.8c.3.2.3.2.4.4s-1.4.7-1.8.9l-3.7,1.8-.8.5c-1,.5-.2.2-.9.6l-.9-.8c-.9.6-.8.4-1.4-.2A14.5,14.5,0,0,1,70,57.1c-.4-.5-.1-.3-.3-.8-1.5-3.5-.5-3.1-1-4.7a6.2,6.2,0,0,1-.4-1.8c0-.7-.1-1.5-.1-2.1s.3-1.2-.6-1.7-.6.4-.6,1.3a25.9,25.9,0,0,0,.2,3.6c.1.6.4,1.1.5,1.5s-.3,3,.1,4,0-.1.2.3-.1.2.3.7.8.9.8,1.1a.9.9,0,0,1-1.3-.2c-.4.5,0,.1-.5.3s.1-.1-.5.4h-.2c-.7.3-.4.2-1.1.8l-.4.4c-.5.4-.8.1-1.4.1s-.1.4-1.2.5a5.1,5.1,0,0,0-2.6.7l-.9.5h-.1l-1.1.7c-.4.3-.2.1-.6.2h-.5c-.6.6-.9.4-1.5,1H55c-.2.3,0-.1-.2.3s.2.2.5.5.4,0,.8.2a6.8,6.8,0,0,1-1.8,1.4c-.6.4-.4,0-1,.6s-2.3,1.2-2.5,2.4a2.8,2.8,0,0,1-.9,2.2,11.9,11.9,0,0,0-2.5,4,17.7,17.7,0,0,1-1.2,2.1c-.2.4-.5.7-.6,1.1s.4.3,1,.7-2.7,1.1-4.4,6.1a11.4,11.4,0,0,0-.7,1.9c-.1.4,0,.7-.2,1.1s-.3.1-.3,1.1-1,2.7-.1,3.8,0,.1.3.4S43,95,44,94s.8-.9,1.5-1.8.1-.6.4-1.2l.4-.8v-.3c.1-.3,0,0,.1-.5s0,.1.3-.5-.2-1.1.7-1.1v5.8c-2.2,0-.9-.2-2.3.7l-1.1.5c-.5.2-.7.5-1,.7l-.6.2c-.4.2-.1.1-.5.4s-3.9.2-5.4,0,0-.3-.9-.4-.2.1-1,.3-.4.1-.8.5l-.7.7a6.2,6.2,0,0,0,.2,2.5,6.1,6.1,0,0,1,.7,2.2c.2,2-.6,2.8-1,4.5l-2,.5c-.5,1.2.9,1.6,1.5,2.1a3.6,3.6,0,0,1,0,1.4c-.1,1.3-1.1,2.1-1.7,3.3a14.9,14.9,0,0,1-1.6,1.9c-.3.4,0,.2-.2.4A3.5,3.5,0,0,1,28,117a35.5,35.5,0,0,0-3.5,3.4c-2.3,3.5-.9,3.5-1.8,4.7s.4,0,.4,1-.1,4.1,0,4.5.1,0,.3.3-.1-.1.2.3a9.7,9.7,0,0,1,1.8.5h1c1,.1.1,0,.7.5h.5c.6-1.3-.4-2.1-.7-3.2s.1-2.5.4-3.6.2-.2.3-.6-.1-.1.3-.8.2-.6.6-1.3.2-.1.4-.7.1-.2.4-.7.7-2,1.3-2.9l.8-1.3c.4-.9.4-.6.9-1.3a5.4,5.4,0,0,1,.9-1.3c.4-.5,0-.2.3-.6l.5-.6c.4-.5.3-.7.7-1.2l1.2-2c.3-.6-.2-.5.3-.7s-.2,1.8-.2,1.9a3.3,3.3,0,0,1-.6,2.1c-.3.4-.6,1.3-.8,1.8s-.5,2.7-1.1,4.2l-2.1,4.7c-.2.6.1.7-.2,1.2a4.3,4.3,0,0,0,.4,4.2c.3.6.1.4.4.9a4.9,4.9,0,0,0,2.3,1.5c1.3.6,1.2.1,2.2.4a6.1,6.1,0,0,0,4.2-.9c1.1-.8,0-1.2,0-1.7s.6-.2.9.1.3.1,1,.3.1.3.9.4.5.1,1,.3l1.1.2c.9.3-.2.3.9.4a3.3,3.3,0,0,1,2.1.5c.4-.7,0-.2.6-.6s-1.4-.9-2.1-1.6-1-1.2-1.9-1.9L41.5,124a22.8,22.8,0,0,1-1.3-2.1l-.3-.6a1.5,1.5,0,0,1-.1-.8c0-.5-.1-1.4,0-1.9s.1-.1.3-.7.2-1.1,1-1.9l1.4-1.2c.4-.3.3,0,.3-.8a1.8,1.8,0,0,0-1.3.4,10.7,10.7,0,0,0-2,1.4,7,7,0,0,0-2.2,3.1l-.4.9c-.1.4,0,.7-.3,1s-.1-.2-.2.4a4,4,0,0,0-.1.7,13.4,13.4,0,0,0-.8,3,4.1,4.1,0,0,0,.3,2.1c-.8-.1-.8-.1-1.1-.8s-.7-.7-.2-2.9l.7-1.5.6-1.5c.1-.6-.2-.2.2-.8s.2-.1.3-.8.4-.6.5-1.7.3-.8.4-1.7.2-1.2.3-1.8,2.6-2.1,3.5-2.9.2-.6.8-1.3.2-.6.7-1.4a12.9,12.9,0,0,0,.6-1.5l1-2.2.5-.6c.3-.4.4-1.1.9-1.3s0,.6.2,1.2.4.5.6.8,1.4.7,1.5,1.3-2.2-.4-3,.1.2.8.6,1.1a2.2,2.2,0,0,0,1.2.5l2.4,1a8,8,0,0,1,2.2,1.1l.4.4.4.5a2.9,2.9,0,0,1,.4,1.4,3.4,3.4,0,0,1-1.6-.5l-.6-.5-.3-.3-.7-.9c-.3-.4-.3-.1-.7-.4l-.7-.4c-.7-.3-.1-.5-.8-.4a1.2,1.2,0,0,0-.6.9c0,.4-.2-.3.1.1l.5.9a6.3,6.3,0,0,0,1.4,1.2l1.2,1.1c.1.2.1,0,.1.4a5.4,5.4,0,0,1-2.2-.1h-.1l-.5-.4a2.1,2.1,0,0,0-1-.2c-1-.1-.4-.1-.8-.3a11.9,11.9,0,0,0-3-.6c-.5.2,0-.1-.3.4s-.2-.2-.2.5.9.7,1.4.9-.2,0,.5.3l1.3.2c.5.2.5.5.8.8h7.6l-.2,3.5a19.9,19.9,0,0,0,2.6,2.4h.2l.2.2c2.2,2,2.1,1.4,4.4,2.6l1.9.7.8.3.9.4c2.8,1.1,1.5,2.1.4,2.1H60.9c-1.3-.1,0-.2-1-.3s-.4.2-1.1-.2-.6-.1-1-.3a6.1,6.1,0,0,0-1.7-.8,8.5,8.5,0,0,1-1.5-1l-3.1-1.9c-.6.9.8,1.8,1.3,2.4s1.3,1,1.9,1.7a4.8,4.8,0,0,0,1.7.9c.7.2.2.1.7.4s.5,0,.9.2-.4.2.8.3a9.1,9.1,0,0,1,1.9.2,2.3,2.3,0,0,0,.8.3,4.2,4.2,0,0,1,.1,1.1.7.7,0,0,1-.3.4c-.4.3.2.2-.5.2s-.9-.5-2.3-.5-.3-.2-1.1-.5l-3.3-1.2c-1.4-.7-.6,0-1.3-.5l-1.2-.7-.3-.2-1.4-.7H50c-.5-.2-.7-.6-1.2-.2s.8,1.2,1.5,1.8a5.1,5.1,0,0,0,1.4,1.1l.6.2c.7.2.2.2.8.4h.4l1.2.5c.7.2.6,0,1.3.4s.9.1,1.5.3v.7c-.9,0-2.3.4-3.3,0l-.9-.2-2.6-1c-.4-.2-.2-.3-.9-.3s.9,1.1,1.8,1.8a5.9,5.9,0,0,0,2.3,1.1h7.2c1.4,0,3.2-2,3.9-3.2s.9-1.1,2.1-1.5,1-.5,2.1-1.6a11.6,11.6,0,0,1,2.3-1.2c1-.5,1.7-1.1,2.3.1s1.7.3,2.8.6,1.4,1.5,1.6,1.9c1.8,3.1,4.6,5.7,8.4,5.8h3.5c1.4,0,1.9-.5,3.1-.5l3.3-.3c.5-.2.6-.6.9-.8s2.7-.4,4.5-4.2a14,14,0,0,0,.6-6.6c-.5-3.2-2.8-6.8-4.6-9.4s-6.2-6.6-8-6.2c-.1.5.6,2.1.7,2.8s-.1.5.4,1.1.8.7.9,1l-.8.4c.7.9,0,.6.8,1.3s.7.7,1,1.1.6.4.9,1,1.1,1.4,1.7,2.5,0,.3.4.7l.5.6c.4.7.3,2.3.9,3.2s-.2-.1-.4.8a6.3,6.3,0,0,1-.3.9,3.2,3.2,0,0,1-1,1.4c-1,1-1.9.7-2.8,2,.6.5.7-.1.8.6H91.8c-1.6,0-.4.3-1.4.4a2,2,0,0,0,.6,1.7l.3.3.4.3.8.5c.8.3,1.2.7,1.8,1s.1.2.7.3.9-.1,1,.5a5.3,5.3,0,0,1-1.8-.1c-.4-.2.1-.2-.8-.3l-1-.2a11.4,11.4,0,0,1-3.1-1.4,13.1,13.1,0,0,1-1.3-.9c-.6-.6-.9-.4-1.4-.9s-.6-.7-1.1-1.1-.4-.1-.6-.4.2-.2-.5-.7l-1.1-1c-.6-.7-.5-.8-.9-1.4a18.5,18.5,0,0,1-2-3.5c-.2-.9-.6-1.5-.9-2.6s-.2-.2-.4-.7,0-.7-.1-1.1-.2.1-.3-.7,0-.7-.3-.8-.5.7-.5,1.3v3.6c0,.7.3,1-.5,1.1s-.1-1.3-.2-1.4-.3,0-.3-1.2v-4.6c0-.8.2-.7.3-1.2s0-.3.1-.6.1-.2.3-.6-.1-.4.7-1,.5-.1,1-.6,0-.4.6-1,1.1-.1,1.4.4.1.1.4.4a30.4,30.4,0,0,0,1.9,2.7c.3.3.5.3.8.8s-.3-.1.7-.4a1.6,1.6,0,0,0,1.2-1.8c.6.4-.1.4.8.1s.3-.2.9-.5,1.3-.7,1.3-1.6c-1.7,0-.7.2-1.7.4s-.3,0-.8.3l-.9.2a3.7,3.7,0,0,1-.5-1.9c.2-.6,7.2-4.2,8.4-5s6.7-3.7,8.6-5.1l1.4-.8,1.3-.9L107,94a5.5,5.5,0,0,1,1.5-.9,57.9,57.9,0,0,0,5.5-3.3c1.8-1.2,3.9-2.2,5.8-3.3s5.8-3.3,8.5-5.1c.9-.6,2.2-1,2.8-1.8s-.1.1-.5-.6-1.9-.3-2.5-1.5-.1.1-.3-.6-.9-.9-1.6-1.7-.3.2-.9.3-.1.1-.8.4-1.2-.2-3.2,1.5-.3.2-.4.6-.1,0-.4.7.5,1,.9,1.7l-.7.9c-.3.2.3.2-.5.2l-.7-1.3c-1.4-.1-1.2-1.2-3.2.1l-2.1,1.4h-.2l-.8.4c-.5.3-1.5.6-1.7,1.5a7.8,7.8,0,0,0,0,1.2c.1,1.2,1.5,1.2.6,2s-.4.2-1,.2-.4-1.1-1.4-1.8-2.1,0-2.9.4h-.1c-.4.2-.4.1-.8.4a19.5,19.5,0,0,1-2.2,1.3,2.5,2.5,0,0,1-1.2.6c0,.5-.1,1.4,0,1.9s1.3,1.3.3,1.7H102l-.2-1c-1.4-.2-.1-.5-1-.6-2.4-.1-1.6.2-2.6.5s-1,.7-2.1,1.1l-1,.5a1.6,1.6,0,0,0-.9.7,2.9,2.9,0,0,0,0,1.4c.2.7.1.2.3.5s0,.2.2.6l.9.3a4.3,4.3,0,0,1-2.1.7,6.8,6.8,0,0,0-1.3-1.8c-.7-.7-1.6-.2-2.2.2s-3.2,1.4-3.9,2.3v1.4l-.6-.7c-1.5.6-3,1.5-4.5,2.2s-.4.6-.4,1.3-.9-.8-2.1-.1l-1.9,1.1c-1.1.5-2.7,1.6-3.8,2.2l-3.9,2c-1,.3-3,2.3-3.8,1.7s0-.1.7-.5l.6-.5-.4-.6h-.1c-1-.8-1.3-.3-2.1-.1s-1.1-.2-1.6-.3-.9.3-1.6.3-.3-.4-.5-1.4v-.3c-.2-.7-.1.2-.4-1.3s-.2-.2-.4-.9a12.7,12.7,0,0,1-.4-4.3c-.1-.2-.3-.3-.5-.6h-.1c-.2-.4-.7-.6-.8-1s-.2-.8.4-1.2-.4.3-.3-.7,1.3.2,1.7-.4-.2-.7,1.4-2.2.6-.6.6-.9V89.9c-.1-.6,0-.1-.2-.4h0l-.2-.2c-.5-.5-.4-.4-.4-1.2l-.5-.3c.2-.9.2-.8-.3-1.3s-.5-.7-.9-.9-3.2,1.5-1.2,2.7c1.3-.8.1-.9.7-1.3s0,0,.3.5h0c.2.4.3,0,.2.5s-.1.1-.3.5,0,.4-.4.5h-.8c-.2.1-.1,0-.2.2v.2c-.3.6,0,1.3-.4,1.4s-.2.1-.4-.5,0-.1-.4-.5l1-1c.4-1-.6-.8-.9-.8s.2-2.7-.2-3.8-.3-7.8-.3-10.1c0-.5-.1-1.6.4-1.8s0,1.2.2,1.8.3.3.3.7,0,.7.1,1,.5.1.4,1.7.1,1.2,1,1.2.1-.4.4-.8l.5-.7a6.4,6.4,0,0,1,.6-1.5c.3-.6.1-.3.3-.9s.2.1.4-.8,0-.5.3-.9.2-.4.2-1.1.2-.1.5-.9l.5-1,.4.9c.8,0,.8-.4,1.1-1s.2.1.3-.7-.1-.2.3-.9.1-.5.2-.8.1,0,.4-.7.2.1.8-1.4a1.8,1.8,0,0,1,.5-.6c.6-.6.1.1.4-.6s.2-.1.4-.7-.3-.1.4-.8a18.8,18.8,0,0,1,1.8-2.1c.3-.3-.3-.2.4-.2a2.4,2.4,0,0,1,.2,1.4c-.1,1.2.9,2.7.7,4.1a7.1,7.1,0,0,1-.1,1.6,3,3,0,0,0-.3,1.4,3.5,3.5,0,0,1-.3,1.5A11.8,11.8,0,0,0,69,72a4.5,4.5,0,0,1-.4,1.3c-.1.3-.1,1.2-.1,1.6a20.6,20.6,0,0,0-.5,3c0,1.1-.1.7-.3,1.5s-.1,1.1-.2,1.6-.3.6-.3,1.4-1.1,2.4-1.2,4,.9,4.2.7,6,.1,2.6-.1,3.4a11.7,11.7,0,0,0-.5,2.9c-.1,1.5,0,1.6-1.1,2.4s-2.8,3.3-2.4,4.5,1.5-2.8,3.3-3.5a17.4,17.4,0,0,1,5.6.3c1.3.8,1.3.4,2.6-.2l2.5-1.3,2.3-1.4,5-2.5c1.1-.5,1.3-1,2.4-1.4a31.5,31.5,0,0,0,4.9-2.6c1.3-1.6.3-.7,2.1-1.6l4.8-2.7c.5-.3.6-.5,1.1-.8s4.6-1.9,6.4-2.9,1.3-.9,2.3-1.4a9.9,9.9,0,0,0,2.2-1.6,18.3,18.3,0,0,1,2.4-1.2c.7-.4,1-1.2,2-1.7s.9.1,2.3-1.2a18,18,0,0,1,2.8-1l2.6-1c1.4-.6,3.1-1.8,4.9-2.6s1.7-1,2.4-.2.3,1.7,1.8,1.9,2.6-.2,3.6.2l1.5.3c.4.2.4.4,1.2.7s.3.4,1.4.5.2.3,1.5.4-.1-.1.6-.4a2.8,2.8,0,0,0,1.5-1.5c.5-.9.3-.3.3-1.5s.1-1.2.1-1.9,1.8,2.1,2.9,1.5a1,1,0,0,0-.3-1.3,28.8,28.8,0,0,0-3.6-2.4c-.5-.2-.2-.2-.6-.4a7,7,0,0,0-2.4-.7,3,3,0,0,0-1.7-.4c-.8-.1-.3,0-.7-.3s-1.8-.1-2.5-.5-8.8-.2-10-.1-.7.3-1.6.4h-1.9c-.4-.3-1.4-1.3-1.4-1.8h2.1c1.5,0,1-.3,1.9-.4a23.7,23.7,0,0,0,4.2-.1c.8-.2.5-.4,1.8-.3s4.8,1.6,5.4,1-.9-1.1-1.5-1.3l-2.5-.7a4.4,4.4,0,0,0-2.5-.3c-1.1,0-.6-.4-2.8-.4s-1.8-.2-2.7-.3a21,21,0,0,0-4.6.1,4.5,4.5,0,0,1-2,.2c-.9.1-.4.1-.6.3s.4.2-.6.3h-.8c0-1,.3-.3,1.1-.8h.1c.8-.6.7-.5.6-1.5a2.8,2.8,0,0,1-1.6.2c-1.2,0-2.6-.1-3.8,0s-1.2.3-1.4-.3a5.4,5.4,0,0,1,1.5-.2c1.3-.2.7-.3,1.3-.5a15.8,15.8,0,0,0,2.3,0,9.9,9.9,0,0,1,1.9-.5,2.2,2.2,0,0,1,1.3.3l2.2,1.3c.5.3,2.3.8,2-.5s-1.2-.5-1.8-.8l-1.6-1-1.8-.8A4.9,4.9,0,0,0,114,58c-1.6-.4-6.2.3-7.6-.2s-.4-.3-1-.1-.9-.1-1.3.8v.2s-.5.4-.2,1.3.3-.3.3.8-.2,2.6.1,3.5.3,0,.4.8-.2,1.7.1,2.3.1-.3.4.7a8.1,8.1,0,0,1,.1,1.1c.1,1.1.2-.2.3.8a9.6,9.6,0,0,0,.6,3c.4.7.2.7.6,1.2l.2.3h1.1c.1,1.1-.9,1.4-2,.1s-.3-.5-1.5-.5-2.2,1.6-.7,2.8.4.2.9.3,2.3.9,2.4,1.3a7,7,0,0,0,0,1c.1.9.2.4.4.8s-.2,1.4.4,1.9c-1.4.5-3.4,2.1-4.2,2.2.7-1.4-1.9-1.3-2.2-1.5s.3.3.5-1,.3-.7.4-1.2-.1-1.2,0-1.6,1-.8.1-2.5,0-.9-.1-1.5-.2-.2-.4-1.3a2.5,2.5,0,0,0-.7-1c-1.2.1-.4.2-.9.5s.2-2.3-.4-3.3-.1-1.3-.6-2.1-.1,0-.5-.5.1-.6.4-1.4a6.2,6.2,0,0,0,.1-1.7c0-1.1-.1-.7-.4-1.4s0-.6-.4-1.3a9.7,9.7,0,0,0-1.4-2.2l-.9-.9a3,3,0,0,0-.9-1c1.9,0,3.6,1.1,5.3.5s-.1-1-.9-1-3.5-1.2-5.4-1.6-1.3.1-3.2-1.4l-.6-.6-.7-.5c-.5-.4-.3-.7-1-.8h-.6c-.1,1.6,0,2.5-1.2,3.7h-.1a1.4,1.4,0,0,1-1.1.5c.2-.4,0-.2.1-.4s.1-.1.6-.6h.1a3.2,3.2,0,0,0,.6-1c.3-.7.1.1.3-.5a14.5,14.5,0,0,0,0-1.6c-1.1-.6-1.1-.7-.7-1.1s1.7-1.4,0-2l-1.4-.5c-.5-.2.2-.3-1.7-.2a62,62,0,0,1-7.5-.1c-.9-.2-.2-.3-1.7-.4s-.5-.4-1.4-.5a18.6,18.6,0,0,1-3.4-1.4,16.3,16.3,0,0,1-2.3-2.4c-.5-.9.1-.7-.5-1.4l-.4-.5c-.2-.3-.1-.5-.3-.7s-.3,1.1-.4,1.8-1-.2-1,.4l-.8-.3-.7-.4a3.3,3.3,0,0,1-1-1.1c1-.4.8.1,1.6.1s0-.5,1.7-.5c0-1.7-.4-.8-.6-1.5V37.6l-1-1c-.5-.2-1.1-.3-1.1-1h2.8c.2-.3.1-.3.2-.5v-.4a5.5,5.5,0,0,0,.2-2.6c-.2-1.1-.1-.4-.5-1.1s.4-.8.8-1.2l1.1-1.1A8,8,0,0,1,70.7,27c.6-.3,2.5-1.9,4.2-2s.4-.5,1.7-.5,2.2-.5,3.7-.5,4.2-.2,5.7.6a12.9,12.9,0,0,1,2.6,1.7c.6.5.5.7.5,1.7l-1.2-.4c-1.6-.7-1.2-.2-1.9.1h-.7c-.8.2-.2.3-1.4.3l-1.2.9a2.7,2.7,0,0,0,.4,1.5l.7,1.3c.2.5.3.9.7,1.2l.3.2c.6.4,1.7.2,2.3.5s-.3.2,1.2.2.4.3.4-1.3-.1.2.3-.3.2-.5,1.1-.5v2.9c1.6.2,1.7-.6,2.1-2.2a8.6,8.6,0,0,0,.4-3.7c-.1-1.4-.1-2.7-.3-4.2a25.7,25.7,0,0,1-.4-4.3c0-1.9.2-6.7-1.6-7.8a19.8,19.8,0,0,0-2.9-1.8L83.8,9.5c-2.1-.8-1.9-.4-3.9-.4H77.5a7.5,7.5,0,0,1-2,.3,26.6,26.6,0,0,0-7.7,1.7c-3.8,1.6-5.1,7.8-4.4,9.6a2.3,2.3,0,0,0,1.1,1.3c.7.5.4,1,1.4.7a8.8,8.8,0,0,0-.3-2.9c-.1-.5-.1-.9-.2-1.4s-.3-.8-.4-1.2.5-1.5.8-2.5,4.5-3.1,6.4-3.6,3.9-.3,5.8-.9,6.2.5,8.5,1.3a13.1,13.1,0,0,1,2.1,1.2c1.9,1.1,2,2.6,2,4.6S90.7,21.7,90.7,23.8Z"/>
    <path class="cls-5" d="M139.8,88.3c0,.4-.2.5-.6.7s-.2-.1-.9.5a1.8,1.8,0,0,1-.8.5l-1.8.9-1,.4H132c-.9-.2-1-1.9-.9-2.8s.8-1.9.3-3.2-2.8-.2-3.3.4H128c-.6.5-1,1.4-1.9,1.5s-.4-.1-1-.3.1-.6-2.1-.4c0,.5,0,.4.1.6s.9,1,1.7,1.9l.2.3c.6,1,1,.9,1.4,1.8l1.3,1.9c.6.7.1.5.4,1.2a4.7,4.7,0,0,1-3-1.4c-.5-.4-.5-.2-1.3-.9s-.7-.3-1.3-.9c-2.8-2.7-2.5-3.5-4.9-1.4a28.8,28.8,0,0,1-5.1,3.8c-.5.2-.3-.1-.7.3s-.2.3-.6.5l-1.7.6c-1.3.8-1.9.7-3.3,1.2a45.1,45.1,0,0,0-5.8,3.1c-.2.3,0,.2-.4.6s-1.5,2.3,0,3.5,3.4.4,3.9.2-.3-.1.7-.3l.9-.3.9-.2c.3-.1.3-.3.7-.4l2.8-1.3.2-.2,1.1-.8c.4-.3.4-.1.9-.5l.7-.5c.7-.3.3-.5,1.5-.6s0,1.4,0,2.1-.4.6-.5,1.8-.3.5-.5,1.7a9.8,9.8,0,0,1-2.3,4.1l-.6.5-2.3,1.1c-3.1,1.2-3.2,2.6-4.2,4.5s-.5.5-.9,1.2l-.6,1.4c-.2.8,0,2.9.4,3.4s1-.3,1.4-.6l1.5-.7c.5-.2-.1-.2.7-.4a9,9,0,0,1,3-.5,7.5,7.5,0,0,1,1-1.1c.6-.7.1-.1.4-.7l.5-.7c.3-.5.1-.3.3-.7a9.5,9.5,0,0,0,.9-1.5c.1-.4.6-.8.8-1.4l.4-.7.4-.8c.2-.6,0-.2.5-.7l.4-.7c.3-.7,0,0,.6-.6s.5-.9,1.2-.9a2.3,2.3,0,0,1-.3,1.3,8.9,8.9,0,0,0-.7,2.4c-.1,1.2-.2-.1-.4,1.2s-.2.3-.4,1.1,0,.9-.1,1.4-.5-.1-.3,1.2.3.7.6,1.1a10.5,10.5,0,0,0,1.6-1.7c.5-.5.2-.3.5-.8l1.3-1.2,1.1-.7h.1l.3-.3c.6-.6.3-.1.8-.5a18.9,18.9,0,0,1,2.4-1.2l1.6-.9c.4-.3.9-1.3,1.2-1.3s.1,1.5,2.4,1.5,2.1.2,2.8,1.1h1.9c.7-.1.2,0,.6-.3l.7-.3c0-2.1.2-1.9-1.6-2.9a5.7,5.7,0,0,0-2.7-.3c0-.6.1-.8.5-1.1s0,0-.4-.5-1.7-.7-1.6-1.2.9-.5,1.2-1.2a5.6,5.6,0,0,1,1.1-1.5c.8-.5,2.1-.9,2.6-1.3l.3-.3c.2-.3-.1,0,.3-.3-1.3-.3-.8-.6-2.9-.6,0-.5.3-.7.7-1.1l.5-.5c.5-.5.2-.1.6-.3l.5-.4c.3-.3.2-.2.6-.3s0-.1,1.4-.5l.7-.2c.5-.1.4.1.8-.1s-.1-.1.6-.3a20.7,20.7,0,0,0,2-.9l1.4-.5,1.2-.6,1.3-.6.6-.4,1.2-.7c.6-.5,1.9-.8,2.4-2.3s.4-2.9-.5-3.1h-1.8c.1-.4.3-.3.6-.5a5.7,5.7,0,0,0,2.5-2.5l1-2.4c.3-.5.5-3.5-.6-3.1l-1.5,1.3-.8.5-.9.5a4.5,4.5,0,0,1-1.6,1c-.9.3-.3.2-.9.4a14.1,14.1,0,0,1-2.9,1.3c-.8.1-1.2.6-1.8.9h-.3l-1.6.9c-1.9,1.3-3.2,2.3-.8,3.5S138.8,88.3,139.8,88.3Z"/>
    <path class="cls-5" d="M158.3,90.3a39.7,39.7,0,0,0-3,3.7c-.9,1.1-2.5,2.3-3.2,3.3s-2.1,5.2-2.9,6.6l-1,2.2c-.8.8-5.7.6-6.3.4a26.2,26.2,0,0,0-3.3-.3,5.4,5.4,0,0,0-3.1.1c0,1.7-.1,1.2.3,1.7l.3.4.8.5.5.2.5.3,1.1.2,2.1.8c.6.1.9-.3.9.5h-2.4c-.9.1-.2.2-.8.3l-2.8.2c-.7.1-.1.2-.8.3s-.2.5-1.3.6.1.2.3,1.1.1.5,1,1.4.1.5.8,1.1l.9,1,.3.6,2.1,2.7a2,2,0,0,1,.1,1.6c-.7.3-1.4-1-1.5-1.3l-1.6-2.8c-.4-.5-.1-.4-.6-.9a8.5,8.5,0,0,1-1.3-1.7l-3.1-2.8-2-1c-1.4-.5.1-.5-2.6-.5-.1.9-.5,1,.9,2.4s.3.6.7,1l1.8,1.8a11.3,11.3,0,0,1,.8,1c1.4,1.5.2-.1,1.7,2a7.1,7.1,0,0,1,.6,1c.2.4.1-.1.7,1l1.5,2.2a7.6,7.6,0,0,1,.9,1.7c.4.5.2.1.4.5s1.4,1.7.9,2.5-.3-.1-.5-.2c-1.7-1.1-.3-.2-1.3-1.2a6.2,6.2,0,0,1-1.4-1.9c-.4.5-.4,0-.6.6s.5.4.5,1.6a1.1,1.1,0,0,1-.4.8,1.6,1.6,0,0,1-1.3.7c-.7.2-.1.2-.7.4a14.9,14.9,0,0,1-2.2,0c-.3-.1-.3-.4-.4-.8s-.4.1-.6.9-.1.1-.4,1.1a2.6,2.6,0,0,0-.1,1.4,2,2,0,0,0,.8.9H131c.4-.1.3-.3.8-.4s.6,0,1-.1c2.5-1,.8.4,3.7-.9,1-.5.7-.2,1.2-1.1s.6-.6,1-1.3,1.3-2.1,1.7-2.9c1.5-3.2,7.1-6.6,10.2-8.1,1.1-.5,1.8-1.1,2.7-1.6a33.8,33.8,0,0,0,2.9-1.7c.6-.5,1.2-2.8,1.3-3.3s0-1.7,0-2.3.3-1.2.4-2c.3-3.2.1-7.9.1-11.4,0-.9.4-.9.4-2s1.2-1.3,1.3-3.1v-.3h0l-1.5-.8c-.6-.3-.7-.8-1.2-1.2s-2-2.4-2.5-2.3C152.5,85.5,156.9,89.5,158.3,90.3Z"/>
    <path class="cls-5" d="M135.5,98.1c.1.6.2.2.6.9a6.8,6.8,0,0,1,2.6.3,7.5,7.5,0,0,0,1.4,0c1,.1.1.2,1.1.4h1.4c.6.2-.2.3,1.2.3H145c1.5.1.3.3,1.2.4s.1-.5,1.9-.5.5-.1.6-1.1-.5-2.4.7-4.7a4.7,4.7,0,0,1,1.7-1.9,4.1,4.1,0,0,0,1.7-2c.5-.9,0-.7.3-1.3a4.1,4.1,0,0,0,0-2.8c0-1.2,0-.4-.5-1.4s-1.5-1.9-1.8-1.8a20,20,0,0,0-1.3,2.4c-.4.7-1.1,1.5-1.1,2.4s2.1,4.3.1,5.5-2.4,2.4-2.9,2.5h-1.8c-1-.1.2-.5-3.3-.4-.9,0-.5.4-1.4.4s-.5,0-1.4.5S135.6,97.5,135.5,98.1Z"/>
    <path class="cls-5" d="M72.7,30.9l.5-.2c-.1.4-.1.4-.5.2Zm.7-.4h0Zm-2.7,1.2c2,.2,1,.1,1.8-.5s0,.6,1.1.6.5.2,1.2.3S76.1,31.1,77,31c.2,1.5.2,1-.5,1.3s.1.1-.7.4-.7.2-.7,1.2c2.2,0,1,0,1.8-.3l1.3-.2c1-.1.1,0,.6-.2s.5.3,1.8-.8l.6-.6h0a2.5,2.5,0,0,0,.1-3.1c-.7-.9-.1-.3-1.2-.7l-1-.3c-.7-.2.3-.3-1.9-.5H75.4A8.6,8.6,0,0,0,73,28.5l-2,2.1C70.6,31,70.7,31.1,70.7,31.7Z"/>
    <path class="cls-5" d="M86.1,118.4c1.4.9-.4-.1,1,1.8s-.2.5,1.1,1.6,1.8,1.9,4,1.9,2.8-1.2,3.2-2,.4.1.4-1.3a6.9,6.9,0,0,0-.1-2.4l-.3-.3c-.3-.2.3-.1-.4-.2s-.9,2.7-.9,2.8l-.6,1.1c-.7,1-3.1,0-3.9-.8s-.2-.2-.4-1-.5-.5-.9-.7v-1.1h-1c-.2-.4,0-.3-.2-.7s-.3.6-.4-1.1v-2.6c-.7.3-.8,1.5-.7,2.2a7.7,7.7,0,0,0,.2,1.4C86.1,117.8,86.1,117.3,86.1,118.4Z"/>
    <path class="cls-5" d="M79.5,35.3c-.3.1,0,0-.2.2s-.5.2-.5.9l.2.9a2.9,2.9,0,0,0,3.3,1.3c.8-.2-.2-.4,1.6-.3a6.4,6.4,0,0,0,1.8-.1,2.1,2.1,0,0,0,.7-2.4H84.9l-.2-.3h-.1a3.1,3.1,0,0,0-2.6-.3A3.2,3.2,0,0,0,81,36.2a1.2,1.2,0,0,1-.4.6c-.7.6-.6-.2-.6-.6s0-.2-.2-.4Z"/>
    <path class="cls-5" d="M77.6,42.1c.2.4-.2,0,.7.6s-.4.1.3.2-.1-.2,1.2-.4h1.6c.8-.1,0-.3,1.2-.4a5.1,5.1,0,0,1,1.6.1c.5.2-.1.1.5.2h.7c1.4.1.3.1,1.2.5s.2-.2.9.6.7.2,1.2.1.1-.8-.3-1.3l-.2-.2C87,41,87,41.5,86.4,41s-.1-.4-1-.8-.9,0-1.7.1-.4-1-1.5-.4a14.1,14.1,0,0,0-1.6.7c-.4.3-.2.1-.8.3l-1.6.8C77.7,41.9,77.6,41.5,77.6,42.1Z"/>
    <path class="cls-5" d="M79.2,45.3c3.1.3,1.9.6,3.7.6s.5.4,1.8.4h.5c.6-.1.1-.1.7-.3s.1.1.5-.1.5-.5.5-1.7a1.4,1.4,0,0,0-1.5-1.1H79.8c-.2.2-.1.2-.3.4S79.2,43.7,79.2,45.3Z"/>
    <path class="cls-5" d="M89.1,116.6c0,1.3,0,1.2.8,2s1.6,1.3,2.2.6v-.2c.1-.2.5-.2-.1-1l-.5-.6c-.7-.8.1-.2-.6-1s-.3.2-.3-.6v-.6c-.9,0-1.1-.2-1.5.6A1.5,1.5,0,0,0,89.1,116.6Z"/>
    <path class="cls-5" d="M93,85.1c-.5.1-.2-.1-.6.4s-.4,2.4.5,2.1.2-.9.6-1.5.6-.8-.1-1S93.1,85.1,93,85.1Z"/>
    <polygon class="cls-6" points="79.6 13.4 78.9 12.3 78.4 13.5 77.3 13.7 78.2 14.2 77.8 15.3 79.1 14.6 80 15.2 79.8 14.2 80.9 13.9 79.6 13.4"/>
  </g>
</svg>
