<?xml version="1.0" encoding="UTF-8"?>
<!DOCTYPE svg PUBLIC "-//W3C//DTD SVG 1.1//EN" "http://www.w3.org/Graphics/SVG/1.1/DTD/svg11.dtd">
<!-- Creator: CorelDRAW X8 -->
<svg xmlns="http://www.w3.org/2000/svg" xml:space="preserve" width="3730px" height="3180px" version="1.1" style="shape-rendering:geometricPrecision; text-rendering:geometricPrecision; image-rendering:optimizeQuality; fill-rule:evenodd; clip-rule:evenodd"
viewBox="0 0 3730 3180"
 xmlns:xlink="http://www.w3.org/1999/xlink">
 <defs>
  <style type="text/css">
   <![CDATA[
    .str0 {stroke:#000020;stroke-width:6.24921}
    .fil0 {fill:black}
    .fil1 {fill:black;fill-rule:nonzero}
   ]]>
  </style>
 </defs>
 <g id="Слой_x0020_1">
  <metadata id="CorelCorpID_0Corel-Layer"/>
  <path class="fil0 str0" d="M3722 1239l-1975 0 0 -65c0,-32 25,-57 53,-57l1869 0c28,0 53,25 53,57l0 65 0 0zm-2022 0l-206 0 0 -65c0,-32 25,-57 53,-57l100 0c31,0 53,25 53,57l0 65zm-503 0l-432 0 0 -65c0,-32 25,-57 54,-57l321 0c32,0 57,25 57,57l0 65zm-16 113l0 728c0,34 13,56 31,69 10,6 16,15 16,28l0 34c0,13 -6,19 -19,19l-200 0c-9,0 -15,-6 -15,-19l0 -34c0,-13 6,-22 15,-28 19,-13 31,-35 31,-69l0 -572c0,-34 -12,-56 -34,-72 -6,-6 -12,-12 -12,-25 0,-9 -4,-56 0,-56l187 -3 0 0zm256 -569l0 1297c0,34 10,56 32,69 9,6 12,15 12,28l0 34c0,13 -6,19 -16,19l-200 0c-12,0 -15,-6 -15,-19l0 -34c0,-13 3,-22 12,-28 22,-13 32,-35 32,-69l0 -1141c0,-34 -10,-59 -32,-72 -9,-6 -12,-12 -12,-25l0 -34c0,-12 3,-16 15,-16l172 -9zm257 569l0 728c0,34 9,56 31,69 9,6 12,15 12,28l0 34c0,13 -6,19 -15,19l-200 0c-10,0 -16,-6 -16,-19l0 -34c0,-13 3,-22 13,-28 21,-13 31,-35 31,-69l0 -572c0,-34 -10,-56 -31,-72 -10,-6 -13,-12 -13,-25l0 -34c0,-10 6,-16 16,-16l172 -9 0 0zm109 1025l0 -872c0,-34 -9,-56 -31,-69 -7,-6 -13,-15 -13,-25l0 -34c0,-13 6,-19 16,-19l169 -6 0 84c37,-62 78,-94 121,-94 54,0 91,38 119,116 28,78 41,181 41,309 0,91 -6,179 -19,257 -12,78 -28,134 -50,172 -22,34 -50,53 -84,53 -47,0 -88,-25 -125,-72l0 209c0,28 6,50 22,63 6,6 9,12 9,22l0 50c0,9 -3,12 -6,12l-194 0c-9,0 -13,-3 -13,-12l0 -50c0,-7 4,-13 13,-19 19,-16 25,-41 25,-75l0 0zm144 -878l0 584c22,31 40,47 59,47 25,0 41,-25 50,-72 13,-50 16,-144 16,-284 0,-128 -7,-213 -16,-253 -12,-41 -28,-60 -53,-60 -16,0 -34,13 -56,38zm368 878l0 -872c0,-34 -12,-56 -31,-69 -9,-6 -12,-15 -12,-25l0 -34c0,-13 3,-19 15,-19l166 -6 0 84c41,-62 81,-94 122,-94 53,0 94,38 119,116 28,78 43,181 43,309 0,91 -6,179 -18,257 -13,78 -32,134 -54,172 -21,34 -50,53 -84,53 -47,0 -87,-25 -122,-72l0 209c0,28 6,50 19,63 6,6 12,12 12,22l0 50c0,9 -3,12 -9,12l-194 0c-6,0 -9,-3 -9,-12l0 -50c0,-7 3,-13 9,-19 19,-16 28,-41 28,-75l0 0zm144 -878l0 584c22,31 41,47 56,47 25,0 41,-25 54,-72 9,-50 12,-144 12,-284 0,-128 -3,-213 -16,-253 -12,-41 -28,-60 -50,-60 -18,0 -37,13 -56,38zm556 -166c154,0 229,153 229,463 0,143 -19,256 -57,334 -37,78 -90,119 -162,119 -72,0 -125,-38 -166,-116 -37,-78 -56,-191 -56,-344 0,-159 19,-275 59,-347 41,-75 91,-109 153,-109l0 0zm69 369c0,-106 -3,-178 -12,-219 -13,-41 -28,-59 -50,-59 -44,0 -63,75 -63,225l0 212c0,110 3,188 13,231 9,44 28,66 53,66 22,0 37,-19 47,-50 9,-34 12,-97 12,-184l0 -222 0 0zm572 -200l-144 715c-3,13 -6,19 -15,19l-35 0c-9,0 -12,-6 -15,-19l-135 -715c-9,-38 -18,-63 -34,-72 -9,-6 -13,-16 -13,-28l0 -28c0,-13 4,-22 16,-22l178 0c13,0 19,6 19,19l0 37c0,13 -6,22 -19,28 -12,13 -22,25 -22,41 0,9 0,15 3,25l72 387 72 -372c0,-9 3,-15 3,-25 0,-28 -12,-46 -37,-62 -10,-6 -16,-13 -16,-19l0 -40c0,-13 6,-19 16,-19l147 0c9,0 12,6 12,19l0 40c0,10 -3,19 -12,22 -22,13 -35,34 -41,69l0 0zm-3150 -147l9 -497c-50,-16 -96,-28 -131,-34 -37,-7 -72,-7 -97,0 -37,6 -65,22 -81,47 -16,21 -19,53 -12,87 0,6 3,16 9,34 0,7 3,10 3,13 -3,9 -6,19 -9,25 -3,3 -10,6 -16,9 -16,3 -34,-6 -50,-25 -16,-18 -28,-43 -34,-78 -16,-78 -10,-144 18,-197 32,-56 79,-87 147,-103 57,-9 119,-9 188,0 69,10 140,31 215,63 4,159 4,293 4,403 0,109 0,169 0,253 25,3 212,-9 212,12 0,194 3,363 -3,435 -3,103 -134,-28 -134,-28 -4,-28 -4,-160 -4,-194 -12,-3 -25,0 -34,0 -12,-3 -25,-3 -41,-3 4,315 -18,544 -65,687 -47,147 -125,232 -235,253 -62,13 -118,0 -171,-37 -50,-38 -82,-91 -97,-159 -7,-38 -7,-69 3,-97 9,-28 25,-44 47,-50l3 0c15,56 40,93 69,118 28,25 59,35 96,29 75,-16 129,-79 160,-188 28,-109 40,-294 37,-550 -53,-6 -190,22 -172,-203 4,-34 85,-22 166,-25l0 0z"/>
  <path class="fil1" d="M2566 426c-9,25 -31,46 -62,65 -32,19 -57,28 -79,28 -3,0 -9,-3 -15,-6 -13,-6 -19,-16 -19,-31 0,-6 3,-16 6,-25l44 -119c3,-3 3,-3 3,-6 0,-6 -6,-10 -15,-10 0,0 -4,0 -4,0l-75 197 -81 0 131 -353c4,0 4,-3 4,-3 0,-3 -4,-9 -7,-12 -3,-4 -9,-7 -12,-7l-94 0c-6,0 -12,-6 -12,-15 0,-13 6,-19 15,-19l128 0c44,0 66,9 66,34 0,7 0,16 -3,22l-44 113c3,0 3,3 6,3 13,0 19,-6 22,-16l38 -100c6,-15 15,-31 31,-40 12,-13 28,-16 44,-16l59 0c6,0 9,0 9,6 0,6 -3,13 -9,19 -9,6 -16,9 -22,9 0,0 0,0 -3,0 0,0 -3,0 -3,0 -9,0 -13,0 -16,3 -9,4 -15,16 -25,41l-28 78c-6,16 -22,25 -47,35 13,9 19,18 19,28 0,3 0,6 0,9l-37 100c-4,6 -4,9 -4,13 0,6 4,9 10,9 9,0 22,-6 37,-19 16,-12 25,-28 32,-37l12 22 0 0 0 0zm31 31l47 -125c3,0 3,0 3,-3 0,-3 -3,-7 -9,-7 -9,0 -13,4 -16,13l-47 119c-3,6 -3,12 -3,18 0,7 3,10 7,10 6,0 12,-10 18,-25zm172 -31c-9,21 -31,43 -59,65 -31,19 -60,28 -85,28 -9,0 -15,-6 -18,-18 -13,12 -28,18 -44,18 -38,0 -56,-15 -56,-43 0,-16 6,-38 15,-63l7 -22c12,-28 25,-53 43,-72 22,-22 44,-34 69,-34 16,0 28,6 38,22l6 -13 50 0 -25 63c-6,19 -19,47 -31,84 -4,6 -4,10 -4,13 0,3 4,6 10,6 9,0 22,-6 37,-19 16,-12 28,-28 32,-37l15 22 0 0zm206 0c-9,21 -28,43 -59,65 -28,19 -56,28 -81,28 -22,0 -35,-12 -35,-37 0,-6 4,-16 7,-25l37 -97c0,0 0,-3 0,-3 0,-3 0,-6 -3,-10 -3,0 -6,-3 -9,-3 -3,0 -10,7 -13,16 -15,47 -44,81 -84,106 -13,6 -22,13 -31,13l81 -210 112 75c10,7 13,16 13,28 0,4 0,7 0,7l-25 65c0,3 0,7 0,10 0,6 0,9 6,9 13,0 25,-9 41,-22 15,-12 25,-25 31,-37l12 22 0 0zm60 -41l22 -53c0,0 0,0 0,-3 0,-3 -3,-7 -10,-7 -6,0 -12,4 -15,13l-19 50 22 0 0 0zm119 41c-10,21 -32,46 -63,65 -28,19 -53,28 -75,28l-41 0c-37,0 -59,-15 -59,-43 0,-16 6,-38 16,-63l18 -47c7,-22 19,-40 35,-56 15,-16 34,-25 53,-25l53 0c22,0 34,9 34,31 0,13 -6,35 -18,69 -10,25 -28,34 -53,34l-54 0 -12 35c-3,6 -6,12 -6,18 0,7 3,10 6,10l16 0c34,0 68,-13 100,-38 18,-12 28,-28 34,-40l16 22 0 0 0 0zm115 -175l35 -88c0,-3 0,-3 0,-3 0,-6 -4,-6 -10,-6 -6,0 -9,3 -12,9 -13,31 -28,78 -53,144 12,-6 28,-25 40,-56zm22 175c-12,25 -31,50 -59,68 -25,16 -50,25 -75,25 -16,0 -32,-6 -41,-15 -12,-13 -19,-28 -19,-47 0,-6 0,-13 3,-19l100 -262c7,-22 22,-38 38,-50 16,-13 34,-19 53,-19 13,0 25,3 38,9 12,6 18,19 18,28 0,7 0,10 -3,16l-34 91c-22,56 -56,93 -106,115l-25 75c-4,3 -4,6 -4,10 0,9 4,15 16,15 16,0 31,-6 50,-19 16,-12 28,-28 34,-43l16 22 0 0zm128 0c-9,21 -28,43 -59,65 -28,19 -56,28 -81,28 -10,0 -16,-3 -22,-12 -7,-10 -10,-19 -10,-28 0,-10 0,-16 3,-22l69 -185 60 38 -50 131c0,6 0,10 0,13 0,3 0,6 6,6 12,0 25,-6 40,-19 16,-12 25,-28 32,-37l12 22 0 0 0 0zm6 -222c-3,12 -12,22 -25,28 -9,6 -21,9 -31,9 -9,0 -15,-3 -22,-6 -6,-6 -9,-13 -9,-19 0,-3 0,-6 3,-12 3,-10 13,-19 25,-25 9,-7 19,-10 31,-10 7,0 13,3 22,7 6,3 10,9 10,18 0,3 -4,7 -4,10l0 0zm32 253l47 -125c0,0 0,0 0,-3 0,-3 -4,-7 -10,-7 -6,0 -12,4 -15,13l-44 119c-3,6 -6,12 -6,18 0,7 3,10 6,10 9,0 15,-10 22,-25zm168 -31c-9,21 -28,43 -59,65 -28,19 -56,28 -81,28 -13,0 -19,-6 -19,-18 -12,12 -28,18 -44,18 -37,0 -56,-15 -56,-43 0,-16 3,-38 13,-63l9 -22c9,-28 25,-53 41,-72 21,-22 46,-34 68,-34 19,0 32,6 41,22l3 -13 50 0 -22 63c-9,19 -19,47 -34,84 0,6 0,10 0,13 0,3 0,6 6,6 13,0 25,-6 41,-19 15,-12 25,-28 31,-37l12 22 0 0z"/>
 </g>
</svg>
