<?xml version="1.0" encoding="UTF-8"?>
<!DOCTYPE svg PUBLIC "-//W3C//DTD SVG 1.1//EN" "http://www.w3.org/Graphics/SVG/1.1/DTD/svg11.dtd">
<!-- Creator: CorelDRAW X8 -->
<svg xmlns="http://www.w3.org/2000/svg" xml:space="preserve" width="3730px" height="3180px" version="1.1" style="shape-rendering:geometricPrecision; text-rendering:geometricPrecision; image-rendering:optimizeQuality; fill-rule:evenodd; clip-rule:evenodd"
viewBox="0 0 3730 3180"
 xmlns:xlink="http://www.w3.org/1999/xlink">
 <defs>
  <style type="text/css">
   <![CDATA[
    .fil1 {fill:black}
    .fil2 {fill:#3F5B3F}
    .fil3 {fill:#9E9E9E}
    .fil0 {fill:black;fill-rule:nonzero}
   ]]>
  </style>
 </defs>
 <g id="Слой_x0020_1">
  <metadata id="CorelCorpID_0Corel-Layer"/>
  <g id="_2184452992112">
   <path class="fil0" d="M2567 555c-9,25 -31,47 -62,66 -31,18 -56,28 -78,28 -3,0 -10,-3 -16,-7 -12,-6 -19,-15 -19,-31 0,-6 3,-15 7,-25l43 -119c3,-3 3,-3 3,-6 0,-6 -6,-9 -15,-9 0,0 -3,0 -3,0l-75 197 -82 0 132 -353c3,0 3,-4 3,-4 0,-3 -3,-9 -6,-12 -4,-3 -10,-6 -13,-6l-94 0c-6,0 -12,-7 -12,-16 0,-12 6,-19 15,-19l129 0c43,0 65,10 65,35 0,6 0,15 -3,22l-44 112c3,0 3,3 7,3 12,0 18,-6 21,-15l38 -100c6,-16 16,-32 31,-41 13,-13 28,-16 44,-16l59 0c7,0 10,0 10,7 0,6 -3,12 -10,18 -9,7 -15,10 -22,10 0,0 0,0 -3,0 0,0 -3,0 -3,0 -9,0 -12,0 -15,3 -10,3 -16,15 -25,40l-29 79c-6,15 -21,25 -46,34 12,9 18,19 18,28 0,3 0,6 0,9l-37 100c-3,7 -3,10 -3,13 0,6 3,9 9,9 9,0 22,-6 38,-18 15,-13 25,-29 31,-38l12 22 0 0 0 0zm32 31l46 -125c4,0 4,0 4,-3 0,-3 -4,-6 -10,-6 -9,0 -12,3 -15,12l-47 119c-3,6 -3,13 -3,19 0,6 3,9 6,9 6,0 12,-9 19,-25zm171 -31c-9,22 -31,44 -59,66 -31,18 -59,28 -84,28 -10,0 -16,-7 -19,-19 -13,12 -28,19 -44,19 -37,0 -56,-16 -56,-44 0,-16 6,-38 16,-63l6 -21c12,-29 25,-54 44,-72 21,-22 43,-35 68,-35 16,0 28,7 38,22l6 -12 50 0 -25 62c-6,19 -19,47 -31,85 -3,6 -3,9 -3,12 0,3 3,6 9,6 9,0 22,-6 38,-18 15,-13 28,-29 31,-38l15 22 0 0zm207 0c-10,22 -28,44 -60,66 -28,18 -56,28 -81,28 -22,0 -34,-13 -34,-38 0,-6 3,-15 6,-25l37 -97c0,0 0,-3 0,-3 0,-3 0,-6 -3,-9 -3,0 -6,-3 -9,-3 -3,0 -9,6 -13,15 -15,47 -43,82 -84,107 -12,6 -22,12 -31,12l81 -209 113 75c9,6 12,15 12,28 0,3 0,6 0,6l-25 66c0,3 0,6 0,9 0,6 0,9 6,9 13,0 25,-9 41,-21 16,-13 25,-25 31,-38l13 22 0 0zm59 -41l22 -53c0,0 0,0 0,-3 0,-3 -3,-6 -9,-6 -7,0 -13,3 -16,12l-19 50 22 0 0 0zm119 41c-10,22 -31,47 -63,66 -28,18 -53,28 -75,28l-40 0c-38,0 -60,-16 -60,-44 0,-16 7,-38 16,-63l19 -46c6,-22 18,-41 34,-57 16,-15 34,-25 53,-25l53 0c22,0 35,10 35,32 0,12 -7,34 -19,68 -9,25 -28,35 -53,35l-53 0 -13 34c-3,6 -6,13 -6,19 0,6 3,9 6,9l16 0c34,0 69,-12 100,-37 19,-13 28,-28 34,-41l16 22 0 0 0 0zm115 -175l35 -88c0,-3 0,-3 0,-3 0,-6 -3,-6 -10,-6 -6,0 -9,3 -12,9 -13,32 -28,79 -53,144 12,-6 28,-25 40,-56zm22 175c-12,25 -31,50 -59,69 -25,15 -50,25 -75,25 -16,0 -31,-7 -41,-16 -12,-12 -18,-28 -18,-47 0,-6 0,-12 3,-19l100 -262c6,-22 22,-38 37,-50 16,-13 35,-19 53,-19 13,0 25,3 38,10 12,6 19,18 19,28 0,6 0,9 -4,15l-34 91c-22,56 -56,94 -106,116l-25 75c-3,3 -3,6 -3,9 0,9 3,16 15,16 16,0 32,-7 50,-19 16,-13 28,-28 35,-44l15 22 0 0zm128 0c-9,22 -28,44 -59,66 -28,18 -56,28 -81,28 -10,0 -16,-3 -22,-13 -6,-9 -9,-19 -9,-28 0,-9 0,-16 3,-22l68 -184 60 37 -50 132c0,6 0,9 0,12 0,3 0,6 6,6 13,0 25,-6 41,-18 15,-13 25,-29 31,-38l12 22 0 0 0 0zm7 -222c-3,13 -13,22 -25,28 -10,6 -22,10 -32,10 -9,0 -15,-4 -21,-7 -7,-6 -10,-12 -10,-18 0,-4 0,-7 3,-13 3,-9 13,-19 25,-25 10,-6 19,-9 32,-9 6,0 12,3 21,6 7,3 10,9 10,19 0,3 -3,6 -3,9l0 0zm31 253l47 -125c0,0 0,0 0,-3 0,-3 -3,-6 -10,-6 -6,0 -12,3 -15,12l-44 119c-3,6 -6,13 -6,19 0,6 3,9 6,9 9,0 16,-9 22,-25zm169 -31c-10,22 -28,44 -60,66 -28,18 -56,28 -81,28 -12,0 -19,-7 -19,-19 -12,12 -28,19 -43,19 -38,0 -57,-16 -57,-44 0,-16 3,-38 13,-63l9 -21c10,-29 25,-54 41,-72 22,-22 47,-35 69,-35 18,0 31,7 40,22l3 -12 50 0 -22 62c-9,19 -18,47 -34,85 0,6 0,9 0,12 0,3 0,6 6,6 13,0 25,-6 41,-18 16,-13 25,-29 31,-38l13 22 0 0z"/>
   <path class="fil0" d="M2780 2121c-16,34 -53,65 -106,96 -54,29 -100,44 -147,44 -38,0 -60,-19 -60,-53 0,-12 3,-25 10,-37l65 -150c3,0 3,-4 3,-7 0,-3 -3,-6 -9,-9 -3,-3 -9,-6 -16,-6 -6,0 -12,9 -21,25 -29,65 -79,118 -150,156 -22,12 -38,19 -54,19l141 -316 203 116c16,9 22,22 22,40 0,7 0,10 0,13l-44 97c-3,3 -3,9 -3,12 0,10 3,13 13,13 22,0 43,-10 72,-28 28,-22 46,-41 53,-60l28 35 0 0zm369 0c-16,34 -50,65 -107,96 -50,29 -100,44 -143,44 -19,0 -32,-9 -35,-28 -25,19 -50,31 -78,31 -69,0 -103,-25 -103,-68 0,-25 9,-57 28,-94l81 -181 125 0 -109 243c-6,10 -6,19 -6,28 0,7 3,13 9,13 16,0 25,-13 38,-38l121 -278 107 60 -88 197c-3,6 -3,12 -3,15 0,10 3,13 13,13 18,0 43,-10 71,-32 29,-18 44,-37 54,-56l25 31 0 4 0 0zm103 9c9,-16 12,-34 12,-53 0,-19 -3,-35 -12,-44 -16,19 -44,50 -78,88 -4,12 -4,21 -4,31 0,19 7,28 16,28 31,0 53,-19 66,-50zm75 -266c0,-3 0,-3 -7,-3 -9,0 -12,3 -15,10 -3,6 -3,9 -3,15 0,3 0,6 0,10 15,-16 25,-29 25,-32l0 0zm190 257c-31,46 -75,84 -134,109 -50,22 -100,31 -153,31 -81,0 -125,-28 -125,-90 0,0 0,0 0,0 -22,25 -66,50 -135,78l4 -50c115,-72 200,-147 259,-228 -3,-7 -3,-13 -3,-22 0,-19 3,-41 15,-63 22,-50 50,-75 91,-75 31,0 47,10 47,31 0,7 -3,16 -6,29 -10,15 -25,43 -53,78 46,56 68,100 68,131 0,41 -28,81 -84,119 31,0 66,-10 103,-35 34,-22 63,-50 81,-84l25 41zm-878 -332l-228 0 225 -509c3,-6 3,-13 3,-19 0,-31 -15,-47 -44,-47l-28 0c-28,0 -43,-18 -43,-50 0,-37 15,-56 50,-56l140 0c60,0 100,3 125,13 35,12 53,34 53,68 0,22 -9,53 -25,91l-228 509 0 0zm503 -156l166 -366c3,-12 6,-18 6,-25 0,-15 -9,-25 -31,-25 -28,0 -53,16 -66,50l-165 366c-3,13 -7,22 -7,31 0,19 10,28 29,28 28,0 53,-18 68,-59l0 0zm291 -109c-78,178 -178,265 -300,265l-209 0c-72,0 -107,-31 -107,-100 0,-43 13,-97 44,-165l72 -163c28,-65 69,-122 122,-172 62,-53 125,-81 187,-81l178 0c79,0 119,41 119,119 0,40 -12,87 -34,134l-72 163 0 0z"/>
   <path class="fil1" d="M1511 2077c25,-3 47,-22 72,-28l0 47c-9,15 -56,25 -72,37l0 19c19,-3 53,-22 72,-28l0 47c-25,15 -69,28 -72,40l0 13c19,0 56,-22 72,-28l3 37c0,16 0,13 -12,19 -19,6 -38,19 -63,28l0 22c19,0 53,-22 72,-28l0 50 -72 34 0 19c25,0 53,-25 75,-28l0 50c-19,9 -59,31 -75,34l0 22c22,0 50,-25 72,-28 3,59 12,47 -41,69 -9,6 -40,18 -47,28 -9,18 -15,34 -25,50 -93,137 -287,178 -431,65 -34,-25 -62,-62 -81,-103 -6,-15 -9,-37 -16,-50 -22,0 -50,25 -75,28 3,-62 -9,-47 38,-65 44,-19 34,-13 34,-35 -25,3 -47,25 -69,28l0 -50 69 -31 0 -19c-25,4 -47,22 -69,29l0 -54 69 -31 0 -22c-19,3 -50,25 -69,32 0,-85 -12,-41 60,-82 9,-6 9,0 9,-25 -22,3 -50,22 -69,28l0 -50c13,-9 54,-28 69,-34l0 -22c-22,3 -47,25 -69,31l0 -53c13,-6 25,-12 41,-22 25,-12 28,0 28,-34 -19,3 -50,25 -69,31l0 -50c19,-15 47,-25 69,-37l0 -41 63 0 0 41c18,6 65,28 78,37l0 38c59,0 347,6 359,0 -12,-10 -56,-19 -72,-31l0 -44c25,3 53,22 78,25l0 -66c94,-3 60,-6 66,63 19,3 53,-19 75,-22 -3,53 9,44 -41,62 -28,10 -34,3 -34,38l0 0zm-416 -181l0 0c4,12 35,31 35,40 3,10 -28,35 -35,44l72 0 0 66c16,-7 35,-29 53,-38 16,9 25,28 44,38 0,-82 -19,-63 85,-66 -10,-13 -38,-25 -44,-41 9,-22 31,-28 44,-47l-85 0 0 -68c-9,6 -12,9 -22,18 -6,7 -12,13 -25,16l-50 -34 0 68 -72 4zm766 -422l0 0c9,-16 41,-22 41,3 0,15 -10,22 -13,34 -12,-3 -22,-25 -28,-37zm-984 106l0 0c0,19 -7,37 3,53 12,19 34,13 50,3 12,-9 22,-22 31,-37l19 -32c3,-6 3,-6 6,-9 -3,28 -37,91 -50,119 -9,19 -19,37 -28,56 -6,13 -28,47 -31,56 56,3 53,-15 72,-59 28,-75 37,-113 84,-175 9,-13 53,-56 75,-56 6,25 -59,81 -38,131 13,19 41,22 60,6 25,-19 34,-40 44,-47 3,75 78,69 121,25 10,10 10,19 22,25 44,19 72,-18 91,-53 12,-22 22,-47 34,-72 10,-25 19,-53 47,-56 -12,44 -47,91 -53,138 0,31 13,56 44,46 15,-3 31,-21 40,-31l7 -9c6,-6 0,0 6,-6 0,21 0,34 12,40 47,31 85,-44 97,-56 -3,28 -6,56 22,62 31,7 44,-18 56,-31 13,19 16,28 38,35 59,12 100,-79 103,-94 -25,0 -34,-10 -28,-38 9,-31 22,-12 9,-47 -12,7 -25,32 -28,47 -6,38 10,35 28,50 -9,19 -37,53 -50,63 -15,9 -34,6 -43,-6 -13,-19 9,-22 -4,-44 -15,-16 -28,31 -50,47 -25,15 -37,-3 -21,-47 9,-25 18,-44 31,-69 12,-22 19,-41 37,-56 -9,-3 -31,-3 -40,0 -13,3 -35,62 -47,84 -13,25 -60,110 -85,91 -25,-19 29,-110 44,-141 13,-19 19,-22 31,-37 -12,0 -34,0 -43,3 -13,3 -13,12 -19,22 -9,18 -22,40 -31,59 -16,28 -44,100 -78,94 -32,-16 25,-113 37,-141 13,-19 16,-22 31,-34 -12,-3 -43,-3 -56,-3 -19,3 -28,9 -37,22 -19,31 -47,121 -82,150 -12,6 -31,12 -43,3 -19,-19 6,-28 -7,-44 -18,-25 -18,34 -65,50 -53,22 -53,-41 -41,-72 38,-12 72,-9 100,-59 34,-50 -19,-75 -69,-38 -31,25 -43,47 -65,94 -10,22 -47,91 -75,72 -13,-35 59,-138 68,-169 -40,0 -90,41 -118,66 -10,9 -16,22 -32,31 7,-31 29,-72 19,-106 -15,0 -28,3 -44,6 7,22 7,28 0,53 -6,19 -15,34 -21,50 -10,19 -44,78 -66,69 -3,-6 -3,-6 -3,-19 3,-34 34,-91 53,-116l-31 -3c-19,3 -38,50 -47,66 -78,134 -122,62 -38,-44 13,-19 63,-75 91,-47 9,7 3,7 12,13 25,-13 -28,-53 -87,-25 -28,15 -56,47 -72,78 -9,19 -16,41 -16,59 -3,22 4,50 22,53 35,13 69,-43 85,-62l0 0zm-294 -334l0 0c25,-10 81,-4 106,-10 10,-3 6,-6 13,-15 40,-60 84,-22 59,3 -6,9 -22,18 -34,22 -28,6 -22,-4 -35,21 -6,13 -12,25 -18,38 -32,81 -50,147 -91,241 -3,6 -41,71 -44,68 0,0 0,0 0,0 -9,-56 -25,-25 3,-68 19,-32 41,-72 57,-110l84 -184c-22,0 -38,3 -59,3 -35,6 -25,-3 -41,-9zm328 409l0 0c-3,25 -28,47 -37,56 -16,13 -32,22 -57,31 -122,41 -197,-103 -206,-215 -3,-50 0,-35 34,-50 63,-22 138,-75 188,-116l50 -40c6,-10 12,-13 22,-22l53 -53c3,-7 6,-10 9,-13 7,-9 13,-16 19,-25 19,-22 25,-44 41,-44 9,28 -94,138 -113,157l-34 31c-3,6 -6,6 -13,12 -28,25 -65,53 -103,75 -75,50 -81,41 -119,60 0,43 44,225 138,225 28,0 56,-10 78,-19 41,-25 28,-41 50,-50l0 0zm125 1209l0 0c-3,7 0,7 -12,10 -4,-7 -13,-19 -16,-22 0,-28 25,-22 50,-28l3 0c19,0 19,3 41,3 22,0 25,6 47,6 43,0 37,25 50,44 9,15 25,15 34,-6 3,-13 6,-25 16,-32 15,-12 6,3 34,-3 22,-6 16,0 34,-12 13,6 13,9 25,12l25 13c16,3 13,0 25,3 7,0 10,3 16,0 6,-3 9,-6 9,-10l16 0c0,7 0,4 3,7 -3,15 -9,25 -9,43 15,16 18,4 62,-6l25 -6c19,-6 22,-13 50,-19 10,0 13,-6 22,-12 6,-3 19,-3 28,-7 13,-3 25,-12 38,-15 15,-6 18,-3 31,-19 3,-6 9,-12 12,-19 7,-9 4,-12 13,-22 3,-6 12,-12 22,-12 9,3 28,22 53,0 3,0 6,-3 9,-6 25,-13 25,9 47,18 16,13 22,4 35,25l87 0c19,-37 -3,-56 25,-71 13,-7 13,-13 13,-32 3,-9 0,7 3,-3l3 -12c0,-3 0,-3 0,-7 9,-40 15,-31 12,-71 -3,-19 -6,-7 -6,-22 3,-47 0,-32 -6,-60 0,-6 0,-9 0,-15 -3,-19 -10,-25 -28,-32 -10,-3 -13,-3 -25,-3 3,-15 28,-31 28,-53 6,-40 15,-97 3,-134 -6,-16 -9,-13 -22,-19 -16,-6 -12,-9 -34,-9 -3,0 -10,0 -13,0 -15,0 -19,6 -34,0 -47,-19 -56,9 -122,-78 -3,-7 -6,-13 -13,-16 -9,-22 -21,-38 -21,-63 -4,-34 3,-75 6,-106 3,-22 6,-53 6,-81 0,-13 -3,-13 -3,-25 -13,-3 -6,-3 -19,-13 -12,-6 -12,-12 -19,-25 -3,-3 -3,-3 -6,-9 -3,-6 -6,-12 -3,-25 0,-9 3,-12 9,-19 16,-9 35,3 50,3 41,0 47,7 72,-21 13,-16 16,-22 16,-44 0,-19 -3,-41 3,-56 6,-19 3,-32 19,-44 9,37 65,31 106,-53 3,-10 6,-16 13,-22 6,-13 6,-13 6,-25 -16,3 -16,15 -22,28 -9,9 -13,22 -19,31 -47,78 -100,56 -6,-90 6,-10 19,-32 28,-35l0 -6c-25,0 -22,-9 -44,6 -6,-9 -15,-19 -34,-15 -13,0 -28,6 -38,12 -3,-9 -6,-19 -12,-25l-38 -53c-9,-9 -3,-16 -15,-25 12,-22 3,-25 -13,-59 -18,-29 -22,-63 -40,-91l-10 -28c0,0 0,-3 0,-3l-9 -32c-9,-25 -13,-56 -34,-71 -10,-7 -13,-7 -22,-4 -16,-71 6,-218 -7,-265 -3,-16 -3,-6 -9,-38 -3,-3 -3,-12 -6,-15l-10 -13c-12,-9 0,-6 -12,-12 -6,-7 -3,0 -19,-10 0,0 0,0 0,-3 0,0 -3,0 -3,0l-3 -6c-6,-13 -3,-13 -3,-16 0,0 0,0 0,0 -3,-15 6,-15 0,-40 -3,-7 -3,-7 -3,-10 0,-9 0,-9 -7,-15 -3,-7 0,-3 -3,-10 -6,-12 -15,-22 -18,-34 -4,-9 -4,-6 -10,-13l-3 -6c0,0 0,0 0,0l-50 -69c-12,-9 -28,-18 -37,-28l-19 -25c-25,-28 -25,-47 -66,-75l-31 -18c-22,-13 -53,-16 -75,-4 0,41 0,41 -38,41 -3,16 -6,13 -9,25 -3,6 -3,9 -3,16 -3,9 -3,6 -9,12 -10,-6 -32,-6 -44,-12 -22,-7 -22,3 -41,-13 -22,-19 3,-62 -19,-69 -6,-3 -6,0 -12,-3 -3,-3 -6,-3 -9,-6l3 -31c3,-10 3,-25 3,-35 -31,0 -50,-12 -78,-21l-132 -38c-9,-3 -18,-3 -25,-6l-109 -28c-69,-16 -72,-25 -56,43l12 91c0,22 7,66 13,88 22,71 3,106 25,140 19,31 15,47 9,81 -3,10 -6,19 -6,29 -13,0 -31,0 -41,0 -9,0 -25,-7 -34,-4 -13,4 -19,10 -22,22 0,13 9,16 13,28 -19,25 -7,-15 -35,63 -3,3 -3,6 -3,6 -3,10 -3,13 -9,22 -10,9 -32,6 -22,41 0,9 9,12 15,15 10,7 13,13 19,19 -9,13 0,25 -19,28 -21,3 -28,3 -40,25 -22,44 -22,85 -3,128 12,28 15,44 50,35l12 37c-12,3 -22,6 -31,13 -13,12 -13,15 -16,34 -3,13 -3,28 -3,47 0,9 0,16 3,22 3,12 7,6 10,22 -32,-13 -163,25 -200,90 -25,44 -28,103 22,138 21,15 50,22 78,9 37,-15 59,-47 59,-87 0,-19 0,-35 -19,-35 0,41 0,85 -37,107 -103,53 -135,-154 53,-200 6,-4 50,-10 59,-10 16,3 32,25 35,41 3,40 -19,78 -35,112 -22,44 -15,41 -47,60 -9,3 -12,9 -25,12 -12,3 -40,10 -28,38l28 47c-56,87 -184,159 -287,134 -25,-6 -56,-22 -72,-38 -19,-18 -34,-37 -34,-75 0,-59 12,-78 50,-109 22,-19 -7,-16 -19,-6 -94,59 -66,222 75,256 12,3 28,6 44,9l47 0c62,-3 112,-28 159,-62 19,-16 41,-38 53,-56l3 3c0,0 3,3 3,3 3,6 3,6 3,9 4,10 4,16 10,22 9,13 15,22 31,28 16,7 25,13 34,25 10,13 16,22 25,35 7,15 13,25 19,37 6,13 13,28 19,41l12 47c10,18 13,22 22,37 3,13 13,28 16,41 3,15 0,12 -6,22l-47 65c-3,10 0,3 -3,13 -3,9 -38,59 -50,72 -13,12 -10,12 -19,22l-47 43c-9,13 -19,16 -31,25 -28,16 -44,35 -69,50 -16,10 -44,41 -62,57 -13,9 -16,18 -29,28 -12,9 -21,22 -31,28 -19,9 -34,19 -47,34 0,0 -3,0 -3,3l-34 25c-6,7 -6,10 -13,19l-34 25c-16,9 -19,16 -38,22 -15,3 -12,12 -31,28 -9,6 -25,19 -31,28 -9,19 0,38 9,53 7,10 16,13 28,19 0,16 -3,22 4,31 6,3 37,13 56,19 9,6 25,19 37,22 10,3 3,-3 13,3 6,3 9,3 12,6l60 38c3,0 3,0 6,3l34 19c10,6 10,9 22,9 25,-3 6,-9 38,13l37 18c3,3 10,7 13,7l165 96c13,7 10,7 22,16 6,0 10,3 13,6l50 28c9,7 0,0 12,4 6,3 0,0 6,3 0,3 4,3 4,6l9 6c3,0 3,0 3,0 0,0 0,3 3,3l10 3c6,4 9,4 15,4 31,6 75,34 113,15 9,-6 25,-6 34,-9 0,-16 -3,-13 -6,-22 9,-6 9,-9 15,-16 29,-12 44,13 44,-47 13,7 19,22 35,29 0,0 0,3 0,3 6,3 15,9 25,9 3,3 9,3 15,3 0,-9 3,-9 10,-15 12,-10 6,-7 9,-19 3,-13 9,-13 16,-22 0,0 0,0 0,0 3,-6 6,-9 6,-16 0,-6 -3,-9 -10,-12 -12,-6 -6,-3 -15,-13 -6,-6 -13,-9 -22,-9 -13,0 -6,0 -13,3l-9 6 0 0z"/>
   <path class="fil1" d="M1183 2452c6,-6 6,-13 12,-16 4,6 0,13 7,22 3,6 6,13 12,16 0,0 0,-3 0,0l6 -16c13,44 4,19 0,38 -3,6 0,15 -3,25 -6,-4 -3,-4 -12,-7 3,16 3,16 -3,28 -7,-3 -7,-6 -16,-9l3 31c-12,0 -31,-9 -44,-6 -15,3 -3,13 -34,13 -6,-13 0,-4 -6,-13 -10,-6 6,0 -13,-9 10,-10 10,0 3,-16 10,-6 10,-3 10,-12 15,0 6,3 15,6 7,3 7,3 13,0 0,-10 3,-3 -3,-3 -3,-3 0,0 -6,-3 -4,-10 -4,-13 0,-25 -4,0 -4,0 -4,0l-3 0c0,0 0,0 0,0l-6 0c0,0 0,0 0,0 -3,-44 38,-94 56,-104 22,29 -9,7 16,60l0 0zm-25 -260l0 0c6,4 25,13 31,13 10,3 19,-3 38,0l-53 12c-4,-6 -13,-15 -16,-25l0 0zm-22 35l0 0c0,-16 3,-10 -6,-22 -10,-13 -6,-3 0,-16l-13 -6 -12 6c-6,7 9,10 -16,3l-3 10 -9 -3c-3,9 -3,12 -7,18 10,4 19,0 19,13 -3,12 -9,3 -9,25 3,0 3,0 3,0l6 0c6,3 0,-3 6,3 -9,6 -6,16 -3,25 10,-6 3,-6 16,-9 -9,43 9,18 12,18 10,7 10,7 13,13 9,-3 16,-6 22,-13l-13 -9c0,0 0,0 -3,0 10,-9 10,-6 16,-12l-10 -7 35 -18 -44 -19 0 0zm225 -25l0 0c-6,-3 -16,-3 -19,-10 -3,-12 0,-3 10,-9l3 -3c-16,-28 -19,-9 -31,-31 0,0 0,-3 0,-3 0,-4 -4,-4 -4,-4 -25,0 -21,7 -34,10 -16,0 -19,-3 -37,3 -16,3 -16,9 -25,16 -7,6 -19,6 -29,12l7 16c18,0 31,-16 43,3 -6,6 -9,9 -15,9 -6,3 -6,3 -10,3l-9 0c6,13 16,10 31,10 0,0 0,0 -3,0l-81 37c9,6 9,3 16,13 -4,0 -16,3 -25,6 0,0 0,0 3,0l12 6c-6,13 -40,28 -50,35 -19,-7 13,-7 -37,-7l-7 -9c-12,6 -9,3 -9,6 -6,16 6,-6 0,6 0,0 -6,4 -6,4l6 6 -9 6 6 6 -9 7c12,6 6,9 12,21 9,-9 3,-9 19,-12l3 12c9,22 16,7 16,4 0,0 0,0 3,-4 6,7 9,10 18,16l0 -16c10,7 0,0 7,7l12 9c6,-9 -6,-19 19,-22 6,10 6,16 9,25 7,10 10,6 16,16 -3,15 -6,22 0,37 9,-9 6,-9 19,-12 0,15 3,22 6,34l3 -6c9,-13 -6,9 3,-3 3,-3 0,0 6,-3 7,12 7,25 16,40 6,10 16,19 19,28l12 -12c13,41 28,6 38,28 -16,0 -22,-3 -31,6l9 3 -6 10 9 3 -6 12 15 0 -6 10c13,0 6,-3 13,3 12,6 0,3 9,3 22,-12 6,-16 28,-31 10,-6 25,-13 35,-22 -7,-13 -13,-9 -22,-22l15 -6c-9,-16 -15,-16 -25,-25l16 -6c-3,-16 -16,-16 -22,-25 9,-4 6,0 16,-10 -22,-9 -19,0 -35,-22 7,-9 22,-9 28,-25 -18,0 -28,0 -37,-12 -6,-6 -16,-19 -19,-25l10 -19c9,3 3,0 9,6 6,7 -3,3 6,7 3,-16 3,-13 0,-29 16,4 10,4 19,7l-3 -25c12,3 12,6 19,12 3,-25 -4,-25 -10,-44l19 0c0,-15 -3,-21 -9,-34 9,-6 9,-3 18,0 0,-12 -3,-16 -12,-22 3,-3 3,-3 6,-9l0 0zm84 -91l0 0 -440 0c-6,56 -3,128 -3,188 0,122 -22,225 81,300 134,97 331,28 359,-113 10,-40 3,-140 3,-187 0,-57 7,-132 0,-188z"/>
   <path class="fil1" d="M1217 1546c38,-4 66,-22 82,-54 3,-6 12,-25 6,-34 -19,-19 -81,66 -88,88l0 0z"/>
   <path class="fil1" d="M1192 1939c7,7 19,19 28,22 7,-3 22,-15 25,-22 -3,-12 -18,-22 -25,-28l-21 19c-7,6 -4,0 -7,9z"/>
   <path class="fil1" d="M714 1233c19,0 38,-9 35,-25 -19,-3 -25,16 -35,25z"/>
   <path class="fil2" d="M1608 714l0 3 -3 -3 3 0zm12 22l0 0c0,-12 0,-6 -3,-15 -3,-7 -3,-7 -9,-7l0 -6c-25,0 -16,0 -28,-19 0,0 0,0 0,0 0,3 -3,3 3,16l3 6c0,0 3,0 3,0 0,3 0,3 0,3 16,10 13,3 19,10 12,6 0,3 12,12l0 0z"/>
   <path class="fil3" d="M1036 2864l-6 3c-6,0 0,0 -6,0 -4,-15 -10,-6 -13,-21 9,-13 16,-19 31,-19 0,0 7,0 7,0 9,0 3,3 9,-3 -25,6 -50,0 -50,28 3,3 12,15 16,22 12,-3 9,-3 12,-10z"/>
  </g>
 </g>
</svg>
