<svg xmlns="http://www.w3.org/2000/svg" viewBox="0 0 216.4 177.9"><defs><style>.cls-1{fill:#d9b626;}.cls-1,.cls-2,.cls-3,.cls-4,.cls-5,.cls-6,.cls-7,.cls-8{fill-rule:evenodd;}.cls-2{fill:#0e0a10;}.cls-3{fill:#68b457;}.cls-4,.cls-9{fill:#fff;}.cls-5{fill:#e9b992;}.cls-6{fill:#93d0d5;}.cls-7{fill:#9e9fa2;}.cls-8{fill:#282627;}.cls-9{font-size:45px;stroke:#000;stroke-miterlimit:10;stroke-width:1.5px;font-family:Gabriola, Gabriola;}.cls-10{letter-spacing:0em;}.cls-11{letter-spacing:-0.01em;}.cls-12{letter-spacing:-0.02em;}.cls-13{letter-spacing:0em;}.cls-14{letter-spacing:-0.01em;}</style></defs><title>petr</title><g id="Слой_1" data-name="Слой 1"><path class="cls-1" d="M92.7,79.1c.9.5,1.9.5,2.5,1.2s-.3,1.4,2.1,1.8c1.1-1.3,2-.7,3.6-.1s2.3.6,2.6,2.4l1.5.4c1.1-1.4,2.4-.6,3.9-.1,3.4,1.1,1.2,1.4,2.9,2.6h.1l-2.3,1a22.6,22.6,0,0,0,4.5-1.6c-.4-.3-1.5.3-2.2.4,1-2,0-1.7,2.7-2.5s2.6-1.3,3.7.1l1.5-.4c.4-1.7,1-2.1,3.8-2.7l-1,.7-1,.3c-.7.3-1.1.4-1.3,1.1s.3,0,1-.5l1.2-.5a7.2,7.2,0,0,1,3.1-.5c-.3-.7-.5-.3-1.4-.7l-.3-.2c2.4-.2,1.6,1.2,3.5.3h.1c.1.2.1-1.1,1.2-1.7s1.5-.5,2.3-.9c.3-2.5.4-3.2,1.7-4.9a7.1,7.1,0,0,1,4.1-2.5c8.5-1.7,12.2,9.8,4.9,13.6a7.4,7.4,0,0,1-5.5.5c-2.3-.7-2.5-1.5-3.9-2.7s-2.4,1.2-3.6.5-.7-.7-1.6-.1,1.3,1.3-4.2,2.9c-2.7.8-1.5-1.3-3.8-.1-.4,1.2-.3,1-1,1.8,1.2.8.5,1.5,1.4,2s1-.7,3-.4a19.4,19.4,0,0,1,2.7.9c1.1.4,1.2.6,1.5,1.3s2,.6,2.7.5,2,.4,2.9.6,1.9-2.3,3.8-2.9a7.6,7.6,0,0,1,5.5.3,7.2,7.2,0,0,1,3.8,8.8c-1.8,5.9-9.5,6.4-12.4,2.6-1.3-1.6-1.4-2.4-1.8-4.9-4.8-1.4-2.1-2-3.8-2.8s-.9-.1-1.5.2-2.5-.1-3.5-.4-2-.7-2.3-2.2-1-.5-2.1.1-3.6-.5-4.6-.9-.5-1.3-1.4-1.9-.4.8-1.4,1.7a7.1,7.1,0,0,1-2.3.9,3.4,3.4,0,0,1-2.6.3c-.8-.4-.8-1-2-.1s.6,1.1-2.6,2.3-2.9,0-3.9-.1-.8.7-1.8,1.8a6.3,6.3,0,0,1-2.5,1.1c-.5,2.3-.4,3.1-1.8,4.8a7.2,7.2,0,0,1-4.1,2.4c-8.3,1.7-12.2-9.9-4.6-13.6a7.3,7.3,0,0,1,7.7.8,21,21,0,0,1,1.7,1.8c.9-.2,1.8-.8,2.7-.5s0,.8,2.5.3c.4-2.1,1.2-1.9,3.2-2.6s2.3.2,3.3.3l1.2-.3c.3-1.2.2-1.3,1.1-1.9l-.6-.7c-.4-.5-.2-.5-.4-.9a1.2,1.2,0,0,0-1.8-.4c-1.4.8-2.7,0-4.2-.5s-.9-2.5-2.9-2.4c-.5,0-.8.7-2,.7s-1.4-.5-2.3-.6a7.3,7.3,0,0,1-3.8,2.6,7.3,7.3,0,0,1-7.3-2,6.6,6.6,0,0,1-1.3-2,7.3,7.3,0,0,1,12.3-7.4c1.3,1.6,1.4,2.7,1.6,5ZM81.4,41.6A10.3,10.3,0,0,1,84,43.2l1.2.9c1.2.9,4.7,4.9,5.3,5.3s1.2-3.5,3.8-7a36.9,36.9,0,0,1,9.7-8.9c12.3-7.9,33.6-11.5,46.1-2.2,5.5,4.1,9.3,11.8,4.9,20.9-7.8,16-34,25.3-51.4,18.9a31.6,31.6,0,0,1-5-2.3c-4.8-2.8-1.8-2.6-4.7-1.7s-3.2-1.3-5.1-1.9a53,53,0,0,1-13-5.5,19.9,19.9,0,0,0-2.3-1.3,12,12,0,0,1-4.7,4.3c-1.4.5-1.1.3-1.5,1.7-1.5,4.9-5,7.6-9.5,9.1-1.3.4-4,.6-4.7,1.5s-2.1,2.8-4.8,4.4c-.7.4-1.5.6-2.2,1v26H175.5v-85h-97c.3.9,1.6,1.8,2.2,4.2,1.1,4.9-1.8,6.3-.7,7.8S81.5,38.4,81.4,41.6Z" transform="translate(-1.3 -20.4)"/><path class="cls-2" d="M111.5,175.9l-1.3.2.2-.5c.2-.4.1-.1.2-.5s0-.3,0-.5,0-.2.3-.5l.2,1.3.3-1.1a2.6,2.6,0,0,1,.2,1.7Zm-61.9-3.7h.1L52,175c7.7,6.8,18.3,6,28.1,6.1,6.8.1,27.4.1,30.6,8.7l.2-.2h.1l.3-.5a12.6,12.6,0,0,1,4.6-4.1c10.6-5.9,32.4-2.3,44.1-5.1a21.1,21.1,0,0,0,11-6.1,10,10,0,0,0,1-1.4c-3.8-.4-9.2,0-13.1,0h-36c-2.6,0-1.7.1-2.4.9s-7.7-.1-8.3,0,.2,2.4-.7,3.3a2.6,2.6,0,0,1-2.1-.3c-.3-.8-.1-2.4-.2-3.4-1.6-.9-12-.5-14.6-.5Zm53.6-4.4a40,40,0,0,1,5.3,1.1l.3.3a2.7,2.7,0,0,0,3.2.2c.7-.4.5-.2,1.8-.2s1.2-.5,4.1-.4v.4l2.3-.5c1-.2.4-.2.9.1s-.4.3-1.1.4a4.1,4.1,0,0,0-1.4.3c2.1,0,2.5-.6,2.9.2s-4.1.6-5.4.8h2.8c1.2-.1,2.1-.4,2.7.1a16.7,16.7,0,0,1-5,.8c-4,.1-11.7-1.2-14.5-3.1,1.6.3,4.5,1.7,5.9,1.3-1.1-.2-4-1-4.8-1.7Zm9.3-11.9h63a34,34,0,0,1-.6,8.9c-1.1,4.8-2,5.1-2.6,7H121.1c.7-1.8,1.4-1.8.1-4a44.5,44.5,0,0,1-9.2.8l.5-12.7Zm-66.6.1h63v12.5a32.6,32.6,0,0,1-6.6-1.3c-1.2-.3-1-.3-2,.2s.7,2.2,2,2.8l1.6.8a5.3,5.3,0,0,1,1.7.9H49.5c-1.3-.7-2.5-5.1-2.9-6.9a37.7,37.7,0,0,1-.7-9ZM109,146v9.4H95.2L109,146Zm2.6,22.7c.8-.9.3-.6.3-.6v-4.9c.1-4.4.5-11.9.3-15.7l-.2,1.1v.2l-.4-1-.3-2.2c-1.1.9-.2,5.8-.7,8.1l-.2-6.5c-.9,1.9-.7,8.3-.7,10.8s0,3.7-.1,5.6-.4,5,.2,5.6a3.9,3.9,0,0,0,.2-1.9c0-.6,0-1.2.1-1.8.4-3.7-.3-9.4.3-10.6.9,1.2-.4,12.8.3,14.7.6-.5.3-1.5.5-2.7v-.7h0v2.5ZM128.2,151a1.4,1.4,0,0,0,.8.8c0,.6-.1.2-.4.6h.4c.5.3.7,1.1-.5,1.2h-.7c-1.1-.2-13.9-9.3-14.2-9.9a26.6,26.6,0,0,1,3.4,2c1.1.7,2.2,1.2,3.2,1.9l-6-4.4,3.8,2.3-1-.8c-.4-.3-.6-.3-.8-.8l2.6,1.5c-.9-.8-2.9-1.8-3.5-2.6l.7.2c-.4-.5-.7-.5-1.2-1l.6-.6.6-.4c2.4-1.6,1.5-1.7,4.3-1.6h39.6c5.1,0,10.7-.2,15.7,0v15.9H112.5l.3-10,4.8,3.2,4.8,3.3c.8.5,4.1,3,4.9,3.2,2.4.6,3.5-3.5.9-4.1ZM106.8,143c.3-.4.7-.5,1.1-.9l-.2-.2-.3-.3-1.8-1.2c-1.3-1-1.1-.9-3.2-.9H78.2c-10.7,0-21.6-.2-32.3,0v15.9H94.5c-.5-.4-1.5-1.1-1.6-1.9A3.8,3.8,0,0,1,93,152c.4-.8,4.3-3,5.2-3.6s7.6-5.1,8.5-5.4Zm4.9-3.2.9-.7.3-13.2c0-1.5.6-3.4-.8-3.8,0,1.5.2,6.5-.4,7.4v-6c0-.7.2-1.4-.3-1.6s0,7.5-.2,8.7v.4c-.4-2.6.6-6.8-.6-8.9-.6.8-.3,7.4-.3,8.3,0,2.9,0,5.8,0,8.8l.5.3c.6.3.4.3,1.1.4Zm-4.9,3.2c-.4.6-9.4,6.4-10.4,7s-2.9,1.5-3,2.9c1.2-.2,5.2-3.8,6.7-4.1-.9.9-6.3,4.1-6.5,4.8s3.2-1.9,4-2.4l1.9-1.3a19.8,19.8,0,0,1,2.1-1.3h-.1c-.1.3-5.7,4-6.5,4.7s-.6.4-.6,1,19.4-13.2,20.7-14.1c3.4-2.4,6.9-4.6,10.4-7l9.2-6c.6-.4,1-.5,1-1s-.7.2-1.3.6a17,17,0,0,1-4.1,2.4l.3-.3,3.7-2.5.7-.4c.7-.5.6.1.3-.8a12.7,12.7,0,0,1-1.7.9c.5-.6.5-.3.6-1a5.4,5.4,0,0,0-1.4-1.8H113.5c-.1,2.6-.2,5.2-.2,7.8l-.3,6.8c.1,1.3-.1.6.4.9a6.9,6.9,0,0,1-1.8,1.1,33.9,33.9,0,0,1-4.9,3.2ZM136,127.3h.1l1.1,1.7,1,1.8a16.7,16.7,0,0,1,1.7,4.1,8,8,0,0,0,5-2.8,15.1,15.1,0,0,1-1.2-1.9c-1.3-2.6-3.2-4.7-3.8-5.8,2.6-2.1,2.5-1.5,7.9-1.5,7.8,0,21.1-.4,27.7,0V139H119.2L136,127.3ZM108.4,138a12.5,12.5,0,0,0,2.1,1.4c.3.5.3,0,0,.4s-2.7-1.7-4.1-2.4l3.9,2.7c-1.7-.4-9.1-5.9-11.4-6.9,1.6,1.4,10.3,6.6,10.7,7.6s-6-4.1-7.7-4.9a42.2,42.2,0,0,0,3.6,2.7,28.2,28.2,0,0,1,3.4,2.7c-.7,0-1.3-.6-1.8-1l-1.7-1.2-10.2-7.2h.4c.5-.1,0,.1.4-.1s-1-.9-3-1.5.3,0-.5.1l-.6-.8h-.1l-.3-.4c-.2-.3,0-.2-.4-.4s-.4-.1-.4-.1-4-2.2-5-2.9c.9-.7,0,.1.8-.2-.8-.4-.7-.4-.5-1.2s16.3,10.4,18,11a10.7,10.7,0,0,0-2-1.4l-2-1.3-12.2-8c1.5-1.6.6-1.2,4.4-1.2s14.4-.2,17,0v15.1l-.5-.2Zm33.9-4.2c-.5-.2-.8-1.4-1.1-2.1a41.8,41.8,0,0,0-3.4-6.2l-3-3.6c-1.3-1.4-3.3-2.6-3.5-2.8s1.8,1.1,2.9,1.5l-1.3-1.1-.3-.3c4.5,1.4,11.4,11,11.2,12.2s-.1.3-.5-.4-2.4-4.3-3.7-5.3c.6,1.3,4.1,5.9,4.1,7.1s-.9-1.2-1.4-1.9l-.5-.5c.3.9,1.2,2,1.3,2.8s-.1.3-.6-.5l-1.4-2.2c.4,1.1,1.2,2.2,1.2,2.8s0,.2-.1.4ZM88.9,119.3v.2c.9-.4,2.2-1.5,3.2-.8a11.8,11.8,0,0,1-2,1.1l-1.9,1.3a27.3,27.3,0,0,0-7,9c-.8,1.5-.6,1.7-1.3,1.9s2.5-5,2.8-6c-1.2,1-2.9,5.2-3.7,5.7s1.3-2.8,1.6-3.3,1.4-2.1,2-3.2a23,23,0,0,0-3.4,4.9c-.9,1.6-.6,1.3-1.4,1.3l.7-1.5h-.1l-1.1,1.2c.6,1.2,2.7,2.7,4.6,3,.2-1.7,2.7-6.8,3.8-7.6L103.5,139H45.9V123.1c11-.1,22.1.1,33,0,2,0,2.2.2,3.4,1.3l-.9,1.2a16,16,0,0,0,2.3-2.4,17.7,17.7,0,0,1-2.5-1.7c.1-.5-.1-.1.2-.5s-1,.5-1.1,1.6H45.9V106.7H175.6v15.9h-33c-.8-.2-.2-.2-.8-1s-1.9.1-3.9.9-1.1-.9-1.8-1.4l-1.9-1.3c-1.6-1-2.6-1.8-4-.9s.6,2.1.8,2.3a17.4,17.4,0,0,1,1.4,1.4H113.7c-.8-.3-.4-1-2.3-1.1s-1.6.8-2.3,1.1H89.3c1.2-1.9,3.6-1.9,3.7-3.9a3.3,3.3,0,0,0-4.1.6Zm17.8-54.2a3.5,3.5,0,0,1,.4.8c-.9-.3-1.2-.1-1.3-1.2s.5-.4.9.4Zm2.5,1.4c-1.4,0-1.8-1.1-2.1-2.2s.8,0,1.2.8l.9,1.3Zm1.7.4-1-1.7c-.5-.7-.4-1.2-1.3-1.2a5.2,5.2,0,0,0,.7,1.6c.5.9.4,1.1,1.6,1.3Zm25.2-13.5c1-.6,1.9.6,1.2,1s.4.1-.3-.1h-.4l-.4-.8Zm1.7-4.5,2.2-.5c.8-.3,1.3-.6,1.9-.9a2.1,2.1,0,0,1-.2,1.2c-.4.7-.1.1-.3.3-1.9,1.3-.1-.5-1.1,1l-.3-.5v.4l-.3.4-.3-.6-.2.7h-.4c-.4.7-.1.4-.8.6s-.3-.6-.2-1.5ZM45.9,47A4.4,4.4,0,0,1,48,49.7c-.5-.2-.3,0-.7-.6s-1.3-.5-1.4-2.1Zm0-1.3c0,1.3-.1.5,1.4,1.8l.8.9c.5.6.3.6,1,.9a6.4,6.4,0,0,0-3.1-3.7Zm92.3.5a3,3,0,0,0-.1,1.8c1.5.3,5.6-1.4,5.2-3.3a30,30,0,0,1-5.1,1.5Zm.5-2.5h.3a6.5,6.5,0,0,0,3.5-1.2c.6-.4.4-.5,1-.5a1.5,1.5,0,0,1-.3,1.8,6.5,6.5,0,0,1-4.8,1.6l.2-1.6Zm-72.3-.4c0,3.9-1.1,5.1-1.9,8.1,2,1.5,12.8,8.3,14.5,9.1a89.5,89.5,0,0,0,8.5,3.3l2,.8a10.8,10.8,0,0,1,1.8,1.2c1.7,1.1,3.3-.3,4.6-.9s-.2.2,0,.9a37.7,37.7,0,0,0,9.8-2.6c2.1-.8,2.5-.8,3.3-2.9,1.7-4.3-1.6-11.8-6.7-11.1a20.9,20.9,0,0,0-4.9,1.4c-1.3.5-3.5,2-4.3,2.1s-5.7-5.6-6.8-6.5C83.4,44.1,79.6,40.7,75,40c.3.5.5.4.8,1-1.3-.2-1.8-1.3-3.2-1.6A7.4,7.4,0,0,1,70,41.8a9.4,9.4,0,0,1-3.5,1.5Zm46.2,4.2c.3,1.2,4.3,3,3.7,10.3.2,0,7.8-3.9,10.1-4.8s1.5-1.6,1.8-3.1a3.8,3.8,0,0,1-.5,2.6c.9-.2.9-.1,1.2-.9s.3-1.2.5-1.7a4.5,4.5,0,0,1-.3,2.3h1a3.3,3.3,0,0,0,.5-2.6c.7,1.2-.2,1.8.2,2.5s.6-.2.8-.9.1-1.2.3-1.6a4.4,4.4,0,0,1-.3,2.4c1.3-.4,1.2-1.4,1.3-2.6a3.5,3.5,0,0,1-.2,2.2c.3-.2.7-.2,1-1.3a12.7,12.7,0,0,0,.2-1.4c.2.4.1.3.1.9v1c.5-1.4.4-2.5-.5-3.4a3.3,3.3,0,0,1-2.7,1.2c.9-1.1,4.6-1.3,4.1-9.4l.7,1,.3-1a1.1,1.1,0,0,1,.2.9c.8-.3.2-.3.8-.8s0,.1.1.5l.8-.4v.7l.8-.4v.6l.9-.4v.5c.7-.2.4-.3.9-.3s-.1.3,1,.1l.2-.6a28.8,28.8,0,0,0-3.2-1.8c-1-.4-3.5-.1-4.6.2s-3.1,3.2-4.4,4.6l-.7.6c-.6.6-.4.7-1.3,1.2a6.9,6.9,0,0,1-1.8.8l-4.1,1.2a62.4,62.4,0,0,1-9,1.3Zm26.1-6.4-.3,1.6c6-.1,6.3-4.5,3.4-4.7.2.7,1.1,1.5,0,2.5a4.7,4.7,0,0,1-3.1.6Zm.6-6.4-1-.7s0,.1-.1-.2,2.1-.1,1.1.9Zm-2.8,1.9.4-1.9.2,1.9a3.4,3.4,0,0,0,.4-1.5l.4-1.6,1-.5-.2-.9c-.9.2-.2.1-.6.9s-.2-.6-1.1-1.3l-.6,2.3c-.1.4-.1.9-.2,1.4v1.1Zm-28.4,6.1,1.1-.2c.2.7.4,1.3.6,1.8s-.5-.8.7-1.2l.3.9c0,.3,0,.8,0,1.1s0,1,.7,1.4l-.3-3.6.9-.2.2,3.3c.2,1.3-.1.6.5.8V42.3h.8l.2,3.7c.1.9,0,.7.6.7s-.3-2.7-.2-3.9-.3-.7.7-.9.3,1.7.3,2.4-.1,2,.6,2.2-.5-3.6,0-4.8l.7-.2.3,3.9c.1,1-.1.8.5,1l.2-.3h.1c.2-1.1-.3-2.6-.4-3.7s-.2-.9.7-1l.5,4.9h.6c.3-.6-.1-2-.2-2.7s-.1-1.1-.2-1.5-.1-.8.7-.9-.1,4.1.8,5,.4-.7.2-2.5-.8-2.6.4-2.8l.2.4a11.6,11.6,0,0,1,.2,2.2c.1.8,0,2,.5,2.5s.5-.2.3-1.3l-.4-3c-.1-1-.2-.9.7-1s.3,2.7.5,3.8,0,.8.5,1.1.3-1.4.1-2.7-.7-2.3.5-2.5a19.7,19.7,0,0,1,.5,3.8c.1.8-.1.7.5.9s.3-.8.1-2.3a8.2,8.2,0,0,1-.2-2.6h.7c.1.8.1,1.5.2,2.3l.4,2.1c.9-.5.4-1,.3-2a10.4,10.4,0,0,1-.2-2.5h.7l.5,3.8c2-.7-1-3.8,1-3.9.3.8.1,2,.5,2.6s.4-.4.4-1.2-.2-.9-.2-1.6.6,0,.9.5l.2.3v.2c.6-1.6.5-.8,1.4-2a3,3,0,0,1,2.1-1.4l-.5-.3-.2-5.6c-.7.3-.5,1.9-.5,2.8v3h-.6c-.5-1.6-.1-3.5-.2-5.1l-.4-.4c-.4,1.7.4,3.9-.3,5.5-.8.1-.7.1-.8-.8s.2-3.7.1-4.6.1-.3-.3-.5a10.3,10.3,0,0,0-.3,3.1c0,.5.4,3-.5,3.1s-.5-.7-.5-1.2v-5c-.8,1.5.1,4.9-.6,6.2h-.6c-.8-1.4.1-4.2-.1-5.8s0-.1-.1-.4-.5,2.5-.5,3.4.4,2.9-1,3V32.6a2.3,2.3,0,0,0-.1-1.6c-.7,1.3-.5,3.6-.5,5.2s.2,1.2-.8,1.3c-.6-1.8.6-6-.1-6.3-.6,1.3-.5,3.8-.5,5.4s.1,1-1,1.2.4-5.8.1-6.4H123l-.2.6a30.6,30.6,0,0,0-.3,4.8c0,1,0,.9-.9,1.1-.2-2.1.4-4.2.3-5.6s.1-.4-.3-.8l-.4,5.5c0,1.1.1,1-1,1.2s.5-5.7.2-6.3c-.8,1.4-.5,3.9-.6,5.5s.1.9-.9,1.1l.3-6.2c-.7.5-.6,2.3-.7,3.3s.3,3-.8,3.3a3.1,3.1,0,0,1-.2-1.6l.2-4.5c-.5.7-.4,2.2-.5,3a26.2,26.2,0,0,1-.3,3.3l-.8.2c-.2-2,.4-3.8.3-5.4s.2-.3-.3-.7c-.7,1.4-.3,4.6-.8,6.3l-.8.2a18.2,18.2,0,0,1,.2-4.5c.2-1.2.3-1-.2-1.4a12.7,12.7,0,0,0-.5,3.4c-.2,2.4.3,2.7-1.1,3l.3-5.7c-1,.8-.7,3.7-.8,5s.1.9-1,1.1l.3-5.5c-.5.4-.3.2-.4,1s-.1,1-.2,1.5-.1,2.4-.3,3.1l-.8.3c0-.7.4-4.7.1-5.2-.9,2.4.4,5.3-1.4,5.6,0-1,.4-4.5.1-4.9-.6,1.2-.4,3.1-.6,4.5s.1.7-1,1a28.6,28.6,0,0,0,.2-4.6c-1.1,1.5.4,4.6-1.6,5.1l.2-3.3c0-1.3.1-.5-.2-.9a4.9,4.9,0,0,0-.5,2.5c-.1,1.5.4,1.9-1,2.4V39.3a7,7,0,0,0-.4,2.2c-.1,1.1.2,1.5-.7,1.9v-.3c-.2-.9.3-2.1-.1-2.8-.4,1.1,0,3.2-1.1,3.6v-.4c-.1-.6.2-1.5,0-2-.8,1.4.3,2.4-1.2,2.9V43c-.8.6-.3,1.4-.8,1.9s-.1-.9-1.2.7-1.5,2.2-1.2,3.6h0v.2c.6-.4.3-.3.3-1.3s-.2-.8.6-1.1,0-.2.1.4,0,.3,0,.5l.2,1h.1V47.6c.1-.8,0-.7.7-.9a5.8,5.8,0,0,0,.2,2.1c1.2-.7-.3-1.9.9-2.6a4.2,4.2,0,0,1,.2,1.6l.2.7c.4-.3.2,0,.3-.5s-.5-1.9.6-2.2v1.7l.3-.4.2-.5.8-2.6h.1l1.1,2.7c4.5,6.9,5.2,4.2,5.4,15.1a10.7,10.7,0,0,0,.2,2,2.8,2.8,0,0,1,.1.7v.2a2.4,2.4,0,0,0,2,2.4l-1-1.7.4-.3a8.6,8.6,0,0,0,.7,1.6c.4.7.6.6,1.6.6v-.3a2.6,2.6,0,0,0,1.7.4h2.1l4-.4c7.4-1.1,15.3-4.1,20.6-8.9a22.3,22.3,0,0,0,5.8-7c.9-1.7,2.2-4.4,1.3-6.3a36.3,36.3,0,0,1-2.2-6.2l.8-.2c-.5-.9-1.2-1.5-1.8-2.4v.2l-.2.3c-.2.4.2,0-.2.4s-.5-.1-.6-.4.3-1.1-1-1.8v2.2c-.8-.1-.7-.3-.8-1.3s0-1.3-.5-1.7,0,2-.2,2.8v.2c-.9-.2-.4.2-.7-.5l-.2-1c-.1-.7-.2-1.5-.3-2.1s.1.2-1.3.1.2-.4-.6-.8l-.3.5h-.1l-.3.4c1.1.8-.1,2.7.7,4l.3-2.1.3,2.6c.1-.2.8-3.8.9-4.3h0v2.7c-.1,1-.1-.2-.2.9,3.9,1.3,2.1,1.6,2.9,4.7s1.7,4.3,2.1,6.2c-1.2-1-1.2-3.4-2.3-4.7-1,1.4.4,4.2.7,5a6.1,6.1,0,0,1-1.2-2.1l-.8.4c.1,1.1.7,1.6.5,2.6s-.1.1-.5-.4l-.2-.4c-.3.6-.1.4-.6.8s.6.9.2,1.6-1-1.6-1.3-.5.7,1.2.5,2.2c-.6-.6-.7-1.6-1.5-1.9s-.3.8.2,1.9.8,1.1.6,1.9-.8-1.3-1.3-1.7c0,2.5.2,1.8.9,3.6-.7-.1-1.1-1.4-1.2-2.2a28.9,28.9,0,0,1,0-3.3l-.5,3-.2-2.3a6.3,6.3,0,0,1-.3,2.1V51c-.4,1.5.1,3.3-.4,4.1h-.1l-.4.7h0l-.3-.8a1.8,1.8,0,0,0-.1.6c-.1.4,0,.2-.2.4l-.3-.9c-.2.5-.1,1-.5,0s.2-3.1.1-4.6,0-.2-.1-.3c-.7,1.4-.5,4-.5,5.7-1.3-1.7,0-5.5-.4-6.2-1.3,2.1-.2,6-.1,7.4a7.4,7.4,0,0,1-1.2-2.2c-.4-.9-.7-2.1-1.7-2l1.2,3.1c-1.6-.1-.9-3.3-2.9-2.9.2.9,1.5,2.8,1.1,3.5s-.9-1.2-1.1-1.7-.6-1.6-1.2-1.6-.1.7.3,1.7a20.5,20.5,0,0,1,.8,2.2c-.8-.3-.8-.4-1.3-1.6s-.6-1.6-1.2-1.9,1.2,2.8,1.1,4.1c-1.3-.3-1.2-3.3-2.5-3.6s0,1.2.4,2.2l.5,1.1c.3.6.4.7.1,1s-1.5-3.3-2.4-3.7h-.1c-.1,2,1.7,3.6,1.1,4.3a7.8,7.8,0,0,1-1.2-1.8l-.8-1.6c-.3-.4,0-.3-.6-.3s.7,2.6,1.1,3.4.4.8.2,1.1-1.6-3.7-2.5-3.8-.4.2-.1,1.2l.5,1.2a17.6,17.6,0,0,1,.9,2.3c-.9.1-1.9-3.4-2.7-4s1.6,3.8,1.3,4.8-.4-.2-.6-.7l-1.6-3c-.4-.4,0-.3-.6-.3s1.4,3.9,1.7,4.9c-1.2-.5-1.7-3-2.4-3.9s0-.3-.6-.3-.2-.1-.2.5l.2.7.6,1.3c.4.9.9,1.7,1.2,2.6-1.5-.7-1.6-3.3-2.9-4.2-.9.9,1.3,3.9,1.7,5.1-.8-.4-1.6-2.1-2.1-2.9a2.5,2.5,0,0,1,0,.5l-.2.6c-1.5-2.4.6-8-1.7-11.8a15.7,15.7,0,0,0-2.2-2.8l-2.2-2.9c-.6-1-.7-1.9-1.1-2.4a9.5,9.5,0,0,0,.7,2.9,4.8,4.8,0,0,1-1.2-3.1ZM91.4,50.4a17.2,17.2,0,0,0,.9-2.6,22.4,22.4,0,0,1,1.2-2.4,21.6,21.6,0,0,1,2.2-3.3c.3-.4.4-.8,1-.5s-2,3-2.7,4.3-1.8,4-1.8,5v.5c.5-1,.4-2.4,2-5.3.3-.5,2.5-4.4,3-4s.4-.1-.3.9-3.7,5.7-3.9,8.8c.4-.3.2,0,.4-.5l.6-2.2c.5-1.5,3.1-6.8,4-6.7s0,.6-1,1.9a21.9,21.9,0,0,0-2.7,6.1c-.1,1,0,.5.1.7,1.1-2.7.9-3.7,3-6.8.4-.5.9-1.6,1.5-1.5S97.7,45,97,46.3s-1.8,3.5-1.3,4.3.9-2.4,1.5-3.5a22.6,22.6,0,0,1,2-3.1c7.6-10.1,24.2-15.6,36.8-13.4,6,1.1,10.7,3.7,13.2,7.3,3.8,5.7,1.6,12.1-2.1,16.8a9.5,9.5,0,0,1-1.2,1.4,28,28,0,0,1-2.6,2.5l-1.4,1.1-1.5,1.1a33.5,33.5,0,0,1-3.3,2c-9,4.6-19.5,6.9-29.6,4-1.4-.4-2.6-1.3-3.9-.9a14.4,14.4,0,0,0,5.5,2.2c-2.2-.1-5.1-2.1-6.8-1.9h.1l1.3.8,1.4.7c-1.1-.3-3.2-1.7-4.1-1.2,1.8,1.3,3.8,1.8,5.7,2.6-3.1-.4-5.5-2.7-7.1-2.4,1.1,1.4,4.9,2.3,6.6,3.2-3.7-.6-6.5-3.1-7.9-2.9l.9.8,1,.5a34.7,34.7,0,0,0,17.9,3.7c10-.5,19.8-3.8,27.2-9.6l1.7-1.3a40.3,40.3,0,0,0,4.6-4.8c3.6-5,6.5-11.6,2.9-18.7-2.8-5.5-8.6-8.5-14.6-10-11.1-2.9-24.8.2-34.6,6.2-4.9,3-9.7,7.4-12.3,12.5-.4.8-1.8,3.7-1.4,4.4Zm-10-8.8A10.3,10.3,0,0,1,84,43.2l1.2.9c1.2.9,4.7,4.9,5.3,5.3s1.2-3.5,3.8-7a36.9,36.9,0,0,1,9.7-8.9c12.3-7.9,33.6-11.5,46.1-2.2,5.5,4.1,9.3,11.8,4.9,20.9-7.8,16-34,25.3-51.4,18.9a31.6,31.6,0,0,1-5-2.3c-4.8-2.8-1.8-2.6-4.7-1.7s-3.2-1.3-5.1-1.9a53,53,0,0,1-13-5.5,19.9,19.9,0,0,0-2.3-1.3,12,12,0,0,1-4.7,4.3c-1.4.5-1.1.3-1.5,1.7-1.5,4.9-5,7.6-9.5,9.1-1.3.4-4,.6-4.7,1.5s-2.1,2.8-4.8,4.4c-.7.4-1.5.6-2.2,1v26H175.5v-85h-97c.3.9,1.6,1.8,2.2,4.2,1.1,4.9-1.8,6.3-.7,7.8s1.4,5.1,1.3,8.3ZM77.5,30.5c1.4-.6,2.2-3.6,2.2-4.9a7.1,7.1,0,0,0-.8-2.7c-.5-1.1-.7-1.7-2.1-1.7a14,14,0,0,1,.8,1.8c-.3-.2-.1,0-.4-.4A3.3,3.3,0,0,1,77,22c-.3-1,.1-.6-.8-.8v.5c.1.4,0,.1.2.5l-.6-.8h-.1c-.7,0-.2.1-.7.2h-.2a13.8,13.8,0,0,0-3.9-.2c1,4.5,2.1,4.3.7,9.6a2.3,2.3,0,0,0-.3-1.2A3.3,3.3,0,0,1,70,31.2c.3-.8,1.3-1.6,1.4-2.4s.3.1-.1-.5a11.3,11.3,0,0,1-3.4,3.9c.5-.9,1.8-2.3,2.5-3.6l.7-.8h.2c-.6-1.9-2.9-6.4-5.2-6.5H54.2l-1.8,2.5a4.5,4.5,0,0,1-.6,1.3l-.5.7c-.4.5,0,.4-.7.4s.7-.9,1-1.7a9.1,9.1,0,0,1-5.1,1.8h.1l1.2-.8,1.1-1.1a5.7,5.7,0,0,0,1.4-3c-.6.3-.5.8-.9,1.2s0-.7.1-1.1l-.9.9v-1c-.6.7-.1.5-.8,1.1v-.2h0v-.7c-.3.1-.5.6-.8.8v-.9l-.3.2c-.3.1-.3.2-.6.1h-.1l-.3-.2c.1.6.1.3.2.5a3.4,3.4,0,0,1,.3.6c-.7.5-.4.6-.5,1.8h.5c-.8.7-.3.7-.4,1l-.2.8a5.9,5.9,0,0,1,2,3.2l.8,3.2c.1,1,.3.4-.1,1.1s-.9-3.4-1.7-5.3l-1-1.5c-.1,2.1,1.3,3.4,1.4,5.5s.1.6-.3.9-.4-2.8-1.1-3.8c-.2,2.5,0,5.4,0,7.9v5.8c0,1.1-.2,1.2.6,1.5h-.4c-1,.9,1.8,1.2,3.3,4,.4.7,0,.5.6.6-.7-2.9-1.9-2.6-3-4.2,2.1.5,2.7,2.4,3.6,4,.2-.3.2,0,.1-.5a4.1,4.1,0,0,0-.7-1.7c-.5-.9-.9-1.2-1.5-1.9a3.2,3.2,0,0,1,1.8,1.6l1.1,2.3c.4-1.3-1.1-2.9-1.5-3.7,1.6,0,1.5,2.2,2.2,3.3.4-.9-.5-2.3-.9-3.2,1.5.3,1,1.6,1.6,2.7h.1a6.6,6.6,0,0,0-.4-2.2c1,.2.8.8,1,1.8a7.3,7.3,0,0,0,1.6-1.6,6.1,6.1,0,0,1-3,4.5c-1.4.7-2.8,4.1-3.3,3.8v-.2h0l.3-.5a14.4,14.4,0,0,0,1.9-2.4c-1.2.1-1.8,2-2.6,2.8l-.6-.4h-.1c-.2.5-.5.8-.6,1.2s.6.2-.4,1-.8.6-.9,1.2V58c.7-.3.3,0,.8-.6l-.8,1.4c.2.1.6-.1.9,0a1.6,1.6,0,0,0-.8,1.2c1-.4.8-.6,1.6-1s-1.4,1.2-1.5,1.9,1-.7,1.7-.9-.9.9-1.7,1.5,1.2-.4,1.8-.5-1,.8-1.8,1.3,1.2-.2,1.7-.4-.9.6-1.7,1.1v5.2c.4-.5.1-.5.7-.6s-.8.9-.7,2.3c.7-.5.7-1.6,1.3-2.1.6,1.3-1.3,2.3-1.3,3.5,1.4-.7,1.2-2.6,2.1-3.2s-.2,1.5-.5,2.1a5.9,5.9,0,0,1-1.6,1.6v2.3a14.1,14.1,0,0,0-.1,3,8.7,8.7,0,0,0,4-1.9c1-1,1.4-2.3,1.7-4.1,5.5.8,9.1,1,12.5-3.6A12.5,12.5,0,0,0,66,63.6c-1.1.5-.7,1.2-1.3,2.4a4.2,4.2,0,0,1-1.7,2.1,11.1,11.1,0,0,0,1.7-3.7c-.9.3-.9,3.2-2.7,4.1.5-1.2,1.3-1.9,1.6-3.6-1.1.3-.5,1.2-1.9,3.1s-.3.6-.8.8l.9-1.5c.2-.5.7-1.4.4-1.8s-.6,2.7-1.7,2.7.9-1.7.5-2.2-.6,2.3-1.7,2.4.7-1.5.5-2-.5.3-.7,1.1-.2.9-1,1l.6-1.7c-1.2.3-.4,1.4-1.7,1.7l.5-1.3c-1.3.2-.4,1.3-1.6,1.2l.3-1.7c-.5.6-.4,1.2-1.1,1.6s.7-1.4.4-2.3-.4.5-.6,1-.3.8-.9,1,1-1.9.6-2.8-.7,2.1-1.7,2.4,1.1-2,.8-3-.6.6-.9,1.2-.4,1-1.1,1.2,1.2-2.1.9-2.8-.7.6-.9,1.1-.3.7-1,1.1,1.2-1.8,1-2.6-.8,1.3-2,1.9.9-1.3,1.1-2.2-1.2,1.1-1.9,1.5l.8-1.7c-1.3-.1-.6.5-1.7,1l.6-1.2h-2c1.7-.8,3.8-.5,5.8-.3a12.9,12.9,0,0,1-.9-3.9,17.3,17.3,0,0,0,1.4,4c.2-.2.1-.1.1-.6l-.2-.6c.6.2.6.6.9,1.2l.2-.9.5,1.1c.1-.2,0-.2.1-.5h0v-.2h0l.6.6c0-.6-.2-.1,0-.5l.2.2c.3.4.2.6.6.7s-.3-.5-.1-.9.1,0,.3.4l.2.5c.2-.2,0-.1.1-.5l.5.3.2-1,.6.7c.1-.4,0-.7.3-.9l.3.7c.3-.4.1-.3,0-.9s.3.3.7.6v-.9c.7.3,0,.2.6.4l.6-.5a4.1,4.1,0,0,1-.8,1.6H59c4.5-.3,11.1-1.2,12.8-6.1a2.8,2.8,0,0,0-1.1-.8l-.2,1.6a1,1,0,0,1-.2.5c0-1,.2-2.1-.3-2.7l-.2,1.8c-.7-.6,0-1.7-.7-2.3s.2,2.2-.4,2.9c-.4-.9.1-2.7-.6-3.3s-.1,2.8-.1,3.8-.1,0-.3-.5.1-2.9-.5-3.8v.3c-.3,1,.3,2.5-.2,3.4l-.2-1c0-.4,0-.9-.1-1.3s.1-1.5-.4-1.8.4,3.3-.2,4.4c-.9-1,.2-3.9-.8-4.7-.6.9.4,3.7-.2,4.9-.6-.7-.3-4-.6-5-.7.6-.2,2.9-.2,3.9a4,4,0,0,1-.1.7c-.1.5,0,.3-.3.5l-.3-4.3c-.8.4-.4.4-.4,2.1s0,.9,0,1.3a5.2,5.2,0,0,1,0,.5v.4h-.1c-.3-1.1.1-2.8-.4-3.7-.8.7.1,2.9-.6,3.9-.4-.9.1-2.5-.4-3.2s-.2,2.5-.5,3.3c-.4-.8.1-2.1-.4-2.8s-.4.7-.5,2.1a3.2,3.2,0,0,1-.3-1.6c-3.2.9-4.6,2-8.4,1.8,2.6-1,7-1.2,9.3-5.9a28.8,28.8,0,0,0-4.4-1.2c2.1-.2,2.7.5,4.1.5l-.3-.3c-1.2-.7-2.8-.6-4.1-.8a20,20,0,0,1,2.8,0c.8.1,2,.9,2.6.3a15.9,15.9,0,0,0-5.3-1.2c2.7-.4,5.6.8,6,.6s-2.5-.9-3.5-1.1l-1.4-.4a15.6,15.6,0,0,1,3.1.2c.7.1,2,.8,2.4.6s-4.3-1-5.4-1.4a12.1,12.1,0,0,1,4.7.5c.6.2.8.4,1.2.2s-2.9-.6-3.8-1.3c1.1-.8,3.5,1,4.3.4-1-.6-2.4-.6-3.4-1s-.2,0-.4-.3,3.7.9,4.2.6-2.9-.6-3.8-1.3c.8-.7,3.2.3,4,.6s-.3-.5-1.6-.9l-1.6-.4c-.7-.3-.2,0-.5-.3s3,.4,3.9.7-.2-.5-1.5-.8a12,12,0,0,1-2.1-.6c.8-.7,2.9.3,3.8.5s-.8-.6-1.6-.8a5.1,5.1,0,0,1-1.9-.7c1.1-.8,2.5.9,3.6.4-.9-.7-2.6-.6-3.3-1.3h.3a7.3,7.3,0,0,1,3,.7c-.3-.5-.8-.6-1.5-.8l-.9-.2c-1-.4-.4,0-.7-.5s2.1.3,2.9.5-1.4-.7-2.1-.9-.4.1-.6-.5,1.7.2,2.4.5-.5-.5-.9-.6-1-.2-1.4-.6,1,0,1.5.1.1.1.5-.1-1.6-.5-1.9-.9.6-.1,1.2,0-.8-.1-1.1-1a2.5,2.5,0,0,0-1-1.3,8.1,8.1,0,0,1,4.2,3.8c.5.9,0,.4.7.8s-.7-1.2-1-2,1.1,1.6,1.7,1.8a21.2,21.2,0,0,0-2.2-3.4,15.9,15.9,0,0,1,2.1,2.4c.4.6.3.6.8.8s-1.6-2.4-2.1-3.4,0-.1.5.3,1.5,2.5,2.5,2.9a25.3,25.3,0,0,0-1.7-2.8c.7.3.8.5,1.3,1.2s.6,1.1,1,1.2-1.3-1.7-1.4-2.7.3-.1.7.4.8,1.9,1.4,1.9v-.2a.8.8,0,0,0-.1-.3c-.3-.7-.8-1-1-1.6a.9.9,0,0,1,0-.4c.4.1.7.6,1,1l.4.7c.5.8,0,.3.6.5s-1.2-1.6-1.2-2.5,1,1.1,1.5,1.7l.3.3c.4-.8-1.1-1.6-.8-2.5s1,1.4,1.6,1.9c0-1.1-.8-1.2-1-2.4s1.1,1.7,1.6,1.6-.8-1.3-.9-2H72c.5.3.5.9.9,1.3s-1-1.1-.5-2.2.2,0,.6.5l.6.6c-.2-.6-.4-.6-.6-1.1v-.4c.3-.1.8.6,1,.8l-.7-1.4c.6.3.4.4,1,.6s-.1-.4-.5-1l.7.5c-.3,2.5-1.2,3.6-1.4,4.9a7.1,7.1,0,0,0,.7-1.1c.5-1.1.1-1,.9-1.2s-.8,2.2-1.1,2.8.9-2.7,2.1-2.7c-.1,1.5-1,2.2-1.4,3,1.3-.3,1.1-2.4,2-3.1s.1-.1.1.4.1,0,0,.4a8,8,0,0,1-1.1,2.4c.6-.2.4.1.8-.6s.5-2.5,1.3-2.8a9,9,0,0,1-.9,3.2c1.1-.6.9-2.4,1.5-3.5a2,2,0,0,1,.1,1.6c-.1.6-.3,1-.5,1.4s.8-1.1.9-1.9l.2-2.4a6.1,6.1,0,0,1,.1,3.6c.9-.7.5-2.5.4-3.6l.5.9a1.1,1.1,0,0,1,0,.8c.6-2.5-1.5-4-2.8-4.9l.2-.4.2-.3ZM45,20.4c.2,43.4,0,86.9,0,130.3,0,10.1-.7,20.7,8.7,26.8,4.9,3.2,12.1,4.5,19.1,4.5,9.9,0,25.5-.6,33.4,4.2a9.6,9.6,0,0,1,3.6,3.7c.3.6.3,1.4,1.1,1.3s.5-1.2,2.1-2.9a10.8,10.8,0,0,1,2.7-2.2c7-4.1,21.1-4.2,29.4-4.1,15,.2,29.3-2,31.2-20a112.9,112.9,0,0,0,.2-11.5V20.4Z" transform="translate(-1.3 -20.4)"/><path class="cls-3" d="M81.4,121c.9.1,2,1.1,2.8,1.5l2.2-1.5c.8-.7,1.3-1.4,2.4-1.6a3.3,3.3,0,0,1,4.1-.6c-.2,2-2.5,2.1-3.7,3.9h19.8c.8-.3.6-1.2,2.3-1.1s1.4.8,2.3,1.1h18.6a17.4,17.4,0,0,0-1.4-1.4c-.2-.2-2.2-1.4-.8-2.3s2.4-.1,4,.9l1.9,1.3c.7.5,1.2,1.1,1.8,1.4s2.6-2.6,3.9-.9,0,.8.8,1h33V106.7H45.9v15.9H80.3C80.5,121.5,80.6,121.5,81.4,121Z" transform="translate(-1.3 -20.4)"/><path class="cls-3" d="M49.6,172.2h.1L52,175c7.7,6.8,18.3,6,28.1,6.1,6.8.1,27.4.1,30.6,8.7l.2-.2h.1l.3-.5a12.6,12.6,0,0,1,4.6-4.1c10.6-5.9,32.4-2.3,44.1-5.1a21.1,21.1,0,0,0,11-6.1,10,10,0,0,0,1-1.4c-3.8-.4-9.2,0-13.1,0h-36c-2.6,0-1.7.1-2.4.9s-7.7-.1-8.3,0,.2,2.4-.7,3.3a2.6,2.6,0,0,1-2.1-.3c-.3-.8-.1-2.4-.2-3.4-1.6-.9-12-.5-14.6-.5Z" transform="translate(-1.3 -20.4)"/><path class="cls-1" d="M112,168.5a44.5,44.5,0,0,0,9.2-.8c1.3,2.1.6,2.2-.1,4h51.2c.6-1.8,1.5-2.2,2.6-7a34,34,0,0,0,.6-8.9h-63Z" transform="translate(-1.3 -20.4)"/><path class="cls-4" d="M54.6,42.2c.2-.7,1.7-1.6,2.3-2.1s.1.3.1.5v.5a4.3,4.3,0,0,1-2.3,1.5c.1-.7.1-.4,1.1-1.1-.6.4-.6.5-1.3.6Zm1.9-3.3-2.4,2c.3.2-.1.2.3.1h.4c-.7.5-.3-.1-.5.8A12.6,12.6,0,0,0,56.9,40l-.4-1.1Zm15.7-9.1c.1-.7.3-1.2.4-1.9s-.2-1.2.8-1.4a7.3,7.3,0,0,1-.3,2.9c-.4.8.1.4-.8.4Zm2.9.6c-.2-.3-.5.5,0-.6a8.5,8.5,0,0,0,1.1-2.6v-.6c.2-.4,0-.2.4-.3s.3-.1.2.7-1.1,3.5-1.9,3.5ZM51,33.9c-.9-1.9.3-2-2.1-6.8.8.3.6.4,1.3.8s.9.6,1.4,1.8l.7,3.3a5.1,5.1,0,0,1,0,.5c-.1.4-.1.3-.2.5s-.1,0-.2-.5V33c-.3-1.6-.6-3.7-1.7-4.9.3,1,1.8,4.9.9,5.9Zm26.5-3.4a13.8,13.8,0,0,0,1.6-3.3l-.6-.4c-1.1,3.5-2,3.1-2.1,4.2s.1.2.6-.1l.4-.3Zm-4.3-.6c.6,0,.6.4,1.2-1.5a3.9,3.9,0,0,0,.2-2.3c-1,.2-.6.6-.8,1.7s-.5,1.3-.6,2.1Zm2.5.7c.6.1.8.1,1.7-1.7l.5-1.2c.5-1.6.2-1.1,0-1.3s-.3.7-.9,2.1a23.1,23.1,0,0,0-1.2,2.2Zm-1.7-.6c.8.1.6.2.9-.5a12.6,12.6,0,0,0,.9-2.8c0-.9,0-.3-.2-.6s-.6,1.1-.9,2-.6,1.3-.8,2Zm3.5.4c1.4-.6,2.2-3.6,2.2-4.9a7.1,7.1,0,0,0-.8-2.7c-.5-1.1-.7-1.7-2.1-1.7a14,14,0,0,1,.8,1.8c-.3-.2-.1,0-.4-.4A3.3,3.3,0,0,1,77,22c-.3-1,.1-.6-.8-.8v.5c.1.4,0,.1.2.5l-.6-.8h-.1c-.7,0-.2.1-.7.2h-.2a13.8,13.8,0,0,0-3.9-.2c1,4.5,2.1,4.3.7,9.6a2.3,2.3,0,0,0-.3-1.2A3.3,3.3,0,0,1,70,31.2c.3-.8,1.3-1.6,1.4-2.4s.3.1-.1-.5a11.3,11.3,0,0,1-3.4,3.9c.5-.9,1.8-2.3,2.5-3.6l.7-.8h.2c-.6-1.9-2.9-6.4-5.2-6.5H54.2l-1.8,2.5a4.5,4.5,0,0,1-.6,1.3l-.5.7c-.4.5,0,.4-.7.4s.7-.9,1-1.7a9.1,9.1,0,0,1-5.1,1.8h.1l1.2-.8,1.1-1.1a5.7,5.7,0,0,0,1.4-3c-.6.3-.5.8-.9,1.2s0-.7.1-1.1l-.9.9v-1c-.6.7-.1.5-.8,1.1v-.2h0v-.7c-.3.1-.5.6-.8.8v-.9l-.3.2c-.3.1-.3.2-.6.1h-.1l-.3-.2c.1.6.1.3.2.5a3.4,3.4,0,0,1,.3.6c-.7.5-.4.6-.5,1.8h.5c-.8.7-.3.7-.4,1l-.2.8a5.9,5.9,0,0,1,2,3.2l.8,3.2c.1,1,.3.4-.1,1.1s-.9-3.4-1.7-5.3l-1-1.5c-.1,2.1,1.3,3.4,1.4,5.5s.1.6-.3.9-.4-2.8-1.1-3.8c-.2,2.5,0,5.4,0,7.9v5.8c0,1.1-.2,1.2.6,1.5h-.4c-1,.9,1.8,1.2,3.3,4,.4.7,0,.5.6.6-.7-2.9-1.9-2.6-3-4.2,2.1.5,2.7,2.4,3.6,4,.2-.3.2,0,.1-.5a4.1,4.1,0,0,0-.7-1.7c-.5-.9-.9-1.2-1.5-1.9a3.2,3.2,0,0,1,1.8,1.6l1.1,2.3c.4-1.3-1.1-2.9-1.5-3.7,1.6,0,1.5,2.2,2.2,3.3.4-.9-.5-2.3-.9-3.2,1.5.3,1,1.6,1.6,2.7h.1a6.6,6.6,0,0,0-.4-2.2c1,.2.8.8,1,1.8a7.3,7.3,0,0,0,1.6-1.6,6.1,6.1,0,0,1-3,4.5c-1.4.7-2.8,4.1-3.3,3.8v-.2h0l.3-.5a14.4,14.4,0,0,0,1.9-2.4c-1.2.1-1.8,2-2.6,2.8l-.6-.4h-.1c-.2.5-.5.8-.6,1.2s.6.2-.4,1-.8.6-.9,1.2V58c.7-.3.3,0,.8-.6l-.8,1.4c.2.1.6-.1.9,0a1.6,1.6,0,0,0-.8,1.2c1-.4.8-.6,1.6-1s-1.4,1.2-1.5,1.9,1-.7,1.7-.9-.9.9-1.7,1.5,1.2-.4,1.8-.5-1,.8-1.8,1.3,1.2-.2,1.7-.4-.9.6-1.7,1.1v5.2c.4-.5.1-.5.7-.6s-.8.9-.7,2.3c.7-.5.7-1.6,1.3-2.1.6,1.3-1.3,2.3-1.3,3.5,1.4-.7,1.2-2.6,2.1-3.2s-.2,1.5-.5,2.1a5.9,5.9,0,0,1-1.6,1.6v2.3a14.1,14.1,0,0,0-.1,3,8.7,8.7,0,0,0,4-1.9c1-1,1.4-2.3,1.7-4.1,5.5.8,9.1,1,12.5-3.6A12.5,12.5,0,0,0,66,63.6c-1.1.5-.7,1.2-1.3,2.4a4.2,4.2,0,0,1-1.7,2.1,11.1,11.1,0,0,0,1.7-3.7c-.9.3-.9,3.2-2.7,4.1.5-1.2,1.3-1.9,1.6-3.6-1.1.3-.5,1.2-1.9,3.1s-.3.6-.8.8l.9-1.5c.2-.5.7-1.4.4-1.8s-.6,2.7-1.7,2.7.9-1.7.5-2.2-.6,2.3-1.7,2.4.7-1.5.5-2-.5.3-.7,1.1-.2.9-1,1l.6-1.7c-1.2.3-.4,1.4-1.7,1.7l.5-1.3c-1.3.2-.4,1.3-1.6,1.2l.3-1.7c-.5.6-.4,1.2-1.1,1.6s.7-1.4.4-2.3-.4.5-.6,1-.3.8-.9,1,1-1.9.6-2.8-.7,2.1-1.7,2.4,1.1-2,.8-3-.6.6-.9,1.2-.4,1-1.1,1.2,1.2-2.1.9-2.8-.7.6-.9,1.1-.3.7-1,1.1,1.2-1.8,1-2.6-.8,1.3-2,1.9.9-1.3,1.1-2.2-1.2,1.1-1.9,1.5l.8-1.7c-1.3-.1-.6.5-1.7,1l.6-1.2h-2c1.7-.8,3.8-.5,5.8-.3a12.9,12.9,0,0,1-.9-3.9,17.3,17.3,0,0,0,1.4,4c.2-.2.1-.1.1-.6l-.2-.6c.6.2.6.6.9,1.2l.2-.9.5,1.1c.1-.2,0-.2.1-.5h0v-.2h0l.6.6c0-.6-.2-.1,0-.5l.2.2c.3.4.2.6.6.7s-.3-.5-.1-.9.1,0,.3.4l.2.5c.2-.2,0-.1.1-.5l.5.3.2-1,.6.7c.1-.4,0-.7.3-.9l.3.7c.3-.4.1-.3,0-.9s.3.3.7.6v-.9c.7.3,0,.2.6.4l.6-.5a4.1,4.1,0,0,1-.8,1.6H59c4.5-.3,11.1-1.2,12.8-6.1a2.8,2.8,0,0,0-1.1-.8l-.2,1.6a1,1,0,0,1-.2.5c0-1,.2-2.1-.3-2.7l-.2,1.8c-.7-.6,0-1.7-.7-2.3s.2,2.2-.4,2.9c-.4-.9.1-2.7-.6-3.3s-.1,2.8-.1,3.8-.1,0-.3-.5.1-2.9-.5-3.8v.3c-.3,1,.3,2.5-.2,3.4l-.2-1c0-.4,0-.9-.1-1.3s.1-1.5-.4-1.8.4,3.3-.2,4.4c-.9-1,.2-3.9-.8-4.7-.6.9.4,3.7-.2,4.9-.6-.7-.3-4-.6-5-.7.6-.2,2.9-.2,3.9a4,4,0,0,1-.1.7c-.1.5,0,.3-.3.5l-.3-4.3c-.8.4-.4.4-.4,2.1s0,.9,0,1.3a5.2,5.2,0,0,1,0,.5v.4h-.1c-.3-1.1.1-2.8-.4-3.7-.8.7.1,2.9-.6,3.9-.4-.9.1-2.5-.4-3.2s-.2,2.5-.5,3.3c-.4-.8.1-2.1-.4-2.8s-.4.7-.5,2.1a3.2,3.2,0,0,1-.3-1.6c-3.2.9-4.6,2-8.4,1.8,2.6-1,7-1.2,9.3-5.9a28.8,28.8,0,0,0-4.4-1.2c2.1-.2,2.7.5,4.1.5l-.3-.3c-1.2-.7-2.8-.6-4.1-.8a20,20,0,0,1,2.8,0c.8.1,2,.9,2.6.3a15.9,15.9,0,0,0-5.3-1.2c2.7-.4,5.6.8,6,.6s-2.5-.9-3.5-1.1l-1.4-.4a15.6,15.6,0,0,1,3.1.2c.7.1,2,.8,2.4.6s-4.3-1-5.4-1.4a12.1,12.1,0,0,1,4.7.5c.6.2.8.4,1.2.2s-2.9-.6-3.8-1.3c1.1-.8,3.5,1,4.3.4-1-.6-2.4-.6-3.4-1s-.2,0-.4-.3,3.7.9,4.2.6-2.9-.6-3.8-1.3c.8-.7,3.2.3,4,.6s-.3-.5-1.6-.9l-1.6-.4c-.7-.3-.2,0-.5-.3s3,.4,3.9.7-.2-.5-1.5-.8a12,12,0,0,1-2.1-.6c.8-.7,2.9.3,3.8.5s-.8-.6-1.6-.8a5.1,5.1,0,0,1-1.9-.7c1.1-.8,2.5.9,3.6.4-.9-.7-2.6-.6-3.3-1.3h.3a7.3,7.3,0,0,1,3,.7c-.3-.5-.8-.6-1.5-.8l-.9-.2c-1-.4-.4,0-.7-.5s2.1.3,2.9.5-1.4-.7-2.1-.9-.4.1-.6-.5,1.7.2,2.4.5-.5-.5-.9-.6-1-.2-1.4-.6,1,0,1.5.1.1.1.5-.1-1.6-.5-1.9-.9.6-.1,1.2,0-.8-.1-1.1-1a2.5,2.5,0,0,0-1-1.3,8.1,8.1,0,0,1,4.2,3.8c.5.9,0,.4.7.8s-.7-1.2-1-2,1.1,1.6,1.7,1.8a21.2,21.2,0,0,0-2.2-3.4,15.9,15.9,0,0,1,2.1,2.4c.4.6.3.6.8.8s-1.6-2.4-2.1-3.4,0-.1.5.3,1.5,2.5,2.5,2.9a25.3,25.3,0,0,0-1.7-2.8c.7.3.8.5,1.3,1.2s.6,1.1,1,1.2-1.3-1.7-1.4-2.7.3-.1.7.4.8,1.9,1.4,1.9v-.2a.8.8,0,0,0-.1-.3c-.3-.7-.8-1-1-1.6a.9.9,0,0,1,0-.4c.4.1.7.6,1,1l.4.7c.5.8,0,.3.6.5s-1.2-1.6-1.2-2.5,1,1.1,1.5,1.7l.3.3c.4-.8-1.1-1.6-.8-2.5s1,1.4,1.6,1.9c0-1.1-.8-1.2-1-2.4s1.1,1.7,1.6,1.6-.8-1.3-.9-2H72c.5.3.5.9.9,1.3s-1-1.1-.5-2.2.2,0,.6.5l.6.6c-.2-.6-.4-.6-.6-1.1v-.4c.3-.1.8.6,1,.8l-.7-1.4c.6.3.4.4,1,.6s-.1-.4-.5-1l.7.5c-.3,2.5-1.2,3.6-1.4,4.9a7.1,7.1,0,0,0,.7-1.1c.5-1.1.1-1,.9-1.2s-.8,2.2-1.1,2.8.9-2.7,2.1-2.7c-.1,1.5-1,2.2-1.4,3,1.3-.3,1.1-2.4,2-3.1s.1-.1.1.4.1,0,0,.4a8,8,0,0,1-1.1,2.4c.6-.2.4.1.8-.6s.5-2.5,1.3-2.8a9,9,0,0,1-.9,3.2c1.1-.6.9-2.4,1.5-3.5a2,2,0,0,1,.1,1.6c-.1.6-.3,1-.5,1.4s.8-1.1.9-1.9l.2-2.4a6.1,6.1,0,0,1,.1,3.6c.9-.7.5-2.5.4-3.6l.5.9a1.1,1.1,0,0,1,0,.8c.6-2.5-1.5-4-2.8-4.9l.2-.4Z" transform="translate(-1.3 -20.4)"/><path class="cls-1" d="M104,170.9l-1.6-.8c-1.3-.7-2-1-2-2.8s.8-.5,2-.2a32.6,32.6,0,0,0,6.6,1.3V155.8h-63a37.7,37.7,0,0,0,.7,9c.4,1.8,1.7,6.2,2.9,6.9h56.2A5.3,5.3,0,0,0,104,170.9Z" transform="translate(-1.3 -20.4)"/><path class="cls-3" d="M116,143l3.2,2,6.2,4a25.6,25.6,0,0,0,3,2c2.6.5,1.4,4.6-.9,4.1-.8-.2-4.1-2.6-4.9-3.2l-4.8-3.3-4.8-3.2-.3,10h63.1V139.5c-5.1-.2-10.6,0-15.7,0H120.3c-2.8,0-1.9.1-4.3,1.6l-.6.4-.6.6C115.2,142.5,115.5,142.5,116,143Z" transform="translate(-1.3 -20.4)"/><path class="cls-3" d="M106.8,143c.3-.4.7-.5,1.1-.9l-.2-.2-.3-.3-1.8-1.2c-1.3-1-1.1-.9-3.2-.9H78.2c-10.7,0-21.6-.2-32.3,0v15.9H94.5c-.5-.4-1.5-1.1-1.6-1.9A3.8,3.8,0,0,1,93,152c.4-.8,4.3-3,5.2-3.6S105.9,143.2,106.8,143Z" transform="translate(-1.3 -20.4)"/><path class="cls-2" d="M93.2,93.6a1,1,0,0,0-.1.9l.6.6-1.2.3-.4-1.4,1.1-.3Zm36.9-.1,1.4.5-.4,1.5-1.5-.5h.1l.2-.2.3-.3v-.9Zm1.9,1.9a6.9,6.9,0,0,1,1.4-3.1C135,89,142,89,144.2,93.5a2.5,2.5,0,0,1,.4,2,7.4,7.4,0,0,1-.1,2.7c-.2.5-.2.4-.3.5.3-3.6-.6-3.4-.6-4.3a6,6,0,0,1-.2,4.7c.2-.8.6-3.2-.3-3.7s.1,1.1,0,2a9.3,9.3,0,0,1-.5,1.4,5.1,5.1,0,0,0,.2-2c-.1-1.2,0-1.2-1-1.3v1.9c-.1-.4-.2-1-.3-1.5s-.2-.6-.7-1-.7-1.2-1.9-1.4a3.7,3.7,0,0,0-4.3,2.2c.4-2.2,2.5-3,4.7-2.6-.2-1.3-2.7-.6-3.5-.3s-1.6,1.2-2.5,2.3a4.9,4.9,0,0,1,6-3.2c-.5-.6-3.4-.7-5.6,1.4l-1.2,1.4a6.3,6.3,0,0,1,1-2.1c-.8.5-.8.6-1.2,1.3a4.4,4.4,0,0,0-.7,1.4Zm-10.2-3.2c.7-.4.6-.1.8-.9V91h0l2.2.8c-.7,0-.5.1-.8.4s0,.5.5,1.1l-2.8-.9ZM79.3,94.6c.9-.9.7-1.5,2.4-2.5-.6.6-1.9,2-2,3.4a5.3,5.3,0,0,1,2.3-3,5.4,5.4,0,0,1,4.5-.7c-2.4-.2-4.9.5-5.7,3.1l.3-.3c1-1.2,1.9-2.2,4-2.2s1.5.5,1.5.7c-2.5-.4-4,.4-4.7,2.3a3.8,3.8,0,0,1,4.1-1.9,4.3,4.3,0,0,1,2.7,2.9v-.9c.7.2.8,0,1,.8a7.4,7.4,0,0,1,0,1.8c.6-1.2,0-1.8.3-2.7.7.7.5,2.1.4,3a4.9,4.9,0,0,0,.3-2.8l.2.4a8.4,8.4,0,0,1-.1,3.3c.3-1.6.9-1.7.5-4,.4-.3-.1-.1.2-.1H92a6.7,6.7,0,0,0-10.7-4.2c-1,.8-.3.5-.9,1.3a4.9,4.9,0,0,0-1.1,2.1Zm21.6-3.8v1.1l.9.2-2.9.9c.5-.3.3-.1.5-.9l-.7-.6,2.2-.8Zm13.2-1.4c.8-.3.5-.6,1.5-.8s1,.1,1.6.3l-.8.3c-.1.9-.3.7.3,1.1l-2.6-1Zm-4.6-.1a11.2,11.2,0,0,1-3,1.1c1-.3.5-1.1,0-1.6,2.5-.7,1.6.8,3,.5Zm7.9-1.1c1,.2,1.1.3,1.3,1.3s-.5-.1-.8-.5-.3-.3-.4-.8Zm-11.3-1.5c1.1-.1,1.2-.3.9-1.2a4.8,4.8,0,0,1,2.1.8c-1.5.9-1.1,1.2-2.9.4Zm7.9-.4a12.7,12.7,0,0,1,2.7-.9c-.6.3-.4.2-.3,1.1l.9.2c-2.5.9-1.6-.1-3.3-.4Zm9.9-3.4c.2.7,0,.6.3.9s.4.2.7.3l-2.6.8c.4-.8.1-1-.4-1.4l1.9-.7Zm-24.6.9c.1-.6.3-.7-.3-1.1l1.2.3,1.2.6c-.9.6-.7,1.1,0,1.4a13,13,0,0,1-3-1l.8-.3Zm31.9-3.6.5,1.5-1.7.5c.7-.6.3-1-.2-1.5l1.5-.5Zm-38.6.2,1.2.4-.6.5a1.8,1.8,0,0,0,.2,1l-1.4-.4.6-1.5Zm39.6-3.7a6.4,6.4,0,0,1,.8-1.9,5.3,5.3,0,0,1,4.7-3c3.8-.3,5.3,1.6,6.9,3.9-.3,1.6.4-1.1-.1.3s1,3,0,4.6a5.8,5.8,0,0,0-.3-3.3,7,7,0,0,1-.5,3.9,7.1,7.1,0,0,0,.2-2c-.1-1.9-.3-1.6-.6-1.7a9,9,0,0,1-.2,3.2c-.1-1.1.7-2.7-.9-3.1l-.2.9a4.5,4.5,0,0,0-2.8-3c-1.9-.4-3.9,1-4.2,2.3a3.4,3.4,0,0,1,3.1-2.8h.9c.7,0,.3.2.7-.2s-2.7-.4-3.5,0a3.2,3.2,0,0,0-1.2.9l-1.1,1.1c.6-2.3,3.1-3.2,5.9-2.9a5.1,5.1,0,0,0-4.2.3,7.9,7.9,0,0,0-2.6,2.5,6.2,6.2,0,0,1,1.7-2.6,6.6,6.6,0,0,0-2.4,2.8Zm-53,.7a7.4,7.4,0,0,1,1.4-3.2c.4-.8-.3,0,.4-.8,3.3-3.2,10.6-1.6,11.1,3.9.1-.5-.2-.2-.3-.2a4.2,4.2,0,0,1-.2,2.9,6.8,6.8,0,0,0-.1-2.1l-.2-.4a4.5,4.5,0,0,1-.3,2.6,9.7,9.7,0,0,0,0-1.8l-.4-1.1c-.4.8.2,1.5-.4,2.7a6.3,6.3,0,0,0-.1-1.9c-.2-.7-.1-.6-.8-.7L89,79.8c-.1-1,0-2-.6-2.6l-1.7-1.5a3.6,3.6,0,0,0-3.8.7l-.6.6h-.2a3.4,3.4,0,0,1,3-2.2h1.5c-1.1-1.6-5.9.6-6.1,2.9a4.5,4.5,0,0,1,2.1-3.2c1.6-1,2.2-.8,4.1-.7-3-1.2-6.4,1.3-7,3.6a7.2,7.2,0,0,1,1.2-2.7,4.7,4.7,0,0,0-1.9,2.8ZM132.6,74c-1.3,1.7-1.4,2.4-1.7,4.9-.7.4-1.6.5-2.3.9s-1.1,1.9-1.2,1.7h-.1c-1.9,1-1.1-.4-3.5-.3l.3.2c.9.4,1.2,0,1.4.7a7.2,7.2,0,0,0-3.1.5l-1.2.5c-.7.4-.2.6-1,.5s.6-.9,1.3-1.1l1-.3,1-.7c-2.8.6-3.4,1-3.8,2.7l-1.5.4c-1.1-1.4-2.2-.6-3.7-.1s-1.7.6-2.7,2.5c.7-.1,1.8-.7,2.2-.4a22.6,22.6,0,0,1-4.5,1.6l2.3-1h-.1c-1.8-1.2.5-1.4-2.9-2.6-1.5-.5-2.8-1.3-3.9.1l-1.5-.4c-.2-1.8-.9-1.8-2.6-2.4s-2.5-1.1-3.6.1c-2.4-.4-1.1-.6-2.1-1.8s-1.6-.8-2.5-1.2c-.2-2.3-.3-3.4-1.6-5a7.3,7.3,0,0,0-12.3,7.4,6.6,6.6,0,0,0,1.3,2,7.3,7.3,0,0,0,7.3,2,7.3,7.3,0,0,0,3.8-2.6c.8.1,1.5.5,2.3.6s1.5-.6,2-.7c2-.1.4,1.6,2.9,2.4s2.8,1.3,4.2.5a1.2,1.2,0,0,1,1.8.4c.2.4.1.4.4.9l.6.7c-.9.5-.8.7-1.1,1.9l-1.2.3c-1,0-.4-1.3-3.3-.3s-2.8.5-3.2,2.6c-2.4.6-.7.3-2.5-.3s-1.8.3-2.7.5A21,21,0,0,0,89.8,91a7.3,7.3,0,0,0-7.7-.8c-7.5,3.7-3.7,15.3,4.6,13.6a7.2,7.2,0,0,0,4.1-2.4c1.4-1.6,1.2-2.5,1.8-4.8a6.3,6.3,0,0,0,2.5-1.1c.9-1.1-.4-1.1,1.8-1.8s0,1.5,3.9.1,1.8-1.3,2.6-2.3,1.2-.3,2,.1a3.4,3.4,0,0,0,2.6-.3,7.1,7.1,0,0,0,2.3-.9c1-.9.1-1.5,1.4-1.7s.3,1.4,1.4,1.9,3.6,1.5,4.6.9.4-.6,2.1-.1.9,1.8,2.3,2.2,2.4,1.1,3.5.4.6-.7,1.5-.2-1,1.4,3.8,2.8c.4,2.5.6,3.2,1.8,4.9,2.9,3.8,10.6,3.3,12.4-2.6a7.2,7.2,0,0,0-3.8-8.8,7.6,7.6,0,0,0-5.5-.3c-1.9.6-2.7,1.8-3.8,2.9s-2-.9-2.9-.6-1.7,1.7-2.7-.5-.4-.9-1.5-1.3a19.4,19.4,0,0,0-2.7-.9c-2-.3-1.4,1.3-3,.4s-.3-1.2-1.4-2c.8-.8.7-.5,1-1.8,2.4-1.3,1.2.9,3.8.1,5.5-1.7,2.7-2,4.2-2.9s1.1-.2,1.6.1,2.3-.2,3.6-.5,1.6,2,3.9,2.7a7.4,7.4,0,0,0,5.5-.5c7.2-3.8,3.6-15.2-4.9-13.6A7.1,7.1,0,0,0,132.6,74Z" transform="translate(-1.3 -20.4)"/><path class="cls-1" d="M78.4,130a29.1,29.1,0,0,1,3.1-4.4l.9-1.2c-1.2-1.1-1.4-1.3-3.4-1.3-11,.1-22.1-.1-33,0V139h57.6L85.7,126.6c-1.1.8-3.6,5.9-3.8,7.6-1.9-.3-4-1.8-4.6-3l1.1-1.2Z" transform="translate(-1.3 -20.4)"/><path class="cls-1" d="M140,124.6c.6,1.1,2.4,3.2,3.8,5.8a15.1,15.1,0,0,0,1.2,1.9,8,8,0,0,1-5,2.8,16.7,16.7,0,0,0-1.7-4.1l-1-1.8-1.1-1.7H136L119.2,139h56.4V123.1c-6.6-.4-19.9,0-27.7,0C142.5,123.1,142.6,122.5,140,124.6Z" transform="translate(-1.3 -20.4)"/><path class="cls-5" d="M66.4,43.3c0,3.9-1.1,5.1-1.9,8.1,2,1.5,12.8,8.3,14.5,9.1a89.5,89.5,0,0,0,8.5,3.3l2,.8a10.8,10.8,0,0,1,1.8,1.2c1.7,1.1,3.3-.3,4.6-.9s-.2.2,0,.9a37.7,37.7,0,0,0,9.8-2.6c2.1-.8,2.5-.8,3.3-2.9,1.7-4.3-1.6-11.8-6.7-11.1a20.9,20.9,0,0,0-4.9,1.4c-1.3.5-3.5,2-4.3,2.1s-5.7-5.6-6.8-6.5C83.4,44.1,79.6,40.7,75,40c.3.5.5.4.8,1-1.3-.2-1.8-1.3-3.2-1.6A7.4,7.4,0,0,1,70,41.8,9.4,9.4,0,0,1,66.4,43.3Z" transform="translate(-1.3 -20.4)"/><path class="cls-6" d="M151.5,40.4c.8,2.3.5,2.1,0,2.3s-.4-1.7-.7-2.5-1-1.4-.4-2,.1-.1.4.5l.2.5.5,1.2Zm1.3.5-1.2-3c-.3-.4-.1-.2-.6-.3s.8,2,1.1,3.6v.6c.2.5,0,.3.4.4s.5,0,.1-1.3Zm.9.9c.6-.4.5-.3.2-1.2l-1.3-3.2c-.3-.4,0-.3-.6-.3s.8,1.8,1.2,3.5,0,.9.5,1.2Zm1.3-1.6c.2.9.3.8-.4,1.1a15.6,15.6,0,0,1-.9-2.6c-.6-1.5-1.1-1.8-.8-2.4s.2-.3,1,1.1l1.1,2.9ZM91.4,50.4a17.2,17.2,0,0,0,.9-2.6,22.4,22.4,0,0,1,1.2-2.4,21.6,21.6,0,0,1,2.2-3.3c.3-.4.4-.8,1-.5s-2,3-2.7,4.3-1.8,4-1.8,5v.5c.5-1,.4-2.4,2-5.3.3-.5,2.5-4.4,3-4s.4-.1-.3.9-3.7,5.7-3.9,8.8c.4-.3.2,0,.4-.5l.6-2.2c.5-1.5,3.1-6.8,4-6.7s0,.6-1,1.9a21.9,21.9,0,0,0-2.7,6.1c-.1,1,0,.5.1.7,1.1-2.7.9-3.7,3-6.8.4-.5.9-1.6,1.5-1.5S97.7,45,97,46.3s-1.8,3.5-1.3,4.3.9-2.4,1.5-3.5a22.6,22.6,0,0,1,2-3.1c7.6-10.1,24.2-15.6,36.8-13.4,6,1.1,10.7,3.7,13.2,7.3,3.8,5.7,1.6,12.1-2.1,16.8a9.5,9.5,0,0,1-1.2,1.4,28,28,0,0,1-2.6,2.5l-1.4,1.1-1.5,1.1a33.5,33.5,0,0,1-3.3,2c-9,4.6-19.5,6.9-29.6,4-1.4-.4-2.6-1.3-3.9-.9a14.4,14.4,0,0,0,5.5,2.2c-2.2-.1-5.1-2.1-6.8-1.9h.1l1.3.8,1.4.7c-1.1-.3-3.2-1.7-4.1-1.2,1.8,1.3,3.8,1.8,5.7,2.6-3.1-.4-5.5-2.7-7.1-2.4,1.1,1.4,4.9,2.3,6.6,3.2-3.7-.6-6.5-3.1-7.9-2.9l.9.8,1,.5a34.7,34.7,0,0,0,17.9,3.7c10-.5,19.8-3.8,27.2-9.6l1.7-1.3a40.3,40.3,0,0,0,4.6-4.8c3.6-5,6.5-11.6,2.9-18.7-2.8-5.5-8.6-8.5-14.6-10-11.1-2.9-24.8.2-34.6,6.2-4.9,3-9.7,7.4-12.3,12.5C92.4,46.8,91,49.7,91.4,50.4Z" transform="translate(-1.3 -20.4)"/><path class="cls-6" d="M116,62.8a7.4,7.4,0,0,0,1.2,2.7c-.8-.5-.7-1.8-1.9-2.1s-.6.7-.1,1.7a8.2,8.2,0,0,0,.8,1.4c-.7-.3-.9-1.9-1.9-2.4l-.7.4c-.1.6.1.7.4,1.3a7.1,7.1,0,0,1,.6,1.2,2.6,2.6,0,0,0,1.7.4h2.1l4-.4c7.4-1.1,15.3-4.1,20.6-8.9a22.3,22.3,0,0,0,5.8-7c.9-1.7,2.2-4.4,1.3-6.3a36.3,36.3,0,0,1-2.2-6.2l.8-.2c-.5-.9-1.2-1.5-1.8-2.4v.2l-.2.3c-.2.4.2,0-.2.4s-.5-.1-.6-.4.3-1.1-1-1.8v2.2c-.8-.1-.7-.3-.8-1.3s0-1.3-.5-1.7,0,2-.2,2.8v.2c-.9-.2-.4.2-.7-.5l-.2-1c-.1-.7-.2-1.5-.3-2.1s.1.2-1.3.1.2-.4-.6-.8l-.3.5h-.1l-.3.4c1.1.8-.1,2.7.7,4l.3-2.1.3,2.6c.1-.2.8-3.8.9-4.3h0v2.7c-.1,1-.1-.2-.2.9,3.9,1.3,2.1,1.6,2.9,4.7s1.7,4.3,2.1,6.2c-1.2-1-1.2-3.4-2.3-4.7-1,1.4.4,4.2.7,5a6.1,6.1,0,0,1-1.2-2.1l-.8.4c.1,1.1.7,1.6.5,2.6s-.1.1-.5-.4l-.2-.4c-.3.6-.1.4-.6.8s.6.9.2,1.6-1-1.6-1.3-.5.7,1.2.5,2.2c-.6-.6-.7-1.6-1.5-1.9s-.3.8.2,1.9.8,1.1.6,1.9-.8-1.3-1.3-1.7c0,2.5.2,1.8.9,3.6-.7-.1-1.1-1.4-1.2-2.2a28.9,28.9,0,0,1,0-3.3l-.5,3-.2-2.3a6.3,6.3,0,0,1-.3,2.1V51c-.4,1.5.1,3.3-.4,4.1h-.1l-.4.7h0l-.3-.8a1.8,1.8,0,0,0-.1.6c-.1.4,0,.2-.2.4l-.3-.9c-.2.5-.1,1-.5,0s.2-3.1.1-4.6,0-.2-.1-.3c-.7,1.4-.5,4-.5,5.7-1.3-1.7,0-5.5-.4-6.2-1.3,2.1-.2,6-.1,7.4a7.4,7.4,0,0,1-1.2-2.2c-.4-.9-.7-2.1-1.7-2l1.2,3.1c-1.6-.1-.9-3.3-2.9-2.9.2.9,1.5,2.8,1.1,3.5s-.9-1.2-1.1-1.7-.6-1.6-1.2-1.6-.1.7.3,1.7a20.5,20.5,0,0,1,.8,2.2c-.8-.3-.8-.4-1.3-1.6s-.6-1.6-1.2-1.9,1.2,2.8,1.1,4.1c-1.3-.3-1.2-3.3-2.5-3.6s0,1.2.4,2.2l.5,1.1c.3.6.4.7.1,1s-1.5-3.3-2.4-3.7h-.1c-.1,2,1.7,3.6,1.1,4.3a7.8,7.8,0,0,1-1.2-1.8l-.8-1.6c-.3-.4,0-.3-.6-.3s.7,2.6,1.1,3.4.4.8.2,1.1-1.6-3.7-2.5-3.8-.4.2-.1,1.2l.5,1.2a17.6,17.6,0,0,1,.9,2.3c-.9.1-1.9-3.4-2.7-4s1.6,3.8,1.3,4.8-.4-.2-.6-.7l-1.6-3c-.4-.4,0-.3-.6-.3s1.4,3.9,1.7,4.9c-1.2-.5-1.7-3-2.4-3.9s0-.3-.6-.3-.2-.1-.2.5l.2.7.6,1.3c.4.9.9,1.7,1.2,2.6-1.5-.7-1.6-3.3-2.9-4.2-.9.9,1.3,3.9,1.7,5.1-.8-.4-1.6-2.1-2.1-2.9a2.5,2.5,0,0,1,0,.5Z" transform="translate(-1.3 -20.4)"/><path class="cls-5" d="M112.6,47.5c.3,1.2,4.3,3,3.7,10.3.2,0,7.8-3.9,10.1-4.8s1.5-1.6,1.8-3.1a3.8,3.8,0,0,1-.5,2.6c.9-.2.9-.1,1.2-.9s.3-1.2.5-1.7a4.5,4.5,0,0,1-.3,2.3h1a3.3,3.3,0,0,0,.5-2.6c.7,1.2-.2,1.8.2,2.5s.6-.2.8-.9.1-1.2.3-1.6a4.4,4.4,0,0,1-.3,2.4c1.3-.4,1.2-1.4,1.3-2.6a3.5,3.5,0,0,1-.2,2.2c.3-.2.7-.2,1-1.3a12.7,12.7,0,0,0,.2-1.4c.2.4.1.3.1.9v1c.5-1.4.4-2.5-.5-3.4a3.3,3.3,0,0,1-2.7,1.2c.9-1.1,4.6-1.3,4.1-9.4l.7,1,.3-1a1.1,1.1,0,0,1,.2.9c.8-.3.2-.3.8-.8s0,.1.1.5l.8-.4v.7l.8-.4v.6l.9-.4v.5c.7-.2.4-.3.9-.3s-.1.3,1,.1l.2-.6a28.8,28.8,0,0,0-3.2-1.8c-1-.4-3.5-.1-4.6.2s-3.1,3.2-4.4,4.6l-.7.6c-.6.6-.4.7-1.3,1.2a6.9,6.9,0,0,1-1.8.8l-4.1,1.2A62.4,62.4,0,0,1,112.6,47.5Z" transform="translate(-1.3 -20.4)"/><path class="cls-1" d="M113.4,138.6,134.3,125a5.4,5.4,0,0,0-1.4-1.8H113.5c-.1,2.6-.2,5.2-.2,7.8l-.3,6.8C113.1,139.1,112.9,138.3,113.4,138.6Z" transform="translate(-1.3 -20.4)"/><path class="cls-1" d="M103.8,135.1l4.6,2.9.5.2V123.1c-2.6-.3-13,0-17,0s-2.9-.4-4.4,1.2l12.2,8,2,1.3A10.7,10.7,0,0,1,103.8,135.1Z" transform="translate(-1.3 -20.4)"/><path class="cls-6" d="M103.7,44l1.2-.6h.6l.5,2.2c.3-1.1-.6-1.6-.1-2.4s.1,0,.7,1.2-.2,0,.3.2-.6-1.2,0-1.7.2,0,.3.5-.1,1,.5,1.1l-.4-1.6.6-.2h.3l1.1-.2c.2.7.4,1.3.6,1.8s-.5-.8.7-1.2l.3.9c0,.3,0,.8,0,1.1s0,1,.7,1.4l-.3-3.6.9-.2.2,3.3c.2,1.3-.1.6.5.8V42.3h.8l.2,3.7c.1.9,0,.7.6.7s-.3-2.7-.2-3.9-.3-.7.7-.9.3,1.7.3,2.4-.1,2,.6,2.2-.5-3.6,0-4.8l.7-.2.3,3.9c.1,1-.1.8.5,1l.2-.3h.1c.2-1.1-.3-2.6-.4-3.7s-.2-.9.7-1l.5,4.9h.6c.3-.6-.1-2-.2-2.7s-.1-1.1-.2-1.5-.1-.8.7-.9-.1,4.1.8,5,.4-.7.2-2.5-.8-2.6.4-2.8l.2.4a11.6,11.6,0,0,1,.2,2.2c.1.8,0,2,.5,2.5s.5-.2.3-1.3l-.4-3c-.1-1-.2-.9.7-1s.3,2.7.5,3.8,0,.8.5,1.1.3-1.4.1-2.7-.7-2.3.5-2.5a19.7,19.7,0,0,1,.5,3.8c.1.8-.1.7.5.9s.3-.8.1-2.3a8.2,8.2,0,0,1-.2-2.6h.7c.1.8.1,1.5.2,2.3l.4,2.1c.9-.5.4-1,.3-2a10.4,10.4,0,0,1-.2-2.5h.7l.5,3.8c2-.7-1-3.8,1-3.9.3.8.1,2,.5,2.6s.4-.4.4-1.2-.2-.9-.2-1.6.6,0,.9.5l.2.3v.2c.6-1.6.5-.8,1.4-2a3,3,0,0,1,2.1-1.4l-.5-.3-.2-5.6c-.7.3-.5,1.9-.5,2.8v3h-.6c-.5-1.6-.1-3.5-.2-5.1l-.4-.4c-.4,1.7.4,3.9-.3,5.5-.8.1-.7.1-.8-.8s.2-3.7.1-4.6.1-.3-.3-.5a10.3,10.3,0,0,0-.3,3.1c0,.5.4,3-.5,3.1s-.5-.7-.5-1.2v-5c-.8,1.5.1,4.9-.6,6.2h-.6c-.8-1.4.1-4.2-.1-5.8s0-.1-.1-.4-.5,2.5-.5,3.4.4,2.9-1,3V32.6a2.3,2.3,0,0,0-.1-1.6c-.7,1.3-.5,3.6-.5,5.2s.2,1.2-.8,1.3c-.6-1.8.6-6-.1-6.3-.6,1.3-.5,3.8-.5,5.4s.1,1-1,1.2.4-5.8.1-6.4H123l-.2.6a30.6,30.6,0,0,0-.3,4.8c0,1,0,.9-.9,1.1-.2-2.1.4-4.2.3-5.6s.1-.4-.3-.8l-.4,5.5c0,1.1.1,1-1,1.2s.5-5.7.2-6.3c-.8,1.4-.5,3.9-.6,5.5s.1.9-.9,1.1l.3-6.2c-.7.5-.6,2.3-.7,3.3s.3,3-.8,3.3a3.1,3.1,0,0,1-.2-1.6l.2-4.5c-.5.7-.4,2.2-.5,3a26.2,26.2,0,0,1-.3,3.3l-.8.2c-.2-2,.4-3.8.3-5.4s.2-.3-.3-.7c-.7,1.4-.3,4.6-.8,6.3l-.8.2a18.2,18.2,0,0,1,.2-4.5c.2-1.2.3-1-.2-1.4a12.7,12.7,0,0,0-.5,3.4c-.2,2.4.3,2.7-1.1,3l.3-5.7c-1,.8-.7,3.7-.8,5s.1.9-1,1.1l.3-5.5c-.5.4-.3.2-.4,1s-.1,1-.2,1.5-.1,2.4-.3,3.1l-.8.3c0-.7.4-4.7.1-5.2-.9,2.4.4,5.3-1.4,5.6,0-1,.4-4.5.1-4.9-.6,1.2-.4,3.1-.6,4.5s.1.7-1,1a28.6,28.6,0,0,0,.2-4.6c-1.1,1.5.4,4.6-1.6,5.1l.2-3.3c0-1.3.1-.5-.2-.9a4.9,4.9,0,0,0-.5,2.5c-.1,1.5.4,1.9-1,2.4V39.3a7,7,0,0,0-.4,2.2c-.1,1.1.2,1.5-.7,1.9v-.3c-.2-.9.3-2.1-.1-2.8-.4,1.1,0,3.2-1.1,3.6v-.4c-.1-.6.2-1.5,0-2-.8,1.4.3,2.4-1.2,2.9V43c-.8.6-.3,1.4-.8,1.9s-.1-.9-1.2.7-1.5,2.2-1.2,3.6h0v.2c.6-.4.3-.3.3-1.3s-.2-.8.6-1.1,0-.2.1.4,0,.3,0,.5l.2,1h.1V47.6c.1-.8,0-.7.7-.9a5.8,5.8,0,0,0,.2,2.1c1.2-.7-.3-1.9.9-2.6a4.2,4.2,0,0,1,.2,1.6l.2.7c.4-.3.2,0,.3-.5s-.5-1.9.6-2.2v1.7l.3-.4.2-.5Z" transform="translate(-1.3 -20.4)"/><path class="cls-7" d="M113.4,138.6a6.9,6.9,0,0,1-1.8,1.1,33.9,33.9,0,0,1-4.9,3.2c-.4.6-9.4,6.4-10.4,7s-2.9,1.5-3,2.9c1.2-.2,5.2-3.8,6.7-4.1-.9.9-6.3,4.1-6.5,4.8s3.2-1.9,4-2.4l1.9-1.3a19.8,19.8,0,0,1,2.1-1.3h-.1c-.1.3-5.7,4-6.5,4.7s-.6.4-.6,1,19.4-13.2,20.7-14.1c3.4-2.4,6.9-4.6,10.4-7l9.2-6c.6-.4,1-.5,1-1s-.7.2-1.3.6a17,17,0,0,1-4.1,2.4l.3-.3,3.7-2.5.7-.4c.7-.5.6.1.3-.8a12.7,12.7,0,0,1-1.7.9c.5-.6.5-.3.6-1Z" transform="translate(-1.3 -20.4)"/><path class="cls-7" d="M113.5,52.5c1.8,1.2,0,7.9,1.1,10.7l-.3-.2v.7c-.5-.3-.4-.2-.7-.7s-.2-.1-.1.3v.5l-.5-.2c-.9-.3.6.5-.4,0s-1.1-3.1-1.1-4.1,0-2.2-.1-3.2-.6-2.2-.4-2.8.6,6.5.8,8.3c.9-1.3.6-1.5.6-4.3a16.7,16.7,0,0,0-.2-2.2l-.3-1.5c0-.5-.1-.2.1-.5s.8,2.5.8,3.5l-.2,3.7c.1.5-.1.1.1.4s.4-1,.4-1.8a22.1,22.1,0,0,0-.2-4.3c-.1-.7-.5-1.2-.2-1.8l.2.2.2.4.2.9c.6,2.8-.1,4,0,6.3l.7.5c0-1.3,0-3-.1-4.5s-.7-3.8-.5-4.1ZM108,42.7a13.6,13.6,0,0,0,1,3.9l-.8-.4c.3.6.2.1.4.9s-.3-.3-.9-.6l.3.7h-.9c-.5-.2-.2-.2-.5-.4l-.3-.3-.2-.2a6.7,6.7,0,0,1-1.1-2.8l-1.2.6h.1l1.1,2.7c4.5,6.9,5.2,4.2,5.4,15.1a10.7,10.7,0,0,0,.2,2,2.8,2.8,0,0,1,.1.7v.2a2.4,2.4,0,0,0,2,2.4l-1-1.7.4-.3a1.4,1.4,0,0,1,1-.3l1.5,2.2a7.1,7.1,0,0,0-.6-1.2c-.3-.6-.5-.7-.4-1.3l.7-.4c1,.5,1.3,2.1,1.9,2.4a8.2,8.2,0,0,1-.8-1.4c-.5-1-.7-1,.1-1.7s1.1,1.6,1.9,2.1a7.4,7.4,0,0,1-1.2-2.7c-1.5-2.4.6-8-1.7-11.8a15.7,15.7,0,0,0-2.2-2.8l-2.2-2.9c-.6-1-.7-1.9-1.1-2.4a9.5,9.5,0,0,0,.7,2.9,4.8,4.8,0,0,1-1.2-3.1Z" transform="translate(-1.3 -20.4)"/><polygon class="cls-3" points="93.9 135 107.7 135 107.7 125.6 93.9 135"/><path class="cls-7" d="M110.5,139.4a12.5,12.5,0,0,1-2.1-1.4l-4.6-2.9c-1.8-.6-16.4-10.7-18-11s-.4.9.5,1.2c-.8.3.1-.5-.8.2,1,.7,4.4,3,5,2.9s.1-.1.4.1.1.1.4.4l.3.4h.1l.6.8c.9-.2-.2-.4.5-.1s1.9,1,3,1.5.1.1-.4.1h-.4l10.2,7.2,1.7,1.2c.6.4,1.2,1.1,1.8,1a28.2,28.2,0,0,0-3.4-2.7,42.2,42.2,0,0,1-3.6-2.7c1.7.9,6.7,4.7,7.7,4.9s-9.1-6.2-10.7-7.6c2.3,1,9.7,6.5,11.4,6.9l-3.9-2.7c1.4.7,2.7,1.7,4.1,2.4S110.9,139.8,110.5,139.4Z" transform="translate(-1.3 -20.4)"/><path class="cls-7" d="M110.5,139.4c.6.3.4.3,1.1.4l.9-.7.3-13.2c0-1.5.6-3.4-.8-3.8,0,1.5.2,6.5-.4,7.4v-6c0-.7.2-1.4-.3-1.6s0,7.5-.2,8.7v.4c-.4-2.6.6-6.8-.6-8.9-.6.8-.3,7.4-.3,8.3,0,2.9,0,5.8,0,8.8Z" transform="translate(-1.3 -20.4)"/><path class="cls-7" d="M111.6,168.7c.8-.9.3-.6.3-.6v-4.9c.1-4.4.5-11.9.3-15.7l-.2,1.1v.2l-.4-1-.3-2.2c-1.1.9-.2,5.8-.7,8.1l-.2-6.5c-.9,1.9-.7,8.3-.7,10.8s0,3.7-.1,5.6-.4,5,.2,5.6a3.9,3.9,0,0,0,.2-1.9c0-.6,0-1.2.1-1.8.4-3.7-.3-9.4.3-10.6.9,1.2-.4,12.8.3,14.7.6-.5.3-1.5.5-2.7v-.7h0Z" transform="translate(-1.3 -20.4)"/><path class="cls-7" d="M79.1,77.5a4.7,4.7,0,0,1,1.9-2.8,7.2,7.2,0,0,0-1.2,2.7c.6-2.2,4-4.8,7-3.6-1.9,0-2.5-.3-4.1.7a4.5,4.5,0,0,0-2.1,3.2c.2-2.4,5-4.6,6.1-2.9H85.2a3.4,3.4,0,0,0-3,2.2h.2l.6-.6a3.6,3.6,0,0,1,3.8-.7l1.7,1.5c.6.7.5,1.7.6,2.6l.2-2.3c.7.1.6,0,.8.7a6.3,6.3,0,0,1,.1,1.9c.6-1.1,0-1.9.4-2.7l.4,1.1a9.7,9.7,0,0,1,0,1.8,4.5,4.5,0,0,0,.3-2.6l.2.4a6.8,6.8,0,0,1,.1,2.1,4.2,4.2,0,0,0,.2-2.9c.1,0,.4-.3.3.2-.5-5.5-7.8-7.2-11.1-3.9-.8.7,0,0-.4.8A7.4,7.4,0,0,0,79.1,77.5Z" transform="translate(-1.3 -20.4)"/><path class="cls-7" d="M132,95.4a4.4,4.4,0,0,1,.7-1.4c.4-.6.4-.8,1.2-1.3a6.3,6.3,0,0,0-1,2.1l1.2-1.4c2.2-2.2,5.1-2.1,5.6-1.4a4.9,4.9,0,0,0-6,3.2c.9-1.1,1-1.6,2.5-2.3s3.3-1,3.5.3c-2.3-.4-4.4.4-4.7,2.6a3.7,3.7,0,0,1,4.3-2.2c1.2.3,1,.7,1.9,1.4s.5.2.7,1,.1,1.1.3,1.5V95.6c1,.1.9.2,1,1.3a5.1,5.1,0,0,1-.2,2,9.3,9.3,0,0,0,.5-1.4c.1-.9-.1-1.3,0-2s.5,2.8.3,3.7a6,6,0,0,0,.2-4.7c0,.9.9.6.6,4.3.1-.2.1,0,.3-.5a7.4,7.4,0,0,0,.1-2.7,2.5,2.5,0,0,0-.4-2C142,89,135,89,133.4,92.3A6.9,6.9,0,0,0,132,95.4Z" transform="translate(-1.3 -20.4)"/><path class="cls-7" d="M79.3,94.6c.9-.9.7-1.5,2.4-2.5-.6.6-1.9,2-2,3.4a5.3,5.3,0,0,1,2.3-3,5.4,5.4,0,0,1,4.5-.7c-2.4-.2-4.9.5-5.7,3.1l.3-.3c1-1.2,1.9-2.2,4-2.2s1.5.5,1.5.7c-2.5-.4-4,.4-4.7,2.3a3.8,3.8,0,0,1,4.1-1.9,4.3,4.3,0,0,1,2.7,2.9v-.9c.7.2.8,0,1,.8a7.4,7.4,0,0,1,0,1.8c.6-1.2,0-1.8.3-2.7.7.7.5,2.1.4,3a4.9,4.9,0,0,0,.3-2.8l.2.4a8.4,8.4,0,0,1-.1,3.3c.3-1.6.9-1.7.5-4,.4-.3-.1-.1.2-.1H92a6.7,6.7,0,0,0-10.7-4.2c-1,.8-.3.5-.9,1.3A4.9,4.9,0,0,0,79.3,94.6Z" transform="translate(-1.3 -20.4)"/><path class="cls-7" d="M132.1,76.8a6.6,6.6,0,0,1,2.4-2.8,6.2,6.2,0,0,0-1.7,2.6,7.9,7.9,0,0,1,2.6-2.5,5.1,5.1,0,0,1,4.2-.3c-2.8-.3-5.3.6-5.9,2.9l1.1-1.1a3.2,3.2,0,0,1,1.2-.9c.9-.4,2.8-.9,3.5,0s0,.2-.7.2h-.9a3.4,3.4,0,0,0-3.1,2.8c.2-1.3,2.2-2.7,4.2-2.3a4.5,4.5,0,0,1,2.8,3l.2-.9c1.6.3.8,2,.9,3.1a9,9,0,0,0,.2-3.2c.2.1.5-.2.6,1.7a7.1,7.1,0,0,1-.2,2,7,7,0,0,0,.5-3.9,5.8,5.8,0,0,1,.3,3.3c1-1.6-.1-4.2,0-4.6s-.2,1.4.1-.3c-1.6-2.2-3-4.2-6.9-3.9a5.3,5.3,0,0,0-4.7,3A6.4,6.4,0,0,0,132.1,76.8Z" transform="translate(-1.3 -20.4)"/><path class="cls-7" d="M128.2,151a25.6,25.6,0,0,1-3-2l-6.2-4-3.2-2-.7-.2c.7.8,2.7,1.8,3.5,2.6l-2.6-1.5c.2.5.4.6.8.8l1,.8-3.8-2.3,6,4.4c-.9-.7-2.1-1.2-3.2-1.9a26.6,26.6,0,0,0-3.4-2c.4.6,13.2,9.6,14.2,9.9h.7c1.2-.1,1.1-.9.5-1.2h-.4c.3-.4.4,0,.4-.6A1.4,1.4,0,0,1,128.2,151Z" transform="translate(-1.3 -20.4)"/><path class="cls-7" d="M88.9,119.3c-1.2.3-1.6,1-2.4,1.6l-2.2,1.5c-.8-.4-1.9-1.4-2.8-1.5s-.1,0-.2.5a17.7,17.7,0,0,0,2.5,1.7,16,16,0,0,1-2.3,2.4,29.1,29.1,0,0,0-3.1,4.4l-.7,1.5c.8,0,.5.3,1.4-1.3a23,23,0,0,1,3.4-4.9c-.6,1.1-1.3,2.1-2,3.2s-2,2.7-1.6,3.3,2.5-4.7,3.7-5.7c-.3,1-3.3,5.1-2.8,6s.5-.4,1.3-1.9a27.3,27.3,0,0,1,7-9l1.9-1.3a11.8,11.8,0,0,0,2-1.1c-1-.8-2.3.4-3.2.8Z" transform="translate(-1.3 -20.4)"/><path class="cls-7" d="M103.2,167.7c.7.7,3.6,1.5,4.8,1.7-1.4.4-4.3-1-5.9-1.3,2.7,2,10.5,3.2,14.5,3.1a16.7,16.7,0,0,0,5-.8c-.6-.4-1.6-.2-2.7-.1H116c1.3-.2,4.3-.3,5.4-.8s-.8-.1-2.9-.2a4.1,4.1,0,0,1,1.4-.3c.7-.1.8-.1,1.1-.4s.1-.3-.9-.1l-2.3.5v-.4c-3-.1-2.6.4-4.1.4s-1.1-.2-1.8.2a2.7,2.7,0,0,1-3.2-.2l-.3-.3A40,40,0,0,0,103.2,167.7Z" transform="translate(-1.3 -20.4)"/><path class="cls-7" d="M142.3,133.9c.1-.2.1,0,.1-.4s-.9-1.7-1.2-2.8l1.4,2.2c.5.9.1.5.6.5s-1-1.9-1.3-2.8l.5.5c.5.7.9,1.6,1.4,1.9s-3.5-5.9-4.1-7.1c1.3.9,2.8,3.9,3.7,5.3s.4.4.5.4-6.7-10.8-11.2-12.2l.3.3,1.3,1.1c-1-.4-1.8-1.2-2.9-1.5s2.1,1.5,3.5,2.8l3,3.6a41.8,41.8,0,0,1,3.4,6.2C141.4,132.4,141.8,133.7,142.3,133.9Z" transform="translate(-1.3 -20.4)"/><path class="cls-2" d="M113.4,62c-.4-.1.1.2-.5-.1s-.4-.6-.4-.7,1.1-.1,1.4.3l-.3.6c-.7-.1.5.1-.2-.1Zm.2-9.5c-.2.3.5,3.3.5,4.1s.1,3.2.1,4.5l-.7-.5c0-2.3.6-3.4,0-6.3l-.2-.9-.2-.4-.2-.2c-.3.6.1,1,.2,1.8a22.1,22.1,0,0,1,.2,4.3c0,.9.3,1.6-.4,1.8s0,.1-.1-.4l.2-3.7c0-1-.2-2.8-.8-3.5s-.1,0-.1.5l.3,1.5a16.7,16.7,0,0,1,.2,2.2c.1,2.9.3,3-.6,4.3-.2-1.7.8-7.5-.8-8.3s.4,2,.4,2.8,0,2.2.1,3.2,0,3.5,1.1,4.1-.6-.2.4,0l.5.2v-.5c0-.5,0-.2.1-.3s.2.4.7.7v-.7l.3.2C113.5,60.5,115.3,53.7,113.5,52.5Z" transform="translate(-1.3 -20.4)"/><path class="cls-8" d="M105,43.4a6.7,6.7,0,0,0,1.1,2.8l.2.2.3.3c.3.2,0,.2.5.4h.9l-.3-.7c.6.3.3.3.9.6s-.1-.3-.4-.9l.8.4a13.6,13.6,0,0,1-1-3.9l-.6.2.4,1.6c-.6-.1-.2-.3-.5-1.1s-.1-.3-.3-.5-.3.9,0,1.7.1.4-.3-.2.3-1-.7-1.2.5,1.3.1,2.4l-.5-2.2Z" transform="translate(-1.3 -20.4)"/><path class="cls-5" d="M138.8,41.1l-.3,1.6c6-.1,6.3-4.5,3.4-4.7.2.7,1.1,1.5,0,2.5A4.7,4.7,0,0,1,138.8,41.1Z" transform="translate(-1.3 -20.4)"/><path class="cls-5" d="M138.8,43.6l-.2,1.6a6.5,6.5,0,0,0,4.8-1.6,1.5,1.5,0,0,0,.3-1.8c-.6,0-.4.1-1,.5a6.5,6.5,0,0,1-3.5,1.2h-.3Z" transform="translate(-1.3 -20.4)"/><path class="cls-5" d="M138.2,46.2a3,3,0,0,0-.1,1.8c1.5.3,5.6-1.4,5.2-3.3A30,30,0,0,1,138.2,46.2Z" transform="translate(-1.3 -20.4)"/><path class="cls-2" d="M51,33.9c.9-1-.6-4.9-.9-5.9,1.1,1.2,1.5,3.3,1.7,4.9v.5c.1.5.1.3.2.5s.1-.1.2-.5a5.1,5.1,0,0,0,0-.5l-.7-3.3c-.4-1.3-.4-1.3-1.4-1.8s-.5-.5-1.3-.8C51.3,32,50.1,32.1,51,33.9Z" transform="translate(-1.3 -20.4)"/><path class="cls-5" d="M137.9,48.8c-.1.9-.2.9.2,1.5s.3,0,.8-.6h.4l.2-.7.3.6.3-.4v-.4l.3.5c1-1.5-.8.3,1.1-1,.3-.2-.1.5.3-.3a2.1,2.1,0,0,0,.2-1.2c-.7.3-1.2.6-1.9.9Z" transform="translate(-1.3 -20.4)"/><path class="cls-7" d="M136.6,36.5l.4-1.9.2,1.9a3.4,3.4,0,0,0,.4-1.5l.4-1.6,1-.5-.2-.9c-.9.2-.2.1-.6.9s-.2-.6-1.1-1.3l-.6,2.3c-.1.4-.1.9-.2,1.4v1.1Z" transform="translate(-1.3 -20.4)"/><path class="cls-2" d="M154.6,41.4c.7-.3.6-.2.4-1.1l-1.1-2.9c-.7-1.4-.6-1-1-1.1s.2.8.8,2.4A15.6,15.6,0,0,0,154.6,41.4Z" transform="translate(-1.3 -20.4)"/><path class="cls-6" d="M112,65.1a8.6,8.6,0,0,0,.7,1.6c.4.7.6.6,1.6.6v-.3l-1.5-2.2A1.4,1.4,0,0,0,112,65.1Z" transform="translate(-1.3 -20.4)"/><path class="cls-2" d="M153.7,41.8c.6-.4.5-.3.2-1.2l-1.3-3.2c-.3-.4,0-.3-.6-.3s.8,1.8,1.2,3.5S153.2,41.5,153.7,41.8Z" transform="translate(-1.3 -20.4)"/><path class="cls-1" d="M99.2,83.9l-.8.3a13,13,0,0,0,3,1c-.7-.3-.9-.8,0-1.4l-1.2-.6L99,82.8C99.5,83.1,99.3,83.3,99.2,83.9Z" transform="translate(-1.3 -20.4)"/><path class="cls-8" d="M54,40.8c.3.2-.1.2.3.1h.4c-.7.5-.3-.1-.5.8A12.6,12.6,0,0,0,56.9,40l-.4-1.1Z" transform="translate(-1.3 -20.4)"/><path class="cls-1" d="M98.7,91.6l.7.6c-.1.8,0,.6-.5.9l2.9-.9-.9-.2V90.9Z" transform="translate(-1.3 -20.4)"/><path class="cls-2" d="M152.7,42.2c.2-.1.5,0,.1-1.3l-1.2-3c-.3-.4-.1-.2-.6-.3s.8,2,1.1,3.6v.6C152.5,42.3,152.3,42.2,152.7,42.2Z" transform="translate(-1.3 -20.4)"/><path class="cls-2" d="M77.5,30.5a13.8,13.8,0,0,0,1.6-3.3l-.6-.4c-1.1,3.5-2,3.1-2.1,4.2s.1.2.6-.1l.4-.3Z" transform="translate(-1.3 -20.4)"/><path class="cls-2" d="M75.6,30.7c.6.1.8.1,1.7-1.7l.5-1.2c.5-1.6.2-1.1,0-1.3s-.3.7-.9,2.1A23.1,23.1,0,0,0,75.6,30.7Z" transform="translate(-1.3 -20.4)"/><path class="cls-1" d="M121.7,92.2l2.8.9c-.5-.6-.5,0-.5-1.1s.1-.4.8-.4l-2.2-.8h0v.3C122.3,92.1,122.4,91.8,121.7,92.2Z" transform="translate(-1.3 -20.4)"/><path class="cls-2" d="M151.4,42.7c.5-.2.9.1,0-2.3l-.5-1.2-.2-.5c-.4-.6-.2-.3-.4-.5s-.3.1.4,2S151.1,41.9,151.4,42.7Z" transform="translate(-1.3 -20.4)"/><path class="cls-8" d="M54.6,42.2c.7-.1.7-.2,1.3-.6-1,.7-.9.5-1.1,1.1a4.3,4.3,0,0,0,2.3-1.5v-.5c0-.2.1-.1-.1-.5S54.8,41.5,54.6,42.2Z" transform="translate(-1.3 -20.4)"/><path class="cls-1" d="M121.9,83.5c.5.4.8.7.4,1.4l2.6-.8c-.3-.1-.5,0-.7-.3s-.1-.2-.3-.9h0Z" transform="translate(-1.3 -20.4)"/><path class="cls-2" d="M75,30.4c.8.1,1.8-2.9,1.9-3.5s.1-.4-.2-.7-.2-.1-.4.3v.6A8.5,8.5,0,0,1,75,29.8C74.5,30.9,74.9,30.1,75,30.4Z" transform="translate(-1.3 -20.4)"/><path class="cls-2" d="M73.9,30.1c.8.1.6.2.9-.5a12.6,12.6,0,0,0,.9-2.8c0-.9,0-.3-.2-.6s-.6,1.1-.9,2S74.1,29.5,73.9,30.1Z" transform="translate(-1.3 -20.4)"/><path class="cls-2" d="M73.1,29.9c.6,0,.6.4,1.2-1.5a3.9,3.9,0,0,0,.2-2.3c-1,.2-.6.6-.8,1.7S73.3,29.2,73.1,29.9Z" transform="translate(-1.3 -20.4)"/><path class="cls-4" d="M49,49.4a6.4,6.4,0,0,0-3.1-3.7c0,1.3-.1.5,1.4,1.8l.8.9C48.6,49.1,48.4,49.1,49,49.4Z" transform="translate(-1.3 -20.4)"/><path class="cls-1" d="M106.5,88.8c.5.5,1,1.4,0,1.6a11.2,11.2,0,0,0,3-1.1C108.1,89.7,109,88.2,106.5,88.8Z" transform="translate(-1.3 -20.4)"/><path class="cls-1" d="M114.1,89.4l2.6,1c-.5-.5-.4-.2-.3-1.1l.8-.3c-.6-.2-1-.5-1.6-.3S114.8,89.1,114.1,89.4Z" transform="translate(-1.3 -20.4)"/><path class="cls-2" d="M72.1,29.8c.9,0,.5.4.8-.4a7.3,7.3,0,0,0,.3-2.9c-1,.2-.6.3-.8,1.4S72.2,29.1,72.1,29.8Z" transform="translate(-1.3 -20.4)"/><path class="cls-1" d="M114,86.3c1.7.3.8,1.3,3.3.4l-.9-.2c-.1-.9-.3-.8.3-1.1A12.7,12.7,0,0,0,114,86.3Z" transform="translate(-1.3 -20.4)"/><path class="cls-1" d="M106.1,86.7c1.9.7,1.5.5,2.9-.4a4.8,4.8,0,0,0-2.1-.8C107.3,86.5,107.2,86.7,106.1,86.7Z" transform="translate(-1.3 -20.4)"/><path class="cls-6" d="M110.9,66.9l-1-1.7c-.5-.7-.4-1.2-1.3-1.2a5.2,5.2,0,0,0,.7,1.6C109.9,66.6,109.7,66.7,110.9,66.9Z" transform="translate(-1.3 -20.4)"/><path class="cls-1" d="M129.6,80.8c.5.5,1,.9.2,1.5l1.7-.5-.5-1.5Z" transform="translate(-1.3 -20.4)"/><path class="cls-6" d="M107.1,64.3c.3,1.1.7,2.2,2.1,2.2l-.9-1.3C107.9,64.3,108.1,64,107.1,64.3Z" transform="translate(-1.3 -20.4)"/><path class="cls-1" d="M130.2,94.3l-.3.3-.2.2h-.1l1.5.5.4-1.5-1.4-.5Z" transform="translate(-1.3 -20.4)"/><path class="cls-1" d="M91.9,81.9l1.4.4a1.8,1.8,0,0,1-.2-1l.6-.5-1.2-.4Z" transform="translate(-1.3 -20.4)"/><path class="cls-4" d="M48,49.7A4.4,4.4,0,0,0,45.9,47c.1,1.6.1.3,1.4,2.1S47.5,49.5,48,49.7Z" transform="translate(-1.3 -20.4)"/><path class="cls-7" d="M111.5,175.9a2.6,2.6,0,0,0-.2-1.7l-.3,1.1-.2-1.3c-.3.3-.1-.4-.3.5s0,.3,0,.5,0,.2-.2.5l-.2.5Z" transform="translate(-1.3 -20.4)"/><path class="cls-1" d="M92.1,93.9l.4,1.4,1.2-.3-.6-.6a1,1,0,0,1,.1-.9Z" transform="translate(-1.3 -20.4)"/><path class="cls-7" d="M136.1,53.3l.4.8h.4c.7.2.1.2.3.1S137.1,52.7,136.1,53.3Z" transform="translate(-1.3 -20.4)"/><path class="cls-7" d="M112.5,61.2c0,.1-.1.3.4.7s.1,0,.5.1-.5.1.2.1l.3-.6C113.5,61.1,113.2,60.6,112.5,61.2Z" transform="translate(-1.3 -20.4)"/><path class="cls-7" d="M138.4,33.7c.1.3.1.2.1.2l1,.7C140.5,33.6,138.8,33,138.4,33.7Z" transform="translate(-1.3 -20.4)"/><path class="cls-6" d="M107.1,65.9a3.5,3.5,0,0,0-.4-.8c-.5-.8.1-.5-.9-.4S106.2,65.6,107.1,65.9Z" transform="translate(-1.3 -20.4)"/><path class="cls-7" d="M118.7,89.6c-.1-1-.3-1.1-1.3-1.3s.1.5.4.8S118,89.4,118.7,89.6Z" transform="translate(-1.3 -20.4)"/></g><g id="Слой_3" data-name="Слой 3"><text class="cls-9" transform="translate(6.7 145.2) rotate(-9)">Пет<tspan class="cls-10" x="62.7" y="0">р</tspan><tspan class="cls-11" x="81.1" y="0">о</tspan><tspan x="96.5" y="0">зав</tspan><tspan class="cls-12" x="142.7" y="0">о</tspan><tspan class="cls-13" x="157.9" y="0">д</tspan><tspan x="174" y="0">с</tspan><tspan class="cls-14" x="187.7" y="0">к</tspan></text></g></svg>