<?xml version="1.0" encoding="UTF-8"?>
<!DOCTYPE svg PUBLIC "-//W3C//DTD SVG 1.1//EN" "http://www.w3.org/Graphics/SVG/1.1/DTD/svg11.dtd">
<!-- Creator: CorelDRAW X8 -->
<svg xmlns="http://www.w3.org/2000/svg" xml:space="preserve" width="3730px" height="3180px" version="1.1" style="shape-rendering:geometricPrecision; text-rendering:geometricPrecision; image-rendering:optimizeQuality; fill-rule:evenodd; clip-rule:evenodd"
viewBox="0 0 3730 3180"
 xmlns:xlink="http://www.w3.org/1999/xlink">
 <defs>
  <style type="text/css">
   <![CDATA[
    .str0 {stroke:black;stroke-width:65.6256}
    .str1 {stroke:black;stroke-width:24.9992}
    .fil1 {fill:black}
    .fil2 {fill:#F05923}
    .fil3 {fill:#F9F8F8}
    .fil0 {fill:black;fill-rule:nonzero}
   ]]>
  </style>
 </defs>
 <g id="Слой_x0020_1">
  <metadata id="CorelCorpID_0Corel-Layer"/>
  <g id="_2184452992944">
   <path class="fil0" d="M2536 598c-10,25 -31,47 -63,65 -31,19 -56,29 -78,29 -3,0 -9,-4 -15,-7 -13,-6 -19,-15 -19,-31 0,-6 3,-16 6,-25l44 -119c3,-3 3,-3 3,-6 0,-6 -6,-9 -16,-9 0,0 -3,0 -3,0l-75 197 -81 0 131 -354c3,0 3,-3 3,-3 0,-3 -3,-9 -6,-12 -3,-3 -9,-6 -12,-6l-94 0c-6,0 -13,-7 -13,-16 0,-13 7,-19 16,-19l128 0c44,0 66,10 66,35 0,6 0,15 -3,21l-44 113c3,0 3,3 6,3 13,0 19,-6 22,-16l37 -100c7,-15 16,-31 32,-40 12,-13 28,-16 43,-16l60 0c6,0 9,0 9,6 0,7 -3,13 -9,19 -10,6 -16,10 -22,10 0,0 0,0 -3,0 0,0 -3,0 -3,0 -10,0 -13,0 -16,3 -9,3 -16,15 -25,40l-28 78c-6,16 -22,25 -47,35 13,9 19,19 19,28 0,3 0,6 0,9l-38 100c-3,7 -3,10 -3,13 0,6 3,9 10,9 9,0 21,-6 37,-19 16,-12 25,-28 31,-37l13 22 0 0 0 0zm31 31l47 -125c3,0 3,0 3,-3 0,-3 -3,-6 -9,-6 -10,0 -13,3 -16,12l-47 119c-3,6 -3,12 -3,19 0,6 3,9 6,9 7,0 13,-9 19,-25zm172 -31c-9,22 -31,44 -59,65 -32,19 -60,29 -85,29 -9,0 -15,-7 -19,-19 -12,12 -28,19 -43,19 -38,0 -57,-16 -57,-44 0,-16 7,-38 16,-63l6 -22c13,-28 25,-53 44,-71 22,-22 44,-35 69,-35 15,0 28,6 37,22l7 -12 50 0 -25 62c-7,19 -19,47 -32,84 -3,7 -3,10 -3,13 0,3 3,6 10,6 9,0 21,-6 37,-19 16,-12 28,-28 31,-37l16 22 0 0zm206 0c-9,22 -28,44 -59,65 -28,19 -56,29 -81,29 -22,0 -35,-13 -35,-38 0,-6 3,-16 6,-25l38 -97c0,0 0,-3 0,-3 0,-3 0,-6 -3,-9 -3,0 -6,-3 -10,-3 -3,0 -9,6 -12,15 -16,47 -44,81 -84,106 -13,7 -22,13 -32,13l82 -209 112 75c9,6 13,15 13,28 0,3 0,6 0,6l-25 66c0,3 0,6 0,9 0,6 0,9 6,9 12,0 25,-9 40,-22 16,-12 25,-25 32,-37l12 22 0 0zm60 -41l21 -53c0,0 0,0 0,-3 0,-3 -3,-6 -9,-6 -6,0 -12,3 -16,12l-18 50 22 0 0 0zm118 41c-9,22 -31,47 -62,65 -28,19 -53,29 -75,29l-41 0c-37,0 -59,-16 -59,-44 0,-16 6,-38 15,-63l19 -47c6,-21 19,-40 35,-56 15,-15 34,-25 53,-25l53 0c22,0 34,10 34,31 0,13 -6,35 -19,69 -9,25 -28,35 -53,35l-53 0 -12 34c-3,6 -7,12 -7,19 0,6 4,9 7,9l15 0c35,0 69,-12 100,-37 19,-13 28,-29 35,-41l15 22 0 0 0 0zm116 -175l34 -88c0,-3 0,-3 0,-3 0,-6 -3,-6 -9,-6 -6,0 -9,3 -13,9 -12,32 -28,78 -53,144 13,-6 28,-25 41,-56zm22 175c-13,25 -31,50 -60,69 -25,15 -50,25 -75,25 -15,0 -31,-7 -40,-16 -13,-13 -19,-28 -19,-47 0,-6 0,-12 3,-19l100 -262c6,-22 22,-38 38,-50 15,-13 34,-19 53,-19 12,0 25,3 37,9 13,7 19,19 19,29 0,6 0,9 -3,15l-34 91c-22,56 -57,94 -107,115l-25 75c-3,4 -3,7 -3,10 0,9 3,15 16,15 15,0 31,-6 50,-18 15,-13 28,-28 34,-44l16 22 0 0zm128 0c-9,22 -28,44 -59,65 -29,19 -57,29 -82,29 -9,0 -15,-4 -22,-13 -6,-9 -9,-19 -9,-28 0,-9 0,-16 3,-22l69 -184 59 37 -50 131c0,7 0,10 0,13 0,3 0,6 7,6 12,0 25,-6 40,-19 16,-12 25,-28 31,-37l13 22 0 0 0 0zm6 -222c-3,12 -12,22 -25,28 -9,6 -22,9 -31,9 -9,0 -16,-3 -22,-6 -6,-6 -9,-12 -9,-19 0,-3 0,-6 3,-12 3,-9 12,-19 25,-25 9,-6 19,-9 31,-9 6,0 13,3 22,6 6,3 9,9 9,19 0,3 -3,6 -3,9l0 0zm31 253l47 -125c0,0 0,0 0,-3 0,-3 -3,-6 -9,-6 -6,0 -13,3 -16,12l-43 119c-4,6 -7,12 -7,19 0,6 3,9 7,9 9,0 15,-9 21,-25zm169 -31c-9,22 -28,44 -59,65 -28,19 -56,29 -81,29 -13,0 -19,-7 -19,-19 -13,12 -28,19 -44,19 -37,0 -56,-16 -56,-44 0,-16 3,-38 12,-63l10 -22c9,-28 25,-53 40,-71 22,-22 47,-35 69,-35 19,0 31,6 41,22l3 -12 50 0 -22 62c-9,19 -19,47 -34,84 0,7 0,10 0,13 0,3 0,6 6,6 12,0 25,-6 40,-19 16,-12 25,-28 32,-37l12 22 0 0z"/>
   <path class="fil0" d="M2755 2032c-16,35 -50,66 -107,97 -50,31 -100,44 -143,44 -41,0 -60,-19 -60,-53 0,-13 3,-25 6,-38l69 -150c0,0 0,-3 0,-3 0,-6 -3,-9 -6,-12 -6,-4 -13,-7 -16,-7 -9,0 -15,10 -22,25 -31,69 -81,119 -150,157 -21,12 -40,18 -56,18l144 -312 203 112c16,10 22,22 22,44 0,3 0,6 -3,9l-41 97c-3,7 -6,10 -6,16 0,6 6,12 16,12 18,0 40,-12 68,-31 28,-22 47,-40 57,-59l25 34 0 0zm371 0c-15,35 -53,66 -106,97 -53,31 -100,44 -147,44 -18,0 -31,-10 -34,-28 -22,22 -50,31 -78,31 -66,0 -100,-22 -100,-69 0,-25 9,-56 25,-94l81 -181 125 0 -109 244c-3,9 -7,19 -7,28 0,9 4,13 13,13 12,0 25,-13 34,-38l125 -278 103 59 -87 197c0,6 -3,13 -3,16 0,9 6,12 15,12 19,0 41,-9 69,-31 28,-19 47,-37 53,-56l28 34 0 0 0 0zm104 10c6,-16 12,-35 12,-54 0,-18 -6,-34 -12,-43 -19,18 -44,50 -79,87 -3,13 -6,22 -6,31 0,19 6,29 16,29 31,0 53,-16 69,-50l0 0zm75 -266c0,-3 -4,-3 -10,-3 -6,0 -12,3 -15,9 -4,6 -4,10 -4,16 0,3 0,6 0,12 19,-18 29,-31 29,-34zm187 256c-31,47 -75,85 -131,110 -50,21 -103,31 -153,31 -85,0 -125,-28 -125,-88 0,-3 0,-3 0,-3 -25,25 -69,50 -135,78l3 -50c113,-72 200,-147 257,-228 0,-6 -3,-12 -3,-19 0,-21 6,-43 15,-65 22,-50 53,-75 91,-75 31,0 50,9 50,31 0,6 -3,19 -10,28 -6,16 -25,44 -50,78 44,57 69,100 69,132 0,40 -28,81 -84,118 28,0 62,-9 100,-34 37,-22 62,-50 81,-84l25 40 0 0zm-875 -328l-231 0 228 -512c0,-7 3,-13 3,-19 0,-31 -16,-47 -47,-47l-25 0c-31,0 -44,-19 -44,-50 0,-38 16,-56 47,-56l141 0c59,0 103,3 128,12 34,13 50,35 50,69 0,22 -6,53 -22,91l-228 512 0 0zm500 -156l166 -369c6,-9 6,-19 6,-25 0,-16 -9,-25 -28,-25 -31,0 -53,19 -69,50l-162 369c-7,9 -10,19 -10,31 0,16 10,25 28,25 28,0 53,-19 69,-56l0 0zm291 -113c-78,178 -178,269 -300,269l-210 0c-68,0 -106,-34 -106,-103 0,-44 16,-97 44,-166l72 -162c31,-66 72,-122 125,-169 59,-56 122,-84 184,-84l181 0c78,0 116,40 116,118 0,41 -13,88 -34,135l-72 162z"/>
   <path class="fil1 str0" d="M2048 1582c0,172 -50,313 -153,428 -100,107 -212,160 -344,160l-1325 -3 0 568c0,107 7,166 -43,166 -60,0 -47,-50 -47,-166l0 -1750c0,-172 50,-312 153,-428 97,-106 212,-159 344,-159l918 0c132,0 244,53 344,159 103,116 153,256 153,428l0 597zm-90 -528l0 0c0,-100 9,-212 -119,-397 -63,-87 -209,-175 -334,-175l-894 10c-125,-4 -203,84 -285,193 -46,60 -84,163 -96,303l-4 1110 1294 0c100,0 253,-66 316,-156 59,-79 115,-207 115,-307l7 -581z"/>
   <path class="fil2" d="M1201 1926c-15,-22 -34,-31 -34,-31 -9,-7 -28,-19 -50,-19 -25,0 -37,3 -59,9 3,-6 12,-18 12,-25 -22,7 -59,22 -78,41l-19 19c7,-25 28,-50 50,-63 22,-15 41,-19 66,-22 6,0 19,-3 25,-3 -3,6 -13,16 -13,22 16,0 22,0 38,3 19,6 28,13 34,16l19 -22c0,-3 0,-3 0,-6 -9,0 -22,3 -41,-7 -9,-3 -21,-9 -28,-18 3,0 25,3 32,3 0,-16 -13,-35 -19,-44l15 3c-28,-34 -125,-28 -187,-56 -31,-16 -47,-31 -69,-56 -19,-22 -37,-44 -59,-66 -78,-84 -181,-147 -291,-169 -9,-3 -19,-3 -25,-6 3,0 56,6 63,6 18,3 40,7 59,10 0,-7 -34,-28 -41,-35 -6,-3 -15,-9 -25,-12 -3,-3 -9,-3 -12,-6 -3,0 -13,-4 -16,-4 7,0 10,0 16,0 0,0 0,0 3,0 9,0 88,0 103,0l0 -3c-3,-3 -28,-9 -28,-12 19,-3 50,6 66,15 9,7 18,10 28,16 3,3 6,6 9,9 3,4 10,10 13,13 0,-6 -13,-44 -16,-56 -16,-60 -25,-138 -3,-194 3,-9 6,-16 9,-25 7,-9 7,-13 16,-19 12,-9 34,-19 50,-25 9,-3 25,-9 34,-15 7,0 10,-4 13,-7 19,-6 34,-15 50,-22 0,-3 -13,-18 -13,-21 -6,-7 -9,-16 -12,-22 -3,-10 -6,-19 -10,-25 -3,-10 -3,-19 -6,-28 -12,-4 -25,-4 -37,-4 -41,7 -60,7 -100,22 -28,13 -57,28 -82,44 -3,3 -21,16 -25,16 0,-3 22,-22 25,-25l29 -25c-25,0 -44,9 -66,22 -16,9 -38,28 -47,40 -3,3 -3,3 -6,6l-16 19c-6,10 -12,19 -15,28 -10,19 -22,47 -25,66 9,-3 31,-13 40,-9 -3,3 -9,3 -12,6 -32,19 -57,37 -82,62 -28,28 -53,60 -71,94 -41,72 -79,169 -88,250 3,-3 16,-22 19,-28 3,-6 6,-9 9,-22 0,-3 3,-19 6,-22 7,3 0,38 -3,44 -6,28 -18,44 -34,62 -9,13 -16,19 -25,25 -16,16 -31,35 -47,54 -12,18 -28,50 -25,71 3,0 9,-3 13,-6 6,-3 9,-3 15,-6 6,-3 31,-9 35,-9l-25 37c-16,25 -32,66 -32,97 0,19 3,37 7,56 6,-3 40,-59 43,-59 0,3 -3,40 -3,56 0,38 0,69 16,103 3,10 15,38 22,41 3,-16 3,-31 12,-50 3,-6 16,-41 19,-44 3,13 0,44 12,69 10,15 22,34 32,47 6,3 6,6 9,9 3,3 6,9 9,13 13,9 54,46 66,53 0,-22 0,-35 6,-57 3,-12 13,-28 22,-37 10,-13 19,-22 31,-28 7,-3 38,-19 44,-16 0,3 -19,13 -22,16 -6,6 -18,19 -28,25 -6,6 -25,28 -22,34 3,6 16,16 22,19 53,25 122,9 178,0 13,0 25,-3 38,-3 12,-3 25,-3 34,-6 -6,-7 -40,-16 -53,-19 -3,0 -19,-3 -19,-3 7,-3 25,-3 35,-3 28,0 62,12 90,25 32,15 82,34 119,34 -3,-3 -6,-9 -6,-13 -6,-9 -16,-28 -16,-40 -6,-28 -6,-44 -3,-72l3 12c0,16 6,29 10,41 3,6 15,38 21,44 0,-10 -3,-22 -3,-35 -3,-25 -3,-46 0,-71 0,-4 7,-29 7,-32 0,13 3,28 3,47 3,10 6,35 9,69 19,116 9,34 19,75 0,6 3,16 9,22 6,3 10,6 16,6 6,3 12,3 15,3 -3,-19 -3,-25 -3,-25 3,0 10,10 22,19 10,6 16,9 28,12 22,10 53,22 63,13 6,-9 0,-28 -10,-41 -9,-9 -21,-3 -34,-15 -3,0 -12,-10 -16,-22 -6,-13 -3,-22 0,-31 19,-57 32,-85 38,-97 9,-10 22,-25 37,-38 0,-3 4,-3 4,-3 3,-3 3,-3 3,-3 3,-3 34,41 34,41 13,21 22,34 22,37 9,19 16,28 22,44 3,6 6,15 9,25 3,9 3,19 3,19 0,6 0,21 -9,40 -3,10 -6,16 -6,19 0,0 3,0 6,-3 6,-3 3,0 12,-3 7,-3 10,-3 13,-7 0,0 3,-3 3,-6 3,-3 3,-6 3,-6 0,-16 0,-28 0,-44 0,-28 0,-19 -3,-56 0,-34 0,-22 -3,-53 0,-13 0,-25 -6,-35 0,-3 -3,-9 -7,-15 -3,-13 -3,-13 -6,-16 -3,-6 -6,-12 -9,-19 -3,-3 -6,-9 -10,-12l0 0z"/>
   <path class="fil1" d="M1745 2148c-9,-3 -25,-19 -25,-31 0,-7 3,-16 6,-22 0,-3 0,-3 0,-7 0,-3 0,0 4,-3 3,-9 12,-31 18,-47 7,-6 19,-28 22,-31 19,16 28,50 35,75 0,10 3,38 3,41 6,-3 6,-38 6,-53l-3 -13c0,-6 0,-3 0,-3 6,6 15,28 15,38 7,18 10,25 7,43 0,13 -10,28 -16,38 -3,6 -16,28 -22,31 -3,-3 -6,-19 -9,-25 -3,-6 -6,-16 -13,-22 -3,-6 -22,-40 -25,-44 0,13 0,22 -3,35l0 0zm-706 -1425l0 0c-16,0 -31,3 -50,9 -44,19 -91,50 -128,85 -10,9 -31,25 -38,34l53 6c0,0 -6,13 -6,16 -3,3 -3,12 -6,19 -3,12 -3,28 -3,43 -44,-3 -85,3 -125,22 -3,0 -10,3 -16,6 -6,4 -9,7 -15,7 -13,0 -16,-7 -44,-3 -38,6 -72,28 -100,50 -41,34 -69,90 -88,143 0,7 -3,13 -3,19 -3,6 -22,19 -28,25 -19,16 -34,28 -50,47 -72,94 -112,206 -134,325 -3,16 0,28 -13,37 -12,13 -37,38 -47,54 -15,18 -31,43 -34,65 -9,31 -3,60 0,91 6,0 9,-6 12,-10 4,0 4,0 7,-3 -3,7 -3,16 -7,22 -3,6 -3,16 -3,22 -3,16 -6,38 -3,53 0,3 0,6 0,13 3,12 3,22 10,34 0,6 12,34 15,38 3,0 16,-22 22,-22 0,3 0,22 3,28 0,9 3,19 3,28 7,19 10,31 19,47 9,25 34,47 53,62 3,3 3,3 10,7l3 -44c0,-3 0,-10 0,-13 6,10 31,41 37,50 16,13 31,28 44,41 16,12 31,22 47,34 6,7 50,32 53,35 -3,-10 -3,-16 -6,-22 -3,-10 -13,-47 -13,-56 0,-4 0,-7 0,-13 3,0 16,9 22,13 88,37 263,-29 303,-19 6,3 16,9 25,12 25,10 53,19 78,22 10,0 28,0 35,0 3,16 9,35 25,44 12,6 31,9 47,12 15,4 6,0 25,7 12,6 25,6 40,9 6,0 22,0 28,0 7,0 13,0 16,0l3 13c3,6 3,12 6,15 13,0 60,-28 69,-40 3,-7 6,-7 13,-10 12,-3 28,-6 40,-12 6,-3 6,-7 13,-7 12,0 25,4 34,4 16,3 38,9 50,3 3,9 6,22 6,31 3,3 3,9 3,12 13,-3 25,-3 35,-9 44,-22 28,-44 72,-50 12,-3 15,0 31,6 22,7 47,7 72,0 3,0 3,0 6,-3 3,0 6,0 9,0 7,-3 10,-3 16,-3 3,6 6,13 6,19 3,3 7,15 10,15 3,4 31,-15 34,-21 6,-4 13,-10 16,-13 3,-3 0,0 3,-3 3,0 3,-3 3,-3 3,-3 6,-6 6,-10 16,7 28,10 44,7 3,0 6,0 12,0 4,0 7,-3 10,-3 3,0 15,-4 22,-7 0,7 3,10 3,16 3,3 3,3 3,6 3,3 3,6 3,10 3,9 6,21 13,31 6,-3 31,-22 34,-28 25,-28 47,-53 50,-91 0,-19 -13,-53 -13,-56 4,-3 4,-10 4,-13 3,-15 6,-31 6,-47 0,-6 0,-9 0,-15 0,-6 0,-13 3,-16 0,-19 0,-12 -6,-28 -10,-12 -19,-28 -28,-41 -10,-15 -19,-25 -29,-37 4,-3 32,-16 32,-16 0,-3 -32,-15 -35,-18 -37,-16 -72,-25 -109,-7 -6,3 -16,10 -19,10l-15 -28c-4,0 -4,-4 -7,-7 -3,-6 -18,-31 -18,-34 12,-13 6,-13 18,-13 13,0 22,0 35,0 18,0 34,0 43,-18 25,-41 72,-157 72,-200 0,-7 0,-10 -3,-16 0,-3 0,-6 3,-12 7,-35 10,-50 10,-91 0,-3 -13,-9 -16,-13 -16,-9 -50,-40 -62,-56 -13,-15 -25,-31 -38,-50 3,-6 9,-12 16,-19 31,-56 40,-146 12,-203 3,0 13,0 16,-3 0,-3 -6,-15 -6,-19 -4,-6 -7,-12 -10,-18 -6,-10 -15,-19 -25,-25 -37,-25 -100,-28 -140,-13 -4,0 -7,3 -10,3 -3,0 -6,3 -9,3 0,4 0,4 -3,4 -3,0 -3,0 -7,3 -9,3 -21,15 -28,22 -6,6 -18,25 -18,34 -38,-13 -69,-22 -100,-41 -16,-9 -25,-22 -38,-34 -34,-38 -78,-72 -122,-94 -15,-6 -12,0 -15,-19 -4,-9 -7,-21 -10,-28 -6,-18 -9,-34 -19,-53 -31,-53 -68,-81 -118,-84l-19 0 0 0zm122 1322l0 0c6,9 22,37 25,50 12,18 19,34 15,59 -3,16 -12,41 -21,53 -7,13 -25,38 -38,38 0,0 -12,-44 -19,-63 -6,-12 -25,-47 -37,-50 0,6 6,22 3,28 -3,3 -16,-3 -22,-3 -3,-28 6,-59 16,-84 3,-6 6,-13 9,-16 3,-9 25,-37 31,-44 7,4 16,22 19,29 0,0 3,9 6,15 7,19 7,25 13,50 0,6 3,35 3,38l3 -3c3,-16 3,-38 3,-50 -3,-10 -6,-32 -6,-38 -3,-3 -3,-3 -3,-9 -3,0 -3,0 0,0l0 0zm228 -25l0 0c0,0 0,0 0,0 6,3 25,43 28,50 3,9 6,22 9,28 4,15 7,19 7,34 -3,31 -38,91 -60,94 -3,-13 -6,-22 -9,-34 -6,-25 -25,-75 -50,-82 0,3 6,22 6,35 -3,0 -19,-3 -22,-7 -3,-3 0,-21 0,-28 0,-12 7,-34 13,-47 0,-6 3,-15 6,-18 3,-7 3,-7 6,-10 3,-3 22,-37 32,-40 0,0 6,9 9,12 6,10 16,35 19,44 6,19 6,19 9,37 0,4 0,16 0,19 0,3 3,19 3,19 6,-3 6,-47 3,-56 0,-10 0,-16 -3,-25 -3,-10 -6,-16 -6,-25l0 0zm178 97l0 0c-3,0 -12,-10 -16,-13 -6,-3 -12,-12 -12,-19 -9,-18 -3,-28 6,-43 6,-16 41,-57 53,-66 7,3 16,22 16,25 9,22 16,44 19,69 3,3 3,34 6,37 0,0 0,0 0,0l3 -12c0,-7 0,-10 0,-13 0,-12 0,-22 0,-31l-3 -25c-3,-9 -6,-22 -9,-25 6,3 28,37 31,44 12,22 15,37 12,62l-12 41c0,6 -3,9 -6,12 -7,10 -25,41 -35,41 -3,-22 -12,-47 -19,-66 -12,-25 -15,-31 -28,-56 -3,6 -3,13 -3,19 0,9 0,12 -3,19l0 0zm113 -241l0 0c9,19 21,37 31,59 9,16 12,16 12,35 0,25 -15,90 -22,115 -3,7 -3,13 -6,19 -3,13 -3,19 -9,38 0,6 -3,12 -6,18 9,7 37,3 46,3 -3,-6 -28,-18 -28,-50 0,-15 16,-46 22,-59 13,-28 35,-78 63,-91 9,10 18,25 25,38l15 31c3,3 0,0 3,3 0,3 4,3 4,7 3,-22 3,-44 6,-63 0,-12 0,0 -10,-22 -9,-15 -28,-44 -40,-56 -16,-19 -35,-25 -38,-28l16 -13c0,0 -3,0 -6,-3 0,0 -3,0 -7,0 -9,-3 -21,-3 -34,0 -12,3 -28,13 -37,19l0 0zm-491 9l0 0c3,-6 28,-34 31,-37 25,-25 50,-44 85,-53 12,-3 40,-7 56,-7l-10 16c32,9 50,34 66,59 16,25 34,57 44,85 12,22 12,25 15,50 0,19 0,44 0,62 -3,19 -9,103 -15,113l-19 3c0,-3 3,-9 3,-16 3,-6 3,-9 6,-15 0,-13 4,-25 0,-38 -6,-19 -12,-40 -21,-56 -16,-25 -16,-28 -32,-50 -9,-16 -28,-31 -40,-44 -3,3 -19,19 -22,25 -10,13 -10,6 -22,25 -13,22 -22,44 -28,66 -6,19 -19,62 -3,78 9,12 18,12 31,16 6,0 12,0 19,3 3,3 6,12 6,18 -19,10 -47,-6 -75,-6 0,-19 3,-22 3,-47 0,-28 -3,-59 -6,-90 -3,-41 -6,-75 -28,-110 -16,-25 -22,-31 -44,-50l0 0zm300 253l0 0c6,-34 6,-90 6,-125 0,-37 0,-43 -15,-75 -13,-31 -25,-56 -44,-84 -3,-6 -6,-9 -10,-12 -3,-7 -3,-7 0,-10 7,-3 16,-19 29,-28 46,-37 93,-59 156,-53 -3,6 -16,16 -19,25 0,3 6,9 9,12 4,7 7,10 10,16 22,31 37,63 56,94 6,9 13,22 19,31 6,9 15,28 15,34 0,13 -3,35 -6,47 0,3 -6,41 -9,41 0,0 -10,-19 -13,-25 -3,-6 -9,-16 -12,-25 -13,-19 -35,-47 -50,-59 -6,-7 -6,-7 -13,-4 -18,19 -28,29 -43,50 -22,29 -50,69 -38,107 16,34 63,47 72,78 -38,9 -69,19 -109,3l9 -38 0 0zm-519 -434l0 0c6,-6 75,-12 85,-12 15,0 31,-4 50,-4 18,4 9,0 15,10 13,22 41,50 63,65 9,7 18,13 31,19 12,6 25,10 37,13 -3,3 -12,9 -15,12 -6,3 -10,6 -16,13 -9,6 -3,6 -19,6 -6,-3 -15,-3 -25,-3l-3 -16 19 13c0,-7 -9,-28 -12,-32 -13,-31 -44,-43 -75,-53 -19,-3 -122,-18 -135,-31l0 0zm628 -59l0 0c3,0 13,-3 16,-3 12,-4 28,-10 37,-13 32,-12 63,-34 82,-62 9,-13 9,-10 6,-25 -3,-10 -6,-19 -9,-29 9,4 28,16 34,22 9,7 9,10 6,22 -6,31 -25,78 -37,106 -7,16 -19,50 -28,60 0,6 0,9 -7,9 -9,3 -28,0 -37,0 -10,0 -19,0 -28,0 -13,0 -13,0 -22,-6 -3,-3 -10,-6 -16,-9 0,-10 10,-19 6,-57 0,-3 -3,-12 -3,-15l0 0zm-231 -163l0 0c47,19 50,19 91,47 25,16 56,38 78,59 25,29 50,54 47,94 0,10 -3,19 -7,28 -6,10 -12,10 -21,13 -19,6 -38,9 -57,12 -15,0 -50,7 -62,3 -10,-3 -35,-21 -41,-28 -19,-12 -87,-59 -90,-84 -4,-31 12,-131 25,-150 6,-13 37,-19 50,-22 -4,9 -10,16 -13,28zm-291 -12l0 0c0,-7 4,-10 4,-16 0,0 37,44 53,56 3,0 6,3 9,7 3,3 6,6 9,9 -3,3 -12,12 -15,16 -3,3 -10,9 -13,15 -15,-9 -43,-50 -47,-72 -3,22 4,44 13,63 6,15 22,28 37,37 7,-3 29,-37 41,-43 13,6 56,65 59,65 -3,-3 -3,-9 -6,-15 -3,-7 -6,-13 -6,-19l44 31c3,0 12,6 15,9 -3,4 -18,4 -22,4 -9,0 -12,-7 -15,-10 0,6 0,16 0,19 -3,3 -13,-9 -19,-16l-12 -15c-7,3 -10,9 -16,9 -6,0 -13,0 -19,0 -15,0 -22,-3 -28,-16 -6,4 -9,10 -16,13 -9,6 -15,-3 -18,-9 -7,-4 -10,-10 -16,-16 0,-3 -6,-19 -9,-19 -3,19 -13,28 -32,31 -15,7 -34,7 -46,-9 -10,-16 -7,-31 6,-44 25,-22 31,-12 15,-31 -15,-25 -40,-66 -12,-91 12,-9 34,-3 44,13 6,12 12,31 18,44l0 0zm444 -197l0 0c13,-3 13,15 3,19 -12,3 -12,-16 -3,-19zm44 -10l0 0c3,16 3,29 -9,41 -7,13 -19,19 -32,19 3,-3 16,-3 22,-19 10,-19 6,-25 3,-37l16 -4zm-59 -178l0 0c3,-15 18,-28 31,-37 15,-10 34,-16 50,-19 19,-3 40,-3 62,3 10,3 38,13 44,22 -6,0 -22,0 -25,3 0,3 16,19 19,25 31,44 25,119 6,169 -6,16 -19,41 -37,47 3,15 15,28 25,40 18,25 75,91 96,104 0,9 -3,25 -3,34l-3 34c-6,0 -19,-9 -22,-12 -6,-3 -22,-10 -22,-13 0,0 4,-28 -6,-59 0,-6 0,-9 -6,-13 -22,-12 -47,-12 -69,-15 -44,-3 -53,-16 -87,-41 -3,-3 -22,-12 -25,-15 6,-4 9,-4 15,-4 22,-6 35,-21 38,-46 3,-16 0,-19 0,-32 9,0 15,7 22,7 -3,-4 -13,-10 -19,-13 -6,-3 -16,-6 -22,-6 -28,-3 -41,6 -53,9 6,-6 22,-19 28,-22 16,-6 28,-9 44,-9 28,0 47,-3 50,25 0,6 3,19 3,25 6,-6 12,-28 16,-38 6,-9 12,-28 9,-40 -3,-22 -16,-25 -22,-31 -3,0 -6,-13 -9,-16 -3,-6 -10,-16 -10,-19 16,3 32,28 38,35 0,-7 3,-29 3,-32 12,22 19,50 19,50 3,-3 3,-25 3,-31 0,-16 -3,-22 -10,-34 -3,-13 -21,-28 -28,-32 0,7 0,29 -3,32 -9,-3 -15,-13 -34,-10 -13,3 -6,7 -16,-3 -15,-6 -31,-15 -50,-19 -12,-3 -25,-3 -40,-3l0 0zm-835 300l0 0c25,10 60,38 78,60 10,9 25,31 28,40 7,13 19,32 22,47 -3,0 -9,-6 -12,-9 -3,-3 -10,-6 -13,-13 -22,-18 -65,-40 -90,-50 -10,-3 -7,-6 -13,-12 -3,-6 -6,-10 -12,-13 -44,-47 -88,-43 -94,-47 -6,0 -9,0 -16,0 3,0 13,4 16,4 3,3 9,3 12,6 10,3 19,9 25,12 7,7 41,28 41,35 -19,-3 -41,-7 -59,-10 -7,0 -60,-6 -63,-6 6,3 16,3 25,6 110,22 213,85 291,169 22,22 40,44 59,66 22,25 38,40 69,56 62,28 159,22 187,56l-15 -3c6,9 19,28 19,44 -7,0 -29,-3 -32,-3 7,9 19,15 28,18 19,10 32,7 41,7 0,3 0,3 0,3l-19 25c-6,-3 -15,-10 -34,-16 -16,-3 -22,-3 -38,-3 0,-6 10,-16 13,-22 -6,0 -19,3 -25,3 -25,3 -44,7 -66,19 -22,16 -43,41 -50,66l19 -19c19,-19 56,-38 78,-41 0,7 -9,19 -12,25 22,-6 34,-9 59,-9 16,0 34,9 50,19 13,9 25,18 34,31 7,9 25,37 25,47 16,15 19,128 19,159 0,13 0,22 0,35 -3,15 0,21 -12,25 -7,3 -16,6 -25,9 3,-13 9,-22 12,-31 10,-38 -3,-66 -22,-97 -3,-10 -9,-19 -15,-28 -3,-7 -10,-16 -13,-25 -6,-7 -31,-41 -37,-44 -3,0 -10,6 -10,9 -3,3 -22,19 -25,25 -25,28 -37,60 -47,97 -6,25 -15,63 16,72 13,3 31,3 38,9 0,7 12,32 9,35 -9,3 -31,0 -41,0 -12,-3 -22,-6 -34,-13 -9,-3 -22,-12 -28,-18 -3,-4 -10,-7 -13,-13 -3,-3 -3,-12 -6,-16 -3,7 3,29 6,35 0,3 3,6 3,9 -6,0 -21,-3 -28,-6 -18,-9 -34,-125 -37,-150 0,-6 -6,-63 -6,-66 0,3 -7,28 -7,32 -3,25 -3,46 0,71 0,13 3,25 3,35 -6,-6 -18,-38 -21,-44 -4,-12 -10,-25 -10,-41l-3 -12c-3,28 -3,44 3,72 0,12 10,31 16,40 0,4 3,10 6,13 -37,0 -87,-19 -119,-34 -28,-13 -62,-25 -90,-25 -10,0 -28,0 -35,3 0,0 16,3 19,3 13,3 47,12 56,19 -12,3 -25,3 -37,6 -13,0 -25,3 -38,3 -56,9 -125,25 -178,0 -6,-3 -19,-13 -22,-19 -3,-6 16,-28 22,-34 10,-6 22,-19 28,-25 3,-3 22,-13 22,-16 -6,-3 -37,13 -44,16 -12,6 -21,15 -31,28 -9,9 -19,25 -22,37 -6,22 -6,35 -6,57 -12,-7 -53,-44 -66,-53 -3,-7 -6,-10 -9,-13 -3,-3 -3,-6 -9,-9 -10,-13 -22,-32 -32,-47 -12,-25 -9,-56 -12,-69 -3,3 -16,38 -19,44 -9,19 -9,34 -12,50 -7,-3 -19,-31 -22,-41 -16,-34 -16,-65 -16,-103 0,-16 3,-53 3,-56 -3,0 -37,56 -43,59 -4,-19 -7,-37 -7,-56 0,-31 16,-72 32,-97l25 -37c-4,0 -29,6 -35,9 -6,3 -9,3 -15,6 -4,3 -10,6 -13,6 -3,-21 13,-53 25,-71 16,-19 31,-38 47,-54 9,-6 16,-15 25,-25 16,-18 28,-34 37,-62 0,-6 7,-41 0,-44 -3,3 -6,19 -6,22 -3,13 -6,16 -9,22 -3,6 -16,25 -19,28 9,-81 47,-178 88,-250 18,-34 43,-66 71,-94 25,-25 50,-43 82,-62 3,-3 9,-3 12,-6 -9,-4 -31,6 -40,9 3,-19 15,-47 25,-66 3,-9 9,-18 15,-28l16 -19c3,-3 3,-3 6,-6 9,-12 31,-31 47,-40 22,-13 41,-22 66,-22l-29 25c-3,3 -25,22 -25,25 4,0 22,-13 25,-16 25,-16 54,-31 82,-44 40,-15 59,-15 100,-22 12,0 25,0 37,4 3,9 3,15 6,25 4,9 7,18 10,28 3,6 6,15 12,22 0,3 13,18 13,21 -16,7 -31,16 -50,22 -3,3 -6,7 -10,7 -12,6 -28,12 -37,15 -16,6 -38,16 -50,25 -9,6 -9,6 -16,19 -3,9 -6,16 -9,25 -22,56 -13,134 3,194 3,12 16,50 16,56 -3,-3 -10,-9 -13,-13 -3,-3 -6,-6 -9,-9 -10,-6 -19,-9 -28,-16 -16,-9 -47,-18 -66,-15 0,0 25,9 28,12l0 0zm856 -18l0 0c16,3 66,43 88,50 22,6 41,3 62,6 25,6 25,3 29,25 0,0 3,12 0,12 -10,-12 -10,-22 -16,-18 -28,6 -19,3 -44,6 -6,0 -6,0 -12,0 -25,0 -57,-10 -78,-22 -32,-13 -29,-16 -50,-28 -10,-6 -57,6 -66,9 -6,3 -9,6 -19,10 -3,0 -9,6 -15,6 3,-6 9,-19 15,-25 0,-3 3,-3 6,-6 10,-13 22,-19 29,-22l-7 0c-28,6 -50,22 -62,50 -3,3 -3,9 -3,12 -10,3 -19,3 -25,6 -10,4 -19,4 -25,10 -19,6 -19,12 -28,34 -7,16 -13,60 -16,78l-3 28c-6,4 -41,-18 -47,-21 -38,-29 -84,-60 -116,-97 -12,-13 -25,-22 -34,-38 -9,-12 -19,-28 -31,-40 -16,-22 -32,-35 -53,-54 -7,-6 -13,-9 -19,-12 9,-9 37,-16 50,-19 -3,-6 -19,-19 -22,-22 -16,-12 -38,-22 -59,-18 -7,0 -22,6 -29,9 13,0 25,3 38,6 6,3 25,10 28,16 -9,3 -25,12 -34,15 -7,4 -35,13 -38,16 6,3 28,6 38,9 6,0 28,10 31,16 0,0 -16,22 -19,28 -6,10 -12,22 -19,31 -18,50 -34,110 -25,160 7,19 19,53 32,65l-3 -15c15,-6 59,-6 75,-6 90,0 200,21 281,59 12,3 19,9 28,16 25,21 44,37 72,56 12,9 19,12 31,12 13,0 25,0 41,-3 -7,6 -41,25 -57,47 -3,3 -12,13 -15,16l-13 -13c-3,-3 -9,-9 -15,-12 3,-7 25,-22 28,-32 -6,0 -75,7 -85,7 -15,0 -28,6 -40,6 -13,3 -28,0 -38,-6 -22,-7 -43,-16 -62,-32 -13,-9 -38,-34 -44,-46 13,-4 109,9 122,9 -3,-3 -13,-6 -19,-6 -6,0 -12,-3 -19,-3 -12,-4 -25,-7 -37,-10 -69,-12 -166,-22 -231,3 -7,3 -10,10 -16,3 -9,-6 -37,-40 -47,-50 -6,-6 -3,-6 -6,-15 -6,-53 -3,-110 6,-160 10,-37 13,-43 22,-75 -6,7 -22,32 -25,41 -6,19 -12,34 -19,50 -6,25 -12,69 -9,94 0,9 0,22 0,31 -3,-3 -9,-9 -13,-12l-25 -60c-12,-22 -25,-53 -34,-78 -34,-84 -59,-191 -19,-278 7,-19 10,-19 25,-31 13,-7 22,-13 35,-19 34,-19 112,-50 128,-94 -6,6 -25,19 -31,19 -10,-9 -22,-34 -25,-47 -16,-37 -22,-87 -7,-128 13,-25 25,-34 32,-44 -7,0 -32,-3 -35,-3 6,-9 47,-37 60,-47 18,-12 46,-25 71,-28 41,-9 79,3 107,41 3,6 18,25 18,31 7,6 25,66 25,78 -9,0 -15,-3 -25,0 -3,0 -21,3 -21,3l12 16c3,3 13,12 13,12 0,3 -13,7 -16,7 -6,0 -13,3 -19,3 -6,3 -28,12 -28,12 0,-34 -3,-65 -25,-94 -19,-25 -50,-37 -81,-37 3,9 9,28 9,34 -12,0 -28,10 -37,16 -22,22 -32,50 -28,81 0,10 6,38 15,41 -3,-10 -3,-38 0,-50 0,-13 3,-22 13,-35 3,-9 15,-21 22,-28 15,-6 25,-6 40,-6 0,-9 -3,-16 -6,-25 22,0 50,31 47,41 -3,0 -6,0 -6,-3 -10,0 -22,0 -29,3 -6,6 -15,12 -21,18 -16,19 -22,38 -16,63 3,-3 6,-6 9,-13 3,-6 19,-18 25,-21 0,6 0,9 0,15 0,6 3,10 3,13 4,9 7,15 10,25 0,3 -3,6 -6,9 -4,3 -4,6 -7,9 -15,16 -31,38 -37,60 -3,12 -10,37 -10,53 0,0 13,-31 16,-34 28,-54 75,-104 128,-122 44,-19 69,-7 85,-10l-29 -34c44,6 97,47 132,81 18,19 31,35 53,50 12,10 22,16 34,19 16,9 41,16 41,16 -3,0 -81,-4 -91,-4 19,10 47,19 66,22 59,10 106,-15 159,10 16,6 38,22 44,43 -16,-3 -31,4 -47,10 -22,9 -37,22 -53,37 -9,13 -16,22 -25,35 -6,6 -9,12 -13,18l-3 -3c0,0 0,-3 0,-3 0,-9 -3,-25 -9,-31 -6,-9 -25,-22 -28,-19 0,0 3,3 3,3 9,22 22,63 22,85 0,18 0,15 -6,31 9,3 68,34 71,41l0 0z"/>
   <path class="fil2" d="M1342 1295c-3,9 -31,25 -41,31 -15,6 -37,12 -53,12 -22,0 -34,-3 -53,-12 -9,-6 -34,-22 -37,-34 15,6 28,12 40,15 38,13 66,13 100,3 16,-3 41,-12 44,-15l0 0zm-241 -228l0 0c29,-16 66,-47 94,-50 35,-4 69,34 88,59 22,34 31,66 47,103 12,28 21,44 46,63 4,0 10,3 13,6 3,0 9,3 12,6 -12,3 -31,6 -43,3 -7,0 -13,-3 -19,-3 -6,-3 -9,6 -13,6 -21,16 -40,32 -65,32 -25,0 -50,-4 -72,-22 -6,-7 -16,-22 -19,-32 -6,-15 0,-28 3,-40 -3,3 -9,6 -12,6 3,-6 12,-16 19,-19 28,-18 46,-12 78,-6 -3,-3 -25,-31 -32,-37 -9,-13 -21,-22 -34,-35 -3,-6 -12,-12 -19,-15 -12,-10 -28,-19 -43,-22 -4,0 -29,-3 -29,-3l0 0 0 0zm347 303l0 0c3,-3 3,-3 10,-3 22,3 50,0 68,0 0,0 0,0 0,0 -3,-7 -62,-38 -71,-41 6,-16 6,-13 6,-31 0,-22 -13,-63 -22,-85 0,0 -3,-3 -3,-3 3,-3 22,10 28,19 6,6 9,22 9,31 0,0 0,3 0,3l3 3c4,-6 7,-12 13,-18 9,-13 16,-22 25,-35 16,-15 31,-28 53,-37 16,-6 31,-13 47,-10 -6,-21 -28,-37 -44,-43 -53,-25 -100,0 -159,-10 -19,-3 -47,-12 -66,-22 10,0 88,4 91,4 0,0 -25,-7 -41,-16 -12,-3 -22,-9 -34,-19 -22,-15 -35,-31 -53,-50 -35,-34 -88,-75 -132,-81l29 34c-16,3 -41,-9 -85,10 -53,18 -100,68 -128,122 -3,3 -16,34 -16,34 0,-16 7,-41 10,-53 6,-22 22,-44 37,-60 3,-3 3,-6 7,-9 3,-3 6,-6 6,-9 -3,-10 -6,-16 -10,-25 0,-3 -3,-7 -3,-13 0,-6 0,-9 0,-15 -6,3 -22,15 -25,21 -3,7 -6,10 -9,13 -6,-25 0,-44 16,-63 6,-6 15,-12 21,-18 7,-3 19,-3 29,-3 0,3 3,3 6,3 3,-10 -25,-41 -47,-41 3,9 6,16 6,25 -15,0 -25,0 -40,6 -7,7 -19,19 -22,28 -10,13 -13,22 -13,35 -3,12 -3,40 0,50 -9,-3 -15,-31 -15,-41 -4,-31 6,-59 28,-81 9,-6 25,-16 37,-16 0,-6 -6,-25 -9,-34 3,0 3,0 6,0 6,0 9,0 16,0l103 0c6,0 37,3 40,0 0,-6 -15,-25 -18,-31 -28,-38 -66,-50 -107,-41 -25,3 -53,16 -71,28 -13,10 -54,38 -60,47 3,0 28,3 35,3 -7,10 -19,19 -32,44 -15,41 -9,91 7,128 3,13 15,38 25,47 6,0 25,-13 31,-19 -16,44 -94,75 -128,94 -13,6 -22,12 -35,19 -15,12 -18,12 -25,31 -40,87 -15,194 19,278 9,25 22,56 34,78l25 60c4,3 10,9 13,12 0,-9 0,-22 0,-31 -3,-25 3,-69 9,-94 7,-16 13,-31 19,-50 3,-9 19,-34 25,-41 -9,32 -12,38 -22,75 -9,50 -12,107 -6,160 3,9 0,9 6,15 10,10 38,44 47,50 6,7 9,0 16,-3 65,-25 162,-15 231,-3 12,3 25,6 37,10 7,0 13,3 19,3 6,0 16,3 19,6 -13,0 -109,-13 -122,-9 6,12 31,37 44,46 19,16 40,25 62,32 10,6 25,9 38,6 12,0 25,-6 40,-6 10,0 79,-7 85,-7 -3,10 -25,25 -28,32 6,3 12,9 15,12l13 13c3,-3 12,-13 15,-16 16,-22 50,-41 57,-47 -16,3 -28,3 -41,3 -12,0 -19,-3 -31,-12 -28,-19 -47,-35 -72,-56 -9,-7 -16,-13 -28,-16 -81,-38 -191,-59 -281,-59 -16,0 -60,0 -75,6l3 15c-13,-12 -25,-46 -32,-65 -9,-50 7,-110 25,-160 7,-9 13,-21 19,-31 3,-6 19,-28 19,-28 -3,-6 -25,-16 -31,-16 -10,-3 -32,-6 -38,-9 3,-3 31,-12 38,-16 9,-3 25,-12 34,-15 -3,-6 -22,-13 -28,-16 -13,-3 -25,-6 -38,-6 7,-3 22,-9 29,-9 21,-4 43,6 59,18 3,3 19,16 22,22 -13,3 -41,10 -50,19 6,3 12,6 19,12 21,19 37,32 53,54 12,12 22,28 31,40 9,16 22,25 34,38 32,37 78,68 116,97 6,3 41,25 47,21l3 -28c3,-18 9,-62 16,-78 9,-22 9,-28 28,-34 6,-6 15,-6 25,-10 6,-3 15,-3 25,-6 0,-3 0,-9 3,-12 12,-28 34,-44 62,-50l0 0z"/>
   <path class="fil2" d="M1189 1885c22,19 28,25 44,50 22,35 25,69 28,110 3,31 6,62 6,90 0,25 -3,28 -3,47 28,0 56,16 75,6 0,-6 -3,-15 -6,-18 -7,-3 -13,-3 -19,-3 -13,-4 -22,-4 -31,-16 -16,-16 -3,-59 3,-78 6,-22 15,-44 28,-66 12,-19 12,-12 22,-25 3,-6 19,-22 22,-25 12,13 31,28 40,44 16,22 16,25 32,50 9,16 15,37 21,56 4,13 0,25 0,38 -3,6 -3,9 -6,15 0,7 -3,13 -3,16l19 -3c6,-10 12,-94 15,-113 0,-18 0,-43 0,-62 -3,-25 -3,-28 -15,-50 -10,-28 -28,-60 -44,-85 -16,-25 -34,-50 -66,-59l10 -16c-16,0 -44,4 -56,7 -35,9 -60,28 -85,53 -3,3 -28,31 -31,37l0 0z"/>
   <path class="fil2" d="M1480 2176c40,16 71,6 109,-3 -9,-31 -56,-44 -72,-78 -12,-38 16,-78 38,-107 15,-21 25,-31 43,-50 7,-3 7,-3 13,4 15,12 37,40 50,59 3,9 9,19 12,25 3,6 13,25 13,25 3,0 9,-38 9,-41 3,-12 6,-34 6,-47 0,-6 -9,-25 -15,-34 -6,-9 -13,-22 -19,-31 -19,-31 -34,-63 -56,-94 -3,-6 -6,-9 -10,-16 -3,-3 -9,-9 -9,-12 3,-9 16,-19 19,-25 -63,-6 -110,16 -156,53 -13,9 -22,25 -29,28 -3,3 -3,3 0,10 4,3 7,6 10,12 19,28 31,53 44,84 15,32 15,38 15,75 0,35 0,91 -6,125l-9 38 0 0z"/>
   <path class="fil2" d="M1367 1482c3,-12 9,-19 13,-28 -13,3 -44,9 -50,22 -13,19 -29,119 -25,150 3,25 71,72 90,84 6,7 31,25 41,28 12,4 47,-3 62,-3 19,-3 38,-6 57,-12 9,-3 15,-3 21,-13 4,-9 7,-18 7,-28 3,-40 -22,-65 -47,-94 -22,-21 -53,-43 -78,-59 -41,-28 -44,-28 -91,-47z"/>
   <path class="fil2" d="M1505 1085c15,0 28,0 40,3 19,4 35,13 50,19 10,10 3,6 16,3 19,-3 25,7 34,10 3,-3 3,-25 3,-32 7,4 25,19 28,32 7,12 10,18 10,34 0,6 0,28 -3,31 0,0 -7,-28 -19,-50 0,3 -3,25 -3,32 -6,-7 -22,-32 -38,-35 0,3 7,13 10,19 3,3 6,16 9,16 6,6 19,9 22,31 3,12 -3,31 -9,40 -4,10 -10,32 -16,38 0,-6 -3,-19 -3,-25 -3,-28 -22,-25 -50,-25 -16,0 -28,3 -44,9 -6,3 -22,16 -28,22 12,-3 25,-12 53,-9 6,0 16,3 22,6 6,3 16,9 19,13 -7,0 -13,-7 -22,-7 0,13 3,16 0,32 -3,25 -16,40 -38,46 -6,0 -9,0 -15,4 3,3 22,12 25,15 34,25 43,38 87,41 22,3 47,3 69,15 6,4 6,7 6,13 10,31 6,59 6,59 0,3 16,10 22,13 3,3 16,12 22,12l3 -34c0,-9 3,-25 3,-34 -21,-13 -78,-79 -96,-104 -10,-12 -22,-25 -25,-40 18,-6 31,-31 37,-47 19,-50 25,-125 -6,-169 -3,-6 -19,-22 -19,-25 3,-3 19,-3 25,-3 -6,-9 -34,-19 -44,-22 -22,-6 -43,-6 -62,-3 -16,3 -35,9 -50,19 -13,9 -28,22 -31,37l0 0z"/>
   <path class="fil1" d="M1226 1260c13,-3 22,-3 29,-15 9,-10 12,-19 12,-35 9,3 53,38 56,44 -15,9 -81,19 -97,6l0 0zm19 -47l0 0c3,-12 -19,-18 -22,-3 -3,13 16,16 22,3zm-144 -146l0 0 0 0c0,0 25,3 29,3 15,3 31,12 43,22 7,3 16,9 19,15 13,13 25,22 34,35 7,6 29,34 32,37 -32,-6 -50,-12 -78,6 -7,3 -16,13 -19,19 3,0 9,-3 12,-6 -3,12 -9,25 -3,40 3,10 13,25 19,32 22,18 47,22 72,22 25,0 44,-16 65,-32 4,0 7,-9 13,-6 6,0 12,3 19,3 12,3 31,0 43,-3 -3,-3 -9,-6 -12,-6 -3,-3 -9,-6 -13,-6 -25,-19 -34,-35 -46,-63 -16,-37 -25,-69 -47,-103 -19,-25 -53,-63 -88,-59 -28,3 -65,34 -94,50l0 0z"/>
   <path class="fil3" d="M1083 1557c3,0 9,16 9,19 6,6 9,12 16,16 3,6 9,15 18,9 7,-3 10,-9 16,-13 6,13 13,16 28,16 6,0 13,0 19,0 6,0 9,-6 16,-9l12 15c6,7 16,19 19,16 0,-3 0,-13 0,-19 3,3 6,10 15,10 4,0 19,0 22,-4 -3,-3 -12,-9 -15,-9l-44 -31c0,6 3,12 6,19 3,6 3,12 6,15 -3,0 -46,-59 -59,-65 -12,6 -34,40 -41,43 -15,-9 -31,-22 -37,-37 -9,-19 -16,-41 -13,-63 4,22 32,63 47,72 3,-6 10,-12 13,-15 3,-4 12,-13 15,-16 -3,-3 -6,-6 -9,-9 -3,-4 -6,-7 -9,-7 -16,-12 -53,-56 -53,-56 0,6 -4,9 -4,16 -6,-13 -12,-32 -18,-44 -10,-16 -32,-22 -44,-13 -28,25 -3,66 12,91 16,19 10,9 -15,31 -13,13 -16,28 -6,44 12,16 31,16 46,9 19,-3 29,-12 32,-31l0 0z"/>
   <path class="fil2" d="M1598 1645c0,3 3,12 3,15 4,38 -6,47 -6,57 6,3 13,6 16,9 9,6 9,6 22,6 9,0 18,0 28,0 9,0 28,3 37,0 7,0 7,-3 7,-9 9,-10 21,-44 28,-60 12,-28 31,-75 37,-106 3,-12 3,-15 -6,-22 -6,-6 -25,-18 -34,-22 3,10 6,19 9,29 3,15 3,12 -6,25 -19,28 -50,50 -82,62 -9,3 -25,9 -37,13 -3,0 -13,3 -16,3l0 0z"/>
   <path class="fil3" d="M1389 2020l0 0c0,9 3,15 6,25 3,9 3,15 3,25 3,9 3,53 -3,56 0,0 -3,-16 -3,-19 0,-3 0,-15 0,-19 -3,-18 -3,-18 -9,-37 -3,-9 -13,-34 -19,-44 -3,-3 -9,-12 -9,-12 -10,3 -29,37 -32,40 -3,3 -3,3 -6,10 -3,3 -6,12 -6,18 -6,13 -13,35 -13,47 0,7 -3,25 0,28 3,4 19,7 22,7 0,-13 -6,-32 -6,-35 25,7 44,57 50,82 3,12 6,21 9,34 22,-3 57,-63 60,-94 0,-15 -3,-19 -7,-34 -3,-6 -6,-19 -9,-28 -3,-7 -22,-47 -28,-50l0 0z"/>
   <path class="fil3" d="M1161 2045l0 0c0,6 0,6 3,9 0,6 3,28 6,38 0,12 0,34 -3,50l-3 3c0,-3 -3,-32 -3,-38 -6,-25 -6,-31 -13,-50 -3,-6 -6,-15 -6,-15 -3,-7 -12,-25 -19,-29 -6,7 -28,35 -31,44 -3,3 -6,10 -9,16 -10,25 -19,56 -16,84 6,0 19,6 22,3 3,-6 -3,-22 -3,-28 12,3 31,38 37,50 7,19 19,63 19,63 13,0 31,-25 38,-38 9,-12 18,-37 21,-53 4,-25 -3,-41 -15,-59 -3,-13 -19,-41 -25,-50l0 0z"/>
   <path class="fil3" d="M1567 2117c3,-7 3,-10 3,-19 0,-6 0,-13 3,-19 13,25 16,31 28,56 7,19 16,44 19,66 10,0 28,-31 35,-41 3,-3 6,-6 6,-12l12 -41c3,-25 0,-40 -12,-62 -3,-7 -25,-41 -31,-44 3,3 6,16 9,25l3 25c0,9 0,19 0,31 0,3 0,6 0,13l-3 12c0,0 0,0 0,0 -3,-3 -3,-34 -6,-37 -3,-25 -10,-47 -19,-69 0,-3 -9,-22 -16,-25 -12,9 -47,50 -53,66 -9,15 -15,25 -6,43 0,7 6,16 12,19 4,3 13,13 16,13l0 0z"/>
   <path class="fil2" d="M1680 1876c9,19 21,37 31,59 9,16 12,16 12,35 0,25 -15,90 -22,115 -3,7 -3,13 -6,19 -3,13 -3,19 -9,38 0,6 -3,12 -6,18 9,7 37,3 46,3 -3,-6 -28,-18 -28,-50 0,-15 16,-46 22,-59 13,-28 35,-78 63,-91 9,10 18,25 25,38l15 31c3,3 0,0 3,3 0,3 4,3 4,7 3,-22 3,-44 6,-63 0,-12 0,0 -10,-22 -9,-15 -28,-44 -40,-56 -16,-19 -35,-25 -38,-28l16 -13c0,0 -3,0 -6,-3 0,0 -3,0 -7,0 -9,-3 -21,-3 -34,0 -12,3 -28,13 -37,19l0 0z"/>
   <path class="fil3" d="M1745 2148c3,-13 3,-22 3,-35 3,4 22,38 25,44 7,6 10,16 13,22 3,6 6,22 9,25 6,-3 19,-25 22,-31 6,-10 16,-25 16,-38 3,-18 0,-25 -7,-43 0,-10 -9,-32 -15,-38 0,0 0,-3 0,3l3 13c0,15 0,50 -6,53 0,-3 -3,-31 -3,-41 -7,-25 -16,-59 -35,-75 -3,3 -15,25 -22,31 -6,16 -15,38 -18,47 -4,3 -4,0 -4,3 0,4 0,4 0,7 -3,6 -6,15 -6,22 0,12 16,28 25,31l0 0z"/>
   <path class="fil2" d="M986 826c31,0 62,12 81,37 22,29 25,60 25,94 0,0 22,-9 28,-12 6,0 13,-3 19,-3 3,0 16,-4 16,-7 0,0 -10,-9 -13,-12l-12 -16c0,0 18,-3 21,-3 10,-3 16,0 25,0 0,-12 -18,-72 -25,-78 -3,3 -34,0 -40,0l-103 0c-7,0 -10,0 -16,0 -3,0 -3,0 -6,0l0 0z"/>
   <path class="fil2" d="M1448 1370l7 0c-7,3 -19,9 -29,22 -3,3 -6,3 -6,6 -6,6 -12,19 -15,25 6,0 12,-6 15,-6 10,-4 13,-7 19,-10 9,-3 56,-15 66,-9 21,12 18,15 50,28 21,12 53,22 78,22 6,0 6,0 12,0 25,-3 16,0 44,-6 6,-4 6,6 16,18 3,0 0,-12 0,-12 -4,-22 -4,-19 -29,-25 -21,-3 -40,0 -62,-6 -22,-7 -72,-47 -88,-50 0,0 0,0 0,0 -18,0 -46,3 -68,0 -7,0 -7,0 -10,3l0 0z"/>
   <path class="fil2" d="M564 1388c6,4 50,0 94,47 6,3 9,7 12,13 6,6 3,9 13,12 25,10 68,32 90,50 3,7 10,10 13,13 3,3 9,9 12,9 -3,-15 -15,-34 -22,-47 -3,-9 -18,-31 -28,-40 -18,-22 -53,-50 -78,-60l0 3c-15,0 -94,0 -103,0 -3,0 -3,0 -3,0l0 0z"/>
   <path class="fil2" d="M970 1704c13,13 116,28 135,31 31,10 62,22 75,53 3,4 12,25 12,32l-19 -13 3 16c10,0 19,0 25,3 16,0 10,0 19,-6 6,-7 10,-10 16,-13 3,-3 12,-9 15,-12 -12,-3 -25,-7 -37,-13 -13,-6 -22,-12 -31,-19 -22,-15 -50,-43 -63,-65 -6,-10 3,-6 -15,-10 -19,0 -35,4 -50,4 -10,0 -79,6 -85,12l0 0z"/>
   <path class="fil1" d="M1342 1295c-3,3 -28,12 -44,15 -34,10 -62,10 -100,-3 -12,-3 -25,-9 -40,-15 3,12 28,28 37,34 19,9 31,12 53,12 16,0 38,-6 53,-12 10,-6 38,-22 41,-31l0 0z"/>
   <path class="fil3" d="M1226 1260c16,13 82,3 97,-6 -3,-6 -47,-41 -56,-44 0,16 -3,25 -12,35 -7,12 -16,12 -29,15l0 0z"/>
   <path class="fil3" d="M1548 1267c3,12 7,18 -3,37 -6,16 -19,16 -22,19 13,0 25,-6 32,-19 12,-12 12,-25 9,-41l-16 4z"/>
   <path class="fil3" d="M1245 1213c3,-12 -19,-18 -22,-3 -3,13 16,16 22,3z"/>
   <path class="fil3" d="M1520 1273c-9,3 -9,22 3,19 10,-4 10,-22 -3,-19z"/>
   <path class="fil0 str1" d="M461 2629c0,-47 0,-84 -3,-122l50 0 3 78 3 0c12,-53 47,-84 87,-84 7,0 10,0 16,0l0 69c-6,-3 -12,-3 -19,-3 -40,0 -68,37 -78,90 0,10 -3,19 -3,31l0 207 -56 0 0 -266 0 0z"/>
   <path class="fil0 str1" d="M958 2698c0,144 -82,203 -160,203 -87,0 -153,-75 -153,-197 0,-128 72,-203 160,-203 90,0 153,78 153,197zm-253 3l0 0c0,84 40,150 96,150 57,0 97,-63 97,-150 0,-66 -28,-150 -97,-150 -68,0 -96,78 -96,150z"/>
   <path class="fil0 str1" d="M1095 2401c0,25 -15,44 -37,44 -22,0 -35,-19 -35,-44 0,-25 16,-44 35,-44 22,0 37,19 37,44zm-65 494l0 0 0 -388 59 0 0 388 -59 0z"/>
   <path class="fil0 str1" d="M1242 2685l0 0c9,-12 19,-31 28,-43l94 -135 69 0 -122 160 140 228 -71 0 -110 -185 -28 38 0 147 -59 0 0 -566 59 0 0 356z"/>
   <path class="fil0 str1" d="M1780 2698c0,144 -82,203 -157,203 -87,0 -153,-75 -153,-197 0,-128 69,-203 156,-203 94,0 154,78 154,197zm-254 3l0 0c0,84 41,150 97,150 57,0 97,-63 97,-150 0,-66 -25,-150 -94,-150 -68,0 -100,78 -100,150z"/>
   <path class="fil0 str1" d="M1855 2613c0,-40 -4,-71 -4,-106l50 0 4 66 3 0c15,-38 53,-72 103,-72 44,0 112,31 112,162l0 232 -56 0 0 -222c0,-63 -19,-116 -75,-116 -37,0 -66,35 -78,72 0,9 -3,22 -3,34l0 232 -56 0 0 -282 0 0z"/>
   <path class="fil0 str1" d="M2276 2685l0 0c10,-12 19,-31 29,-43l93 -135 69 0 -122 160 141 228 -72 0 -109 -185 -29 38 0 147 -59 0 0 -566 59 0 0 356z"/>
   <path class="fil0 str1" d="M2814 2698c0,144 -81,203 -156,203 -88,0 -153,-75 -153,-197 0,-128 68,-203 156,-203 94,0 153,78 153,197zm-250 3l0 0c0,84 37,150 94,150 56,0 97,-63 97,-150 0,-66 -25,-150 -94,-150 -69,0 -97,78 -97,150z"/>
   <path class="fil0 str1" d="M2880 2823c18,12 46,28 78,28 40,0 59,-28 59,-59 0,-32 -16,-50 -59,-69 -57,-25 -82,-63 -82,-110 0,-62 41,-112 110,-112 31,0 59,9 78,22l-16 53c-12,-9 -34,-25 -65,-25 -35,0 -53,25 -53,53 0,31 18,47 62,66 53,25 81,59 81,115 0,69 -43,116 -118,116 -35,0 -66,-9 -88,-25l13 -53 0 0z"/>
   <path class="fil0 str1" d="M3205 2685l3 0c6,-12 18,-31 28,-43l94 -135 68 0 -122 160 141 228 -72 0 -109 -185 -31 38 0 147 -57 0 0 -566 57 0 0 356 0 0z"/>
   <path class="fil0 str1" d="M3533 2401c0,25 -13,44 -38,44 -19,0 -34,-19 -34,-44 0,-25 15,-44 37,-44 22,0 35,19 35,44zm-66 494l0 0 0 -388 59 0 0 388 -59 0z"/>
  </g>
 </g>
</svg>
