<?xml version="1.0" encoding="UTF-8"?>
<!DOCTYPE svg PUBLIC "-//W3C//DTD SVG 1.1//EN" "http://www.w3.org/Graphics/SVG/1.1/DTD/svg11.dtd">
<!-- Creator: CorelDRAW X8 -->
<svg xmlns="http://www.w3.org/2000/svg" xml:space="preserve" width="11500px" height="8500px" version="1.1" style="shape-rendering:geometricPrecision; text-rendering:geometricPrecision; image-rendering:optimizeQuality; fill-rule:evenodd; clip-rule:evenodd"
viewBox="0 0 11500 8500"
 xmlns:xlink="http://www.w3.org/1999/xlink">
 <defs>
  <style type="text/css">
   <![CDATA[
    .str0 {stroke:black;stroke-width:156.253}
    .fil1 {fill:black}
    .fil0 {fill:black;fill-rule:nonzero}
   ]]>
  </style>
 </defs>
 <g id="Слой_x0020_1">
  <metadata id="CorelCorpID_0Corel-Layer"/>
  <path class="fil0" d="M7862 1331c-28,76 -95,143 -192,201 -95,58 -171,86 -238,86 -9,0 -27,-9 -46,-19 -39,-21 -58,-48 -58,-97 0,-18 10,-46 19,-76l134 -360c9,-9 9,-9 9,-21 0,-18 -18,-28 -49,-28 0,0 -9,0 -9,0l-228 601 -247 0 399 -1076c9,0 9,-9 9,-9 0,-9 -9,-30 -18,-40 -9,-9 -28,-18 -37,-18l-286 0c-18,0 -40,-18 -40,-49 0,-36 22,-54 49,-54l390 0c134,0 201,27 201,103 0,18 0,49 -9,67l-134 341c9,0 9,10 18,10 40,0 58,-19 67,-46l116 -305c18,-49 46,-94 94,-125 37,-36 86,-45 134,-45l180 0c18,0 28,0 28,18 0,18 -10,36 -28,58 -27,18 -49,27 -67,27 0,0 0,0 -9,0 0,0 -9,0 -9,0 -31,0 -40,0 -49,9 -27,9 -46,49 -76,125l-85 238c-19,46 -67,76 -144,103 40,31 58,58 58,86 0,9 0,21 0,30l-115 305c-10,18 -10,27 -10,36 0,19 10,31 31,31 27,0 67,-21 113,-58 48,-40 76,-85 94,-116l40 67 0 0 0 0 0 0zm94 95l143 -381c9,0 9,0 9,-9 0,-9 -9,-19 -27,-19 -30,0 -40,10 -49,40l-143 360c-9,21 -9,39 -9,57 0,19 9,28 18,28 22,0 40,-28 58,-76zm524 -95c-27,67 -94,134 -180,201 -97,58 -182,86 -259,86 -27,0 -45,-19 -54,-58 -40,39 -89,58 -134,58 -116,0 -171,-49 -171,-134 0,-46 18,-113 46,-189l18 -67c39,-86 76,-162 134,-220 67,-67 134,-103 210,-103 49,0 85,18 113,64l21 -37 153 0 -77 189c-21,58 -58,143 -97,259 -9,18 -9,27 -9,37 0,9 9,21 30,21 28,0 67,-21 113,-58 49,-40 85,-85 94,-116l49 67 0 0zm628 0c-28,67 -86,134 -180,201 -85,58 -171,86 -247,86 -67,0 -106,-40 -106,-116 0,-18 9,-46 21,-76l113 -293c0,0 0,-12 0,-12 0,-9 0,-18 -10,-27 -9,0 -18,-10 -27,-10 -12,0 -30,19 -40,49 -48,140 -134,247 -255,323 -40,18 -67,37 -98,37l250 -637 341 228c31,19 40,49 40,86 0,9 0,18 0,18l-76 201c0,9 0,18 0,28 0,21 0,30 18,30 36,0 76,-30 125,-67 45,-40 76,-76 94,-116l37 67 0 0 0 0zm183 -122l67 -164c0,0 0,0 0,-9 0,-9 -13,-19 -31,-19 -18,0 -36,10 -46,40l-57 152 67 0 0 0 0 0zm359 122c-27,67 -94,143 -189,201 -85,58 -161,86 -228,86l-125 0c-113,0 -180,-49 -180,-134 0,-46 18,-113 49,-189l55 -143c21,-68 57,-125 106,-171 46,-49 104,-76 162,-76l161 0c67,0 104,27 104,94 0,37 -19,104 -55,210 -31,77 -88,104 -165,104l-161 0 -37 104c-9,21 -18,39 -18,57 0,19 9,28 18,28l46 0c107,0 210,-37 305,-113 58,-39 88,-85 106,-125l46 67 0 0 0 0 0 0zm353 -533l104 -265c0,-9 0,-9 0,-9 0,-21 -9,-21 -27,-21 -19,0 -28,9 -37,30 -40,94 -88,238 -164,436 39,-19 88,-76 124,-171l0 0zm67 533c-39,76 -94,153 -179,210 -76,49 -153,77 -229,77 -49,0 -97,-19 -125,-49 -39,-37 -58,-85 -58,-143 0,-19 0,-37 10,-55l304 -801c22,-67 67,-113 116,-153 46,-36 104,-58 161,-58 37,0 77,13 113,31 40,18 58,58 58,85 0,18 0,28 -9,49l-104 274c-67,171 -173,286 -326,354l-76 228c-9,9 -9,18 -9,27 0,31 9,49 49,49 49,0 94,-18 152,-58 49,-36 85,-85 104,-134l48 67 0 0 0 0zm390 0c-27,67 -85,134 -179,201 -86,58 -174,86 -250,86 -28,0 -46,-9 -64,-40 -21,-27 -31,-55 -31,-85 0,-28 0,-46 10,-67l210 -561 180 116 -153 399c0,18 0,27 0,37 0,9 0,21 22,21 36,0 76,-21 121,-58 49,-40 77,-85 98,-116l36 67 0 0 0 0 0 0zm19 -676c-9,40 -37,67 -76,85 -28,22 -67,31 -95,31 -27,0 -49,-9 -67,-19 -18,-21 -27,-39 -27,-57 0,-10 0,-19 9,-40 9,-28 36,-55 76,-76 27,-19 58,-28 94,-28 19,0 40,9 67,19 19,9 28,30 28,57 0,10 -9,19 -9,28l0 0 0 0zm97 771l140 -381c0,0 0,0 0,-9 0,-9 -9,-19 -27,-19 -18,0 -37,10 -49,40l-131 360c-9,21 -21,39 -21,57 0,19 12,28 21,28 28,0 46,-28 67,-76l0 0zm512 -95c-27,67 -85,134 -180,201 -85,58 -170,86 -246,86 -40,0 -58,-19 -58,-58 -40,39 -86,58 -134,58 -113,0 -171,-49 -171,-134 0,-46 9,-113 37,-189l30 -67c27,-86 76,-162 122,-220 67,-67 143,-103 210,-103 58,0 95,18 125,64l9 -37 152 0 -67 189c-27,58 -57,143 -103,259 0,18 0,27 0,37 0,9 0,21 18,21 37,0 76,-21 125,-58 46,-40 76,-85 95,-116l36 67 0 0z"/>
  <path class="fil1" d="M2649 2931l183 18c-77,49 -183,76 -259,67 67,-18 192,49 237,98l76 85c-121,18 -332,-49 -417,-134l0 18c0,0 -9,9 -9,9 0,9 -9,22 -9,22 -76,-49 -58,-40 -116,-116 67,0 76,-18 125,-18 143,-19 94,-31 122,-49l-314 0c85,-37 515,-86 582,-58l-95 30c-58,10 -67,10 -106,28l0 0 0 0zm-914 -381c-19,67 9,30 -104,116 -49,36 -58,45 -125,55 -152,12 -180,30 -304,-55 173,36 295,45 390,-125l12 94c76,-45 -22,0 55,-45 48,-31 30,-22 76,-40l0 0zm-457 58c39,-40 106,-67 152,-104 67,-58 49,-67 107,-143 0,180 -98,229 -259,247l0 0 0 0zm-494 -125c46,49 46,40 104,40 0,-68 18,0 -28,-107l-18 -46c95,67 95,67 76,189 -134,31 -210,-76 -268,-152 58,48 67,48 134,76l0 0zm1789 -37l-342 -18c0,-12 0,-12 0,-12l-9 -28c0,-18 -49,-27 76,-67 113,-27 265,0 360,49l-381 9c88,19 134,-9 296,67l0 0zm-1286 86c143,-229 116,-354 107,-649 36,97 67,250 45,381 0,57 -18,115 -36,164 -40,85 -40,85 -116,104l0 0 0 0zm2687 237c152,-58 655,-323 780,-457 -76,143 -171,211 -332,296 -143,76 -296,143 -448,161l0 0zm-3190 -286c-39,-67 -201,-198 -237,-283 198,161 170,179 255,237l-18 46zm1304 -323c-9,0 -39,49 -39,49 76,122 88,55 97,198 -49,-55 -107,-131 -134,-198l76 -49zm-1209 -238c39,9 58,-39 76,95 -86,39 -134,0 -76,-95zm1209 238c143,-113 1246,-515 829,67 -49,76 -18,37 -85,67 45,-76 143,-192 112,-286 -161,-144 -685,85 -856,152l0 0zm-1246 -305c-40,95 -67,125 0,247 -58,-36 -40,49 -67,-85 -21,-67 55,-189 113,-210l125 21c0,9 -9,0 -9,9l-67 9c-19,0 -77,0 -95,9l0 0 0 0zm893 695c39,-113 85,-27 152,-265 174,-555 21,-430 -85,-631 -58,-113 -58,-131 -210,-152 304,-28 173,97 335,268 45,58 67,49 134,113 -22,115 -165,621 -326,667l0 0zm868 -1810c27,-76 18,22 27,-55 10,-48 -48,-125 -57,-134l-104 220c-18,-76 9,9 -9,-67 0,0 -18,-58 -31,-58 -27,18 -9,0 -27,39l-67 104c-18,49 -46,104 -95,134 -48,27 -268,67 -332,94 -249,77 -393,180 -554,333 -408,362 -198,164 -512,371 -107,76 -143,125 -259,183 -94,55 -180,113 -256,171 37,112 122,134 198,210l-237 -67c-19,274 429,390 572,426 77,31 144,67 220,98 103,46 161,36 265,67 85,18 134,55 237,76 183,28 421,28 610,28 67,76 58,85 152,170 107,85 448,314 591,238 49,-171 -18,-256 -49,-399 183,0 838,-104 945,-86 27,9 219,144 362,180 131,40 247,107 400,134 304,58 655,9 703,-332 40,-295 -390,-420 -475,-582 104,-113 350,-143 533,-134 287,0 305,21 533,143 247,134 686,372 991,296 103,-506 -336,-628 -192,-981 125,-296 249,-923 -208,-722 -277,122 -496,332 -734,484 -237,162 -667,162 -914,-9 67,-94 363,-344 323,-582 -46,-207 -295,-390 -551,-332 -238,67 -421,171 -610,277l-143 46c-49,40 -18,67 -85,85 -201,67 -85,-76 -287,49 19,-27 -27,-49 -9,-134 -210,30 -48,-18 -246,-67l-40 -95 -85 40 -46 -97 -76 76c-89,-46 -12,9 -67,-95 -22,28 -31,40 -49,76 -113,-48 -27,-57 -94,-76 -58,104 -107,180 -162,256l0 0 0 0z"/>
  <g id="_2747631136208">
   <path class="fil0 str0" d="M1555 3875c-259,0 -472,162 -652,485 -177,313 -259,658 -259,1048 0,390 88,752 268,1066 180,314 393,475 643,475 161,0 305,-76 439,-210 125,-113 222,-274 314,-484l70 247c-107,201 -223,362 -339,466 -143,125 -304,182 -484,182 -311,0 -570,-182 -768,-554 -189,-332 -277,-731 -277,-1188 0,-448 88,-847 268,-1182 207,-372 457,-561 777,-561 198,0 369,76 527,229 125,121 235,286 323,484l-97 192c-74,-192 -171,-354 -296,-478 -143,-153 -296,-217 -457,-217zm1063 942l125 0 0 1447c0,219 37,390 125,515 73,103 162,152 268,152 101,0 198,-49 287,-134 91,-94 152,-210 189,-353l0 -1627 115 0 0 2428c0,286 -64,503 -179,667 -107,140 -250,207 -421,207 -107,0 -213,-27 -302,-85 -100,-67 -161,-152 -207,-256l125 -143c64,113 125,201 180,238 55,39 116,57 180,57 143,0 259,-57 347,-161 107,-125 162,-286 162,-506l0 -493c-46,103 -107,189 -189,256 -89,67 -186,94 -305,94 -140,0 -259,-67 -347,-198 -98,-152 -153,-393 -153,-707l0 -1398zm2718 1124c0,314 -64,579 -189,807 -125,250 -305,372 -509,372 -204,0 -374,-113 -509,-363 -124,-228 -188,-493 -188,-816 0,-326 64,-600 198,-829 125,-228 295,-353 499,-353 204,0 375,125 509,371 125,229 189,497 189,811zm-698 -981c-170,0 -314,103 -429,323 -98,192 -153,408 -153,658 0,238 55,457 171,655 116,219 250,335 411,335 162,0 296,-107 402,-305 116,-201 171,-429 171,-685 0,-250 -55,-478 -161,-676 -116,-211 -250,-305 -412,-305zm1851 2115l-53 -1 0 -1429c0,-192 -37,-344 -119,-487 -79,-131 -177,-198 -292,-198 -135,0 -235,58 -305,189 -73,134 -107,295 -107,496 0,211 34,381 98,494 70,125 170,183 314,183 88,0 158,-40 222,-125 46,-67 97,-162 152,-305l-36 399 -795 838 -71 -161 427 -466c-143,-28 -250,-113 -320,-256 -73,-144 -107,-345 -107,-601 0,-286 43,-496 144,-649 97,-161 231,-237 384,-237 149,0 277,76 383,237 98,153 144,363 144,610l0 1468 -63 1z"/>
   <path class="fil0 str0" d="M6919 8042l0 -1953 0 -246c0,-278 55,-506 153,-695 106,-192 240,-286 402,-286 171,0 305,94 402,274 107,192 162,429 162,707 0,283 -55,524 -162,703 -107,189 -241,287 -402,287 -125,0 -232,-58 -320,-174 -91,-103 -152,-256 -189,-436l18 381c46,143 116,247 205,323 91,67 179,95 286,95 222,0 393,-122 509,-372 116,-219 170,-503 170,-838 0,-350 -70,-637 -222,-856 -125,-201 -277,-296 -457,-296 -213,0 -384,135 -509,390 -106,211 -161,457 -161,744l0 2248 115 0zm1566 -4180l0 1971c0,293 52,543 168,732 116,182 241,277 393,277 180,0 305,-76 393,-229 91,-161 134,-399 134,-725 0,-274 -43,-493 -149,-655 -101,-143 -226,-219 -378,-219 -107,0 -204,27 -286,85 -107,76 -177,171 -214,314l-27 -256c46,-116 116,-201 216,-250 89,-55 195,-76 311,-76 110,0 198,-36 268,-103 92,-95 125,-220 125,-390 0,-162 -24,-278 -97,-363 -61,-76 -144,-113 -250,-113l-607 0zm625 -183c152,0 268,67 347,202 73,112 107,265 107,457 0,161 -15,286 -61,380 -46,86 -107,153 -207,201 134,46 234,153 295,323 74,162 107,390 107,677 0,323 -43,579 -125,761 -97,238 -283,351 -536,351 -222,0 -393,-113 -518,-341 -98,-211 -152,-488 -152,-811l0 -2200 743 0zm814 1039l115 0 0 1429c0,220 46,399 125,524 70,104 171,162 268,162 116,0 214,-40 296,-107 88,-76 152,-170 177,-305l0 -1703 124 0 0 2258 -124 0 0 -210c-43,67 -116,122 -214,180 -88,48 -189,76 -268,76 -143,0 -259,-67 -347,-198 -110,-165 -152,-403 -152,-716l0 -1390z"/>
  </g>
 </g>
</svg>
