<?xml version="1.0" encoding="UTF-8"?>
<!DOCTYPE svg PUBLIC "-//W3C//DTD SVG 1.1//EN" "http://www.w3.org/Graphics/SVG/1.1/DTD/svg11.dtd">
<!-- Creator: CorelDRAW X8 -->
<svg xmlns="http://www.w3.org/2000/svg" xml:space="preserve" width="3543px" height="3543px" version="1.1" style="shape-rendering:geometricPrecision; text-rendering:geometricPrecision; image-rendering:optimizeQuality; fill-rule:evenodd; clip-rule:evenodd"
viewBox="0 0 3543 3543"
 xmlns:xlink="http://www.w3.org/1999/xlink">
 <defs>
  <style type="text/css">
   <![CDATA[
    .fil0 {fill:black}
    .fil1 {fill:black;fill-rule:nonzero}
   ]]>
  </style>
 </defs>
 <g id="Слой_x0020_1">
  <metadata id="CorelCorpID_0Corel-Layer"/>
  <path class="fil0" d="M1409 1268c22,7 38,7 63,19 62,35 65,106 65,175 3,81 10,235 -28,297 -28,47 -81,3 -100,-19 -81,-87 -194,-290 -244,-409 -18,-47 -25,-75 -72,-91 -31,-12 -121,-3 -159,-3 -53,0 -106,0 -162,0 -57,0 -91,19 -69,81 28,60 78,157 109,219 31,66 75,150 113,213 68,115 147,237 234,340 84,103 188,194 316,247 78,31 172,63 268,63 41,0 122,3 153,-10 57,-15 47,-53 54,-109 6,-91 46,-213 143,-144 69,50 153,191 250,241 53,25 69,25 135,25 53,0 106,-3 162,-3 47,0 113,3 150,-16 47,-19 63,-53 38,-103 -38,-66 -94,-131 -144,-181l-125 -122c-88,-82 -91,-113 -22,-206 78,-113 159,-200 241,-332 15,-31 40,-68 53,-106 37,-112 -56,-97 -131,-97l-244 3c-63,0 -100,-15 -125,41l-47 112c-44,100 -191,360 -269,382 -44,12 -65,-53 -69,-94 -3,-63 4,-244 4,-319 3,-50 3,-106 -22,-137 -41,-53 -203,-47 -281,-44 -47,0 -107,6 -150,12 -22,7 -38,13 -57,29 -9,3 -34,28 -31,46l0 0 0 0 0 0z"/>
  <path class="fil1" d="M584 865c0,-12 16,-37 41,-78 9,-12 18,-28 28,-40 9,-16 19,-29 25,-41 9,-16 15,-28 19,-44 3,-12 6,-28 6,-44 0,-12 -3,-25 -6,-34 -4,-9 -10,-19 -16,-28 -6,-6 -16,-13 -25,-19 -6,-3 -16,-9 -25,-12 -9,-3 -19,-7 -31,-7 -10,0 -19,-3 -25,-3 -10,0 -19,3 -25,3 -7,0 -13,4 -16,7 -6,3 -9,9 -9,15 -3,10 -3,19 -3,32l0 362 -25 0 0 6 146 0 0 -6 -65 0 0 -56c6,9 19,12 31,12 6,0 13,0 19,-3 3,0 6,-3 9,-3 3,-6 3,-6 3,-6 3,-3 3,-6 3,-6 0,-7 -3,-10 -3,-13 -3,-6 -6,-9 -9,-9 -6,-3 -9,-3 -13,-3 -3,0 -6,0 -9,0 -3,0 -6,0 -6,3 0,0 0,3 0,3 3,6 3,6 3,9 0,3 0,6 0,6 3,4 3,4 3,7 0,3 -3,3 -6,3 -3,0 -3,0 -6,0 0,0 -4,0 -4,0 -3,-3 -6,-3 -6,-6 0,0 -3,-4 -3,-7l0 0 0 0 0 0 0 0zm28 -331c19,16 31,47 31,94 0,56 -12,106 -31,150 -12,22 -19,40 -25,59 -6,13 -9,25 -9,31l0 -325c0,-9 3,-15 12,-15 7,0 13,3 22,6l0 0 0 0 0 0zm253 400l-3 0 0 6 81 0 0 -6 -21 0 0 -409 21 0 0 -7 -146 0c0,0 0,0 0,0 0,4 0,7 0,13 6,3 6,9 9,12 3,4 6,10 9,13 3,3 7,3 13,3 3,0 3,0 3,0 0,0 0,-3 0,-3 0,-6 3,-9 6,-16 6,-6 10,-12 25,-15l3 0 0 40c0,38 -18,82 -53,122 -50,53 -72,113 -72,181 0,10 0,22 0,35 3,9 3,22 10,31l-25 0 0 6 90 0 0 -6 0 0c-3,-16 -9,-34 -12,-56 3,-16 25,-31 62,-41l0 97 0 0 0 0 0 0zm0 -109c-18,3 -28,3 -37,9 -13,0 -22,3 -31,6 0,-3 0,-12 0,-15 0,-3 0,-7 0,-10 0,-50 9,-90 25,-118 25,-38 37,-63 43,-75l0 203 0 0 0 0zm238 109l-3 0 0 6 84 0 0 -6 -22 0 0 -412 22 0 0 -7 -84 0 0 7 3 0 0 281c-10,6 -19,12 -28,15 -13,16 -22,29 -28,47l0 -343 3 0 0 -7 -85 0 0 7 25 0 0 412 -25 0 0 6 85 0 0 -6 -3 0 0 -59c18,-28 34,-41 46,-41 7,0 10,3 10,9l0 91 0 0zm-28 -437c9,0 15,0 22,0 9,0 15,-4 18,-4 7,-3 10,-3 16,-6 0,-3 3,-6 3,-15 0,-4 -3,-13 -3,-25 -6,-7 -9,-13 -13,-19 -3,0 -3,0 -3,3l3 9c0,7 -3,16 -6,22 -3,6 -9,10 -12,10 -7,6 -13,9 -16,12 -6,0 -9,0 -9,0 -3,0 -7,0 -13,0 -3,-3 -9,-3 -12,-6 -7,-6 -10,-10 -13,-16 -6,-3 -6,-15 -6,-22 0,0 0,-3 0,-6 0,0 0,-3 0,-3 0,-3 0,-3 0,-3 -3,0 -6,3 -6,6 -3,6 -7,6 -7,13 0,6 -3,12 -3,18 0,3 0,7 0,7 0,9 0,12 7,15 3,3 9,6 15,6 3,0 10,4 19,4 6,0 12,0 16,0l3 0 0 0zm209 131c9,15 19,31 28,44 6,12 16,25 19,37 6,13 12,28 16,44 3,15 3,37 3,62 0,22 0,44 -3,63 -4,19 -7,37 -13,56l-3 0 0 6 91 0 0 -6 -22 0c3,-22 6,-44 6,-66 0,-21 -3,-46 -9,-68 -7,-22 -13,-44 -25,-63 -10,-22 -22,-40 -35,-56 -12,-19 -25,-34 -40,-47 9,6 21,9 31,9 12,0 25,-3 31,-6 9,-3 16,-9 22,-19 3,-9 9,-21 9,-34 3,-16 3,-37 3,-59l19 0 0 -7 -72 0c3,4 3,10 3,16 0,6 0,13 0,22 0,22 -3,41 -9,50 -9,12 -19,19 -31,19 -6,0 -10,-3 -13,-7 -3,-3 -6,-6 -6,-15l0 -78 3 0 0 -7 -81 0 0 7 19 0 0 409 -19 0 0 6 81 0 0 -6 -3 0 0 -306 0 0 0 0 0 0zm234 219c10,18 16,31 16,53 0,12 0,22 -6,25 -3,6 -10,9 -16,9 -6,0 -9,-3 -9,-12l0 -13c0,-6 -3,-9 -10,-9 0,0 -3,3 -9,3 -6,0 -9,3 -16,3 -3,3 -9,6 -12,9 -3,3 -3,7 -3,10 0,3 0,9 3,9 3,3 9,6 12,6 7,3 10,3 16,3 3,0 9,0 13,0 28,0 50,-3 71,-15 19,-13 32,-28 47,-50 10,-16 19,-41 22,-66 6,-28 10,-59 10,-90 0,-29 -4,-57 -7,-82 -3,-25 -9,-43 -18,-62 -10,-19 -22,-35 -35,-47 -15,-9 -34,-16 -50,-16 -19,0 -31,3 -40,13 -13,6 -22,15 -32,28 -6,12 -12,28 -15,47 -7,19 -7,37 -7,59 0,22 4,41 7,60 6,15 12,37 25,62 6,3 12,16 18,28 7,10 16,25 25,35l0 0 0 0 0 0zm-3 -322c3,0 3,0 3,0 4,0 4,0 7,0 12,0 15,3 25,12 9,6 15,19 18,35 7,15 10,34 16,59 3,22 6,50 6,81 0,72 -6,122 -15,160 -7,37 -25,56 -47,62 15,-16 22,-34 22,-62 0,-35 -10,-79 -28,-122 -22,-50 -35,-103 -35,-150 0,-44 10,-69 28,-75l0 0 0 0 0 0zm232 112c6,3 15,6 25,10 9,0 18,0 31,0l0 287 -3 0 0 6 81 0 0 -6 -22 0 0 -409 22 0 0 -7 -81 0 0 7 3 0 0 112c-25,-3 -44,-12 -56,-28l0 -84 3 0 0 -7 -82 0 0 7 22 0 0 409 -22 0 0 6 82 0 0 -6 -3 0 0 -297 0 0zm237 -9c12,15 22,31 25,44 12,12 19,25 25,37 6,13 9,28 12,44 4,15 7,37 7,62 0,22 -3,44 -7,63 -3,19 -6,37 -12,56l-3 0 0 6 90 0 0 -6 -21 0c6,-22 6,-44 6,-66 0,-21 -3,-46 -6,-68 -7,-22 -16,-44 -25,-63 -13,-22 -22,-40 -38,-56 -12,-19 -28,-34 -37,-47 6,6 18,9 31,9 12,0 22,-3 31,-6 9,-3 16,-9 19,-19 6,-9 9,-21 12,-34 0,-16 3,-37 3,-59l19 0 0 -7 -72 0c0,4 0,10 0,16 3,6 3,13 3,22 0,22 -6,41 -12,50 -6,12 -19,19 -31,19 -3,0 -10,-3 -13,-7 -6,-3 -6,-6 -6,-15l0 -78 6 0 0 -7 -84 0 0 7 22 0 0 409 -22 0 0 6 84 0 0 -6 -6 0 0 -306 0 0 0 0 0 0zm237 219c7,18 13,31 13,53 0,12 -3,22 -6,25 -3,6 -10,9 -13,9 -9,0 -12,-3 -12,-12l0 -13c0,-6 -3,-9 -7,-9 -3,0 -6,3 -12,3 -3,0 -9,3 -13,3 -6,3 -9,6 -12,9 -6,3 -6,7 -6,10 0,3 0,9 6,9 3,3 6,6 9,6 7,3 13,3 16,3 6,0 9,0 12,0 29,0 54,-3 72,-15 19,-13 32,-28 44,-50 13,-16 19,-41 25,-66 6,-28 9,-59 9,-90 0,-29 -3,-57 -9,-82 -3,-25 -9,-43 -19,-62 -6,-19 -18,-35 -31,-47 -16,-9 -31,-16 -50,-16 -16,0 -28,3 -41,13 -12,6 -21,15 -28,28 -9,12 -15,28 -18,47 -4,19 -7,37 -7,59 0,22 3,41 10,60 3,15 12,37 25,62 3,3 9,16 18,28 7,10 16,25 25,35l0 0 0 0 0 0zm-6 -322c3,0 6,0 6,0 0,0 4,0 4,0 9,0 18,3 25,12 9,6 15,19 21,35 4,15 10,34 13,59 3,22 3,50 3,81 0,72 -3,122 -12,160 -10,37 -25,56 -44,62 12,-16 22,-34 22,-62 0,-35 -13,-79 -32,-122 -21,-50 -34,-103 -34,-150 0,-44 9,-69 28,-75l0 0 0 0zm219 409c-6,0 -9,-3 -9,-6l3 -22c0,-3 -3,-6 -7,-6 -15,6 -28,9 -40,15 -3,3 -6,7 -6,10 0,12 12,18 46,18 16,0 29,0 38,-3 12,-3 22,-9 31,-18 10,-7 19,-16 25,-29 10,-15 16,-28 25,-46 10,-25 16,-47 19,-69 6,-19 6,-44 6,-72l-56 9 0 41c0,109 -19,169 -53,178 12,-16 22,-34 22,-62 0,-35 -13,-79 -32,-122 -21,-50 -34,-103 -34,-150 0,-50 13,-75 38,-75 25,0 40,25 50,78l59 0c-3,-13 -6,-25 -13,-35 -6,-12 -12,-21 -21,-28 -10,-9 -19,-12 -29,-18 -12,-4 -25,-7 -34,-7 -16,0 -31,3 -41,10 -12,9 -21,18 -28,31 -12,12 -15,28 -18,47 -4,19 -7,37 -7,59 0,22 3,41 10,60 3,15 9,37 25,62 3,0 6,9 9,16 9,12 16,18 22,28 6,12 12,22 16,34 6,13 6,22 6,35 0,9 0,18 -6,28 -4,6 -7,9 -16,9l0 0 0 0 0 0zm234 -306c10,15 19,31 28,44 7,12 13,25 19,37 10,13 13,28 13,44 3,15 6,37 6,62 0,22 -3,44 -3,63 -3,19 -6,37 -16,56l-3 0 0 6 94 0 0 -6 -19 0c3,-22 3,-44 3,-66 0,-21 0,-46 -6,-68 -6,-22 -19,-44 -25,-63 -9,-22 -25,-40 -34,-56 -16,-19 -29,-34 -44,-47 9,6 19,9 31,9 16,0 22,-3 34,-6 10,-3 13,-9 19,-19 3,-9 10,-21 13,-34 3,-16 3,-37 3,-59l19 0 0 -7 -72 0c0,4 0,10 0,16 0,6 0,13 0,22 0,22 0,41 -13,50 -6,12 -19,19 -31,19 -3,0 -6,-3 -9,-7 -7,-3 -7,-6 -7,-15l0 -78 3 0 0 -7 -81 0 0 7 22 0 0 409 -22 0 0 6 81 0 0 -6 -3 0 0 -306 0 0 0 0 0 0zm241 247c19,-28 34,-41 47,-41 6,0 9,3 9,9l0 91 -3 0 0 6 81 0 0 -6 -22 0 0 -409 22 0 0 -7 -81 0 0 7 3 0 0 278c-9,6 -15,12 -28,15 -12,16 -22,29 -28,47l0 -340 3 0 0 -7 -84 0 0 7 25 0 0 409 -25 0 0 6 84 0 0 -6 -3 0 0 -59 0 0z"/>
  <path class="fil1" d="M1065 2743l0 47c0,3 0,3 0,6 3,4 7,10 10,13 0,3 3,6 9,12 3,0 6,4 13,10 9,6 18,12 25,15 9,7 12,10 18,10 -3,-3 -6,-10 -9,-13 0,-3 0,-6 0,-9 -6,-3 -6,-9 -6,-13 0,0 0,-6 0,-9l0 -75 -178 0 0 6 21 0 0 294 -21 0 0 6 178 0 0 -6 -97 0 0 -294 37 0 0 0 0 0 0 0zm194 244c0,-6 13,-25 41,-53 12,-9 22,-19 31,-31 9,-10 19,-19 28,-28 6,-10 13,-19 19,-29 3,-12 6,-25 6,-34 0,-12 -3,-19 -6,-25 -6,-6 -10,-16 -19,-22 -6,-3 -16,-6 -25,-9 -9,-6 -19,-10 -28,-13 -9,-3 -19,-3 -31,-6 -10,0 -19,0 -28,0 -10,0 -22,0 -25,0 -7,3 -13,3 -16,6 -9,3 -13,7 -13,16 0,0 -3,9 -3,16l0 262 -25 0 0 6 157 0 0 -6 -72 0 0 -41c9,7 22,10 34,10 6,0 13,0 19,-3 6,0 9,0 12,-3 0,0 3,0 3,-4 0,-3 4,-3 4,-6 0,-3 -4,-6 -7,-6 -3,-3 -6,-3 -9,-6 -3,0 -9,-3 -13,-3 -3,0 -6,0 -9,0 -3,0 -6,0 -6,3 0,0 0,3 0,3 3,3 3,3 3,6 0,0 0,3 0,3 3,0 3,3 3,3 0,3 -3,3 -6,3 -3,0 -3,0 -6,0 0,0 -4,0 -7,0 0,-3 -3,-3 -3,-3 -3,-3 -3,-3 -3,-3l0 -3 0 0 0 0 0 0zm28 -237c22,9 35,37 35,71 0,41 -13,75 -35,107 -12,15 -22,28 -28,40 -6,10 -9,16 -9,22l0 -231c0,-9 6,-13 15,-13 7,0 13,0 22,4l0 0 0 0zm188 -7l3 0 0 -6 -69 0 0 6 6 0 82 222c-25,6 -38,10 -38,16 0,3 3,6 6,9 7,3 13,6 19,10 9,-19 34,-32 81,-32 -6,19 -15,35 -22,44 -6,9 -9,13 -21,19 -10,3 -19,6 -29,6 -6,0 -9,-3 -9,-9l3 -10c0,-3 -3,-6 -9,-6 -3,0 -6,0 -13,3 -3,0 -9,0 -12,0 -6,3 -10,3 -16,6 -3,4 -3,7 -3,10 0,3 0,6 3,6 3,3 10,3 13,6 6,0 9,0 15,0 7,0 10,0 13,0 22,0 40,-3 59,-12 28,-13 50,-60 63,-144 12,-75 25,-125 40,-150l-75 0 0 6 3 0c0,0 0,7 0,16 0,6 0,25 0,47 0,15 0,47 0,78 0,3 0,6 0,9 0,3 0,7 0,10 0,9 0,18 0,31 0,9 0,19 -3,28l-6 0 -84 -219 0 0 0 0 0 0zm334 7l0 287 -3 0 0 6 84 0 0 -6 -22 0 0 -294 22 0 0 -6 -225 0 0 6 25 0 0 294 -25 0 0 6 88 0 0 -6 -3 0 0 -291c3,0 6,0 9,0 3,-3 9,-3 16,-3 12,0 21,3 25,3 6,4 9,4 9,4l0 0 0 0 0 0zm250 0l0 287 -3 0 0 6 87 0 0 -6 -25 0 0 -294 25 0 0 -6 -228 0 0 6 25 0 0 294 -25 0 0 6 88 0 0 -6 -3 0 0 -291c6,0 6,0 9,0 6,-3 9,-3 19,-3 12,0 18,3 25,3 6,4 6,4 6,4l0 0zm250 287l-3 0 0 6 90 0 0 -6 -25 0 0 -294 25 0 0 -6 -156 0c0,0 0,3 0,3 0,0 0,3 3,6 0,4 3,10 7,13 3,0 6,3 9,6 3,0 9,3 12,3 4,0 4,0 4,-3 0,0 0,0 0,0 0,-3 3,-6 6,-9 6,-6 15,-10 25,-13l3 0 0 28c0,29 -19,60 -56,91 -47,38 -72,81 -72,128 0,6 0,16 3,22 0,9 3,16 6,25l-22 0 0 6 94 0 0 -6 -3 0c-6,-12 -9,-25 -13,-41 4,-12 22,-21 63,-28l0 69 0 0 0 0 0 0zm0 -75c-16,0 -28,0 -41,3 -9,0 -18,3 -28,3 0,-3 0,-3 0,-6 0,-3 0,-6 0,-9 0,-35 10,-63 25,-85 25,-25 41,-47 44,-53l0 147 0 0 0 0 0 0zm394 81l-122 0 0 -15 31 0 0 -207c0,-9 0,-15 -3,-21 -3,-7 -6,-10 -16,-10 -3,0 -9,3 -18,6l-4 -12c19,-3 38,-13 50,-19 16,-6 35,-15 50,-28l0 291 32 0 0 15 0 0 0 0 0 0z"/>
 </g>
</svg>
