<?xml version="1.0" encoding="UTF-8"?>
<!DOCTYPE svg PUBLIC "-//W3C//DTD SVG 1.1//EN" "http://www.w3.org/Graphics/SVG/1.1/DTD/svg11.dtd">
<!-- Creator: CorelDRAW X8 -->
<svg xmlns="http://www.w3.org/2000/svg" xml:space="preserve" width="3543px" height="3543px" version="1.1" style="shape-rendering:geometricPrecision; text-rendering:geometricPrecision; image-rendering:optimizeQuality; fill-rule:evenodd; clip-rule:evenodd"
viewBox="0 0 3543 3543"
 xmlns:xlink="http://www.w3.org/1999/xlink">
 <defs>
  <style type="text/css">
   <![CDATA[
    .fil0 {fill:black}
    .fil1 {fill:black;fill-rule:nonzero}
   ]]>
  </style>
 </defs>
 <g id="Слой_x0020_1">
  <metadata id="CorelCorpID_0Corel-Layer"/>
  <path class="fil0" d="M1409 1265c22,7 38,7 63,19 62,38 68,109 68,178 3,81 10,235 -28,297 -31,47 -84,3 -103,-19 -81,-87 -194,-290 -241,-409 -18,-50 -25,-75 -71,-94 -32,-9 -125,-3 -163,-3 -53,0 -106,0 -159,0 -57,0 -91,22 -69,84 28,60 75,157 106,219 31,66 75,150 113,213 72,115 150,240 234,340 84,103 188,197 316,250 81,31 172,60 268,60 41,0 122,3 153,-7 57,-18 47,-53 54,-109 6,-94 43,-216 143,-147 69,50 153,194 247,241 53,25 72,25 135,25 53,0 109,-3 165,-3 47,0 110,3 147,-13 47,-19 63,-53 38,-103 -35,-69 -91,-134 -141,-184l-125 -119c-91,-85 -94,-116 -25,-209 81,-113 159,-200 241,-332 18,-31 40,-68 53,-106 37,-116 -57,-100 -128,-100l-247 3c-63,0 -97,-12 -122,41l-47 115c-44,100 -191,360 -272,382 -44,12 -62,-53 -66,-94 -6,-63 4,-244 4,-319 3,-50 3,-106 -22,-140 -41,-50 -203,-44 -281,-41 -47,0 -104,3 -150,12 -22,7 -38,13 -57,25 -9,7 -34,29 -31,47l0 0 0 0z"/>
  <path class="fil1" d="M587 862c0,-9 16,-34 41,-75 9,-12 19,-28 28,-40 9,-16 19,-29 25,-41 9,-16 16,-28 19,-47 3,-12 6,-28 6,-44 0,-12 -3,-25 -6,-34 -3,-9 -10,-19 -16,-28 -6,-6 -16,-13 -25,-19 -6,-3 -16,-9 -25,-12 -9,-4 -19,-7 -31,-7 -10,0 -19,-3 -25,-3 -10,0 -19,3 -25,3 -6,0 -13,3 -16,7 -6,3 -9,9 -9,15 -3,10 -3,19 -3,31l0 363 -25 0 0 6 147 0 0 -6 -66 0 0 -56c6,9 19,12 31,12 6,0 13,0 19,-3 3,0 6,-3 9,-3 3,-3 3,-3 3,-6 4,-3 4,-7 4,-7 0,-6 -4,-9 -4,-12 -3,-3 -6,-6 -9,-6 -6,-3 -9,-3 -12,-7 -4,0 -7,0 -10,0 -3,0 -6,4 -6,7 0,0 0,3 0,3 3,3 3,3 3,6 0,3 0,6 0,6 3,3 3,3 3,7 0,3 -3,3 -6,3 -3,0 -3,0 -6,0 0,0 -3,0 -3,0 -4,-3 -7,-3 -7,-7 0,0 -3,-3 -3,-6l0 0 0 0 0 0zm28 -331c19,16 32,47 32,94 0,59 -13,109 -32,153 -12,22 -18,40 -25,56 -6,16 -9,25 -9,31l0 -325c0,-9 3,-15 12,-15 7,0 13,3 22,6l0 0 0 0zm250 400l-3 0 0 6 81 0 0 -6 -21 0 0 -409 21 0 0 -7 -143 0c0,0 0,0 0,0 0,3 0,7 0,13 3,3 3,9 6,12 3,3 6,10 9,13 7,3 10,3 13,3 3,0 3,0 3,0 0,0 0,-3 0,-3 0,-6 3,-10 6,-16 6,-6 13,-12 25,-15l3 0 0 40c0,38 -18,81 -53,125 -47,53 -69,113 -69,178 0,10 0,22 0,35 4,9 4,22 7,31l-22 0 0 6 90 0 0 -6 0 0c-6,-16 -12,-34 -15,-56 3,-16 25,-32 62,-41l0 97 0 0 0 0zm0 -106c-15,3 -28,3 -37,6 -13,0 -22,3 -28,6 0,-3 0,-9 0,-12 0,-3 0,-7 0,-10 0,-50 6,-90 25,-118 22,-41 34,-66 40,-79l0 207zm241 106l-3 0 0 6 81 0 0 -6 -22 0 0 -413 22 0 0 -6 -81 0 0 6 3 0 0 285c-9,3 -19,9 -28,15 -13,13 -22,25 -28,44l0 -344 3 0 0 -6 -88 0 0 6 28 0 0 413 -28 0 0 6 88 0 0 -6 -3 0 0 -59c18,-29 34,-41 47,-41 6,0 9,3 9,9l0 91zm-28 -438c9,0 15,0 22,0 9,0 15,-3 18,-3 7,-3 10,-3 13,-6 3,-3 6,-6 6,-12 0,-7 -3,-16 -6,-25 -3,-10 -6,-16 -9,-22 -4,0 -4,0 -4,3l4 9c0,10 -4,16 -7,22 -3,6 -9,9 -12,13 -6,3 -13,6 -16,9 -6,0 -9,0 -9,0 -3,0 -6,0 -13,0 -3,-3 -9,-3 -12,-6 -6,-3 -10,-10 -13,-16 -6,-3 -6,-12 -6,-22 0,0 0,-3 0,-6 0,0 0,-3 0,-3 0,-3 0,-3 0,-3 -3,0 -6,3 -6,6 -3,6 -6,9 -6,16 0,3 -4,9 -4,15 0,3 0,6 0,10 0,6 0,9 7,12 3,3 9,6 15,6 3,0 10,3 19,3 6,0 13,0 16,0l3 0 0 0 0 0zm206 132c9,15 19,31 28,43 6,16 16,29 19,41 6,13 12,28 16,44 3,15 3,37 3,59 0,22 0,44 -3,63 -4,18 -7,37 -13,56l-3 0 0 6 91 0 0 -6 -22 0c3,-22 6,-44 6,-66 0,-22 -3,-43 -9,-65 -7,-22 -13,-44 -25,-63 -10,-22 -22,-40 -35,-56 -12,-22 -25,-38 -40,-50 9,6 21,9 31,9 12,0 25,-3 31,-6 9,-3 16,-9 22,-19 3,-9 9,-22 9,-34 3,-16 3,-38 3,-59l19 0 0 -7 -72 0c3,3 3,10 3,16 0,6 0,12 0,22 0,22 -3,40 -9,50 -9,12 -19,19 -31,19 -6,0 -10,-4 -13,-7 -3,-3 -6,-6 -6,-15l0 -78 3 0 0 -7 -81 0 0 7 22 0 0 409 -22 0 0 6 81 0 0 -6 -3 0 0 -306 0 0 0 0zm238 222c9,15 12,31 12,50 0,12 0,21 -3,25 -3,6 -9,9 -16,9 -9,0 -12,-3 -12,-13l0 -12c0,-6 -3,-9 -10,-9 0,0 -3,3 -9,3 -6,0 -9,3 -16,3 -3,3 -9,6 -12,9 -3,3 -3,6 -3,10 0,3 0,9 3,9 3,3 9,6 12,6 7,3 10,3 16,3 3,0 9,0 13,0 31,0 53,-3 71,-15 19,-13 35,-28 47,-47 10,-19 19,-44 22,-69 6,-28 10,-56 10,-87 0,-29 -4,-60 -7,-85 -3,-25 -9,-44 -18,-62 -10,-19 -19,-35 -35,-47 -12,-10 -31,-16 -50,-16 -15,0 -31,3 -40,13 -13,6 -22,15 -32,28 -6,12 -12,28 -15,47 -7,18 -7,37 -7,59 0,25 4,44 7,63 6,15 12,37 25,59 6,6 12,19 18,28 7,13 19,25 29,38l0 0 0 0zm-4 -325c4,0 4,0 4,0 3,0 3,0 6,0 9,0 15,3 25,12 6,6 12,19 19,34 6,16 9,35 12,60 3,22 6,53 6,84 0,69 -6,119 -12,156 -10,38 -25,57 -47,63 16,-16 22,-34 22,-63 0,-34 -10,-75 -28,-118 -25,-50 -38,-107 -38,-153 0,-44 10,-69 31,-75l0 0zm229 112c6,3 15,6 25,9 9,0 18,0 31,0l0 288 -3 0 0 6 81 0 0 -6 -22 0 0 -409 22 0 0 -7 -81 0 0 7 3 0 0 112c-25,-3 -44,-12 -56,-28l0 -84 3 0 0 -7 -82 0 0 7 22 0 0 409 -22 0 0 6 82 0 0 -6 -3 0 0 -297zm237 -9c9,15 19,31 25,43 9,16 16,29 25,41 6,13 9,28 12,44 4,15 7,37 7,59 0,22 -3,44 -7,63 -3,18 -6,37 -12,56l-6 0 0 6 93 0 0 -6 -21 0c6,-22 6,-44 6,-66 0,-22 -3,-43 -6,-65 -7,-22 -16,-44 -25,-63 -13,-22 -22,-40 -38,-56 -16,-22 -28,-38 -41,-50 10,6 19,9 32,9 15,0 25,-3 34,-6 9,-3 16,-9 19,-19 6,-9 9,-22 12,-34 0,-16 3,-38 3,-59l19 0 0 -7 -72 0c0,3 0,10 0,16 3,6 3,12 3,22 0,22 -6,40 -12,50 -9,12 -22,19 -34,19 -4,0 -10,-4 -13,-7 -3,-3 -3,-6 -3,-15l0 -78 3 0 0 -7 -81 0 0 7 22 0 0 409 -22 0 0 6 81 0 0 -6 -3 0 0 -306 0 0 0 0zm237 222c7,15 13,31 13,50 0,12 -3,21 -6,25 -3,6 -10,9 -13,9 -9,0 -12,-3 -12,-13l0 -12c0,-6 -3,-9 -7,-9 -3,0 -6,3 -12,3 -3,0 -9,3 -13,3 -6,3 -9,6 -12,9 -6,3 -6,6 -6,10 0,3 0,9 6,9 3,3 6,6 9,6 7,3 13,3 16,3 6,0 9,0 12,0 29,0 54,-3 72,-15 19,-13 32,-28 44,-47 13,-19 19,-44 25,-69 3,-28 6,-56 6,-87 0,-29 -3,-60 -6,-85 -3,-25 -9,-44 -19,-62 -6,-19 -18,-35 -31,-47 -16,-10 -31,-16 -50,-16 -16,0 -28,3 -41,13 -12,6 -21,15 -28,28 -9,12 -15,28 -18,47 -4,18 -7,37 -7,59 0,25 3,44 10,63 3,15 12,37 25,59 3,6 9,19 18,28 7,13 16,25 25,38l0 0 0 0zm-6 -325c3,0 6,0 6,0 0,0 4,0 4,0 9,0 18,3 25,12 9,6 15,19 21,34 4,16 10,35 13,60 3,22 3,53 3,84 0,69 -3,119 -12,156 -10,38 -25,57 -44,63 12,-16 22,-34 22,-63 0,-34 -13,-75 -32,-118 -21,-50 -34,-107 -34,-153 0,-44 9,-69 28,-75l0 0 0 0zm216 409c-6,0 -10,-3 -10,-6l4 -22c0,-3 -4,-6 -7,-6 -15,6 -28,9 -37,15 -6,3 -10,6 -10,10 0,12 16,18 47,18 16,0 28,0 38,-3 12,-3 22,-9 31,-19 9,-6 19,-15 25,-28 9,-12 16,-28 25,-47 9,-21 19,-43 22,-65 6,-19 6,-44 6,-72l-59 9 0 41c0,106 -19,166 -53,175 12,-16 22,-34 22,-63 0,-34 -13,-75 -32,-118 -22,-50 -34,-107 -34,-153 0,-50 12,-75 37,-75 25,0 41,25 50,78l63 0c-3,-13 -9,-25 -16,-35 -6,-12 -12,-22 -22,-28 -9,-9 -18,-12 -28,-19 -12,-3 -25,-6 -34,-6 -16,0 -31,3 -41,10 -12,9 -22,18 -28,31 -9,12 -15,28 -19,47 -3,18 -6,37 -6,59 0,25 3,44 10,63 3,15 12,37 25,59 3,3 6,12 12,19 6,9 13,18 19,28 6,9 12,22 15,31 7,13 7,22 7,34 0,10 0,19 -7,29 -3,6 -6,9 -15,9l0 0zm237 -306c10,15 19,31 28,43 7,16 13,29 19,41 6,13 10,28 13,44 3,15 6,37 6,59 0,22 -3,44 -3,63 -3,18 -10,37 -16,56l-3 0 0 6 91 0 0 -6 -19 0c3,-22 6,-44 6,-66 0,-22 -3,-43 -9,-65 -6,-22 -16,-44 -25,-63 -10,-22 -22,-40 -35,-56 -12,-22 -28,-38 -40,-50 9,6 19,9 31,9 13,0 22,-3 31,-6 10,-3 16,-9 22,-19 3,-9 6,-22 10,-34 3,-16 3,-38 3,-59l18 0 0 -7 -71 0c0,3 0,10 3,16 0,6 0,12 0,22 0,22 -3,40 -13,50 -6,12 -19,19 -31,19 -3,0 -6,-4 -9,-7 -7,-3 -7,-6 -7,-15l0 -78 3 0 0 -7 -81 0 0 7 22 0 0 409 -22 0 0 6 81 0 0 -6 -3 0 0 -306 0 0 0 0zm238 247c19,-29 34,-41 47,-41 6,0 9,3 9,9l0 91 -3 0 0 6 81 0 0 -6 -22 0 0 -409 22 0 0 -7 -81 0 0 7 3 0 0 281c-9,3 -16,9 -28,15 -13,13 -22,25 -28,44l0 -340 3 0 0 -7 -84 0 0 7 25 0 0 409 -25 0 0 6 84 0 0 -6 -3 0 0 -59z"/>
  <path class="fil1" d="M1068 2746l0 47c0,3 0,3 0,7 4,3 7,6 10,9 0,3 3,6 9,12 3,4 6,7 13,10 9,6 18,12 25,15 6,7 12,10 18,10 -3,-3 -6,-10 -9,-13 0,-3 -3,-6 -3,-9 -3,-3 -3,-6 -3,-9 0,-4 0,-10 0,-13l0 -72 -181 0 0 6 21 0 0 294 -21 0 0 6 181 0 0 -6 -97 0 0 -294 37 0 0 0 0 0zm191 244c0,-6 13,-25 41,-53 12,-9 22,-19 31,-31 9,-10 19,-19 28,-28 6,-13 13,-22 19,-32 3,-12 6,-21 6,-34 0,-9 -3,-16 -6,-25 -6,-6 -10,-12 -19,-19 -6,-3 -16,-9 -25,-12 -9,-3 -19,-6 -28,-10 -9,-3 -19,-3 -31,-6 -10,0 -19,0 -28,0 -10,0 -19,0 -25,0 -7,3 -13,3 -16,6 -6,4 -9,7 -13,13 0,3 -3,12 -3,19l0 262 -22 0 0 6 154 0 0 -6 -72 0 0 -40c9,6 22,9 34,9 6,0 13,0 19,-3 6,0 9,0 12,-3 0,0 3,0 3,-3 0,-4 4,-4 4,-7 0,-3 -4,-6 -7,-6 -3,-3 -6,-3 -9,-6 -3,0 -9,-3 -13,-3 -3,0 -6,0 -9,0 -3,0 -6,0 -6,3 0,0 0,3 0,3 3,3 3,3 3,6 0,0 0,3 0,3 3,0 3,3 3,3 0,4 -3,4 -6,4 -3,0 -3,0 -6,0 0,0 -4,0 -7,0 0,-4 -3,-4 -3,-4 -3,-3 -3,-3 -3,-3l0 -3 0 0 0 0zm28 -237c22,9 35,34 35,68 0,41 -13,79 -35,110 -12,15 -22,28 -28,40 -6,10 -9,16 -9,22l0 -234c0,-6 6,-9 15,-9 7,0 13,0 22,3l0 0 0 0zm188 -7l3 0 0 -6 -69 0 0 6 6 0 82 222c-25,7 -38,10 -38,16 0,3 3,6 6,9 7,3 13,7 19,10 9,-19 38,-32 81,-32 -6,19 -12,35 -18,44 -7,10 -13,13 -22,19 -10,3 -22,6 -32,6 -6,0 -9,-3 -9,-9l3 -10c0,-3 -3,-6 -9,-6 -3,0 -6,0 -13,3 -3,0 -9,0 -12,0 -6,3 -10,3 -16,7 -3,3 -3,6 -3,9 0,3 0,6 3,6 3,3 10,3 13,6 6,0 9,0 15,0 7,0 10,0 13,0 22,0 44,-3 62,-12 25,-13 47,-59 60,-144 12,-78 25,-125 40,-150l-75 0 0 6 3 0c0,0 0,7 0,13 0,9 0,25 0,47 0,19 4,47 4,81 0,3 0,6 0,9 0,4 0,7 0,10 0,9 0,19 0,31 0,9 -4,19 -7,28l-6 0 -84 -219 0 0 0 0zm334 7l0 287 -3 0 0 6 84 0 0 -6 -22 0 0 -294 22 0 0 -6 -225 0 0 6 25 0 0 294 -25 0 0 6 88 0 0 -6 -3 0 0 -290c3,0 6,0 9,0 3,-4 9,-4 16,-4 12,0 22,4 25,4 6,3 9,3 9,3l0 0 0 0zm250 0l0 287 -3 0 0 6 87 0 0 -6 -25 0 0 -294 25 0 0 -6 -228 0 0 6 22 0 0 294 -22 0 0 6 85 0 0 -6 -4 0 0 -290c7,0 10,0 13,0 3,-4 6,-4 16,-4 15,0 21,4 28,4 6,3 6,3 6,3zm250 287l-3 0 0 6 87 0 0 -6 -25 0 0 -294 25 0 0 -6 -153 0c0,0 0,3 0,3 0,0 0,3 3,7 0,3 3,6 7,9 3,3 6,6 9,9 3,0 9,3 12,3 4,0 4,0 4,-3 0,0 0,0 0,0 0,-3 3,-6 6,-12 6,-3 15,-6 25,-10l3 0 0 29c0,28 -19,56 -56,87 -47,41 -72,84 -72,131 0,7 0,16 3,22 0,10 3,16 6,25l-22 0 0 6 94 0 0 -6 -3 0c-6,-12 -9,-25 -13,-40 4,-13 22,-22 63,-29l0 69 0 0 0 0zm0 -75c-16,0 -28,0 -41,3 -9,0 -18,3 -28,3 0,-3 0,-3 0,-6 0,-3 0,-6 0,-9 0,-35 10,-63 25,-88 25,-25 41,-43 44,-53l0 150 0 0z"/>
  <path class="fil1" d="M2709 2987l0 59 -181 0c-7,-3 -13,-40 -10,-43 28,-32 69,-75 85,-94 18,-31 37,-53 37,-78 0,-22 -22,-78 -50,-88 -25,-6 -47,13 -44,35 4,6 44,34 41,40l-25 32c-22,-10 -34,-19 -37,-41 -4,-25 6,-47 15,-59 19,-13 41,-22 63,-22 25,0 47,9 62,25 19,15 25,34 25,56 0,16 -3,31 -9,47 -13,28 -35,50 -56,81 -32,44 -35,97 -7,103 0,0 -18,0 -15,0 3,0 75,0 78,0 6,0 3,-3 3,-9 0,-16 -16,-41 -16,-41 3,-3 38,-3 41,-3l0 0z"/>
 </g>
</svg>
