<?xml version="1.0" encoding="UTF-8"?>
<!DOCTYPE svg PUBLIC "-//W3C//DTD SVG 1.1//EN" "http://www.w3.org/Graphics/SVG/1.1/DTD/svg11.dtd">
<!-- Creator: CorelDRAW X8 -->
<svg xmlns="http://www.w3.org/2000/svg" xml:space="preserve" width="3543px" height="3543px" version="1.1" style="shape-rendering:geometricPrecision; text-rendering:geometricPrecision; image-rendering:optimizeQuality; fill-rule:evenodd; clip-rule:evenodd"
viewBox="0 0 3543 3543"
 xmlns:xlink="http://www.w3.org/1999/xlink">
 <defs>
  <style type="text/css">
   <![CDATA[
    .fil0 {fill:black}
    .fil1 {fill:black;fill-rule:nonzero}
   ]]>
  </style>
 </defs>
 <g id="Слой_x0020_1">
  <metadata id="CorelCorpID_0Corel-Layer"/>
  <path class="fil0" d="M1409 1268c22,7 38,7 63,19 62,35 68,106 68,175 3,85 10,235 -31,297 -28,47 -81,3 -100,-19 -81,-87 -194,-290 -241,-409 -18,-47 -25,-72 -71,-91 -32,-9 -125,-3 -163,-3 -53,0 -106,0 -159,0 -57,0 -91,22 -69,81 28,60 75,157 106,222 31,66 75,147 113,210 72,115 150,237 234,340 84,103 188,194 316,247 81,31 172,59 268,59 41,0 122,4 153,-6 57,-19 47,-53 54,-109 6,-91 43,-213 143,-144 69,50 153,191 247,238 53,25 72,25 135,25 53,0 109,-4 165,-4 47,0 110,4 147,-12 47,-19 63,-53 38,-103 -35,-66 -91,-131 -141,-181l-125 -122c-91,-82 -94,-113 -25,-206 81,-113 159,-197 241,-332 18,-31 40,-68 53,-106 37,-112 -57,-97 -128,-97l-247 3c-63,0 -97,-12 -122,41l-47 112c-44,100 -191,360 -272,382 -44,12 -62,-53 -66,-94 -6,-63 4,-244 4,-319 3,-50 3,-103 -22,-137 -41,-50 -203,-44 -281,-41 -47,0 -104,3 -150,13 -22,6 -38,12 -57,25 -9,6 -34,28 -31,46l0 0 0 0z"/>
  <path class="fil1" d="M587 865c0,-9 16,-34 41,-75 9,-12 19,-28 28,-40 9,-16 19,-28 25,-41 9,-16 16,-28 19,-44 3,-12 6,-28 6,-43 0,-13 -3,-25 -6,-35 -3,-9 -10,-19 -16,-28 -6,-6 -16,-12 -25,-19 -6,-3 -16,-9 -25,-12 -9,-3 -19,-6 -31,-6 -10,0 -19,-4 -25,-4 -10,0 -19,4 -25,4 -6,0 -13,3 -16,6 -6,3 -9,9 -9,15 -3,10 -3,19 -3,32l0 359 -25 0 0 6 147 0 0 -6 -66 0 0 -56c6,9 19,12 31,12 6,0 13,0 19,-3 3,0 6,-3 9,-3 3,-3 3,-3 3,-6 4,-3 4,-6 4,-6 0,-7 -4,-10 -4,-13 -3,-3 -6,-6 -9,-6 -6,-3 -9,-3 -12,-6 -4,0 -7,0 -10,0 -3,0 -6,3 -6,6 0,0 0,3 0,3 3,3 3,3 3,6 0,3 0,6 0,6 3,4 3,4 3,7 0,3 -3,3 -6,3 -3,0 -3,0 -6,0 0,0 -3,0 -3,0 -4,-3 -7,-3 -7,-6 0,0 -3,-4 -3,-7l0 0 0 0 0 0zm28 -328c19,16 32,47 32,94 0,56 -13,106 -32,150 -12,22 -18,41 -25,56 -6,16 -9,25 -9,31l0 -321c0,-10 3,-16 12,-16 7,0 13,3 22,6l0 0 0 0zm250 397l-3 0 0 6 81 0 0 -6 -21 0 0 -406 21 0 0 -6 -143 0c0,0 0,0 0,0 0,3 0,6 0,12 3,3 3,9 6,13 3,3 6,9 9,12 7,3 10,3 13,3 3,0 3,0 3,0 0,0 0,-3 0,-3 0,-6 3,-9 6,-16 6,-6 13,-12 25,-15l3 0 0 40c0,38 -18,82 -53,122 -47,53 -69,113 -69,178 0,10 0,22 0,35 4,9 4,22 7,31l-22 0 0 6 90 0 0 -6 0 0c-6,-16 -12,-34 -15,-56 3,-16 25,-31 62,-41l0 97 0 0 0 0zm0 -106c-15,3 -28,3 -37,6 -13,0 -22,3 -28,6 0,-3 0,-9 0,-12 0,-3 0,-6 0,-10 0,-50 6,-90 25,-118 22,-38 34,-63 40,-75l0 203zm241 106l-3 0 0 6 81 0 0 -6 -22 0 0 -409 22 0 0 -7 -81 0 0 7 3 0 0 281c-9,3 -19,9 -28,16 -13,12 -22,25 -28,43l0 -340 3 0 0 -7 -88 0 0 7 28 0 0 409 -28 0 0 6 88 0 0 -6 -3 0 0 -59c18,-28 34,-41 47,-41 6,0 9,3 9,9l0 91zm-28 -434c9,0 15,0 22,0 9,0 15,-3 18,-3 7,-4 10,-4 13,-7 3,-3 6,-6 6,-12 0,-6 -3,-19 -6,-28 -3,-10 -6,-16 -9,-22 -4,0 -4,0 -4,3l4 9c0,10 -4,16 -7,22 -3,10 -9,13 -12,16 -6,3 -13,6 -16,9 -6,0 -9,0 -9,0 -3,0 -6,0 -13,0 -3,-3 -9,-3 -12,-6 -6,-3 -10,-9 -13,-19 -6,-3 -6,-12 -6,-22 0,0 0,-3 0,-6 0,0 0,-3 0,-3 0,-3 0,-3 0,-3 -3,0 -6,3 -6,6 -3,6 -6,9 -6,16 0,3 -4,9 -4,15 0,7 0,10 0,13 0,6 0,9 7,12 3,3 9,7 15,7 3,0 10,3 19,3 6,0 13,0 16,0l3 0 0 0 0 0zm206 131c9,16 19,31 28,44 6,12 16,25 19,37 6,13 12,28 16,44 3,16 3,37 3,59 0,22 0,44 -3,63 -4,19 -7,37 -13,56l-3 0 0 6 91 0 0 -6 -22 0c3,-22 6,-44 6,-66 0,-21 -3,-43 -9,-65 -7,-22 -13,-44 -25,-63 -10,-22 -22,-40 -35,-56 -12,-19 -25,-34 -40,-47 9,6 21,10 31,10 12,0 25,-4 31,-7 9,-3 16,-9 22,-18 3,-10 9,-22 9,-35 3,-15 3,-37 3,-59l19 0 0 -6 -72 0c3,3 3,9 3,15 0,6 0,13 0,22 0,22 -3,41 -9,50 -9,13 -19,19 -31,19 -6,0 -10,-3 -13,-6 -3,-4 -6,-7 -6,-16l0 -78 3 0 0 -6 -81 0 0 6 22 0 0 406 -22 0 0 6 81 0 0 -6 -3 0 0 -303 0 0 0 0zm238 219c9,15 12,31 12,50 0,12 0,22 -3,25 -3,6 -9,9 -16,9 -9,0 -12,-3 -12,-12l0 -13c0,-6 -3,-9 -10,-9 0,0 -3,3 -9,3 -6,0 -9,3 -16,3 -3,3 -9,6 -12,9 -3,3 -3,7 -3,10 0,3 0,9 3,9 3,3 9,6 12,6 7,3 10,3 16,3 3,0 9,0 13,0 31,0 53,-3 71,-15 19,-13 35,-28 47,-47 10,-19 19,-44 22,-69 6,-28 10,-56 10,-87 0,-28 -4,-57 -7,-82 -3,-25 -9,-43 -18,-62 -10,-19 -19,-34 -35,-47 -12,-9 -31,-16 -50,-16 -15,0 -31,4 -40,13 -13,6 -22,16 -32,28 -6,13 -12,28 -15,47 -7,19 -7,37 -7,59 0,22 4,41 7,60 6,15 12,37 25,59 6,6 12,19 18,28 7,13 16,25 29,38l0 0 0 0zm-4 -322c4,0 4,0 4,0 3,0 3,0 6,0 9,0 15,3 25,12 6,7 12,19 19,35 6,15 9,34 12,59 3,22 6,50 6,81 0,69 -6,119 -12,157 -10,37 -25,56 -47,62 16,-16 22,-34 22,-62 0,-35 -10,-75 -28,-119 -25,-50 -38,-103 -38,-150 0,-44 10,-69 31,-75l0 0zm229 112c6,3 15,7 25,10 9,0 18,0 31,0l0 284 -3 0 0 6 81 0 0 -6 -22 0 0 -406 22 0 0 -6 -81 0 0 6 3 0 0 112c-25,-3 -44,-12 -56,-28l0 -84 3 0 0 -6 -82 0 0 6 22 0 0 406 -22 0 0 6 82 0 0 -6 -3 0 0 -294zm237 -9c9,16 19,31 25,44 9,12 16,25 25,37 6,13 9,28 12,44 4,16 7,37 7,59 0,22 -3,44 -7,63 -3,19 -6,37 -12,56l-6 0 0 6 93 0 0 -6 -21 0c6,-22 6,-44 6,-66 0,-21 -3,-43 -6,-65 -7,-22 -16,-44 -25,-63 -13,-22 -22,-40 -38,-56 -16,-19 -28,-34 -41,-47 10,6 19,10 32,10 15,0 25,-4 34,-7 9,-3 16,-9 19,-18 6,-10 9,-22 12,-35 0,-15 3,-37 3,-59l19 0 0 -6 -72 0c0,3 0,9 0,15 3,6 3,13 3,22 0,22 -6,41 -12,50 -9,13 -22,19 -34,19 -4,0 -10,-3 -13,-6 -3,-4 -3,-7 -3,-16l0 -78 3 0 0 -6 -81 0 0 6 22 0 0 406 -22 0 0 6 81 0 0 -6 -3 0 0 -303 0 0 0 0zm237 219c7,15 13,31 13,50 0,12 -3,22 -6,25 -3,6 -10,9 -13,9 -9,0 -12,-3 -12,-12l0 -13c0,-6 -3,-9 -7,-9 -3,0 -6,3 -12,3 -3,0 -9,3 -13,3 -6,3 -9,6 -12,9 -6,3 -6,7 -6,10 0,3 0,9 6,9 3,3 6,6 9,6 7,3 13,3 16,3 6,0 9,0 12,0 29,0 54,-3 72,-15 19,-13 32,-28 44,-47 13,-19 19,-44 25,-69 3,-28 6,-56 6,-87 0,-28 -3,-57 -6,-82 -3,-25 -9,-43 -19,-62 -6,-19 -18,-34 -31,-47 -16,-9 -31,-16 -50,-16 -16,0 -28,4 -41,13 -12,6 -21,16 -28,28 -9,13 -15,28 -18,47 -4,19 -7,37 -7,59 0,22 3,41 10,60 3,15 12,37 25,59 3,6 9,19 18,28 7,13 16,25 25,38l0 0 0 0zm-6 -322c3,0 6,0 6,0 0,0 4,0 4,0 9,0 18,3 25,12 9,7 15,19 21,35 4,15 10,34 13,59 3,22 3,50 3,81 0,69 -3,119 -12,157 -10,37 -25,56 -44,62 12,-16 22,-34 22,-62 0,-35 -13,-75 -32,-119 -21,-50 -34,-103 -34,-150 0,-44 9,-69 28,-75l0 0 0 0zm216 406c-6,0 -10,-3 -10,-6l4 -22c0,-3 -4,-6 -7,-6 -15,6 -28,9 -37,15 -6,3 -10,7 -10,10 0,12 16,18 47,18 16,0 28,0 38,-3 12,-3 22,-9 31,-18 9,-7 19,-16 25,-29 9,-12 16,-28 25,-46 9,-22 19,-44 22,-66 6,-19 6,-44 6,-72l-59 9 0 41c0,106 -19,166 -53,175 12,-16 22,-34 22,-62 0,-35 -13,-75 -32,-119 -22,-50 -34,-103 -34,-150 0,-50 12,-75 37,-75 25,0 41,25 50,78l63 0c-3,-13 -9,-25 -16,-34 -6,-13 -12,-22 -22,-29 -9,-9 -18,-12 -28,-18 -12,-3 -25,-7 -34,-7 -16,0 -31,4 -41,10 -12,9 -22,19 -28,31 -9,13 -15,28 -19,47 -3,19 -6,37 -6,59 0,22 3,41 10,60 3,15 12,37 25,59 3,3 6,13 12,19 6,9 13,19 19,28 6,9 12,22 15,31 7,13 7,22 7,35 0,9 0,18 -7,28 -3,6 -6,9 -15,9l0 0zm237 -303c10,16 19,31 28,44 7,12 13,25 19,37 6,13 10,28 13,44 3,16 6,37 6,59 0,22 -3,44 -3,63 -3,19 -10,37 -16,56l-3 0 0 6 91 0 0 -6 -19 0c3,-22 6,-44 6,-66 0,-21 -3,-43 -9,-65 -6,-22 -16,-44 -25,-63 -10,-22 -22,-40 -35,-56 -12,-19 -28,-34 -40,-47 9,6 19,10 31,10 13,0 22,-4 31,-7 10,-3 16,-9 22,-18 3,-10 6,-22 10,-35 3,-15 3,-37 3,-59l18 0 0 -6 -71 0c0,3 0,9 3,15 0,6 0,13 0,22 0,22 -3,41 -13,50 -6,13 -19,19 -31,19 -3,0 -6,-3 -9,-6 -7,-4 -7,-7 -7,-16l0 -78 3 0 0 -6 -81 0 0 6 22 0 0 406 -22 0 0 6 81 0 0 -6 -3 0 0 -303 0 0 0 0zm238 244c19,-28 34,-41 47,-41 6,0 9,3 9,9l0 91 -3 0 0 6 81 0 0 -6 -22 0 0 -406 22 0 0 -6 -81 0 0 6 3 0 0 278c-9,3 -16,9 -28,16 -13,12 -22,25 -28,43l0 -337 3 0 0 -6 -84 0 0 6 25 0 0 406 -25 0 0 6 84 0 0 -6 -3 0 0 -59z"/>
  <path class="fil1" d="M762 3112l213 0 0 -6 -75 0 0 -60c12,7 34,13 68,13 32,0 50,-6 60,-16 6,-12 12,-25 12,-43 0,-47 -28,-104 -90,-175 -22,-29 -38,-57 -47,-82 3,0 9,0 12,3 3,0 10,4 13,7 3,3 6,3 9,6 3,3 3,6 3,6l0 3c0,0 0,0 0,0 13,-3 22,-9 25,-15 7,-7 10,-13 10,-19l-213 0c0,3 3,3 3,9 0,3 3,7 7,10 3,6 6,9 9,12 6,3 9,3 16,3 0,0 3,0 3,0 0,0 -3,-3 -3,-3 0,-3 3,-3 6,-6 0,-3 3,-6 9,-6 3,-3 6,-7 10,-7 6,-3 9,-3 12,-3 -6,22 -22,47 -44,78 -59,79 -90,138 -90,182 0,15 6,28 12,40 10,10 28,13 56,13 32,0 57,-3 69,-10l0 60 -75 0 0 6 0 0 0 0zm75 -75c-6,9 -15,13 -31,13 -6,0 -13,-4 -19,-7 -6,-3 -9,-9 -12,-15 -7,-10 -7,-16 -10,-25 0,-10 -3,-19 -3,-28 0,-54 16,-100 41,-144 19,-35 31,-56 34,-69l0 275 0 0 0 0zm113 6c-3,3 -13,7 -19,7 -13,0 -25,-4 -31,-13l0 -275c15,31 25,56 34,72 28,44 41,94 41,144 0,31 -7,53 -25,65l0 0 0 0zm203 7c22,-25 40,-38 53,-38 6,0 9,3 9,13l0 81 -6 0 0 6 91 0 0 -6 -25 0 0 -366 25 0 0 -6 -91 0 0 6 6 0 0 250c-9,3 -18,6 -31,13 -16,9 -25,22 -31,37l0 -300 3 0 0 -6 -91 0 0 6 25 0 0 366 -25 0 0 6 91 0 0 -6 -3 0 0 -56 0 0 0 0zm269 56c-13,-35 -19,-69 -19,-106 0,-47 9,-82 28,-107 22,-31 37,-53 44,-65l0 278 -3 0 0 6 93 0 0 -6 -25 0 0 -366 25 0 0 -6 -162 0c0,3 0,6 0,9 3,7 6,10 9,13 3,6 6,9 10,12 3,3 9,3 12,3 3,0 3,0 3,0 0,0 0,0 0,-3 0,-3 0,-3 3,-6 3,-3 3,-6 7,-9 6,-3 9,-3 12,-7 6,-3 9,-3 16,-6l0 0 0 38c0,34 -19,72 -60,109 -50,47 -75,100 -75,156 0,10 0,22 3,35 0,9 4,18 7,28l-25 0 0 6 100 0 0 -6 -3 0 0 0 0 0zm256 -56c22,-25 37,-38 53,-38 3,0 6,3 6,13l0 81 -3 0 0 6 91 0 0 -6 -25 0 0 -366 25 0 0 -6 -91 0 0 6 3 0 0 250c-6,3 -15,6 -28,13 -16,9 -25,22 -31,37l0 -300 3 0 0 -6 -91 0 0 6 25 0 0 366 -25 0 0 6 91 0 0 -6 -3 0 0 -56zm322 -297l0 353 -4 0 0 6 91 0 0 -6 -22 0 0 -366 22 0 0 -6 -237 0 0 6 25 0 0 366 -25 0 0 6 90 0 0 -6 -3 0 0 -360c3,0 6,0 9,0 7,-3 10,-3 19,-3 13,0 19,0 25,3 6,4 10,4 10,7l0 0zm262 0l0 353 -3 0 0 6 91 0 0 -6 -25 0 0 -366 25 0 0 -6 -238 0 0 6 25 0 0 366 -25 0 0 6 91 0 0 -6 -3 0 0 -360c6,0 9,0 12,0 3,-3 6,-3 16,-3 12,0 22,0 25,3 6,4 9,4 9,7zm197 275c9,12 12,28 12,50 0,9 0,15 -6,22 -3,3 -9,6 -15,6 -7,0 -10,-3 -10,-10l0 -12c0,-6 -3,-6 -9,-6 -3,0 -6,0 -13,0 -3,0 -9,3 -15,3 -7,3 -10,6 -13,9 -6,0 -6,3 -6,6 0,7 0,10 3,10 6,3 9,6 16,6 3,3 9,3 15,3 7,0 10,0 13,0 31,0 56,-6 78,-15 22,-10 37,-25 53,-44 13,-19 22,-38 25,-63 6,-25 9,-50 9,-78 0,-25 -3,-47 -6,-69 -3,-21 -12,-43 -22,-59 -9,-16 -22,-28 -37,-41 -16,-9 -35,-12 -56,-12 -16,0 -32,3 -44,9 -13,7 -22,16 -31,28 -10,10 -16,25 -19,41 -6,16 -6,34 -6,53 0,19 3,35 6,50 6,16 15,35 28,53 6,10 12,16 22,28 6,10 15,19 28,32l0 0 0 0zm-6 -285c3,0 3,0 6,0 0,0 3,0 3,0 13,0 22,3 28,10 10,6 16,18 22,31 6,12 13,31 16,53 3,19 3,44 3,72 0,59 -3,106 -13,137 -9,38 -28,54 -50,60 16,-13 25,-35 25,-60 0,-31 -12,-65 -34,-103 -25,-47 -38,-90 -38,-137 0,-38 13,-60 32,-63l0 0 0 0zm272 97c3,3 6,3 6,3 3,3 6,3 12,3 13,0 22,0 32,-3 6,-3 15,-9 21,-15 7,-3 10,-10 10,-13 3,-6 3,-12 3,-19 0,-12 -3,-21 -9,-31 -7,-6 -16,-15 -25,-19 -10,-6 -22,-9 -32,-12 -12,0 -25,0 -34,0 -19,0 -31,3 -44,9 -9,7 -15,19 -15,38l0 325 -29 0 0 6 210 0c6,-22 12,-47 12,-69 0,-56 -25,-109 -75,-156 -18,-19 -34,-34 -43,-47l0 0 0 0zm-13 266l0 -272c3,6 9,12 16,25 6,9 15,22 25,34 18,25 28,60 28,107 0,37 -6,71 -19,106l-50 0 0 0 0 0zm0 -347c0,-6 0,-9 3,-13 3,-3 10,-3 13,-3 9,0 15,3 18,10 4,6 7,18 7,31 0,16 -3,28 -7,34 0,10 -6,16 -15,16 -3,0 -10,-3 -13,-6 -3,-3 -6,-13 -6,-25l0 -44 0 0 0 0z"/>
 </g>
</svg>
