<?xml version="1.0" encoding="UTF-8"?>
<!DOCTYPE svg PUBLIC "-//W3C//DTD SVG 1.1//EN" "http://www.w3.org/Graphics/SVG/1.1/DTD/svg11.dtd">
<!-- Creator: CorelDRAW X8 -->
<svg xmlns="http://www.w3.org/2000/svg" xml:space="preserve" width="250px" height="354px" version="1.1" style="shape-rendering:geometricPrecision; text-rendering:geometricPrecision; image-rendering:optimizeQuality; fill-rule:evenodd; clip-rule:evenodd"
viewBox="0 0 250 354"
 xmlns:xlink="http://www.w3.org/1999/xlink">
 <defs>
  <style type="text/css">
   <![CDATA[
    .fil5 {fill:#E40B03}
    .fil3 {fill:#E62728}
    .fil1 {fill:#E8CBD5}
    .fil4 {fill:#F69492}
    .fil0 {fill:#F90505}
    .fil2 {fill:#FD7271}
    .fil6 {fill:#FE827F}
   ]]>
  </style>
 </defs>
 <g id="Слой_x0020_1">
  <metadata id="CorelCorpID_0Corel-Layer"/>
  <g id="_2149397571104">
   <path class="fil0" d="M82 34l0 -2 2 0 0 -1 1 0 0 -1 1 0 0 6 -1 0 0 -1 -1 0 0 -1 -2 0zm0 49l0 -1 2 0 0 -1 1 -1 0 -1 1 0 0 7 -1 0 0 -1 -1 -1 0 -1 -2 0zm0 50l0 -1 2 -1 0 -1 1 0 0 -1 1 0 0 6 -1 0 0 -1 -1 0 0 -1 -2 0zm0 49l0 -1 2 0 0 -1 1 0 0 -2 1 0 0 7 -1 0 0 -1 -1 0 0 -2 -2 0zm0 50l0 -1 2 -1 0 -1 1 0 0 -1 1 0 0 7 -1 0 0 -2 -1 0 0 -1 -2 0zm0 49l0 -1 2 0 0 -1 1 0 0 -2 1 0 0 7 -1 0 0 -1 -1 0 0 -2 -2 0zm0 50l0 -1 2 0 0 -2 1 0 0 -1 1 0 0 7 -1 0 0 -2 -1 0 0 -1 -2 0zm-11 -273l0 -1 2 0 0 -1 1 0 0 -2 1 0 1 -1 1 0 0 -1 1 0 0 -2 2 0 0 2 1 0 0 1 1 0 0 1 2 0 0 2 1 0 0 1 1 0 0 1c0,1 0,0 -1,0l0 2 -1 0 0 1 -2 0 0 2 -1 0 0 1 -1 0c0,1 0,1 -1,1l-1 0 0 -1 -1 0 0 -1 -1 -1 -1 -1 -1 0 0 -1 -1 0 0 -2 -2 0zm0 50l0 -1 2 0 0 -2 1 0 0 -1 1 0 1 -1 1 -1 0 -1 1 0 0 -1 2 0 0 1 1 0 0 1 1 1 0 1 2 0 0 1 1 0 0 2 1 0 0 1c0,0 0,0 -1,0l0 1 -1 0 0 2 -2 0 0 1 -1 0 0 1 -1 0c0,2 0,1 -1,2l-1 0 0 -2 -1 0 0 -1 -1 0 -1 -1 -1 0 0 -2 -1 0 0 -1 -2 0zm0 49l0 -1 2 0 0 -1 1 0 0 -2 2 0 0 -1 1 0 0 -1 1 0 0 -2 2 0 0 2 1 0 0 1 1 0 0 1 2 0 0 2 1 0 0 1 1 0 0 1 -1 1 0 1 -1 0 0 1 -2 0 0 2 -1 0 0 1 -1 0c0,1 0,1 -1,1l-1 0 0 -1 -1 0 0 -1 -1 0 -1 -2 -1 0 0 -1 -1 0 0 -1 -2 -1zm0 50l0 -1 2 0 0 -2 1 0 0 -1 1 0 1 -1 1 0 0 -2 1 0 0 -1 1 0c1,0 1,0 1,1l1 0 0 2 1 0 0 1 2 0 0 1 1 0 0 2c1,0 1,0 1,0l0 1 -1 0 0 1 -1 0 0 2 -2 0 0 1 -1 0 0 1 -1 1 -1 1 -1 0 0 -1 -1 -1 0 -1 -1 0 0 -1 -2 0 0 -2 -1 0 0 -1 -2 0zm0 49l0 -1 2 0 0 -1 1 0 0 -1 1 -1 1 -1 1 0 0 -1 1 0 0 -2 1 0c1,1 1,1 1,2l1 0 0 1 1 0 0 1 2 1 0 1 1 0 0 1c1,0 1,0 1,1l0 0 -1 1 0 1 -1 0 0 1 -2 0 0 2 -1 0 0 1 -1 0 0 1 -2 0 0 -1 -1 0 0 -1 -1 0 0 -2 -2 0 0 -1 -1 0 0 -1 -2 -1zm0 50l0 -1 2 0 0 -2 1 0 0 -1 1 0 1 -1 1 0 0 -2 1 0 0 -1 1 0 1 1 1 0 0 2 1 0 0 1 2 0 0 1 1 0 0 2c1,0 1,0 1,0l0 1 -1 0 0 1 -1 1 0 1 -2 0 0 1 -1 0 0 2 -1 0 -1 1 -1 0 0 -1 -1 0 0 -2 -1 0 0 -1 -2 0 0 -1 -1 -1 0 -1 -2 0zm0 -289l0 -4 2 0 0 1 1 0 0 2 1 0 0 1 2 0 0 1 1 1 0 1 1 0c0,0 0,0 1,-1 0,0 0,0 0,0l1 0 0 -2 1 0 0 -1 2 0 0 -2 1 0 0 -1 1 0 0 4 -1 0 0 1 -1 1 0 1 -2 0 0 1 -1 0 0 2 -1 0c0,0 0,0 0,0 -1,1 -1,1 -1,1l-1 0 0 -1 -1 0 0 -2 -1 0 -1 -1 -1 0 0 -1 -1 -1 0 -1 -2 0zm0 8l0 -4 2 0 0 2 1 0 0 1 1 0 0 1 2 0 0 2 1 0 0 1 1 0 1 -1 1 0 0 -2 1 0 0 -1 2 0 0 -1 1 0 0 -2 1 0 0 4 -1 0 0 2 -1 0 0 1 -2 0 0 1 -1 1 0 1 -1 0c0,0 0,0 0,1 -1,0 -1,0 -1,0l-1 0 0 -1 -1 0 0 -1 -1 -1 -1 -1 -1 0 0 -1 -1 0 0 -2 -2 0zm2 10c0,1 0,1 -1,1l-1 0 0 -6 2 0 0 1 1 0 0 1 1 0 0 1c0,1 0,0 0,1 0,0 -1,0 -1,0l0 1 -1 0zm0 8c0,2 0,1 -1,2l-1 0 0 -4 2 0 0 -2 1 0 0 -1 1 0 1 -2 1 0 0 -1 1 0 0 -1 2 0 0 1 1 0 0 1 1 0 0 2 2 0 0 1 1 0 0 1 1 1 0 4 -1 0 0 -2 -1 0 0 -1 -2 0 0 -1 -1 -1 0 -1 -1 0 0 -1 -2 0c0,0 0,0 0,1l-1 0 0 2 -2 0 0 1 -1 0 0 1 -1 0zm0 9c0,1 0,0 -1,1l-1 0c0,-5 0,-4 2,-4l0 -2 1 0 0 -1 1 0 1 -1 1 0 0 -2 1 0 0 -1 2 0 0 1 1 0 0 2 1 0 0 1 2 0 0 1 1 0 0 2 1 0 0 4 -1 0 0 -1 -1 -1 0 -1 -2 0 0 -1 -1 0 0 -2 -1 0 0 -1 -2 0c0,1 0,0 0,1l-1 0 0 2 -1 0 -1 1 -1 0 0 2 -1 0zm-2 15l0 -4 2 0 0 1 1 0 0 1 1 0 0 2 2 0 0 1 1 0c0,1 0,1 1,1 0,0 0,0 1,0 0,0 0,-1 0,-1l1 0 0 -1 1 0 0 -2 2 0 0 -1 1 0 0 -1 1 0 0 4 -1 0 0 1 -1 0 0 1 -2 0 0 2 -1 0 0 1 -1 0 -1 2 -1 0 0 -2 -1 0 0 -1 -1 0 -1 -2 -1 0 0 -1 -1 0 0 -1 -2 0zm0 8l0 -4 2 0 0 1 1 0 0 2 1 0 0 1 2 0 0 1 1 0 0 2 1 0c1,-1 0,0 1,-1 0,0 0,-1 0,-1l1 0 0 -1 1 0 0 -1 2 0 0 -2 1 0 0 -1 1 0 0 4 -1 0 0 1 -1 0 0 2 -2 0 0 1 -1 0 0 1 -1 0 -1 2 -1 0 0 -2 -1 0 0 -1 -1 0 -1 -1 -1 0 0 -2 -1 0 0 -1 -2 0zm2 10c0,1 0,0 -1,1l-1 0 0 -7 2 0 0 1 1 0 0 2 1 0 0 1c0,0 0,0 -1,0l0 2 -1 0zm0 9c0,0 0,0 -1,0l-1 0 0 -4 2 0 0 -1 1 0 0 -2 2 0 0 -1 1 0 0 -1 1 0 0 -2 2 0 0 2 1 0 0 1 1 0 0 1 2 0 0 2 1 0 0 1 1 0 0 4 -1 0 0 -1 -1 0 0 -2 -2 0 0 -1 -1 0 0 -1 -1 0 0 -2 -2 0c0,1 0,1 0,2l-1 0 0 1 -2 0 0 1 -1 0 0 2 -1 0c0,0 0,0 0,1zm0 7c0,1 0,1 -1,1l-1 0 0 -4 2 0 0 -1 1 0 0 -1 1 0 1 -2 1 0 0 -1 1 0 0 -2 2 1 0 1 1 0 0 1 1 0 0 2 2 0 0 1 1 0 0 1 1 1 0 3 -1 0 0 -1 -1 0 0 -1 -2 0 0 -2 -1 0 0 -1 -1 0 0 -1 -2 0 0 1 -1 0 0 1 -2 0 0 2 -1 0 0 1 -1 0zm-2 15l0 -4 2 0 0 1 1 1 0 1 1 0 0 1 2 0 0 2 1 0 0 1 1 0c1,0 0,0 1,-1 0,0 0,0 0,0l1 0 0 -2 1 0 0 -1 2 0 0 -1 1 0 0 -2 1 0 0 4c0,0 0,0 -1,0l0 2 -1 0 0 1 -2 0 0 1 -1 0 0 2 -1 0c0,1 0,0 -1,1l-1 0 0 -1 -1 0 0 -2 -1 0 -1 -1 -1 0 0 -1 -1 0 0 -2 -2 0zm0 8l0 -4 2 0 0 2 1 0 0 1 1 0 0 1 2 1 0 1 1 0 0 1 1 0c1,0 1,0 1,-1l1 0 0 -1 1 0 0 -2 2 0 0 -1 1 0 0 -2 1 0 0 4c0,1 0,0 -1,0l0 2 -1 0 0 1 -2 0 0 2 -1 0 0 1 -1 0c0,1 0,1 -1,1l-1 0 0 -1 -1 0 0 -1 -1 0 -1 -2 -1 0 0 -1 -1 0 0 -2 -2 0zm2 10c0,1 0,1 -1,1l-1 0 0 -6 2 0 0 1 1 0 0 1 1 1 0 0c0,1 0,1 -1,1l0 1 -1 0zm0 8c0,1 0,1 -1,2l-1 0 0 -4 2 0 0 -2 1 0 0 -1 1 0 1 -1 1 0 0 -2 1 0 0 -1 2 0 0 1 1 0 0 1 1 1 0 1 2 0 0 1 1 0 0 2 1 0 0 4 -1 0 0 -2 -1 0 0 -1 -2 0 0 -1 -1 0 0 -2 -1 0 0 -1 -2 0 0 1 -1 0 0 2 -2 0 0 1 -1 0 0 1 -1 0zm0 9c0,1 0,1 -1,1l-1 0 0 -4 2 0 0 -1 1 0 0 -2 1 0 1 -1 1 0 0 -2 1 0 0 -1 2 0 0 1 1 0 0 2 1 0 0 1 2 0 0 1 1 1 0 1 1 0 0 4 -1 0 0 -1 -1 0 0 -2 -2 0 0 -1 -1 0 0 -1 -1 -1c0,0 0,0 0,0 -1,-1 0,-1 -1,-1l-1 0 0 1 -1 0 0 2 -2 0 0 1 -1 0 0 2 -1 0zm-2 15l0 -4 2 0 0 1 1 0 0 1 1 0 0 2 2 0 0 1 1 0 0 2 1 0c1,-1 0,0 1,-1 0,0 0,-1 0,-1l1 0 0 -1 1 0 0 -2 2 0 0 -1 1 0 0 -1 1 0 0 3c0,1 0,1 -1,1l0 1 -1 0 0 1 -2 1 0 1 -1 0 0 1 -1 0c0,1 0,1 -1,2l-1 0 0 -2 -1 0 0 -1 -1 0 0 -1 -2 -1 0 -1 -1 0 0 -1 -2 0zm0 8l0 -4 2 0 0 1 1 0 0 2 1 0 0 1 2 0 0 1 1 0 0 2 1 0c1,-1 1,0 1,-2l1 0 0 -1 1 0 0 -1 2 0 0 -2 1 0 0 -1 1 0 0 4 -1 0 0 1 -1 0 0 2 -2 0 0 1 -1 0 0 1 -1 1 0 1 -2 0 0 -1 -1 -1 0 -1 -1 0 0 -1 -2 0 0 -2 -1 0 0 -1 -2 0zm3 8l0 2 -1 0 0 1 -2 0 0 -7 1 0c1,1 1,0 1,2l1 0 0 1c1,0 1,0 1,0l0 1 -1 0zm0 9l0 1 -1 0 0 1 -2 0 0 -4 2 0 0 -1 1 0 0 -2 1 0 1 -1 1 0 0 -1 1 0 0 -2 1 0c1,1 1,1 1,2l1 0 0 1 1 0 0 1 2 0 0 2 1 0 0 1c1,0 1,0 1,0l0 4 -1 0 0 -1 -1 0 0 -1 -2 -1 0 -1 -1 0 0 -1 -1 0c0,0 0,-1 0,-1 -1,-1 0,0 -1,-1l-1 0 0 2 -1 0 0 1 -2 0 0 1 -1 1zm0 8l0 1 -1 0 0 2 -2 -1 0 -3 2 -1 0 -1 1 0 0 -1 1 0 1 -2 1 0 0 -1 1 0 0 -1 1 0c1,0 1,0 1,1l1 0 0 1 1 0 0 2 2 0 0 1 1 0 0 1c1,0 1,0 1,1l0 3 -1 1 0 -2 -1 0 0 -1 -2 0 0 -2 -1 0 0 -1 -1 0c0,-1 0,-1 -1,-1l-1 0c0,0 0,-1 0,0 0,0 0,1 0,1l-1 0 0 1 -2 0 0 2 -1 0zm-3 16l0 -4 1 0c1,1 1,0 1,2l1 0 0 1 1 0 0 1 2 0 0 2 1 0c0,1 0,1 1,1 1,0 0,0 1,0 0,-1 0,-1 0,-1l1 0 0 -2 1 0 0 -1 2 0 0 -1 1 0 0 -2 1 0 0 4 -1 0 0 2 -1 0 0 1 -2 0 0 1 -1 0 0 2 -1 0 0 1 -2 0 0 -1 -1 0 0 -2 -1 0 0 -1 -2 0 0 -1 -1 0 0 -2 -2 0zm0 9l0 -5 1 0 1 2 1 0 0 1 1 0 0 2 2 0 0 1 1 0c0,1 0,1 0,1l2 0 0 -1 1 0 0 -1 1 0 0 -2 2 0 0 -1 1 0 0 -2 1 1 0 3 -1 1 0 1 -1 0 0 1 -2 0 0 2 -1 0 0 1 -1 0 -1 1 -1 0 0 -1 -1 0 0 -1 -1 0 -1 -2 -1 0 0 -1 -1 0 0 -1 -2 0zm3 8l0 1 -1 0 0 2 -2 0 0 -7 1 0c1,0 1,0 1,1l1 0 0 1c1,0 1,0 1,1l0 1 -1 0zm0 8l0 1 -1 0 0 2 -2 0 0 -4 2 0 0 -2 1 0 0 -1 1 0 1 -1 1 0 0 -2 1 0 0 -1 1 0c1,1 1,0 1,1l1 0 0 2 1 0 0 1 2 0 0 1 1 0 0 2 1 0 0 4 -1 0 0 -2 -1 0 0 -1 -2 0 0 -1 -1 0 0 -2 -1 0c0,-1 0,-1 -1,-1l-1 0 0 1 -1 0 0 2 -2 0 0 1 -1 0zm0 8l0 2 -1 0 0 1 -2 0 0 -4 2 0 0 -1 1 0 0 -2 1 0 1 -1 1 0 0 -1 1 -1 0 -1 1 0c1,1 1,0 1,1l1 1 0 1 1 0 0 1 2 0 0 2 1 0 0 1 1 0 0 4 -1 0 0 -1 -1 0 0 -2 -2 0 0 -1 -1 0 0 -1 -1 0c0,-2 0,-1 -1,-2l-1 0 0 2 -1 0 0 1 -2 0 0 1 -1 0zm-3 17l0 -4 1 0 1 1 1 0 0 1 1 1 0 1 2 0 0 1 1 0c0,1 0,1 0,2l2 0 0 -2 1 0 0 -1 1 0 0 -1 2 0 0 -2 1 0 0 -1 1 0 0 4 -1 0 0 1 -1 0 0 2 -2 0 0 1 -1 0 0 1 -1 0 -1 2 -1 0 0 -2 -1 0 0 -1 -1 0 0 -1 -2 0 0 -2 -1 0 0 -1 -2 0zm0 8l0 -4 1 0c1,1 1,0 1,1l1 0 0 2 1 0 0 1 2 0 0 1 1 1c0,0 0,0 0,1l2 0 0 -1 1 0 0 -2 1 0 0 -1 2 0 0 -2 1 0 0 -1 1 0 0 4 -1 0 0 1 -1 1 0 1 -2 0 0 1 -1 0 0 2 -1 0 -1 1 -1 0 0 -1 -1 0 0 -2 -1 0 0 -1 -2 0 0 -2 -1 0 0 -1 -2 0zm3 8l0 2 -1 0 0 1 -2 0 0 -7 1 0 1 2 1 0 0 1c1,0 1,0 1,0l0 1 -1 0zm0 9l0 1 -1 0 0 1 -2 0 0 -4 2 0 0 -1 1 0 0 -1 1 -1 1 -1 1 0 0 -1 1 0 0 -2 1 0c0,1 0,1 1,1 0,0 0,1 0,1l1 0 0 1 1 0 0 1 2 1 0 1 1 0 0 1 1 0 0 4 -1 0 0 -1 -1 0 0 -1 -2 0 0 -2 -1 0 0 -1 -1 0c0,0 0,-1 0,-1 -1,0 -1,0 -1,-1l-1 1 0 1 -1 0 0 1 -2 0 0 2 -1 0zm0 8l0 1 -1 0 0 2 -2 0 0 -4 2 0 0 -2 1 0 0 -1 1 0 1 -2 1 0 0 -1 1 0 0 -1 1 0 1 1 1 0 0 1 1 0 0 2 2 0 0 1 1 0 0 1 1 1 0 4 -1 0 0 -2 -1 0 0 -1 -2 0 0 -1 -1 -1 0 -1 -1 0c0,0 0,-1 0,-1 -1,0 -1,0 -1,0l-1 0 0 1 -1 0 0 1 -2 1 0 1 -1 0zm-3 16l0 -4 1 0 1 2 1 0 0 1 1 0 0 1 2 0 0 2 1 0c0,1 0,1 0,1l2 0 0 -1 1 0 0 -2 1 0 0 -1 2 0 0 -1 1 0 0 -2 1 0 0 4 -1 0 0 2 -1 0 0 1 -2 0 0 1 -1 1 0 1 -1 0 -1 1 -1 0 0 -1 -1 0 0 -1 -1 -1 -1 -1 -1 0 0 -1 -1 0 0 -2 -2 0zm0 9l0 -4 1 0 1 1 1 0 0 1 1 0 0 2 2 0 0 1 1 0c0,1 0,1 2,1l0 -1 1 0 0 -1 1 0 0 -2 2 0 0 -1 1 0 0 -1 1 0 0 4 -1 0 0 1 -1 0 0 1 -2 0 0 2 -1 0 0 1 -1 0 -1 2 -1 -1 0 -1 -1 0 0 -1 -1 0 0 -2 -2 0 0 -1 -1 0 0 -1 -2 0zm3 8l0 1 -1 0 0 2 -2 0 0 -7 1 0 1 1 1 0 0 2c1,0 1,0 1,0l0 1 -1 0zm0 8l0 2 -1 0 0 1 -2 0 0 -4 2 0 0 -2 1 0 0 -1 1 0 1 -1 1 0 0 -2 1 0 0 -1 1 0 1 1 1 0 0 2 1 0 0 1 2 0 0 1 1 0 0 2 1 0 0 4 -1 0 0 -1 -1 -1 0 -1 -2 0 0 -1 -1 0 0 -2 -1 0 -1 -1 -1 0 0 1 -1 0 0 2 -2 0 0 1 -1 0zm0 8l0 2 -1 0 0 1 -2 0 0 -4 2 0 0 -1 1 0 0 -2 1 0 1 -1 1 0 0 -1 1 0 0 -2 1 0 1 2 1 0 0 1 1 0 0 1 2 0 0 2 1 0 0 1 1 0 0 4 -1 0 0 -1 -1 0 0 -2 -2 0 0 -1 -1 0 0 -1 -1 0c0,0 0,-1 0,-1 -1,-1 -1,0 -1,-1l-1 0 0 2 -1 0 0 1 -2 0 0 1 -1 0zm-7 -324l0 -2 2 0 0 -1 1 0 0 4 -1 0 0 -1 -2 0zm0 61l0 -1 2 0 0 -1 1 0 0 4 -1 0 0 -1 -2 -1zm0 62l0 -1 2 0 0 -1 1 0 0 4 -1 0 0 -1 -2 -1zm0 62l0 -1 2 0 0 -1 1 0 0 4 -1 0 0 -2 -2 0zm0 62l0 -1 2 0 0 -1 1 0 0 4 -1 0 0 -2 -2 0zm0 62l0 -1 2 0 0 -1 1 0 0 4 -1 0 0 -2 -2 0zm-8 -309l0 -2 1 0 0 -1 2 0 0 -1 1 0 0 -2 1 0 1 -1 1 0 0 -2 1 0 0 -1 2 0 0 -1 1 0 0 4 -1 0 0 1 -2 0 0 1 -1 0 0 2 -2 0 0 1c0,0 0,0 -1,0l0 2 1 0 0 1 2 0 0 1 1 0 0 2 2 0 0 1 1 0 0 4 -1 0 0 -1 -2 0 0 -1 -1 -1 0 -1 -1 0 -1 -1 -1 0 0 -2 -1 0 0 -1 -2 0 0 -1 -1 0zm0 61l0 -1 1 0 0 -1 2 0 0 -1 1 -1 0 -1 1 0 1 -1 1 0 0 -2 1 0 0 -1 2 0 0 -1 1 0 0 4 -1 0 0 1 -2 0 0 1 -1 0 0 2 -2 0 0 1 -1 0 0 2 1 0 0 1 2 0 0 1 1 0 0 2 2 0 0 1 1 0 0 4 -1 0 0 -1 -2 0 0 -2 -1 0 0 -1 -1 0 -1 -1 -1 0 0 -2 -1 0 0 -1 -2 0 0 -1 -1 -1zm0 62l0 -1 1 0 0 -1 2 0 0 -2 1 0 0 -1 1 0 1 -1 1 0 0 -2 1 0 0 -1 2 0 0 -1 1 0 0 3c-1,1 0,1 -1,1l0 1 -2 0 0 1 -1 0 0 2 -2 0 0 1 -1 0 0 1 1 1 0 1 2 0 0 1 1 0 0 2 2 0 0 1 1 0 0 4 -1 0 0 -1 -2 0 0 -2 -1 0 0 -1 -1 0 -1 -1 -1 0 0 -2 -1 0 0 -1 -2 0 0 -2 -1 0zm0 62l0 -1 1 0 0 -1 2 0 0 -2 1 0 0 -1 1 0 1 -1 1 0 0 -2 1 0 0 -1 2 0 0 -2 1 0 0 4 -1 1 -1 1 -1 0 0 1 -1 0 0 2 -2 0 0 1 -1 0 0 1 1 0 0 2 2 0 0 1 1 0 0 2 2 0 0 1c1,0 0,0 1,0l0 4 -1 0 0 -1 -2 0 0 -2 -1 0 0 -1 -1 0 0 -1 -2 -1 0 -1 -1 0 0 -1 -2 0 0 -2 -1 0zm0 62l0 -1 1 0 0 -1 2 0 0 -2 1 0 0 -1 1 0 1 -1 1 0 0 -2 1 0 0 -1 2 0 0 -2 1 0c0,5 0,4 -1,5l0 1 -2 0 0 1 -1 0 0 2 -2 0 0 1 -1 0 0 1c1,0 0,0 1,0l0 2 2 0 0 1 1 0 0 1 2 1 0 1 1 0 0 4 -1 0 0 -1 -2 0 0 -2 -1 0 0 -1 -1 0 -1 -2 -1 0 0 -1 -1 0 0 -1 -2 0 0 -2 -1 0zm0 62l0 -1 1 0 0 -1 2 0 0 -2 1 0 0 -1 1 0 1 -2 1 0 0 -1 1 0 0 -1 2 0 0 -2 1 0 0 4 -1 0 -1 2 -1 0 0 1 -1 0 0 1 -2 1 0 1 -1 0 0 1 1 0 0 2 2 0 0 1 1 0 0 1 2 0 0 2 1 0 0 4 -1 0 0 -1 -2 -1 0 -1 -1 0 0 -1 -1 0 -1 -2 -1 0 0 -1 -1 0 0 -1 -2 0 0 -2 -1 0zm-6 -311l2 0 0 1c0,0 0,0 -1,1 0,0 0,0 -1,0 0,1 0,1 0,1l-1 0 0 -1 -1 0 0 -2 1 0 0 -1 1 0 0 1zm-2 63l0 -1 1 0 0 -1 1 0 0 1 2 0 0 1 -2 1c0,1 0,0 0,1l-1 0 0 -1 -1 -1zm0 62l0 -1 1 0 0 -1 1 0 0 1 2 0 0 1c-1,1 -1,0 -2,1l0 1 -1 0 0 -2 -1 0zm1 61l0 -1 1 0c0,0 0,0 0,1 1,0 1,0 2,0l0 1 -2 0 0 2 -1 0 0 -2 -1 0 0 -1 1 0zm0 61l1 0c0,0 0,0 0,0 0,0 0,1 0,1l2 0 0 1 -2 0 0 2 -1 0 0 -2 -1 0 0 -1 1 0 0 -1zm0 62l1 0 0 1c1,0 1,0 1,0 1,0 1,0 1,0l0 1 -2 0 0 2 -1 0 0 -2 -1 0 0 -1 1 0 0 -1zm-10 -307l0 -2 2 0 0 -1 1 0 0 1 2 0 0 1 -2 1c0,1 0,1 0,1l-1 0 0 -1 -2 0zm0 61l1 -1 1 0 0 -1 1 0 0 1 2 0 0 1 -2 1c0,1 0,1 0,1l-1 0 0 -1 -2 -1zm0 62l1 -1 1 0 0 -1 1 0 0 1 2 0 0 1c-1,1 -1,0 -2,1l0 1 -1 0 0 -1 -2 -1zm2 61l0 -1 1 0c0,0 0,0 0,1 1,0 1,0 2,0l0 1 -2 0 0 2 -1 0 0 -2 -2 0 1 -1 1 0zm1 61c0,0 0,1 0,1 0,0 1,0 1,0 0,0 0,0 1,0l0 1 -2 0 0 2 -1 0 0 -2 -2 0 1 -1 1 0 0 -1 1 0c0,0 0,0 0,0zm0 62c0,0 0,0 0,0 0,0 0,1 0,1 1,0 1,0 2,0l0 1 -2 0 0 2 -1 0 0 -2 -2 0 0 -1 2 0 0 -1 1 0zm25 23l4 0 0 -1 1 0 1 -2 1 0 0 -1 1 0 0 -2 1 0c0,1 0,1 1,1 0,0 0,1 0,1l1 0 0 1 1 0 0 2 2 0 0 1 4 0 0 -352 -1 0 -1 2 -1 0 0 -1 -1 0 0 -1 -4 0 0 1 1 0 0 1 1 0 0 2 2 0 0 1 1 0 0 1 1 1 0 1 -1 0 0 1 -1 0 0 2 -2 0 0 1 -1 0 0 1 -1 0 -1 2 -1 0 0 -2 -1 0 0 -1 -1 0 -1 -1 -1 0 0 -2 -1 0 0 -1 -2 0 0 -1 2 0 0 -2 1 0 0 -1 1 0 0 -2 2 0 0 -1 1 0 0 -1 -3 0 -1 1 -1 0c0,0 0,1 0,1 0,0 0,0 -1,0l-1 0 0 -2 -1 0 0 6 -1 1 0 1 -2 0 0 1 -1 0 0 2 -2 0 0 1 -1 0 0 1 -1 0 0 2 -2 0 0 1 -1 0 0 1 -1 1 -1 1 -1 0 0 -1 -1 -1 0 -1 -2 0 0 -1 -1 0 0 -2 -1 0 0 -1 1 0 0 -1 1 0 0 1 2 0 0 1 1 0 0 2 1 0c0,-1 0,0 1,-1 0,0 0,0 0,-1l1 0 0 -1 -1 0 0 -1 -2 0 0 -2 -1 0 0 -1 -2 0 0 -2 -1 0 0 2 -1 0 0 1 -2 0 0 2 -1 0 0 1 -1 0 0 1 1 0 0 2 1 0 0 1 2 0 0 1c-1,0 0,0 -1,0 0,1 0,1 -1,1 0,0 0,0 0,0 0,1 0,1 0,1l-1 0 0 -1 -1 -1 0 -1 -2 0 0 -1 -1 0 0 1 -2 0 0 1 -1 1 0 1 -1 0 0 1 -2 0 0 2 2 0 0 1 1 0 0 1 1 0 0 2 2 0 0 1 1 0 0 -1 2 0 0 -2 1 0 0 -1 1 0 0 1 2 1 0 0c-1,1 0,1 -1,1 0,0 0,0 -1,0l0 1 -1 0 0 1c-1,1 -1,0 -1,1l0 1 1 0 0 1 1 0 0 2 2 0 0 1 1 0 0 1 1 0c0,0 0,0 0,0 0,0 1,-1 1,-1l1 0 0 -1 1 0 0 -2 2 0 0 -1 1 0 0 -1 -1 -1 0 -1 -2 0 0 1 -1 1 0 1 -2 0c0,0 0,0 0,1 0,0 0,0 0,0l-1 0 0 -1 -1 0 0 -1 1 0 0 -2 1 0 1 -1 1 0 0 -2 1 0 0 -1 2 0 0 1 1 0 0 2 1 0 0 1 2 0 0 1 1 1 0 1 1 0 0 1 2 0 0 2 1 0 0 1 2 0 0 1 1 1 0 32 -1 0 0 2 -2 0 0 1 -1 0 0 2 -2 0 0 1 -1 0 0 1 -1 0 0 2 -2 0 0 1 -1 0 0 1 -1 0c0,1 0,1 0,1 -1,1 -1,0 -1,1l-1 0 0 -2 -1 0 0 -1 -1 0 -1 -1 -1 0 0 -2 -1 0 0 -1 1 0 0 -1 1 0 0 1 2 0 0 1 1 0 0 2 1 0 1 -2c0,0 0,0 0,0 1,0 1,0 1,0l0 -1 -1 0 0 -1 -2 -1 0 -1 -1 0 0 -1 -1 0 -1 -2 -1 0 0 2 -1 0 0 1 -2 0 0 2 -1 0 0 1 -1 0 0 1 1 0 0 2 1 0 0 1 2 0 0 1c-1,1 -1,0 -2,0l0 2 -1 0 0 -2 -1 0 0 -1 -2 0 0 -1 -1 0 0 1 -2 0 0 1 -1 0 0 2 -1 0 0 1 -2 0 0 2 2 0 0 1 1 0 0 1 1 0 0 2 2 0 0 1 1 0 0 -1 2 0 0 -2 1 0 0 -1 1 0 0 1 2 1 0 0c-1,1 0,0 -1,1 0,0 0,0 -1,0l0 1 -1 0 0 1 -1 0 0 2 1 0 0 1 1 0 0 2 2 0 0 1 1 0 0 1 1 0 1 -1 1 0 0 -1 1 0 0 -2 2 0 0 -1 1 0 0 -1 -1 -1 0 -1 -2 0c0,1 0,0 0,1l-1 0 0 2 -2 0 0 1 -1 0 0 -1 -1 0 0 -1 1 -1 0 -1 1 0 1 -1 1 0 0 -2 1 0 0 -1 2 0 0 1 1 0 0 2 1 0 0 1 2 0 0 1 1 1 0 1 1 0 0 1 2 0 0 2 1 0 0 1 2 0 0 1 1 1 0 32c-1,0 0,0 -1,0l0 2 -2 0 0 1 -1 0 0 1 -2 0 0 2 -1 0 0 1 -1 0 0 2 -2 0 0 1 -1 0 0 1 -1 0c0,1 0,1 -1,2l-1 0 0 -2 -1 0 0 -1 -1 0 -1 -1 -1 0 0 -2 -1 0 0 -1 1 0 0 -1 1 0 0 1 2 0 0 1 1 0 0 2 1 0 1 -2 1 0 0 -1c0,0 0,0 -1,0 0,0 0,0 0,0l0 -2 -2 0 0 -1 -1 0 0 -1 -1 0 -1 -2 -1 0 0 2 -1 0 0 1 -2 0 0 1 -1 1 0 1 -1 0 0 1 1 0 0 2 1 0 0 1 2 0 0 1c-1,0 -1,0 -2,0l0 2 -1 0 0 -2 -1 0 0 -1 -2 0 0 -1 -1 0 0 1 -2 0 0 1 -1 0 0 2 -1 0 0 1 -2 0 0 1 2 1 0 1 1 0 0 1 1 0 0 2 2 0 0 1 1 0 0 -1 2 0 0 -2 1 0 0 -1 1 0 0 1c1,0 1,0 2,1l0 0c-1,1 -1,1 -2,1l0 1 -1 0 0 1 -1 0 0 2 1 0 0 1 1 0 0 2 2 0 0 1 1 0 0 1 1 0c0,0 0,0 0,0 0,0 1,-1 1,-1l1 0 0 -1 1 0 0 -2 2 0 0 -1 1 0 0 -1 -1 -1 -1 -1 -1 0 0 1 -1 0 0 2 -2 0 0 1 -1 0 0 -1 -1 0 0 -2 1 0 0 -1 1 0 1 -1 1 0 0 -2 1 0 0 -1 2 0 0 1 1 0 0 2 1 0 0 1 2 0 0 1 1 0 0 2 1 0 0 1 2 0 0 2 1 0 0 1 2 0 0 1c1,0 0,0 1,1l0 32 -1 0 0 2 -2 0 0 1 -1 0 0 1 -2 0 0 2 -1 0 0 1 -1 0 0 1 -2 1 0 1 -1 0 0 1 -1 0 0 2 -2 0 0 -2 -1 0 0 -1 -1 0 -1 -1 -1 -1 0 -1 -1 0 0 -1 1 0 0 -2 1 0 0 2 2 0 0 1 1 0 0 2 1 0c1,-1 0,0 1,-1 0,0 0,-1 0,-1l1 0 0 -1 -1 0 0 -2 -2 0 0 -1 -1 0 0 -1 -1 0 -1 -2 -1 0 0 2 -1 0 0 1 -2 0 0 1 -1 0 0 2 -1 0 0 1 1 0 0 2 1 0 0 1c1,0 1,0 2,0l0 1 -2 0 0 2 -1 0 0 -2 -1 0 0 -1 -2 0 0 -1c-1,0 -1,-1 -1,1l-2 0 0 1 -1 0 0 2 -1 0 0 1 -2 0 0 1 2 0 0 2 1 0 0 1 1 0 0 2 2 0 0 1 1 0 0 -1 2 0 0 -2 1 0 0 -1 1 0 0 1c1,0 1,0 2,0l0 1 -2 1 0 1 -1 0 0 1 -1 0 0 1c0,1 0,1 1,1l0 1 1 0 0 1 2 0 0 2 1 0 0 1 1 0 1 -1 1 0 0 -1 1 -1 0 -1 2 0 0 -1 1 -1 0 -1 -1 0 0 -1 -2 0 0 1 -1 0 0 2 -2 0 0 1 -1 0 0 -1 -1 0 0 -2 1 0 0 -1 1 0 1 -1 1 0 0 -2 1 0 0 -1 1 0c1,1 1,0 1,1l1 0 0 2 1 0 0 1 2 0 0 1 1 0 0 2 1 0 0 1 2 0 0 1 1 1 0 1 2 0 0 1c1,0 0,0 1,0l0 33 -1 0 -1 2 -1 0 0 1 -1 0 0 1 -2 0 0 2 -1 0 0 1 -1 0 0 1 -2 1 0 1 -1 0 0 1 -1 0 -1 2 -1 0 0 -2 -1 0 0 -1 -1 0 -1 -2 -1 0 0 -1 -1 0 0 -1 1 0 0 -2 1 0 0 2 2 0 0 1 1 0c0,1 0,1 0,1l2 0 0 -1 1 0 0 -1 -1 0 0 -2 -2 0 0 -1 -1 0 0 -1 -1 -1c0,0 -1,0 -1,0 0,-1 0,0 0,-1l-1 0 0 2 -1 0 0 1 -2 0 0 1 -1 0 0 2 -1 0 0 1 1 0 0 1 1 1 0 1c1,0 1,0 1,0 1,0 0,0 1,0l0 1 -2 0 0 2 -1 0 0 -2 -1 0 0 -1 -2 0 0 -2c-1,0 -1,0 -1,2l-2 0 0 1 -1 0 0 2 -1 0 0 1 -2 0 0 1 2 0 0 2 1 0 0 1 1 0 0 1 2 1 0 1 1 0 0 -1 2 0 0 -2 1 0 0 -1 1 0 0 1 2 0 0 1 -2 1 0 1 -1 0 0 1 -1 0 0 2 1 0 0 1 1 0 0 1 2 0 0 2 1 0 0 1 1 0 1 -1 1 0 0 -2 1 0 0 -1 2 0 0 -1 1 -1 0 0 -1 -1 -1 -1 -1 0 0 1 -1 0 0 2 -2 0 0 1 -1 0 0 -1 -1 -1 0 -1 1 0 0 -1 1 0 1 -1 1 0 0 -2 1 0 0 -1 1 0 1 1 1 0 0 1 1 1 0 1 2 0 0 1 1 0 0 2 1 0 0 1 2 0 0 1 1 0 0 2 2 0 0 1 1 0 0 33 -1 0 -1 1 -1 1 0 1 -1 0 0 1 -2 0 0 2 -1 0 0 1 -1 0 0 1 -2 0 0 2 -1 0 0 1 -1 0 -1 2 -1 -1 0 -1 -1 0 0 -1 -1 0 -1 -2 -1 0 0 -1 -1 0 0 -1 1 0 0 -2 1 0 0 2 2 0 0 1 1 0 0 1 2 0 0 -1 1 0 0 -1 -1 0 0 -2 -2 0 0 -1 -1 0 0 -1 -1 -1 -1 -1 -1 0 0 1 -1 1 0 1 -2 0 0 1 -1 0 0 2 -1 0 0 1 1 0 0 1 1 0 0 2 2 0 0 1 -2 0 0 2 -1 -1 0 -1 -1 0 0 -1 -2 0 0 -2 -1 0 0 2 -2 0 0 1 -1 0 0 1 -1 1 0 1 -2 0 0 1 2 0 0 2 1 0 0 1 1 0 0 1 2 0 0 2 1 0 0 -1 2 -1 0 -1 1 0 0 -1 1 0c0,0 0,0 0,0 0,0 0,1 0,1l2 0 0 1 -2 0 0 2 -1 0 0 1 -1 0 0 1 1 1 0 1 1 0 0 1 2 0 0 2 1 0 0 1 1 0 0 -1 2 0 0 -2 1 0 0 -1 2 0 0 -1 1 -1 0 0 -1 -1 0 -1 -2 0 0 1 -1 0 0 2 -2 0 0 1 -1 0 0 -1 -1 -1 0 -1 1 0 0 -1 1 0 0 -1 2 -1 0 -1 1 0 0 -1 1 0 1 1 1 0 0 1 1 0 0 2 2 0 0 1 1 0 0 2 1 0 0 1 2 0 0 1 1 0 0 2 2 0 0 1 1 0 0 7z"/>
   <path class="fil0" d="M121 52l-1 0 -1 -2 -1 0 0 -1 2 0 0 -2 1 0 0 2 1 0 0 1c0,0 0,0 -1,0 0,1 0,1 0,2zm0 99l-1 0 -1 -2c0,0 0,0 -1,0l0 -1 2 0c0,-1 -1,-1 0,-1l1 0c0,0 0,0 0,1 1,0 1,0 1,0l0 1c0,0 0,0 -1,0 0,1 0,1 0,2zm-1 99l-1 -2 -1 0 0 -1 1 0 1 -1 1 0c0,0 0,0 0,1 1,0 1,0 1,0l0 1 -1 0 0 2 -1 0zm0 99l0 -2 -2 0 0 -1 1 0c1,-1 0,-1 1,-1l1 0c0,0 0,0 0,1l1 0 0 1 -1 0 0 2 -1 0zm-3 -297l0 1 1 0 0 1 1 0 1 2 1 0 0 -2 1 0 0 -1 2 0 0 -1 1 0 0 -2 1 0 0 -1 -1 0 0 -2 -1 0 0 -1 -2 0 0 -1 -1 0 0 -2 -1 0 -1 2 -1 0 0 1 -1 0 0 1 -2 0c0,1 0,1 0,2l-1 0 0 -2 -1 0 0 -1 1 0 0 -1 1 0 0 -2 2 0 0 -1 1 0 0 -1 2 0 0 -2 1 0 0 2 1 0 0 1 2 0 0 1 1 0 0 2 1 0 0 1 2 0 0 1 1 0 0 2 1 0 0 1 -1 0 0 1 -1 1 0 1 -2 0 0 1 -1 0 0 2 -1 0 0 1 -2 0 0 1 -1 0c0,1 0,1 0,2l-1 0c-1,-1 0,-1 0,-2l-2 0 0 -1 -1 0 0 -1 -2 0 0 -2 -1 0 0 -1 -1 0 0 -1 1 0 0 -2 1 0 0 2 2 0zm0 99l0 1 1 0 0 1 1 0 1 2 1 0 0 -2 1 0 0 -1 2 0 0 -1 1 0 0 -2c0,0 1,0 1,0 0,0 0,0 0,0l0 -1 -1 0 0 -1 -1 -1 0 -1 -2 0 0 -1 -1 0 0 -2 -1 0c-1,1 0,0 -1,2l-1 0 0 1 -1 0 0 1 -2 1c0,0 0,0 0,1l-1 0 0 -2c-1,0 -1,1 -1,0l0 -1 1 0 0 -1 1 0 0 -2 2 0 0 -1 1 0 0 -1 2 0c0,-1 -1,-1 0,-2l1 0 0 2 1 0 0 1 2 0 0 1 1 0 0 2 1 0 0 1 2 0 0 2 1 0 0 1 1 0 0 1c0,0 0,0 -1,0l0 2 -1 0 0 1 -2 0 0 1 -1 0 0 2 -1 0 0 1 -2 0 0 1 -1 0c0,1 0,1 0,2l-1 0 -1 -1 -1 -1 0 -1 -1 0 0 -1 -2 0 0 -2 -1 0 0 -1c-1,0 -1,0 -1,0l0 -1 1 0 0 -2 1 0c1,1 0,1 0,2l2 0zm0 99l0 1 1 0 0 1 1 1 1 1 1 0 0 -1 1 -1 0 -1 2 0 0 -1 1 0 0 -2 1 0 0 -1c0,0 0,0 0,0 0,0 -1,0 -1,0l0 -1 -1 0 0 -2 -2 0 0 -1 -1 0 0 -2 -1 0c0,1 0,1 -1,1 0,0 0,1 0,1l-1 0 0 1 -1 0 0 2 -2 0 0 1 -1 0 0 -1 -1 -1 0 0c0,-1 0,-1 1,-1l0 -1 1 0 0 -1 2 -1 0 -1 1 0 0 -1 1 0c1,-1 0,-1 1,-2l1 0c0,1 0,1 0,2l1 0 0 1 2 0 0 1 1 1 0 1 1 0 0 1 2 0 0 2 1 0 0 1 1 0 0 1 -1 0 0 2 -1 0 0 1 -2 0 0 1 -1 0 0 2 -1 0 0 1 -2 0 0 2 -1 0 0 1 -1 0 0 -1 -2 0 0 -2 -1 0 0 -1 -2 0 0 -2 -1 0 0 -1 -1 0 0 -1 1 0 0 -2 1 0c0,1 0,1 0,2l2 0zm-22 -223c0,1 0,0 -1,1l-1 0 0 -5 2 0 0 -2c1,0 1,0 1,0l0 -1 -1 0 0 -1 -2 -1 0 -5 2 0 0 1 1 0 0 2 1 0 0 1 2 0 0 2 1 0 0 1 2 0 0 1c-1,0 -1,0 -2,0l0 2 -1 0 0 1 -1 0 -1 1 -1 0 0 2 -1 0zm-2 23l0 -1 2 0 0 1 -2 0zm2 7c0,1 0,1 -1,1l-1 0 0 -4 2 0 0 -1 1 0 0 -1 2 0 0 -2 1 0 0 -1 -1 0 -1 -2 -1 0 0 -1 -1 0 0 -1 -2 0 0 -4 2 0 0 1 1 0 0 1 1 0 0 2 2 0 0 1 1 0 0 1 2 0 0 2 1 0 0 1c-1,0 0,0 -1,0l0 1 -2 1 0 1 -1 0 0 1 -2 0 0 2 -1 0 0 1 -1 0zm0 8c0,1 0,1 -1,2l-1 0 0 -4 2 0 0 -2 1 0 0 -1 2 0 0 -2 1 0 0 -1 1 0 0 -1 2 0 0 -2 1 0 0 -1 1 0 0 -1 2 0 0 -2 1 0 0 -1 -1 0 0 -2 -2 0 0 -1 -1 0 0 -1 -1 0 0 -2 -2 0 0 -1 -1 0 0 -1 -1 -1 -1 -1 -1 0 0 -1 -1 0 0 -2 -2 0 0 -4 2 0 0 2 1 0 0 1 1 0 1 1 1 0 0 -1 1 0 0 -1 2 0 0 -2 1 0 0 -1 1 0 0 -1 2 -1 0 -1 -2 0 0 -1 -1 0 0 1 -1 0 0 1 -2 1 0 1 -1 0c0,1 0,1 0,1l-1 0 -1 -1 -1 0 0 -1 2 0 0 -2 1 0 0 -1 1 0 0 -2 2 0 0 -1 1 0 0 -1 1 0 0 1 2 0 0 1 1 0 0 2 1 0 0 1 2 0 0 1 -1 1 -1 1 -1 0 0 1 -1 0 0 2 -2 0 0 1 -1 0 0 1 -1 0 0 2 -2 0 0 1 2 0 0 2 1 0 0 1 1 0 0 1 2 0c0,0 0,1 0,1 0,1 0,0 0,1l1 0 0 -2 2 0 0 -1 1 0 0 -1 1 0 0 -2 2 0 0 -1 1 -1 0 -1 -1 0 0 -1 -1 0c-1,1 -1,0 -1,1l-1 0 0 2 -1 0 -1 1 -1 0c0,1 0,1 0,2l-1 -1 0 -1 -2 0 0 -1 2 0 0 -2 1 0 0 -1 2 0 0 -1 1 0 0 -2 1 0 0 -1 2 0 0 1 1 0 0 2 1 0 0 1 2 0 0 1 1 1 0 1 -1 0 0 1 -2 0 0 1 -1 1 0 1 -1 0 0 1 -2 0 0 2 -1 0 0 1 -1 0 -1 1 2 0 0 2 1 0 0 1c0,0 0,0 -1,0l0 2 -2 0 0 1 2 0 0 1 1 0 0 2 2 0 0 1 1 0 0 1 1 0 0 2 2 0 0 1 1 0 0 1 -1 1 0 1 -2 0 0 1 -1 0 0 2 -1 0c0,1 0,0 -1,1l0 0c-1,-1 -1,0 -1,-1l-1 0 0 -2 -1 0 -1 -1 -1 0 0 -1 -1 -1 0 -1 -2 0 0 -1 2 0 0 -2 1 0 0 2 1 0 0 1 2 0 0 2 1 0c0,0 0,0 0,0 0,1 0,1 1,1l1 0 0 -1 1 -1 0 -1 -1 0 0 -1 -2 0 0 -2 -1 0 0 -1 -1 0 -1 -1 -1 0 0 -2 -1 0c0,1 0,0 0,1 0,0 0,1 0,1l-2 0 0 1 -1 0 0 1 -1 0 0 2 -2 0 0 1c1,0 0,0 1,0 0,0 0,0 1,0l0 2 1 0 0 1 1 0 0 1 2 0 0 2 1 0 0 1 1 0 0 1 2 1 0 0c-1,1 0,1 -2,1l0 1 -1 0 0 2 -1 0 0 1 -2 0c0,1 0,1 0,1l-1 0 0 -1 -1 0 0 -1 -2 -1 0 -1 -1 0 0 -1 -1 0 -1 -2 -1 0 0 -1 1 0 1 -1 1 0 0 1 1 0 0 1 2 0 0 2 1 0 0 1 1 0 0 -1 2 -1 0 0 -2 -1 0 -1 -1 0 0 -1 -1 0 0 -2 -2 0 0 -1 -1 0 0 -1 -1 0 -1 1 -1 0 0 1 -1 0zm0 20c0,1 0,0 -1,1l-1 0 0 -6 2 0 0 -1c1,0 1,0 1,0l0 -1 -1 0 0 -2 -2 0 0 -5 2 0 0 1 1 0 0 2 1 0 0 1 2 0 0 1 1 0 0 2 2 0 0 1 -2 0 0 1 -1 0 0 2 -2 0 0 1 -1 0 0 2 -1 0zm0 15c0,1 0,0 -1,1l-1 0 0 -4 2 0 0 1 1 1 0 0c-1,1 0,1 -1,1zm0 26c0,1 0,1 -1,1l-1 0 0 -5 2 0 0 -2 1 0 0 -1 -1 0 0 -1 -2 0 0 -6 2 0 0 1 1 1 0 1 1 0 0 1 2 0 0 2 1 0 0 1 2 0 0 1c-1,0 -1,0 -2,0l0 2 -1 0 0 1 -1 0 -1 1 -1 0 0 2 -1 0zm-2 23l0 -1 2 0 0 1 -2 0zm2 7c0,1 0,1 -1,1l-1 0 0 -4 2 0 0 -1 1 0 0 -1 2 0 0 -2 1 0 0 -1 -1 0 -1 -1 -1 -1 0 -1 -1 0 0 -1 -2 0 0 -4 2 0 0 1 1 0 0 1 1 0 0 2 2 0 0 1 1 0 0 1 2 1 0 1 1 0 0 1 -1 0 0 2 -2 0 0 1 -1 0 0 1 -2 0 0 2 -1 0 0 1 -1 0zm0 8c0,1 0,1 -1,2l-1 0 0 -4 2 0 0 -2 1 0 0 -1 2 0 0 -1 1 0 0 -2 1 0 0 -1 2 0 0 -2 1 0 0 -1 1 0 0 -1 2 0 0 -2 1 0 0 -1c0,0 0,0 0,0 0,0 -1,0 -1,0l0 -1 -2 -1 0 -1 -1 0 0 -1 -1 0 0 -2 -2 0 0 -1 -1 0 0 -1 -1 0 0 -2 -2 0 0 -1 -1 0 0 -2 -2 0 0 -4 2 0 0 2 1 0 0 1 1 0 1 2 1 0 0 -2 1 0 0 -1 2 0 0 -2 1 0 0 -1 1 0 0 -1 2 -1 0 -1 -2 0 0 -1 -1 0 0 1 -1 0 0 2 -2 0 0 1 -1 0c0,1 0,1 0,1l-1 0 0 -1 -2 0 0 -1 1 0 1 -2 1 0 0 -1 1 0 0 -1 2 0 0 -2 1 0 0 -1 1 0 0 1 2 0 0 1 1 1 0 1 1 0 0 1 2 0 0 1c-1,1 -1,1 -1,1l-1 1 -1 0 0 1 -1 0 0 2 -2 0 0 1 -1 0 0 1 -1 0 0 2 -2 0 0 1 2 0 0 2 1 0 0 1 1 0 0 1 2 0 0 2 1 0 0 -2 2 0 0 -1 1 0 0 -1 1 0 0 -2 2 0 0 -1 1 0 0 -1 -1 -1c0,0 0,0 0,0 -1,-1 0,-1 -1,-1l0 0 -1 1 -1 0 0 2 -1 0 -1 1 -1 0c0,1 0,1 0,2l-1 0 0 -2 -2 0 0 -1 2 0 0 -1 1 0 0 -2 2 0 0 -1 1 0 0 -2 1 0c0,-1 0,0 1,-1l0 0c1,1 1,0 1,1l1 0 0 2 1 0 0 1 2 0 0 1 1 1 0 1c-1,0 0,0 -1,0l0 1 -2 0 0 2 -1 0 0 1 -1 0 0 1 -2 0 0 2 -1 0 0 1 -2 0 0 1c1,0 1,0 1,1 0,0 1,0 1,0l0 1 1 0 0 1c0,0 0,0 -1,0l0 2 -2 0 0 1 2 0 0 1 1 0 0 2 2 0 0 1 1 0 0 2 1 0 0 1 2 0 0 1 1 1 0 0c-1,1 0,1 -1,1l0 1 -2 0 0 1 -1 0 0 2 -1 0c0,1 0,0 -1,1l-1 0 0 -1 -1 0 0 -2 -1 0 0 -1 -2 0 0 -1 -1 0 0 -2 -2 0 0 -1 2 0 0 -1 1 0c0,0 0,0 0,1l1 0 0 1 2 0 0 2 1 0 1 1 0 0c1,0 0,0 1,-1 0,0 0,0 0,0 0,0 0,0 0,0 1,0 1,0 1,-1l0 0 -1 -1 0 -1 -2 0 0 -1 -1 -1 0 -1 -1 0 0 -1 -2 0 0 -2 -1 0 0 2 -2 0 0 1 -1 0 0 1 -1 0 0 2c-1,0 -1,0 -1,0 -1,0 0,0 -1,0l0 1 2 0 0 2 1 0 0 1 1 0 0 1 2 0 0 2 1 0 0 1 1 0 0 2c1,0 1,-1 2,0l0 1c-1,0 -1,0 -2,0l0 1 -1 0 0 2 -1 0 0 1 -2 0c0,1 0,1 0,1l-1 0 0 -1 -1 0 0 -1 -2 0 0 -2 -1 0 0 -1 -1 0 0 -1 -2 -1 0 -1 1 0 1 -1 1 0c0,0 0,0 0,1l1 0 0 2 2 0 0 1 1 0c0,0 0,1 0,1 0,0 0,0 0,0l1 0 0 -1c1,0 1,0 1,0 1,0 1,0 1,0l0 -1 -2 -1 0 -1 -1 0 0 -1 -1 0 0 -2 -2 0 0 -1 -1 0c0,0 0,-1 0,-1 0,0 0,0 0,0l-1 0c0,0 0,0 -1,0 0,0 0,1 0,1l-1 0 0 1 -1 0zm0 20c0,1 0,0 -1,1l-1 0 0 -5 2 0 0 -2 1 0 0 -1 -1 0 0 -2 -2 0 0 -5 1 0c1,1 1,0 1,1l1 0 0 2 1 0 0 1 2 0 0 1 1 0 0 2c1,0 1,0 2,0l0 1c-1,0 -1,0 -2,0l0 1 -1 1 0 1 -2 0 0 1 -1 0 0 2 -1 0zm1 14l0 1 -1 0 0 1 -2 0 0 -4 1 0c1,1 1,0 1,1 1,0 0,0 1,1zm0 26l0 1 -1 0 0 1 -2 0 0 -5 2 0 0 -1 1 -1 0 -1c0,0 0,0 0,0 0,0 -1,0 -1,0l0 -1 -2 -1 0 -5 1 0c1,1 1,1 1,2l1 0 0 1 1 0 0 1 2 0 0 2 1 0 0 1c1,0 1,0 2,0l0 1 -2 0 0 2 -1 0 0 1 -1 0 -1 1 -1 1zm-3 24l0 -1 2 0 0 1 -2 0zm3 6l0 1 -1 0 0 2 -2 0 0 -4 2 -1 0 -1 1 0 0 -1 1 0 1 -2 1 0 0 -1c0,0 0,0 -1,0 0,0 0,0 0,0l0 -1 -2 0 0 -2 -1 0 0 -1 -2 0 0 -4 1 0c1,0 1,0 1,1l1 0 0 1 1 1 0 1 2 0 0 1 1 0 0 2 2 0 0 1c1,0 0,0 1,0l0 1 -1 0 0 2 -2 0 0 1 -1 0 0 1 -2 0 0 2 -1 0zm0 8l0 1 -1 0 0 2 -2 0 0 -4 2 0 0 -2 1 0 0 -1 1 0 1 -1 1 0 0 -2 1 0 0 -1 2 0 0 -1 1 -1 0 -1 1 0 0 -1 2 0 0 -2c0,0 1,0 1,0 0,0 0,0 0,0l0 -1 -1 0 0 -1 -2 0 0 -2 -1 0 0 -1 -1 0 0 -2 -2 0 0 -1 -1 0 0 -1 -1 0 0 -2 -2 0 0 -1 -1 0 0 -1 -2 0 0 -5 1 0c1,1 1,1 1,2l1 0 0 1 1 0c1,2 1,2 2,2l0 -2 1 0 0 -1 2 0 0 -1 1 -1 0 -1 1 0 0 -1c1,0 1,0 1,0 1,0 1,0 1,-1l0 -1 -2 0 0 -1 -1 0c0,0 0,0 0,1 0,0 0,0 0,0l-1 0 0 2 -2 0 0 1 -1 0 0 1 -1 0 0 -1 -2 0 0 -1 1 0 1 -2 1 0 0 -1 1 0 0 -1 2 0 0 -2 1 0 0 -1 1 0c0,1 0,0 0,1l2 0 0 2 1 0 0 1 1 0 0 1c1,0 1,0 2,1l0 1 -2 0 0 1 -1 0 0 1 -1 0 0 2 -2 0 0 1 -1 0 0 2 -1 0 0 1 -2 0c0,1 0,1 2,1l0 2 1 0 0 1 1 0 0 1 2 1 0 1 1 0 0 -1 1 -1 1 -1 1 0 0 -1 1 0 0 -2 2 0 0 -1 1 0 0 -1 -1 0 -1 -2 0 0 -1 2 -1 0 0 1 -2 0 0 1 -1 0 0 2 -1 0 0 -2 -2 0 0 -1 2 0 0 -1 1 0 0 -2 1 0 1 -1 1 0 0 -1 1 -1 1 -1 0 0c1,1 1,0 1,1l1 1 0 1 1 0 0 1 2 0 0 2c1,0 0,-1 1,0l0 1 -1 0 0 1 -2 0 0 2 -1 0 0 1 -1 0 0 1 -2 0 0 2 -1 0 0 1 -2 0 0 1c1,0 1,0 1,1 0,0 1,0 1,0l0 1c1,0 1,0 1,0l0 1 -1 0 0 2c0,0 -1,0 -1,0 -1,0 0,0 -1,0 0,1 0,1 2,1l0 1 1 1 0 1 2 0 0 1 1 0 0 2 1 0 0 1 2 0 0 1c1,0 0,0 1,1l0 1 -1 0 0 1 -2 0 0 1 -1 0 0 2 -1 0 0 1 -2 0 0 -1 -1 0 0 -2 -1 0 0 -1 -2 0 0 -1 -1 0 0 -2 -2 0 0 -1 2 0 0 -1 1 0c0,0 0,0 0,1l1 0 0 1 2 0 0 2 1 0 1 1 1 0 0 -1 1 0 0 -2 -1 0 0 -1 -2 0 0 -1 -1 0 0 -2 -1 0 0 -1 -2 0 0 -2 -1 0 0 2 -2 0 0 1 -1 0 0 2 -1 0 0 1 -2 0 0 1 2 0 0 2 1 0 0 1 1 0 0 1 2 1 0 1 1 0 0 1 1 0 0 2c2,0 1,-1 2,0l0 1 -2 0 0 1 -1 0 0 2 -1 0 0 1 -2 0 0 1 -1 0 0 -1 -1 0 0 -1 -2 0 0 -2 -1 0 0 -1 -1 0 0 -1 -2 -1 0 -1 1 0 1 -1 1 0c0,1 0,0 0,1l1 0 0 2 2 0 0 1 1 0c0,0 0,1 0,1 0,0 0,0 0,0l1 0 0 -1 2 0 0 -1c-1,0 0,0 -1,0 0,0 0,0 -1,0l0 -2 -1 0 0 -1 -1 0 0 -2 -2 0 0 -1 -1 0c0,0 0,-1 0,-1 0,0 0,0 0,0l-1 0 -1 1 -1 0zm0 19l0 2 -1 0 0 1 -2 0 0 -5 2 0 0 -2 1 0 0 -1c0,0 0,0 0,0 0,0 -1,0 -1,0l0 -1 -2 -1 0 -5 1 0c1,1 1,0 1,1l1 0 0 2 1 0 0 1 2 0 0 1 1 1 0 1c1,0 1,0 2,0l0 1 -2 0 0 2 -1 0 0 1 -2 0 0 1 -1 0zm0 16l0 1 -1 0 0 1 -2 0 0 -4 1 0c1,1 1,0 1,2 1,0 1,0 1,0zm0 26l0 1 -1 0 0 1 -2 0 0 -5 2 0 0 -1 1 -1 0 -1c0,0 0,0 -1,0l0 -1 -2 0 0 -6 1 0c1,1 1,0 1,1 0,0 0,1 0,1l1 0 0 1 1 0 1 1 1 0 0 2 1 0 0 1c1,0 1,0 2,0l0 1 -2 1 0 1 -1 0 0 1 -1 0 -1 2 -1 0zm-3 24l0 -1 2 0 0 1 -2 0zm0 6l0 -1 2 0 0 -2 1 0 0 -1 1 0 1 -1 1 -1 0 -1c-1,0 0,0 -1,0l0 -1 -2 0 0 -2 -1 0 0 -1c-2,0 -2,1 -2,-4l1 0c1,0 1,0 1,0 0,0 0,1 0,1l1 0 0 2 1 0 0 1 2 0 0 1 1 0 0 2 2 0 0 1c1,0 1,0 1,0l0 1 -1 0 -1 2 -1 0 0 1 -1 0 0 2 -2 0 1 1 4 0 0 -1 1 0 0 -2 1 0 0 -1 2 0 0 -1 1 -1 0 -1c0,0 0,0 0,0 0,0 -1,0 -1,0l0 -1 -2 0 0 -2 -1 0 0 -1 -1 0 0 -1 -2 -1 0 -1 -1 0 0 -1 -1 0 0 -2 -2 0 0 -1 -1 0 0 -1 -2 -1 0 -3 1 0c1,0 0,-1 1,0 0,0 0,1 0,1l1 0 0 1 1 0 0 2 2 0 0 -2 1 0 0 -1 2 0 0 -1 1 0 0 -2 1 0 0 -1 2 0 0 -1c-1,-1 -1,-1 -2,-1l0 -1 -1 0 0 1 -1 0 -1 2 -1 0 0 1 -1 0 0 2 -1 -1 0 -1 -2 0 0 -1 1 0 1 -1 1 -1 0 -1 1 0 0 -1 2 0 0 -2 1 0 0 -1 1 0 0 1 2 0 0 2 1 0 0 1 1 0 0 1c1,0 1,0 1,0 1,1 1,1 1,1l0 1 -2 0 0 1 -1 0 0 1 -1 1 0 1 -2 0 0 1 -1 0 0 2 -1 0 -1 1 -1 0 0 1 2 0 0 2 1 0 0 1 1 0 0 2 2 0 0 1 1 0 0 -1 1 0 1 -2 1 0 0 -1 1 0 0 -2 2 0 0 -1 1 0 0 -1c0,0 0,0 -1,0 0,0 0,0 0,0l0 -2 -1 0 -1 2 -1 0 0 1 -2 0 0 1 -1 0 0 2 -1 0 0 -2 -2 0 0 -1 2 0 0 -1 1 0 0 -2 1 0 1 -1 1 0 0 -1 1 0 1 -2 0 0c1,1 1,1 1,2l1 0 0 1 1 0 0 1 2 0 0 2c1,0 1,0 1,0l0 1 -1 0 0 1 -2 0 0 2 -1 0 0 1 -1 0 -1 2 -1 0 0 1 -1 0 0 1 -2 0 0 2 2 0 0 1 1 0 0 1 -1 0 0 2 -2 0 1 1 1 0 0 2 1 0 0 1 4 0 0 -1 -1 -1 0 -1 -1 0 0 -1 1 0 0 -2 1 0c0,1 0,2 0,2l2 0 0 1 1 0 0 2 1 0 1 1 1 0 0 -1 1 0 0 -2 2 0 0 -1 1 0 0 -1 1 -1 0 -1c0,0 0,0 0,0 0,0 -1,0 -1,0l0 -1 -1 0 0 -2 -2 0 0 -1 -1 0 0 -1 -1 0 -1 1 -1 0 0 1 -1 0 0 2 -2 0 0 1 -1 0 0 -1 -1 0 0 -2 1 0 0 -1 1 0 0 -1 2 0 0 -2 1 0 0 -1 1 0 1 -2 1 0c0,1 0,1 0,2l1 0 0 1 2 0 0 2 1 0 0 1 1 0 0 1 2 0 0 2 1 0 0 1 1 0 0 1 -1 0 0 2 -1 0 0 1 -2 0 0 2 -1 0 0 1 4 0 0 -1 1 0 1 -2 1 0 0 -1 1 0 0 -1 2 -1 0 -1 -2 0 0 -1 -1 0 0 -2 -1 0 0 -1 -2 0 0 -1 -1 0 0 -2 -2 0 0 -1 -1 0 0 -2 -1 0 0 -1 -2 0 0 -1 -1 0 0 -2 -1 0 0 -1 -2 0 0 -1 -1 0 0 -2 -2 0 0 -1 -1 0 0 -2 -1 0 0 -1 -2 0 0 -1 -1 0 0 -2 -1 0 0 -1 -2 0 0 -1 -1 -1 0 -1 -2 0 0 -1 -1 0 0 -2 -1 0 0 -1 -2 0 0 -1 -1 0 0 -2 -1 0 0 -1 -2 0 0 -2 -1 0 0 -1 -2 0 0 -1 2 0 0 -1 1 -1 0 -1 1 0 1 -1 1 0 0 -2 1 0 0 -1c0,0 1,0 1,0 1,0 0,0 1,0l0 -1 -2 -1 0 -1 -1 0 0 -1 -1 0 0 -2 -2 0 0 -1 -1 0 0 -1 -2 0 0 -2 2 0 0 -1 1 0 0 -1 1 -1 1 -1 1 0 0 -1 1 0 0 -2 2 0 0 -1 1 0 0 -1 1 0 0 -2 2 0 0 -1 1 0 0 -1 1 -1 1 -1 1 0 0 -1 1 0 0 -2 2 0 0 -1 1 0 0 -1 1 0 0 -2 2 0 0 -1 1 0 0 -1 1 -1 1 -1 1 0 0 -1 1 0 0 -2 2 0 0 -1 1 0 0 -1 1 0 0 -2 2 0 0 -1 1 0 0 -1 1 -1 1 -1 1 0 0 -1 1 0 0 -2 2 0 0 -1 -2 0 0 -1 -1 0 0 -2 -1 0 0 -1 -2 0 0 -2 -1 0 0 -1 -2 0 0 -1 -1 0 0 -2 -1 0 0 -1 -2 0 0 -1 -1 0 0 -2 -1 0 0 -1 -2 0 0 -2 -1 0 0 -1 -2 0 0 -1 -1 0 0 -2 -1 0 0 -1 -2 0 0 -1 -1 0 0 -2 -1 0 0 -1 -2 0 0 -2 -1 0 0 -1 -2 0 0 -1 -1 0 0 -2 -1 0 0 -1 -2 0 0 -1 -1 -1 0 -1 -1 0 0 -1 -2 0 0 -2 -1 0 0 -1 -2 0 0 -1 2 0 0 -2 1 0 0 -1 1 0 1 -1 1 0 0 -2 1 0 0 -1 2 0 0 -1 -2 -1 0 -1 -1 0 0 -1 -1 0 0 -2 -2 0 0 -1 -1 0 0 -1 -2 -1 0 -1 2 0 0 -1 1 0 0 -2 2 0 0 -1 1 0 0 -1 1 0 0 -2 2 0 0 -1 1 0 0 -1 1 0 0 -2 2 0 0 -1 1 0 0 -2 2 0 0 -1 1 0 0 -1 1 0 0 -2 2 0 0 -1 1 0 0 -1 1 0 0 -2 2 0 0 -1 1 0 0 -2 2 0 0 -1 1 0 0 -1 1 0 0 -2 2 0 0 -1 1 0 0 -1 1 0 0 -2 2 0 0 -1 1 0 0 -2 2 0 0 -1 1 0 0 -1 1 0 0 -2c0,0 1,0 1,0 1,0 0,0 1,0l0 -1 -2 0 0 -1 -1 -1 0 -1 -1 0 -1 -1 -1 0 0 -2 -1 0 0 -1 -2 0 0 -1 -1 0 0 -2 -1 0 0 -1 -2 0 0 -2 -1 0 0 -1 -1 0 0 -1 -2 0 0 -2 -1 0 0 -1 -2 0 0 -1 -1 0 0 -2 -1 0 0 -1 -2 0 0 -2 -1 0 0 -1 -1 0 -1 -1 -1 0 0 -2 -1 0 0 -1 -2 0 0 -1 -1 0 0 -2 -1 0 0 -1 -2 0 0 -2 -1 0 0 -1 -1 0 -1 -1 -1 0 0 -2 -1 0 0 -1 -2 0 0 -1 2 0 0 -2 1 0 0 -1 2 0 0 -1 1 -1 0 -1 1 0 0 -1 2 -1 0 0 -2 -1 0 -1 -1 0 0 -1 -1 0 0 -2 -2 0 0 -1 -1 0 0 -2 -2 0 0 -1 2 0 0 -1 1 0 0 -2 2 0 0 -1 1 0 0 -1 1 0 0 -2 2 0 0 -1 1 0 0 -1 1 -1 0 -1 2 0 0 -1 1 0 0 -2 2 0 0 -1 1 0 0 -1 1 0 0 -2 2 0 0 -1 1 0 0 -1 1 -1 0 -1 2 0 0 -1 1 0 0 -2 2 0 0 -1 1 0 0 -1 1 0 0 -2 2 0 0 -1 1 0 0 -2 1 0 0 -1 2 0 0 -1 1 0 0 -2 2 0 0 -1 1 0 0 -1 1 0 0 -2 2 0 0 -1 -2 0 0 -2 -1 0 0 -1 -1 0 -1 -1 -1 0 0 -2 -1 0 0 -1 -2 0 0 -1 -1 -1 0 -1 -1 0 0 -1 -2 0 0 -2 -1 0 0 -1 -1 0 -1 -1 -1 0 0 -2 -1 0 0 -1 -2 0 0 -1 -1 -1 0 -1 -1 0 0 -1 -2 0 0 -2 -1 0 0 -1 -1 0 -1 -1 -1 0 0 -2 -1 0 0 -1 -2 0 0 -1 -1 -1 0 -1 -1 0 0 -1 -2 0 0 -2 -1 0 0 -1 -1 0 -1 -1 -1 0 0 -2 -1 0 0 -1 -2 0 0 -1 2 -1 0 -1 1 0 0 -1 2 0 0 -2 1 0 0 -1 1 0 0 -1 -5 0 0 1 -2 0 0 -1 -1 0 0 352 1 0z"/>
   <path class="fil0" d="M187 50l0 -1 1 0 0 1 -1 0zm0 51c0,-1 0,0 0,-1 -1,0 -1,0 -1,-1l0 0 1 -1 0 -1 1 0 0 4 -1 0zm0 48l0 -1 1 0 0 1 -1 0zm0 51l0 -1 -1 0 0 -1c0,-1 0,-1 1,-1 0,-1 0,0 0,-1l1 0 0 4 -1 0zm0 48l0 -1 1 0 0 1 -1 0zm0 51l0 -1 -1 0 0 -1c0,0 0,0 1,0l0 -2 1 0 0 4 -1 0zm0 48l0 -1 1 0c0,1 0,0 0,1l-1 0zm0 -326l0 2 1 0 0 5 -1 0c0,-1 0,0 0,-1l-1 0 0 -2 -2 0 0 -1 -1 0 0 -1 -2 0 0 -2 -1 0 0 -1 1 0 0 -1 2 -1 0 -1 1 0 0 -1 2 0 0 -2 1 0 0 -1 1 0 0 5 -1 1 0 1 -1 0 0 1 1 0zm0 58l0 1 1 1 0 5 -1 0c0,-1 0,0 0,-1l-1 0 0 -2 -2 0 0 -1 -1 0 0 -2 -2 0 0 -1c-1,0 0,0 -1,0l0 -1 1 0 0 -2 2 0 0 -1 1 0 0 -1 2 0 0 -2 1 0 0 -1 1 0 0 5 -1 0 0 2 -1 0 0 1 1 0zm0 41l0 2 1 0 0 5 -1 0c0,0 0,0 0,-1l-1 0 0 -2 -2 0 0 -1 -1 0 0 -1 -2 0 0 -2c-1,0 0,0 -1,0l0 -1 1 0 0 -1 2 0 0 -2 1 0 0 -1 2 0 0 -1 1 -1 0 -1 1 0 0 5 -1 1 0 1c0,0 -1,0 -1,0 0,0 0,0 0,0l0 1 1 0zm0 58l0 2 1 0 0 5 -1 0 0 -1 -1 0 0 -2 -2 0 0 -1 -1 0 0 -1 -2 -1 0 -1c-1,0 0,0 -1,0l0 -1c1,0 0,0 1,0l0 -2 2 0 0 -1 1 0 0 -1 2 0 0 -2 1 0c0,-1 0,0 0,-1l1 0 0 5 -1 0 0 2c-1,0 -1,-1 -1,1l1 0zm0 42l0 1 1 0 0 5 -1 0 0 -1 -1 0 0 -1 -2 0 0 -2 -1 0 0 -1 -2 0 0 -2 -1 0 0 -1c1,0 0,0 1,0l0 -1 2 0 0 -2 1 0 0 -1 2 0 0 -1 1 0c0,-1 0,-1 0,-2l1 0 0 6 -1 0 0 1 -1 0 0 1 1 1zm0 57l0 2 1 0 0 5 -1 0 0 -1 -1 0 0 -2 -2 0 0 -1 -1 0 0 -1 -1 0 -1 -2 -1 0 0 -1c1,0 0,0 1,0l0 -1 2 -1 0 -1 1 0 0 -1 2 0 0 -2 1 0c0,-1 0,0 0,-1l1 0c0,6 1,5 -1,5l0 2 -1 0c0,2 0,1 1,1zm0 42l0 1 1 0 0 5 -1 0 0 -1 -1 0 0 -1 -2 0 0 -2 -1 0 0 -1 -1 0 -1 -1 -1 -1 0 -1c0,0 0,0 1,0 0,0 0,0 0,0l0 -1 2 0 0 -2 1 0 0 -1 2 0 0 -1 1 0 0 -2 1 0 0 6 -1 0 0 1c-1,0 -1,0 -1,0l0 1 1 1zm-3 -269l0 2 1 0 1 1 1 0 0 1 1 0 0 4 -1 0c0,0 0,0 0,0 0,0 0,-1 0,-1l-1 0 0 -1 -2 0 0 -2 -1 0 0 -1 -2 0 0 -1 -1 0 0 -2c0,0 -1,0 -1,0 0,0 0,0 0,0l0 -1 1 0 0 -2 1 0 0 -1 2 0 0 -1 1 0 0 -2 2 0 0 -1 1 0 0 -1 1 0 0 4 -1 0 0 1 -1 0 -1 1 -1 0 0 2 -1 0 0 1 1 0zm0 99l0 2 1 0 1 1 1 0 0 1 1 0 0 4 -1 1c0,-1 0,-1 0,-2l-1 0 0 -1 -2 0 0 -2 -1 0 0 -1 -2 0 0 -1 -1 0 0 -2c-1,0 -1,0 -1,0l0 -1c0,0 0,0 1,0l0 -1 1 0 0 -2 2 0 0 -1 1 0 0 -2 2 0 0 -1 1 0 0 -1 1 0 0 4 -1 0 0 1 -1 0 -1 1 -1 0 0 2 -1 0 0 1c0,0 0,0 0,0 0,0 1,0 1,0zm0 99l0 2 1 0 1 1 1 0 0 1 1 1 0 3 -1 1 0 -2 -1 0 0 -1 -2 0 0 -2 -1 0 0 -1 -1 0 -1 -1 -1 0 0 -2 -1 0 0 -1 1 0 0 -1 1 0 0 -2 2 0 0 -1 1 0 0 -1 2 -1 0 -1 1 0c0,-1 0,-1 0,-1l1 0 0 4 -1 0 0 1 -1 0 -1 1 -1 1 0 1 -1 0 0 1 1 0zm-15 -185l0 1 1 0 1 -1 1 0 0 -2 1 0 0 -1 2 0 0 -2 1 0 0 2 1 0 0 1 -1 0 0 1 -1 1 -1 1 -1 0 0 1 -1 0 0 2 -2 0 0 1 -1 0c0,-1 0,0 0,-1l-1 0 0 -2 -2 0 0 -1 -1 0 0 -1c-1,0 -1,0 -1,-1l0 -1 1 0 0 -1 1 0 0 -2 2 0 0 -1 1 0 0 -1 1 0 0 -2 2 0 0 -1 1 0 0 -1 -1 -1 0 -1 -2 0 0 -1 2 0 0 -2 1 0 0 -1c0,0 0,0 -1,0l0 -1 -2 0 0 -2 -1 0 0 -1 -1 0 0 -1 -2 -1 0 -1 -1 0 0 -1c-1,0 -1,0 -1,-1l0 0 1 -1 0 -1 1 0 0 -1 2 0 0 -2 1 0 0 -1 1 0 0 1 2 0 0 2 1 0 0 1 1 0 1 1 1 0 0 2 1 0 0 1 -1 0 0 2 -1 0c-1,-1 0,-1 0,-2l-2 0 0 -1 -1 0 0 -2 -2 0c0,-1 1,0 0,-1l-1 0 0 1c-2,0 -1,0 -1,1l1 1 0 1 1 0 0 2 2 0 0 1 1 0 0 1 1 0c0,0 1,1 1,1 0,1 0,0 0,1l1 0c0,-1 0,-1 0,-1 0,0 0,-1 0,-1l1 0 0 -1 2 0 0 -1 1 0 0 -2 1 0 0 -1 -1 0 0 -2 -1 0 0 -1 -2 0 0 -1 -1 0 0 -2 -1 0 0 -1 -2 0 0 -1 -1 -1 0 -1 1 0 0 -1 2 0 0 -2 1 0 0 -1 1 0 0 -1 1 0 1 1 1 0 0 1 1 0 0 2 2 0 0 1 1 0 0 2 1 0 1 1 -2 0 0 1 -1 0 0 -1 -2 0 0 -1 -1 -1 0 -1 -1 0 0 -1 -2 0 0 1 -1 0 0 1 1 1 0 1 2 0 0 1 1 0 0 2 1 0 0 1 2 0 0 1 1 0 0 -1 2 0 0 -1 1 0 0 -2 1 0 0 4 -1 0 0 2 -1 0 -1 1 -1 0 0 1 -1 1 0 1 -2 0 0 1 -1 0 0 2 -1 0 0 1 -2 0 0 1 -1 0 0 2 -1 0 -1 1 2 0 0 2 1 0 0 1 2 0 0 1 1 0 0 2 1 0 0 1 2 0 0 1 1 0 0 2 1 0 1 1 1 0 0 2 1 0 0 4 -1 0c0,-1 0,0 0,-1 0,0 0,0 0,-1l-1 0 0 -1 -2 0 0 -1 -1 0 0 1 -2 0 0 1 -1 0 0 2 -1 0 0 1 -2 0 0 1 -1 1 0 0 1 1 1 1 0 0 1 -1 1 0 0 -2 1 0 0 -1 2 0 0 -1 1 0 0 1 1 0 1 1 -2 0 0 2 -1 0 0 1 -2 0 0 1 -1 1 0 1 -1 0 0 1 -1 0c-1,0 -1,0 -1,-1l-1 0 0 -1 -1 0 0 -2 -2 0 0 -1c0,0 0,0 -1,0 0,0 0,0 0,-1l0 0 1 -1 0 -1 2 0 0 -1 1 0 0 -2 1 0 0 -1 2 0 0 -1 1 0 0 -2 1 0 0 -1 -1 0 0 -2 -1 0 0 -1 -2 0 0 -1 -1 0c0,-1 0,-1 0,-2l-1 0 -1 2 -1 0 0 1 -1 0 0 1 -2 0 0 2 -1 0 0 1 -1 0 0 1 1 1zm0 99l0 1c1,0 1,0 1,-1l2 0 0 -2 1 0 0 -1 2 0 0 -1 1 0 0 1 1 0 0 1 -1 0 0 2 -1 0 -1 1 -1 0 0 1 -1 0 0 2 -2 0 0 1 -1 0c0,-1 0,0 0,-1l-1 0 0 -2 -2 0 0 -1 -1 0 0 -1 -1 -1 0 0 1 -1 0 -1 1 0 0 -1 2 0 0 -2 1 0 0 -1 1 0 0 -2 2 0 0 -1c0,0 1,0 1,0 0,0 0,0 0,0l0 -1 -1 0 0 -2c-1,0 -1,0 -2,0l0 -1 2 0 0 -1 1 -1 0 -1 -1 0 0 -1 -2 0 0 -2 -1 0 0 -1 -1 0 0 -1 -2 0 0 -2 -1 0 0 -1c-1,0 -1,0 -1,0l0 -1 1 -1 0 -1 1 0 0 -1 2 0 0 -2 1 0 0 -1 1 0 0 1 2 0 0 2 1 0 0 1 1 0 1 2 1 0 0 1 1 0 0 1 -1 0 0 2 -1 0c-1,-1 0,-1 0,-2l-2 0 0 -1 -1 0 0 -1 -2 -1c0,-1 0,-1 -1,-1l0 1c0,0 -1,0 -1,0 0,1 0,1 0,1l0 1 1 0 0 1 1 0 0 2 2 0 0 1 1 0 0 1 1 0 1 2 1 0 0 -2 1 0 0 -1 2 0 0 -1 1 0 0 -2 1 0 0 -1c0,0 0,0 0,0 0,0 -1,0 -1,0l0 -2 -1 0 0 -1 -2 0 0 -1 -1 0 0 -2 -1 0 0 -1 -2 0 0 -1c-1,0 -1,0 -1,-1l0 -1 1 0 0 -1 2 0 0 -1 1 -1 0 -1 1 0 0 -1 1 0 1 1 1 0 0 1 1 1 0 1 2 0 0 1 1 0 0 2 2 0 -1 1 -1 0 0 1 -1 0c0,0 0,0 0,-1l-2 0 0 -1 -1 0 0 -2 -1 0 -1 -1 0 0 -1 1 -1 0 0 1c0,1 0,0 0,1 0,0 1,0 1,0l0 1 2 0 0 1 1 0 0 2 1 0 0 1 2 0c0,0 0,1 0,1 0,1 0,0 0,1l1 0 0 -2 2 0 0 -1 1 0 0 -2 1 0 0 4 -1 0 0 2 -1 0 -1 1 -1 0 0 2 -1 0 0 1 -2 0 0 1 -1 0 0 2 -1 0 0 1 -2 0 0 1 -1 0 0 2 -1 0 -1 1 2 0 0 2 1 0 0 1 2 0 0 1 1 0 0 2 1 0 0 1 2 0 0 2 1 0 0 1 1 0 1 1 1 0 0 2 1 0 0 4 -1 0c0,-1 0,-1 0,-2l-1 0 0 -1 -2 0 0 -1 -1 0c0,0 0,0 0,0 0,0 0,1 0,1l-2 0 0 1 -1 0 0 2 -1 0 0 1 -2 0 0 1 -1 1 0 1 1 0 1 1 0 0c1,0 1,0 1,0 0,0 0,-1 0,-1l1 0 0 -1 1 0 0 -2 2 0c0,-1 0,-1 0,-1l1 0 0 1 1 0 0 1 -1 0 0 2 -1 0 0 1 -2 0 0 2 -1 0 0 1 -1 0 0 1 -2 0 0 -1 -1 0 0 -1 -1 0 0 -2 -2 0 0 -1c-1,0 -1,0 -1,0l0 -1c0,-1 0,0 1,0l0 -2 2 0 0 -1 1 0 0 -2 1 0 0 -1 2 0 0 -1 1 0 0 -2 1 0 0 -1c0,0 0,0 0,0 0,0 -1,0 -1,0l0 -1 -1 -1 0 -1 -2 0 0 -1 -1 0 0 -2 -1 0 -1 2 -1 0 0 1 -1 0 0 1 -2 0 0 2 -1 0 0 1 -1 1 0 0 1 1zm0 99l0 1 1 0 0 -1 2 0 0 -2 1 0 0 -1 2 0 0 -1 1 0 0 1 1 0 0 1 -1 0 0 2 -1 0 -1 1 -1 0 0 1 -1 0 0 2 -2 0 0 1 -1 0 0 -1 -1 0 0 -2 -2 0 0 -1 -1 0 0 -1 -1 0 0 -1c0,-1 0,-1 1,-1l0 -1 1 0 0 -1 2 0 0 -2 1 0 0 -1 1 0 0 -1 2 -1 0 -1 1 0 0 -1 -1 0 0 -2 -2 0 0 -1c1,0 1,0 2,0l0 -1 1 -1 0 -1 -1 0 0 -1 -2 0 0 -2 -1 0 0 -1 -1 0 0 -1 -2 0 0 -2 -1 0 0 -1 -1 0 0 -1c0,-1 0,0 1,0l0 -2 1 0 0 -1 2 0 0 -1 1 -1c0,-1 0,0 0,-1l1 0 0 1 2 1 0 1 1 0 0 1 1 0 1 2 1 0 0 1 1 0 0 1 -1 0 0 2 -1 0 0 -2 -2 0 0 -1 -1 0 0 -1 -2 0 0 -2 -1 0 0 1c0,0 -1,1 -1,1 0,0 0,0 0,0l0 1 1 0 0 1 1 0 0 2 2 0 0 1 1 0 0 1 1 1 1 1 1 0 0 -1 1 -1 0 -1 2 0 0 -1 1 0 0 -2 1 0 0 -1 -1 0 0 -1 -1 0 0 -2 -2 0 0 -1 -1 0 0 -2 -1 0 0 -1 -2 0 0 -1 -1 0 0 -1c0,-1 0,-1 1,-1l0 -1 2 0 0 -1 1 0 0 -2 1 0 1 -1 0 0 1 1 1 0 0 2 1 0 0 1 2 0 0 1 1 0 0 2 1 0 1 1 -2 0 0 1 -1 0 0 -1 -2 0 0 -1 -1 0 0 -2 -1 0 -1 -1 0 0c-1,0 -1,0 -1,1 0,0 0,0 0,0l-1 1 0 0 1 1 0 1 2 0 0 1 1 1 0 1 1 0 0 1 2 0 0 2 1 0c0,-1 0,0 0,-1 0,0 0,-1 0,-1l2 0 0 -1 1 0c0,-1 0,-1 0,-2l1 1 0 3 -1 1 0 1 -1 0 -1 1 -1 0 0 2 -1 0 0 1 -2 0 0 1 -1 0 0 2 -1 0 0 1 -2 0 0 1 -1 1 0 1 -1 0 0 1c0,0 -1,0 0,0 0,0 1,0 1,0l0 2 1 0 0 1 2 0 0 1 1 1 0 1 1 0 0 1 2 0 0 2 1 0 0 1 1 0 1 1 1 0 0 2 1 0 0 4 -1 0 0 -2 -1 0 0 -1 -2 0 0 -1 -1 0 0 1 -2 0 0 1 -1 0 0 2 -1 0 0 1 -2 0 0 2c0,0 0,0 -1,0 0,0 0,0 0,0l0 1 1 0 0 1 1 0c1,0 1,0 1,-1l1 0 0 -1 1 0 0 -2 2 0c0,0 0,0 0,-1 0,0 0,0 0,0l1 0 0 1 1 0 1 1 -2 1 0 1 -1 0 0 1 -2 0 0 2 -1 0 0 1 -1 0 0 1 -2 0 0 -1 -1 0 0 -1 -1 0 0 -2 -2 0 0 -1 -1 0 0 -1c0,0 0,0 1,0l0 -2 2 0 0 -1 1 0 0 -1 1 -1 0 -1 2 0 0 -1 1 0 0 -2c0,0 1,0 1,0 0,0 0,0 0,0l0 -1 -1 0 0 -1 -1 0 0 -2 -2 0 0 -1 -1 0 0 -2 -1 0 -1 2 -1 0 0 1 -1 0 0 2 -2 0 0 1 -1 0 0 1 -1 1 0 0 1 1zm-8 -214l1 0 0 2 1 0 0 1 -1 0 0 2 -1 -1c0,0 0,1 0,0 0,0 0,-1 0,-1 -2,0 -1,0 -2,0l0 -1 2 0 0 -2zm0 101c0,-1 0,-1 0,-1l1 0 0 1 1 0 0 1c0,0 0,0 -1,0l0 2 -1 0c0,-1 0,-1 0,-2 -1,0 -1,0 -2,0l0 -1 2 0zm-2 100l0 -1 2 0c0,-1 0,-1 0,-1l1 0 0 1 1 0 0 1 -1 0 0 2 -1 0 0 -2 -2 0zm2 98c0,0 0,-1 0,-1 0,0 0,0 0,0l1 0 0 1 1 0 0 1 -1 0 0 2 -1 0 0 -2 -2 0 0 -1c1,0 1,0 2,0zm-8 -296c-2,0 -1,0 -2,0l0 -1 2 0 0 -2 1 0 0 -1 1 0 0 -1 2 0 0 -2 1 0 0 -1 1 0 1 -1 1 0 0 -2 1 0 0 2 1 0 0 1 2 0 0 1 1 0 0 2 2 0 0 1 1 0 0 1 -1 0 -1 2 0 0c-1,-1 -1,-1 -1,-2l-1 0 0 -1 -1 0 0 -1 -2 0c0,-1 0,-1 0,-2l-1 0 0 2 -2 0 0 1 -1 0 0 1 -1 0 0 2 -2 0 0 1 2 0 0 2 1 0 0 1 1 0 0 1 2 0 0 2 1 0 0 -2 2 0 0 -1 1 0 0 -1 1 0 0 -2 2 0 0 2 1 0 0 1 -1 0 0 1 -2 0 0 2 -1 0 0 1 -1 0 -1 1 -1 0 0 2 -1 0c0,-1 0,-1 0,-2l-2 0 0 -1 -1 0 0 -1 -1 0 0 -2 -2 0 0 -1 -1 0 0 -1 -1 -1 0 -1zm0 99c-1,0 -1,0 -2,0l0 -1c1,0 1,0 2,0l0 -1 1 0 0 -2 1 0 0 -1 2 0 0 -2 1 0 0 -1 1 0 0 -1 2 0c0,-1 0,-1 0,-2l1 0 0 2 1 0 1 1 1 0 0 1 1 0 0 2 2 0 0 1 1 0 0 1 -1 0 -1 2 0 0c-1,-1 -1,-1 -1,-1l-1 -1 0 -1 -1 0 0 -1 -2 0 0 -2 -1 0 0 2 -2 0 0 1 -1 0 0 1 -1 0 0 2c0,0 -1,0 -1,0 -1,0 0,0 -1,0l0 1 2 0 0 2 1 0 0 1 1 0 0 1 2 0c0,1 0,1 0,1 0,1 0,0 0,1l1 0c0,-1 0,0 0,-1 0,0 0,0 0,-1l2 0 0 -1 1 0 0 -1 1 0 0 -2 2 0 0 2 1 0 0 1 -1 0 0 1 -2 0 0 2 -1 0 0 1 -1 0 -1 1 -1 0 0 2 -1 0c0,-1 0,0 0,-1l-2 -1 0 -1 -1 0 0 -1 -1 0 0 -2 -2 0 0 -1 -1 0 0 -1 -1 0 0 -2zm-2 99l0 -1c1,0 0,0 2,0l0 -1 1 0 0 -2 1 0 0 -1 2 0 0 -1 1 -1 0 -1 1 0 0 -1 2 0c0,-1 0,-1 0,-2l1 0 0 2 1 0 1 1 1 0 0 1 1 1 0 1 2 0 0 1 1 0 0 1 -1 1 -1 1 -1 0 0 -1 -1 0 0 -2 -1 0 0 -1 -2 0c0,0 0,-1 0,-1 0,0 0,0 0,-1l-1 0 0 2 -2 0 0 1 -1 0 0 2 -1 0 0 1c-2,0 -1,0 -2,0l0 1 2 0 0 2 1 0 0 1 1 0 0 1 2 1 0 1 1 0c0,0 0,0 0,-1 0,0 0,0 0,0l2 -1 0 -1 1 0 0 -1 1 0c0,-1 0,-1 1,-2l1 0 0 2 1 0 0 1 -1 0 0 1 -2 0 0 2 -1 0 0 1 -1 0 -1 2 -1 0 0 1 -1 0 0 -1 -2 0 0 -2 -1 0 0 -1 -1 0 0 -2 -2 0 0 -1 -1 0 0 -1 -1 0 0 -2 -2 0zm2 105l4 0 0 -1 -2 0 0 -2 -1 0 0 -1 -1 0 0 -2 -2 0 0 -1c1,0 0,0 2,0l0 -1 1 0 0 -2 1 0 0 -1 2 0 0 -1 1 0 0 -2 1 0 0 -1 2 0 0 -2 1 0 0 2 1 0 1 1 1 0 0 2 1 0 0 1 2 0 0 1 1 0 0 2 -1 0 0 1 -2 0 0 -1 -1 0 0 -2 -1 0 0 -1 -2 0 0 -1 -1 0c0,0 0,0 0,0 0,0 0,1 0,1l-2 0 0 1 -1 0 0 2 -1 0 0 1c-1,0 -1,0 -1,0 -1,0 0,0 -1,0l0 1 2 1 0 1 1 0 0 1 1 0 0 2 2 0 0 1 1 0 0 -1 2 0 0 -2 1 0 0 -1 1 0c0,0 0,-1 0,-1 0,0 0,0 1,-1l1 0 0 2 1 0 0 1 -1 0 0 2 -2 0 0 1 4 0 0 -1 2 0 0 -2 1 0 0 -1 -1 0 0 -2 -2 0 0 -1c1,0 1,0 2,0l0 -1 1 -1 0 -1 -1 0 0 -1 -2 0 0 -1 -1 0 0 -2 -1 0 0 -1 -2 0 0 -2 -1 0 0 -1 -1 0 0 -1c0,0 0,0 1,0l0 -2 1 0 0 -1 2 0 0 -1 1 0c0,-1 0,-1 0,-1 0,-1 0,-1 0,-1l1 0 0 2 2 0 0 1 1 0 0 1 1 0 1 2 1 0 0 1 1 0 0 1 -1 0 0 2 -1 0 0 -2 -2 0 0 -1 -1 0 0 -1 -2 0 0 -2 -1 0 0 2c-1,0 -1,0 -1,0l0 1 1 0 0 1 1 1 0 1 2 0 0 1 1 0 0 2 1 0 1 1 1 0 0 -1 1 0 0 -2 2 0 0 -1 1 0 0 -2 1 0 0 -1 -1 0 0 -1 -1 0 0 -2 -2 0 0 -1 -1 0 0 -1 -1 0 0 -2 -2 0 0 -1 -1 0 0 -1 1 -1 0 -1 1 0 1 -1 1 0 0 -2 1 0c0,-1 0,-1 1,-1l1 0 0 1 1 0 0 2 1 0 0 1 2 0 0 1 1 1 0 1 1 0 1 1 -2 0 0 2 -1 -1 0 -1 -2 0 0 -1 -1 0 0 -2 -1 0 -1 -1 0 0 -1 1c-1,0 -1,0 -1,1l0 1 1 0 0 1 2 0 0 2 1 0 0 1 1 0 0 1 2 0 0 2 1 0 0 -2 2 0 0 -1 1 0 0 -1 1 0 0 4 -1 0 0 1 -1 0 -1 1 -1 0 0 2 -1 0 0 1 -2 0 0 2 -1 0 0 1 -1 0 0 1 -2 0 0 2 -1 0 0 1c-1,0 -1,0 -1,0l0 1 1 1 0 1 1 0 0 1 2 0 0 2 1 0 0 1 4 0 0 -1 -1 0 0 -2 -1 0 -1 -1 -1 0 0 -2 -1 0 0 -1c0,0 0,0 1,0l0 -1 1 0 0 -2 2 0 0 -1 1 0 0 -1 2 0 0 -2 1 0 0 -1 1 0 0 4 -1 0 0 1 -1 0 -1 2 -1 0 0 1 -1 0 0 1 1 1 0 1 2 0 0 1 1 0 0 2 1 0 0 1 2 0 0 -352 -2 0 0 1 -1 0 0 -1 -6 0 0 1 2 0 0 1 1 0 0 2 1 0 1 1 1 0 0 1 1 1 0 1 -1 0 0 1 -1 0 0 2 -2 0 0 1 -1 0 0 1 -2 0 0 2 -1 0 0 1 -1 0 0 1 -2 1 0 1 -1 0 0 1 -1 0 0 2 -2 0 0 1 -1 0 0 1 -2 0 0 2 -1 0 0 1 -1 0 0 1 -2 1 0 1 -1 0 0 1 -1 0 -1 2 -1 0 0 1 -1 0 0 1 -2 0 0 2 -1 0 0 1 -1 0 0 1 -2 1 0 1 -1 0 0 1 -1 0 -1 2 -1 0 0 1 -1 0 0 1 -2 0 0 2 -1 0 0 1 1 0 0 2 2 0 0 1 1 0 0 1 1 0 0 2 2 0 0 1 1 0 0 1 2 0 0 2 1 0 0 1 1 0 0 2 2 0 0 1 1 0 0 1 1 0 0 2 2 0 0 1 1 0 0 1 2 0 0 2 1 0 0 1 1 0 0 2 2 0 0 1 1 0 0 1 1 0 0 2 2 0 0 1 1 0 0 1 2 1 0 1 1 0 0 1 1 0 0 2 2 0 0 1 1 0 0 1 1 0 0 2 2 0 0 1 1 0 0 1 -1 0 0 2 -1 0 0 1 -2 0 0 2 -1 0 0 1 -2 0 0 1 -1 1 0 0 1 1 0 1 2 0 0 1 1 1 0 1 1 0 1 1 1 0 0 2 1 0 0 1 -1 0 0 1 -1 0 -1 2 -1 0 0 1 -1 0 0 1 -2 0 0 2 -1 0 0 1 -1 0 0 2 -2 0 0 1 -1 0 0 1 -1 0 -1 2 -1 0 0 1 -1 0 0 1 -2 0 0 2 -1 0 0 1 -1 0 0 2 -2 0 0 1 -1 0 0 1 -1 0 -1 2 -1 0 0 1 -1 0 0 1 -2 0 0 2 -1 0 0 1 -1 0 0 2 -2 0 0 1 -1 0 0 1 -1 0 -1 2 -1 0 0 1 -1 0 0 1 -2 0 0 2 -1 0 0 1 1 0 0 2 2 0 0 1 1 0 0 1 1 0 0 2 2 0 0 1 1 0 0 2 2 0 0 1 1 0 0 1 1 0 0 2 2 0 0 1 1 0 0 1 1 0 1 2 1 0 0 1 1 0 0 2 2 0 0 1 1 0 0 1 1 0 0 2 2 0 0 1 1 0 0 1 1 1 0 1 2 0 0 1 1 0 0 2 2 0 0 1 1 0 0 1 1 0 0 2 2 0 0 1 1 0 0 1 1 1 1 1 1 0 0 1 1 0 0 1 -1 1 0 1 -1 0 -1 1 -1 0 0 2 -1 0 0 1 -2 0 0 1 -1 1 0 1 1 0 0 1 2 0 0 2 1 0 0 1 1 0 1 1 1 0 0 2 1 0 0 1 -1 0 0 1 -1 0 -1 2 -1 0 0 1 -1 0 0 1 -2 1 0 1 -1 0 0 1 -1 0 0 2 -2 0 0 1 -1 0 0 1 -1 0 -1 2 -1 0 0 1 -1 0 0 2 -2 0 0 1 -1 0 0 1 -1 0 0 2 -2 0 0 1 -1 0 0 1 -1 0 -1 2 -1 0 0 1 -1 0 0 2 -2 0 0 1 -1 0 0 1 -1 0 0 2 -2 0 0 1 -1 0 0 1 -1 0 -1 2 -1 0 0 1 -1 0 0 2 -2 0 0 1c0,0 0,0 0,0 -1,0 -1,0 -1,0l0 1 1 0 0 2 2 0 0 1 1 0 0 1 1 1 1 1 1 0 0 1 1 0 0 2 2 0 0 1 1 0 0 1 1 0 0 2 2 0 0 1 1 0 0 1 1 1 1 1 1 0 0 1 1 0 0 2 2 0 0 1 1 0 0 1 1 0 0 2 2 0 0 1 1 0 0 1 1 1 1 1 1 0 0 1 1 0 0 2 2 0 0 1 1 0 0 1 1 0 0 2 2 0 0 1 1 0 0 1 1 1 1 1 1 0 0 1 1 0 0 2 -1 0 0 1 -1 0 -1 1 -1 0 0 2 -1 0 0 1 -2 0 0 1 -1 1 0 1 1 0 0 1 2 0 0 2 1 0 0 1 2 0 0 1 1 1 0 1 1 0 0 1 -1 0 0 1 -1 1 -1 1 -1 0 0 1 -1 0 0 2 -2 0 0 1 -1 0 0 1 -1 0 0 2 -2 0 0 1 -1 0 0 1 -1 1 -1 1 -1 0 0 1 -1 0 0 2 -2 0 0 1 -1 0 0 1 -1 0 0 2 -2 0 0 1 -1 0 0 1 -1 1 -1 1 -1 0 0 1 -1 0 0 2 -2 0 0 1 -1 0 0 1 -1 0 0 2 -2 0 0 1 -1 0 0 2 -1 0 -1 1 -1 0 0 1 -1 0 0 2 -2 0 0 1c0,0 0,0 0,0 -1,0 -1,0 -1,0l0 1 1 1 0 1 2 0 0 1 1 0 0 2 1 0 1 1z"/>
   <path class="fil0" d="M206 33l0 -1 2 0 0 -1 1 0 0 -1 1 0 0 6 -1 0c0,0 0,0 0,0 0,0 0,-1 0,-1l-1 0 0 -1 -2 -1zm2 50c-1,0 -1,0 -1,0 -1,0 -1,0 -1,0l0 -1 2 0 0 -2 1 0 0 -1 1 0 0 7 -1 0c0,-1 0,0 0,-1l-1 0 0 -2zm0 50c-1,0 -1,0 -1,0 -1,0 -1,0 -1,-1l0 -1 2 0 0 -1 1 0 0 -1 1 0 0 6 -1 0c0,0 0,0 0,-1l-1 0 0 -1zm-2 49l0 -1c1,0 1,0 2,0l0 -1 1 0 0 -2 1 0 0 7 -1 0 0 -1 -1 0 0 -2 -2 0zm0 50l0 -1 2 -1 0 -1 1 0c0,-1 0,-1 0,-1l1 0 0 6 -1 1 0 -2 -1 0 0 -1 -2 0zm0 49l0 -1 2 0 0 -1 1 0c0,-2 0,-1 0,-2l1 0 0 7 -1 0 0 -1 -1 0 0 -2 -2 0zm0 50l0 -1c0,0 0,0 1,0 0,0 0,0 1,0l0 -2 1 0 0 -1 1 0c1,1 0,5 0,7l-1 0 0 -2 -1 0 0 -1 -2 0zm-9 -273c-1,0 -1,0 -1,0 -1,0 -1,0 -1,0l0 -1 2 0 0 -1 1 0 0 -2 1 0 0 -1 2 0 0 -1 1 0 0 -2 1 0 0 2 2 0 0 1 1 0 0 1 1 0 1 2 1 0 0 1 1 0 0 1 -1 0 0 2 -1 0 0 1 -2 0 0 1 -1 1 0 1 -2 0 0 1 -1 0c0,0 0,0 0,0 0,0 0,-1 0,-1l-1 0 0 -1 -2 -1 0 -1 -1 0 0 -1 -1 0 0 -2zm0 50c-1,0 -1,0 -2,0l0 -1 2 0 0 -2 1 0 0 -1 1 0 0 -1 2 -1 0 -1 1 0 0 -1 1 0 0 1 2 0 0 1 1 1 0 1 2 0 0 1 1 0 0 2 1 0 0 1 -1 0 0 1 -1 0 0 2 -2 0 0 1 -1 0 0 1 -2 0 0 2 -1 0c0,-1 0,0 0,-2l-1 0 0 -1 -2 0 0 -1 -1 0 0 -2 -1 0 0 -1zm0 50c-1,-1 -1,0 -2,-1l0 -1 2 0 0 -1 1 0 0 -2 1 0 0 -1 2 0 0 -1 1 0 0 -2 1 0 0 2 2 0 0 1 1 0 0 1 1 1 1 1 1 0 0 1 1 0 0 1 -1 0 0 2 -1 0 -1 1 -1 0 0 2 -1 0 0 1 -2 0 0 1 -1 0 0 -1 -1 0 0 -1 -2 0 0 -2 -1 0 0 -1 -1 0 0 -1zm-2 49l0 -1c1,0 1,0 2,0l0 -2 1 0 0 -1 1 0 0 -1 2 0 0 -2 1 0c0,-1 0,-1 0,-1l1 0 0 1 2 0 0 2 1 0 0 1 2 0 0 1 1 0 0 2 1 0 0 1 -1 0 0 1 -1 0 -1 2 -1 0 0 1 -1 0 0 1 -2 1 0 1 -1 0 0 -1 -1 0 0 -2 -2 0 0 -1 -1 0 0 -2 -1 0 0 -1 -2 0zm0 49l0 0c0,-1 0,-1 1,-1 0,0 0,0 1,0l0 -1 1 0 0 -1 1 -1 0 -1 2 0 0 -1 1 0c0,-2 0,-1 0,-2l1 0 0 2 2 0 0 1 1 0 0 1 2 1 0 1 1 0 0 1 1 0 0 2 -1 0 0 1 -1 0 -1 1 -1 0 0 2 -1 0 0 1 -2 0 0 1 -1 0 0 -1 -1 0 0 -1 -2 0 0 -2 -1 0 0 -1 -1 0 0 -1 -2 -1zm0 50l0 -1c1,0 1,0 2,0l0 -2 1 0 0 -1 1 0 0 -1 2 0 0 -2 1 0c0,-1 0,-1 0,-1l1 0 0 1 2 0 0 2 1 0 0 1 2 0 0 1 1 1 0 1 1 0 0 1 -1 0 0 1 -1 1 -1 1 -1 0 0 1 -1 0 0 2 -2 0 0 1 -1 0 0 -1 -1 0 0 -2 -2 0 0 -1 -1 0 0 -1 -1 -1 0 -1 -2 0zm0 -289l0 -4 1 0 1 1 1 0 0 2 1 0 0 1 2 0 0 2 1 0c0,1 0,0 0,1l1 0 1 -1 1 -1 0 -1 1 0 0 -1 2 0 0 -2 1 0 0 -1 1 0 0 4 -1 0 0 1 -1 0 0 2 -2 0 0 1 -1 0 0 2 -2 0 0 1 -1 0c0,0 0,0 0,-1 0,0 0,0 0,0l-1 0 0 -2 -2 0 0 -1 -1 0 0 -1 -1 -1 0 -1 -2 0zm0 8l0 -4 1 0 0 2 2 0 0 1 1 0 0 1 2 0 0 2 1 0c0,0 0,1 0,1 0,0 0,0 0,0l1 0 1 -1 1 0 0 -2 1 0 0 -1 2 0 0 -1 1 0 0 -2 1 0 0 4 -1 0 0 2 -1 0 0 1 -2 0 0 1 -1 0 0 2 -2 0 0 1 -1 0 0 -1 -1 0 0 -1 -2 -1 0 -1 -1 0 0 -1 -1 0 0 -2 -2 0zm3 9l0 1 -1 0 -1 1 -1 0 0 -6 1 0 1 1 1 0 0 1 1 0 0 2 -1 0zm0 8l0 1 -1 0 -1 2 -1 0 0 -4 2 -1 0 -1 1 0 0 -1 1 0 0 -2 2 0 0 -1 1 0 0 -1 1 0 0 1 2 0 0 1 1 0 0 2 2 0 0 1 1 0 0 2 1 0 0 4 -1 0 0 -2 -1 0 0 -1 -2 0 0 -1 -1 -1 0 -1 -2 0c0,-1 1,-1 -1,-1l0 1 -1 0 0 1 -2 1 0 1 -1 0zm0 8l0 1 -1 1 -1 1 -1 0 0 -4 2 0 0 -2 1 0 0 -1 1 0 0 -1 2 0 0 -2 1 0 0 -1 1 0 0 1 2 0 0 2 1 0 0 1 1 0 1 1 1 1 0 1 1 0 0 4 -1 0 0 -1 -1 -1 0 -1 -2 0 0 -1 -1 0 0 -2 -2 0 0 -1 -1 0 0 1 -1 0 0 2 -2 0 0 1 -1 0zm-3 17l0 -4 1 0 1 1 1 0 0 1 1 0 0 2 2 0 0 1 1 0c0,0 0,1 0,1 0,0 0,0 0,0l1 0 1 -1 1 0 0 -1 1 0 0 -2 2 0 0 -1 1 0 0 -1 1 0 0 4 -1 0 0 1 -1 0 0 1 -2 0 0 2 -1 0 0 1 -2 0 0 2 -1 0c0,-1 0,-1 0,-1 0,0 0,-1 0,-1l-1 0 0 -1 -2 0 0 -2 -1 0 0 -1 -1 0 0 -1 -2 0zm0 8l0 -4 1 0 1 1 1 0 0 2 1 0 0 1 2 0 0 1 1 0c0,0 0,1 0,1 0,1 0,0 0,1l1 0c0,-1 0,0 0,-1 0,0 1,-1 1,-1l1 0 0 -1 1 0 0 -1 2 0 0 -2 1 0 0 -1 1 0 0 4 -1 0 0 1 -1 0 0 2 -2 0 0 1 -1 0 0 1 -2 0 0 2 -1 0 0 -2 -1 0 0 -1 -2 0 0 -1 -1 0 0 -2 -1 0 0 -1 -2 0zm3 8l0 1 -1 1 -1 1 -1 0 0 -7 1 0 1 1 1 1 0 1 1 0 0 1 -1 0zm0 8l0 2 -1 0 -1 1 -1 0 0 -4 2 0 0 -1 1 0 0 -2 1 0 0 -1 2 0 0 -1 1 0 0 -2 1 0 0 2 2 0 0 1 1 0 0 1 1 0 1 2 1 0 0 1 1 0 0 4 -1 0c0,0 0,0 0,-1l-1 0 0 -2 -2 0 0 -1 -1 0 0 -1 -2 0 0 -2 -1 0 0 2 -1 0 0 1 -2 0 0 1 -1 0zm0 9l0 1 -1 0 -1 1 -1 0 0 -4 2 0 0 -1 1 0 0 -1 1 0 0 -2 2 0 0 -1 1 0 0 -1 1 -1 0 2 2 0 0 1 1 0 0 2 2 0 0 1 1 0 0 1 1 0 0 4 -1 0 0 -1 -1 0 0 -1 -2 0 0 -2 -1 0 0 -1 -2 0c0,0 0,-1 0,-1 0,0 0,0 0,0l-1 0 0 1 -1 0 0 1 -2 0 0 2 -1 0zm-1 16c-1,0 -1,0 -2,0l0 -4 1 0 1 1 1 1 0 1 1 0 0 1 2 0 0 2 1 0c0,1 0,1 0,1l1 0 1 -1 1 0 0 -2 1 0 0 -1 2 0 0 -1 1 -1 0 -1 1 0 0 4 -1 0 0 2 -1 0 0 1 -2 0 0 1 -1 0 0 2 -2 0 0 1 -1 0c0,-1 0,0 0,-1l-1 0 0 -2 -2 0 0 -1 -1 0 0 -1 -1 0 0 -2zm0 9c-1,-1 -1,0 -2,-1l0 -4 1 0 1 2 1 0 0 1 1 0 0 1 2 1 0 1 1 0c0,0 0,1 0,1 0,0 0,0 0,0l1 0 1 -1 1 0 0 -1 1 -1 0 -1 2 0 0 -1 1 0 0 -2 1 0 0 4 -1 0 0 2 -1 0 -1 1 -1 0 0 2 -1 0 0 1 -2 0 0 1 -1 0c0,0 0,0 0,-1l-1 0 0 -1 -2 0 0 -2 -1 0 0 -1 -1 0 0 -1zm1 8l0 1 -1 0 -1 1 -1 0 0 -6 1 0 1 1 1 0 0 1 1 0 0 2 -1 0zm0 8l0 1 -1 0 -1 2 -1 0 0 -4 2 0 0 -2 1 0 0 -1 1 0 0 -1 2 -1 0 -1 1 0 0 -1 1 0 0 1 2 0 0 2 1 0 0 1 2 0 0 1 1 0 0 2 1 0 0 4 -1 0c0,-1 0,-1 0,-2l-1 0 0 -1 -2 0 0 -1 -1 0 0 -2 -1 0 -1 -1 -1 0c0,0 0,0 0,1l-1 0 0 2 -2 0 0 1 -1 0zm0 8l0 2 -1 0 -1 1 -1 0 0 -4 2 0 0 -1 1 -1 0 -1 1 0 0 -1 2 0 0 -2 1 0 0 -1 1 0 0 1 2 0 0 2 1 0 0 1 2 0 0 2 1 0 0 1 1 0 0 4 -1 0c0,-1 0,0 0,-1l-1 0 0 -2 -2 0 0 -1 -1 0 0 -1 -2 -1c0,0 1,0 0,-1l-1 0c0,0 0,0 0,1l-1 0 0 2 -2 0 0 1 -1 0zm-3 16l0 -3 1 0 1 1 1 0 0 1 1 1 0 1 2 0 0 1 1 0c0,0 0,1 0,1 0,1 0,0 0,1l1 0 1 -2 1 0 0 -1 1 0 0 -2 2 0 0 -1 1 0 0 -1 1 0 0 4 -1 0 0 1 -1 0 -1 1 -1 0 0 2 -1 0 0 1 -2 0 0 2 -1 0c0,-1 0,-1 0,-2l-1 0 0 -1 -2 0 0 -1 -1 -1 0 -1 -1 0 0 -1 -2 -1zm0 9l0 -4 1 0 1 1 1 0 0 2 1 0 0 1 2 0 0 1 1 1 0 1 1 0 1 -2 1 0 0 -1 1 0 0 -1 2 0 0 -2 1 0 0 -1 1 0 0 4 -1 0 0 1 -1 0 0 2 -2 0 0 1 -1 0 0 1 -2 0 0 2 -1 0 0 -1 -1 -1 0 -1 -2 0 0 -1 -1 0 0 -2 -1 0 0 -1 -2 0zm3 8l0 2 -1 0 -1 1 -1 0 0 -7 1 0 1 2 1 0 0 1 1 0 0 1 -1 0zm0 9l0 1 -1 0 -1 1 -1 0 0 -4c1,0 1,0 2,0l0 -1 1 0 0 -2 1 0 0 -1 2 0 0 -1 1 0 0 -2 1 0 0 2 2 0 0 1 1 0 0 1 2 1 0 1 1 0 0 1 1 0 0 4 -1 0 0 -1 -1 0 0 -1 -2 -1 0 -1 -1 0 0 -1 -1 0 -1 -2 -1 0c0,1 0,1 0,2l-1 0 0 1 -2 0 0 1 -1 1zm0 8l0 1 -1 0 -1 2 -1 -1 0 -3c1,-1 1,-1 2,-1l0 -1 1 0 0 -1 1 0 0 -2 2 0 0 -1 1 0c0,-1 0,-1 0,-1l1 0 0 1 2 0 0 1 1 0 0 2 2 0 0 1 1 0 0 1 1 1 0 3 -1 0 0 -1 -1 0 0 -1 -2 0 0 -2 -1 0 0 -1 -1 0 -1 -1 -1 0c0,0 0,0 0,0 0,0 0,1 0,1l-1 0 0 1 -2 0 0 2 -1 0zm-3 16l0 -4 1 0 1 2 1 0 0 1 1 0 0 1 2 0 0 2 1 0 0 1 1 0 0 -1 2 0 0 -2 1 0 0 -1 2 0 0 -1 1 0c0,-2 0,-1 0,-2l1 0 0 4 -1 0 0 2 -1 0 -1 1 -1 0 0 1 -1 0 0 2 -2 0 0 1 -1 0 0 -1 -1 0 0 -2 -2 0 0 -1 -1 0 0 -1 -1 0 0 -2 -2 0zm0 8l0 -4 1 0 1 2 1 0 0 1 1 0 0 2 2 0 0 1 1 0 0 1 1 0c1,0 0,0 0,-1l2 0 0 -1 1 0 0 -2 2 0 0 -1 1 0c0,-1 0,-1 0,-2l1 1 0 3 -1 1 0 1 -1 0 -1 1 -1 0 0 2 -1 0 0 1 -2 0 0 1 -1 0 0 -1 -1 0 0 -1 -2 0 0 -2 -1 0 0 -1 -1 0 0 -1 -2 -1zm3 9l0 1 -1 0 -1 2 -1 0 0 -7 1 0 1 1 1 0 0 1 1 1 0 1 -1 0zm0 8l0 1 -1 0 -1 2 -1 0 0 -4c1,0 1,0 2,0l0 -2 1 0 0 -1 1 0 0 -1 2 0 0 -2 1 0c0,-1 0,-1 0,-1l1 0 0 1 2 0 0 2 1 0 0 1 2 0 0 1 1 0 0 2 1 0 0 4 -1 0 0 -2 -1 0 0 -1 -2 0 0 -1 -1 0 0 -2 -1 0c-1,-1 0,-1 -2,-1l0 1 -1 0 0 2 -2 0 0 1 -1 0zm0 8l0 2 -1 0 -1 1 -1 0 0 -4 2 0 0 -1 1 0 0 -2 1 0 0 -1 2 0 0 -1 1 -1c0,-1 0,0 0,-1l1 0 0 1 2 1 0 1 1 0 0 1 2 0 0 2 1 0 0 1 1 0 0 4 -1 0 0 -1 -1 0 0 -2 -2 0 0 -1 -1 0 0 -1 -2 0 0 -2 -1 0c0,1 0,1 0,2l-1 0 0 1 -2 0 0 1 -1 0zm-3 17l0 -4 1 0 1 1 1 0 0 1 1 1 0 1 2 0 0 1 1 0 0 2 1 0c1,-1 0,-1 0,-2l2 0 0 -1 1 0 0 -1 2 -1 0 -1 1 0c0,-1 0,-1 0,-1l1 0 0 4 -1 0 0 1 -1 0 -1 2 -1 0 0 1 -1 0 0 1 -2 0 0 2 -1 0 0 -2 -1 0 0 -1 -2 0 0 -1 -1 0 0 -2 -1 0 0 -1 -2 0zm0 8l0 -4 1 0 1 1 1 0 0 2 1 0 0 1 2 0 0 1 1 1 0 1c2,0 1,0 1,-1l2 -1 0 -1 1 0 0 -1 2 0 0 -2 1 0c0,-1 0,0 0,-1l1 0 0 4 -1 0 0 1 -1 0 -1 2 -1 0 0 1 -1 0 0 2 -2 0 0 1 -1 0 0 -1 -1 0 0 -2 -2 0 0 -1 -1 0 0 -1 -1 -1 0 -1 -2 0zm3 8l0 2 -1 0 -1 1 -1 0 0 -7 1 0 1 2 1 0 0 1 1 0 0 1 -1 0zm0 9l0 1 -1 0 -1 1 -1 0 0 -4 2 0 0 -1 1 0 0 -1 1 -1 0 -1 2 0 0 -1 1 0c0,-1 0,-1 0,-2l1 0 0 2 2 0 0 1 1 0 0 1 2 1 0 1 1 0 0 1 1 0 0 4 -1 0 0 -1 -1 0 0 -1 -2 0 0 -2 -1 0 0 -1 -2 0 0 -1 -1 -1c0,1 0,1 0,2l-1 0 0 1 -2 0 0 2 -1 0zm0 8l0 1 -1 0 -1 2 -1 0 0 -4 2 0 0 -2 1 0 0 -1 1 0 0 -2 2 0 0 -1 1 0c0,0 0,-1 0,-1 0,0 0,0 0,0l1 0 0 1 2 0 0 1 1 0 0 2 2 0 0 1 1 0 0 1 1 1 0 4 -1 0 0 -2 -1 0 0 -1 -2 0 0 -1 -1 -1 0 -1 -1 0 -1 -1 -1 0 0 1 -1 0 0 1 -2 0 0 2 -1 0zm-3 16l0 -4 1 0 1 2 1 0 0 1 1 0 0 1 2 1 0 1 1 0 0 1 1 0c1,0 0,0 0,-1l2 0 0 -2 1 0 0 -1 2 0 0 -1 1 0c0,-1 0,-1 0,-2l1 0 0 4 -1 0 0 2 -1 0 -1 1 -1 0 0 1 -1 1 0 1 -2 0 0 1 -1 0 0 -1 -1 0 0 -1 -2 -1 0 -1 -1 0 0 -1 -1 0 0 -2 -2 0zm0 8l0 -3 1 0 1 1 1 0 0 1 1 0 0 2 2 0 0 1 1 0 0 1 1 0 0 -1 2 0 0 -1 1 0 0 -2 2 0 0 -1 1 0 0 -1 1 0 0 4 -1 0 0 1 -1 0 -1 1 -1 0 0 2 -1 0 0 1 -2 0 0 1 -1 1 0 -2 -1 0 0 -1 -2 0 0 -2 -1 0 0 -1 -1 0 0 -1 -2 -1zm3 9l0 1 -1 0 -1 2 -1 0 0 -7 1 0 1 1 1 0 0 2 1 0 0 1 -1 0zm0 8l0 1 -1 1 -1 1 -1 0 0 -4 2 0 0 -2 1 0 0 -1 1 0 0 -1 2 0 0 -2 1 0c0,-1 0,-1 0,-1l1 0 0 1 2 0 0 2 1 0 0 1 2 0 0 1 1 1 0 1 1 0 0 4 -1 0 0 -1 -1 0 0 -2 -2 0 0 -1 -1 0 0 -2 -1 0 -1 -1 -1 0 0 1 -1 0 0 2 -2 0 0 1 -1 0zm0 8l0 2 -1 0 -1 1 -1 0 0 -4 2 0 0 -1 1 0 0 -2 1 0 0 -1 2 0 0 -1 1 0c0,-2 0,-1 0,-2l1 0 0 2 2 0 0 1 1 0 0 1 2 0 0 2 1 0 0 1 1 0 0 4 -1 0 0 -1 -1 0 0 -2 -2 0 0 -1 -1 0 0 -1 -1 0 -1 -2 -1 0 0 2 -1 0 0 1 -2 0c0,2 0,1 -1,1zm0 6l0 -1 1 0 0 -2 2 0 0 -1 1 0c0,-1 0,-1 0,-2l1 0 0 2 2 0 0 1 1 0 0 2 2 0 0 1 4 0 0 -352 -2 0c0,1 0,2 0,2l-1 0c0,0 0,0 0,-1l-1 0 -1 -1 -4 0 0 1 2 0 0 1 1 0 0 2 2 0 0 1 1 0 0 1 1 1c0,1 0,0 0,1l-1 0 0 1 -1 0 0 2 -2 0 0 1 -1 0 0 1 -2 0 0 2 -1 0 0 -2 -1 0 0 -1 -2 0 0 -1 -1 0 0 -2 -1 0 0 -1c-2,0 -1,0 -2,0l0 -1 2 -1 0 -1 1 0 0 -1 1 0 0 -2 2 0 0 -1 1 0 0 -1 -4 0 0 1 -1 0 -1 1 -1 0 0 -2 -1 0 0 352 4 0z"/>
   <path class="fil0" d="M166 204l-1 0 0 -1 -1 0 0 -1 -2 -1 0 -1 -1 0 0 -1 -2 0 0 -1c1,-1 1,-1 2,-1l0 -1 1 0 0 -1 2 0 0 -2 1 0c0,-1 0,0 0,-1l1 0 0 1 2 0 0 2 1 0 0 1 1 0 0 1 2 0 0 2 -2 0 0 1 -1 0 0 1 -1 1 0 1 -2 0 0 1zm-26 25l0 -1 -1 0 0 -2 -2 0 0 -1 -1 0 0 -1 -1 0 0 -2 -2 0 0 -1 -1 0 0 -2 -1 0 -1 -1 -1 0 0 -1 -1 0 0 -2 -2 0 0 -1 -1 0 0 -1 -1 -1 0 -1 -2 0 0 -1 -1 0 0 -2 -1 0 0 -1 -2 0 0 -1c1,0 1,0 2,0l0 -2 1 0 0 -1 1 0 0 -1 2 0 0 -2 1 0 0 -1 1 0c0,-2 0,-2 -1,-2l0 -1 -1 0 0 -1 -2 0 0 -2 -1 0 0 -1 -1 0 0 -1c-1,0 -1,0 -2,-1l0 -1c1,0 1,0 2,0l0 -1 1 0 0 -2 1 0 0 -1 2 0 0 -1 1 0 0 -2 1 0 0 -1 2 0 0 -1 1 0 0 -2 2 0 0 -1 1 0 0 -2 1 0 0 -1 2 0 0 -1 1 0 0 -2 1 0 0 -1 2 0 0 -1 1 0 0 -2 1 0 1 2 1 0 0 1 1 0 0 1 2 0 0 2 1 0 0 1 1 0 0 1 2 0 0 2 1 0 0 1 1 0 0 2 2 0 0 1 1 0 0 1 2 0 0 2 1 0 0 1 1 0 0 1 2 0 0 2 1 0 0 1 1 0 1 1 -2 1 0 1 -1 0 0 1 -2 0 0 2 -1 0 0 1 -1 0 0 1c-2,0 -2,0 -2,2l2 0 0 1 1 0 0 2 1 0 0 1 2 0 0 1 1 0 0 2 1 0 1 1 -2 0 0 1 -1 0 0 2 -2 0 0 1 -1 0 0 1 -1 1 0 1 -2 0 0 1 -1 0 0 2 -2 0 0 1 -1 0 0 1 -1 0 0 2 -2 0 0 1 -1 0 0 1 -1 1 0 1 -2 0 0 1 -1 0 0 2 -2 0 0 1 -1 0zm-1 -73l0 2 1 0 0 1 2 0 0 -1 1 0 0 -2 1 0c0,-1 0,-1 1,-1l0 0c1,0 1,0 1,1l1 0 0 1 -1 1 0 1 -2 0 0 1 -1 0 0 2 -2 0 0 1 -1 0c0,-1 0,0 0,-1l-1 0 0 -2 -2 0 0 -1 -1 0 0 -1c-1,-1 -1,0 -1,-1l0 -1 1 0c0,-1 0,-1 0,-1l1 0c0,0 0,0 0,1l2 0zm5 85l0 -1 -1 0 0 -1 -1 0 -1 -2 -1 0 0 2 -1 0 0 1 -2 0 0 1 -1 0 0 -1 -1 0 0 -1c0,0 0,0 1,0l0 -2 1 0 0 -1 2 0 0 -1 1 0 0 -2 1 0 1 2 1 0 0 1 1 0 0 1 2 0 0 2 1 0 0 1 -1 0 0 1 -2 0zm-34 -42l0 -2 1 0 0 -1 2 0 0 -1 1 0 0 -2 1 0 1 -1 0 0c1,1 1,0 1,1l1 0 0 2 1 0 0 1 2 0 0 1c1,0 1,0 1,1l0 1 -1 0 0 1 -1 0 -1 1 -1 1 0 1 -1 0 0 1 -2 0 0 -1 -1 0 0 -1 -1 -1 0 -1 -2 0 0 -1 -1 0zm3 -10c1,0 0,0 1,0l0 1 -1 1 0 1 -2 0 0 1 -1 0 0 2 -2 0 0 1 -1 0 0 -1 -1 0 0 -2 -2 0 0 -1 -1 0 0 -1 -1 -1 0 -1 1 0 0 -1 1 0c0,0 0,0 0,1l2 0 0 2 1 0 0 1 1 0 1 -1 1 -1 0 -1c0,0 0,0 -1,0 0,0 0,0 0,0l0 -1 -2 0 0 -2 -1 0 0 -1 -2 0 0 -1 -1 0c0,0 0,0 0,0 0,0 0,1 0,1l-1 0 0 1 -2 0 0 2 -1 0 0 1c0,0 -1,0 -1,0 -1,0 0,0 -1,0l0 1c1,0 1,0 1,1 0,0 1,0 1,0l0 1 1 0 0 1 2 0 0 2 1 0 0 1 1 0 0 1c1,0 1,0 2,1l0 1 -2 0 0 1 -1 0 0 1 -1 1 0 1 -2 0 0 1 -1 0 0 2 -2 0 0 1 2 0 0 1 1 1 0 1 2 0 0 1 1 0c0,0 0,1 0,1 0,1 0,0 0,1l1 0c0,-1 0,0 0,-1 0,0 0,-1 0,-1l2 0 0 -1 1 0 0 -2 1 0 1 -1 1 0 0 -1c0,0 0,0 -1,0 0,0 0,0 0,0l-1 -2 -1 0 0 2 -1 0 0 1 -2 0 0 1 -1 0 0 -1 -1 0 0 -1 1 0 0 -2 1 0 0 -1 2 0 0 -1 1 0 0 -2 1 0c1,1 0,1 0,2l2 0 0 1 1 0 0 1 2 0 0 2c1,0 0,0 1,0l0 1 -1 0 0 1 -2 0 0 2 -1 0 0 1 -2 0 0 1 -1 1 0 1 -1 0c0,1 0,1 1,1l0 2 1 0 0 1 2 0 0 1 1 1 1 1 0 0 1 -1 1 -1 0 -1 1 0 0 -1 2 0 0 -2 1 0 0 -1c0,0 0,0 0,0 0,0 -1,0 -1,0l0 -1 -2 0 0 1 -1 0 0 1 -1 0 0 2 -2 0 0 -2 -1 0 0 -1 1 0 0 -1 2 0 0 -2 1 0 0 -1 1 0 1 -2 0 0c1,1 1,1 1,2l1 0 0 1 1 0 1 2 1 0 0 1c1,0 1,0 1,0l0 1 -1 0 0 2 -2 0 0 1 -1 0 0 1 -1 0 0 2 -2 0 0 1 -1 0 0 1c0,0 0,0 1,1 0,0 0,0 0,0l0 1 2 0 0 1 1 0 0 2 1 0 1 1 1 0c0,0 0,0 0,0 0,0 0,-1 0,-1l1 0 0 -2 2 0 0 -1 1 0 0 -1 1 -1 0 -1 -1 0 0 -1 -1 0 0 1 -2 0 0 2 -1 0 0 1 -1 0 0 -1 -2 -1 0 -1 1 0 1 -1 1 0 0 -2 1 0 0 -1 2 0 0 -1 1 0c0,0 0,0 0,1l1 0 0 1 2 1 0 1 1 0 0 1c1,0 1,0 1,0l0 1 -1 1 0 1 -1 0 0 1 -2 0 0 2 -1 0 0 1 -1 0 0 1 -2 1 0 1 2 0 0 1 1 0 0 2 1 0 0 1 2 0c0,0 0,1 0,1 0,0 0,0 0,0l1 0 0 -1 1 0 1 -1 1 0 0 -2 1 0 0 -1c0,0 1,0 1,0 1,0 0,0 1,0l0 -1c-1,0 0,0 -1,-1 0,0 -1,0 -1,0l0 -1 -1 0c0,0 0,0 0,1 0,0 0,0 0,0l-2 0 0 2 -1 0 0 1 -1 0 0 -1 -2 0 0 -1c1,-1 1,-1 2,-1l0 -1 1 0 0 -1 2 0 0 -2 1 0 0 -1 1 0 0 1 2 0 0 2 1 0 0 1 1 0 0 1c1,0 1,0 2,1l0 1 -2 0 0 1 -1 0 0 2 -1 0 0 1 -2 0 0 1 -1 0 0 2 -2 0 0 1 2 0 0 1 1 1 0 1 2 0 0 1 1 0 0 2 1 0 0 -2 2 0 0 -1 1 0c0,-1 0,-1 0,-2l1 1c1,0 0,0 1,1l1 0 0 1 1 0 1 2 0 0 1 -2 1 0 0 -1 1 0 0 -1 2 -1 0 -1 1 0 0 -1 -1 0 0 -2 -2 0 0 -1 -1 0 0 -1 -1 -1 0 -1 -2 0 0 -1 -1 0 0 -1c1,-1 0,-1 1,-1l0 -1 2 0 0 -1 1 0 0 -2 1 0c0,-1 0,0 1,-1l1 0 0 1 1 0 0 2 1 0 1 1 1 0 0 1 1 1 0 1 -1 0 0 1 -1 0 0 -1 -2 0 0 -2 -1 0c0,0 0,0 0,0 0,-1 0,-1 0,-1l-1 0c0,0 0,0 -1,1 0,0 0,0 0,0l-1 0c0,2 0,2 1,2l0 1 2 0 0 2 1 0 0 1 1 0 1 1c1,0 1,1 1,-1l1 0 0 -1 2 0 0 -2 1 0 0 -1 1 0 0 -2 -1 0 0 -1 -1 0 0 -1 -2 0 0 -2 -1 0 0 -1 -1 0 0 -1 -2 -1 0 -1c1,0 1,0 2,0l0 -1 1 0 0 -2 1 0 0 -1 2 0c0,-1 0,-1 0,-1l1 0 0 1 1 0 0 1 2 1 0 1 1 0 0 1 1 0 0 1 -1 1 0 1 -1 0 0 -1 -2 0 0 -2 -1 0c0,0 0,-1 0,-1 0,0 0,0 0,0l-1 0 0 1 -2 0 0 2 2 0 0 1 1 0 0 1 1 0 0 2 2 0 0 1 1 0c0,0 0,0 0,0 0,0 0,-1 0,-1l2 0 0 -2 1 0 0 -1 1 0 0 -1 2 -1 0 -1 -2 0 0 -1 -1 0 0 -2 -1 0 0 -1 -2 0 0 -1 -1 0 0 -2 -2 0 0 -1c1,0 1,0 2,0l0 -1 1 0 0 -2 2 0 0 -1 1 0c0,-1 0,-1 0,-2l1 0c0,1 0,1 0,2l2 0 0 1 1 0 0 2 1 0 0 1 2 0 0 1 -2 0 0 2 -1 0 0 -2 -1 0 0 -1 -2 0 0 -1 -1 0 0 1 -1 0 -1 1 2 0 0 2 1 0 0 1 2 0 0 1 1 1 0 1 1 0 0 -2 2 0 0 -1 1 0 0 -1 2 0 0 -2 1 0 0 -1 -1 0 0 -1 -2 0 0 -2 -1 0 0 -1 -2 0 0 -2 -1 0 0 -1 -1 0 0 -1c0,0 0,0 1,0l0 -2 1 0 0 -1 2 0 0 -1 1 0c0,-1 0,-1 0,-2l1 0 1 2 1 0 0 1 1 0 0 1 2 0 0 2 1 0 0 1 -1 0 -1 1 -1 0 0 -1 -1 0 0 -1 -1 0 -1 -2 -1 0 0 2 -1 0 0 1c0,0 0,0 0,0 0,0 1,0 1,0l0 1 1 1 1 1 1 0 0 1 1 0 0 2 1 0 1 -2 1 0 0 -1 1 0 0 -2 2 0 0 -1c0,0 0,0 1,0 0,0 0,0 0,0l0 -1 -1 0 0 -2 -2 0 0 -1 -1 0 0 -1 -1 -1 0 -1 -2 0 0 -1 -1 0 0 -1c1,-1 0,-1 1,-1l0 -1 2 0 0 -1 1 0 0 -2 1 0 0 -1 2 0 0 -1c0,0 1,0 1,0 0,-1 0,-1 0,-1l0 -1 -1 0 0 -1 -2 0 0 -2 -1 0 0 -1 -1 0c0,0 0,-1 0,-1 0,0 0,0 -1,0l0 0 -1 1 -1 0 0 1 -1 0 -1 2 -1 0 0 1 -1 0 0 2 1 0 0 1 1 0 1 -1 1 0 0 -2 1 0c0,-1 0,-1 1,-1l1 0 0 1 1 0 0 1 -1 0 0 2 -2 0 0 1 -1 0 0 2 -1 0 -1 1 -1 0c0,-1 0,0 0,-1l-1 0 0 -2 -2 0 0 -1 -1 0 0 -1 -1 -1 0 -1c0,0 0,0 1,0l0 -1 1 0 0 -2 2 0 0 -1 1 0 0 -1 2 0 0 -2 1 0 0 -1 -1 0 0 -1 -2 -1 0 -1 -1 0 0 -1 -2 0c0,0 0,-1 0,-1 0,-1 0,0 0,-1l-1 0 0 2 -1 0 0 1 -2 0 0 1 -1 0 0 2 -1 0 0 1c0,0 0,0 0,0 0,0 1,0 1,0l0 2 1 0 0 -2 2 0 0 -1 1 0c0,-1 0,-1 0,-1l1 0 0 1 2 0 0 1 -2 0 0 2 -1 0 0 1 -1 0 0 1 -2 0 0 2 -1 0c0,-1 0,-1 0,-2l-1 0 0 -1 -2 0 0 -1 -1 0 0 -2 -2 0 0 -1c1,0 1,0 2,0l0 -1 1 0 0 -2 2 0 0 -1 1 0 0 -2 1 0 0 -1 2 0 0 -1 -2 0 0 -2 -1 0 0 -1 -1 0 0 -1 -2 -1 0 -1 -1 0 0 1 -2 0 0 2 -1 0 0 1 -1 0 0 2c0,0 -1,0 -1,0 -1,0 0,0 -1,0l0 1 2 0c0,0 0,1 0,1 0,0 0,0 0,0l1 0c0,0 0,0 0,0 0,0 0,-1 0,-1l1 0 0 -1 2 0c0,-1 0,-1 0,-2l1 0 0 2 1 0 0 1 -1 0 0 1 -1 0 0 2 -2 0 0 1 -1 0 0 2 -1 -1c0,0 0,0 0,-1l-2 0 0 -1 -1 0 0 -2 -1 0 0 -1 -2 0 0 -1c1,0 1,0 2,0l0 -2 1 0 0 -1 1 0 0 -1 2 0 0 -2 1 0 0 -1 1 -1 0 0 -1 -1 0 -1 -1 0 0 -1 -2 0 0 -2 -1 0 0 -1 -1 0 -1 1 -1 0 0 2 -1 0 0 1 -2 0 0 1 -1 1 0 1 1 0c0,0 0,1 0,1 1,0 0,0 1,0l1 0 0 -1 1 0 0 -2 2 0 0 -1 1 0 0 1 1 1 0 1 -1 0 0 1 -1 0 -1 1 -1 0 0 2 -1 0 0 1 -1 0c-1,0 -1,0 -1,-1l-1 0 0 -1 -1 -1 0 -1 -2 0 0 -1c-1,0 0,0 -1,-1l0 0c1,-1 0,-1 1,-1l0 -1 2 0 0 -1 1 0 0 -2 1 0 0 -1 2 0 0 -1 1 -1 0 -1 -1 0 0 -1 -2 0 0 -2 -1 0 0 -1 -1 0c0,0 0,-1 0,-1 0,0 0,0 -1,0l0 0 -1 1 -1 0 0 1 -1 0 -1 2 -1 0c0,-1 0,-1 0,-2 -1,0 -1,1 -1,0l0 -1 1 0 0 -1 2 0 0 -2 1 0 0 -1 -1 0 -1 -2 -1 0 0 2 -1 0 0 1 -2 0 0 2 -1 0 0 1 -1 0 0 1 -2 0 0 2 -1 0 0 1 -1 0 -1 1 2 1 0 1 1 0 0 1 2 0 0 2 1 0 0 1 1 0 0 1 2 1 0 1 -2 0 0 1 -1 0 0 1 -1 1 0 1 -2 0 0 1 -1 0c0,0 0,0 0,-1l-1 0 0 -1 -2 -1 0 -1 -1 0 0 -1c-1,0 -1,0 -2,-1l0 0c1,-1 1,-1 2,-1l0 -1 1 0 0 1 1 0 0 2 2 0 0 1 1 0 0 -1 2 -1 0 0 -2 -1 0 -1 -1 0 0 -1 -1 0 0 -2 -2 0c0,0 0,-1 0,-1 0,0 0,0 0,0l-1 0 0 1 -2 0 0 2 -1 0 0 1 -1 0 0 1 -2 1 0 0 2 1 0 1 1 0 0 2 1 0 0 1 2 0 0 1 1 0 0 2c1,0 1,0 1,0l0 1c0,0 0,0 -1,0l0 1 -1 0 0 2 -2 0 0 1 -1 0c0,1 0,1 0,1l-1 0 0 -1 -2 0 0 -1 -1 0 0 -2 -1 0 0 -1 -2 0 0 -1 1 0 1 -2 1 0c0,1 0,1 0,2l1 0 0 1 2 0 0 1 1 0 0 -1 1 0 0 -1 -1 0 0 -2 -1 0 0 -1 -2 0 0 -1 -1 -1 0 -1 -1 0 -1 1 -1 1 0 1 -1 0 0 1 -2 0 0 2 -1 0 0 1 1 0 0 1 2 0 0 2 1 0 0 1 1 0 0 2 2 0 0 1 1 0 0 1 -1 0 0 2 -2 0 0 1 -1 0 0 1 -1 0c0,1 0,1 -1,2l0 0c-1,-1 -1,-1 -1,-2l-1 0 0 -1 -1 0 0 -1 -2 0 0 -2 -1 0 0 -1 1 0 1 -1 0 0c1,0 1,0 1,1l1 0 0 1 1 0 1 2 0 0 1 -2 1 0 0 -1 -1 0 0 -1 -2 -1 0 -1 -1 0 0 -1 -1 0 -1 -2 0 0 -1 2 -1 0 0 1 -2 0 0 1 -1 1 0 1c0,0 -1,0 -1,0 0,0 0,0 0,0l0 1c0,0 0,0 0,0 0,0 1,0 1,0l0 2 1 0 0 1 2 0 0 1 1 0 0 2 2 0 0 1z"/>
   <path class="fil0" d="M159 99l0 -1 2 0 0 -1 1 0 0 -1 2 0 0 -2 1 0 0 -1 1 0 0 1 2 0 0 2 1 0 0 1 1 0 0 1 2 1 0 1 -2 0 0 1 -1 0 0 1 -1 0 0 2 -2 0 0 1 -1 0c0,0 0,0 0,-1l-1 0 0 -2 -2 0 0 -1 -1 0 0 -1 -2 -1zm-37 -3l0 -2 -1 0 0 -1 -1 0 0 -2 -2 0 0 -1 1 0 1 -1 1 0 0 -2 1 0 0 -1 2 0 0 -1 1 0 0 -2 1 0 0 -1 2 0 0 -1 1 -1 0 -1 2 0 0 -1 1 0 0 -2 1 0 0 -1 2 0 0 -1 1 0 0 -2 1 0 0 -1 2 0 0 -2 1 0 0 -1 1 0 0 1 2 1 0 1 1 0 0 1 2 0 0 2 1 0 0 1 1 0 0 1 2 0 0 2 1 0 0 1 1 0 0 1 2 1 0 1 1 0 0 1 2 0 0 2 1 0 0 1 1 0 0 1 2 0 0 2 1 0 0 1 1 0 0 1 -1 0 0 2 -1 0 0 1 -2 0 0 2 -1 0 0 1 -1 0 0 1 -2 1 0 0 2 1 0 1 1 0 0 1 1 1 0 1 2 0 0 1 1 0 0 2 1 0 0 1 -1 0 0 1 -1 0 0 2 -2 0 0 1 -1 0 0 1 -1 0 0 2 -2 0 0 1 -1 0 0 2 -1 0 -1 1 -1 0 0 1 -1 0 0 2 -2 0 0 1 -1 0 0 1 -1 0 0 2 -2 0 0 1 -1 0 0 2 -1 0 -1 1 -1 0c0,-1 0,0 0,-1l-1 0 0 -2 -2 0 0 -1 -1 0 0 -2 -1 0 0 -1 -2 0 0 -1 -1 0 0 -2 -1 0 0 -1 -2 0 0 -1 -1 0 0 -2 -2 0 0 -1 -1 0 0 -2 -1 0 0 -1 -2 0 0 -1 -1 0 0 -2 -1 0 0 -1c-1,0 -1,0 -2,0l0 -1 2 0 0 -2 1 0 0 -1 1 0 0 -1 2 -1 0 -1 1 0 0 -1c1,0 1,0 1,-1l0 -1 -1 0 0 -1 -1 0 0 -1 -2 0zm14 -38c-1,0 -1,1 -1,0l0 -1 1 0 0 -1 1 0 0 1 2 0 0 1 1 0 0 2 1 0 1 -2 1 0 0 -1 1 0 0 -1 2 0 0 1 1 0 0 1c-1,1 0,0 -1,0l0 2 -2 0 0 1 -1 0 0 1 -1 1 -1 1 -1 0c0,-1 0,0 0,-1l-1 -1 0 -1 -2 0 0 -1 -1 0 0 -2zm4 80c0,1 0,0 0,1 0,0 0,0 0,1l-1 0 0 1 -2 0 0 1 -1 0c0,0 0,0 0,-1 -1,0 -1,0 -1,0l0 -1 1 0 0 -2 1 0 0 -1 2 0 0 -1 1 0 0 -2 1 0 0 2 2 0 0 1 1 0 0 1 2 0 0 2 1 0 0 1 -1 0c0,1 0,1 -1,1l0 0c-1,0 -1,0 -1,-1l-1 0 0 -1 -1 0 -1 -2 -1 0zm-30 -38l0 -2 1 0 0 -1 2 0 0 -1 1 0 0 -2 1 0 0 -1 2 0 0 1 1 0 0 2 1 0 0 1 2 0 0 1 1 1 0 0c0,1 0,1 -1,1l0 1 -1 0 -1 1 -1 0 0 2 -1 0c0,1 0,1 -1,1l0 0 -1 -1 -1 0 0 -2 -1 0 0 -1 -2 0 0 -1 -1 0zm-3 -15l1 0 0 1 2 0 0 1 1 0 0 2 2 0 0 1 1 0 0 1c-1,1 0,0 -1,0l0 2 -2 0 0 1 -1 0 0 2 -1 0c-1,1 0,0 -1,1l-1 0 0 -1 -1 0 0 -2 -2 0 0 -1 -1 0 0 -2 -1 0 0 -1 1 0 0 -1 1 0 0 1 2 0 0 1 1 1c0,0 0,0 0,0 0,1 0,1 0,1l1 0c0,0 0,0 1,-1 0,0 0,0 0,0 0,0 0,-1 0,-1 1,0 1,0 1,0l0 -1 -1 0 0 -1 -2 0 0 -2 -1 0 0 -1 -2 0 0 -1 -1 0 0 1 -1 0 0 1 -2 0 0 2 -1 0 0 1 -2 0 0 1c1,0 0,0 1,0 0,0 1,1 1,1l0 1 1 0 0 1 2 0 0 2 1 0 0 1 1 0 0 1 2 1 0 0c-1,1 -1,1 -2,1l0 1 -1 0 0 1 -1 0 0 2 -2 0 0 1 -1 0 0 2 -2 0 0 1 2 0 0 1 1 0 0 2 2 0 0 1 1 0c0,0 0,1 0,1 0,0 0,0 0,0l1 1 0 -2 2 0 0 -1 1 0 0 -2 2 0 0 -1 1 0 0 -1 -1 0 -1 -2 -1 0 0 2 -1 0 0 1 -2 0c0,1 0,1 0,1l-1 0 0 -1 -1 0 0 -1 1 0 0 -2 1 0 0 -1 2 0 0 -1 1 -1 0 -1 1 0 0 1 2 1 0 1 1 0 0 1 2 0 0 2 1 0 0 1c-1,0 0,0 -1,0l0 1 -2 0 0 2 -1 0 0 1 -2 0 0 1 -1 0 0 2 -1 0 0 1 1 0 0 2 1 0 0 1 2 0 0 1 1 0 1 2 0 0 1 -2 1 0 0 -1 1 0 0 -1 2 0 0 -2c0,0 1,0 1,0 0,0 0,0 0,0l0 -1 -1 0 0 -2 -1 0c-1,1 0,1 -1,1 0,0 0,1 0,1l-1 0 0 1 -1 0c0,1 0,1 -1,2l0 0c-1,-1 -1,-1 -1,-2l-1 0 0 -1 1 0 0 -1 2 0 0 -2 1 0 0 -1 1 0 1 -2 1 0 0 2 1 0 0 1 1 0 0 1 2 1 0 1 1 0 0 1c0,0 0,0 -1,0l0 2 -2 0 0 1 -1 0 0 1 -1 0 0 2 -2 0 0 1 -1 0 0 1 1 1 0 1 2 0 0 1 1 0 0 2 1 0c0,0 0,0 0,0 1,1 1,1 1,1l1 0c0,0 0,0 0,-1 0,0 0,0 0,0l1 0 0 -2 2 0 0 -1 1 0 0 -1 1 -1 0 -1 -1 0c0,0 0,-1 0,-1 0,0 0,0 0,0l-1 0c0,0 0,0 0,0 0,0 0,1 0,1l-2 0 0 1 -1 0c0,1 0,1 0,2l-1 0c-1,-1 0,-1 0,-2l-2 0 0 -1 2 0 0 -1 1 0 0 -2 1 0 0 -1 2 0 0 -1 1 0 0 1 1 0 0 1 2 0 0 2 1 0 0 1 1 0 0 1c0,1 0,0 -1,0l0 2 -1 0 0 1 -2 0 0 2 -1 0 0 1 -1 0 0 1c-2,0 -2,1 -2,2l2 0 0 1 1 0 0 1 1 1 0 1 2 0c0,0 0,1 0,1 0,0 0,0 0,0l1 0 0 -1 2 0 0 -1 1 0 0 -2 1 0 0 -1 2 -1 0 0 -2 -1 0 -1 -1 0 0 1 -1 0 -1 2 -1 0 0 1 -1 0c0,-1 0,0 0,-1 -1,0 -1,0 -2,-1l0 -1 2 0 0 -1 1 0 0 -1 2 0 0 -2 1 0c0,-1 0,0 0,-1l1 0 0 1 2 0 0 2 1 0 0 1 1 0 0 1 2 1 0 1 -2 0 0 1 -1 0 0 1 -1 0 0 2 -2 0 0 1 -1 0 0 2 -2 0 0 1 2 0 0 1 1 0 0 2 2 0 0 1 1 0 0 2 1 0 0 -2 2 0 0 -1 1 0c0,-1 0,-1 0,-2l1 0 0 2 2 0 0 1 1 0 1 2 0 0 1 -2 1 0 0 -1 1 0 0 -2 2 0 0 -1c0,0 0,0 1,0 0,0 0,0 0,0l0 -1 -1 0 0 -2 -2 0 0 -1 -1 0 0 -2 -1 0 0 -1 -2 0 0 -1c-1,0 0,0 -1,-1l0 0 1 -1 0 -1 2 0 0 -1 1 0 0 -2 1 0 0 -1 2 0 0 1 1 0 0 2 1 0 0 1 2 0 0 1 1 1 0 1 -1 0 0 1 -1 0c-1,-1 0,0 0,-1l-2 0 0 -2 -1 0 0 -1 -1 0 -1 1c0,0 0,0 0,0 -1,0 -1,0 -1,1l0 0 1 1 0 1 2 0 0 1 1 1 0 1 1 0c0,0 0,1 0,1 1,0 1,0 1,0l1 0c0,0 0,0 0,0 0,0 0,-1 0,-1l1 0 0 -1 2 -1 0 -1 1 0 0 -1 1 0 0 -2 -1 0 0 -1 -1 0 0 -1 -2 0 0 -2 -1 0 0 -1 -1 0 0 -2c-1,0 -1,1 -2,0l0 -1 2 0 0 -1 1 0 0 -2 1 0 0 -1 2 0 0 -1 1 0 0 1 1 0 0 1 2 0 0 2 1 0 0 1 1 0 0 1 -1 0 0 2 -1 0c0,-1 0,0 0,-2l-2 0 0 -1 -1 0 0 -1 -1 0 0 1c0,0 -1,0 -1,0 -1,0 0,0 -1,0l0 1 2 1 0 1 1 0 0 1 1 0 0 2 2 0 0 1 1 0c0,0 0,0 0,-1 0,0 0,0 0,0l2 0 0 -2 1 0 0 -1 1 0 0 -1 2 -1 0 -1 -2 0 0 -1 -1 0 0 -2 -1 0 0 -1 -2 0 0 -1 -1 0 0 -2c-1,0 -1,0 -2,0l0 -1 2 0 0 -1 1 -1 0 -1 2 0 0 -1 1 0 0 -2 1 0 0 2 2 0 0 1 1 0 0 1 1 1 0 1 2 0 0 1 -2 0 0 2 -1 0c0,-1 0,-1 0,-2l-1 0 0 -1 -2 0 0 -2 -1 0 0 2 -1 0 0 1 1 0 0 2 1 0 0 1 2 0 0 1 1 0 0 2 1 0 0 -2 2 0 0 -1 1 0 0 -1 2 0 0 -2 1 0 0 -1c0,0 0,0 -1,0 0,0 0,0 0,0l0 -2 -2 0 0 -1 -1 0 0 -1 -2 0 0 -2 -1 0 0 -1c-1,0 -1,0 -1,0l0 -1 1 0 0 -2 1 0 0 -1 2 0 0 -1 1 -1 0 -1 1 0 0 1 2 1 0 1 1 0 0 1 2 0 0 2 1 0 0 1 -1 0 -1 1 0 0c-1,0 -1,0 -1,-1l-1 0 0 -1 -1 0 0 -2 -2 0 0 2 -1 0 0 1 1 0 0 1 1 0 0 2 2 0 0 1 1 0 1 1 0 0c1,0 0,1 1,0 0,0 0,-1 0,-1l1 0 0 -1 1 0 1 -2 1 0 0 -1 1 0 0 -1c0,0 0,0 0,0 0,0 -1,0 -1,0l0 -2 -2 0 0 -1 -1 0 0 -2 -1 0 0 -1 -2 0 0 -1c-1,0 0,0 -1,-1l0 -1 1 0 0 -1 2 0 0 -1 1 0 0 -2 1 0 1 -1 1 0 0 -1 1 -1 0 -1 -1 0 0 -1 -2 0 0 -2 -1 0 0 -1 -1 0 0 -1 -1 0c-1,0 -1,0 -1,0 0,0 0,1 0,1l-1 0 0 1 -1 0 -1 2 -1 0 0 1 -1 0 0 1 1 1 0 1 1 0 1 -1 1 -1 0 -1 1 0 0 -1 2 0 0 1 1 0 0 1 -1 0 0 2 -2 0 0 1 -1 0 0 2 -1 0 -1 1 -1 0c0,-1 0,0 0,-1l-1 0 0 -2 -2 0 0 -1 -1 0 0 -2c-1,0 -1,1 -1,0l0 -1 1 0 0 -1 1 0 1 -2 1 0 0 -1 1 0 0 -1 2 0 0 -2 1 0 0 -1 -1 0 0 -2 -2 0 0 -1 -1 0 0 -1 -2 0c0,-1 0,-1 0,-1 0,-1 0,0 0,-1l-1 0 0 2 -1 0 0 1 -2 0 0 1 -1 0 0 2c0,0 -1,0 -1,0 0,0 0,0 0,0l-1 1c1,0 1,0 1,0 0,0 1,0 1,0l0 2 1 0c0,-1 0,0 0,-1 0,0 0,-1 0,-1l2 0 0 -1 1 0 0 -2 1 0 0 2 2 0 0 1 -2 0 0 2 -1 0 0 1 -1 0 0 1 -2 0 0 2 -1 0c0,-1 0,-1 0,-2l-1 0 0 -1 -2 0 0 -1 -1 0 0 -2 -2 0 0 -1 2 0 0 -2 1 0 0 -1 2 0 0 -1 1 0 0 -2 1 0 0 -1 2 0 0 -1 -2 0 0 -2 -1 0 0 -1 -1 0 0 -2 -2 0c0,-1 0,0 0,-1l-1 0 0 1 -2 0 0 2 -1 0 0 1 -1 0 0 1 -2 1 0 1 2 0 0 1 1 0 0 -1 1 0 1 -1 1 0 0 -2 1 0 0 2 1 0 0 1 -1 0 0 1 -1 0 0 2 -2 0 0 1 -1 0 0 1 -1 0c0,0 0,0 0,-1l-2 0 0 -1 -1 0 0 -2 -1 0 0 -1c-2,0 -1,0 -2,0l0 -1 2 0 0 -2 1 0 0 -1 1 0 0 -2 2 0 0 -1 1 0 0 -1 1 0c0,-2 1,-2 -1,-2l0 -1 -1 0 0 -1 -2 -1 0 -1 -1 0c0,0 0,-1 0,-1 0,0 0,0 0,0l-1 0 -1 1 -1 0 0 1 -1 1 0 1 -2 0 0 1 -1 1 0 0 1 1c0,0 0,0 0,0 0,1 1,1 1,1l1 0 0 -1 1 0 0 -2 2 0 0 -1 1 0 0 1 1 1 0 1 -1 0 0 1 -1 0 -1 1 -1 0 0 2 -1 0 0 1 -1 0c-1,-1 -1,0 -1,-1l-1 0 0 -2 -1 0 0 -1 -2 0 0 -1c-1,0 0,0 -1,-1l0 -1 1 0 0 -1 2 0 0 -1 1 0 0 -2 1 0 0 -1 2 0 0 -2 1 0 0 -1 -1 0 0 -1 -2 0 0 -2 -1 0 0 -1 -1 0 0 -1 -2 0 0 1 -1 0 0 1 -1 0 -1 2 -1 0c0,-1 0,-1 0,-2 -1,0 -1,0 -1,0l0 -1 1 0 0 -1 2 0 0 -2 1 0 0 -1 -1 0 0 -2 -2 0 0 2 -1 0 0 1 -2 0 0 1 -1 1 0 1 -1 0 0 1 -2 0 0 2 -1 0 0 1 -2 0 0 1 2 0 0 2 1 0 0 1 2 0 0 2 1 0 0 1 1 0 0 1 2 1 0 0c-1,1 -1,1 -2,1l0 1 -1 0 0 1 -1 0 0 2 -2 0 0 1 -1 0c0,-1 0,0 0,-1l-1 0 -1 -2 -1 0 0 -1 -1 0 0 -1 -2 0 0 -2 2 0 0 -1 1 0 0 1 1 0 0 2 2 0 0 1 1 0 0 -1 2 -1 0 -1 -2 0 0 -1 -1 0 0 -1 -1 -1 -1 -1 -1 0c0,0 0,-1 0,-1 0,0 0,0 0,0l-1 0 0 1 -2 0 0 2 -1 0 0 1 -1 0 0 1 -2 1 0 1 2 0 0 1 1 0 0 1 1 0 0 2 2 0 0 1 1 0 0 2 1 0 0 1 -1 0 0 1 -1 0 0 2 -2 0 0 1 -1 0c0,1 0,1 0,1l-1 0 0 -1 -2 0 0 -1 -1 0 0 -2 -1 0 -1 -1c0,0 0,0 -1,0l0 -1 2 0 0 -2 1 0 0 2 1 0 0 1 2 0c0,0 0,1 0,1 0,0 0,0 0,0l1 0 0 -1 1 0 0 -1 -1 -1 0 -1 -1 0 0 -1 -2 0 0 -2 -1 0 0 -1 -1 0 -1 1 -1 0 0 2 -1 0 0 1 -2 0 0 2 -1 0 0 1 1 0 0 1 2 0 0 2 1 0 0 1 1 0 0 1 2 0 0 2 1 0 0 1c0,0 0,0 -1,0l0 2 -1 0 -1 1 -1 0 0 1 -1 0c0,1 0,1 -1,2l0 0 -1 -2 -1 0 0 -1 -1 0 0 -1 -2 -1 0 -1 -1 0 0 -1 1 0 1 -2 1 0 0 2 1 0 0 1 1 0 1 2 1 0 0 -2 1 0 0 -1c0,0 1,0 0,0 0,0 -1,0 -1,0l0 -2 -2 0 0 -1 -1 0 0 -1 -1 0 0 -2 -1 0c-1,1 -1,0 -1,1 0,0 0,1 0,1l-1 0 0 1 -1 0 -1 1 -1 0 0 2c0,0 -1,0 -1,0 0,0 0,0 0,0l0 1 1 0 0 2z"/>
   <path class="fil0" d="M159 298l0 -1c1,0 1,0 2,-1l0 -1 1 0 0 -1 2 0 0 -2 1 0c0,0 0,0 0,0 0,-1 0,-1 0,-1l1 0 0 1 2 0 0 2 1 0 0 1 1 0 0 2 2 0 0 1 -2 0 0 1 -1 0 0 2 -1 0 0 1 -2 0 0 1 -1 0 0 -1 -1 0 0 -1 -2 0 0 -2 -1 0 0 -1 -2 0zm-38 -7l-1 0 0 -1 -2 -1 0 -1 1 0 1 -1 1 0 0 -1 1 0 0 -2 2 0 0 -1 1 0 0 -2 1 0 0 -1 2 0 0 -1 1 0 0 -2 2 0 0 -1 1 0 0 -1 1 0 0 -2 2 0 0 -1 1 0 0 -2 1 0 0 -1 2 0 0 -1 1 0c0,-1 0,-1 0,-2l1 0c1,1 0,1 1,2l1 0 0 1 1 0 0 1 2 0 0 2 1 0 0 1 1 0 0 1 2 1 0 1 1 0 0 1 1 0 1 2 1 0 0 1 1 0 0 1 2 0 0 2 1 0 0 1 1 0 0 1 2 1 0 1 1 0 0 1 1 0 0 2 -1 0 0 1 -1 0 0 1 -2 0 0 2 -1 0 0 1 -1 0 0 1 -2 0c0,2 0,2 2,2l0 1 1 0 0 2 1 0 0 1 2 0 0 1 1 0 0 2 1 0 0 1 -1 0 0 1 -1 1 0 1 -2 0 0 1 -1 0 0 2 -1 0 0 1 -2 0 0 1 -1 0 0 2 -1 0 -1 1 -1 0 0 1 -1 1 0 1 -2 0 0 1 -1 0 0 2 -1 0 0 1 -2 0 0 1 -1 0 0 2 -2 0 0 1 -1 0 0 -1 -1 0 0 -2 -2 0 0 -1 -1 0 0 -1 -1 0 0 -2 -2 0 0 -1 -1 0 0 -1 -1 -1 0 -1 -2 0 0 -1 -1 0 0 -2 -2 0 0 -1 -1 0 0 -1 -1 0 0 -2 -2 0 0 -1 -1 0 0 -1 -1 -1 0 -1 -2 0 0 -1 1 0 1 -2 1 0 0 -1 1 0 0 -1 2 0 0 -2 1 0 0 -1 1 0 0 -1 -1 -1 0 -1 -1 0 0 -1 -2 0 0 -2 -1 0 0 -1zm14 -35l0 0c0,-1 0,-1 1,-1 0,-1 0,0 0,-1l1 0 0 1 2 0 0 2 1 0 0 1 1 0 1 -1 1 0 0 -2 1 0c0,-1 0,0 1,-1l1 0 0 1 1 0 0 1 -1 1 0 1 -2 0 0 1 -1 0 0 2 -1 0 -1 1 -1 0 0 -1 -1 0 0 -2 -2 0 0 -1 -1 0 0 -1 -1 -1zm9 84l0 -1 -1 0 0 -1 -1 0 -1 -2 -1 0 0 2 -1 0 0 1 -2 0 0 2 -1 -1 0 -1 -1 0 0 -1 1 0 0 -2 1 0 0 -1 2 0 0 -1 1 0 0 -2 1 0 1 2 1 0 0 1 1 0 0 1 2 1 0 1 1 0 0 1 -1 0 0 2 -2 -1zm-34 -42l0 -1 1 0 0 -2 2 0 0 -1 1 0 0 -2 1 0 1 -1 0 0c1,1 1,0 1,1l1 0 0 2 1 0 1 1 1 0 0 2c1,0 1,-1 1,0l0 1 -1 0 0 1 -1 0 -1 2 -1 0 0 1 -1 0 0 1 -2 0 0 -1 -1 0 0 -1 -1 0 0 -2 -2 0 0 -1 -1 0zm5 -21l-1 0 0 -1 -1 0 -1 -2 0 0 -1 2 -1 0 0 1 -2 0 0 2 -1 0 0 1c0,0 -1,0 -1,0 0,0 0,0 0,0l0 1 1 0 0 2 1 0 0 1 2 0 0 1 1 1 0 1 2 0 0 1c1,0 0,0 1,1l0 1 -1 0 0 1 -2 0 0 1 -1 0 0 2 -2 0 0 1 -1 0 0 -1 -1 0 0 -2 -2 0 0 -1 -1 0 0 -1 -1 -1 0 -1 1 0 0 -1 1 0 0 1 2 0 0 2 1 0 0 1 1 0 1 -1 1 -1 0 0 -1 -1 0 -1 -2 0 0 -1 -1 -1 0 -1 -2 0 0 -1 -1 0c0,0 0,0 0,0 0,0 0,1 0,1l-1 0 0 1 -2 0 0 2 -1 0 0 1 -2 0 0 2 2 0 0 1 1 0 0 1 2 0 0 2 1 0 0 1 1 0 0 2c1,0 1,-1 1,0 1,0 0,0 1,0l0 1 -2 0 0 1 -1 0 0 2 -1 0 0 1 -2 0 0 1 -1 0 0 2 -2 0 0 1 2 0 0 2 1 0 0 1 2 0 0 1 1 0 0 2 1 0 0 -2 2 0 0 -1 1 0 0 -1 1 0 1 -2 1 0 0 -1 -1 0 0 -2 -2 0 0 2 -1 0 0 1 -2 0 0 2 -1 -1 0 -1 -1 0 0 -1 1 0 0 -2 1 0 0 -1 2 0 0 -1 1 0 0 -2 1 0c1,1 0,1 0,2l2 0 0 1 1 0 0 1 2 0 0 2 1 0 0 1 -1 0 0 1 -2 1 0 1 -1 0 0 1 -2 0 0 2 -1 0 0 1 -1 0 0 1 1 0 0 2 1 0 1 1 1 0 0 2 1 0 0 1 2 0 0 -1 1 0 0 -2 1 0 0 -1 2 0 0 -2 1 0 0 -1c0,0 0,0 0,0 0,0 -1,0 -1,0l-1 -1 0 0 -1 1 -1 0 0 1 -1 0 0 2 -2 0 0 -2 -1 0 0 -1 1 0 0 -1 2 0 0 -2 1 0 0 -1 1 0 1 -1 0 0c1,0 1,0 1,1l1 0 0 1 1 0 0 2 2 0 0 1c1,0 1,0 1,0l0 1 -1 0 0 2 -2 0 0 1 -1 0 0 2 -1 0 0 1 -2 0 0 1 -1 0 0 2 1 0 0 1 2 0 0 1 1 0 0 2 1 0 1 1 1 0 0 -1 1 0 0 -2 2 0 0 -1 1 0 0 -1 1 -1 0 -1 -1 0 0 -1 -1 0 0 1 -2 0 0 2 -1 0 0 1 -1 0 0 -1 -2 -1 0 -1 1 0 1 -1 1 0 0 -1 1 0 0 -2 2 0 0 -1 1 0c0,0 0,0 0,1l1 0 0 2 2 0 0 1 1 0 0 1 1 0 0 2 -1 0 0 1 -1 0 0 1 -2 0 0 2 -1 0 0 1 -1 0 0 1 -2 1 0 1 2 0 0 1 1 0 0 2 1 0 0 1 2 0 0 1 1 0 0 -1 1 0 1 -1 1 0 0 -2 1 0 0 -1 2 0 0 -1 -2 -1 0 -1 -1 0c0,1 0,0 0,1 0,0 0,0 0,1l-2 0 0 1 -1 0 0 1 -1 0 0 -1 -2 0 0 -1 2 0 0 -2 1 0 0 -1 1 0 1 -2 1 0 0 -1 1 0 0 1 2 1 0 1 1 0 0 1 1 0 0 2 2 0 0 1 -2 0 0 1 -1 0 0 2 -1 0 0 1 -2 0 0 1 -1 0 0 2 -2 0 0 1 2 0 0 2 1 0 0 1 2 0 0 1 1 0 0 2 1 0 0 -2 2 0 0 -1 1 0c0,-1 0,-1 0,-1l1 0 1 1 1 0 0 1 1 0 0 2 2 0 0 -2 1 0 0 -1 1 0 0 -1 2 0 0 -2 1 0 0 -1 -1 0 0 -2 -2 0 0 -1 -1 0 0 -1 -1 0 0 -2 -2 0 0 -1 -1 0 0 -1 1 0 0 -2 2 0 0 -1 1 0 0 -2 1 0c0,0 0,0 0,0 1,-1 0,0 1,-1l1 0 0 1 1 1 0 1 1 0 1 1 1 0 0 2 1 0 0 1 -1 0 0 1 -1 0 0 -1 -2 0 0 -1 -1 -1 0 -1 -1 0 -1 1 -1 1 0 1 1 0 0 1 2 0 0 2 1 0 0 1 1 0 1 1 1 0 0 -1 1 0 0 -1 2 0 0 -2 1 0 0 -1 1 0 0 -1 -1 -1 0 -1 -1 0 0 -1 -2 0 0 -2 -1 0 0 -1 -1 0 0 -1 -2 -1 0 0c1,-1 0,-1 2,-1l0 -1 1 0 0 -1 1 0 0 -2 2 0 0 -1 1 0 0 1 1 0 0 2 2 0 0 1 1 0 0 1 1 0 0 2 -1 0 0 1 -1 0 0 -1 -2 0 0 -2 -1 0 0 -1 -1 0 0 1 -2 1 0 1 2 0 0 1 1 0 0 1 1 0 0 2 2 0 0 1 1 0 0 -1 1 0 1 -2 1 0 0 -1 1 0 0 -1c2,0 2,0 2,-2l-2 0 0 -1 -1 0 0 -1 -1 -1 0 -1 -2 0 0 -1 -1 0 0 -2 -2 0 0 -1 2 0 0 -1 1 0 0 -2 2 0 0 -1 1 0 0 -1 1 0 0 1 2 0 0 1 1 0 0 2 1 0 0 1 2 0 0 1 -2 0 0 2 -1 0 0 -2 -1 0 0 -1 -2 0 0 -1 -1 0 0 1 -2 0 1 1 1 0 0 2 1 0 0 1 2 0 0 2 1 0 0 1 1 0 0 -1 2 0 0 -2 1 0 0 -1 2 0 0 -2c0,0 0,1 1,0l0 -1 -1 0 0 -1 -2 0 0 -2 -1 0 0 -1 -2 0 0 -1 -1 -1 0 -1 -1 0 0 -1c0,0 0,0 0,0 0,0 1,0 1,0l0 -2 1 0 0 -1 2 0 0 -1 1 0 0 -2 1 0 1 2 1 0 0 1 1 0 0 1 2 0 0 2 1 0 0 1 -1 0 0 1 -2 0 0 -1 -1 0 0 -1 -1 0 -1 -2 -1 0 0 2 -1 0 0 1 1 0 0 2 1 0 1 1 1 0 0 1 1 0 0 2 2 0 0 -2 1 0 0 -1 1 0 0 -1 2 0 0 -2c1,0 1,0 1,0l0 -1 -1 0 0 -2 -2 0 0 -1 -1 0 0 -1 -1 0 0 -2 -2 0 0 -1 -1 0 0 -1 1 -1 0 -1 2 0 0 -1 1 0 0 -2 1 0 0 -1 2 0 0 -1c1,0 1,-1 1,-2l-1 0 0 -1 -2 0 0 -1 -1 -1 0 -1 -1 0 0 -1 -1 0 -1 1 -1 0 0 1 -1 0 -1 2 -1 0 0 1 -1 1 0 1 1 0 0 1 1 0 1 -1 1 0 0 -2 1 0 1 -1 1 0 0 1 1 0 0 2 -1 0 0 1 -2 0 0 1 -1 0 0 2 -1 0 -1 1 -1 0 0 -1 -1 0 0 -2 -2 0 0 -1 -1 0 0 -1 -1 -1 0 0 1 -1 0 -1 1 0 0 -1 2 0 0 -2 1 0 0 -1 2 0 0 -2 1 0 0 -1 -1 0 0 -1 -2 0 0 -2 -1 0 0 -1 -2 0c0,-2 0,-2 -1,-2l0 2 -1 0 0 1 -2 0 0 2 -1 0 0 1 -1 0 0 1c0,0 -1,0 0,0 0,0 1,0 1,0l0 2 1 0 0 -2 2 0 0 -1 1 0c0,0 0,-1 0,-1 0,0 0,0 0,0l1 0 0 1 2 0 0 1 -2 0 0 2 -1 0 0 1 -1 0 0 1 -2 0 0 2 -1 0 0 -1 -1 -1 0 -1 -2 0 0 -1 -1 0 0 -2 -2 0 0 -1 2 0 0 -1 1 0 0 -2 2 0 0 -1 1 0 0 -1 1 -1 0 -1c0,0 1,0 1,0 1,0 0,0 1,0l0 -1 -2 0 0 -2 -1 0 0 -1 -1 0 0 -1 -2 0 0 -2 -1 0 0 2 -2 0 0 1 -1 0 0 1 -1 0 0 2 -2 0 0 1 2 0 0 2 1 -1c0,0 0,0 0,0 0,0 0,-1 0,-1l1 0 0 -1 2 0c0,0 0,-1 0,-1 0,-1 0,0 0,-1l1 0 0 2 1 0 0 1 -1 0 0 1 -1 0 0 2 -2 0 0 1 -1 0 0 2 -1 0 0 -2 -2 0 0 -1 -1 0 0 -1 -1 -1 0 -1 -2 0 0 -1 1 0 1 -2 1 0 0 -1 1 0 0 -1 2 0 0 -2 1 0 0 -1c0,0 1,0 1,0 0,0 0,0 0,0l0 -2 -1 0 0 -1 -1 0 0 -1 -2 0 0 -2 -1 0c0,0 0,0 0,0 0,-1 0,-1 0,-1l-1 0 -1 1 -1 0 0 2 -1 0 0 1 -2 0 0 1 -1 1 0 1 1 0 0 1 2 0 0 -1 1 0 0 -1 2 -1c0,-1 -1,0 0,-1l1 0 0 1 1 1 0 1 -1 0 0 1 -1 0 -1 2 -1 0 0 1 -1 0 0 1 -2 0 0 -1 -1 0 0 -1 -1 0 0 -2 -2 0 0 -1 -1 0 0 -1 1 -1 0 -1 2 0 0 -1 1 0 0 -2 1 0 0 -1 2 0 0 -1 1 -1 0 0 -1 -1 0 -1 -2 0 0 -2 -1 0 0 -1 -1 0 -1 -1 0 0 -1 1 -1 0 0 1 -2 0 0 2 -1 0 0 -2 -1 0 0 -1c0,0 0,0 1,0l0 -1 2 0 0 -2 1 0 0 -1c0,0 0,0 -1,0 0,0 0,0 0,0l-1 -1 -1 0 0 1 -1 0 0 1 -2 0 0 2 -1 0 0 1 -1 0 0 1 -2 0 0 2 -1 0 0 1 -2 1 0 0 2 1 0 1 1 0 0 1 2 0 0 2 1 0 0 1 1 0 0 1 2 1 0 1 -2 0 0 1 -1 0 0 2 -1 0 0 1 -2 0 0 1 -1 0 0 -1 -1 0 0 -1 -2 0 0 -2 -1 0 0 -1 -2 0 0 -1 2 -1c0,0 0,0 0,-1l1 0c0,1 0,1 0,1l1 1 0 1 2 0 0 1 1 0 0 -1 2 0c0,-2 0,-1 -2,-2l0 -1 -1 0 0 -1 -1 0 0 -2 -2 0 0 -1 -1 0 0 1 -2 0 0 2 -1 0 0 1 -1 0 0 1 -2 1c0,1 0,1 2,1l0 1 1 0 0 2 1 0 0 1 2 0 0 1 1 0 0 2c1,0 1,0 1,0l0 1 -1 0 0 1 -1 0 0 2 -2 0 0 1 -1 0 0 2 -1 0 0 -2 -2 0 0 -1 -1 0 0 -2 -1 0 0 -1 -2 0 0 -1 2 0c0,-1 -1,-1 0,-2l1 0c0,1 0,1 0,2l1 0 0 1 2 0 0 2 1 -1 0 -1 1 0 0 -1 -1 0 0 -2 -1 0 0 -1 -2 0 0 -1 -1 0 0 -2 -1 0c0,0 0,0 -1,1 0,0 0,0 0,1l-1 0 0 1 -1 0 0 1 -2 0 0 2 -1 0 0 1c0,0 0,0 1,0 0,0 0,0 0,0l0 1 2 1 0 1 1 0 0 1 1 0 1 2 1 0 0 1 1 0 0 1 -1 0 0 2 -2 0 0 1 -1 0 0 1 -1 0 0 2 -2 0 0 -2 -1 0 0 -1 -1 0 0 -1 -2 0 0 -2 -1 0 0 -1 1 0 1 -1 0 0c1,0 1,0 1,1l1 0 0 1 1 0c0,1 0,1 0,1 0,1 0,0 1,1l1 0 0 -2 1 0 0 -1c0,0 0,0 0,0 0,0 -1,0 -1,0l0 -1 -2 0 0 -2z"/>
   <path class="fil0" d="M143 42l0 -1 -1 -1 -1 -1 -1 0 0 1 -1 1 0 1 -2 0 0 1 -1 0c0,0 0,0 0,-1 -1,0 -1,0 -1,0l0 -1 1 0 0 -2 1 0 0 -1 2 0 0 -2 1 0 0 -1 1 0 0 1 2 0 0 2 1 0 0 1 2 0 0 2 1 0 0 1 -1 0 -1 1 0 0c-1,0 -1,0 -1,-1l-1 0zm34 -41l-7 0 0 1 -1 0 0 1 -1 0 0 2 -2 0 0 1 -1 0c0,-1 0,0 0,-1l-1 0 0 -2 -2 0 0 -1 -1 0 0 -1 -4 0 0 1 1 0 0 1 1 0 0 2 2 0 0 1 1 0 0 1 1 1 0 1 -1 0 0 1 -1 0 0 2 -2 0 0 1 -1 0 0 1 -1 0 0 2 -2 0 0 1 -1 0 0 1 -1 1 -1 1 -1 0 0 1 -1 0 0 2 -2 0 0 1 -1 0 0 1 -1 0 0 2 -2 0 0 1 -1 0 0 1 -1 1 -1 1 -1 0c0,-1 0,-1 0,-1l-1 -1 0 -1 -2 0 0 -1 -1 0 0 -2 -1 0 0 -1 -2 0 0 -1 -1 0 0 -2 -1 0 -1 -1 -1 0 0 -1 -1 -1 0 -1 -2 0 0 -1 -1 0 0 -2 -1 0 0 -1 -2 0 0 -1 -1 0 0 -2 -1 0 -1 -1 -1 0 0 -1 2 0 0 -2 1 0 0 -1 1 0 1 -2 1 0 0 -1 1 0 0 -1 -4 0 0 1 -1 0 -1 1 -1 0 0 2 -1 0c0,1 0,0 -1,1l0 0 -1 -1 -1 0 0 -2 -1 0 0 -1 -2 0 0 -1 -7 0 0 1 -1 0 0 1 -1 0 0 2 -2 0 0 1 -1 0 0 1c-2,1 -2,1 -2,2l2 0 0 1 1 0 0 2 2 0 0 1 1 0 0 1 1 0 0 -1 2 0 0 -1 1 0 0 -2 1 0 1 -1c0,0 0,0 0,0 1,0 1,0 1,0l0 -1 -1 -1 -1 -1 -1 0 0 1 -1 1 0 1 -2 0c0,1 0,1 0,1l-1 0 0 -1 -1 0 0 -1 1 0 0 -2 1 0 0 -1 2 0 0 -2 1 0 0 -1 1 0 0 1 2 0 0 2 1 0 0 1 2 0 0 2 1 0 0 1c-1,0 0,0 -1,0l0 1 -2 0 0 2 -1 0 0 1 -1 0 -1 1 -1 0 0 2c-1,0 -1,0 -1,1l1 0 0 2 1 0 0 1 2 0 0 1 1 0c0,0 0,1 0,1 0,1 0,0 1,1l0 0c0,-1 0,0 1,-1 0,0 0,-1 0,-1l1 0 0 -1 1 0 0 -1 2 0 0 -2 1 0 0 -1 -1 0 0 -2 -2 0 0 2 -1 0 0 1 -1 0c0,1 0,1 -1,2l-1 -1 0 -1 -1 0 0 -1 1 0 0 -2 2 0 0 -1 1 0 0 -1 1 0 0 -2 2 0 0 2 1 0 0 1 1 0 0 1 2 0 0 2 1 0 0 1 -1 0 0 1 -1 0 -1 2 -1 0 0 1 -1 0 0 2 -2 0 0 1 -1 0 0 1c0,0 0,0 1,0 0,0 0,0 0,0l0 2 2 0 0 1 1 0 0 2 1 0 1 1 1 0 0 -1 1 0 0 -2 2 0 0 -1 1 0 0 -2 1 0 0 -1 -1 0 0 -1 -1 0 0 1 -2 0 0 1 -1 0c0,1 0,1 0,2l-1 0 -1 -2 -1 0 0 -1 2 0 0 -1 1 0 0 -2 1 0 0 -1 2 0 0 -1 1 0 0 1 1 0 0 1 2 0 0 2 1 0 0 1 1 0 0 1 -1 0 0 2 -1 0 0 1 -2 0 0 1 -1 1 0 1 -1 0 0 1 -2 0 0 1c1,1 0,0 1,1 0,0 0,0 1,0l0 1 1 0 0 1 1 0 0 2 2 0c0,0 0,1 0,1 0,0 0,0 0,0l1 0c0,0 0,0 0,0 0,0 0,-1 0,-1l2 0 0 -2 1 0 0 -1 1 0 0 -1 2 -1 0 -1 -2 0 0 -1 -1 0 0 1 -1 0 -1 2 -1 0 0 1 -1 0c0,-1 0,0 0,-1l-2 0 0 -2 2 0 0 -1 1 0 0 -1 2 0 0 -2 1 0 0 -1 1 0 0 1 2 0 0 2 1 0 0 1 1 0 0 1 2 0 0 2 -2 0 0 1 -1 0 0 1 -1 0 0 2 -2 0 0 1 -1 0 0 1 -2 1 0 1c1,0 0,0 1,0 0,0 1,0 1,0l0 1 1 0 0 2 2 0 0 1 1 0c0,0 0,1 0,1 0,0 0,0 0,0l1 0 0 -1 2 0 0 -1 1 0 0 -2 1 0 0 2 2 0 0 1 1 0 0 1 1 0 1 -1 1 0 0 -1 1 0 1 -2 1 0 0 -1 1 0 0 -1 -1 -1 0 -1 -2 0 0 -1 -1 0 0 -2 -1 0 0 -1 -2 0 0 -1c-1,0 0,0 -1,-1l0 -1 1 0 0 -1 2 0 0 -1 1 0 0 -2 1 0 1 -1 1 0 0 1 1 0 0 2 1 0 0 1 2 0 0 1 1 0 0 2 -1 0 0 1 -1 0c-1,-1 0,0 0,-1l-2 0 0 -2 -1 0 0 -1 -2 0 0 1 -1 0 0 2 1 0 0 1 2 0 0 1 1 0 0 2 1 0 1 1 1 0 0 -1 1 0 0 -2 2 0 0 -1 1 0 0 -1 1 0 0 -2 -1 0 0 -1 -1 0 0 -1 -2 -1 0 -1 -1 0 0 -1 -1 0 -1 -2 -1 0 0 -1 2 0 0 -1 1 0 0 -2 1 0 0 -1 2 0 0 -1 1 0 0 1 1 0 0 1 2 0 0 2 1 0 0 1 1 0 0 1 -1 0 0 2 -1 0c0,-1 0,-1 0,-2l-2 0 0 -1 -1 0 0 -1 -1 0 0 1 -2 0 0 1 2 0 0 2 1 0 0 1 1 0 0 2 2 0c0,0 0,0 0,0 0,1 0,1 0,1l1 0c0,0 0,0 0,-1 0,0 0,0 0,0l2 0 0 -2 1 0 0 -1 1 0 0 -2 2 0 0 -1 -2 0 0 -1 -1 0 0 -2 -1 0 0 -1 -2 0 0 -1 -1 -1 0 -1 -2 0 0 -1 2 0 0 -2 1 0 0 -1 2 0 0 -1 1 0 0 -2 1 0 0 2 2 0 0 1 1 0 0 1 1 0 0 2 2 0 0 1 -2 0 0 2 -1 -1c0,0 0,0 0,-1l-1 0 0 -1 -2 0 0 -2 -1 0 0 2 -1 0 -1 1c1,0 1,0 1,0 0,0 1,0 1,0l0 2 1 0 0 1 2 0 0 1 1 0 0 2 1 0 1 -2 1 0 0 -1 1 0 0 -1 2 0 0 -2 1 0 0 -1c-1,0 -1,0 -1,0l0 -2 -2 0 0 -1 -1 0 0 -1 -2 0 0 -2 -1 0 0 -1 -1 0 0 -1 1 -1 0 -1 1 0 1 -1 1 0 0 -2 1 0 0 -1 1 0 1 1 1 0 0 2 1 0 0 1 2 0 0 2 1 0 0 1 -1 0 -1 1 0 0 -1 -1 -1 0 0 -1 -1 -1 0 -1 -2 0 0 1 -1 1 0 1 1 0 0 1 1 0 1 2 1 0 0 1 1 0c0,0 0,1 0,1 0,0 0,0 1,0l1 0 0 -1 1 0 0 -1 1 0 1 -2 1 0 0 -1 1 0 0 -1 -1 -1 0 -1 -2 0 0 -1 -1 0 0 -2 -1 0 0 -1 -2 0 0 -1z"/>
   <path class="fil0" d="M140 204l0 -1 -1 0 0 -1 -2 -1 0 -1 -1 0 0 -1 -1 0 0 -1c0,-1 0,-1 1,-1l0 -1 1 0 0 -1 2 0 0 -2 1 0c0,-1 0,0 0,-1l1 0 1 1 1 0 0 2 1 0 0 1 2 0 0 1 1 0 0 2 -1 0 0 1 -2 0 0 1 -1 1 0 1 -2 0 0 1 -1 0zm-1 -23l0 1 1 0c0,0 0,1 0,1 0,1 0,0 0,1l1 0 1 -2 1 0 0 -1 1 0c0,-1 0,-1 1,-1l0 0 1 1c1,0 0,0 1,0l0 1 -1 0 0 2 -2 0 0 1 -1 0 0 1 -2 0 0 2 -1 0c0,-1 0,-1 0,-2l-1 0 0 -1 -2 0 0 -1 -1 0 0 -2 -1 0 0 -1c0,0 0,0 1,0 0,-1 0,-1 0,-1l1 0 0 1 2 0zm-2 36l-1 0 0 -2 -1 0 0 -1c0,0 0,0 1,0l0 -1 1 0 0 -2 2 0 0 -1 1 0c0,-1 0,-1 0,-2l1 0 1 2 1 0 0 1 1 0 0 2 2 0 0 1 1 0 0 1 -1 0 0 2 -2 0 0 -2 -1 0 0 -1 -1 0 -1 -1 -1 0 0 1 -1 0 0 1 -2 0 0 2zm-13 -10l0 1 1 0 0 2 1 0 0 1 2 0c0,2 0,2 1,2l0 -2 2 0 0 -1 1 0 0 -1 1 -1 0 -1 2 0 0 -1c-1,0 0,0 -1,0 0,0 -1,0 -1,0l0 -2 -1 0c0,1 0,0 0,1 0,0 0,1 0,1l-2 0 0 1 -1 0 0 1 -1 0 0 -1 -2 0 0 -1c1,0 1,0 2,0l0 -2 1 0 0 -1 2 0 0 -1 1 0 0 -2 1 0 0 2 2 0 0 1 1 0 0 1 1 0 0 2c1,0 1,0 2,0l0 1 -2 0 0 1 -1 0 0 2 -1 0 0 1 -2 0 0 1 -1 1 0 1 -2 0 0 1c1,0 1,0 1,0 0,0 1,0 1,0l0 2 1 0 0 1 2 0 0 1 1 1 0 1 1 0 0 -2 2 0 0 -1 1 0c0,-1 0,-1 0,-1l1 0 1 1 1 0 0 1 1 1 1 1 0 0c1,0 1,0 1,-1 0,0 0,0 0,0l1 -1 0 -1 1 0 0 -1 2 0 0 -2 1 0 0 -1 -1 0 0 -1 -2 -1 0 -1 -1 0 0 -1 -1 0 0 -2 -2 0 0 -1 -1 0 0 -1c1,0 0,0 1,0l0 -2 2 0 0 -1 1 0 0 -1 1 0c0,-1 0,-1 1,-2l1 0 0 2 1 0 0 1 1 0 1 1 1 0 0 2 1 0 0 1 -1 0 0 1 -1 0 0 -1 -2 0 0 -1 -1 0c0,0 0,-1 0,-1 0,-1 0,0 0,-1l-1 0c0,1 -1,0 -1,1 0,0 0,0 0,1l-1 0 0 1c0,0 0,0 1,0 0,0 0,0 0,0l0 1 2 0 0 2 1 0 0 1 1 0 1 2 1 0 0 -2 1 0 0 -1 2 0 0 -1 1 -1 0 -1 1 0 0 -1c0,0 0,0 0,0 0,0 -1,0 -1,0l0 -2 -1 0 0 -1 -2 0 0 -1 -1 -1 0 -1 -1 0 0 -1 -2 0 0 -1c1,-1 1,-1 2,-1l0 -1 1 0 0 -1 1 0 0 -2 2 0 0 -1 1 0 0 -1c0,0 1,0 1,0 0,-1 0,-1 0,-1l0 -1 -1 0 0 -1 -1 0 0 -2 -2 0 0 -1 -1 0 0 -1 -1 0 -1 1 -1 0 0 1 -1 0 0 2 -2 0 0 1 -1 0 0 1 1 1c0,0 0,0 0,0 1,1 0,1 1,1l1 0c0,0 0,0 0,-1 0,0 0,0 0,0l1 0 0 -2 2 0c0,-1 -1,-1 0,-1l1 0 0 1 1 0 0 1 -1 1 0 1 -2 0 0 1 -1 0 0 2 -1 0 0 1 -1 0c-1,-1 -1,0 -1,-1l-1 0 0 -2 -1 0 0 -1 -2 0 0 -1 -1 -1 0 -1c1,0 0,0 1,0l0 -1 2 0 0 -2 1 0 0 -1 1 0 0 -1 2 0 0 -2 1 0 0 -1 -1 0 0 -1 -2 -1 0 -1 -1 0 0 -1 -1 0c0,0 0,-1 0,-1 0,0 0,0 -1,-1l0 0 -1 2 -1 0 0 1 -2 0 0 1 -1 1c0,-1 0,-1 0,-2l-1 0 0 -1 -2 0 0 -2 -1 0 0 2 -1 0 0 1 -2 0 0 1 -1 1 0 1 -1 0 -1 1 2 0 0 2 1 0 0 1 2 0 0 1 1 0 0 2 1 0 0 1c1,0 1,0 2,0l0 1 -2 1 0 1 -1 0 0 1 -1 0 0 2 -2 0 0 1 -1 0c0,-1 0,0 0,-1l-1 0 0 -2 -2 0 0 -1 -1 0 0 -1 -2 -1 0 -1c1,0 1,0 2,0 0,-1 0,0 0,-1l1 0c0,0 0,0 0,1l1 0 1 2 1 0c0,0 0,0 0,0 0,1 0,1 0,1l1 0 0 -1 2 -1 0 -1 -2 0 0 -1 -1 0 0 -2 -1 0 0 -1 -2 0 0 -1 -1 0 0 1 -2 0 0 1 -1 0 0 2 -1 0 0 1 -2 0 0 2 2 0 0 1 1 0 0 1 1 0 0 2 2 0 0 1 1 0 0 1c1,0 1,0 1,1l0 1 -1 0 0 1 -1 0 0 1 -2 1 0 1 -1 0 0 1 -1 0 0 2 -2 0 0 1 2 0z"/>
   <path class="fil0" d="M140 303l0 -1 -1 0 0 -1 -2 0 0 -2 -1 0 0 -1 -1 0 0 -1 1 -1 0 -1 1 0 0 -1 2 0 0 -2 1 0 0 -1 1 0 1 1 1 0 0 2 1 0 0 1 2 0 0 2 1 0 0 1 -1 0 0 1 -2 0 0 2 -1 0 0 1 -2 0 0 1 -1 0zm-5 -22l0 -1c0,0 0,0 1,0 0,-1 0,-1 0,-1l1 0 0 1 2 0 0 1 1 0 0 2 1 0 1 -2 1 0 0 -1 1 0c0,-1 0,-1 1,-1l0 0c1,0 1,0 1,1l1 0 0 1 -1 0 0 2 -2 0 0 1 -1 0 0 1 -2 0 0 2 -1 0 0 -2 -1 0 0 -1 -2 0 0 -1 -1 0 0 -2 -1 0zm1 35l0 -2 -1 0 0 -1 1 0 0 -1 1 0 0 -2 2 0 0 -1 1 0c0,-1 0,-1 0,-1l1 0 1 1 1 0 0 1 1 0 0 2 2 0 0 1 1 0 0 1 -1 0 0 2 -2 0 0 -2 -1 0 0 -1 -1 0c0,0 0,-1 0,-1 -1,0 -1,0 -1,0l-1 0 0 1 -1 0 0 1 -2 0 0 2 -1 0zm-12 -10l0 2 1 0 0 1 1 0 0 1 2 0 0 2 1 0 0 -2 1 0 1 -1 1 0 0 -1 1 -1 0 -1 2 0 0 -1 -2 0 0 -2 -1 0c0,1 0,1 0,1 0,0 0,1 0,1l-2 0 0 1 -1 0 0 1 -1 0 0 -1 -2 0 0 -1c1,0 1,0 2,0l0 -2 1 0 0 -1 1 0 1 -1 1 0 0 -2 1 0 0 2 2 0 0 1 1 0 0 1 1 0 0 2 2 0 0 1 -2 0 0 1 -1 1 0 1 -1 0 0 1 -2 0 0 2 -1 0 0 1c0,0 -1,0 -1,0 -1,0 0,0 -1,0l0 1 2 0 0 2 1 0 0 1 2 0 0 2 1 0 0 1 1 0 0 -1 2 0 0 -2 1 0c0,-1 0,-1 0,-1l1 0 1 1 1 0 0 2 1 0 0 1 2 0 0 -1 1 0 0 -2 1 0 0 -1 2 0 0 -2 1 0 0 -1 -1 0 0 -1 -2 0 0 -2 -1 0 0 -1 -1 0 0 -1 -2 -1 0 -1 -1 0 0 -1 1 0 0 -2 2 0 0 -1 1 0 0 -1 1 0c0,-1 0,-1 1,-2l1 0 0 2 1 0 0 1 1 0 1 1 1 0 0 2 1 0 0 1 -1 0 0 1 -1 0 0 -1 -2 0 0 -1 -1 0 0 -2 -1 0 -1 2 -1 0 0 1 1 0 0 2 2 0 0 1 1 0 0 1 1 0 1 2 1 0 0 -2 1 0 0 -1 2 0 0 -1 1 0 0 -2 1 0 0 -1 -1 0 0 -2 -1 0 0 -1 -2 0 0 -1 -1 0 0 -2 -1 0 0 -1 -2 0 0 -1c1,0 0,0 1,0 0,-1 0,0 1,0l0 -2 1 0 0 -1 1 0 0 -2 2 0 0 -1 1 0 0 -1c0,0 1,0 1,0 0,0 0,0 0,-1l0 -1 -1 0 0 -1 -1 0 0 -1 -2 -1 0 -1 -1 0c0,-2 0,-1 -1,-1 0,0 0,0 -1,0 0,0 0,1 0,1l-1 0 0 1 -1 0 0 2 -2 0 0 1 -1 0 0 2 1 0 0 1 2 0c0,0 0,0 0,-1 0,0 0,0 0,0l1 0 0 -2 2 0c0,0 0,0 0,-1 0,0 0,0 0,0l1 0c0,1 0,0 0,1l1 0 0 1 -1 1 0 1 -1 0 -1 1 -1 0 0 2 -1 0 0 1 -2 0 0 -1 -1 0 0 -2 -1 0 0 -1 -2 0 0 -1 -1 0 0 -1c1,-1 0,-1 1,-1l0 -1 2 0 0 -1 1 -1 0 -1 1 0 0 -1 2 0 0 -2 1 0 0 -1 -1 0 0 -1 -2 0 0 -2 -1 0 0 -1 -1 0 0 -2 -1 0 -1 2 -1 0 0 1 -2 0 0 2 -1 0 0 -2 -1 0 0 -1 -2 0c0,-2 0,-2 -1,-2 0,1 0,1 0,1 0,0 0,1 0,1l-1 0 0 1 -2 0 0 2 -1 0 0 1 -2 0c0,1 0,1 2,1l0 2 1 0 0 1 2 0 0 2 1 0 0 1 1 0 0 1 2 0 0 1 -2 1 0 1 -1 0 0 1 -1 0 0 2 -2 0 0 1 -1 0 0 -1 -1 0 0 -2 -2 0 0 -1 -1 0 0 -1 -2 0 0 -1c1,-1 1,-1 2,-1 0,-1 0,0 0,-1l1 0c0,0 0,0 0,0 0,1 0,1 0,1l1 0 0 2 2 0 0 1 1 0 0 -1 2 0 0 -1 -2 -1 0 -1 -1 0 0 -2 -1 0 -1 -1 -1 0c0,0 0,-1 0,-1 0,0 0,0 0,0l-1 0 0 1 -2 0 0 1 -1 0 0 2 -1 0 0 1 -2 1 0 0 2 1 0 1 1 0 0 1 1 0 0 2 2 0 0 1 1 0 0 2 1 0 0 1 -1 0 0 1 -1 0 0 2 -2 0 0 1 -1 0 0 1 -1 0 0 2c-1,0 -1,0 -1,0 -1,0 0,0 -1,0l0 1 2 0z"/>
   <path class="fil0" d="M136 100c-1,0 -1,0 -1,-1l0 -1 1 0 0 -1 1 0 0 -1 2 0 0 -2 1 0 0 -1 1 0 0 1 2 0 0 2 1 0 0 1 2 0 0 1 1 1 0 1 -1 0 0 1 -2 0 0 1 -1 0 0 2 -1 0 -1 1 -1 0c0,0 0,0 0,-1l-1 0 0 -2 -2 0 0 -1 -1 0 0 -1zm0 -17c-1,0 -1,0 -1,0l0 -1 1 0 0 -2 1 1 0 1 2 0 0 1 1 0 0 2 1 0 1 -2 1 0 0 -1 1 0 0 -2 1 0c1,1 1,1 1,2l1 0 0 1 -1 0 0 2 -2 0 0 1 -1 0 0 1 -1 0 -1 2 -1 0c0,-1 0,-1 0,-2l-1 0 0 -1 -2 0 0 -1 -1 -1 0 -1zm6 32l-1 -2 -1 0c0,1 0,1 0,2l-1 0 0 1 -2 0 0 2 -1 0c0,-1 0,-1 0,-2 -1,0 -1,0 -1,0l0 -1 1 0 0 -1 1 0 0 -2 2 0 0 -1 1 0 0 -2 1 0 0 2 2 0 0 1 1 0 0 1 2 1 0 1 1 0 0 1 -1 0 -1 2 0 0c-1,-1 -1,-1 -1,-2l-1 0 0 -1 -1 0zm-10 -35l0 2 -1 0 -1 1c1,0 1,0 1,0 0,0 1,0 1,0l0 2 1 0 0 1 2 0 0 1 1 0 0 2 1 0 0 1 2 0 0 1 -2 0 0 2 -1 0 0 1 -1 0 0 2 -2 0 0 1 -1 0c0,-1 0,0 0,-1l-1 -1 -1 -1 -1 0 0 -1 -1 0 0 -2c-1,0 -1,1 -2,0l0 -1 2 0 0 -1 1 0 0 1 1 0 0 1 2 1 0 1 1 0c0,0 0,0 0,-1 0,0 0,0 0,0l2 -1 0 -1 -2 0 0 -1 -1 0 0 -2 -1 0 -1 -1 -1 0 0 -1 -1 0 0 1 -2 0 0 1 -1 0 0 2 -1 0 0 1 -2 0 0 1 2 1 0 1 1 0 0 1 1 0 0 2 2 0 0 1 1 0 0 1 1 1 0 0c0,1 0,1 -1,1l0 1 -1 0 0 1 -2 0 0 2 -1 0 0 1 -1 0 0 2 -2 0 0 1c1,0 0,0 1,0 0,0 0,0 1,0l0 1 1 0 0 2 1 0 0 1 2 0 0 1 1 0 0 -1 2 0 0 -1 1 0 0 -2 1 0 0 -1c0,0 1,0 1,0 1,0 0,0 1,0l0 -1 -2 0 0 -2 -1 0 0 2 -1 0 -1 1 -1 0 0 1 -1 0c0,0 0,0 0,-1 -1,0 -1,0 -2,0l0 -1 2 0 0 -2 1 0 0 -1 2 0 0 -1 1 -1 0 -1 1 0 0 1 2 1 0 1 1 0 0 1 1 0 0 2 2 0 0 1 -2 0 0 1 -1 0 0 2 -1 0 0 1 -2 0 0 1 -1 0 0 2 -2 0 0 1 2 0 0 2 1 0 0 1 2 0 0 1 1 0c0,1 0,1 0,1 0,1 0,0 0,1l1 0 0 -2 2 0 0 -1 1 0 0 -1 1 0 0 1 2 0 0 1 1 0 1 2 0 0 1 -2 1 0 0 -1 1 0 0 -1 2 0 0 -2 1 0 0 -1 -1 0 0 -2 -2 0 0 -1 -1 0 0 -1 -1 0 0 -2 -2 0 0 -1c-1,0 0,0 -1,0l0 -1 1 0 0 -2 2 0 0 -1 1 0 0 -1 1 -1 0 -1 2 0 0 1 1 1 0 1 1 0 0 1 2 0 0 2 1 0 0 1 -1 0 0 1 -1 0c-1,0 0,0 0,-1l-2 0 0 -1 -1 0 0 -2 -1 0 -1 2 -1 0 0 1 1 0 0 1 2 0 0 2 1 0 0 1 1 0 1 2 1 -1 0 -1 1 0 0 -1 2 0 0 -2 1 0 0 -1 1 0 0 -1 -1 0 0 -2 -1 0 0 -1 -2 0 0 -2 -1 0 0 -1 -1 0 0 -1c-2,0 -1,0 -2,-1l0 -1 2 0 0 -1 1 0 0 -1 1 0 0 -2 2 0 0 -1 1 0 0 -1 1 -1 0 -1 -1 0 0 -1 -1 0 0 -2 -2 0 0 -1 -1 0c0,0 0,-1 0,-1 0,0 0,0 0,0l-1 0 -1 1 -1 0 0 1 -1 0 0 2 -2 0 0 1 -1 0 0 1 1 1c0,0 0,0 0,0 1,1 1,1 1,1l1 0 0 -1 1 -1 0 -1 2 0 0 -1 1 0 0 1 1 0 0 1 -1 0 0 2 -1 0 -1 1 -1 0 0 2 -1 0 0 1 -1 0c-1,-1 -1,0 -1,-1l-1 0 0 -2 -1 0 0 -1 -2 0 0 -2c-1,0 0,1 -1,0l0 -1 1 0 0 -1 2 0 0 -2 1 0 0 -1 1 0 0 -1 2 0 0 -2c0,0 0,0 1,0 0,0 0,0 0,0l0 -1 -1 0 0 -2 -2 0 0 -1 -1 0 0 -1 -1 0c0,0 0,-1 0,-1 0,-1 0,0 -1,-1l0 0 -1 2 -1 0 0 1 -1 0 -1 1 -1 0c0,0 0,0 0,-1l-1 0 0 -1 -2 0 0 -2 -1 0 0 2 -1 0 0 1 -2 0 0 1 -1 0z"/>
   <path class="fil0" d="M137 18l-1 0c0,0 0,0 0,-1 -1,0 -1,0 -1,0l0 -1 1 0 0 -2 1 0 0 -1 2 0 0 -1 1 0 0 -2 1 0 0 2 2 0 0 1 1 0 0 1 2 0 0 2 1 0 0 1 -1 0 0 1 -1 1c-1,-1 -1,-1 -1,-2l-1 0 0 -1 -1 0 0 -2 -2 0 0 2 -1 0 0 1 -2 0 0 1zm15 -17l-6 0 0 1 -2 0 0 1 -1 0 0 2 -1 0 -1 1 -1 0 0 -1 -1 0 0 -2 -2 0 0 -1 -1 0 0 -1 -7 0 0 1 -1 0 0 1 -2 0 0 2 -1 0 0 1 -1 0 0 1 -2 1 0 1c1,0 0,0 2,0l0 1 1 0 0 2 1 0 0 1 2 0c0,0 0,1 0,1 0,0 0,0 0,0l1 0 0 -1 2 0 0 -1 1 0 0 -2 1 0 0 -1c1,0 1,0 2,0l0 -1 -2 -1 0 -1 -1 0 0 1 -1 0 -1 2 -1 0 0 1 -1 0c0,0 0,0 0,-1l-2 0 0 -1 2 -1 0 -1 1 0 0 -1 2 0 0 -2 1 0 0 -1 1 0 0 1 2 0 0 2 1 0 0 1 1 0 0 2 2 0 0 1 -2 0 0 1 -1 0 0 2 -1 0 0 1 -2 0 0 1 -1 0 0 2 -1 0 -1 1c1,0 0,0 2,0l0 2 1 0 0 1 2 0 0 1 1 0c0,0 0,1 0,1 0,1 0,0 0,1l1 0 1 -2 1 0 0 -1 1 0 0 -1 1 0 1 1 1 0 0 1 1 0 1 2 0 0 1 -2 1 0 0 -1 1 0 0 -1 2 0 0 -2 1 0 0 -1 -1 0 0 -2 -2 0 0 -1 -1 0 0 -1 -1 0 0 -2 -2 0 0 -1c-1,0 0,0 -1,0l0 -1 1 -1 0 -1 2 0 0 -1 1 0 0 -2 1 0 0 -1 2 0 0 1 1 0 0 2 1 0 1 1 1 0 0 2 1 0 0 1 -1 0 0 1 -1 0 -1 -1 -1 0 0 -1 -1 -1 0 -1 -2 0 0 1 -1 1 0 1c0,0 0,0 1,0 0,0 0,0 0,0l0 1 2 0 0 2 1 0 0 1 1 0c0,0 0,1 0,1 1,0 1,0 1,0l1 0c0,0 0,0 0,0 0,0 0,-1 0,-1l1 0 0 -1 2 0 0 -2 1 0 0 -1 1 0 0 -1 -1 -1 0 -1 -1 0 0 -1 -2 0 0 -2 -1 0 0 -1 -1 0 -1 -1z"/>
   <path class="fil0" d="M140 353l0 -1 -1 -1 0 0c0,-1 0,-1 1,-1l0 -1 2 0 0 -1 1 -1 0 -1c-1,0 0,0 -1,0l-1 -1 -1 0c0,0 0,0 0,0 0,0 0,1 0,1l-1 0 0 1 -2 0 0 2 -1 0 0 1 -1 0 0 2 -2 0 0 1 7 0z"/>
   <path class="fil0" d="M77 207l0 1 1 0c0,2 0,2 2,2l0 -1 1 -1 0 -1c0,0 1,0 1,0 1,0 0,0 0,0l0 -1 -1 0 0 -2 -1 0c0,0 0,0 0,-1 -1,0 0,0 -1,0l-1 0 0 1 -1 0 0 2 -2 0 0 1c1,0 1,0 2,0z"/>
   <path class="fil0" d="M81 159l0 -1 1 0 0 -2 -1 0 0 -1 -1 0c0,-1 0,-1 0,-1 -1,-1 0,0 -1,-1l-1 0 0 2 -1 0 0 1 -2 0 0 2 2 0 0 1 1 0 0 1 1 0c1,0 0,0 1,0 0,0 0,-1 0,-1l1 0z"/>
   <path class="fil0" d="M77 9l0 1 1 0c0,0 0,1 0,1 0,1 0,0 0,1l1 0c1,-1 1,-1 1,-2l1 0 0 -1c1,0 1,0 1,0l0 -1 -1 -1 0 -1 -1 0 0 -1 -2 0 0 1 -1 0 0 1c-1,1 -2,0 -2,2l2 0z"/>
   <path class="fil0" d="M201 108l0 1 1 0c0,1 0,1 0,2l1 0 1 -2 1 0 0 -1 1 0 0 -1 -1 0 0 -2 -2 0 0 -1 -1 0 0 1 -1 0 0 1c0,0 -1,1 -1,1 -1,0 0,0 -1,0l0 1c1,0 0,0 1,0 0,0 1,0 1,0z"/>
   <path class="fil0" d="M206 157l0 -1 -1 0 0 -1 -2 0 0 -2 -1 0c0,1 0,0 0,1 0,0 0,1 0,1l-1 0 0 1 -2 0 0 1 2 1 0 1 1 0c0,1 0,1 0,1l1 0 1 -1 1 0 0 -1 1 -1z"/>
   <path class="fil0" d="M201 306l0 2 1 0 0 1 1 0 0 -1 2 0 0 -2c1,0 1,0 1,0l0 -1 -1 0 0 -2 -1 0 -1 -1 -1 0c0,1 0,0 0,1l-1 0 0 2c-1,0 -1,0 -1,0 -1,0 0,0 -1,0l0 1 2 0z"/>
   <path class="fil0" d="M77 306l0 2 1 0c0,1 0,1 2,1l0 -1 1 -1 0 -1 1 0 0 -1c0,0 0,0 -1,0l0 -2 -1 0 -1 -1 -1 0 0 1 -1 0 0 2 -2 0 0 1 2 0z"/>
   <path class="fil0" d="M77 58l0 2 1 0 0 1 1 0c1,0 1,0 1,-1l1 0 0 -2 1 0 0 -1 -1 0 0 -1 -1 0 0 -2 -2 0c0,1 0,1 0,2l-1 0 0 1 -2 0 0 1 2 0z"/>
   <path class="fil0" d="M206 9l0 -1 -1 -1 0 -1 -2 0 0 -1 -1 0 0 1 -1 0 0 1 -2 1 0 1c1,0 0,0 1,0 0,0 1,0 1,0l0 1 1 0c0,2 0,1 0,2l1 0 1 -2 1 0 0 -1 1 0z"/>
   <path class="fil0" d="M77 257l0 1 1 0c0,1 0,1 2,1l0 -1 1 0 0 -1 1 -1 0 -1 -1 0 0 -1 -1 0 -1 -2 -1 0 0 2 -1 0 0 1 -2 0 0 1 2 1z"/>
   <polygon class="fil0" points="201,59 201,60 202,60 202,61 203,61 204,60 205,60 205,58 206,58 206,57 205,57 205,56 203,56 203,54 202,54 202,56 201,56 201,57 199,57 199,58 "/>
   <path class="fil0" d="M201 257l0 1 1 0 0 1 1 0 0 -1 2 0 0 -1 1 -1 0 -1 -1 0 0 -1 -1 0 -1 -2 -1 0c0,1 0,0 0,2l-1 0 0 1c0,0 -1,0 -1,0 -1,0 0,0 -1,1l0 0 2 1z"/>
   <path class="fil0" d="M205 208l0 -1 1 0 0 -1 -1 0 0 -2 -1 0 -1 -1 -1 0 0 1 -1 0 0 2 -2 0 0 1c1,0 0,0 1,0 0,0 1,0 1,0l0 1 1 1 0 1 1 0 0 -2 2 0z"/>
   <path class="fil0" d="M81 109l0 -1 1 0 0 -1 -1 0 0 -2 -1 0 0 -1 -2 0 0 1 -1 0 0 2 -2 0 0 1 2 0 0 1 1 0c0,1 0,1 0,1 0,1 0,0 0,1l1 0c1,-1 1,-1 1,-2l1 0z"/>
   <polygon class="fil0" points="148,353 148,352 147,352 147,350 146,350 145,349 145,349 144,350 143,350 143,352 141,352 141,353 "/>
   <path class="fil1" d="M210 9c0,-1 0,0 0,-1l-1 -1 0 -1 -1 0 0 -1 -2 0 0 -2 -1 0 0 -1 -2 0 0 -1 4 0 1 1 1 0c0,1 0,1 0,1l1 0c0,0 0,-1 0,-2l-7 0 0 1 1 0 0 2 2 0 0 1 1 0 0 2 2 -1 -1 2 2 0 0 1z"/>
   <path class="fil0" d="M140 323l0 1 1 0 1 -1 1 0 0 -2 -1 0 0 -1 -2 0 0 1c0,0 -1,0 -1,0 0,0 0,0 0,1l0 0 1 1z"/>
   <path class="fil0" d="M140 174c0,0 0,1 0,1 0,0 0,0 0,0l2 0 0 -1 1 0 0 -1c0,0 0,0 -1,0 0,0 0,0 0,0l0 -2 -2 0c0,1 0,0 0,1 0,0 0,0 0,1l-1 0 0 1 1 0z"/>
   <path class="fil0" d="M140 25c0,1 0,1 0,1 0,1 0,1 0,1l1 0 1 -2c1,0 0,0 1,0l0 -1 -1 0 0 -1 -2 0 0 1 -1 0 0 1c0,0 0,0 1,0z"/>
   <path class="fil0" d="M118 297c0,-1 -1,-1 -1,-1 0,0 0,0 0,0 0,-1 0,-1 -1,-1l0 0 -1 1 -1 1 0 1 1 0 0 1 2 0 0 -1 1 0 0 -1c0,0 0,0 0,0z"/>
   <path class="fil0" d="M140 100c0,0 0,1 0,1 0,0 0,0 0,0l1 0c0,0 0,0 1,0 0,-1 0,-1 0,-1 0,0 0,0 0,0 1,0 1,0 1,-1l0 0c0,-1 0,-1 -1,-1 0,0 0,0 0,0 0,0 0,0 0,-1 -1,0 -1,0 -1,0l-1 0 0 1 -1 1 0 0c0,1 0,1 0,1 0,0 1,0 1,0z"/>
   <path class="fil0" d="M140 298l0 1 1 0 1 -1 1 0 0 -1c0,0 0,0 -1,-1l-1 -1 -1 0c0,0 0,0 0,1 0,0 0,0 0,0 -1,1 -1,0 -1,1l0 1 1 0z"/>
   <path class="fil0" d="M139 199c0,0 0,0 0,0 0,0 1,0 1,0 0,0 0,0 0,1 0,0 0,0 0,0l1 0 1 -1c1,0 1,0 1,-1 0,-1 0,-1 -1,-1 0,0 0,0 0,0 -1,-1 -1,-1 -1,-1l-1 0 0 1c-1,0 -1,0 -1,1l0 1z"/>
   <path class="fil0" d="M115 199l1 1 0 0c1,0 1,0 1,-1 0,0 1,0 1,0 0,0 0,0 0,0 0,-2 0,-2 -1,-2 0,-1 0,-1 -1,-1l-1 1c-1,0 -1,0 -1,1l0 1 1 0z"/>
   <path class="fil0" d="M165 298l0 1 1 0c0,0 0,0 0,-1l2 0 0 -1 -2 -1 0 -1 -1 0c0,0 0,0 0,1 0,0 0,0 0,0l-1 1 0 1 1 0z"/>
   <path class="fil0" d="M140 75l0 1 1 0 1 -1c0,0 0,0 0,0 1,0 1,0 1,0l0 -1c0,0 0,0 -1,0 0,0 0,-1 0,-1l-1 -1 -1 0 0 1c0,0 -1,1 -1,1 0,0 0,0 0,0l0 1c0,0 0,0 1,0z"/>
   <path class="fil0" d="M165 97c0,0 0,0 0,1 0,0 -1,0 -1,0 0,0 0,0 0,1l0 0 1 1 0 1 1 0c0,0 0,0 0,0 0,-1 0,-1 0,-1 2,0 1,0 2,-1l0 0 -2 -1 0 -1 -1 0z"/>
   <path class="fil0" d="M140 273l0 1 1 0 1 -1c0,0 0,0 0,0 1,0 1,0 1,0l0 -1c0,0 0,0 -1,0l-1 -2 -1 0 0 2 -1 0 0 1 1 0z"/>
   <path class="fil0" d="M165 199l0 1 1 0 0 -1c0,0 1,0 1,0 1,0 0,0 1,0l0 -1c-1,-1 0,-1 -2,-1 0,0 0,0 0,0 0,-1 0,-1 0,-1l-1 0c0,0 0,0 0,1 0,0 0,0 0,0l-1 1 -1 1 2 0z"/>
   <path class="fil0" d="M115 100c0,0 0,1 0,1 0,0 1,0 1,0l0 0 1 -1 1 -1 0 0c0,-1 0,-1 0,-1 0,0 -1,0 -1,0l-1 -1 0 0 -1 1 -1 1 0 0c0,1 0,1 1,1z"/>
   <path class="fil0" d="M140 125l0 1 1 0 1 -1 1 -1 0 -1 -1 0 -1 -1 -1 0c0,0 0,0 0,1l-1 0 0 1 1 1z"/>
   <path class="fil0" d="M140 224l0 1 1 0 1 -1 1 -1 0 -1c-1,0 0,0 -1,0l-1 -1 -1 0 0 1 -1 0 0 1 1 1z"/>
   <path class="fil2" d="M75 5c0,0 1,1 1,-2l1 0 0 -1 1 0 0 -1 -4 0 0 1 1 -1 3 0 0 1 -1 0 0 1 -2 0 0 2z"/>
   <polygon class="fil3" points="107,353 107,351 106,351 106,353 "/>
   <polygon class="fil3" points="176,353 176,352 174,351 175,353 "/>
   <path class="fil3" d="M80 353l0 -2 -2 1c0,0 0,0 0,0 0,1 0,1 0,1l2 0z"/>
   <path class="fil3" d="M203 353c0,0 0,-1 0,-1 0,-1 0,0 0,-1l-1 0 0 2 1 0z"/>
   <path class="fil3" d="M166 1l-1 0 0 1 1 0c0,0 0,0 0,-1 0,0 0,0 0,0z"/>
   <path class="fil4" d="M140 2l0 -1 1 0 0 1 -1 0zm2 -1l-2 0 0 1 2 0 0 -1z"/>
   <polygon class="fil5" points="115,1 115,2 117,2 117,1 "/>
   <polygon class="fil5" points="141,2 141,1 140,1 140,2 "/>
   <path class="fil6" d="M117 1l-2 0 0 0 2 0 0 1 -2 0c1,0 0,0 1,0 0,0 1,0 1,0l0 -1z"/>
  </g>
 </g>
</svg>
