<?xml version="1.0" encoding="UTF-8"?>
<!DOCTYPE svg PUBLIC "-//W3C//DTD SVG 1.1//EN" "http://www.w3.org/Graphics/SVG/1.1/DTD/svg11.dtd">
<!-- Creator: CorelDRAW X8 -->
<svg xmlns="http://www.w3.org/2000/svg" xml:space="preserve" width="250px" height="354px" version="1.1" style="shape-rendering:geometricPrecision; text-rendering:geometricPrecision; image-rendering:optimizeQuality; fill-rule:evenodd; clip-rule:evenodd"
viewBox="0 0 250 354"
 xmlns:xlink="http://www.w3.org/1999/xlink">
 <defs>
  <style type="text/css">
   <![CDATA[
    .fil5 {fill:#E40B03}
    .fil3 {fill:#E62728}
    .fil1 {fill:#E8CBD5}
    .fil4 {fill:#F69492}
    .fil0 {fill:#F90505}
    .fil2 {fill:#FD7271}
    .fil6 {fill:#FE827F}
   ]]>
  </style>
 </defs>
 <g id="Слой_x0020_1">
  <metadata id="CorelCorpID_0Corel-Layer"/>
  <g id="_2149397572480">
   <path class="fil0" d="M168 34l0 -2 -2 0 0 -1 -1 0 0 -1 -1 0 0 6 1 0 0 -1 1 0 0 -1 2 0zm0 49l0 -1 -2 0 0 -1 -1 -1 0 -1 -1 0 0 7 1 0 0 -1 1 -1 0 -1 2 0zm0 50l0 -1 -2 -1 0 -1 -1 0 0 -1 -1 0 0 6 1 0 0 -1 1 0 0 -1 2 0zm0 49l0 -1 -2 0 0 -1 -1 0 0 -2 -1 0 0 7 1 0 0 -1 1 0 0 -2 2 0zm0 50l0 -1 -2 -1 0 -1 -1 0 0 -1 -1 0 0 7 1 0 0 -2 1 0 0 -1 2 0zm0 49l0 -1 -2 0 0 -1 -1 0 0 -2 -1 0 0 7 1 0 0 -1 1 0 0 -2 2 0zm0 50l0 -1 -2 0 0 -2 -1 0 0 -1 -1 0 0 7 1 0 0 -2 1 0 0 -1 2 0zm11 -273l0 -1 -2 0 0 -1 -1 0 0 -2 -1 0 -1 -1 -1 0 0 -1 -1 0 0 -2 -2 0 0 2 -1 0 0 1 -1 0 0 1 -2 0 0 2 -1 0 0 1 -1 0 0 1c0,1 0,0 1,0l0 2 1 0 0 1 2 0 0 2 1 0 0 1 1 0c0,1 0,1 1,1l1 0 0 -1 1 0 0 -1 1 -1 1 -1 1 0 0 -1 1 0 0 -2 2 0zm0 50l0 -1 -2 0 0 -2 -1 0 0 -1 -1 0 -1 -1 -1 -1 0 -1 -1 0 0 -1 -2 0 0 1 -1 0 0 1 -1 1 0 1 -2 0 0 1 -1 0 0 2 -1 0 0 1c0,0 0,0 1,0l0 1 1 0 0 2 2 0 0 1 1 0 0 1 1 0c0,2 0,1 1,2l1 0 0 -2 1 0 0 -1 1 0 1 -1 1 0 0 -2 1 0 0 -1 2 0zm0 49l0 -1 -2 0 0 -1 -1 0 0 -2 -2 0 0 -1 -1 0 0 -1 -1 0 0 -2 -2 0 0 2 -1 0 0 1 -1 0 0 1 -2 0 0 2 -1 0 0 1 -1 0 0 1 1 1 0 1 1 0 0 1 2 0 0 2 1 0 0 1 1 0c0,1 0,1 1,1l1 0 0 -1 1 0 0 -1 1 0 1 -2 1 0 0 -1 1 0 0 -1 2 -1zm0 50l0 -1 -2 0 0 -2 -1 0 0 -1 -1 0 -1 -1 -1 0 0 -2 -1 0 0 -1 -1 0c-1,0 -1,0 -1,1l-1 0 0 2 -1 0 0 1 -2 0 0 1 -1 0 0 2c-1,0 -1,0 -1,0l0 1 1 0 0 1 1 0 0 2 2 0 0 1 1 0 0 1 1 1 1 1 1 0 0 -1 1 -1 0 -1 1 0 0 -1 2 0 0 -2 1 0 0 -1 2 0zm0 49l0 -1 -2 0 0 -1 -1 0 0 -1 -1 -1 -1 -1 -1 0 0 -1 -1 0 0 -2 -1 0c-1,1 -1,1 -1,2l-1 0 0 1 -1 0 0 1 -2 1 0 1 -1 0 0 1c-1,0 -1,0 -1,1l0 0 1 1 0 1 1 0 0 1 2 0 0 2 1 0 0 1 1 0 0 1 2 0 0 -1 1 0 0 -1 1 0 0 -2 2 0 0 -1 1 0 0 -1 2 -1zm0 50l0 -1 -2 0 0 -2 -1 0 0 -1 -1 0 -1 -1 -1 0 0 -2 -1 0 0 -1 -1 0 -1 1 -1 0 0 2 -1 0 0 1 -2 0 0 1 -1 0 0 2c-1,0 -1,0 -1,0l0 1 1 0 0 1 1 1 0 1 2 0 0 1 1 0 0 2 1 0 1 1 1 0 0 -1 1 0 0 -2 1 0 0 -1 2 0 0 -1 1 -1 0 -1 2 0zm0 -289l0 -4 -2 0 0 1 -1 0 0 2 -1 0 0 1 -2 0 0 1 -1 1 0 1 -1 0c0,0 0,0 -1,-1 0,0 0,0 0,0l-1 0 0 -2 -1 0 0 -1 -2 0 0 -2 -1 0 0 -1 -1 0 0 4 1 0 0 1 1 1 0 1 2 0 0 1 1 0 0 2 1 0c0,0 0,0 0,0 1,1 1,1 1,1l1 0 0 -1 1 0 0 -2 1 0 1 -1 1 0 0 -1 1 -1 0 -1 2 0zm0 8l0 -4 -2 0 0 2 -1 0 0 1 -1 0 0 1 -2 0 0 2 -1 0 0 1 -1 0 -1 -1 -1 0 0 -2 -1 0 0 -1 -2 0 0 -1 -1 0 0 -2 -1 0 0 4 1 0 0 2 1 0 0 1 2 0 0 1 1 1 0 1 1 0c0,0 0,0 0,1 1,0 1,0 1,0l1 0 0 -1 1 0 0 -1 1 -1 1 -1 1 0 0 -1 1 0 0 -2 2 0zm-2 10c0,1 0,1 1,1l1 0 0 -6 -2 0 0 1 -1 0 0 1 -1 0 0 1c0,1 0,0 0,1 0,0 1,0 1,0l0 1 1 0zm0 8c0,2 0,1 1,2l1 0 0 -4 -2 0 0 -2 -1 0 0 -1 -1 0 -1 -2 -1 0 0 -1 -1 0 0 -1 -2 0 0 1 -1 0 0 1 -1 0 0 2 -2 0 0 1 -1 0 0 1 -1 1 0 4 1 0 0 -2 1 0 0 -1 2 0 0 -1 1 -1 0 -1 1 0 0 -1 2 0c0,0 0,0 0,1l1 0 0 2 2 0 0 1 1 0 0 1 1 0zm0 9c0,1 0,0 1,1l1 0c0,-5 0,-4 -2,-4l0 -2 -1 0 0 -1 -1 0 -1 -1 -1 0 0 -2 -1 0 0 -1 -2 0 0 1 -1 0 0 2 -1 0 0 1 -2 0 0 1 -1 0 0 2 -1 0 0 4 1 0 0 -1 1 -1 0 -1 2 0 0 -1 1 0 0 -2 1 0 0 -1 2 0c0,1 0,0 0,1l1 0 0 2 1 0 1 1 1 0 0 2 1 0zm2 15l0 -4 -2 0 0 1 -1 0 0 1 -1 0 0 2 -2 0 0 1 -1 0c0,1 0,1 -1,1 0,0 0,0 -1,0 0,0 0,-1 0,-1l-1 0 0 -1 -1 0 0 -2 -2 0 0 -1 -1 0 0 -1 -1 0 0 4 1 0 0 1 1 0 0 1 2 0 0 2 1 0 0 1 1 0 1 2 1 0 0 -2 1 0 0 -1 1 0 1 -2 1 0 0 -1 1 0 0 -1 2 0zm0 8l0 -4 -2 0 0 1 -1 0 0 2 -1 0 0 1 -2 0 0 1 -1 0 0 2 -1 0c-1,-1 0,0 -1,-1 0,0 0,-1 0,-1l-1 0 0 -1 -1 0 0 -1 -2 0 0 -2 -1 0 0 -1 -1 0 0 4 1 0 0 1 1 0 0 2 2 0 0 1 1 0 0 1 1 0 1 2 1 0 0 -2 1 0 0 -1 1 0 1 -1 1 0 0 -2 1 0 0 -1 2 0zm-2 10c0,1 0,0 1,1l1 0 0 -7 -2 0 0 1 -1 0 0 2 -1 0 0 1c0,0 0,0 1,0l0 2 1 0zm0 9c0,0 0,0 1,0l1 0 0 -4 -2 0 0 -1 -1 0 0 -2 -2 0 0 -1 -1 0 0 -1 -1 0 0 -2 -2 0 0 2 -1 0 0 1 -1 0 0 1 -2 0 0 2 -1 0 0 1 -1 0 0 4 1 0 0 -1 1 0 0 -2 2 0 0 -1 1 0 0 -1 1 0 0 -2 2 0c0,1 0,1 0,2l1 0 0 1 2 0 0 1 1 0 0 2 1 0c0,0 0,0 0,1zm0 7c0,1 0,1 1,1l1 0 0 -4 -2 0 0 -1 -1 0 0 -1 -1 0 -1 -2 -1 0 0 -1 -1 0 0 -2 -2 1 0 1 -1 0 0 1 -1 0 0 2 -2 0 0 1 -1 0 0 1 -1 1 0 3 1 0 0 -1 1 0 0 -1 2 0 0 -2 1 0 0 -1 1 0 0 -1 2 0 0 1 1 0 0 1 2 0 0 2 1 0 0 1 1 0zm2 15l0 -4 -2 0 0 1 -1 1 0 1 -1 0 0 1 -2 0 0 2 -1 0 0 1 -1 0c-1,0 0,0 -1,-1 0,0 0,0 0,0l-1 0 0 -2 -1 0 0 -1 -2 0 0 -1 -1 0 0 -2 -1 0 0 4c0,0 0,0 1,0l0 2 1 0 0 1 2 0 0 1 1 0 0 2 1 0c0,1 0,0 1,1l1 0 0 -1 1 0 0 -2 1 0 1 -1 1 0 0 -1 1 0 0 -2 2 0zm0 8l0 -4 -2 0 0 2 -1 0 0 1 -1 0 0 1 -2 1 0 1 -1 0 0 1 -1 0c-1,0 -1,0 -1,-1l-1 0 0 -1 -1 0 0 -2 -2 0 0 -1 -1 0 0 -2 -1 0 0 4c0,1 0,0 1,0l0 2 1 0 0 1 2 0 0 2 1 0 0 1 1 0c0,1 0,1 1,1l1 0 0 -1 1 0 0 -1 1 0 1 -2 1 0 0 -1 1 0 0 -2 2 0zm-2 10c0,1 0,1 1,1l1 0 0 -6 -2 0 0 1 -1 0 0 1 -1 1 0 0c0,1 0,1 1,1l0 1 1 0zm0 8c0,1 0,1 1,2l1 0 0 -4 -2 0 0 -2 -1 0 0 -1 -1 0 -1 -1 -1 0 0 -2 -1 0 0 -1 -2 0 0 1 -1 0 0 1 -1 1 0 1 -2 0 0 1 -1 0 0 2 -1 0 0 4 1 0 0 -2 1 0 0 -1 2 0 0 -1 1 0 0 -2 1 0 0 -1 2 0 0 1 1 0 0 2 2 0 0 1 1 0 0 1 1 0zm0 9c0,1 0,1 1,1l1 0 0 -4 -2 0 0 -1 -1 0 0 -2 -1 0 -1 -1 -1 0 0 -2 -1 0 0 -1 -2 0 0 1 -1 0 0 2 -1 0 0 1 -2 0 0 1 -1 1 0 1 -1 0 0 4 1 0 0 -1 1 0 0 -2 2 0 0 -1 1 0 0 -1 1 -1c0,0 0,0 0,0 1,-1 0,-1 1,-1l1 0 0 1 1 0 0 2 2 0 0 1 1 0 0 2 1 0zm2 15l0 -4 -2 0 0 1 -1 0 0 1 -1 0 0 2 -2 0 0 1 -1 0 0 2 -1 0c-1,-1 0,0 -1,-1 0,0 0,-1 0,-1l-1 0 0 -1 -1 0 0 -2 -2 0 0 -1 -1 0 0 -1 -1 0 0 3c0,1 0,1 1,1l0 1 1 0 0 1 2 1 0 1 1 0 0 1 1 0c0,1 0,1 1,2l1 0 0 -2 1 0 0 -1 1 0 0 -1 2 -1 0 -1 1 0 0 -1 2 0zm0 8l0 -4 -2 0 0 1 -1 0 0 2 -1 0 0 1 -2 0 0 1 -1 0 0 2 -1 0c-1,-1 -1,0 -1,-2l-1 0 0 -1 -1 0 0 -1 -2 0 0 -2 -1 0 0 -1 -1 0 0 4 1 0 0 1 1 0 0 2 2 0 0 1 1 0 0 1 1 1 0 1 2 0 0 -1 1 -1 0 -1 1 0 0 -1 2 0 0 -2 1 0 0 -1 2 0zm-3 8l0 2 1 0 0 1 2 0 0 -7 -1 0c-1,1 -1,0 -1,2l-1 0 0 1c-1,0 -1,0 -1,0l0 1 1 0zm0 9l0 1 1 0 0 1 2 0 0 -4 -2 0 0 -1 -1 0 0 -2 -1 0 -1 -1 -1 0 0 -1 -1 0 0 -2 -1 0c-1,1 -1,1 -1,2l-1 0 0 1 -1 0 0 1 -2 0 0 2 -1 0 0 1c-1,0 -1,0 -1,0l0 4 1 0 0 -1 1 0 0 -1 2 -1 0 -1 1 0 0 -1 1 0c0,0 0,-1 0,-1 1,-1 0,0 1,-1l1 0 0 2 1 0 0 1 2 0 0 1 1 1zm0 8l0 1 1 0 0 2 2 -1 0 -3 -2 -1 0 -1 -1 0 0 -1 -1 0 -1 -2 -1 0 0 -1 -1 0 0 -1 -1 0c-1,0 -1,0 -1,1l-1 0 0 1 -1 0 0 2 -2 0 0 1 -1 0 0 1c-1,0 -1,0 -1,1l0 3 1 1 0 -2 1 0 0 -1 2 0 0 -2 1 0 0 -1 1 0c0,-1 0,-1 1,-1l1 0c0,0 0,-1 0,0 0,0 0,1 0,1l1 0 0 1 2 0 0 2 1 0zm3 16l0 -4 -1 0c-1,1 -1,0 -1,2l-1 0 0 1 -1 0 0 1 -2 0 0 2 -1 0c0,1 0,1 -1,1 -1,0 0,0 -1,0 0,-1 0,-1 0,-1l-1 0 0 -2 -1 0 0 -1 -2 0 0 -1 -1 0 0 -2 -1 0 0 4 1 0 0 2 1 0 0 1 2 0 0 1 1 0 0 2 1 0 0 1 2 0 0 -1 1 0 0 -2 1 0 0 -1 2 0 0 -1 1 0 0 -2 2 0zm0 9l0 -5 -1 0 -1 2 -1 0 0 1 -1 0 0 2 -2 0 0 1 -1 0c0,1 0,1 0,1l-2 0 0 -1 -1 0 0 -1 -1 0 0 -2 -2 0 0 -1 -1 0 0 -2 -1 1 0 3 1 1 0 1 1 0 0 1 2 0 0 2 1 0 0 1 1 0 1 1 1 0 0 -1 1 0 0 -1 1 0 1 -2 1 0 0 -1 1 0 0 -1 2 0zm-3 8l0 1 1 0 0 2 2 0 0 -7 -1 0c-1,0 -1,0 -1,1l-1 0 0 1c-1,0 -1,0 -1,1l0 1 1 0zm0 8l0 1 1 0 0 2 2 0 0 -4 -2 0 0 -2 -1 0 0 -1 -1 0 -1 -1 -1 0 0 -2 -1 0 0 -1 -1 0c-1,1 -1,0 -1,1l-1 0 0 2 -1 0 0 1 -2 0 0 1 -1 0 0 2 -1 0 0 4 1 0 0 -2 1 0 0 -1 2 0 0 -1 1 0 0 -2 1 0c0,-1 0,-1 1,-1l1 0 0 1 1 0 0 2 2 0 0 1 1 0zm0 8l0 2 1 0 0 1 2 0 0 -4 -2 0 0 -1 -1 0 0 -2 -1 0 -1 -1 -1 0 0 -1 -1 -1 0 -1 -1 0c-1,1 -1,0 -1,1l-1 1 0 1 -1 0 0 1 -2 0 0 2 -1 0 0 1 -1 0 0 4 1 0 0 -1 1 0 0 -2 2 0 0 -1 1 0 0 -1 1 0c0,-2 0,-1 1,-2l1 0 0 2 1 0 0 1 2 0 0 1 1 0zm3 17l0 -4 -1 0 -1 1 -1 0 0 1 -1 1 0 1 -2 0 0 1 -1 0c0,1 0,1 0,2l-2 0 0 -2 -1 0 0 -1 -1 0 0 -1 -2 0 0 -2 -1 0 0 -1 -1 0 0 4 1 0 0 1 1 0 0 2 2 0 0 1 1 0 0 1 1 0 1 2 1 0 0 -2 1 0 0 -1 1 0 0 -1 2 0 0 -2 1 0 0 -1 2 0zm0 8l0 -4 -1 0c-1,1 -1,0 -1,1l-1 0 0 2 -1 0 0 1 -2 0 0 1 -1 1c0,0 0,0 0,1l-2 0 0 -1 -1 0 0 -2 -1 0 0 -1 -2 0 0 -2 -1 0 0 -1 -1 0 0 4 1 0 0 1 1 1 0 1 2 0 0 1 1 0 0 2 1 0 1 1 1 0 0 -1 1 0 0 -2 1 0 0 -1 2 0 0 -2 1 0 0 -1 2 0zm-3 8l0 2 1 0 0 1 2 0 0 -7 -1 0 -1 2 -1 0 0 1c-1,0 -1,0 -1,0l0 1 1 0zm0 9l0 1 1 0 0 1 2 0 0 -4 -2 0 0 -1 -1 0 0 -1 -1 -1 -1 -1 -1 0 0 -1 -1 0 0 -2 -1 0c0,1 0,1 -1,1 0,0 0,1 0,1l-1 0 0 1 -1 0 0 1 -2 1 0 1 -1 0 0 1 -1 0 0 4 1 0 0 -1 1 0 0 -1 2 0 0 -2 1 0 0 -1 1 0c0,0 0,-1 0,-1 1,0 1,0 1,-1l1 1 0 1 1 0 0 1 2 0 0 2 1 0zm0 8l0 1 1 0 0 2 2 0 0 -4 -2 0 0 -2 -1 0 0 -1 -1 0 -1 -2 -1 0 0 -1 -1 0 0 -1 -1 0 -1 1 -1 0 0 1 -1 0 0 2 -2 0 0 1 -1 0 0 1 -1 1 0 4 1 0 0 -2 1 0 0 -1 2 0 0 -1 1 -1 0 -1 1 0c0,0 0,-1 0,-1 1,0 1,0 1,0l1 0 0 1 1 0 0 1 2 1 0 1 1 0zm3 16l0 -4 -1 0 -1 2 -1 0 0 1 -1 0 0 1 -2 0 0 2 -1 0c0,1 0,1 0,1l-2 0 0 -1 -1 0 0 -2 -1 0 0 -1 -2 0 0 -1 -1 0 0 -2 -1 0 0 4 1 0 0 2 1 0 0 1 2 0 0 1 1 1 0 1 1 0 1 1 1 0 0 -1 1 0 0 -1 1 -1 1 -1 1 0 0 -1 1 0 0 -2 2 0zm0 9l0 -4 -1 0 -1 1 -1 0 0 1 -1 0 0 2 -2 0 0 1 -1 0c0,1 0,1 -2,1l0 -1 -1 0 0 -1 -1 0 0 -2 -2 0 0 -1 -1 0 0 -1 -1 0 0 4 1 0 0 1 1 0 0 1 2 0 0 2 1 0 0 1 1 0 1 2 1 -1 0 -1 1 0 0 -1 1 0 0 -2 2 0 0 -1 1 0 0 -1 2 0zm-3 8l0 1 1 0 0 2 2 0 0 -7 -1 0 -1 1 -1 0 0 2c-1,0 -1,0 -1,0l0 1 1 0zm0 8l0 2 1 0 0 1 2 0 0 -4 -2 0 0 -2 -1 0 0 -1 -1 0 -1 -1 -1 0 0 -2 -1 0 0 -1 -1 0 -1 1 -1 0 0 2 -1 0 0 1 -2 0 0 1 -1 0 0 2 -1 0 0 4 1 0 0 -1 1 -1 0 -1 2 0 0 -1 1 0 0 -2 1 0 1 -1 1 0 0 1 1 0 0 2 2 0 0 1 1 0zm0 8l0 2 1 0 0 1 2 0 0 -4 -2 0 0 -1 -1 0 0 -2 -1 0 -1 -1 -1 0 0 -1 -1 0 0 -2 -1 0 -1 2 -1 0 0 1 -1 0 0 1 -2 0 0 2 -1 0 0 1 -1 0 0 4 1 0 0 -1 1 0 0 -2 2 0 0 -1 1 0 0 -1 1 0c0,0 0,-1 0,-1 1,-1 1,0 1,-1l1 0 0 2 1 0 0 1 2 0 0 1 1 0zm7 -324l0 -2 -2 0 0 -1 -1 0 0 4 1 0 0 -1 2 0zm0 61l0 -1 -2 0 0 -1 -1 0 0 4 1 0 0 -1 2 -1zm0 62l0 -1 -2 0 0 -1 -1 0 0 4 1 0 0 -1 2 -1zm0 62l0 -1 -2 0 0 -1 -1 0 0 4 1 0 0 -2 2 0zm0 62l0 -1 -2 0 0 -1 -1 0 0 4 1 0 0 -2 2 0zm0 62l0 -1 -2 0 0 -1 -1 0 0 4 1 0 0 -2 2 0zm8 -309l0 -2 -1 0 0 -1 -2 0 0 -1 -1 0 0 -2 -1 0 -1 -1 -1 0 0 -2 -1 0 0 -1 -2 0 0 -1 -1 0 0 4 1 0 0 1 2 0 0 1 1 0 0 2 2 0 0 1c0,0 0,0 1,0l0 2 -1 0 0 1 -2 0 0 1 -1 0 0 2 -2 0 0 1 -1 0 0 4 1 0 0 -1 2 0 0 -1 1 -1 0 -1 1 0 1 -1 1 0 0 -2 1 0 0 -1 2 0 0 -1 1 0zm0 61l0 -1 -1 0 0 -1 -2 0 0 -1 -1 -1 0 -1 -1 0 -1 -1 -1 0 0 -2 -1 0 0 -1 -2 0 0 -1 -1 0 0 4 1 0 0 1 2 0 0 1 1 0 0 2 2 0 0 1 1 0 0 2 -1 0 0 1 -2 0 0 1 -1 0 0 2 -2 0 0 1 -1 0 0 4 1 0 0 -1 2 0 0 -2 1 0 0 -1 1 0 1 -1 1 0 0 -2 1 0 0 -1 2 0 0 -1 1 -1zm0 62l0 -1 -1 0 0 -1 -2 0 0 -2 -1 0 0 -1 -1 0 -1 -1 -1 0 0 -2 -1 0 0 -1 -2 0 0 -1 -1 0 0 3c1,1 0,1 1,1l0 1 2 0 0 1 1 0 0 2 2 0 0 1 1 0 0 1 -1 1 0 1 -2 0 0 1 -1 0 0 2 -2 0 0 1 -1 0 0 4 1 0 0 -1 2 0 0 -2 1 0 0 -1 1 0 1 -1 1 0 0 -2 1 0 0 -1 2 0 0 -2 1 0zm0 62l0 -1 -1 0 0 -1 -2 0 0 -2 -1 0 0 -1 -1 0 -1 -1 -1 0 0 -2 -1 0 0 -1 -2 0 0 -2 -1 0 0 4 1 1 1 1 1 0 0 1 1 0 0 2 2 0 0 1 1 0 0 1 -1 0 0 2 -2 0 0 1 -1 0 0 2 -2 0 0 1c-1,0 0,0 -1,0l0 4 1 0 0 -1 2 0 0 -2 1 0 0 -1 1 0 0 -1 2 -1 0 -1 1 0 0 -1 2 0 0 -2 1 0zm0 62l0 -1 -1 0 0 -1 -2 0 0 -2 -1 0 0 -1 -1 0 -1 -1 -1 0 0 -2 -1 0 0 -1 -2 0 0 -2 -1 0c0,5 0,4 1,5l0 1 2 0 0 1 1 0 0 2 2 0 0 1 1 0 0 1c-1,0 0,0 -1,0l0 2 -2 0 0 1 -1 0 0 1 -2 1 0 1 -1 0 0 4 1 0 0 -1 2 0 0 -2 1 0 0 -1 1 0 1 -2 1 0 0 -1 1 0 0 -1 2 0 0 -2 1 0zm0 62l0 -1 -1 0 0 -1 -2 0 0 -2 -1 0 0 -1 -1 0 -1 -2 -1 0 0 -1 -1 0 0 -1 -2 0 0 -2 -1 0 0 4 1 0 1 2 1 0 0 1 1 0 0 1 2 1 0 1 1 0 0 1 -1 0 0 2 -2 0 0 1 -1 0 0 1 -2 0 0 2 -1 0 0 4 1 0 0 -1 2 -1 0 -1 1 0 0 -1 1 0 1 -2 1 0 0 -1 1 0 0 -1 2 0 0 -2 1 0zm6 -311l-2 0 0 1c0,0 0,0 1,1 0,0 0,0 1,0 0,1 0,1 0,1l1 0 0 -1 1 0 0 -2 -1 0 0 -1 -1 0 0 1zm2 63l0 -1 -1 0 0 -1 -1 0 0 1 -2 0 0 1 2 1c0,1 0,0 0,1l1 0 0 -1 1 -1zm0 62l0 -1 -1 0 0 -1 -1 0 0 1 -2 0 0 1c1,1 1,0 2,1l0 1 1 0 0 -2 1 0zm-1 61l0 -1 -1 0c0,0 0,0 0,1 -1,0 -1,0 -2,0l0 1 2 0 0 2 1 0 0 -2 1 0 0 -1 -1 0zm0 61l-1 0c0,0 0,0 0,0 0,0 0,1 0,1l-2 0 0 1 2 0 0 2 1 0 0 -2 1 0 0 -1 -1 0 0 -1zm0 62l-1 0 0 1c-1,0 -1,0 -1,0 -1,0 -1,0 -1,0l0 1 2 0 0 2 1 0 0 -2 1 0 0 -1 -1 0 0 -1zm10 -307l0 -2 -2 0 0 -1 -1 0 0 1 -2 0 0 1 2 1c0,1 0,1 0,1l1 0 0 -1 2 0zm0 61l-1 -1 -1 0 0 -1 -1 0 0 1 -2 0 0 1 2 1c0,1 0,1 0,1l1 0 0 -1 2 -1zm0 62l-1 -1 -1 0 0 -1 -1 0 0 1 -2 0 0 1c1,1 1,0 2,1l0 1 1 0 0 -1 2 -1zm-2 61l0 -1 -1 0c0,0 0,0 0,1 -1,0 -1,0 -2,0l0 1 2 0 0 2 1 0 0 -2 2 0 -1 -1 -1 0zm-1 61c0,0 0,1 0,1 0,0 -1,0 -1,0 0,0 0,0 -1,0l0 1 2 0 0 2 1 0 0 -2 2 0 -1 -1 -1 0 0 -1 -1 0c0,0 0,0 0,0zm0 62c0,0 0,0 0,0 0,0 0,1 0,1 -1,0 -1,0 -2,0l0 1 2 0 0 2 1 0 0 -2 2 0 0 -1 -2 0 0 -1 -1 0zm-25 23l-4 0 0 -1 -1 0 -1 -2 -1 0 0 -1 -1 0 0 -2 -1 0c0,1 0,1 -1,1 0,0 0,1 0,1l-1 0 0 1 -1 0 0 2 -2 0 0 1 -4 0 0 -352 1 0 1 2 1 0 0 -1 1 0 0 -1 4 0 0 1 -1 0 0 1 -1 0 0 2 -2 0 0 1 -1 0 0 1 -1 1 0 1 1 0 0 1 1 0 0 2 2 0 0 1 1 0 0 1 1 0 1 2 1 0 0 -2 1 0 0 -1 1 0 1 -1 1 0 0 -2 1 0 0 -1 2 0 0 -1 -2 0 0 -2 -1 0 0 -1 -1 0 0 -2 -2 0 0 -1 -1 0 0 -1 3 0 1 1 1 0c0,0 0,1 0,1 0,0 0,0 1,0l1 0 0 -2 1 0 0 6 1 1 0 1 2 0 0 1 1 0 0 2 2 0 0 1 1 0 0 1 1 0 0 2 2 0 0 1 1 0 0 1 1 1 1 1 1 0 0 -1 1 -1 0 -1 2 0 0 -1 1 0 0 -2 1 0 0 -1 -1 0 0 -1 -1 0 0 1 -2 0 0 1 -1 0 0 2 -1 0c0,-1 0,0 -1,-1 0,0 0,0 0,-1l-1 0 0 -1 1 0 0 -1 2 0 0 -2 1 0 0 -1 2 0 0 -2 1 0 0 2 1 0 0 1 2 0 0 2 1 0 0 1 1 0 0 1 -1 0 0 2 -1 0 0 1 -2 0 0 1c1,0 0,0 1,0 0,1 0,1 1,1 0,0 0,0 0,0 0,1 0,1 0,1l1 0 0 -1 1 -1 0 -1 2 0 0 -1 1 0 0 1 2 0 0 1 1 1 0 1 1 0 0 1 2 0 0 2 -2 0 0 1 -1 0 0 1 -1 0 0 2 -2 0 0 1 -1 0 0 -1 -2 0 0 -2 -1 0 0 -1 -1 0 0 1 -2 1 0 0c1,1 0,1 1,1 0,0 0,0 1,0l0 1 1 0 0 1c1,1 1,0 1,1l0 1 -1 0 0 1 -1 0 0 2 -2 0 0 1 -1 0 0 1 -1 0c0,0 0,0 0,0 0,0 -1,-1 -1,-1l-1 0 0 -1 -1 0 0 -2 -2 0 0 -1 -1 0 0 -1 1 -1 0 -1 2 0 0 1 1 1 0 1 2 0c0,0 0,0 0,1 0,0 0,0 0,0l1 0 0 -1 1 0 0 -1 -1 0 0 -2 -1 0 -1 -1 -1 0 0 -2 -1 0 0 -1 -2 0 0 1 -1 0 0 2 -1 0 0 1 -2 0 0 1 -1 1 0 1 -1 0 0 1 -2 0 0 2 -1 0 0 1 -2 0 0 1 -1 1 0 32 1 0 0 2 2 0 0 1 1 0 0 2 2 0 0 1 1 0 0 1 1 0 0 2 2 0 0 1 1 0 0 1 1 0c0,1 0,1 0,1 1,1 1,0 1,1l1 0 0 -2 1 0 0 -1 1 0 1 -1 1 0 0 -2 1 0 0 -1 -1 0 0 -1 -1 0 0 1 -2 0 0 1 -1 0 0 2 -1 0 -1 -2c0,0 0,0 0,0 -1,0 -1,0 -1,0l0 -1 1 0 0 -1 2 -1 0 -1 1 0 0 -1 1 0 1 -2 1 0 0 2 1 0 0 1 2 0 0 2 1 0 0 1 1 0 0 1 -1 0 0 2 -1 0 0 1 -2 0 0 1c1,1 1,0 2,0l0 2 1 0 0 -2 1 0 0 -1 2 0 0 -1 1 0 0 1 2 0 0 1 1 0 0 2 1 0 0 1 2 0 0 2 -2 0 0 1 -1 0 0 1 -1 0 0 2 -2 0 0 1 -1 0 0 -1 -2 0 0 -2 -1 0 0 -1 -1 0 0 1 -2 1 0 0c1,1 0,0 1,1 0,0 0,0 1,0l0 1 1 0 0 1 1 0 0 2 -1 0 0 1 -1 0 0 2 -2 0 0 1 -1 0 0 1 -1 0 -1 -1 -1 0 0 -1 -1 0 0 -2 -2 0 0 -1 -1 0 0 -1 1 -1 0 -1 2 0c0,1 0,0 0,1l1 0 0 2 2 0 0 1 1 0 0 -1 1 0 0 -1 -1 -1 0 -1 -1 0 -1 -1 -1 0 0 -2 -1 0 0 -1 -2 0 0 1 -1 0 0 2 -1 0 0 1 -2 0 0 1 -1 1 0 1 -1 0 0 1 -2 0 0 2 -1 0 0 1 -2 0 0 1 -1 1 0 32c1,0 0,0 1,0l0 2 2 0 0 1 1 0 0 1 2 0 0 2 1 0 0 1 1 0 0 2 2 0 0 1 1 0 0 1 1 0c0,1 0,1 1,2l1 0 0 -2 1 0 0 -1 1 0 1 -1 1 0 0 -2 1 0 0 -1 -1 0 0 -1 -1 0 0 1 -2 0 0 1 -1 0 0 2 -1 0 -1 -2 -1 0 0 -1c0,0 0,0 1,0 0,0 0,0 0,0l0 -2 2 0 0 -1 1 0 0 -1 1 0 1 -2 1 0 0 2 1 0 0 1 2 0 0 1 1 1 0 1 1 0 0 1 -1 0 0 2 -1 0 0 1 -2 0 0 1c1,0 1,0 2,0l0 2 1 0 0 -2 1 0 0 -1 2 0 0 -1 1 0 0 1 2 0 0 1 1 0 0 2 1 0 0 1 2 0 0 1 -2 1 0 1 -1 0 0 1 -1 0 0 2 -2 0 0 1 -1 0 0 -1 -2 0 0 -2 -1 0 0 -1 -1 0 0 1c-1,0 -1,0 -2,1l0 0c1,1 1,1 2,1l0 1 1 0 0 1 1 0 0 2 -1 0 0 1 -1 0 0 2 -2 0 0 1 -1 0 0 1 -1 0c0,0 0,0 0,0 0,0 -1,-1 -1,-1l-1 0 0 -1 -1 0 0 -2 -2 0 0 -1 -1 0 0 -1 1 -1 1 -1 1 0 0 1 1 0 0 2 2 0 0 1 1 0 0 -1 1 0 0 -2 -1 0 0 -1 -1 0 -1 -1 -1 0 0 -2 -1 0 0 -1 -2 0 0 1 -1 0 0 2 -1 0 0 1 -2 0 0 1 -1 0 0 2 -1 0 0 1 -2 0 0 2 -1 0 0 1 -2 0 0 1c-1,0 0,0 -1,1l0 32 1 0 0 2 2 0 0 1 1 0 0 1 2 0 0 2 1 0 0 1 1 0 0 1 2 1 0 1 1 0 0 1 1 0 0 2 2 0 0 -2 1 0 0 -1 1 0 1 -1 1 -1 0 -1 1 0 0 -1 -1 0 0 -2 -1 0 0 2 -2 0 0 1 -1 0 0 2 -1 0c-1,-1 0,0 -1,-1 0,0 0,-1 0,-1l-1 0 0 -1 1 0 0 -2 2 0 0 -1 1 0 0 -1 1 0 1 -2 1 0 0 2 1 0 0 1 2 0 0 1 1 0 0 2 1 0 0 1 -1 0 0 2 -1 0 0 1c-1,0 -1,0 -2,0l0 1 2 0 0 2 1 0 0 -2 1 0 0 -1 2 0 0 -1c1,0 1,-1 1,1l2 0 0 1 1 0 0 2 1 0 0 1 2 0 0 1 -2 0 0 2 -1 0 0 1 -1 0 0 2 -2 0 0 1 -1 0 0 -1 -2 0 0 -2 -1 0 0 -1 -1 0 0 1c-1,0 -1,0 -2,0l0 1 2 1 0 1 1 0 0 1 1 0 0 1c0,1 0,1 -1,1l0 1 -1 0 0 1 -2 0 0 2 -1 0 0 1 -1 0 -1 -1 -1 0 0 -1 -1 -1 0 -1 -2 0 0 -1 -1 -1 0 -1 1 0 0 -1 2 0 0 1 1 0 0 2 2 0 0 1 1 0 0 -1 1 0 0 -2 -1 0 0 -1 -1 0 -1 -1 -1 0 0 -2 -1 0 0 -1 -1 0c-1,1 -1,0 -1,1l-1 0 0 2 -1 0 0 1 -2 0 0 1 -1 0 0 2 -1 0 0 1 -2 0 0 1 -1 1 0 1 -2 0 0 1c-1,0 0,0 -1,0l0 33 1 0 1 2 1 0 0 1 1 0 0 1 2 0 0 2 1 0 0 1 1 0 0 1 2 1 0 1 1 0 0 1 1 0 1 2 1 0 0 -2 1 0 0 -1 1 0 1 -2 1 0 0 -1 1 0 0 -1 -1 0 0 -2 -1 0 0 2 -2 0 0 1 -1 0c0,1 0,1 0,1l-2 0 0 -1 -1 0 0 -1 1 0 0 -2 2 0 0 -1 1 0 0 -1 1 -1c0,0 1,0 1,0 0,-1 0,0 0,-1l1 0 0 2 1 0 0 1 2 0 0 1 1 0 0 2 1 0 0 1 -1 0 0 1 -1 1 0 1c-1,0 -1,0 -1,0 -1,0 0,0 -1,0l0 1 2 0 0 2 1 0 0 -2 1 0 0 -1 2 0 0 -2c1,0 1,0 1,2l2 0 0 1 1 0 0 2 1 0 0 1 2 0 0 1 -2 0 0 2 -1 0 0 1 -1 0 0 1 -2 1 0 1 -1 0 0 -1 -2 0 0 -2 -1 0 0 -1 -1 0 0 1 -2 0 0 1 2 1 0 1 1 0 0 1 1 0 0 2 -1 0 0 1 -1 0 0 1 -2 0 0 2 -1 0 0 1 -1 0 -1 -1 -1 0 0 -2 -1 0 0 -1 -2 0 0 -1 -1 -1 0 0 1 -1 1 -1 1 0 0 1 1 0 0 2 2 0 0 1 1 0 0 -1 1 -1 0 -1 -1 0 0 -1 -1 0 -1 -1 -1 0 0 -2 -1 0 0 -1 -1 0 -1 1 -1 0 0 1 -1 1 0 1 -2 0 0 1 -1 0 0 2 -1 0 0 1 -2 0 0 1 -1 0 0 2 -2 0 0 1 -1 0 0 33 1 0 1 1 1 1 0 1 1 0 0 1 2 0 0 2 1 0 0 1 1 0 0 1 2 0 0 2 1 0 0 1 1 0 1 2 1 -1 0 -1 1 0 0 -1 1 0 1 -2 1 0 0 -1 1 0 0 -1 -1 0 0 -2 -1 0 0 2 -2 0 0 1 -1 0 0 1 -2 0 0 -1 -1 0 0 -1 1 0 0 -2 2 0 0 -1 1 0 0 -1 1 -1 1 -1 1 0 0 1 1 1 0 1 2 0 0 1 1 0 0 2 1 0 0 1 -1 0 0 1 -1 0 0 2 -2 0 0 1 2 0 0 2 1 -1 0 -1 1 0 0 -1 2 0 0 -2 1 0 0 2 2 0 0 1 1 0 0 1 1 1 0 1 2 0 0 1 -2 0 0 2 -1 0 0 1 -1 0 0 1 -2 0 0 2 -1 0 0 -1 -2 -1 0 -1 -1 0 0 -1 -1 0c0,0 0,0 0,0 0,0 0,1 0,1l-2 0 0 1 2 0 0 2 1 0 0 1 1 0 0 1 -1 1 0 1 -1 0 0 1 -2 0 0 2 -1 0 0 1 -1 0 0 -1 -2 0 0 -2 -1 0 0 -1 -2 0 0 -1 -1 -1 0 0 1 -1 0 -1 2 0 0 1 1 0 0 2 2 0 0 1 1 0 0 -1 1 -1 0 -1 -1 0 0 -1 -1 0 0 -1 -2 -1 0 -1 -1 0 0 -1 -1 0 -1 1 -1 0 0 1 -1 0 0 2 -2 0 0 1 -1 0 0 2 -1 0 0 1 -2 0 0 1 -1 0 0 2 -2 0 0 1 -1 0 0 7z"/>
   <path class="fil0" d="M129 52l1 0 1 -2 1 0 0 -1 -2 0 0 -2 -1 0 0 2 -1 0 0 1c0,0 0,0 1,0 0,1 0,1 0,2zm0 99l1 0 1 -2c0,0 0,0 1,0l0 -1 -2 0c0,-1 1,-1 0,-1l-1 0c0,0 0,0 0,1 -1,0 -1,0 -1,0l0 1c0,0 0,0 1,0 0,1 0,1 0,2zm1 99l1 -2 1 0 0 -1 -1 0 -1 -1 -1 0c0,0 0,0 0,1 -1,0 -1,0 -1,0l0 1 1 0 0 2 1 0zm0 99l0 -2 2 0 0 -1 -1 0c-1,-1 0,-1 -1,-1l-1 0c0,0 0,0 0,1l-1 0 0 1 1 0 0 2 1 0zm3 -297l0 1 -1 0 0 1 -1 0 -1 2 -1 0 0 -2 -1 0 0 -1 -2 0 0 -1 -1 0 0 -2 -1 0 0 -1 1 0 0 -2 1 0 0 -1 2 0 0 -1 1 0 0 -2 1 0 1 2 1 0 0 1 1 0 0 1 2 0c0,1 0,1 0,2l1 0 0 -2 1 0 0 -1 -1 0 0 -1 -1 0 0 -2 -2 0 0 -1 -1 0 0 -1 -2 0 0 -2 -1 0 0 2 -1 0 0 1 -2 0 0 1 -1 0 0 2 -1 0 0 1 -2 0 0 1 -1 0 0 2 -1 0 0 1 1 0 0 1 1 1 0 1 2 0 0 1 1 0 0 2 1 0 0 1 2 0 0 1 1 0c0,1 0,1 0,2l1 0c1,-1 0,-1 0,-2l2 0 0 -1 1 0 0 -1 2 0 0 -2 1 0 0 -1 1 0 0 -1 -1 0 0 -2 -1 0 0 2 -2 0zm0 99l0 1 -1 0 0 1 -1 0 -1 2 -1 0 0 -2 -1 0 0 -1 -2 0 0 -1 -1 0 0 -2c0,0 -1,0 -1,0 0,0 0,0 0,0l0 -1 1 0 0 -1 1 -1 0 -1 2 0 0 -1 1 0 0 -2 1 0c1,1 0,0 1,2l1 0 0 1 1 0 0 1 2 1c0,0 0,0 0,1l1 0 0 -2c1,0 1,1 1,0l0 -1 -1 0 0 -1 -1 0 0 -2 -2 0 0 -1 -1 0 0 -1 -2 0c0,-1 1,-1 0,-2l-1 0 0 2 -1 0 0 1 -2 0 0 1 -1 0 0 2 -1 0 0 1 -2 0 0 2 -1 0 0 1 -1 0 0 1c0,0 0,0 1,0l0 2 1 0 0 1 2 0 0 1 1 0 0 2 1 0 0 1 2 0 0 1 1 0c0,1 0,1 0,2l1 0 1 -1 1 -1 0 -1 1 0 0 -1 2 0 0 -2 1 0 0 -1c1,0 1,0 1,0l0 -1 -1 0 0 -2 -1 0c-1,1 0,1 0,2l-2 0zm0 99l0 1 -1 0 0 1 -1 1 -1 1 -1 0 0 -1 -1 -1 0 -1 -2 0 0 -1 -1 0 0 -2 -1 0 0 -1c0,0 0,0 0,0 0,0 1,0 1,0l0 -1 1 0 0 -2 2 0 0 -1 1 0 0 -2 1 0c0,1 0,1 1,1 0,0 0,1 0,1l1 0 0 1 1 0 0 2 2 0 0 1 1 0 0 -1 1 -1 0 0c0,-1 0,-1 -1,-1l0 -1 -1 0 0 -1 -2 -1 0 -1 -1 0 0 -1 -1 0c-1,-1 0,-1 -1,-2l-1 0c0,1 0,1 0,2l-1 0 0 1 -2 0 0 1 -1 1 0 1 -1 0 0 1 -2 0 0 2 -1 0 0 1 -1 0 0 1 1 0 0 2 1 0 0 1 2 0 0 1 1 0 0 2 1 0 0 1 2 0 0 2 1 0 0 1 1 0 0 -1 2 0 0 -2 1 0 0 -1 2 0 0 -2 1 0 0 -1 1 0 0 -1 -1 0 0 -2 -1 0c0,1 0,1 0,2l-2 0zm22 -223c0,1 0,0 1,1l1 0 0 -5 -2 0 0 -2c-1,0 -1,0 -1,0l0 -1 1 0 0 -1 2 -1 0 -5 -2 0 0 1 -1 0 0 2 -1 0 0 1 -2 0 0 2 -1 0 0 1 -2 0 0 1c1,0 1,0 2,0l0 2 1 0 0 1 1 0 1 1 1 0 0 2 1 0zm2 23l0 -1 -2 0 0 1 2 0zm-2 7c0,1 0,1 1,1l1 0 0 -4 -2 0 0 -1 -1 0 0 -1 -2 0 0 -2 -1 0 0 -1 1 0 1 -2 1 0 0 -1 1 0 0 -1 2 0 0 -4 -2 0 0 1 -1 0 0 1 -1 0 0 2 -2 0 0 1 -1 0 0 1 -2 0 0 2 -1 0 0 1c1,0 0,0 1,0l0 1 2 1 0 1 1 0 0 1 2 0 0 2 1 0 0 1 1 0zm0 8c0,1 0,1 1,2l1 0 0 -4 -2 0 0 -2 -1 0 0 -1 -2 0 0 -2 -1 0 0 -1 -1 0 0 -1 -2 0 0 -2 -1 0 0 -1 -1 0 0 -1 -2 0 0 -2 -1 0 0 -1 1 0 0 -2 2 0 0 -1 1 0 0 -1 1 0 0 -2 2 0 0 -1 1 0 0 -1 1 -1 1 -1 1 0 0 -1 1 0 0 -2 2 0 0 -4 -2 0 0 2 -1 0 0 1 -1 0 -1 1 -1 0 0 -1 -1 0 0 -1 -2 0 0 -2 -1 0 0 -1 -1 0 0 -1 -2 -1 0 -1 2 0 0 -1 1 0 0 1 1 0 0 1 2 1 0 1 1 0c0,1 0,1 0,1l1 0 1 -1 1 0 0 -1 -2 0 0 -2 -1 0 0 -1 -1 0 0 -2 -2 0 0 -1 -1 0 0 -1 -1 0 0 1 -2 0 0 1 -1 0 0 2 -1 0 0 1 -2 0 0 1 1 1 1 1 1 0 0 1 1 0 0 2 2 0 0 1 1 0 0 1 1 0 0 2 2 0 0 1 -2 0 0 2 -1 0 0 1 -1 0 0 1 -2 0c0,0 0,1 0,1 0,1 0,0 0,1l-1 0 0 -2 -2 0 0 -1 -1 0 0 -1 -1 0 0 -2 -2 0 0 -1 -1 -1 0 -1 1 0 0 -1 1 0c1,1 1,0 1,1l1 0 0 2 1 0 1 1 1 0c0,1 0,1 0,2l1 -1 0 -1 2 0 0 -1 -2 0 0 -2 -1 0 0 -1 -2 0 0 -1 -1 0 0 -2 -1 0 0 -1 -2 0 0 1 -1 0 0 2 -1 0 0 1 -2 0 0 1 -1 1 0 1 1 0 0 1 2 0 0 1 1 1 0 1 1 0 0 1 2 0 0 2 1 0 0 1 1 0 1 1 -2 0 0 2 -1 0 0 1c0,0 0,0 1,0l0 2 2 0 0 1 -2 0 0 1 -1 0 0 2 -2 0 0 1 -1 0 0 1 -1 0 0 2 -2 0 0 1 -1 0 0 1 1 1 0 1 2 0 0 1 1 0 0 2 1 0c0,1 0,0 1,1l0 0c1,-1 1,0 1,-1l1 0 0 -2 1 0 1 -1 1 0 0 -1 1 -1 0 -1 2 0 0 -1 -2 0 0 -2 -1 0 0 2 -1 0 0 1 -2 0 0 2 -1 0c0,0 0,0 0,0 0,1 0,1 -1,1l-1 0 0 -1 -1 -1 0 -1 1 0 0 -1 2 0 0 -2 1 0 0 -1 1 0 1 -1 1 0 0 -2 1 0c0,1 0,0 0,1 0,0 0,1 0,1l2 0 0 1 1 0 0 1 1 0 0 2 2 0 0 1c-1,0 0,0 -1,0 0,0 0,0 -1,0l0 2 -1 0 0 1 -1 0 0 1 -2 0 0 2 -1 0 0 1 -1 0 0 1 -2 1 0 0c1,1 0,1 2,1l0 1 1 0 0 2 1 0 0 1 2 0c0,1 0,1 0,1l1 0 0 -1 1 0 0 -1 2 -1 0 -1 1 0 0 -1 1 0 1 -2 1 0 0 -1 -1 0 -1 -1 -1 0 0 1 -1 0 0 1 -2 0 0 2 -1 0 0 1 -1 0 0 -1 -2 -1 0 0 2 -1 0 -1 1 0 0 -1 1 0 0 -2 2 0 0 -1 1 0 0 -1 1 0 1 1 1 0 0 1 1 0zm0 20c0,1 0,0 1,1l1 0 0 -6 -2 0 0 -1c-1,0 -1,0 -1,0l0 -1 1 0 0 -2 2 0 0 -5 -2 0 0 1 -1 0 0 2 -1 0 0 1 -2 0 0 1 -1 0 0 2 -2 0 0 1 2 0 0 1 1 0 0 2 2 0 0 1 1 0 0 2 1 0zm0 15c0,1 0,0 1,1l1 0 0 -4 -2 0 0 1 -1 1 0 0c1,1 0,1 1,1zm0 26c0,1 0,1 1,1l1 0 0 -5 -2 0 0 -2 -1 0 0 -1 1 0 0 -1 2 0 0 -6 -2 0 0 1 -1 1 0 1 -1 0 0 1 -2 0 0 2 -1 0 0 1 -2 0 0 1c1,0 1,0 2,0l0 2 1 0 0 1 1 0 1 1 1 0 0 2 1 0zm2 23l0 -1 -2 0 0 1 2 0zm-2 7c0,1 0,1 1,1l1 0 0 -4 -2 0 0 -1 -1 0 0 -1 -2 0 0 -2 -1 0 0 -1 1 0 1 -1 1 -1 0 -1 1 0 0 -1 2 0 0 -4 -2 0 0 1 -1 0 0 1 -1 0 0 2 -2 0 0 1 -1 0 0 1 -2 1 0 1 -1 0 0 1 1 0 0 2 2 0 0 1 1 0 0 1 2 0 0 2 1 0 0 1 1 0zm0 8c0,1 0,1 1,2l1 0 0 -4 -2 0 0 -2 -1 0 0 -1 -2 0 0 -1 -1 0 0 -2 -1 0 0 -1 -2 0 0 -2 -1 0 0 -1 -1 0 0 -1 -2 0 0 -2 -1 0 0 -1c0,0 0,0 0,0 0,0 1,0 1,0l0 -1 2 -1 0 -1 1 0 0 -1 1 0 0 -2 2 0 0 -1 1 0 0 -1 1 0 0 -2 2 0 0 -1 1 0 0 -2 2 0 0 -4 -2 0 0 2 -1 0 0 1 -1 0 -1 2 -1 0 0 -2 -1 0 0 -1 -2 0 0 -2 -1 0 0 -1 -1 0 0 -1 -2 -1 0 -1 2 0 0 -1 1 0 0 1 1 0 0 2 2 0 0 1 1 0c0,1 0,1 0,1l1 0 0 -1 2 0 0 -1 -1 0 -1 -2 -1 0 0 -1 -1 0 0 -1 -2 0 0 -2 -1 0 0 -1 -1 0 0 1 -2 0 0 1 -1 1 0 1 -1 0 0 1 -2 0 0 1c1,1 1,1 1,1l1 1 1 0 0 1 1 0 0 2 2 0 0 1 1 0 0 1 1 0 0 2 2 0 0 1 -2 0 0 2 -1 0 0 1 -1 0 0 1 -2 0 0 2 -1 0 0 -2 -2 0 0 -1 -1 0 0 -1 -1 0 0 -2 -2 0 0 -1 -1 0 0 -1 1 -1c0,0 0,0 0,0 1,-1 0,-1 1,-1l0 0 1 1 1 0 0 2 1 0 1 1 1 0c0,1 0,1 0,2l1 0 0 -2 2 0 0 -1 -2 0 0 -1 -1 0 0 -2 -2 0 0 -1 -1 0 0 -2 -1 0c0,-1 0,0 -1,-1l0 0c-1,1 -1,0 -1,1l-1 0 0 2 -1 0 0 1 -2 0 0 1 -1 1 0 1c1,0 0,0 1,0l0 1 2 0 0 2 1 0 0 1 1 0 0 1 2 0 0 2 1 0 0 1 2 0 0 1c-1,0 -1,0 -1,1 0,0 -1,0 -1,0l0 1 -1 0 0 1c0,0 0,0 1,0l0 2 2 0 0 1 -2 0 0 1 -1 0 0 2 -2 0 0 1 -1 0 0 2 -1 0 0 1 -2 0 0 1 -1 1 0 0c1,1 0,1 1,1l0 1 2 0 0 1 1 0 0 2 1 0c0,1 0,0 1,1l1 0 0 -1 1 0 0 -2 1 0 0 -1 2 0 0 -1 1 0 0 -2 2 0 0 -1 -2 0 0 -1 -1 0c0,0 0,0 0,1l-1 0 0 1 -2 0 0 2 -1 0 -1 1 0 0c-1,0 0,0 -1,-1 0,0 0,0 0,0 0,0 0,0 0,0 -1,0 -1,0 -1,-1l0 0 1 -1 0 -1 2 0 0 -1 1 -1 0 -1 1 0 0 -1 2 0 0 -2 1 0 0 2 2 0 0 1 1 0 0 1 1 0 0 2c1,0 1,0 1,0 1,0 0,0 1,0l0 1 -2 0 0 2 -1 0 0 1 -1 0 0 1 -2 0 0 2 -1 0 0 1 -1 0 0 2c-1,0 -1,-1 -2,0l0 1c1,0 1,0 2,0l0 1 1 0 0 2 1 0 0 1 2 0c0,1 0,1 0,1l1 0 0 -1 1 0 0 -1 2 0 0 -2 1 0 0 -1 1 0 0 -1 2 -1 0 -1 -1 0 -1 -1 -1 0c0,0 0,0 0,1l-1 0 0 2 -2 0 0 1 -1 0c0,0 0,1 0,1 0,0 0,0 0,0l-1 0 0 -1c-1,0 -1,0 -1,0 -1,0 -1,0 -1,0l0 -1 2 -1 0 -1 1 0 0 -1 1 0 0 -2 2 0 0 -1 1 0c0,0 0,-1 0,-1 0,0 0,0 0,0l1 0c0,0 0,0 1,0 0,0 0,1 0,1l1 0 0 1 1 0zm0 20c0,1 0,0 1,1l1 0 0 -5 -2 0 0 -2 -1 0 0 -1 1 0 0 -2 2 0 0 -5 -1 0c-1,1 -1,0 -1,1l-1 0 0 2 -1 0 0 1 -2 0 0 1 -1 0 0 2c-1,0 -1,0 -2,0l0 1c1,0 1,0 2,0l0 1 1 1 0 1 2 0 0 1 1 0 0 2 1 0zm-1 14l0 1 1 0 0 1 2 0 0 -4 -1 0c-1,1 -1,0 -1,1 -1,0 0,0 -1,1zm0 26l0 1 1 0 0 1 2 0 0 -5 -2 0 0 -1 -1 -1 0 -1c0,0 0,0 0,0 0,0 1,0 1,0l0 -1 2 -1 0 -5 -1 0c-1,1 -1,1 -1,2l-1 0 0 1 -1 0 0 1 -2 0 0 2 -1 0 0 1c-1,0 -1,0 -2,0l0 1 2 0 0 2 1 0 0 1 1 0 1 1 1 1zm3 24l0 -1 -2 0 0 1 2 0zm-3 6l0 1 1 0 0 2 2 0 0 -4 -2 -1 0 -1 -1 0 0 -1 -1 0 -1 -2 -1 0 0 -1c0,0 0,0 1,0 0,0 0,0 0,0l0 -1 2 0 0 -2 1 0 0 -1 2 0 0 -4 -1 0c-1,0 -1,0 -1,1l-1 0 0 1 -1 1 0 1 -2 0 0 1 -1 0 0 2 -2 0 0 1c-1,0 0,0 -1,0l0 1 1 0 0 2 2 0 0 1 1 0 0 1 2 0 0 2 1 0zm0 8l0 1 1 0 0 2 2 0 0 -4 -2 0 0 -2 -1 0 0 -1 -1 0 -1 -1 -1 0 0 -2 -1 0 0 -1 -2 0 0 -1 -1 -1 0 -1 -1 0 0 -1 -2 0 0 -2c0,0 -1,0 -1,0 0,0 0,0 0,0l0 -1 1 0 0 -1 2 0 0 -2 1 0 0 -1 1 0 0 -2 2 0 0 -1 1 0 0 -1 1 0 0 -2 2 0 0 -1 1 0 0 -1 2 0 0 -5 -1 0c-1,1 -1,1 -1,2l-1 0 0 1 -1 0c-1,2 -1,2 -2,2l0 -2 -1 0 0 -1 -2 0 0 -1 -1 -1 0 -1 -1 0 0 -1c-1,0 -1,0 -1,0 -1,0 -1,0 -1,-1l0 -1 2 0 0 -1 1 0c0,0 0,0 0,1 0,0 0,0 0,0l1 0 0 2 2 0 0 1 1 0 0 1 1 0 0 -1 2 0 0 -1 -1 0 -1 -2 -1 0 0 -1 -1 0 0 -1 -2 0 0 -2 -1 0 0 -1 -1 0c0,1 0,0 0,1l-2 0 0 2 -1 0 0 1 -1 0 0 1c-1,0 -1,0 -2,1l0 1 2 0 0 1 1 0 0 1 1 0 0 2 2 0 0 1 1 0 0 2 1 0 0 1 2 0c0,1 0,1 -2,1l0 2 -1 0 0 1 -1 0 0 1 -2 1 0 1 -1 0 0 -1 -1 -1 -1 -1 -1 0 0 -1 -1 0 0 -2 -2 0 0 -1 -1 0 0 -1 1 0 1 -2 0 0 1 2 1 0 0 1 2 0 0 1 1 0 0 2 1 0 0 -2 2 0 0 -1 -2 0 0 -1 -1 0 0 -2 -1 0 -1 -1 -1 0 0 -1 -1 -1 -1 -1 0 0c-1,1 -1,0 -1,1l-1 1 0 1 -1 0 0 1 -2 0 0 2c-1,0 0,-1 -1,0l0 1 1 0 0 1 2 0 0 2 1 0 0 1 1 0 0 1 2 0 0 2 1 0 0 1 2 0 0 1c-1,0 -1,0 -1,1 0,0 -1,0 -1,0l0 1c-1,0 -1,0 -1,0l0 1 1 0 0 2c0,0 1,0 1,0 1,0 0,0 1,0 0,1 0,1 -2,1l0 1 -1 1 0 1 -2 0 0 1 -1 0 0 2 -1 0 0 1 -2 0 0 1c-1,0 0,0 -1,1l0 1 1 0 0 1 2 0 0 1 1 0 0 2 1 0 0 1 2 0 0 -1 1 0 0 -2 1 0 0 -1 2 0 0 -1 1 0 0 -2 2 0 0 -1 -2 0 0 -1 -1 0c0,0 0,0 0,1l-1 0 0 1 -2 0 0 2 -1 0 -1 1 -1 0 0 -1 -1 0 0 -2 1 0 0 -1 2 0 0 -1 1 0 0 -2 1 0 0 -1 2 0 0 -2 1 0 0 2 2 0 0 1 1 0 0 2 1 0 0 1 2 0 0 1 -2 0 0 2 -1 0 0 1 -1 0 0 1 -2 1 0 1 -1 0 0 1 -1 0 0 2c-2,0 -1,-1 -2,0l0 1 2 0 0 1 1 0 0 2 1 0 0 1 2 0 0 1 1 0 0 -1 1 0 0 -1 2 0 0 -2 1 0 0 -1 1 0 0 -1 2 -1 0 -1 -1 0 -1 -1 -1 0c0,1 0,0 0,1l-1 0 0 2 -2 0 0 1 -1 0c0,0 0,1 0,1 0,0 0,0 0,0l-1 0 0 -1 -2 0 0 -1c1,0 0,0 1,0 0,0 0,0 1,0l0 -2 1 0 0 -1 1 0 0 -2 2 0 0 -1 1 0c0,0 0,-1 0,-1 0,0 0,0 0,0l1 0 1 1 1 0zm0 19l0 2 1 0 0 1 2 0 0 -5 -2 0 0 -2 -1 0 0 -1c0,0 0,0 0,0 0,0 1,0 1,0l0 -1 2 -1 0 -5 -1 0c-1,1 -1,0 -1,1l-1 0 0 2 -1 0 0 1 -2 0 0 1 -1 1 0 1c-1,0 -1,0 -2,0l0 1 2 0 0 2 1 0 0 1 2 0 0 1 1 0zm0 16l0 1 1 0 0 1 2 0 0 -4 -1 0c-1,1 -1,0 -1,2 -1,0 -1,0 -1,0zm0 26l0 1 1 0 0 1 2 0 0 -5 -2 0 0 -1 -1 -1 0 -1c0,0 0,0 1,0l0 -1 2 0 0 -6 -1 0c-1,1 -1,0 -1,1 0,0 0,1 0,1l-1 0 0 1 -1 0 -1 1 -1 0 0 2 -1 0 0 1c-1,0 -1,0 -2,0l0 1 2 1 0 1 1 0 0 1 1 0 1 2 1 0zm3 24l0 -1 -2 0 0 1 2 0zm0 6l0 -1 -2 0 0 -2 -1 0 0 -1 -1 0 -1 -1 -1 -1 0 -1c1,0 0,0 1,0l0 -1 2 0 0 -2 1 0 0 -1c2,0 2,1 2,-4l-1 0c-1,0 -1,0 -1,0 0,0 0,1 0,1l-1 0 0 2 -1 0 0 1 -2 0 0 1 -1 0 0 2 -2 0 0 1c-1,0 -1,0 -1,0l0 1 1 0 1 2 1 0 0 1 1 0 0 2 2 0 -1 1 -4 0 0 -1 -1 0 0 -2 -1 0 0 -1 -2 0 0 -1 -1 -1 0 -1c0,0 0,0 0,0 0,0 1,0 1,0l0 -1 2 0 0 -2 1 0 0 -1 1 0 0 -1 2 -1 0 -1 1 0 0 -1 1 0 0 -2 2 0 0 -1 1 0 0 -1 2 -1 0 -3 -1 0c-1,0 0,-1 -1,0 0,0 0,1 0,1l-1 0 0 1 -1 0 0 2 -2 0 0 -2 -1 0 0 -1 -2 0 0 -1 -1 0 0 -2 -1 0 0 -1 -2 0 0 -1c1,-1 1,-1 2,-1l0 -1 1 0 0 1 1 0 1 2 1 0 0 1 1 0 0 2 1 -1 0 -1 2 0 0 -1 -1 0 -1 -1 -1 -1 0 -1 -1 0 0 -1 -2 0 0 -2 -1 0 0 -1 -1 0 0 1 -2 0 0 2 -1 0 0 1 -1 0 0 1c-1,0 -1,0 -1,0 -1,1 -1,1 -1,1l0 1 2 0 0 1 1 0 0 1 1 1 0 1 2 0 0 1 1 0 0 2 1 0 1 1 1 0 0 1 -2 0 0 2 -1 0 0 1 -1 0 0 2 -2 0 0 1 -1 0 0 -1 -1 0 -1 -2 -1 0 0 -1 -1 0 0 -2 -2 0 0 -1 -1 0 0 -1c0,0 0,0 1,0 0,0 0,0 0,0l0 -2 1 0 1 2 1 0 0 1 2 0 0 1 1 0 0 2 1 0 0 -2 2 0 0 -1 -2 0 0 -1 -1 0 0 -2 -1 0 -1 -1 -1 0 0 -1 -1 0 -1 -2 0 0c-1,1 -1,1 -1,2l-1 0 0 1 -1 0 0 1 -2 0 0 2c-1,0 -1,0 -1,0l0 1 1 0 0 1 2 0 0 2 1 0 0 1 1 0 1 2 1 0 0 1 1 0 0 1 2 0 0 2 -2 0 0 1 -1 0 0 1 1 0 0 2 2 0 -1 1 -1 0 0 2 -1 0 0 1 -4 0 0 -1 1 -1 0 -1 1 0 0 -1 -1 0 0 -2 -1 0c0,1 0,2 0,2l-2 0 0 1 -1 0 0 2 -1 0 -1 1 -1 0 0 -1 -1 0 0 -2 -2 0 0 -1 -1 0 0 -1 -1 -1 0 -1c0,0 0,0 0,0 0,0 1,0 1,0l0 -1 1 0 0 -2 2 0 0 -1 1 0 0 -1 1 0 1 1 1 0 0 1 1 0 0 2 2 0 0 1 1 0 0 -1 1 0 0 -2 -1 0 0 -1 -1 0 0 -1 -2 0 0 -2 -1 0 0 -1 -1 0 -1 -2 -1 0c0,1 0,1 0,2l-1 0 0 1 -2 0 0 2 -1 0 0 1 -1 0 0 1 -2 0 0 2 -1 0 0 1 -1 0 0 1 1 0 0 2 1 0 0 1 2 0 0 2 1 0 0 1 -4 0 0 -1 -1 0 -1 -2 -1 0 0 -1 -1 0 0 -1 -2 -1 0 -1 2 0 0 -1 1 0 0 -2 1 0 0 -1 2 0 0 -1 1 0 0 -2 2 0 0 -1 1 0 0 -2 1 0 0 -1 2 0 0 -1 1 0 0 -2 1 0 0 -1 2 0 0 -1 1 0 0 -2 2 0 0 -1 1 0 0 -2 1 0 0 -1 2 0 0 -1 1 0 0 -2 1 0 0 -1 2 0 0 -1 1 -1 0 -1 2 0 0 -1 1 0 0 -2 1 0 0 -1 2 0 0 -1 1 0 0 -2 1 0 0 -1 2 0 0 -2 1 0 0 -1 2 0 0 -1 -2 0 0 -1 -1 -1 0 -1 -1 0 -1 -1 -1 0 0 -2 -1 0 0 -1c0,0 -1,0 -1,0 -1,0 0,0 -1,0l0 -1 2 -1 0 -1 1 0 0 -1 1 0 0 -2 2 0 0 -1 1 0 0 -1 2 0 0 -2 -2 0 0 -1 -1 0 0 -1 -1 -1 -1 -1 -1 0 0 -1 -1 0 0 -2 -2 0 0 -1 -1 0 0 -1 -1 0 0 -2 -2 0 0 -1 -1 0 0 -1 -1 -1 -1 -1 -1 0 0 -1 -1 0 0 -2 -2 0 0 -1 -1 0 0 -1 -1 0 0 -2 -2 0 0 -1 -1 0 0 -1 -1 -1 -1 -1 -1 0 0 -1 -1 0 0 -2 -2 0 0 -1 -1 0 0 -1 -1 0 0 -2 -2 0 0 -1 -1 0 0 -1 -1 -1 -1 -1 -1 0 0 -1 -1 0 0 -2 -2 0 0 -1 2 0 0 -1 1 0 0 -2 1 0 0 -1 2 0 0 -2 1 0 0 -1 2 0 0 -1 1 0 0 -2 1 0 0 -1 2 0 0 -1 1 0 0 -2 1 0 0 -1 2 0 0 -2 1 0 0 -1 2 0 0 -1 1 0 0 -2 1 0 0 -1 2 0 0 -1 1 0 0 -2 1 0 0 -1 2 0 0 -2 1 0 0 -1 2 0 0 -1 1 0 0 -2 1 0 0 -1 2 0 0 -1 1 -1 0 -1 1 0 0 -1 2 0 0 -2 1 0 0 -1 2 0 0 -1 -2 0 0 -2 -1 0 0 -1 -1 0 -1 -1 -1 0 0 -2 -1 0 0 -1 -2 0 0 -1 2 -1 0 -1 1 0 0 -1 1 0 0 -2 2 0 0 -1 1 0 0 -1 2 -1 0 -1 -2 0 0 -1 -1 0 0 -2 -2 0 0 -1 -1 0 0 -1 -1 0 0 -2 -2 0 0 -1 -1 0 0 -1 -1 0 0 -2 -2 0 0 -1 -1 0 0 -2 -2 0 0 -1 -1 0 0 -1 -1 0 0 -2 -2 0 0 -1 -1 0 0 -1 -1 0 0 -2 -2 0 0 -1 -1 0 0 -2 -2 0 0 -1 -1 0 0 -1 -1 0 0 -2 -2 0 0 -1 -1 0 0 -1 -1 0 0 -2 -2 0 0 -1 -1 0 0 -2 -2 0 0 -1 -1 0 0 -1 -1 0 0 -2c0,0 -1,0 -1,0 -1,0 0,0 -1,0l0 -1 2 0 0 -1 1 -1 0 -1 1 0 1 -1 1 0 0 -2 1 0 0 -1 2 0 0 -1 1 0 0 -2 1 0 0 -1 2 0 0 -2 1 0 0 -1 1 0 0 -1 2 0 0 -2 1 0 0 -1 2 0 0 -1 1 0 0 -2 1 0 0 -1 2 0 0 -2 1 0 0 -1 1 0 1 -1 1 0 0 -2 1 0 0 -1 2 0 0 -1 1 0 0 -2 1 0 0 -1 2 0 0 -2 1 0 0 -1 1 0 1 -1 1 0 0 -2 1 0 0 -1 2 0 0 -1 -2 0 0 -2 -1 0 0 -1 -2 0 0 -1 -1 -1 0 -1 -1 0 0 -1 -2 -1 0 0 2 -1 0 -1 1 0 0 -1 1 0 0 -2 2 0 0 -1 1 0 0 -2 2 0 0 -1 -2 0 0 -1 -1 0 0 -2 -2 0 0 -1 -1 0 0 -1 -1 0 0 -2 -2 0 0 -1 -1 0 0 -1 -1 -1 0 -1 -2 0 0 -1 -1 0 0 -2 -2 0 0 -1 -1 0 0 -1 -1 0 0 -2 -2 0 0 -1 -1 0 0 -1 -1 -1 0 -1 -2 0 0 -1 -1 0 0 -2 -2 0 0 -1 -1 0 0 -1 -1 0 0 -2 -2 0 0 -1 -1 0 0 -2 -1 0 0 -1 -2 0 0 -1 -1 0 0 -2 -2 0 0 -1 -1 0 0 -1 -1 0 0 -2 -2 0 0 -1 2 0 0 -2 1 0 0 -1 1 0 1 -1 1 0 0 -2 1 0 0 -1 2 0 0 -1 1 -1 0 -1 1 0 0 -1 2 0 0 -2 1 0 0 -1 1 0 1 -1 1 0 0 -2 1 0 0 -1 2 0 0 -1 1 -1 0 -1 1 0 0 -1 2 0 0 -2 1 0 0 -1 1 0 1 -1 1 0 0 -2 1 0 0 -1 2 0 0 -1 1 -1 0 -1 1 0 0 -1 2 0 0 -2 1 0 0 -1 1 0 1 -1 1 0 0 -2 1 0 0 -1 2 0 0 -1 -2 -1 0 -1 -1 0 0 -1 -2 0 0 -2 -1 0 0 -1 -1 0 0 -1 5 0 0 1 2 0 0 -1 1 0 0 352 -1 0z"/>
   <path class="fil0" d="M63 50l0 -1 -1 0 0 1 1 0zm0 51c0,-1 0,0 0,-1 1,0 1,0 1,-1l0 0 -1 -1 0 -1 -1 0 0 4 1 0zm0 48l0 -1 -1 0 0 1 1 0zm0 51l0 -1 1 0 0 -1c0,-1 0,-1 -1,-1 0,-1 0,0 0,-1l-1 0 0 4 1 0zm0 48l0 -1 -1 0 0 1 1 0zm0 51l0 -1 1 0 0 -1c0,0 0,0 -1,0l0 -2 -1 0 0 4 1 0zm0 48l0 -1 -1 0c0,1 0,0 0,1l1 0zm0 -326l0 2 -1 0 0 5 1 0c0,-1 0,0 0,-1l1 0 0 -2 2 0 0 -1 1 0 0 -1 2 0 0 -2 1 0 0 -1 -1 0 0 -1 -2 -1 0 -1 -1 0 0 -1 -2 0 0 -2 -1 0 0 -1 -1 0 0 5 1 1 0 1 1 0 0 1 -1 0zm0 58l0 1 -1 1 0 5 1 0c0,-1 0,0 0,-1l1 0 0 -2 2 0 0 -1 1 0 0 -2 2 0 0 -1c1,0 0,0 1,0l0 -1 -1 0 0 -2 -2 0 0 -1 -1 0 0 -1 -2 0 0 -2 -1 0 0 -1 -1 0 0 5 1 0 0 2 1 0 0 1 -1 0zm0 41l0 2 -1 0 0 5 1 0c0,0 0,0 0,-1l1 0 0 -2 2 0 0 -1 1 0 0 -1 2 0 0 -2c1,0 0,0 1,0l0 -1 -1 0 0 -1 -2 0 0 -2 -1 0 0 -1 -2 0 0 -1 -1 -1 0 -1 -1 0 0 5 1 1 0 1c0,0 1,0 1,0 0,0 0,0 0,0l0 1 -1 0zm0 58l0 2 -1 0 0 5 1 0 0 -1 1 0 0 -2 2 0 0 -1 1 0 0 -1 2 -1 0 -1c1,0 0,0 1,0l0 -1c-1,0 0,0 -1,0l0 -2 -2 0 0 -1 -1 0 0 -1 -2 0 0 -2 -1 0c0,-1 0,0 0,-1l-1 0 0 5 1 0 0 2c1,0 1,-1 1,1l-1 0zm0 42l0 1 -1 0 0 5 1 0 0 -1 1 0 0 -1 2 0 0 -2 1 0 0 -1 2 0 0 -2 1 0 0 -1c-1,0 0,0 -1,0l0 -1 -2 0 0 -2 -1 0 0 -1 -2 0 0 -1 -1 0c0,-1 0,-1 0,-2l-1 0 0 6 1 0 0 1 1 0 0 1 -1 1zm0 57l0 2 -1 0 0 5 1 0 0 -1 1 0 0 -2 2 0 0 -1 1 0 0 -1 1 0 1 -2 1 0 0 -1c-1,0 0,0 -1,0l0 -1 -2 -1 0 -1 -1 0 0 -1 -2 0 0 -2 -1 0c0,-1 0,0 0,-1l-1 0c0,6 -1,5 1,5l0 2 1 0c0,2 0,1 -1,1zm0 42l0 1 -1 0 0 5 1 0 0 -1 1 0 0 -1 2 0 0 -2 1 0 0 -1 1 0 1 -1 1 -1 0 -1c0,0 0,0 -1,0 0,0 0,0 0,0l0 -1 -2 0 0 -2 -1 0 0 -1 -2 0 0 -1 -1 0 0 -2 -1 0 0 6 1 0 0 1c1,0 1,0 1,0l0 1 -1 1zm3 -269l0 2 -1 0 -1 1 -1 0 0 1 -1 0 0 4 1 0c0,0 0,0 0,0 0,0 0,-1 0,-1l1 0 0 -1 2 0 0 -2 1 0 0 -1 2 0 0 -1 1 0 0 -2c0,0 1,0 1,0 0,0 0,0 0,0l0 -1 -1 0 0 -2 -1 0 0 -1 -2 0 0 -1 -1 0 0 -2 -2 0 0 -1 -1 0 0 -1 -1 0 0 4 1 0 0 1 1 0 1 1 1 0 0 2 1 0 0 1 -1 0zm0 99l0 2 -1 0 -1 1 -1 0 0 1 -1 0 0 4 1 1c0,-1 0,-1 0,-2l1 0 0 -1 2 0 0 -2 1 0 0 -1 2 0 0 -1 1 0 0 -2c1,0 1,0 1,0l0 -1c0,0 0,0 -1,0l0 -1 -1 0 0 -2 -2 0 0 -1 -1 0 0 -2 -2 0 0 -1 -1 0 0 -1 -1 0 0 4 1 0 0 1 1 0 1 1 1 0 0 2 1 0 0 1c0,0 0,0 0,0 0,0 -1,0 -1,0zm0 99l0 2 -1 0 -1 1 -1 0 0 1 -1 1 0 3 1 1 0 -2 1 0 0 -1 2 0 0 -2 1 0 0 -1 1 0 1 -1 1 0 0 -2 1 0 0 -1 -1 0 0 -1 -1 0 0 -2 -2 0 0 -1 -1 0 0 -1 -2 -1 0 -1 -1 0c0,-1 0,-1 0,-1l-1 0 0 4 1 0 0 1 1 0 1 1 1 1 0 1 1 0 0 1 -1 0zm15 -185l0 1 -1 0 -1 -1 -1 0 0 -2 -1 0 0 -1 -2 0 0 -2 -1 0 0 2 -1 0 0 1 1 0 0 1 1 1 1 1 1 0 0 1 1 0 0 2 2 0 0 1 1 0c0,-1 0,0 0,-1l1 0 0 -2 2 0 0 -1 1 0 0 -1c1,0 1,0 1,-1l0 -1 -1 0 0 -1 -1 0 0 -2 -2 0 0 -1 -1 0 0 -1 -1 0 0 -2 -2 0 0 -1 -1 0 0 -1 1 -1 0 -1 2 0 0 -1 -2 0 0 -2 -1 0 0 -1c0,0 0,0 1,0l0 -1 2 0 0 -2 1 0 0 -1 1 0 0 -1 2 -1 0 -1 1 0 0 -1c1,0 1,0 1,-1l0 0 -1 -1 0 -1 -1 0 0 -1 -2 0 0 -2 -1 0 0 -1 -1 0 0 1 -2 0 0 2 -1 0 0 1 -1 0 -1 1 -1 0 0 2 -1 0 0 1 1 0 0 2 1 0c1,-1 0,-1 0,-2l2 0 0 -1 1 0 0 -2 2 0c0,-1 -1,0 0,-1l1 0 0 1c2,0 1,0 1,1l-1 1 0 1 -1 0 0 2 -2 0 0 1 -1 0 0 1 -1 0c0,0 -1,1 -1,1 0,1 0,0 0,1l-1 0c0,-1 0,-1 0,-1 0,0 0,-1 0,-1l-1 0 0 -1 -2 0 0 -1 -1 0 0 -2 -1 0 0 -1 1 0 0 -2 1 0 0 -1 2 0 0 -1 1 0 0 -2 1 0 0 -1 2 0 0 -1 1 -1 0 -1 -1 0 0 -1 -2 0 0 -2 -1 0 0 -1 -1 0 0 -1 -1 0 -1 1 -1 0 0 1 -1 0 0 2 -2 0 0 1 -1 0 0 2 -1 0 -1 1 2 0 0 1 1 0 0 -1 2 0 0 -1 1 -1 0 -1 1 0 0 -1 2 0 0 1 1 0 0 1 -1 1 0 1 -2 0 0 1 -1 0 0 2 -1 0 0 1 -2 0 0 1 -1 0 0 -1 -2 0 0 -1 -1 0 0 -2 -1 0 0 4 1 0 0 2 1 0 1 1 1 0 0 1 1 1 0 1 2 0 0 1 1 0 0 2 1 0 0 1 2 0 0 1 1 0 0 2 1 0 1 1 -2 0 0 2 -1 0 0 1 -2 0 0 1 -1 0 0 2 -1 0 0 1 -2 0 0 1 -1 0 0 2 -1 0 -1 1 -1 0 0 2 -1 0 0 4 1 0c0,-1 0,0 0,-1 0,0 0,0 0,-1l1 0 0 -1 2 0 0 -1 1 0 0 1 2 0 0 1 1 0 0 2 1 0 0 1 2 0 0 1 1 1 0 0 -1 1 -1 1 0 0 -1 -1 -1 0 0 -2 -1 0 0 -1 -2 0 0 -1 -1 0 0 1 -1 0 -1 1 2 0 0 2 1 0 0 1 2 0 0 1 1 1 0 1 1 0 0 1 1 0c1,0 1,0 1,-1l1 0 0 -1 1 0 0 -2 2 0 0 -1c0,0 0,0 1,0 0,0 0,0 0,-1l0 0 -1 -1 0 -1 -2 0 0 -1 -1 0 0 -2 -1 0 0 -1 -2 0 0 -1 -1 0 0 -2 -1 0 0 -1 1 0 0 -2 1 0 0 -1 2 0 0 -1 1 0c0,-1 0,-1 0,-2l1 0 1 2 1 0 0 1 1 0 0 1 2 0 0 2 1 0 0 1 1 0 0 1 -1 1zm0 99l0 1c-1,0 -1,0 -1,-1l-2 0 0 -2 -1 0 0 -1 -2 0 0 -1 -1 0 0 1 -1 0 0 1 1 0 0 2 1 0 1 1 1 0 0 1 1 0 0 2 2 0 0 1 1 0c0,-1 0,0 0,-1l1 0 0 -2 2 0 0 -1 1 0 0 -1 1 -1 0 0 -1 -1 0 -1 -1 0 0 -1 -2 0 0 -2 -1 0 0 -1 -1 0 0 -2 -2 0 0 -1c0,0 -1,0 -1,0 0,0 0,0 0,0l0 -1 1 0 0 -2c1,0 1,0 2,0l0 -1 -2 0 0 -1 -1 -1 0 -1 1 0 0 -1 2 0 0 -2 1 0 0 -1 1 0 0 -1 2 0 0 -2 1 0 0 -1c1,0 1,0 1,0l0 -1 -1 -1 0 -1 -1 0 0 -1 -2 0 0 -2 -1 0 0 -1 -1 0 0 1 -2 0 0 2 -1 0 0 1 -1 0 -1 2 -1 0 0 1 -1 0 0 1 1 0 0 2 1 0c1,-1 0,-1 0,-2l2 0 0 -1 1 0 0 -1 2 -1c0,-1 0,-1 1,-1l0 1c0,0 1,0 1,0 0,1 0,1 0,1l0 1 -1 0 0 1 -1 0 0 2 -2 0 0 1 -1 0 0 1 -1 0 -1 2 -1 0 0 -2 -1 0 0 -1 -2 0 0 -1 -1 0 0 -2 -1 0 0 -1c0,0 0,0 0,0 0,0 1,0 1,0l0 -2 1 0 0 -1 2 0 0 -1 1 0 0 -2 1 0 0 -1 2 0 0 -1c1,0 1,0 1,-1l0 -1 -1 0 0 -1 -2 0 0 -1 -1 -1 0 -1 -1 0 0 -1 -1 0 -1 1 -1 0 0 1 -1 1 0 1 -2 0 0 1 -1 0 0 2 -2 0 1 1 1 0 0 1 1 0c0,0 0,0 0,-1l2 0 0 -1 1 0 0 -2 1 0 1 -1 0 0 1 1 1 0 0 1c0,1 0,0 0,1 0,0 -1,0 -1,0l0 1 -2 0 0 1 -1 0 0 2 -1 0 0 1 -2 0c0,0 0,1 0,1 0,1 0,0 0,1l-1 0 0 -2 -2 0 0 -1 -1 0 0 -2 -1 0 0 4 1 0 0 2 1 0 1 1 1 0 0 2 1 0 0 1 2 0 0 1 1 0 0 2 1 0 0 1 2 0 0 1 1 0 0 2 1 0 1 1 -2 0 0 2 -1 0 0 1 -2 0 0 1 -1 0 0 2 -1 0 0 1 -2 0 0 2 -1 0 0 1 -1 0 -1 1 -1 0 0 2 -1 0 0 4 1 0c0,-1 0,-1 0,-2l1 0 0 -1 2 0 0 -1 1 0c0,0 0,0 0,0 0,0 0,1 0,1l2 0 0 1 1 0 0 2 1 0 0 1 2 0 0 1 1 1 0 1 -1 0 -1 1 0 0c-1,0 -1,0 -1,0 0,0 0,-1 0,-1l-1 0 0 -1 -1 0 0 -2 -2 0c0,-1 0,-1 0,-1l-1 0 0 1 -1 0 0 1 1 0 0 2 1 0 0 1 2 0 0 2 1 0 0 1 1 0 0 1 2 0 0 -1 1 0 0 -1 1 0 0 -2 2 0 0 -1c1,0 1,0 1,0l0 -1c0,-1 0,0 -1,0l0 -2 -2 0 0 -1 -1 0 0 -2 -1 0 0 -1 -2 0 0 -1 -1 0 0 -2 -1 0 0 -1c0,0 0,0 0,0 0,0 1,0 1,0l0 -1 1 -1 0 -1 2 0 0 -1 1 0 0 -2 1 0 1 2 1 0 0 1 1 0 0 1 2 0 0 2 1 0 0 1 1 1 0 0 -1 1zm0 99l0 1 -1 0 0 -1 -2 0 0 -2 -1 0 0 -1 -2 0 0 -1 -1 0 0 1 -1 0 0 1 1 0 0 2 1 0 1 1 1 0 0 1 1 0 0 2 2 0 0 1 1 0 0 -1 1 0 0 -2 2 0 0 -1 1 0 0 -1 1 0 0 -1c0,-1 0,-1 -1,-1l0 -1 -1 0 0 -1 -2 0 0 -2 -1 0 0 -1 -1 0 0 -1 -2 -1 0 -1 -1 0 0 -1 1 0 0 -2 2 0 0 -1c-1,0 -1,0 -2,0l0 -1 -1 -1 0 -1 1 0 0 -1 2 0 0 -2 1 0 0 -1 1 0 0 -1 2 0 0 -2 1 0 0 -1 1 0 0 -1c0,-1 0,0 -1,0l0 -2 -1 0 0 -1 -2 0 0 -1 -1 -1c0,-1 0,0 0,-1l-1 0 0 1 -2 1 0 1 -1 0 0 1 -1 0 -1 2 -1 0 0 1 -1 0 0 1 1 0 0 2 1 0 0 -2 2 0 0 -1 1 0 0 -1 2 0 0 -2 1 0 0 1c0,0 1,1 1,1 0,0 0,0 0,0l0 1 -1 0 0 1 -1 0 0 2 -2 0 0 1 -1 0 0 1 -1 1 -1 1 -1 0 0 -1 -1 -1 0 -1 -2 0 0 -1 -1 0 0 -2 -1 0 0 -1 1 0 0 -1 1 0 0 -2 2 0 0 -1 1 0 0 -2 1 0 0 -1 2 0 0 -1 1 0 0 -1c0,-1 0,-1 -1,-1l0 -1 -2 0 0 -1 -1 0 0 -2 -1 0 -1 -1 0 0 -1 1 -1 0 0 2 -1 0 0 1 -2 0 0 1 -1 0 0 2 -1 0 -1 1 2 0 0 1 1 0 0 -1 2 0 0 -1 1 0 0 -2 1 0 1 -1 0 0c1,0 1,0 1,1 0,0 0,0 0,0l1 1 0 0 -1 1 0 1 -2 0 0 1 -1 1 0 1 -1 0 0 1 -2 0 0 2 -1 0c0,-1 0,0 0,-1 0,0 0,-1 0,-1l-2 0 0 -1 -1 0c0,-1 0,-1 0,-2l-1 1 0 3 1 1 0 1 1 0 1 1 1 0 0 2 1 0 0 1 2 0 0 1 1 0 0 2 1 0 0 1 2 0 0 1 1 1 0 1 1 0 0 1c0,0 1,0 0,0 0,0 -1,0 -1,0l0 2 -1 0 0 1 -2 0 0 1 -1 1 0 1 -1 0 0 1 -2 0 0 2 -1 0 0 1 -1 0 -1 1 -1 0 0 2 -1 0 0 4 1 0 0 -2 1 0 0 -1 2 0 0 -1 1 0 0 1 2 0 0 1 1 0 0 2 1 0 0 1 2 0 0 2c0,0 0,0 1,0 0,0 0,0 0,0l0 1 -1 0 0 1 -1 0c-1,0 -1,0 -1,-1l-1 0 0 -1 -1 0 0 -2 -2 0c0,0 0,0 0,-1 0,0 0,0 0,0l-1 0 0 1 -1 0 -1 1 2 1 0 1 1 0 0 1 2 0 0 2 1 0 0 1 1 0 0 1 2 0 0 -1 1 0 0 -1 1 0 0 -2 2 0 0 -1 1 0 0 -1c0,0 0,0 -1,0l0 -2 -2 0 0 -1 -1 0 0 -1 -1 -1 0 -1 -2 0 0 -1 -1 0 0 -2c0,0 -1,0 -1,0 0,0 0,0 0,0l0 -1 1 0 0 -1 1 0 0 -2 2 0 0 -1 1 0 0 -2 1 0 1 2 1 0 0 1 1 0 0 2 2 0 0 1 1 0 0 1 1 1 0 0 -1 1zm8 -214l-1 0 0 2 -1 0 0 1 1 0 0 2 1 -1c0,0 0,1 0,0 0,0 0,-1 0,-1 2,0 1,0 2,0l0 -1 -2 0 0 -2zm0 101c0,-1 0,-1 0,-1l-1 0 0 1 -1 0 0 1c0,0 0,0 1,0l0 2 1 0c0,-1 0,-1 0,-2 1,0 1,0 2,0l0 -1 -2 0zm2 100l0 -1 -2 0c0,-1 0,-1 0,-1l-1 0 0 1 -1 0 0 1 1 0 0 2 1 0 0 -2 2 0zm-2 98c0,0 0,-1 0,-1 0,0 0,0 0,0l-1 0 0 1 -1 0 0 1 1 0 0 2 1 0 0 -2 2 0 0 -1c-1,0 -1,0 -2,0zm8 -296c2,0 1,0 2,0l0 -1 -2 0 0 -2 -1 0 0 -1 -1 0 0 -1 -2 0 0 -2 -1 0 0 -1 -1 0 -1 -1 -1 0 0 -2 -1 0 0 2 -1 0 0 1 -2 0 0 1 -1 0 0 2 -2 0 0 1 -1 0 0 1 1 0 1 2 0 0c1,-1 1,-1 1,-2l1 0 0 -1 1 0 0 -1 2 0c0,-1 0,-1 0,-2l1 0 0 2 2 0 0 1 1 0 0 1 1 0 0 2 2 0 0 1 -2 0 0 2 -1 0 0 1 -1 0 0 1 -2 0 0 2 -1 0 0 -2 -2 0 0 -1 -1 0 0 -1 -1 0 0 -2 -2 0 0 2 -1 0 0 1 1 0 0 1 2 0 0 2 1 0 0 1 1 0 1 1 1 0 0 2 1 0c0,-1 0,-1 0,-2l2 0 0 -1 1 0 0 -1 1 0 0 -2 2 0 0 -1 1 0 0 -1 1 -1 0 -1zm0 99c1,0 1,0 2,0l0 -1c-1,0 -1,0 -2,0l0 -1 -1 0 0 -2 -1 0 0 -1 -2 0 0 -2 -1 0 0 -1 -1 0 0 -1 -2 0c0,-1 0,-1 0,-2l-1 0 0 2 -1 0 -1 1 -1 0 0 1 -1 0 0 2 -2 0 0 1 -1 0 0 1 1 0 1 2 0 0c1,-1 1,-1 1,-1l1 -1 0 -1 1 0 0 -1 2 0 0 -2 1 0 0 2 2 0 0 1 1 0 0 1 1 0 0 2c0,0 1,0 1,0 1,0 0,0 1,0l0 1 -2 0 0 2 -1 0 0 1 -1 0 0 1 -2 0c0,1 0,1 0,1 0,1 0,0 0,1l-1 0c0,-1 0,0 0,-1 0,0 0,0 0,-1l-2 0 0 -1 -1 0 0 -1 -1 0 0 -2 -2 0 0 2 -1 0 0 1 1 0 0 1 2 0 0 2 1 0 0 1 1 0 1 1 1 0 0 2 1 0c0,-1 0,0 0,-1l2 -1 0 -1 1 0 0 -1 1 0 0 -2 2 0 0 -1 1 0 0 -1 1 0 0 -2zm2 99l0 -1c-1,0 0,0 -2,0l0 -1 -1 0 0 -2 -1 0 0 -1 -2 0 0 -1 -1 -1 0 -1 -1 0 0 -1 -2 0c0,-1 0,-1 0,-2l-1 0 0 2 -1 0 -1 1 -1 0 0 1 -1 1 0 1 -2 0 0 1 -1 0 0 1 1 1 1 1 1 0 0 -1 1 0 0 -2 1 0 0 -1 2 0c0,0 0,-1 0,-1 0,0 0,0 0,-1l1 0 0 2 2 0 0 1 1 0 0 2 1 0 0 1c2,0 1,0 2,0l0 1 -2 0 0 2 -1 0 0 1 -1 0 0 1 -2 1 0 1 -1 0c0,0 0,0 0,-1 0,0 0,0 0,0l-2 -1 0 -1 -1 0 0 -1 -1 0c0,-1 0,-1 -1,-2l-1 0 0 2 -1 0 0 1 1 0 0 1 2 0 0 2 1 0 0 1 1 0 1 2 1 0 0 1 1 0 0 -1 2 0 0 -2 1 0 0 -1 1 0 0 -2 2 0 0 -1 1 0 0 -1 1 0 0 -2 2 0zm-2 105l-4 0 0 -1 2 0 0 -2 1 0 0 -1 1 0 0 -2 2 0 0 -1c-1,0 0,0 -2,0l0 -1 -1 0 0 -2 -1 0 0 -1 -2 0 0 -1 -1 0 0 -2 -1 0 0 -1 -2 0 0 -2 -1 0 0 2 -1 0 -1 1 -1 0 0 2 -1 0 0 1 -2 0 0 1 -1 0 0 2 1 0 0 1 2 0 0 -1 1 0 0 -2 1 0 0 -1 2 0 0 -1 1 0c0,0 0,0 0,0 0,0 0,1 0,1l2 0 0 1 1 0 0 2 1 0 0 1c1,0 1,0 1,0 1,0 0,0 1,0l0 1 -2 1 0 1 -1 0 0 1 -1 0 0 2 -2 0 0 1 -1 0 0 -1 -2 0 0 -2 -1 0 0 -1 -1 0c0,0 0,-1 0,-1 0,0 0,0 -1,-1l-1 0 0 2 -1 0 0 1 1 0 0 2 2 0 0 1 -4 0 0 -1 -2 0 0 -2 -1 0 0 -1 1 0 0 -2 2 0 0 -1c-1,0 -1,0 -2,0l0 -1 -1 -1 0 -1 1 0 0 -1 2 0 0 -1 1 0 0 -2 1 0 0 -1 2 0 0 -2 1 0 0 -1 1 0 0 -1c0,0 0,0 -1,0l0 -2 -1 0 0 -1 -2 0 0 -1 -1 0c0,-1 0,-1 0,-1 0,-1 0,-1 0,-1l-1 0 0 2 -2 0 0 1 -1 0 0 1 -1 0 -1 2 -1 0 0 1 -1 0 0 1 1 0 0 2 1 0 0 -2 2 0 0 -1 1 0 0 -1 2 0 0 -2 1 0 0 2c1,0 1,0 1,0l0 1 -1 0 0 1 -1 1 0 1 -2 0 0 1 -1 0 0 2 -1 0 -1 1 -1 0 0 -1 -1 0 0 -2 -2 0 0 -1 -1 0 0 -2 -1 0 0 -1 1 0 0 -1 1 0 0 -2 2 0 0 -1 1 0 0 -1 1 0 0 -2 2 0 0 -1 1 0 0 -1 -1 -1 0 -1 -1 0 -1 -1 -1 0 0 -2 -1 0c0,-1 0,-1 -1,-1l-1 0 0 1 -1 0 0 2 -1 0 0 1 -2 0 0 1 -1 1 0 1 -1 0 -1 1 2 0 0 2 1 -1 0 -1 2 0 0 -1 1 0 0 -2 1 0 1 -1 0 0 1 1c1,0 1,0 1,1l0 1 -1 0 0 1 -2 0 0 2 -1 0 0 1 -1 0 0 1 -2 0 0 2 -1 0 0 -2 -2 0 0 -1 -1 0 0 -1 -1 0 0 4 1 0 0 1 1 0 1 1 1 0 0 2 1 0 0 1 2 0 0 2 1 0 0 1 1 0 0 1 2 0 0 2 1 0 0 1c1,0 1,0 1,0l0 1 -1 1 0 1 -1 0 0 1 -2 0 0 2 -1 0 0 1 -4 0 0 -1 1 0 0 -2 1 0 1 -1 1 0 0 -2 1 0 0 -1c0,0 0,0 -1,0l0 -1 -1 0 0 -2 -2 0 0 -1 -1 0 0 -1 -2 0 0 -2 -1 0 0 -1 -1 0 0 4 1 0 0 1 1 0 1 2 1 0 0 1 1 0 0 1 -1 1 0 1 -2 0 0 1 -1 0 0 2 -1 0 0 1 -2 0 0 -352 2 0 0 1 1 0 0 -1 6 0 0 1 -2 0 0 1 -1 0 0 2 -1 0 -1 1 -1 0 0 1 -1 1 0 1 1 0 0 1 1 0 0 2 2 0 0 1 1 0 0 1 2 0 0 2 1 0 0 1 1 0 0 1 2 1 0 1 1 0 0 1 1 0 0 2 2 0 0 1 1 0 0 1 2 0 0 2 1 0 0 1 1 0 0 1 2 1 0 1 1 0 0 1 1 0 1 2 1 0 0 1 1 0 0 1 2 0 0 2 1 0 0 1 1 0 0 1 2 1 0 1 1 0 0 1 1 0 1 2 1 0 0 1 1 0 0 1 2 0 0 2 1 0 0 1 -1 0 0 2 -2 0 0 1 -1 0 0 1 -1 0 0 2 -2 0 0 1 -1 0 0 1 -2 0 0 2 -1 0 0 1 -1 0 0 2 -2 0 0 1 -1 0 0 1 -1 0 0 2 -2 0 0 1 -1 0 0 1 -2 0 0 2 -1 0 0 1 -1 0 0 2 -2 0 0 1 -1 0 0 1 -1 0 0 2 -2 0 0 1 -1 0 0 1 -2 1 0 1 -1 0 0 1 -1 0 0 2 -2 0 0 1 -1 0 0 1 -1 0 0 2 -2 0 0 1 -1 0 0 1 1 0 0 2 1 0 0 1 2 0 0 2 1 0 0 1 2 0 0 1 1 1 0 0 -1 1 0 1 -2 0 0 1 -1 1 0 1 -1 0 -1 1 -1 0 0 2 -1 0 0 1 1 0 0 1 1 0 1 2 1 0 0 1 1 0 0 1 2 0 0 2 1 0 0 1 1 0 0 2 2 0 0 1 1 0 0 1 1 0 1 2 1 0 0 1 1 0 0 1 2 0 0 2 1 0 0 1 1 0 0 2 2 0 0 1 1 0 0 1 1 0 1 2 1 0 0 1 1 0 0 1 2 0 0 2 1 0 0 1 1 0 0 2 2 0 0 1 1 0 0 1 1 0 1 2 1 0 0 1 1 0 0 1 2 0 0 2 1 0 0 1 -1 0 0 2 -2 0 0 1 -1 0 0 1 -1 0 0 2 -2 0 0 1 -1 0 0 2 -2 0 0 1 -1 0 0 1 -1 0 0 2 -2 0 0 1 -1 0 0 1 -1 0 -1 2 -1 0 0 1 -1 0 0 2 -2 0 0 1 -1 0 0 1 -1 0 0 2 -2 0 0 1 -1 0 0 1 -1 1 0 1 -2 0 0 1 -1 0 0 2 -2 0 0 1 -1 0 0 1 -1 0 0 2 -2 0 0 1 -1 0 0 1 -1 1 -1 1 -1 0 0 1 -1 0 0 1 1 1 0 1 1 0 1 1 1 0 0 2 1 0 0 1 2 0 0 1 1 1 0 1 -1 0 0 1 -2 0 0 2 -1 0 0 1 -1 0 -1 1 -1 0 0 2 -1 0 0 1 1 0 0 1 1 0 1 2 1 0 0 1 1 0 0 1 2 1 0 1 1 0 0 1 1 0 0 2 2 0 0 1 1 0 0 1 1 0 1 2 1 0 0 1 1 0 0 2 2 0 0 1 1 0 0 1 1 0 0 2 2 0 0 1 1 0 0 1 1 0 1 2 1 0 0 1 1 0 0 2 2 0 0 1 1 0 0 1 1 0 0 2 2 0 0 1 1 0 0 1 1 0 1 2 1 0 0 1 1 0 0 2 2 0 0 1c0,0 0,0 0,0 1,0 1,0 1,0l0 1 -1 0 0 2 -2 0 0 1 -1 0 0 1 -1 1 -1 1 -1 0 0 1 -1 0 0 2 -2 0 0 1 -1 0 0 1 -1 0 0 2 -2 0 0 1 -1 0 0 1 -1 1 -1 1 -1 0 0 1 -1 0 0 2 -2 0 0 1 -1 0 0 1 -1 0 0 2 -2 0 0 1 -1 0 0 1 -1 1 -1 1 -1 0 0 1 -1 0 0 2 -2 0 0 1 -1 0 0 1 -1 0 0 2 -2 0 0 1 -1 0 0 1 -1 1 -1 1 -1 0 0 1 -1 0 0 2 1 0 0 1 1 0 1 1 1 0 0 2 1 0 0 1 2 0 0 1 1 1 0 1 -1 0 0 1 -2 0 0 2 -1 0 0 1 -2 0 0 1 -1 1 0 1 -1 0 0 1 1 0 0 1 1 1 1 1 1 0 0 1 1 0 0 2 2 0 0 1 1 0 0 1 1 0 0 2 2 0 0 1 1 0 0 1 1 1 1 1 1 0 0 1 1 0 0 2 2 0 0 1 1 0 0 1 1 0 0 2 2 0 0 1 1 0 0 1 1 1 1 1 1 0 0 1 1 0 0 2 2 0 0 1 1 0 0 1 1 0 0 2 2 0 0 1 1 0 0 2 1 0 1 1 1 0 0 1 1 0 0 2 2 0 0 1c0,0 0,0 0,0 1,0 1,0 1,0l0 1 -1 1 0 1 -2 0 0 1 -1 0 0 2 -1 0 -1 1z"/>
   <path class="fil0" d="M44 33l0 -1 -2 0 0 -1 -1 0 0 -1 -1 0 0 6 1 0c0,0 0,0 0,0 0,0 0,-1 0,-1l1 0 0 -1 2 -1zm-2 50c1,0 1,0 1,0 1,0 1,0 1,0l0 -1 -2 0 0 -2 -1 0 0 -1 -1 0 0 7 1 0c0,-1 0,0 0,-1l1 0 0 -2zm0 50c1,0 1,0 1,0 1,0 1,0 1,-1l0 -1 -2 0 0 -1 -1 0 0 -1 -1 0 0 6 1 0c0,0 0,0 0,-1l1 0 0 -1zm2 49l0 -1c-1,0 -1,0 -2,0l0 -1 -1 0 0 -2 -1 0 0 7 1 0 0 -1 1 0 0 -2 2 0zm0 50l0 -1 -2 -1 0 -1 -1 0c0,-1 0,-1 0,-1l-1 0 0 6 1 1 0 -2 1 0 0 -1 2 0zm0 49l0 -1 -2 0 0 -1 -1 0c0,-2 0,-1 0,-2l-1 0 0 7 1 0 0 -1 1 0 0 -2 2 0zm0 50l0 -1c0,0 0,0 -1,0 0,0 0,0 -1,0l0 -2 -1 0 0 -1 -1 0c-1,1 0,5 0,7l1 0 0 -2 1 0 0 -1 2 0zm9 -273c1,0 1,0 1,0 1,0 1,0 1,0l0 -1 -2 0 0 -1 -1 0 0 -2 -1 0 0 -1 -2 0 0 -1 -1 0 0 -2 -1 0 0 2 -2 0 0 1 -1 0 0 1 -1 0 -1 2 -1 0 0 1 -1 0 0 1 1 0 0 2 1 0 0 1 2 0 0 1 1 1 0 1 2 0 0 1 1 0c0,0 0,0 0,0 0,0 0,-1 0,-1l1 0 0 -1 2 -1 0 -1 1 0 0 -1 1 0 0 -2zm0 50c1,0 1,0 2,0l0 -1 -2 0 0 -2 -1 0 0 -1 -1 0 0 -1 -2 -1 0 -1 -1 0 0 -1 -1 0 0 1 -2 0 0 1 -1 1 0 1 -2 0 0 1 -1 0 0 2 -1 0 0 1 1 0 0 1 1 0 0 2 2 0 0 1 1 0 0 1 2 0 0 2 1 0c0,-1 0,0 0,-2l1 0 0 -1 2 0 0 -1 1 0 0 -2 1 0 0 -1zm0 50c1,-1 1,0 2,-1l0 -1 -2 0 0 -1 -1 0 0 -2 -1 0 0 -1 -2 0 0 -1 -1 0 0 -2 -1 0 0 2 -2 0 0 1 -1 0 0 1 -1 1 -1 1 -1 0 0 1 -1 0 0 1 1 0 0 2 1 0 1 1 1 0 0 2 1 0 0 1 2 0 0 1 1 0 0 -1 1 0 0 -1 2 0 0 -2 1 0 0 -1 1 0 0 -1zm2 49l0 -1c-1,0 -1,0 -2,0l0 -2 -1 0 0 -1 -1 0 0 -1 -2 0 0 -2 -1 0c0,-1 0,-1 0,-1l-1 0 0 1 -2 0 0 2 -1 0 0 1 -2 0 0 1 -1 0 0 2 -1 0 0 1 1 0 0 1 1 0 1 2 1 0 0 1 1 0 0 1 2 1 0 1 1 0 0 -1 1 0 0 -2 2 0 0 -1 1 0 0 -2 1 0 0 -1 2 0zm0 49l0 0c0,-1 0,-1 -1,-1 0,0 0,0 -1,0l0 -1 -1 0 0 -1 -1 -1 0 -1 -2 0 0 -1 -1 0c0,-2 0,-1 0,-2l-1 0 0 2 -2 0 0 1 -1 0 0 1 -2 1 0 1 -1 0 0 1 -1 0 0 2 1 0 0 1 1 0 1 1 1 0 0 2 1 0 0 1 2 0 0 1 1 0 0 -1 1 0 0 -1 2 0 0 -2 1 0 0 -1 1 0 0 -1 2 -1zm0 50l0 -1c-1,0 -1,0 -2,0l0 -2 -1 0 0 -1 -1 0 0 -1 -2 0 0 -2 -1 0c0,-1 0,-1 0,-1l-1 0 0 1 -2 0 0 2 -1 0 0 1 -2 0 0 1 -1 1 0 1 -1 0 0 1 1 0 0 1 1 1 1 1 1 0 0 1 1 0 0 2 2 0 0 1 1 0 0 -1 1 0 0 -2 2 0 0 -1 1 0 0 -1 1 -1 0 -1 2 0zm0 -289l0 -4 -1 0 -1 1 -1 0 0 2 -1 0 0 1 -2 0 0 2 -1 0c0,1 0,0 0,1l-1 0 -1 -1 -1 -1 0 -1 -1 0 0 -1 -2 0 0 -2 -1 0 0 -1 -1 0 0 4 1 0 0 1 1 0 0 2 2 0 0 1 1 0 0 2 2 0 0 1 1 0c0,0 0,0 0,-1 0,0 0,0 0,0l1 0 0 -2 2 0 0 -1 1 0 0 -1 1 -1 0 -1 2 0zm0 8l0 -4 -1 0 0 2 -2 0 0 1 -1 0 0 1 -2 0 0 2 -1 0c0,0 0,1 0,1 0,0 0,0 0,0l-1 0 -1 -1 -1 0 0 -2 -1 0 0 -1 -2 0 0 -1 -1 0 0 -2 -1 0 0 4 1 0 0 2 1 0 0 1 2 0 0 1 1 0 0 2 2 0 0 1 1 0 0 -1 1 0 0 -1 2 -1 0 -1 1 0 0 -1 1 0 0 -2 2 0zm-3 9l0 1 1 0 1 1 1 0 0 -6 -1 0 -1 1 -1 0 0 1 -1 0 0 2 1 0zm0 8l0 1 1 0 1 2 1 0 0 -4 -2 -1 0 -1 -1 0 0 -1 -1 0 0 -2 -2 0 0 -1 -1 0 0 -1 -1 0 0 1 -2 0 0 1 -1 0 0 2 -2 0 0 1 -1 0 0 2 -1 0 0 4 1 0 0 -2 1 0 0 -1 2 0 0 -1 1 -1 0 -1 2 0c0,-1 -1,-1 1,-1l0 1 1 0 0 1 2 1 0 1 1 0zm0 8l0 1 1 1 1 1 1 0 0 -4 -2 0 0 -2 -1 0 0 -1 -1 0 0 -1 -2 0 0 -2 -1 0 0 -1 -1 0 0 1 -2 0 0 2 -1 0 0 1 -1 0 -1 1 -1 1 0 1 -1 0 0 4 1 0 0 -1 1 -1 0 -1 2 0 0 -1 1 0 0 -2 2 0 0 -1 1 0 0 1 1 0 0 2 2 0 0 1 1 0zm3 17l0 -4 -1 0 -1 1 -1 0 0 1 -1 0 0 2 -2 0 0 1 -1 0c0,0 0,1 0,1 0,0 0,0 0,0l-1 0 -1 -1 -1 0 0 -1 -1 0 0 -2 -2 0 0 -1 -1 0 0 -1 -1 0 0 4 1 0 0 1 1 0 0 1 2 0 0 2 1 0 0 1 2 0 0 2 1 0c0,-1 0,-1 0,-1 0,0 0,-1 0,-1l1 0 0 -1 2 0 0 -2 1 0 0 -1 1 0 0 -1 2 0zm0 8l0 -4 -1 0 -1 1 -1 0 0 2 -1 0 0 1 -2 0 0 1 -1 0c0,0 0,1 0,1 0,1 0,0 0,1l-1 0c0,-1 0,0 0,-1 0,0 -1,-1 -1,-1l-1 0 0 -1 -1 0 0 -1 -2 0 0 -2 -1 0 0 -1 -1 0 0 4 1 0 0 1 1 0 0 2 2 0 0 1 1 0 0 1 2 0 0 2 1 0 0 -2 1 0 0 -1 2 0 0 -1 1 0 0 -2 1 0 0 -1 2 0zm-3 8l0 1 1 1 1 1 1 0 0 -7 -1 0 -1 1 -1 1 0 1 -1 0 0 1 1 0zm0 8l0 2 1 0 1 1 1 0 0 -4 -2 0 0 -1 -1 0 0 -2 -1 0 0 -1 -2 0 0 -1 -1 0 0 -2 -1 0 0 2 -2 0 0 1 -1 0 0 1 -1 0 -1 2 -1 0 0 1 -1 0 0 4 1 0c0,0 0,0 0,-1l1 0 0 -2 2 0 0 -1 1 0 0 -1 2 0 0 -2 1 0 0 2 1 0 0 1 2 0 0 1 1 0zm0 9l0 1 1 0 1 1 1 0 0 -4 -2 0 0 -1 -1 0 0 -1 -1 0 0 -2 -2 0 0 -1 -1 0 0 -1 -1 -1 0 2 -2 0 0 1 -1 0 0 2 -2 0 0 1 -1 0 0 1 -1 0 0 4 1 0 0 -1 1 0 0 -1 2 0 0 -2 1 0 0 -1 2 0c0,0 0,-1 0,-1 0,0 0,0 0,0l1 0 0 1 1 0 0 1 2 0 0 2 1 0zm1 16c1,0 1,0 2,0l0 -4 -1 0 -1 1 -1 1 0 1 -1 0 0 1 -2 0 0 2 -1 0c0,1 0,1 0,1l-1 0 -1 -1 -1 0 0 -2 -1 0 0 -1 -2 0 0 -1 -1 -1 0 -1 -1 0 0 4 1 0 0 2 1 0 0 1 2 0 0 1 1 0 0 2 2 0 0 1 1 0c0,-1 0,0 0,-1l1 0 0 -2 2 0 0 -1 1 0 0 -1 1 0 0 -2zm0 9c1,-1 1,0 2,-1l0 -4 -1 0 -1 2 -1 0 0 1 -1 0 0 1 -2 1 0 1 -1 0c0,0 0,1 0,1 0,0 0,0 0,0l-1 0 -1 -1 -1 0 0 -1 -1 -1 0 -1 -2 0 0 -1 -1 0 0 -2 -1 0 0 4 1 0 0 2 1 0 1 1 1 0 0 2 1 0 0 1 2 0 0 1 1 0c0,0 0,0 0,-1l1 0 0 -1 2 0 0 -2 1 0 0 -1 1 0 0 -1zm-1 8l0 1 1 0 1 1 1 0 0 -6 -1 0 -1 1 -1 0 0 1 -1 0 0 2 1 0zm0 8l0 1 1 0 1 2 1 0 0 -4 -2 0 0 -2 -1 0 0 -1 -1 0 0 -1 -2 -1 0 -1 -1 0 0 -1 -1 0 0 1 -2 0 0 2 -1 0 0 1 -2 0 0 1 -1 0 0 2 -1 0 0 4 1 0c0,-1 0,-1 0,-2l1 0 0 -1 2 0 0 -1 1 0 0 -2 1 0 1 -1 1 0c0,0 0,0 0,1l1 0 0 2 2 0 0 1 1 0zm0 8l0 2 1 0 1 1 1 0 0 -4 -2 0 0 -1 -1 -1 0 -1 -1 0 0 -1 -2 0 0 -2 -1 0 0 -1 -1 0 0 1 -2 0 0 2 -1 0 0 1 -1 0 -1 2 -1 0 0 1 -1 0 0 4 1 0c0,-1 0,0 0,-1l1 0 0 -2 2 0 0 -1 1 0 0 -1 2 -1c0,0 -1,0 0,-1l1 0c0,0 0,0 0,1l1 0 0 2 2 0 0 1 1 0zm3 16l0 -3 -1 0 -1 1 -1 0 0 1 -1 1 0 1 -2 0 0 1 -1 0c0,0 0,1 0,1 0,1 0,0 0,1l-1 0 -1 -2 -1 0 0 -1 -1 0 0 -2 -2 0 0 -1 -1 0 0 -1 -1 0 0 4 1 0 0 1 1 0 1 1 1 0 0 2 1 0 0 1 2 0 0 2 1 0c0,-1 0,-1 0,-2l1 0 0 -1 2 0 0 -1 1 -1 0 -1 1 0 0 -1 2 -1zm0 9l0 -4 -1 0 -1 1 -1 0 0 2 -1 0 0 1 -2 0 0 1 -1 1 0 1 -1 0 -1 -2 -1 0 0 -1 -1 0 0 -1 -2 0 0 -2 -1 0 0 -1 -1 0 0 4 1 0 0 1 1 0 0 2 2 0 0 1 1 0 0 1 2 0 0 2 1 0 0 -1 1 -1 0 -1 2 0 0 -1 1 0 0 -2 1 0 0 -1 2 0zm-3 8l0 2 1 0 1 1 1 0 0 -7 -1 0 -1 2 -1 0 0 1 -1 0 0 1 1 0zm0 9l0 1 1 0 1 1 1 0 0 -4c-1,0 -1,0 -2,0l0 -1 -1 0 0 -2 -1 0 0 -1 -2 0 0 -1 -1 0 0 -2 -1 0 0 2 -2 0 0 1 -1 0 0 1 -2 1 0 1 -1 0 0 1 -1 0 0 4 1 0 0 -1 1 0 0 -1 2 -1 0 -1 1 0 0 -1 1 0 1 -2 1 0c0,1 0,1 0,2l1 0 0 1 2 0 0 1 1 1zm0 8l0 1 1 0 1 2 1 -1 0 -3c-1,-1 -1,-1 -2,-1l0 -1 -1 0 0 -1 -1 0 0 -2 -2 0 0 -1 -1 0c0,-1 0,-1 0,-1l-1 0 0 1 -2 0 0 1 -1 0 0 2 -2 0 0 1 -1 0 0 1 -1 1 0 3 1 0 0 -1 1 0 0 -1 2 0 0 -2 1 0 0 -1 1 0 1 -1 1 0c0,0 0,0 0,0 0,0 0,1 0,1l1 0 0 1 2 0 0 2 1 0zm3 16l0 -4 -1 0 -1 2 -1 0 0 1 -1 0 0 1 -2 0 0 2 -1 0 0 1 -1 0 0 -1 -2 0 0 -2 -1 0 0 -1 -2 0 0 -1 -1 0c0,-2 0,-1 0,-2l-1 0 0 4 1 0 0 2 1 0 1 1 1 0 0 1 1 0 0 2 2 0 0 1 1 0 0 -1 1 0 0 -2 2 0 0 -1 1 0 0 -1 1 0 0 -2 2 0zm0 8l0 -4 -1 0 -1 2 -1 0 0 1 -1 0 0 2 -2 0 0 1 -1 0 0 1 -1 0c-1,0 0,0 0,-1l-2 0 0 -1 -1 0 0 -2 -2 0 0 -1 -1 0c0,-1 0,-1 0,-2l-1 1 0 3 1 1 0 1 1 0 1 1 1 0 0 2 1 0 0 1 2 0 0 1 1 0 0 -1 1 0 0 -1 2 0 0 -2 1 0 0 -1 1 0 0 -1 2 -1zm-3 9l0 1 1 0 1 2 1 0 0 -7 -1 0 -1 1 -1 0 0 1 -1 1 0 1 1 0zm0 8l0 1 1 0 1 2 1 0 0 -4c-1,0 -1,0 -2,0l0 -2 -1 0 0 -1 -1 0 0 -1 -2 0 0 -2 -1 0c0,-1 0,-1 0,-1l-1 0 0 1 -2 0 0 2 -1 0 0 1 -2 0 0 1 -1 0 0 2 -1 0 0 4 1 0 0 -2 1 0 0 -1 2 0 0 -1 1 0 0 -2 1 0c1,-1 0,-1 2,-1l0 1 1 0 0 2 2 0 0 1 1 0zm0 8l0 2 1 0 1 1 1 0 0 -4 -2 0 0 -1 -1 0 0 -2 -1 0 0 -1 -2 0 0 -1 -1 -1c0,-1 0,0 0,-1l-1 0 0 1 -2 1 0 1 -1 0 0 1 -2 0 0 2 -1 0 0 1 -1 0 0 4 1 0 0 -1 1 0 0 -2 2 0 0 -1 1 0 0 -1 2 0 0 -2 1 0c0,1 0,1 0,2l1 0 0 1 2 0 0 1 1 0zm3 17l0 -4 -1 0 -1 1 -1 0 0 1 -1 1 0 1 -2 0 0 1 -1 0 0 2 -1 0c-1,-1 0,-1 0,-2l-2 0 0 -1 -1 0 0 -1 -2 -1 0 -1 -1 0c0,-1 0,-1 0,-1l-1 0 0 4 1 0 0 1 1 0 1 2 1 0 0 1 1 0 0 1 2 0 0 2 1 0 0 -2 1 0 0 -1 2 0 0 -1 1 0 0 -2 1 0 0 -1 2 0zm0 8l0 -4 -1 0 -1 1 -1 0 0 2 -1 0 0 1 -2 0 0 1 -1 1 0 1c-2,0 -1,0 -1,-1l-2 -1 0 -1 -1 0 0 -1 -2 0 0 -2 -1 0c0,-1 0,0 0,-1l-1 0 0 4 1 0 0 1 1 0 1 2 1 0 0 1 1 0 0 2 2 0 0 1 1 0 0 -1 1 0 0 -2 2 0 0 -1 1 0 0 -1 1 -1 0 -1 2 0zm-3 8l0 2 1 0 1 1 1 0 0 -7 -1 0 -1 2 -1 0 0 1 -1 0 0 1 1 0zm0 9l0 1 1 0 1 1 1 0 0 -4 -2 0 0 -1 -1 0 0 -1 -1 -1 0 -1 -2 0 0 -1 -1 0c0,-1 0,-1 0,-2l-1 0 0 2 -2 0 0 1 -1 0 0 1 -2 1 0 1 -1 0 0 1 -1 0 0 4 1 0 0 -1 1 0 0 -1 2 0 0 -2 1 0 0 -1 2 0 0 -1 1 -1c0,1 0,1 0,2l1 0 0 1 2 0 0 2 1 0zm0 8l0 1 1 0 1 2 1 0 0 -4 -2 0 0 -2 -1 0 0 -1 -1 0 0 -2 -2 0 0 -1 -1 0c0,0 0,-1 0,-1 0,0 0,0 0,0l-1 0 0 1 -2 0 0 1 -1 0 0 2 -2 0 0 1 -1 0 0 1 -1 1 0 4 1 0 0 -2 1 0 0 -1 2 0 0 -1 1 -1 0 -1 1 0 1 -1 1 0 0 1 1 0 0 1 2 0 0 2 1 0zm3 16l0 -4 -1 0 -1 2 -1 0 0 1 -1 0 0 1 -2 1 0 1 -1 0 0 1 -1 0c-1,0 0,0 0,-1l-2 0 0 -2 -1 0 0 -1 -2 0 0 -1 -1 0c0,-1 0,-1 0,-2l-1 0 0 4 1 0 0 2 1 0 1 1 1 0 0 1 1 1 0 1 2 0 0 1 1 0 0 -1 1 0 0 -1 2 -1 0 -1 1 0 0 -1 1 0 0 -2 2 0zm0 8l0 -3 -1 0 -1 1 -1 0 0 1 -1 0 0 2 -2 0 0 1 -1 0 0 1 -1 0 0 -1 -2 0 0 -1 -1 0 0 -2 -2 0 0 -1 -1 0 0 -1 -1 0 0 4 1 0 0 1 1 0 1 1 1 0 0 2 1 0 0 1 2 0 0 1 1 1 0 -2 1 0 0 -1 2 0 0 -2 1 0 0 -1 1 0 0 -1 2 -1zm-3 9l0 1 1 0 1 2 1 0 0 -7 -1 0 -1 1 -1 0 0 2 -1 0 0 1 1 0zm0 8l0 1 1 1 1 1 1 0 0 -4 -2 0 0 -2 -1 0 0 -1 -1 0 0 -1 -2 0 0 -2 -1 0c0,-1 0,-1 0,-1l-1 0 0 1 -2 0 0 2 -1 0 0 1 -2 0 0 1 -1 1 0 1 -1 0 0 4 1 0 0 -1 1 0 0 -2 2 0 0 -1 1 0 0 -2 1 0 1 -1 1 0 0 1 1 0 0 2 2 0 0 1 1 0zm0 8l0 2 1 0 1 1 1 0 0 -4 -2 0 0 -1 -1 0 0 -2 -1 0 0 -1 -2 0 0 -1 -1 0c0,-2 0,-1 0,-2l-1 0 0 2 -2 0 0 1 -1 0 0 1 -2 0 0 2 -1 0 0 1 -1 0 0 4 1 0 0 -1 1 0 0 -2 2 0 0 -1 1 0 0 -1 1 0 1 -2 1 0 0 2 1 0 0 1 2 0c0,2 0,1 1,1zm0 6l0 -1 -1 0 0 -2 -2 0 0 -1 -1 0c0,-1 0,-1 0,-2l-1 0 0 2 -2 0 0 1 -1 0 0 2 -2 0 0 1 -4 0 0 -352 2 0c0,1 0,2 0,2l1 0c0,0 0,0 0,-1l1 0 1 -1 4 0 0 1 -2 0 0 1 -1 0 0 2 -2 0 0 1 -1 0 0 1 -1 1c0,1 0,0 0,1l1 0 0 1 1 0 0 2 2 0 0 1 1 0 0 1 2 0 0 2 1 0 0 -2 1 0 0 -1 2 0 0 -1 1 0 0 -2 1 0 0 -1c2,0 1,0 2,0l0 -1 -2 -1 0 -1 -1 0 0 -1 -1 0 0 -2 -2 0 0 -1 -1 0 0 -1 4 0 0 1 1 0 1 1 1 0 0 -2 1 0 0 352 -4 0z"/>
   <path class="fil0" d="M84 204l1 0 0 -1 1 0 0 -1 2 -1 0 -1 1 0 0 -1 2 0 0 -1c-1,-1 -1,-1 -2,-1l0 -1 -1 0 0 -1 -2 0 0 -2 -1 0c0,-1 0,0 0,-1l-1 0 0 1 -2 0 0 2 -1 0 0 1 -1 0 0 1 -2 0 0 2 2 0 0 1 1 0 0 1 1 1 0 1 2 0 0 1zm26 25l0 -1 1 0 0 -2 2 0 0 -1 1 0 0 -1 1 0 0 -2 2 0 0 -1 1 0 0 -2 1 0 1 -1 1 0 0 -1 1 0 0 -2 2 0 0 -1 1 0 0 -1 1 -1 0 -1 2 0 0 -1 1 0 0 -2 1 0 0 -1 2 0 0 -1c-1,0 -1,0 -2,0l0 -2 -1 0 0 -1 -1 0 0 -1 -2 0 0 -2 -1 0 0 -1 -1 0c0,-2 0,-2 1,-2l0 -1 1 0 0 -1 2 0 0 -2 1 0 0 -1 1 0 0 -1c1,0 1,0 2,-1l0 -1c-1,0 -1,0 -2,0l0 -1 -1 0 0 -2 -1 0 0 -1 -2 0 0 -1 -1 0 0 -2 -1 0 0 -1 -2 0 0 -1 -1 0 0 -2 -2 0 0 -1 -1 0 0 -2 -1 0 0 -1 -2 0 0 -1 -1 0 0 -2 -1 0 0 -1 -2 0 0 -1 -1 0 0 -2 -1 0 -1 2 -1 0 0 1 -1 0 0 1 -2 0 0 2 -1 0 0 1 -1 0 0 1 -2 0 0 2 -1 0 0 1 -1 0 0 2 -2 0 0 1 -1 0 0 1 -2 0 0 2 -1 0 0 1 -1 0 0 1 -2 0 0 2 -1 0 0 1 -1 0 -1 1 2 1 0 1 1 0 0 1 2 0 0 2 1 0 0 1 1 0 0 1c2,0 2,0 2,2l-2 0 0 1 -1 0 0 2 -1 0 0 1 -2 0 0 1 -1 0 0 2 -1 0 -1 1 2 0 0 1 1 0 0 2 2 0 0 1 1 0 0 1 1 1 0 1 2 0 0 1 1 0 0 2 2 0 0 1 1 0 0 1 1 0 0 2 2 0 0 1 1 0 0 1 1 1 0 1 2 0 0 1 1 0 0 2 2 0 0 1 1 0zm1 -73l0 2 -1 0 0 1 -2 0 0 -1 -1 0 0 -2 -1 0c0,-1 0,-1 -1,-1l0 0c-1,0 -1,0 -1,1l-1 0 0 1 1 1 0 1 2 0 0 1 1 0 0 2 2 0 0 1 1 0c0,-1 0,0 0,-1l1 0 0 -2 2 0 0 -1 1 0 0 -1c1,-1 1,0 1,-1l0 -1 -1 0c0,-1 0,-1 0,-1l-1 0c0,0 0,0 0,1l-2 0zm-5 85l0 -1 1 0 0 -1 1 0 1 -2 1 0 0 2 1 0 0 1 2 0 0 1 1 0 0 -1 1 0 0 -1c0,0 0,0 -1,0l0 -2 -1 0 0 -1 -2 0 0 -1 -1 0 0 -2 -1 0 -1 2 -1 0 0 1 -1 0 0 1 -2 0 0 2 -1 0 0 1 1 0 0 1 2 0zm34 -42l0 -2 -1 0 0 -1 -2 0 0 -1 -1 0 0 -2 -1 0 -1 -1 0 0c-1,1 -1,0 -1,1l-1 0 0 2 -1 0 0 1 -2 0 0 1c-1,0 -1,0 -1,1l0 1 1 0 0 1 1 0 1 1 1 1 0 1 1 0 0 1 2 0 0 -1 1 0 0 -1 1 -1 0 -1 2 0 0 -1 1 0zm-3 -10c-1,0 0,0 -1,0l0 1 1 1 0 1 2 0 0 1 1 0 0 2 2 0 0 1 1 0 0 -1 1 0 0 -2 2 0 0 -1 1 0 0 -1 1 -1 0 -1 -1 0 0 -1 -1 0c0,0 0,0 0,1l-2 0 0 2 -1 0 0 1 -1 0 -1 -1 -1 -1 0 -1c0,0 0,0 1,0 0,0 0,0 0,0l0 -1 2 0 0 -2 1 0 0 -1 2 0 0 -1 1 0c0,0 0,0 0,0 0,0 0,1 0,1l1 0 0 1 2 0 0 2 1 0 0 1c0,0 1,0 1,0 1,0 0,0 1,0l0 1c-1,0 -1,0 -1,1 0,0 -1,0 -1,0l0 1 -1 0 0 1 -2 0 0 2 -1 0 0 1 -1 0 0 1c-1,0 -1,0 -2,1l0 1 2 0 0 1 1 0 0 1 1 1 0 1 2 0 0 1 1 0 0 2 2 0 0 1 -2 0 0 1 -1 1 0 1 -2 0 0 1 -1 0c0,0 0,1 0,1 0,1 0,0 0,1l-1 0c0,-1 0,0 0,-1 0,0 0,-1 0,-1l-2 0 0 -1 -1 0 0 -2 -1 0 -1 -1 -1 0 0 -1c0,0 0,0 1,0 0,0 0,0 0,0l1 -2 1 0 0 2 1 0 0 1 2 0 0 1 1 0 0 -1 1 0 0 -1 -1 0 0 -2 -1 0 0 -1 -2 0 0 -1 -1 0 0 -2 -1 0c-1,1 0,1 0,2l-2 0 0 1 -1 0 0 1 -2 0 0 2c-1,0 0,0 -1,0l0 1 1 0 0 1 2 0 0 2 1 0 0 1 2 0 0 1 1 1 0 1 1 0c0,1 0,1 -1,1l0 2 -1 0 0 1 -2 0 0 1 -1 1 -1 1 0 0 -1 -1 -1 -1 0 -1 -1 0 0 -1 -2 0 0 -2 -1 0 0 -1c0,0 0,0 0,0 0,0 1,0 1,0l0 -1 2 0 0 1 1 0 0 1 1 0 0 2 2 0 0 -2 1 0 0 -1 -1 0 0 -1 -2 0 0 -2 -1 0 0 -1 -1 0 -1 -2 0 0c-1,1 -1,1 -1,2l-1 0 0 1 -1 0 -1 2 -1 0 0 1c-1,0 -1,0 -1,0l0 1 1 0 0 2 2 0 0 1 1 0 0 1 1 0 0 2 2 0 0 1 1 0 0 1c0,0 0,0 -1,1 0,0 0,0 0,0l0 1 -2 0 0 1 -1 0 0 2 -1 0 -1 1 -1 0c0,0 0,0 0,0 0,0 0,-1 0,-1l-1 0 0 -2 -2 0 0 -1 -1 0 0 -1 -1 -1 0 -1 1 0 0 -1 1 0 0 1 2 0 0 2 1 0 0 1 1 0 0 -1 2 -1 0 -1 -1 0 -1 -1 -1 0 0 -2 -1 0 0 -1 -2 0 0 -1 -1 0c0,0 0,0 0,1l-1 0 0 1 -2 1 0 1 -1 0 0 1c-1,0 -1,0 -1,0l0 1 1 1 0 1 1 0 0 1 2 0 0 2 1 0 0 1 1 0 0 1 2 1 0 1 -2 0 0 1 -1 0 0 2 -1 0 0 1 -2 0c0,0 0,1 0,1 0,0 0,0 0,0l-1 0 0 -1 -1 0 -1 -1 -1 0 0 -2 -1 0 0 -1c0,0 -1,0 -1,0 -1,0 0,0 -1,0l0 -1c1,0 0,0 1,-1 0,0 1,0 1,0l0 -1 1 0c0,0 0,0 0,1 0,0 0,0 0,0l2 0 0 2 1 0 0 1 1 0 0 -1 2 0 0 -1c-1,-1 -1,-1 -2,-1l0 -1 -1 0 0 -1 -2 0 0 -2 -1 0 0 -1 -1 0 0 1 -2 0 0 2 -1 0 0 1 -1 0 0 1c-1,0 -1,0 -2,1l0 1 2 0 0 1 1 0 0 2 1 0 0 1 2 0 0 1 1 0 0 2 2 0 0 1 -2 0 0 1 -1 1 0 1 -2 0 0 1 -1 0 0 2 -1 0 0 -2 -2 0 0 -1 -1 0c0,-1 0,-1 0,-2l-1 1c-1,0 0,0 -1,1l-1 0 0 1 -1 0 -1 2 0 0 -1 -2 -1 0 0 -1 -1 0 0 -1 -2 -1 0 -1 -1 0 0 -1 1 0 0 -2 2 0 0 -1 1 0 0 -1 1 -1 0 -1 2 0 0 -1 1 0 0 -1c-1,-1 0,-1 -1,-1l0 -1 -2 0 0 -1 -1 0 0 -2 -1 0c0,-1 0,0 -1,-1l-1 0 0 1 -1 0 0 2 -1 0 -1 1 -1 0 0 1 -1 1 0 1 1 0 0 1 1 0 0 -1 2 0 0 -2 1 0c0,0 0,0 0,0 0,-1 0,-1 0,-1l1 0c0,0 0,0 1,1 0,0 0,0 0,0l1 0c0,2 0,2 -1,2l0 1 -2 0 0 2 -1 0 0 1 -1 0 -1 1c-1,0 -1,1 -1,-1l-1 0 0 -1 -2 0 0 -2 -1 0 0 -1 -1 0 0 -2 1 0 0 -1 1 0 0 -1 2 0 0 -2 1 0 0 -1 1 0 0 -1 2 -1 0 -1c-1,0 -1,0 -2,0l0 -1 -1 0 0 -2 -1 0 0 -1 -2 0c0,-1 0,-1 0,-1l-1 0 0 1 -1 0 0 1 -2 1 0 1 -1 0 0 1 -1 0 0 1 1 1 0 1 1 0 0 -1 2 0 0 -2 1 0c0,0 0,-1 0,-1 0,0 0,0 0,0l1 0 0 1 2 0 0 2 -2 0 0 1 -1 0 0 1 -1 0 0 2 -2 0 0 1 -1 0c0,0 0,0 0,0 0,0 0,-1 0,-1l-2 0 0 -2 -1 0 0 -1 -1 0 0 -1 -2 -1 0 -1 2 0 0 -1 1 0 0 -2 1 0 0 -1 2 0 0 -1 1 0 0 -2 2 0 0 -1c-1,0 -1,0 -2,0l0 -1 -1 0 0 -2 -2 0 0 -1 -1 0c0,-1 0,-1 0,-2l-1 0c0,1 0,1 0,2l-2 0 0 1 -1 0 0 2 -1 0 0 1 -2 0 0 1 2 0 0 2 1 0 0 -2 1 0 0 -1 2 0 0 -1 1 0 0 1 1 0 1 1 -2 0 0 2 -1 0 0 1 -2 0 0 1 -1 1 0 1 -1 0 0 -2 -2 0 0 -1 -1 0 0 -1 -2 0 0 -2 -1 0 0 -1 1 0 0 -1 2 0 0 -2 1 0 0 -1 2 0 0 -2 1 0 0 -1 1 0 0 -1c0,0 0,0 -1,0l0 -2 -1 0 0 -1 -2 0 0 -1 -1 0c0,-1 0,-1 0,-2l-1 0 -1 2 -1 0 0 1 -1 0 0 1 -2 0 0 2 -1 0 0 1 1 0 1 1 1 0 0 -1 1 0 0 -1 1 0 1 -2 1 0 0 2 1 0 0 1c0,0 0,0 0,0 0,0 -1,0 -1,0l0 1 -1 1 -1 1 -1 0 0 1 -1 0 0 2 -1 0 -1 -2 -1 0 0 -1 -1 0 0 -2 -2 0 0 -1c0,0 0,0 -1,0 0,0 0,0 0,0l0 -1 1 0 0 -2 2 0 0 -1 1 0 0 -1 1 -1 0 -1 2 0 0 -1 1 0 0 -1c-1,-1 0,-1 -1,-1l0 -1 -2 0 0 -1 -1 0 0 -2 -1 0 0 -1 -2 0 0 -1c0,0 -1,0 -1,0 0,-1 0,-1 0,-1l0 -1 1 0 0 -1 2 0 0 -2 1 0 0 -1 1 0c0,0 0,-1 0,-1 0,0 0,0 1,0l0 0 1 1 1 0 0 1 1 0 1 2 1 0 0 1 1 0 0 2 -1 0 0 1 -1 0 -1 -1 -1 0 0 -2 -1 0c0,-1 0,-1 -1,-1l-1 0 0 1 -1 0 0 1 1 0 0 2 2 0 0 1 1 0 0 2 1 0 1 1 1 0c0,-1 0,0 0,-1l1 0 0 -2 2 0 0 -1 1 0 0 -1 1 -1 0 -1c0,0 0,0 -1,0l0 -1 -1 0 0 -2 -2 0 0 -1 -1 0 0 -1 -2 0 0 -2 -1 0 0 -1 1 0 0 -1 2 -1 0 -1 1 0 0 -1 2 0c0,0 0,-1 0,-1 0,-1 0,0 0,-1l1 0 0 2 1 0 0 1 2 0 0 1 1 0 0 2 1 0 1 1c-1,0 -1,0 -1,0 0,0 -1,0 -1,0l0 2 -1 0 0 -2 -2 0 0 -1 -1 0c0,-1 0,-1 0,-1l-1 0 0 1 -2 0 0 1 2 0 0 2 1 0 0 1 1 0 0 1 2 0 0 2 1 0c0,-1 0,-1 0,-2l1 0 0 -1 2 0 0 -1 1 0 0 -2 2 0 0 -1c-1,0 -1,0 -2,0l0 -1 -1 0 0 -2 -2 0 0 -1 -1 0 0 -2 -1 0 0 -1 -2 0 0 -1 2 0 0 -2 1 0 0 -1 1 0 0 -1 2 -1 0 -1 1 0 0 1 2 0 0 2 1 0 0 1 1 0 0 2c0,0 1,0 1,0 1,0 0,0 1,0l0 1 -2 0c0,0 0,1 0,1 0,0 0,0 0,0l-1 0c0,0 0,0 0,0 0,0 0,-1 0,-1l-1 0 0 -1 -2 0c0,-1 0,-1 0,-2l-1 0 0 2 -1 0 0 1 1 0 0 1 1 0 0 2 2 0 0 1 1 0 0 2 1 -1c0,0 0,0 0,-1l2 0 0 -1 1 0 0 -2 1 0 0 -1 2 0 0 -1c-1,0 -1,0 -2,0l0 -2 -1 0 0 -1 -1 0 0 -1 -2 0 0 -2 -1 0 0 -1 -1 -1 0 0 1 -1 0 -1 1 0 0 -1 2 0 0 -2 1 0 0 -1 1 0 1 1 1 0 0 2 1 0 0 1 2 0 0 1 1 1 0 1 -1 0c0,0 0,1 0,1 -1,0 0,0 -1,0l-1 0 0 -1 -1 0 0 -2 -2 0 0 -1 -1 0 0 1 -1 1 0 1 1 0 0 1 1 0 1 1 1 0 0 2 1 0 0 1 1 0c1,0 1,0 1,-1l1 0 0 -1 1 -1 0 -1 2 0 0 -1c1,0 0,0 1,-1l0 0c-1,-1 0,-1 -1,-1l0 -1 -2 0 0 -1 -1 0 0 -2 -1 0 0 -1 -2 0 0 -1 -1 -1 0 -1 1 0 0 -1 2 0 0 -2 1 0 0 -1 1 0c0,0 0,-1 0,-1 0,0 0,0 1,0l0 0 1 1 1 0 0 1 1 0 1 2 1 0c0,-1 0,-1 0,-2 1,0 1,1 1,0l0 -1 -1 0 0 -1 -2 0 0 -2 -1 0 0 -1 1 0 1 -2 1 0 0 2 1 0 0 1 2 0 0 2 1 0 0 1 1 0 0 1 2 0 0 2 1 0 0 1 1 0 1 1 -2 1 0 1 -1 0 0 1 -2 0 0 2 -1 0 0 1 -1 0 0 1 -2 1 0 1 2 0 0 1 1 0 0 1 1 1 0 1 2 0 0 1 1 0c0,0 0,0 0,-1l1 0 0 -1 2 -1 0 -1 1 0 0 -1c1,0 1,0 2,-1l0 0c-1,-1 -1,-1 -2,-1l0 -1 -1 0 0 1 -1 0 0 2 -2 0 0 1 -1 0 0 -1 -2 -1 0 0 2 -1 0 -1 1 0 0 -1 1 0 0 -2 2 0c0,0 0,-1 0,-1 0,0 0,0 0,0l1 0 0 1 2 0 0 2 1 0 0 1 1 0 0 1 2 1 0 0 -2 1 0 1 -1 0 0 2 -1 0 0 1 -2 0 0 1 -1 0 0 2c-1,0 -1,0 -1,0l0 1c0,0 0,0 1,0l0 1 1 0 0 2 2 0 0 1 1 0c0,1 0,1 0,1l1 0 0 -1 2 0 0 -1 1 0 0 -2 1 0 0 -1 2 0 0 -1 -1 0 -1 -2 -1 0c0,1 0,1 0,2l-1 0 0 1 -2 0 0 1 -1 0 0 -1 -1 0 0 -1 1 0 0 -2 1 0 0 -1 2 0 0 -1 1 -1 0 -1 1 0 1 1 1 1 0 1 1 0 0 1 2 0 0 2 1 0 0 1 -1 0 0 1 -2 0 0 2 -1 0 0 1 -1 0 0 2 -2 0 0 1 -1 0 0 1 1 0 0 2 2 0 0 1 1 0 0 1 1 0c0,1 0,1 1,2l0 0c1,-1 1,-1 1,-2l1 0 0 -1 1 0 0 -1 2 0 0 -2 1 0 0 -1 -1 0 -1 -1 0 0c-1,0 -1,0 -1,1l-1 0 0 1 -1 0 -1 2 0 0 -1 -2 -1 0 0 -1 1 0 0 -1 2 -1 0 -1 1 0 0 -1 1 0 1 -2 0 0 1 2 1 0 0 1 2 0 0 1 1 1 0 1c0,0 1,0 1,0 0,0 0,0 0,0l0 1c0,0 0,0 0,0 0,0 -1,0 -1,0l0 2 -1 0 0 1 -2 0 0 1 -1 0 0 2 -2 0 0 1z"/>
   <path class="fil0" d="M91 99l0 -1 -2 0 0 -1 -1 0 0 -1 -2 0 0 -2 -1 0 0 -1 -1 0 0 1 -2 0 0 2 -1 0 0 1 -1 0 0 1 -2 1 0 1 2 0 0 1 1 0 0 1 1 0 0 2 2 0 0 1 1 0c0,0 0,0 0,-1l1 0 0 -2 2 0 0 -1 1 0 0 -1 2 -1zm37 -3l0 -2 1 0 0 -1 1 0 0 -2 2 0 0 -1 -1 0 -1 -1 -1 0 0 -2 -1 0 0 -1 -2 0 0 -1 -1 0 0 -2 -1 0 0 -1 -2 0 0 -1 -1 -1 0 -1 -2 0 0 -1 -1 0 0 -2 -1 0 0 -1 -2 0 0 -1 -1 0 0 -2 -1 0 0 -1 -2 0 0 -2 -1 0 0 -1 -1 0 0 1 -2 1 0 1 -1 0 0 1 -2 0 0 2 -1 0 0 1 -1 0 0 1 -2 0 0 2 -1 0 0 1 -1 0 0 1 -2 1 0 1 -1 0 0 1 -2 0 0 2 -1 0 0 1 -1 0 0 1 -2 0 0 2 -1 0 0 1 -1 0 0 1 1 0 0 2 1 0 0 1 2 0 0 2 1 0 0 1 1 0 0 1 2 1 0 0 -2 1 0 1 -1 0 0 1 -1 1 0 1 -2 0 0 1 -1 0 0 2 -1 0 0 1 1 0 0 1 1 0 0 2 2 0 0 1 1 0 0 1 1 0 0 2 2 0 0 1 1 0 0 2 1 0 1 1 1 0 0 1 1 0 0 2 2 0 0 1 1 0 0 1 1 0 0 2 2 0 0 1 1 0 0 2 1 0 1 1 1 0c0,-1 0,0 0,-1l1 0 0 -2 2 0 0 -1 1 0 0 -2 1 0 0 -1 2 0 0 -1 1 0 0 -2 1 0 0 -1 2 0 0 -1 1 0 0 -2 2 0 0 -1 1 0 0 -2 1 0 0 -1 2 0 0 -1 1 0 0 -2 1 0 0 -1c1,0 1,0 2,0l0 -1 -2 0 0 -2 -1 0 0 -1 -1 0 0 -1 -2 -1 0 -1 -1 0 0 -1c-1,0 -1,0 -1,-1l0 -1 1 0 0 -1 1 0 0 -1 2 0zm-14 -38c1,0 1,1 1,0l0 -1 -1 0 0 -1 -1 0 0 1 -2 0 0 1 -1 0 0 2 -1 0 -1 -2 -1 0 0 -1 -1 0 0 -1 -2 0 0 1 -1 0 0 1c1,1 0,0 1,0l0 2 2 0 0 1 1 0 0 1 1 1 1 1 1 0c0,-1 0,0 0,-1l1 -1 0 -1 2 0 0 -1 1 0 0 -2zm-4 80c0,1 0,0 0,1 0,0 0,0 0,1l1 0 0 1 2 0 0 1 1 0c0,0 0,0 0,-1 1,0 1,0 1,0l0 -1 -1 0 0 -2 -1 0 0 -1 -2 0 0 -1 -1 0 0 -2 -1 0 0 2 -2 0 0 1 -1 0 0 1 -2 0 0 2 -1 0 0 1 1 0c0,1 0,1 1,1l0 0c1,0 1,0 1,-1l1 0 0 -1 1 0 1 -2 1 0zm30 -38l0 -2 -1 0 0 -1 -2 0 0 -1 -1 0 0 -2 -1 0 0 -1 -2 0 0 1 -1 0 0 2 -1 0 0 1 -2 0 0 1 -1 1 0 0c0,1 0,1 1,1l0 1 1 0 1 1 1 0 0 2 1 0c0,1 0,1 1,1l0 0 1 -1 1 0 0 -2 1 0 0 -1 2 0 0 -1 1 0zm3 -15l-1 0 0 1 -2 0 0 1 -1 0 0 2 -2 0 0 1 -1 0 0 1c1,1 0,0 1,0l0 2 2 0 0 1 1 0 0 2 1 0c1,1 0,0 1,1l1 0 0 -1 1 0 0 -2 2 0 0 -1 1 0 0 -2 1 0 0 -1 -1 0 0 -1 -1 0 0 1 -2 0 0 1 -1 1c0,0 0,0 0,0 0,1 0,1 0,1l-1 0c0,0 0,0 -1,-1 0,0 0,0 0,0 0,0 0,-1 0,-1 -1,0 -1,0 -1,0l0 -1 1 0 0 -1 2 0 0 -2 1 0 0 -1 2 0 0 -1 1 0 0 1 1 0 0 1 2 0 0 2 1 0 0 1 2 0 0 1c-1,0 0,0 -1,0 0,0 -1,1 -1,1l0 1 -1 0 0 1 -2 0 0 2 -1 0 0 1 -1 0 0 1 -2 1 0 0c1,1 1,1 2,1l0 1 1 0 0 1 1 0 0 2 2 0 0 1 1 0 0 2 2 0 0 1 -2 0 0 1 -1 0 0 2 -2 0 0 1 -1 0c0,0 0,1 0,1 0,0 0,0 0,0l-1 1 0 -2 -2 0 0 -1 -1 0 0 -2 -2 0 0 -1 -1 0 0 -1 1 0 1 -2 1 0 0 2 1 0 0 1 2 0c0,1 0,1 0,1l1 0 0 -1 1 0 0 -1 -1 0 0 -2 -1 0 0 -1 -2 0 0 -1 -1 -1 0 -1 -1 0 0 1 -2 1 0 1 -1 0 0 1 -2 0 0 2 -1 0 0 1c1,0 0,0 1,0l0 1 2 0 0 2 1 0 0 1 2 0 0 1 1 0 0 2 1 0 0 1 -1 0 0 2 -1 0 0 1 -2 0 0 1 -1 0 -1 2 0 0 -1 -2 -1 0 0 -1 -1 0 0 -1 -2 0 0 -2c0,0 -1,0 -1,0 0,0 0,0 0,0l0 -1 1 0 0 -2 1 0c1,1 0,1 1,1 0,0 0,1 0,1l1 0 0 1 1 0c0,1 0,1 1,2l0 0c1,-1 1,-1 1,-2l1 0 0 -1 -1 0 0 -1 -2 0 0 -2 -1 0 0 -1 -1 0 -1 -2 -1 0 0 2 -1 0 0 1 -1 0 0 1 -2 1 0 1 -1 0 0 1c0,0 0,0 1,0l0 2 2 0 0 1 1 0 0 1 1 0 0 2 2 0 0 1 1 0 0 1 -1 1 0 1 -2 0 0 1 -1 0 0 2 -1 0c0,0 0,0 0,0 -1,1 -1,1 -1,1l-1 0c0,0 0,0 0,-1 0,0 0,0 0,0l-1 0 0 -2 -2 0 0 -1 -1 0 0 -1 -1 -1 0 -1 1 0c0,0 0,-1 0,-1 0,0 0,0 0,0l1 0c0,0 0,0 0,0 0,0 0,1 0,1l2 0 0 1 1 0c0,1 0,1 0,2l1 0c1,-1 0,-1 0,-2l2 0 0 -1 -2 0 0 -1 -1 0 0 -2 -1 0 0 -1 -2 0 0 -1 -1 0 0 1 -1 0 0 1 -2 0 0 2 -1 0 0 1 -1 0 0 1c0,1 0,0 1,0l0 2 1 0 0 1 2 0 0 2 1 0 0 1 1 0 0 1c2,0 2,1 2,2l-2 0 0 1 -1 0 0 1 -1 1 0 1 -2 0c0,0 0,1 0,1 0,0 0,0 0,0l-1 0 0 -1 -2 0 0 -1 -1 0 0 -2 -1 0 0 -1 -2 -1 0 0 2 -1 0 -1 1 0 0 1 1 0 1 2 1 0 0 1 1 0c0,-1 0,0 0,-1 1,0 1,0 2,-1l0 -1 -2 0 0 -1 -1 0 0 -1 -2 0 0 -2 -1 0c0,-1 0,0 0,-1l-1 0 0 1 -2 0 0 2 -1 0 0 1 -1 0 0 1 -2 1 0 1 2 0 0 1 1 0 0 1 1 0 0 2 2 0 0 1 1 0 0 2 2 0 0 1 -2 0 0 1 -1 0 0 2 -2 0 0 1 -1 0 0 2 -1 0 0 -2 -2 0 0 -1 -1 0c0,-1 0,-1 0,-2l-1 0 0 2 -2 0 0 1 -1 0 -1 2 0 0 -1 -2 -1 0 0 -1 -1 0 0 -2 -2 0 0 -1c0,0 0,0 -1,0 0,0 0,0 0,0l0 -1 1 0 0 -2 2 0 0 -1 1 0 0 -2 1 0 0 -1 2 0 0 -1c1,0 0,0 1,-1l0 0 -1 -1 0 -1 -2 0 0 -1 -1 0 0 -2 -1 0 0 -1 -2 0 0 1 -1 0 0 2 -1 0 0 1 -2 0 0 1 -1 1 0 1 1 0 0 1 1 0c1,-1 0,0 0,-1l2 0 0 -2 1 0 0 -1 1 0 1 1c0,0 0,0 0,0 1,0 1,0 1,1l0 0 -1 1 0 1 -2 0 0 1 -1 1 0 1 -1 0c0,0 0,1 0,1 -1,0 -1,0 -1,0l-1 0c0,0 0,0 0,0 0,0 0,-1 0,-1l-1 0 0 -1 -2 -1 0 -1 -1 0 0 -1 -1 0 0 -2 1 0 0 -1 1 0 0 -1 2 0 0 -2 1 0 0 -1 1 0 0 -2c1,0 1,1 2,0l0 -1 -2 0 0 -1 -1 0 0 -2 -1 0 0 -1 -2 0 0 -1 -1 0 0 1 -1 0 0 1 -2 0 0 2 -1 0 0 1 -1 0 0 1 1 0 0 2 1 0c0,-1 0,0 0,-2l2 0 0 -1 1 0 0 -1 1 0 0 1c0,0 1,0 1,0 1,0 0,0 1,0l0 1 -2 1 0 1 -1 0 0 1 -1 0 0 2 -2 0 0 1 -1 0c0,0 0,0 0,-1 0,0 0,0 0,0l-2 0 0 -2 -1 0 0 -1 -1 0 0 -1 -2 -1 0 -1 2 0 0 -1 1 0 0 -2 1 0 0 -1 2 0 0 -1 1 0 0 -2c1,0 1,0 2,0l0 -1 -2 0 0 -1 -1 -1 0 -1 -2 0 0 -1 -1 0 0 -2 -1 0 0 2 -2 0 0 1 -1 0 0 1 -1 1 0 1 -2 0 0 1 2 0 0 2 1 0c0,-1 0,-1 0,-2l1 0 0 -1 2 0 0 -2 1 0 0 2 1 0 0 1 -1 0 0 2 -1 0 0 1 -2 0 0 1 -1 0 0 2 -1 0 0 -2 -2 0 0 -1 -1 0 0 -1 -2 0 0 -2 -1 0 0 -1c0,0 0,0 1,0 0,0 0,0 0,0l0 -2 2 0 0 -1 1 0 0 -1 2 0 0 -2 1 0 0 -1c1,0 1,0 1,0l0 -1 -1 0 0 -2 -1 0 0 -1 -2 0 0 -1 -1 -1 0 -1 -1 0 0 1 -2 1 0 1 -1 0 0 1 -2 0 0 2 -1 0 0 1 1 0 1 1 0 0c1,0 1,0 1,-1l1 0 0 -1 1 0 0 -2 2 0 0 2 1 0 0 1 -1 0 0 1 -1 0 0 2 -2 0 0 1 -1 0 -1 1 0 0c-1,0 0,1 -1,0 0,0 0,-1 0,-1l-1 0 0 -1 -1 0 -1 -2 -1 0 0 -1 -1 0 0 -1c0,0 0,0 0,0 0,0 1,0 1,0l0 -2 2 0 0 -1 1 0 0 -2 1 0 0 -1 2 0 0 -1c1,0 0,0 1,-1l0 -1 -1 0 0 -1 -2 0 0 -1 -1 0 0 -2 -1 0 -1 -1 -1 0 0 -1 -1 -1 0 -1 1 0 0 -1 2 0 0 -2 1 0 0 -1 1 0 0 -1 1 0c1,0 1,0 1,0 0,0 0,1 0,1l1 0 0 1 1 0 1 2 1 0 0 1 1 0 0 1 -1 1 0 1 -1 0 -1 -1 -1 -1 0 -1 -1 0 0 -1 -2 0 0 1 -1 0 0 1 1 0 0 2 2 0 0 1 1 0 0 2 1 0 1 1 1 0c0,-1 0,0 0,-1l1 0 0 -2 2 0 0 -1 1 0 0 -2c1,0 1,1 1,0l0 -1 -1 0 0 -1 -1 0 -1 -2 -1 0 0 -1 -1 0 0 -1 -2 0 0 -2 -1 0 0 -1 1 0 0 -2 2 0 0 -1 1 0 0 -1 2 0c0,-1 0,-1 0,-1 0,-1 0,0 0,-1l1 0 0 2 1 0 0 1 2 0 0 1 1 0 0 2c0,0 1,0 1,0 0,0 0,0 0,0l1 1c-1,0 -1,0 -1,0 0,0 -1,0 -1,0l0 2 -1 0c0,-1 0,0 0,-1 0,0 0,-1 0,-1l-2 0 0 -1 -1 0 0 -2 -1 0 0 2 -2 0 0 1 2 0 0 2 1 0 0 1 1 0 0 1 2 0 0 2 1 0c0,-1 0,-1 0,-2l1 0 0 -1 2 0 0 -1 1 0 0 -2 2 0 0 -1 -2 0 0 -2 -1 0 0 -1 -2 0 0 -1 -1 0 0 -2 -1 0 0 -1 -2 0 0 -1 2 0 0 -2 1 0 0 -1 1 0 0 -2 2 0c0,-1 0,0 0,-1l1 0 0 1 2 0 0 2 1 0 0 1 1 0 0 1 2 1 0 1 -2 0 0 1 -1 0 0 -1 -1 0 -1 -1 -1 0 0 -2 -1 0 0 2 -1 0 0 1 1 0 0 1 1 0 0 2 2 0 0 1 1 0 0 1 1 0c0,0 0,0 0,-1l2 0 0 -1 1 0 0 -2 1 0 0 -1c2,0 1,0 2,0l0 -1 -2 0 0 -2 -1 0 0 -1 -1 0 0 -2 -2 0 0 -1 -1 0 0 -1 -1 0c0,-2 -1,-2 1,-2l0 -1 1 0 0 -1 2 -1 0 -1 1 0c0,0 0,-1 0,-1 0,0 0,0 0,0l1 0 1 1 1 0 0 1 1 1 0 1 2 0 0 1 1 1 0 0 -1 1c0,0 0,0 0,0 0,1 -1,1 -1,1l-1 0 0 -1 -1 0 0 -2 -2 0 0 -1 -1 0 0 1 -1 1 0 1 1 0 0 1 1 0 1 1 1 0 0 2 1 0 0 1 1 0c1,-1 1,0 1,-1l1 0 0 -2 1 0 0 -1 2 0 0 -1c1,0 0,0 1,-1l0 -1 -1 0 0 -1 -2 0 0 -1 -1 0 0 -2 -1 0 0 -1 -2 0 0 -2 -1 0 0 -1 1 0 0 -1 2 0 0 -2 1 0 0 -1 1 0 0 -1 2 0 0 1 1 0 0 1 1 0 1 2 1 0c0,-1 0,-1 0,-2 1,0 1,0 1,0l0 -1 -1 0 0 -1 -2 0 0 -2 -1 0 0 -1 1 0 0 -2 2 0 0 2 1 0 0 1 2 0 0 1 1 1 0 1 1 0 0 1 2 0 0 2 1 0 0 1 2 0 0 1 -2 0 0 2 -1 0 0 1 -2 0 0 2 -1 0 0 1 -1 0 0 1 -2 1 0 0c1,1 1,1 2,1l0 1 1 0 0 1 1 0 0 2 2 0 0 1 1 0c0,-1 0,0 0,-1l1 0 1 -2 1 0 0 -1 1 0 0 -1 2 0 0 -2 -2 0 0 -1 -1 0 0 1 -1 0 0 2 -2 0 0 1 -1 0 0 -1 -2 -1 0 -1 2 0 0 -1 1 0 0 -1 1 -1 1 -1 1 0c0,0 0,-1 0,-1 0,0 0,0 0,0l1 0 0 1 2 0 0 2 1 0 0 1 1 0 0 1 2 1 0 1 -2 0 0 1 -1 0 0 1 -1 0 0 2 -2 0 0 1 -1 0 0 2 -1 0 0 1 1 0 0 1 1 0 0 2 2 0 0 1 1 0c0,1 0,1 0,1l1 0 0 -1 2 0 0 -1 1 0 0 -2 1 0 1 -1c0,0 0,0 1,0l0 -1 -2 0 0 -2 -1 0 0 2 -1 0 0 1 -2 0c0,0 0,1 0,1 0,0 0,0 0,0l-1 0 0 -1 -1 0 0 -1 1 -1 0 -1 1 0 0 -1 2 0 0 -2 1 0 0 -1 1 0 1 1 1 0 0 2 1 0 0 1 2 0 0 2 1 0 0 1 -1 0 0 1 -2 0 0 2 -1 0 0 1 -1 0 0 1 -2 0 0 2 -1 0 0 1c0,0 0,0 1,0l0 2 1 0 1 1 1 0 0 1 1 0c0,1 0,1 1,2l0 0 1 -2 1 0 0 -1 1 0 0 -1 2 -1 0 -1 1 0 0 -1 -1 0 -1 -2 -1 0 0 2 -1 0 0 1 -1 0 -1 2 -1 0 0 -2 -1 0 0 -1c0,0 -1,0 0,0 0,0 1,0 1,0l0 -2 2 0 0 -1 1 0 0 -1 1 0 0 -2 1 0c1,1 1,0 1,1 0,0 0,1 0,1l1 0 0 1 1 0 1 1 1 0 0 2c0,0 1,0 1,0 0,0 0,0 0,0l0 1 -1 0 0 2z"/>
   <path class="fil0" d="M91 298l0 -1c-1,0 -1,0 -2,-1l0 -1 -1 0 0 -1 -2 0 0 -2 -1 0c0,0 0,0 0,0 0,-1 0,-1 0,-1l-1 0 0 1 -2 0 0 2 -1 0 0 1 -1 0 0 2 -2 0 0 1 2 0 0 1 1 0 0 2 1 0 0 1 2 0 0 1 1 0 0 -1 1 0 0 -1 2 0 0 -2 1 0 0 -1 2 0zm38 -7l1 0 0 -1 2 -1 0 -1 -1 0 -1 -1 -1 0 0 -1 -1 0 0 -2 -2 0 0 -1 -1 0 0 -2 -1 0 0 -1 -2 0 0 -1 -1 0 0 -2 -2 0 0 -1 -1 0 0 -1 -1 0 0 -2 -2 0 0 -1 -1 0 0 -2 -1 0 0 -1 -2 0 0 -1 -1 0c0,-1 0,-1 0,-2l-1 0c-1,1 0,1 -1,2l-1 0 0 1 -1 0 0 1 -2 0 0 2 -1 0 0 1 -1 0 0 1 -2 1 0 1 -1 0 0 1 -1 0 -1 2 -1 0 0 1 -1 0 0 1 -2 0 0 2 -1 0 0 1 -1 0 0 1 -2 1 0 1 -1 0 0 1 -1 0 0 2 1 0 0 1 1 0 0 1 2 0 0 2 1 0 0 1 1 0 0 1 2 0c0,2 0,2 -2,2l0 1 -1 0 0 2 -1 0 0 1 -2 0 0 1 -1 0 0 2 -1 0 0 1 1 0 0 1 1 1 0 1 2 0 0 1 1 0 0 2 1 0 0 1 2 0 0 1 1 0 0 2 1 0 1 1 1 0 0 1 1 1 0 1 2 0 0 1 1 0 0 2 1 0 0 1 2 0 0 1 1 0 0 2 2 0 0 1 1 0 0 -1 1 0 0 -2 2 0 0 -1 1 0 0 -1 1 0 0 -2 2 0 0 -1 1 0 0 -1 1 -1 0 -1 2 0 0 -1 1 0 0 -2 2 0 0 -1 1 0 0 -1 1 0 0 -2 2 0 0 -1 1 0 0 -1 1 -1 0 -1 2 0 0 -1 -1 0 -1 -2 -1 0 0 -1 -1 0 0 -1 -2 0 0 -2 -1 0 0 -1 -1 0 0 -1 1 -1 0 -1 1 0 0 -1 2 0 0 -2 1 0 0 -1zm-14 -35l0 0c0,-1 0,-1 -1,-1 0,-1 0,0 0,-1l-1 0 0 1 -2 0 0 2 -1 0 0 1 -1 0 -1 -1 -1 0 0 -2 -1 0c0,-1 0,0 -1,-1l-1 0 0 1 -1 0 0 1 1 1 0 1 2 0 0 1 1 0 0 2 1 0 1 1 1 0 0 -1 1 0 0 -2 2 0 0 -1 1 0 0 -1 1 -1zm-9 84l0 -1 1 0 0 -1 1 0 1 -2 1 0 0 2 1 0 0 1 2 0 0 2 1 -1 0 -1 1 0 0 -1 -1 0 0 -2 -1 0 0 -1 -2 0 0 -1 -1 0 0 -2 -1 0 -1 2 -1 0 0 1 -1 0 0 1 -2 1 0 1 -1 0 0 1 1 0 0 2 2 -1zm34 -42l0 -1 -1 0 0 -2 -2 0 0 -1 -1 0 0 -2 -1 0 -1 -1 0 0c-1,1 -1,0 -1,1l-1 0 0 2 -1 0 -1 1 -1 0 0 2c-1,0 -1,-1 -1,0l0 1 1 0 0 1 1 0 1 2 1 0 0 1 1 0 0 1 2 0 0 -1 1 0 0 -1 1 0 0 -2 2 0 0 -1 1 0zm-5 -21l1 0 0 -1 1 0 1 -2 0 0 1 2 1 0 0 1 2 0 0 2 1 0 0 1c0,0 1,0 1,0 0,0 0,0 0,0l0 1 -1 0 0 2 -1 0 0 1 -2 0 0 1 -1 1 0 1 -2 0 0 1c-1,0 0,0 -1,1l0 1 1 0 0 1 2 0 0 1 1 0 0 2 2 0 0 1 1 0 0 -1 1 0 0 -2 2 0 0 -1 1 0 0 -1 1 -1 0 -1 -1 0 0 -1 -1 0 0 1 -2 0 0 2 -1 0 0 1 -1 0 -1 -1 -1 -1 0 0 1 -1 0 -1 2 0 0 -1 1 -1 0 -1 2 0 0 -1 1 0c0,0 0,0 0,0 0,0 0,1 0,1l1 0 0 1 2 0 0 2 1 0 0 1 2 0 0 2 -2 0 0 1 -1 0 0 1 -2 0 0 2 -1 0 0 1 -1 0 0 2c-1,0 -1,-1 -1,0 -1,0 0,0 -1,0l0 1 2 0 0 1 1 0 0 2 1 0 0 1 2 0 0 1 1 0 0 2 2 0 0 1 -2 0 0 2 -1 0 0 1 -2 0 0 1 -1 0 0 2 -1 0 0 -2 -2 0 0 -1 -1 0 0 -1 -1 0 -1 -2 -1 0 0 -1 1 0 0 -2 2 0 0 2 1 0 0 1 2 0 0 2 1 -1 0 -1 1 0 0 -1 -1 0 0 -2 -1 0 0 -1 -2 0 0 -1 -1 0 0 -2 -1 0c-1,1 0,1 0,2l-2 0 0 1 -1 0 0 1 -2 0 0 2 -1 0 0 1 1 0 0 1 2 1 0 1 1 0 0 1 2 0 0 2 1 0 0 1 1 0 0 1 -1 0 0 2 -1 0 -1 1 -1 0 0 2 -1 0 0 1 -2 0 0 -1 -1 0 0 -2 -1 0 0 -1 -2 0 0 -2 -1 0 0 -1c0,0 0,0 0,0 0,0 1,0 1,0l1 -1 0 0 1 1 1 0 0 1 1 0 0 2 2 0 0 -2 1 0 0 -1 -1 0 0 -1 -2 0 0 -2 -1 0 0 -1 -1 0 -1 -1 0 0c-1,0 -1,0 -1,1l-1 0 0 1 -1 0 0 2 -2 0 0 1c-1,0 -1,0 -1,0l0 1 1 0 0 2 2 0 0 1 1 0 0 2 1 0 0 1 2 0 0 1 1 0 0 2 -1 0 0 1 -2 0 0 1 -1 0 0 2 -1 0 -1 1 -1 0 0 -1 -1 0 0 -2 -2 0 0 -1 -1 0 0 -1 -1 -1 0 -1 1 0 0 -1 1 0 0 1 2 0 0 2 1 0 0 1 1 0 0 -1 2 -1 0 -1 -1 0 -1 -1 -1 0 0 -1 -1 0 0 -2 -2 0 0 -1 -1 0c0,0 0,0 0,1l-1 0 0 2 -2 0 0 1 -1 0 0 1 -1 0 0 2 1 0 0 1 1 0 0 1 2 0 0 2 1 0 0 1 1 0 0 1 2 1 0 1 -2 0 0 1 -1 0 0 2 -1 0 0 1 -2 0 0 1 -1 0 0 -1 -1 0 -1 -1 -1 0 0 -2 -1 0 0 -1 -2 0 0 -1 2 -1 0 -1 1 0c0,1 0,0 0,1 0,0 0,0 0,1l2 0 0 1 1 0 0 1 1 0 0 -1 2 0 0 -1 -2 0 0 -2 -1 0 0 -1 -1 0 -1 -2 -1 0 0 -1 -1 0 0 1 -2 1 0 1 -1 0 0 1 -1 0 0 2 -2 0 0 1 2 0 0 1 1 0 0 2 1 0 1 1 1 0 0 1 1 0 0 2 2 0 0 1 -2 0 0 2 -1 0 0 1 -2 0 0 1 -1 0 0 2 -1 0 0 -2 -2 0 0 -1 -1 0c0,-1 0,-1 0,-1l-1 0 -1 1 -1 0 0 1 -1 0 0 2 -2 0 0 -2 -1 0 0 -1 -1 0 0 -1 -2 0 0 -2 -1 0 0 -1 1 0 0 -2 2 0 0 -1 1 0 0 -1 1 0 0 -2 2 0 0 -1 1 0 0 -1 -1 0 0 -2 -2 0 0 -1 -1 0 0 -2 -1 0c0,0 0,0 0,0 -1,-1 0,0 -1,-1l-1 0 0 1 -1 1 0 1 -1 0 -1 1 -1 0 0 2 -1 0 0 1 1 0 0 1 1 0 0 -1 2 0 0 -1 1 -1 0 -1 1 0 1 1 1 1 0 1 -1 0 0 1 -2 0 0 2 -1 0 0 1 -1 0 -1 1 -1 0 0 -1 -1 0 0 -1 -2 0 0 -2 -1 0 0 -1 -1 0 0 -1 1 -1 0 -1 1 0 0 -1 2 0 0 -2 1 0 0 -1 1 0 0 -1 2 -1 0 0c-1,-1 0,-1 -2,-1l0 -1 -1 0 0 -1 -1 0 0 -2 -2 0 0 -1 -1 0 0 1 -1 0 0 2 -2 0 0 1 -1 0 0 1 -1 0 0 2 1 0 0 1 1 0 0 -1 2 0 0 -2 1 0 0 -1 1 0 0 1 2 1 0 1 -2 0 0 1 -1 0 0 1 -1 0 0 2 -2 0 0 1 -1 0 0 -1 -1 0 -1 -2 -1 0 0 -1 -1 0 0 -1c-2,0 -2,0 -2,-2l2 0 0 -1 1 0 0 -1 1 -1 0 -1 2 0 0 -1 1 0 0 -2 2 0 0 -1 -2 0 0 -1 -1 0 0 -2 -2 0 0 -1 -1 0 0 -1 -1 0 0 1 -2 0 0 1 -1 0 0 2 -1 0 0 1 -2 0 0 1 2 0 0 2 1 0 0 -2 1 0 0 -1 2 0 0 -1 1 0 0 1 2 0 -1 1 -1 0 0 2 -1 0 0 1 -2 0 0 2 -1 0 0 1 -1 0 0 -1 -2 0 0 -2 -1 0 0 -1 -2 0 0 -2c0,0 0,1 -1,0l0 -1 1 0 0 -1 2 0 0 -2 1 0 0 -1 2 0 0 -1 1 -1 0 -1 1 0 0 -1c0,0 0,0 0,0 0,0 -1,0 -1,0l0 -2 -1 0 0 -1 -2 0 0 -1 -1 0 0 -2 -1 0 -1 2 -1 0 0 1 -1 0 0 1 -2 0 0 2 -1 0 0 1 1 0 0 1 2 0 0 -1 1 0 0 -1 1 0 1 -2 1 0 0 2 1 0 0 1 -1 0 0 2 -1 0 -1 1 -1 0 0 1 -1 0 0 2 -2 0 0 -2 -1 0 0 -1 -1 0 0 -1 -2 0 0 -2c-1,0 -1,0 -1,0l0 -1 1 0 0 -2 2 0 0 -1 1 0 0 -1 1 0 0 -2 2 0 0 -1 1 0 0 -1 -1 -1 0 -1 -2 0 0 -1 -1 0 0 -2 -1 0 0 -1 -2 0 0 -1c-1,0 -1,-1 -1,-2l1 0 0 -1 2 0 0 -1 1 -1 0 -1 1 0 0 -1 1 0 1 1 1 0 0 1 1 0 1 2 1 0 0 1 1 1 0 1 -1 0 0 1 -1 0 -1 -1 -1 0 0 -2 -1 0 -1 -1 -1 0 0 1 -1 0 0 2 1 0 0 1 2 0 0 1 1 0 0 2 1 0 1 1 1 0 0 -1 1 0 0 -2 2 0 0 -1 1 0 0 -1 1 -1 0 0 -1 -1 0 -1 -1 0 0 -1 -2 0 0 -2 -1 0 0 -1 -2 0 0 -2 -1 0 0 -1 1 0 0 -1 2 0 0 -2 1 0 0 -1 2 0c0,-2 0,-2 1,-2l0 2 1 0 0 1 2 0 0 2 1 0 0 1 1 0 0 1c0,0 1,0 0,0 0,0 -1,0 -1,0l0 2 -1 0 0 -2 -2 0 0 -1 -1 0c0,0 0,-1 0,-1 0,0 0,0 0,0l-1 0 0 1 -2 0 0 1 2 0 0 2 1 0 0 1 1 0 0 1 2 0 0 2 1 0 0 -1 1 -1 0 -1 2 0 0 -1 1 0 0 -2 2 0 0 -1 -2 0 0 -1 -1 0 0 -2 -2 0 0 -1 -1 0 0 -1 -1 -1 0 -1c0,0 -1,0 -1,0 -1,0 0,0 -1,0l0 -1 2 0 0 -2 1 0 0 -1 1 0 0 -1 2 0 0 -2 1 0 0 2 2 0 0 1 1 0 0 1 1 0 0 2 2 0 0 1 -2 0 0 2 -1 -1c0,0 0,0 0,0 0,0 0,-1 0,-1l-1 0 0 -1 -2 0c0,0 0,-1 0,-1 0,-1 0,0 0,-1l-1 0 0 2 -1 0 0 1 1 0 0 1 1 0 0 2 2 0 0 1 1 0 0 2 1 0 0 -2 2 0 0 -1 1 0 0 -1 1 -1 0 -1 2 0 0 -1 -1 0 -1 -2 -1 0 0 -1 -1 0 0 -1 -2 0 0 -2 -1 0 0 -1c0,0 -1,0 -1,0 0,0 0,0 0,0l0 -2 1 0 0 -1 1 0 0 -1 2 0 0 -2 1 0c0,0 0,0 0,0 0,-1 0,-1 0,-1l1 0 1 1 1 0 0 2 1 0 0 1 2 0 0 1 1 1 0 1 -1 0 0 1 -2 0 0 -1 -1 0 0 -1 -2 -1c0,-1 1,0 0,-1l-1 0 0 1 -1 1 0 1 1 0 0 1 1 0 1 2 1 0 0 1 1 0 0 1 2 0 0 -1 1 0 0 -1 1 0 0 -2 2 0 0 -1 1 0 0 -1 -1 -1 0 -1 -2 0 0 -1 -1 0 0 -2 -1 0 0 -1 -2 0 0 -1 -1 -1 0 0 1 -1 0 -1 2 0 0 -2 1 0 0 -1 1 0 1 -1 0 0 1 1 1 0 0 1 2 0 0 2 1 0 0 -2 1 0 0 -1c0,0 0,0 -1,0l0 -1 -2 0 0 -2 -1 0 0 -1c0,0 0,0 1,0 0,0 0,0 0,0l1 -1 1 0 0 1 1 0 0 1 2 0 0 2 1 0 0 1 1 0 0 1 2 0 0 2 1 0 0 1 2 1 0 0 -2 1 0 1 -1 0 0 1 -2 0 0 2 -1 0 0 1 -1 0 0 1 -2 1 0 1 2 0 0 1 1 0 0 2 1 0 0 1 2 0 0 1 1 0 0 -1 1 0 0 -1 2 0 0 -2 1 0 0 -1 2 0 0 -1 -2 -1c0,0 0,0 0,-1l-1 0c0,1 0,1 0,1l-1 1 0 1 -2 0 0 1 -1 0 0 -1 -2 0c0,-2 0,-1 2,-2l0 -1 1 0 0 -1 1 0 0 -2 2 0 0 -1 1 0 0 1 2 0 0 2 1 0 0 1 1 0 0 1 2 1c0,1 0,1 -2,1l0 1 -1 0 0 2 -1 0 0 1 -2 0 0 1 -1 0 0 2c-1,0 -1,0 -1,0l0 1 1 0 0 1 1 0 0 2 2 0 0 1 1 0 0 2 1 0 0 -2 2 0 0 -1 1 0 0 -2 1 0 0 -1 2 0 0 -1 -2 0c0,-1 1,-1 0,-2l-1 0c0,1 0,1 0,2l-1 0 0 1 -2 0 0 2 -1 -1 0 -1 -1 0 0 -1 1 0 0 -2 1 0 0 -1 2 0 0 -1 1 0 0 -2 1 0c0,0 0,0 1,1 0,0 0,0 0,1l1 0 0 1 1 0 0 1 2 0 0 2 1 0 0 1c0,0 0,0 -1,0 0,0 0,0 0,0l0 1 -2 1 0 1 -1 0 0 1 -1 0 -1 2 -1 0 0 1 -1 0 0 1 1 0 0 2 2 0 0 1 1 0 0 1 1 0 0 2 2 0 0 -2 1 0 0 -1 1 0 0 -1 2 0 0 -2 1 0 0 -1 -1 0 -1 -1 0 0c-1,0 -1,0 -1,1l-1 0 0 1 -1 0c0,1 0,1 0,1 0,1 0,0 -1,1l-1 0 0 -2 -1 0 0 -1c0,0 0,0 0,0 0,0 1,0 1,0l0 -1 2 0 0 -2z"/>
   <path class="fil0" d="M107 42l0 -1 1 -1 1 -1 1 0 0 1 1 1 0 1 2 0 0 1 1 0c0,0 0,0 0,-1 1,0 1,0 1,0l0 -1 -1 0 0 -2 -1 0 0 -1 -2 0 0 -2 -1 0 0 -1 -1 0 0 1 -2 0 0 2 -1 0 0 1 -2 0 0 2 -1 0 0 1 1 0 1 1 0 0c1,0 1,0 1,-1l1 0zm-34 -41l7 0 0 1 1 0 0 1 1 0 0 2 2 0 0 1 1 0c0,-1 0,0 0,-1l1 0 0 -2 2 0 0 -1 1 0 0 -1 4 0 0 1 -1 0 0 1 -1 0 0 2 -2 0 0 1 -1 0 0 1 -1 1 0 1 1 0 0 1 1 0 0 2 2 0 0 1 1 0 0 1 1 0 0 2 2 0 0 1 1 0 0 1 1 1 1 1 1 0 0 1 1 0 0 2 2 0 0 1 1 0 0 1 1 0 0 2 2 0 0 1 1 0 0 1 1 1 1 1 1 0c0,-1 0,-1 0,-1l1 -1 0 -1 2 0 0 -1 1 0 0 -2 1 0 0 -1 2 0 0 -1 1 0 0 -2 1 0 1 -1 1 0 0 -1 1 -1 0 -1 2 0 0 -1 1 0 0 -2 1 0 0 -1 2 0 0 -1 1 0 0 -2 1 0 1 -1 1 0 0 -1 -2 0 0 -2 -1 0 0 -1 -1 0 -1 -2 -1 0 0 -1 -1 0 0 -1 4 0 0 1 1 0 1 1 1 0 0 2 1 0c0,1 0,0 1,1l0 0 1 -1 1 0 0 -2 1 0 0 -1 2 0 0 -1 7 0 0 1 1 0 0 1 1 0 0 2 2 0 0 1 1 0 0 1c2,1 2,1 2,2l-2 0 0 1 -1 0 0 2 -2 0 0 1 -1 0 0 1 -1 0 0 -1 -2 0 0 -1 -1 0 0 -2 -1 0 -1 -1c0,0 0,0 0,0 -1,0 -1,0 -1,0l0 -1 1 -1 1 -1 1 0 0 1 1 1 0 1 2 0c0,1 0,1 0,1l1 0 0 -1 1 0 0 -1 -1 0 0 -2 -1 0 0 -1 -2 0 0 -2 -1 0 0 -1 -1 0 0 1 -2 0 0 2 -1 0 0 1 -2 0 0 2 -1 0 0 1c1,0 0,0 1,0l0 1 2 0 0 2 1 0 0 1 1 0 1 1 1 0 0 2c1,0 1,0 1,1l-1 0 0 2 -1 0 0 1 -2 0 0 1 -1 0c0,0 0,1 0,1 0,1 0,0 -1,1l0 0c0,-1 0,0 -1,-1 0,0 0,-1 0,-1l-1 0 0 -1 -1 0 0 -1 -2 0 0 -2 -1 0 0 -1 1 0 0 -2 2 0 0 2 1 0 0 1 1 0c0,1 0,1 1,2l1 -1 0 -1 1 0 0 -1 -1 0 0 -2 -2 0 0 -1 -1 0 0 -1 -1 0 0 -2 -2 0 0 2 -1 0 0 1 -1 0 0 1 -2 0 0 2 -1 0 0 1 1 0 0 1 1 0 1 2 1 0 0 1 1 0 0 2 2 0 0 1 1 0 0 1c0,0 0,0 -1,0 0,0 0,0 0,0l0 2 -2 0 0 1 -1 0 0 2 -1 0 -1 1 -1 0 0 -1 -1 0 0 -2 -2 0 0 -1 -1 0 0 -2 -1 0 0 -1 1 0 0 -1 1 0 0 1 2 0 0 1 1 0c0,1 0,1 0,2l1 0 1 -2 1 0 0 -1 -2 0 0 -1 -1 0 0 -2 -1 0 0 -1 -2 0 0 -1 -1 0 0 1 -1 0 0 1 -2 0 0 2 -1 0 0 1 -1 0 0 1 1 0 0 2 1 0 0 1 2 0 0 1 1 1 0 1 1 0 0 1 2 0 0 1c-1,1 0,0 -1,1 0,0 0,0 -1,0l0 1 -1 0 0 1 -1 0 0 2 -2 0c0,0 0,1 0,1 0,0 0,0 0,0l-1 0c0,0 0,0 0,0 0,0 0,-1 0,-1l-2 0 0 -2 -1 0 0 -1 -1 0 0 -1 -2 -1 0 -1 2 0 0 -1 1 0 0 1 1 0 1 2 1 0 0 1 1 0c0,-1 0,0 0,-1l2 0 0 -2 -2 0 0 -1 -1 0 0 -1 -2 0 0 -2 -1 0 0 -1 -1 0 0 1 -2 0 0 2 -1 0 0 1 -1 0 0 1 -2 0 0 2 2 0 0 1 1 0 0 1 1 0 0 2 2 0 0 1 1 0 0 1 2 1 0 1c-1,0 0,0 -1,0 0,0 -1,0 -1,0l0 1 -1 0 0 2 -2 0 0 1 -1 0c0,0 0,1 0,1 0,0 0,0 0,0l-1 0 0 -1 -2 0 0 -1 -1 0 0 -2 -1 0 0 2 -2 0 0 1 -1 0 0 1 -1 0 -1 -1 -1 0 0 -1 -1 0 -1 -2 -1 0 0 -1 -1 0 0 -1 1 -1 0 -1 2 0 0 -1 1 0 0 -2 1 0 0 -1 2 0 0 -1c1,0 0,0 1,-1l0 -1 -1 0 0 -1 -2 0 0 -1 -1 0 0 -2 -1 0 -1 -1 -1 0 0 1 -1 0 0 2 -1 0 0 1 -2 0 0 1 -1 0 0 2 1 0 0 1 1 0c1,-1 0,0 0,-1l2 0 0 -2 1 0 0 -1 2 0 0 1 1 0 0 2 -1 0 0 1 -2 0 0 1 -1 0 0 2 -1 0 -1 1 -1 0 0 -1 -1 0 0 -2 -2 0 0 -1 -1 0 0 -1 -1 0 0 -2 1 0 0 -1 1 0 0 -1 2 -1 0 -1 1 0 0 -1 1 0 1 -2 1 0 0 -1 -2 0 0 -1 -1 0 0 -2 -1 0 0 -1 -2 0 0 -1 -1 0 0 1 -1 0 0 1 -2 0 0 2 -1 0 0 1 -1 0 0 1 1 0 0 2 1 0c0,-1 0,-1 0,-2l2 0 0 -1 1 0 0 -1 1 0 0 1 2 0 0 1 -2 0 0 2 -1 0 0 1 -1 0 0 2 -2 0c0,0 0,0 0,0 0,1 0,1 0,1l-1 0c0,0 0,0 0,-1 0,0 0,0 0,0l-2 0 0 -2 -1 0 0 -1 -1 0 0 -2 -2 0 0 -1 2 0 0 -1 1 0 0 -2 1 0 0 -1 2 0 0 -1 1 -1 0 -1 2 0 0 -1 -2 0 0 -2 -1 0 0 -1 -2 0 0 -1 -1 0 0 -2 -1 0 0 2 -2 0 0 1 -1 0 0 1 -1 0 0 2 -2 0 0 1 2 0 0 2 1 -1c0,0 0,0 0,-1l1 0 0 -1 2 0 0 -2 1 0 0 2 1 0 1 1c-1,0 -1,0 -1,0 0,0 -1,0 -1,0l0 2 -1 0 0 1 -2 0 0 1 -1 0 0 2 -1 0 -1 -2 -1 0 0 -1 -1 0 0 -1 -2 0 0 -2 -1 0 0 -1c1,0 1,0 1,0l0 -2 2 0 0 -1 1 0 0 -1 2 0 0 -2 1 0 0 -1 1 0 0 -1 -1 -1 0 -1 -1 0 -1 -1 -1 0 0 -2 -1 0 0 -1 -1 0 -1 1 -1 0 0 2 -1 0 0 1 -2 0 0 2 -1 0 0 1 1 0 1 1 0 0 1 -1 1 0 0 -1 1 -1 0 -1 2 0 0 1 1 1 0 1 -1 0 0 1 -1 0 -1 2 -1 0 0 1 -1 0c0,0 0,1 0,1 0,0 0,0 -1,0l-1 0 0 -1 -1 0 0 -1 -1 0 -1 -2 -1 0 0 -1 -1 0 0 -1 1 -1 0 -1 2 0 0 -1 1 0 0 -2 1 0 0 -1 2 0 0 -1z"/>
   <path class="fil0" d="M110 204l0 -1 1 0 0 -1 2 -1 0 -1 1 0 0 -1 1 0 0 -1c0,-1 0,-1 -1,-1l0 -1 -1 0 0 -1 -2 0 0 -2 -1 0c0,-1 0,0 0,-1l-1 0 -1 1 -1 0 0 2 -1 0 0 1 -2 0 0 1 -1 0 0 2 1 0 0 1 2 0 0 1 1 1 0 1 2 0 0 1 1 0zm1 -23l0 1 -1 0c0,0 0,1 0,1 0,1 0,0 0,1l-1 0 -1 -2 -1 0 0 -1 -1 0c0,-1 0,-1 -1,-1l0 0 -1 1c-1,0 0,0 -1,0l0 1 1 0 0 2 2 0 0 1 1 0 0 1 2 0 0 2 1 0c0,-1 0,-1 0,-2l1 0 0 -1 2 0 0 -1 1 0 0 -2 1 0 0 -1c0,0 0,0 -1,0 0,-1 0,-1 0,-1l-1 0 0 1 -2 0zm2 36l1 0 0 -2 1 0 0 -1c0,0 0,0 -1,0l0 -1 -1 0 0 -2 -2 0 0 -1 -1 0c0,-1 0,-1 0,-2l-1 0 -1 2 -1 0 0 1 -1 0 0 2 -2 0 0 1 -1 0 0 1 1 0 0 2 2 0 0 -2 1 0 0 -1 1 0 1 -1 1 0 0 1 1 0 0 1 2 0 0 2zm13 -10l0 1 -1 0 0 2 -1 0 0 1 -2 0c0,2 0,2 -1,2l0 -2 -2 0 0 -1 -1 0 0 -1 -1 -1 0 -1 -2 0 0 -1c1,0 0,0 1,0 0,0 1,0 1,0l0 -2 1 0c0,1 0,0 0,1 0,0 0,1 0,1l2 0 0 1 1 0 0 1 1 0 0 -1 2 0 0 -1c-1,0 -1,0 -2,0l0 -2 -1 0 0 -1 -2 0 0 -1 -1 0 0 -2 -1 0 0 2 -2 0 0 1 -1 0 0 1 -1 0 0 2c-1,0 -1,0 -2,0l0 1 2 0 0 1 1 0 0 2 1 0 0 1 2 0 0 1 1 1 0 1 2 0 0 1c-1,0 -1,0 -1,0 0,0 -1,0 -1,0l0 2 -1 0 0 1 -2 0 0 1 -1 1 0 1 -1 0 0 -2 -2 0 0 -1 -1 0c0,-1 0,-1 0,-1l-1 0 -1 1 -1 0 0 1 -1 1 -1 1 0 0c-1,0 -1,0 -1,-1 0,0 0,0 0,0l-1 -1 0 -1 -1 0 0 -1 -2 0 0 -2 -1 0 0 -1 1 0 0 -1 2 -1 0 -1 1 0 0 -1 1 0 0 -2 2 0 0 -1 1 0 0 -1c-1,0 0,0 -1,0l0 -2 -2 0 0 -1 -1 0 0 -1 -1 0c0,-1 0,-1 -1,-2l-1 0 0 2 -1 0 0 1 -1 0 -1 1 -1 0 0 2 -1 0 0 1 1 0 0 1 1 0 0 -1 2 0 0 -1 1 0c0,0 0,-1 0,-1 0,-1 0,0 0,-1l1 0c0,1 1,0 1,1 0,0 0,0 0,1l1 0 0 1c0,0 0,0 -1,0 0,0 0,0 0,0l0 1 -2 0 0 2 -1 0 0 1 -1 0 -1 2 -1 0 0 -2 -1 0 0 -1 -2 0 0 -1 -1 -1 0 -1 -1 0 0 -1c0,0 0,0 0,0 0,0 1,0 1,0l0 -2 1 0 0 -1 2 0 0 -1 1 -1 0 -1 1 0 0 -1 2 0 0 -1c-1,-1 -1,-1 -2,-1l0 -1 -1 0 0 -1 -1 0 0 -2 -2 0 0 -1 -1 0 0 -1c0,0 -1,0 -1,0 0,-1 0,-1 0,-1l0 -1 1 0 0 -1 1 0 0 -2 2 0 0 -1 1 0 0 -1 1 0 1 1 1 0 0 1 1 0 0 2 2 0 0 1 1 0 0 1 -1 1c0,0 0,0 0,0 -1,1 0,1 -1,1l-1 0c0,0 0,0 0,-1 0,0 0,0 0,0l-1 0 0 -2 -2 0c0,-1 1,-1 0,-1l-1 0 0 1 -1 0 0 1 1 1 0 1 2 0 0 1 1 0 0 2 1 0 0 1 1 0c1,-1 1,0 1,-1l1 0 0 -2 1 0 0 -1 2 0 0 -1 1 -1 0 -1c-1,0 0,0 -1,0l0 -1 -2 0 0 -2 -1 0 0 -1 -1 0 0 -1 -2 0 0 -2 -1 0 0 -1 1 0 0 -1 2 -1 0 -1 1 0 0 -1 1 0c0,0 0,-1 0,-1 0,0 0,0 1,-1l0 0 1 2 1 0 0 1 2 0 0 1 1 1c0,-1 0,-1 0,-2l1 0 0 -1 2 0 0 -2 1 0 0 2 1 0 0 1 2 0 0 1 1 1 0 1 1 0 1 1 -2 0 0 2 -1 0 0 1 -2 0 0 1 -1 0 0 2 -1 0 0 1c-1,0 -1,0 -2,0l0 1 2 1 0 1 1 0 0 1 1 0 0 2 2 0 0 1 1 0c0,-1 0,0 0,-1l1 0 0 -2 2 0 0 -1 1 0 0 -1 2 -1 0 -1c-1,0 -1,0 -2,0 0,-1 0,0 0,-1l-1 0c0,0 0,0 0,1l-1 0 -1 2 -1 0c0,0 0,0 0,0 0,1 0,1 0,1l-1 0 0 -1 -2 -1 0 -1 2 0 0 -1 1 0 0 -2 1 0 0 -1 2 0 0 -1 1 0 0 1 2 0 0 1 1 0 0 2 1 0 0 1 2 0 0 2 -2 0 0 1 -1 0 0 1 -1 0 0 2 -2 0 0 1 -1 0 0 1c-1,0 -1,0 -1,1l0 1 1 0 0 1 1 0 0 1 2 1 0 1 1 0 0 1 1 0 0 2 2 0 0 1 -2 0z"/>
   <path class="fil0" d="M110 303l0 -1 1 0 0 -1 2 0 0 -2 1 0 0 -1 1 0 0 -1 -1 -1 0 -1 -1 0 0 -1 -2 0 0 -2 -1 0 0 -1 -1 0 -1 1 -1 0 0 2 -1 0 0 1 -2 0 0 2 -1 0 0 1 1 0 0 1 2 0 0 2 1 0 0 1 2 0 0 1 1 0zm5 -22l0 -1c0,0 0,0 -1,0 0,-1 0,-1 0,-1l-1 0 0 1 -2 0 0 1 -1 0 0 2 -1 0 -1 -2 -1 0 0 -1 -1 0c0,-1 0,-1 -1,-1l0 0c-1,0 -1,0 -1,1l-1 0 0 1 1 0 0 2 2 0 0 1 1 0 0 1 2 0 0 2 1 0 0 -2 1 0 0 -1 2 0 0 -1 1 0 0 -2 1 0zm-1 35l0 -2 1 0 0 -1 -1 0 0 -1 -1 0 0 -2 -2 0 0 -1 -1 0c0,-1 0,-1 0,-1l-1 0 -1 1 -1 0 0 1 -1 0 0 2 -2 0 0 1 -1 0 0 1 1 0 0 2 2 0 0 -2 1 0 0 -1 1 0c0,0 0,-1 0,-1 1,0 1,0 1,0l1 0 0 1 1 0 0 1 2 0 0 2 1 0zm12 -10l0 2 -1 0 0 1 -1 0 0 1 -2 0 0 2 -1 0 0 -2 -1 0 -1 -1 -1 0 0 -1 -1 -1 0 -1 -2 0 0 -1 2 0 0 -2 1 0c0,1 0,1 0,1 0,0 0,1 0,1l2 0 0 1 1 0 0 1 1 0 0 -1 2 0 0 -1c-1,0 -1,0 -2,0l0 -2 -1 0 0 -1 -1 0 -1 -1 -1 0 0 -2 -1 0 0 2 -2 0 0 1 -1 0 0 1 -1 0 0 2 -2 0 0 1 2 0 0 1 1 1 0 1 1 0 0 1 2 0 0 2 1 0 0 1c0,0 1,0 1,0 1,0 0,0 1,0l0 1 -2 0 0 2 -1 0 0 1 -2 0 0 2 -1 0 0 1 -1 0 0 -1 -2 0 0 -2 -1 0c0,-1 0,-1 0,-1l-1 0 -1 1 -1 0 0 2 -1 0 0 1 -2 0 0 -1 -1 0 0 -2 -1 0 0 -1 -2 0 0 -2 -1 0 0 -1 1 0 0 -1 2 0 0 -2 1 0 0 -1 1 0 0 -1 2 -1 0 -1 1 0 0 -1 -1 0 0 -2 -2 0 0 -1 -1 0 0 -1 -1 0c0,-1 0,-1 -1,-2l-1 0 0 2 -1 0 0 1 -1 0 -1 1 -1 0 0 2 -1 0 0 1 1 0 0 1 1 0 0 -1 2 0 0 -1 1 0 0 -2 1 0 1 2 1 0 0 1 -1 0 0 2 -2 0 0 1 -1 0 0 1 -1 0 -1 2 -1 0 0 -2 -1 0 0 -1 -2 0 0 -1 -1 0 0 -2 -1 0 0 -1 1 0 0 -2 1 0 0 -1 2 0 0 -1 1 0 0 -2 1 0 0 -1 2 0 0 -1c-1,0 0,0 -1,0 0,-1 0,0 -1,0l0 -2 -1 0 0 -1 -1 0 0 -2 -2 0 0 -1 -1 0 0 -1c0,0 -1,0 -1,0 0,0 0,0 0,-1l0 -1 1 0 0 -1 1 0 0 -1 2 -1 0 -1 1 0c0,-2 0,-1 1,-1 0,0 0,0 1,0 0,0 0,1 0,1l1 0 0 1 1 0 0 2 2 0 0 1 1 0 0 2 -1 0 0 1 -2 0c0,0 0,0 0,-1 0,0 0,0 0,0l-1 0 0 -2 -2 0c0,0 0,0 0,-1 0,0 0,0 0,0l-1 0c0,1 0,0 0,1l-1 0 0 1 1 1 0 1 1 0 1 1 1 0 0 2 1 0 0 1 2 0 0 -1 1 0 0 -2 1 0 0 -1 2 0 0 -1 1 0 0 -1c-1,-1 0,-1 -1,-1l0 -1 -2 0 0 -1 -1 -1 0 -1 -1 0 0 -1 -2 0 0 -2 -1 0 0 -1 1 0 0 -1 2 0 0 -2 1 0 0 -1 1 0 0 -2 1 0 1 2 1 0 0 1 2 0 0 2 1 0 0 -2 1 0 0 -1 2 0c0,-2 0,-2 1,-2 0,1 0,1 0,1 0,0 0,1 0,1l1 0 0 1 2 0 0 2 1 0 0 1 2 0c0,1 0,1 -2,1l0 2 -1 0 0 1 -2 0 0 2 -1 0 0 1 -1 0 0 1 -2 0 0 1 2 1 0 1 1 0 0 1 1 0 0 2 2 0 0 1 1 0 0 -1 1 0 0 -2 2 0 0 -1 1 0 0 -1 2 0 0 -1c-1,-1 -1,-1 -2,-1 0,-1 0,0 0,-1l-1 0c0,0 0,0 0,0 0,1 0,1 0,1l-1 0 0 2 -2 0 0 1 -1 0 0 -1 -2 0 0 -1 2 -1 0 -1 1 0 0 -2 1 0 1 -1 1 0c0,0 0,-1 0,-1 0,0 0,0 0,0l1 0 0 1 2 0 0 1 1 0 0 2 1 0 0 1 2 1 0 0 -2 1 0 1 -1 0 0 1 -1 0 0 2 -2 0 0 1 -1 0 0 2 -1 0 0 1 1 0 0 1 1 0 0 2 2 0 0 1 1 0 0 1 1 0 0 2c1,0 1,0 1,0 1,0 0,0 1,0l0 1 -2 0z"/>
   <path class="fil0" d="M114 100c1,0 1,0 1,-1l0 -1 -1 0 0 -1 -1 0 0 -1 -2 0 0 -2 -1 0 0 -1 -1 0 0 1 -2 0 0 2 -1 0 0 1 -2 0 0 1 -1 1 0 1 1 0 0 1 2 0 0 1 1 0 0 2 1 0 1 1 1 0c0,0 0,0 0,-1l1 0 0 -2 2 0 0 -1 1 0 0 -1zm0 -17c1,0 1,0 1,0l0 -1 -1 0 0 -2 -1 1 0 1 -2 0 0 1 -1 0 0 2 -1 0 -1 -2 -1 0 0 -1 -1 0 0 -2 -1 0c-1,1 -1,1 -1,2l-1 0 0 1 1 0 0 2 2 0 0 1 1 0 0 1 1 0 1 2 1 0c0,-1 0,-1 0,-2l1 0 0 -1 2 0 0 -1 1 -1 0 -1zm-6 32l1 -2 1 0c0,1 0,1 0,2l1 0 0 1 2 0 0 2 1 0c0,-1 0,-1 0,-2 1,0 1,0 1,0l0 -1 -1 0 0 -1 -1 0 0 -2 -2 0 0 -1 -1 0 0 -2 -1 0 0 2 -2 0 0 1 -1 0 0 1 -2 1 0 1 -1 0 0 1 1 0 1 2 0 0c1,-1 1,-1 1,-2l1 0 0 -1 1 0zm10 -35l0 2 1 0 1 1c-1,0 -1,0 -1,0 0,0 -1,0 -1,0l0 2 -1 0 0 1 -2 0 0 1 -1 0 0 2 -1 0 0 1 -2 0 0 1 2 0 0 2 1 0 0 1 1 0 0 2 2 0 0 1 1 0c0,-1 0,0 0,-1l1 -1 1 -1 1 0 0 -1 1 0 0 -2c1,0 1,1 2,0l0 -1 -2 0 0 -1 -1 0 0 1 -1 0 0 1 -2 1 0 1 -1 0c0,0 0,0 0,-1 0,0 0,0 0,0l-2 -1 0 -1 2 0 0 -1 1 0 0 -2 1 0 1 -1 1 0 0 -1 1 0 0 1 2 0 0 1 1 0 0 2 1 0 0 1 2 0 0 1 -2 1 0 1 -1 0 0 1 -1 0 0 2 -2 0 0 1 -1 0 0 1 -1 1 0 0c0,1 0,1 1,1l0 1 1 0 0 1 2 0 0 2 1 0 0 1 1 0 0 2 2 0 0 1c-1,0 0,0 -1,0 0,0 0,0 -1,0l0 1 -1 0 0 2 -1 0 0 1 -2 0 0 1 -1 0 0 -1 -2 0 0 -1 -1 0 0 -2 -1 0 0 -1c0,0 -1,0 -1,0 -1,0 0,0 -1,0l0 -1 2 0 0 -2 1 0 0 2 1 0 1 1 1 0 0 1 1 0c0,0 0,0 0,-1 1,0 1,0 2,0l0 -1 -2 0 0 -2 -1 0 0 -1 -2 0 0 -1 -1 -1 0 -1 -1 0 0 1 -2 1 0 1 -1 0 0 1 -1 0 0 2 -2 0 0 1 2 0 0 1 1 0 0 2 1 0 0 1 2 0 0 1 1 0 0 2 2 0 0 1 -2 0 0 2 -1 0 0 1 -2 0 0 1 -1 0c0,1 0,1 0,1 0,1 0,0 0,1l-1 0 0 -2 -2 0 0 -1 -1 0 0 -1 -1 0 0 1 -2 0 0 1 -1 0 -1 2 0 0 -1 -2 -1 0 0 -1 -1 0 0 -1 -2 0 0 -2 -1 0 0 -1 1 0 0 -2 2 0 0 -1 1 0 0 -1 1 0 0 -2 2 0 0 -1c1,0 0,0 1,0l0 -1 -1 0 0 -2 -2 0 0 -1 -1 0 0 -1 -1 -1 0 -1 -2 0 0 1 -1 1 0 1 -1 0 0 1 -2 0 0 2 -1 0 0 1 1 0 0 1 1 0c1,0 0,0 0,-1l2 0 0 -1 1 0 0 -2 1 0 1 2 1 0 0 1 -1 0 0 1 -2 0 0 2 -1 0 0 1 -1 0 -1 2 -1 -1 0 -1 -1 0 0 -1 -2 0 0 -2 -1 0 0 -1 -1 0 0 -1 1 0 0 -2 1 0 0 -1 2 0 0 -2 1 0 0 -1 1 0 0 -1c2,0 1,0 2,-1l0 -1 -2 0 0 -1 -1 0 0 -1 -1 0 0 -2 -2 0 0 -1 -1 0 0 -1 -1 -1 0 -1 1 0 0 -1 1 0 0 -2 2 0 0 -1 1 0c0,0 0,-1 0,-1 0,0 0,0 0,0l1 0 1 1 1 0 0 1 1 0 0 2 2 0 0 1 1 0 0 1 -1 1c0,0 0,0 0,0 -1,1 -1,1 -1,1l-1 0 0 -1 -1 -1 0 -1 -2 0 0 -1 -1 0 0 1 -1 0 0 1 1 0 0 2 1 0 1 1 1 0 0 2 1 0 0 1 1 0c1,-1 1,0 1,-1l1 0 0 -2 1 0 0 -1 2 0 0 -2c1,0 0,1 1,0l0 -1 -1 0 0 -1 -2 0 0 -2 -1 0 0 -1 -1 0 0 -1 -2 0 0 -2c0,0 0,0 -1,0 0,0 0,0 0,0l0 -1 1 0 0 -2 2 0 0 -1 1 0 0 -1 1 0c0,0 0,-1 0,-1 0,-1 0,0 1,-1l0 0 1 2 1 0 0 1 1 0 1 1 1 0c0,0 0,0 0,-1l1 0 0 -1 2 0 0 -2 1 0 0 2 1 0 0 1 2 0 0 1 1 0z"/>
   <path class="fil0" d="M113 18l1 0c0,0 0,0 0,-1 1,0 1,0 1,0l0 -1 -1 0 0 -2 -1 0 0 -1 -2 0 0 -1 -1 0 0 -2 -1 0 0 2 -2 0 0 1 -1 0 0 1 -2 0 0 2 -1 0 0 1 1 0 0 1 1 1c1,-1 1,-1 1,-2l1 0 0 -1 1 0 0 -2 2 0 0 2 1 0 0 1 2 0 0 1zm-15 -17l6 0 0 1 2 0 0 1 1 0 0 2 1 0 1 1 1 0 0 -1 1 0 0 -2 2 0 0 -1 1 0 0 -1 7 0 0 1 1 0 0 1 2 0 0 2 1 0 0 1 1 0 0 1 2 1 0 1c-1,0 0,0 -2,0l0 1 -1 0 0 2 -1 0 0 1 -2 0c0,0 0,1 0,1 0,0 0,0 0,0l-1 0 0 -1 -2 0 0 -1 -1 0 0 -2 -1 0 0 -1c-1,0 -1,0 -2,0l0 -1 2 -1 0 -1 1 0 0 1 1 0 1 2 1 0 0 1 1 0c0,0 0,0 0,-1l2 0 0 -1 -2 -1 0 -1 -1 0 0 -1 -2 0 0 -2 -1 0 0 -1 -1 0 0 1 -2 0 0 2 -1 0 0 1 -1 0 0 2 -2 0 0 1 2 0 0 1 1 0 0 2 1 0 0 1 2 0 0 1 1 0 0 2 1 0 1 1c-1,0 0,0 -2,0l0 2 -1 0 0 1 -2 0 0 1 -1 0c0,0 0,1 0,1 0,1 0,0 0,1l-1 0 -1 -2 -1 0 0 -1 -1 0 0 -1 -1 0 -1 1 -1 0 0 1 -1 0 -1 2 0 0 -1 -2 -1 0 0 -1 -1 0 0 -1 -2 0 0 -2 -1 0 0 -1 1 0 0 -2 2 0 0 -1 1 0 0 -1 1 0 0 -2 2 0 0 -1c1,0 0,0 1,0l0 -1 -1 -1 0 -1 -2 0 0 -1 -1 0 0 -2 -1 0 0 -1 -2 0 0 1 -1 0 0 2 -1 0 -1 1 -1 0 0 2 -1 0 0 1 1 0 0 1 1 0 1 -1 1 0 0 -1 1 -1 0 -1 2 0 0 1 1 1 0 1c0,0 0,0 -1,0 0,0 0,0 0,0l0 1 -2 0 0 2 -1 0 0 1 -1 0c0,0 0,1 0,1 -1,0 -1,0 -1,0l-1 0c0,0 0,0 0,0 0,0 0,-1 0,-1l-1 0 0 -1 -2 0 0 -2 -1 0 0 -1 -1 0 0 -1 1 -1 0 -1 1 0 0 -1 2 0 0 -2 1 0 0 -1 1 0 1 -1z"/>
   <path class="fil0" d="M110 353l0 -1 1 -1 0 0c0,-1 0,-1 -1,-1l0 -1 -2 0 0 -1 -1 -1 0 -1c1,0 0,0 1,0l1 -1 1 0c0,0 0,0 0,0 0,0 0,1 0,1l1 0 0 1 2 0 0 2 1 0 0 1 1 0 0 2 2 0 0 1 -7 0z"/>
   <path class="fil0" d="M173 207l0 1 -1 0c0,2 0,2 -2,2l0 -1 -1 -1 0 -1c0,0 -1,0 -1,0 -1,0 0,0 0,0l0 -1 1 0 0 -2 1 0c0,0 0,0 0,-1 1,0 0,0 1,0l1 0 0 1 1 0 0 2 2 0 0 1c-1,0 -1,0 -2,0z"/>
   <path class="fil0" d="M169 159l0 -1 -1 0 0 -2 1 0 0 -1 1 0c0,-1 0,-1 0,-1 1,-1 0,0 1,-1l1 0 0 2 1 0 0 1 2 0 0 2 -2 0 0 1 -1 0 0 1 -1 0c-1,0 0,0 -1,0 0,0 0,-1 0,-1l-1 0z"/>
   <path class="fil0" d="M173 9l0 1 -1 0c0,0 0,1 0,1 0,1 0,0 0,1l-1 0c-1,-1 -1,-1 -1,-2l-1 0 0 -1c-1,0 -1,0 -1,0l0 -1 1 -1 0 -1 1 0 0 -1 2 0 0 1 1 0 0 1c1,1 2,0 2,2l-2 0z"/>
   <path class="fil0" d="M49 108l0 1 -1 0c0,1 0,1 0,2l-1 0 -1 -2 -1 0 0 -1 -1 0 0 -1 1 0 0 -2 2 0 0 -1 1 0 0 1 1 0 0 1c0,0 1,1 1,1 1,0 0,0 1,0l0 1c-1,0 0,0 -1,0 0,0 -1,0 -1,0z"/>
   <path class="fil0" d="M44 157l0 -1 1 0 0 -1 2 0 0 -2 1 0c0,1 0,0 0,1 0,0 0,1 0,1l1 0 0 1 2 0 0 1 -2 1 0 1 -1 0c0,1 0,1 0,1l-1 0 -1 -1 -1 0 0 -1 -1 -1z"/>
   <path class="fil0" d="M49 306l0 2 -1 0 0 1 -1 0 0 -1 -2 0 0 -2c-1,0 -1,0 -1,0l0 -1 1 0 0 -2 1 0 1 -1 1 0c0,1 0,0 0,1l1 0 0 2c1,0 1,0 1,0 1,0 0,0 1,0l0 1 -2 0z"/>
   <path class="fil0" d="M173 306l0 2 -1 0c0,1 0,1 -2,1l0 -1 -1 -1 0 -1 -1 0 0 -1c0,0 0,0 1,0l0 -2 1 0 1 -1 1 0 0 1 1 0 0 2 2 0 0 1 -2 0z"/>
   <path class="fil0" d="M173 58l0 2 -1 0 0 1 -1 0c-1,0 -1,0 -1,-1l-1 0 0 -2 -1 0 0 -1 1 0 0 -1 1 0 0 -2 2 0c0,1 0,1 0,2l1 0 0 1 2 0 0 1 -2 0z"/>
   <path class="fil0" d="M44 9l0 -1 1 -1 0 -1 2 0 0 -1 1 0 0 1 1 0 0 1 2 1 0 1c-1,0 0,0 -1,0 0,0 -1,0 -1,0l0 1 -1 0c0,2 0,1 0,2l-1 0 -1 -2 -1 0 0 -1 -1 0z"/>
   <path class="fil0" d="M173 257l0 1 -1 0c0,1 0,1 -2,1l0 -1 -1 0 0 -1 -1 -1 0 -1 1 0 0 -1 1 0 1 -2 1 0 0 2 1 0 0 1 2 0 0 1 -2 1z"/>
   <polygon class="fil0" points="49,59 49,60 48,60 48,61 47,61 46,60 45,60 45,58 44,58 44,57 45,57 45,56 47,56 47,54 48,54 48,56 49,56 49,57 51,57 51,58 "/>
   <path class="fil0" d="M49 257l0 1 -1 0 0 1 -1 0 0 -1 -2 0 0 -1 -1 -1 0 -1 1 0 0 -1 1 0 1 -2 1 0c0,1 0,0 0,2l1 0 0 1c0,0 1,0 1,0 1,0 0,0 1,1l0 0 -2 1z"/>
   <path class="fil0" d="M45 208l0 -1 -1 0 0 -1 1 0 0 -2 1 0 1 -1 1 0 0 1 1 0 0 2 2 0 0 1c-1,0 0,0 -1,0 0,0 -1,0 -1,0l0 1 -1 1 0 1 -1 0 0 -2 -2 0z"/>
   <path class="fil0" d="M169 109l0 -1 -1 0 0 -1 1 0 0 -2 1 0 0 -1 2 0 0 1 1 0 0 2 2 0 0 1 -2 0 0 1 -1 0c0,1 0,1 0,1 0,1 0,0 0,1l-1 0c-1,-1 -1,-1 -1,-2l-1 0z"/>
   <polygon class="fil0" points="102,353 102,352 103,352 103,350 104,350 105,349 105,349 106,350 107,350 107,352 109,352 109,353 "/>
   <path class="fil1" d="M40 9c0,-1 0,0 0,-1l1 -1 0 -1 1 0 0 -1 2 0 0 -2 1 0 0 -1 2 0 0 -1 -4 0 -1 1 -1 0c0,1 0,1 0,1l-1 0c0,0 0,-1 0,-2l7 0 0 1 -1 0 0 2 -2 0 0 1 -1 0 0 2 -2 -1 1 2 -2 0 0 1z"/>
   <path class="fil0" d="M110 323l0 1 -1 0 -1 -1 -1 0 0 -2 1 0 0 -1 2 0 0 1c0,0 1,0 1,0 0,0 0,0 0,1l0 0 -1 1z"/>
   <path class="fil0" d="M110 174c0,0 0,1 0,1 0,0 0,0 0,0l-2 0 0 -1 -1 0 0 -1c0,0 0,0 1,0 0,0 0,0 0,0l0 -2 2 0c0,1 0,0 0,1 0,0 0,0 0,1l1 0 0 1 -1 0z"/>
   <path class="fil0" d="M110 25c0,1 0,1 0,1 0,1 0,1 0,1l-1 0 -1 -2c-1,0 0,0 -1,0l0 -1 1 0 0 -1 2 0 0 1 1 0 0 1c0,0 0,0 -1,0z"/>
   <path class="fil0" d="M132 297c0,-1 1,-1 1,-1 0,0 0,0 0,0 0,-1 0,-1 1,-1l0 0 1 1 1 1 0 1 -1 0 0 1 -2 0 0 -1 -1 0 0 -1c0,0 0,0 0,0z"/>
   <path class="fil0" d="M110 100c0,0 0,1 0,1 0,0 0,0 0,0l-1 0c0,0 0,0 -1,0 0,-1 0,-1 0,-1 0,0 0,0 0,0 -1,0 -1,0 -1,-1l0 0c0,-1 0,-1 1,-1 0,0 0,0 0,0 0,0 0,0 0,-1 1,0 1,0 1,0l1 0 0 1 1 1 0 0c0,1 0,1 0,1 0,0 -1,0 -1,0z"/>
   <path class="fil0" d="M110 298l0 1 -1 0 -1 -1 -1 0 0 -1c0,0 0,0 1,-1l1 -1 1 0c0,0 0,0 0,1 0,0 0,0 0,0 1,1 1,0 1,1l0 1 -1 0z"/>
   <path class="fil0" d="M111 199c0,0 0,0 0,0 0,0 -1,0 -1,0 0,0 0,0 0,1 0,0 0,0 0,0l-1 0 -1 -1c-1,0 -1,0 -1,-1 0,-1 0,-1 1,-1 0,0 0,0 0,0 1,-1 1,-1 1,-1l1 0 0 1c1,0 1,0 1,1l0 1z"/>
   <path class="fil0" d="M135 199l-1 1 0 0c-1,0 -1,0 -1,-1 0,0 -1,0 -1,0 0,0 0,0 0,0 0,-2 0,-2 1,-2 0,-1 0,-1 1,-1l1 1c1,0 1,0 1,1l0 1 -1 0z"/>
   <path class="fil0" d="M85 298l0 1 -1 0c0,0 0,0 0,-1l-2 0 0 -1 2 -1 0 -1 1 0c0,0 0,0 0,1 0,0 0,0 0,0l1 1 0 1 -1 0z"/>
   <path class="fil0" d="M110 75l0 1 -1 0 -1 -1c0,0 0,0 0,0 -1,0 -1,0 -1,0l0 -1c0,0 0,0 1,0 0,0 0,-1 0,-1l1 -1 1 0 0 1c0,0 1,1 1,1 0,0 0,0 0,0l0 1c0,0 0,0 -1,0z"/>
   <path class="fil0" d="M85 97c0,0 0,0 0,1 0,0 1,0 1,0 0,0 0,0 0,1l0 0 -1 1 0 1 -1 0c0,0 0,0 0,0 0,-1 0,-1 0,-1 -2,0 -1,0 -2,-1l0 0 2 -1 0 -1 1 0z"/>
   <path class="fil0" d="M110 273l0 1 -1 0 -1 -1c0,0 0,0 0,0 -1,0 -1,0 -1,0l0 -1c0,0 0,0 1,0l1 -2 1 0 0 2 1 0 0 1 -1 0z"/>
   <path class="fil0" d="M85 199l0 1 -1 0 0 -1c0,0 -1,0 -1,0 -1,0 0,0 -1,0l0 -1c1,-1 0,-1 2,-1 0,0 0,0 0,0 0,-1 0,-1 0,-1l1 0c0,0 0,0 0,1 0,0 0,0 0,0l1 1 1 1 -2 0z"/>
   <path class="fil0" d="M135 100c0,0 0,1 0,1 0,0 -1,0 -1,0l0 0 -1 -1 -1 -1 0 0c0,-1 0,-1 0,-1 0,0 1,0 1,0l1 -1 0 0 1 1 1 1 0 0c0,1 0,1 -1,1z"/>
   <path class="fil0" d="M110 125l0 1 -1 0 -1 -1 -1 -1 0 -1 1 0 1 -1 1 0c0,0 0,0 0,1l1 0 0 1 -1 1z"/>
   <path class="fil0" d="M110 224l0 1 -1 0 -1 -1 -1 -1 0 -1c1,0 0,0 1,0l1 -1 1 0 0 1 1 0 0 1 -1 1z"/>
   <path class="fil2" d="M175 5c0,0 -1,1 -1,-2l-1 0 0 -1 -1 0 0 -1 4 0 0 1 -1 -1 -3 0 0 1 1 0 0 1 2 0 0 2z"/>
   <polygon class="fil3" points="143,353 143,351 144,351 144,353 "/>
   <polygon class="fil3" points="74,353 74,352 76,351 75,353 "/>
   <path class="fil3" d="M170 353l0 -2 2 1c0,0 0,0 0,0 0,1 0,1 0,1l-2 0z"/>
   <path class="fil3" d="M47 353c0,0 0,-1 0,-1 0,-1 0,0 0,-1l1 0 0 2 -1 0z"/>
   <path class="fil3" d="M84 1l1 0 0 1 -1 0c0,0 0,0 0,-1 0,0 0,0 0,0z"/>
   <path class="fil4" d="M110 2l0 -1 -1 0 0 1 1 0zm-2 -1l2 0 0 1 -2 0 0 -1z"/>
   <polygon class="fil5" points="135,1 135,2 133,2 133,1 "/>
   <polygon class="fil5" points="109,2 109,1 110,1 110,2 "/>
   <path class="fil6" d="M133 1l2 0 0 0 -2 0 0 1 2 0c-1,0 0,0 -1,0 0,0 -1,0 -1,0l0 -1z"/>
  </g>
 </g>
</svg>
