<?xml version="1.0" encoding="UTF-8"?>
<!DOCTYPE svg PUBLIC "-//W3C//DTD SVG 1.1//EN" "http://www.w3.org/Graphics/SVG/1.1/DTD/svg11.dtd">
<!-- Creator: CorelDRAW X8 -->
<svg xmlns="http://www.w3.org/2000/svg" xml:space="preserve" width="80px" height="80px" version="1.1" style="shape-rendering:geometricPrecision; text-rendering:geometricPrecision; image-rendering:optimizeQuality; fill-rule:evenodd; clip-rule:evenodd"
viewBox="0 0 80 80"
 xmlns:xlink="http://www.w3.org/1999/xlink">
 <defs>
  <style type="text/css">
   <![CDATA[
    .fil2 {fill:#FEFEFE}
    .fil3 {fill:#EF7F1A}
    .fil1 {fill:#96AEC9}
    .fil0 {fill:#AABED3}
   ]]>
  </style>
 </defs>
 <g id="Слой_x0020_1">
  <metadata id="CorelCorpID_0Corel-Layer"/>
  <polygon class="fil0" points="21,26 14,26 14,26 21,26 "/>
  <polygon class="fil0" points="63,56 60,56 60,56 63,56 "/>
  <polygon class="fil0" points="66,26 66,26 64,26 64,26 "/>
  <polygon class="fil0" points="41,25 41,25 40,25 40,25 "/>
  <polygon class="fil0" points="45,30 45,30 45,31 45,31 "/>
  <polygon class="fil0" points="67,27 67,28 67,28 67,27 "/>
  <polygon class="fil0" points="58,43 58,42 58,42 58,43 "/>
  <polygon class="fil1" points="34,36 34,36 34,37 34,37 "/>
  <polygon class="fil0" points="45,38 45,38 44,38 44,38 "/>
  <polygon class="fil0" points="38,56 38,56 38,56 38,56 "/>
  <polygon class="fil0" points="41,25 41,25 41,25 41,25 "/>
  <polygon class="fil1" points="45,53 45,53 45,53 45,53 "/>
  <polygon class="fil0" points="37,56 37,56 37,56 37,56 "/>
  <polygon class="fil1" points="34,38 34,38 34,38 34,38 "/>
  <polygon class="fil1" points="36,56 36,56 36,56 36,56 "/>
  <polygon class="fil1" points="34,25 33,25 33,25 34,25 "/>
  <polygon class="fil0" points="36,56 36,55 35,55 35,56 "/>
  <polygon class="fil0" points="67,28 67,28 67,28 67,28 "/>
  <polygon class="fil0" points="13,28 13,28 13,28 13,28 "/>
  <polygon class="fil0" points="45,52 45,52 45,52 45,52 "/>
  <polygon class="fil0" points="45,27 45,27 44,27 44,27 "/>
  <polygon class="fil0" points="66,26 66,26 66,26 66,26 "/>
  <polygon class="fil0" points="43,56 43,56 43,56 43,56 "/>
  <polygon class="fil1" points="34,25 34,25 34,25 34,25 "/>
  <polygon class="fil1" points="45,38 45,38 45,38 45,38 "/>
  <polygon class="fil0" points="45,51 45,51 45,52 45,52 "/>
  <polygon class="fil1" points="31,27 31,27 31,27 31,27 "/>
  <polygon class="fil0" points="34,30 34,30 34,30 34,30 "/>
  <polygon class="fil0" points="31,27 31,27 31,27 31,27 "/>
  <polygon class="fil0" points="66,27 66,26 66,26 66,27 "/>
  <polygon class="fil0" points="33,25 33,25 33,25 33,25 "/>
  <polygon class="fil0" points="34,37 34,37 34,37 34,37 "/>
  <polygon class="fil0" points="47,49 47,49 47,49 47,49 "/>
  <polygon class="fil0" points="44,55 44,55 44,55 44,55 "/>
  <polygon class="fil0" points="35,55 35,55 34,55 34,55 "/>
  <polygon class="fil0" points="38,56 38,56 37,56 37,56 "/>
  <polygon class="fil0" points="66,56 65,56 65,56 66,56 "/>
  <polygon class="fil0" points="34,38 34,38 34,39 34,39 "/>
  <polygon class="fil0" points="44,27 44,27 44,27 44,27 "/>
  <polygon class="fil0" points="34,30 34,30 34,30 34,30 "/>
  <polygon class="fil1" points="45,51 45,51 45,51 45,51 "/>
  <polygon class="fil0" points="45,51 45,51 45,51 45,51 "/>
  <polygon class="fil0" points="13,27 13,27 13,27 13,27 "/>
  <polygon class="fil0" points="67,54 67,54 67,54 67,54 "/>
  <polygon class="fil0" points="33,40 33,40 33,40 33,40 "/>
  <polygon class="fil0" points="42,25 42,25 42,25 42,25 "/>
  <polygon class="fil0" points="42,25 42,25 42,25 42,25 "/>
  <polygon class="fil0" points="45,39 45,39 45,39 45,39 "/>
  <polygon class="fil1" points="14,26 14,26 14,26 14,26 "/>
  <polygon class="fil0" points="34,25 34,25 34,25 34,25 "/>
  <polygon class="fil0" points="56,56 56,56 56,56 56,56 "/>
  <polygon class="fil0" points="32,27 32,27 32,27 32,27 "/>
  <polygon class="fil0" points="47,49 47,49 47,49 47,49 "/>
  <polygon class="fil0" points="34,30 34,30 34,30 34,30 "/>
  <polygon class="fil0" points="22,26 22,26 22,26 22,26 "/>
  <polygon class="fil0" points="33,25 33,25 33,25 33,25 "/>
  <polygon class="fil1" points="58,42 58,42 58,42 58,42 "/>
  <polygon class="fil0" points="35,55 35,55 35,55 35,55 "/>
  <polygon class="fil0" points="36,56 36,56 36,56 36,56 "/>
  <polygon class="fil1" points="66,56 66,56 66,56 66,56 "/>
  <polygon class="fil0" points="58,43 58,43 58,43 58,43 "/>
  <polygon class="fil0" points="56,56 56,56 56,56 56,56 "/>
  <polygon class="fil0" points="52,54 52,54 52,54 52,54 "/>
  <polygon class="fil1" points="32,28 32,28 32,28 32,28 "/>
  <polygon class="fil1" points="24,28 24,28 24,28 24,28 "/>
  <polygon class="fil0" points="33,28 33,28 33,28 33,28 "/>
  <polygon class="fil1" points="15,34 15,34 15,34 15,34 "/>
  <polygon class="fil1" points="19,41 19,41 19,41 19,41 "/>
  <polygon class="fil0" points="24,28 24,28 24,28 24,28 "/>
  <polygon class="fil0" points="13,28 13,28 13,28 13,28 "/>
  <polygon class="fil0" points="30,39 30,39 30,39 30,39 "/>
  <polygon class="fil0" points="54,28 54,28 54,28 54,28 "/>
  <polygon class="fil0" points="19,40 19,40 19,40 19,40 "/>
  <polygon class="fil0" points="13,29 13,28 13,28 13,29 "/>
  <polygon class="fil0" points="33,29 33,28 33,28 33,29 "/>
  <polygon class="fil0" points="67,28 67,28 67,29 67,29 "/>
  <polygon class="fil1" points="25,29 25,29 24,29 24,29 "/>
  <polygon class="fil0" points="27,34 27,34 27,34 27,34 "/>
  <polygon class="fil0" points="51,34 51,34 51,34 51,34 "/>
  <polygon class="fil0" points="64,34 64,34 64,34 64,34 "/>
  <polygon class="fil1" points="54,29 54,29 54,29 54,29 "/>
  <polygon class="fil0" points="29,38 29,38 29,38 29,38 "/>
  <polygon class="fil0" points="34,29 34,29 34,29 34,29 "/>
  <polygon class="fil0" points="67,29 67,29 67,29 67,29 "/>
  <polygon class="fil1" points="13,29 13,29 13,29 13,29 "/>
  <polygon class="fil1" points="51,34 51,34 51,34 51,34 "/>
  <polygon class="fil0" points="13,29 13,29 13,29 13,29 "/>
  <polygon class="fil1" points="34,29 34,29 34,29 34,29 "/>
  <polygon class="fil0" points="54,29 54,29 54,29 54,29 "/>
  <polygon class="fil1" points="67,29 67,29 67,29 67,29 "/>
  <polygon class="fil0" points="27,34 27,34 27,34 27,34 "/>
  <polygon class="fil0" points="30,39 30,38 30,38 30,39 "/>
  <polygon class="fil0" points="25,30 25,30 25,30 25,30 "/>
  <polygon class="fil1" points="67,30 67,30 67,30 67,30 "/>
  <polygon class="fil0" points="18,39 18,39 18,39 18,39 "/>
  <polygon class="fil0" points="53,30 53,30 53,30 53,30 "/>
  <polygon class="fil1" points="47,39 47,39 47,39 47,39 "/>
  <polygon class="fil0" points="28,35 28,35 27,35 27,35 "/>
  <polygon class="fil0" points="51,35 51,35 51,35 51,35 "/>
  <polygon class="fil1" points="46,40 46,40 46,40 46,40 "/>
  <polygon class="fil0" points="17,37 17,37 17,37 17,37 "/>
  <polygon class="fil0" points="14,30 14,30 13,30 13,30 "/>
  <polygon class="fil0" points="67,30 66,30 66,30 67,30 "/>
  <polygon class="fil1" points="51,35 51,35 51,35 51,35 "/>
  <polygon class="fil1" points="49,37 49,37 49,37 49,37 "/>
  <polygon class="fil0" points="25,31 25,30 25,30 25,31 "/>
  <polygon class="fil0" points="50,35 50,35 50,35 50,35 "/>
  <polygon class="fil0" points="25,31 25,31 25,31 25,31 "/>
  <polygon class="fil0" points="53,31 53,31 53,31 53,31 "/>
  <polygon class="fil0" points="33,40 33,40 33,40 33,40 "/>
  <polygon class="fil1" points="14,31 14,31 14,31 14,31 "/>
  <polygon class="fil0" points="28,35 28,35 28,35 28,35 "/>
  <polygon class="fil0" points="66,31 66,31 66,31 66,31 "/>
  <polygon class="fil0" points="26,31 26,31 26,31 26,31 "/>
  <polygon class="fil1" points="19,40 19,40 19,40 19,40 "/>
  <polygon class="fil1" points="34,39 34,39 34,39 34,39 "/>
  <polygon class="fil0" points="18,39 18,39 18,39 18,39 "/>
  <polygon class="fil0" points="47,40 47,40 47,40 47,40 "/>
  <polygon class="fil0" points="26,31 26,31 26,31 26,31 "/>
  <polygon class="fil0" points="43,25 43,25 43,25 43,25 "/>
  <polygon class="fil0" points="60,40 60,40 60,40 60,40 "/>
  <polygon class="fil0" points="14,31 14,31 14,31 14,31 "/>
  <polygon class="fil1" points="26,31 26,31 26,31 26,31 "/>
  <polygon class="fil0" points="16,36 16,36 16,36 16,36 "/>
  <polygon class="fil1" points="26,32 26,31 26,31 26,32 "/>
  <polygon class="fil1" points="28,36 28,36 28,36 28,36 "/>
  <polygon class="fil1" points="26,32 26,32 26,32 26,32 "/>
  <polygon class="fil1" points="26,32 26,32 26,32 26,32 "/>
  <polygon class="fil0" points="45,40 45,40 45,40 45,40 "/>
  <polygon class="fil0" points="26,32 26,32 26,32 26,32 "/>
  <polygon class="fil0" points="16,36 16,36 16,36 16,36 "/>
  <polygon class="fil0" points="26,32 26,32 26,32 26,32 "/>
  <polygon class="fil1" points="31,40 31,40 31,40 31,40 "/>
  <polygon class="fil0" points="28,36 28,36 28,36 28,36 "/>
  <polygon class="fil0" points="31,39 31,39 30,39 30,39 "/>
  <polygon class="fil0" points="48,39 48,39 48,39 48,39 "/>
  <polygon class="fil1" points="31,40 31,40 31,40 31,40 "/>
  <polygon class="fil0" points="20,41 20,41 20,41 20,41 "/>
  <polygon class="fil1" points="33,25 33,25 33,25 33,25 "/>
  <polygon class="fil0" points="20,43 20,43 20,43 20,43 "/>
  <polygon class="fil0" points="43,25 43,25 43,25 43,25 "/>
  <polygon class="fil0" points="20,43 20,43 20,43 20,43 "/>
  <polygon class="fil1" points="15,33 15,33 15,33 15,33 "/>
  <polygon class="fil1" points="21,44 21,44 21,44 21,44 "/>
  <polygon class="fil0" points="59,44 59,44 59,44 59,44 "/>
  <polygon class="fil1" points="21,44 21,44 21,44 21,44 "/>
  <polygon class="fil1" points="21,44 21,44 21,44 21,44 "/>
  <polygon class="fil0" points="22,45 22,45 22,45 22,45 "/>
  <polygon class="fil0" points="22,45 22,45 22,45 22,45 "/>
  <polygon class="fil0" points="23,46 23,46 23,46 23,46 "/>
  <polygon class="fil0" points="61,46 61,46 61,46 61,46 "/>
  <polygon class="fil0" points="61,46 61,46 61,46 61,46 "/>
  <polygon class="fil0" points="23,46 23,46 23,46 23,46 "/>
  <polygon class="fil0" points="23,47 23,47 23,47 23,47 "/>
  <polygon class="fil1" points="23,47 23,47 23,47 23,47 "/>
  <polygon class="fil0" points="62,47 62,47 62,47 62,47 "/>
  <polygon class="fil0" points="24,47 24,47 24,47 24,47 "/>
  <polygon class="fil0" points="24,48 24,48 24,48 24,48 "/>
  <polygon class="fil0" points="24,48 24,48 24,48 24,48 "/>
  <polygon class="fil0" points="25,49 25,49 25,49 25,49 "/>
  <polygon class="fil0" points="32,26 32,26 32,26 32,26 "/>
  <polygon class="fil0" points="43,26 43,26 43,26 43,26 "/>
  <polygon class="fil1" points="64,49 64,49 64,49 64,49 "/>
  <polygon class="fil0" points="47,49 47,49 47,49 47,49 "/>
  <polygon class="fil0" points="46,49 46,49 46,49 46,49 "/>
  <polygon class="fil1" points="25,49 25,49 25,49 25,49 "/>
  <polygon class="fil0" points="64,50 64,50 64,50 64,50 "/>
  <polygon class="fil0" points="52,33 52,33 52,33 52,33 "/>
  <polygon class="fil0" points="49,50 49,50 49,50 49,50 "/>
  <polygon class="fil1" points="65,50 65,50 65,50 65,50 "/>
  <polygon class="fil0" points="49,50 49,50 49,50 49,50 "/>
  <polygon class="fil1" points="65,50 65,50 65,50 65,50 "/>
  <polygon class="fil0" points="32,26 32,26 32,26 32,26 "/>
  <polygon class="fil0" points="50,51 50,51 50,51 50,51 "/>
  <polygon class="fil1" points="27,51 27,51 27,51 27,51 "/>
  <polygon class="fil0" points="50,51 50,51 50,51 50,51 "/>
  <polygon class="fil0" points="45,39 45,39 45,39 45,39 "/>
  <polygon class="fil0" points="28,36 28,36 28,36 28,36 "/>
  <polygon class="fil1" points="27,51 27,51 27,51 27,51 "/>
  <polygon class="fil1" points="49,38 48,38 48,38 49,38 "/>
  <polygon class="fil0" points="50,52 50,51 50,51 50,52 "/>
  <polygon class="fil0" points="23,26 23,26 23,26 23,26 "/>
  <polygon class="fil0" points="51,52 51,52 51,52 51,52 "/>
  <polygon class="fil0" points="67,52 67,52 67,52 67,52 "/>
  <polygon class="fil0" points="29,53 29,53 29,53 29,53 "/>
  <polygon class="fil1" points="51,53 51,53 51,53 51,53 "/>
  <polygon class="fil0" points="29,53 29,53 29,53 29,53 "/>
  <polygon class="fil0" points="51,53 51,53 51,53 51,53 "/>
  <polygon class="fil1" points="67,53 67,53 67,53 67,53 "/>
  <polygon class="fil0" points="30,53 30,53 30,53 30,53 "/>
  <polygon class="fil0" points="23,27 23,26 23,26 23,27 "/>
  <polygon class="fil1" points="30,53 30,53 30,53 30,53 "/>
  <polygon class="fil1" points="67,53 67,53 67,53 67,53 "/>
  <polygon class="fil0" points="31,54 31,53 30,53 30,54 "/>
  <polygon class="fil0" points="31,54 31,54 31,54 31,54 "/>
  <polygon class="fil1" points="44,27 44,26 44,26 44,27 "/>
  <polygon class="fil1" points="53,54 53,54 52,54 52,54 "/>
  <polygon class="fil1" points="31,54 31,54 31,54 31,54 "/>
  <polygon class="fil1" points="53,54 53,54 53,54 53,54 "/>
  <polygon class="fil1" points="32,54 32,54 32,54 32,54 "/>
  <polygon class="fil0" points="32,54 32,54 32,54 32,54 "/>
  <polygon class="fil1" points="45,50 45,50 45,50 45,50 "/>
  <polygon class="fil0" points="33,55 33,55 33,55 33,55 "/>
  <polygon class="fil0" points="55,26 55,26 55,27 55,27 "/>
  <polygon class="fil0" points="67,55 67,55 67,55 67,55 "/>
  <polygon class="fil0" points="33,55 33,55 33,55 33,55 "/>
  <polygon class="fil1" points="34,55 34,55 34,55 34,55 "/>
  <polygon class="fil0" points="44,55 44,55 44,55 44,55 "/>
  <polygon class="fil1" points="34,55 34,55 34,55 34,55 "/>
  <polygon class="fil1" points="27,33 27,33 27,33 27,33 "/>
  <polygon class="fil0" points="54,55 54,55 54,55 54,55 "/>
  <polygon class="fil0" points="35,55 35,55 35,55 35,55 "/>
  <polygon class="fil0" points="65,33 65,33 65,33 65,33 "/>
  <polygon class="fil1" points="55,55 55,55 55,55 55,55 "/>
  <polygon class="fil0" points="31,27 31,27 31,27 31,27 "/>
  <polygon class="fil0" points="44,55 44,55 44,56 44,56 "/>
  <polygon class="fil0" points="55,27 55,27 55,27 55,27 "/>
  <polygon class="fil1" points="15,33 15,33 15,33 15,33 "/>
  <polygon class="fil0" points="66,56 66,56 66,56 66,56 "/>
  <polygon class="fil0" points="55,56 55,56 55,56 55,56 "/>
  <polygon class="fil1" points="19,41 19,41 19,41 19,41 "/>
  <polygon class="fil0" points="60,39 60,39 60,39 60,39 "/>
  <polygon class="fil1" points="67,27 67,27 67,27 67,27 "/>
  <polygon class="fil0" points="55,27 55,27 55,27 55,27 "/>
  <polygon class="fil1" points="31,27 31,27 31,27 31,27 "/>
  <polygon class="fil0" points="61,37 61,37 61,38 61,38 "/>
  <polygon class="fil0" points="45,39 45,39 45,39 45,39 "/>
  <polygon class="fil0" points="32,27 32,27 32,27 32,27 "/>
  <polygon class="fil0" points="56,56 56,56 56,56 56,56 "/>
  <polygon class="fil1" points="32,28 32,27 32,27 32,28 "/>
  <polygon class="fil1" points="53,55 53,55 53,55 53,55 "/>
  <polygon class="fil0" points="19,40 19,40 19,40 19,40 "/>
  <polygon class="fil1" points="32,40 32,40 32,40 32,40 "/>
  <polygon class="fil1" points="33,40 33,40 33,40 33,40 "/>
  <polygon class="fil1" points="59,40 59,40 59,40 59,40 "/>
  <polygon class="fil1" points="19,41 19,40 19,40 19,41 "/>
  <polygon class="fil0" points="59,41 59,41 59,41 59,41 "/>
  <polygon class="fil0" points="43,26 43,25 43,25 43,26 "/>
  <polygon class="fil0" points="20,42 20,42 20,42 20,42 "/>
  <polygon class="fil0" points="58,42 58,42 58,42 58,42 "/>
  <polygon class="fil0" points="44,26 44,26 43,26 43,26 "/>
  <polygon class="fil1" points="20,42 20,42 20,42 20,42 "/>
  <polygon class="fil0" points="44,26 44,26 44,26 44,26 "/>
  <polygon class="fil1" points="32,26 32,26 32,26 32,26 "/>
  <polygon class="fil0" points="44,26 44,26 44,26 44,26 "/>
  <polygon class="fil1" points="44,26 44,26 44,26 44,26 "/>
  <polygon class="fil1" points="21,43 21,43 21,43 21,43 "/>
  <polygon class="fil0" points="13,27 13,27 13,27 13,27 "/>
  <polygon class="fil1" points="55,27 55,27 55,27 55,27 "/>
  <polygon class="fil0" points="13,27 13,27 13,27 13,27 "/>
  <polygon class="fil0" points="59,44 59,44 59,44 59,44 "/>
  <polygon class="fil1" points="21,44 21,44 21,44 21,44 "/>
  <polygon class="fil0" points="55,27 55,27 55,27 55,27 "/>
  <polygon class="fil0" points="54,27 54,27 54,27 54,27 "/>
  <polygon class="fil0" points="22,45 22,45 22,45 22,45 "/>
  <polygon class="fil1" points="32,27 32,27 32,27 32,27 "/>
  <polygon class="fil0" points="22,45 22,45 22,45 22,45 "/>
  <polygon class="fil1" points="22,46 22,46 22,46 22,46 "/>
  <polygon class="fil1" points="24,27 24,27 24,27 24,27 "/>
  <polygon class="fil0" points="24,28 24,28 24,28 24,28 "/>
  <polygon class="fil0" points="54,28 54,28 54,28 54,28 "/>
  <polygon class="fil0" points="33,28 33,28 33,28 33,28 "/>
  <polygon class="fil0" points="23,47 23,46 23,46 23,47 "/>
  <polygon class="fil0" points="13,29 13,29 13,29 13,29 "/>
  <polygon class="fil1" points="62,47 62,47 62,47 62,47 "/>
  <polygon class="fil1" points="62,47 62,47 62,47 62,47 "/>
  <polygon class="fil1" points="33,29 33,29 33,29 33,29 "/>
  <polygon class="fil0" points="54,29 54,29 54,29 54,29 "/>
  <polygon class="fil0" points="24,47 24,47 23,47 23,47 "/>
  <polygon class="fil0" points="62,47 62,47 62,47 62,47 "/>
  <polygon class="fil0" points="62,47 62,47 62,47 62,47 "/>
  <polygon class="fil1" points="34,29 34,29 33,29 33,29 "/>
  <polygon class="fil0" points="24,48 24,48 24,48 24,48 "/>
  <polygon class="fil0" points="25,29 25,29 25,29 25,29 "/>
  <polygon class="fil0" points="25,29 25,29 25,29 25,29 "/>
  <polygon class="fil1" points="54,29 53,29 53,29 54,29 "/>
  <polygon class="fil0" points="64,49 64,49 64,49 64,49 "/>
  <polygon class="fil1" points="64,49 64,49 64,49 64,49 "/>
  <polygon class="fil1" points="34,29 34,29 34,29 34,29 "/>
  <polygon class="fil0" points="25,30 25,30 25,30 25,30 "/>
  <polygon class="fil1" points="13,30 13,30 13,30 13,30 "/>
  <polygon class="fil1" points="67,30 67,30 67,30 67,30 "/>
  <polygon class="fil0" points="46,49 46,49 46,49 46,49 "/>
  <polygon class="fil1" points="25,30 25,30 25,30 25,30 "/>
  <polygon class="fil0" points="48,49 48,49 48,49 48,49 "/>
  <polygon class="fil1" points="25,49 25,49 25,49 25,49 "/>
  <polygon class="fil0" points="13,30 13,30 13,30 13,30 "/>
  <polygon class="fil0" points="25,49 25,49 25,49 25,49 "/>
  <polygon class="fil1" points="48,49 48,49 48,49 48,49 "/>
  <polygon class="fil0" points="26,50 26,49 25,49 25,50 "/>
  <polygon class="fil1" points="46,49 46,49 46,50 46,50 "/>
  <polygon class="fil0" points="67,30 67,30 67,30 67,30 "/>
  <polygon class="fil0" points="66,30 66,30 66,30 66,30 "/>
  <polygon class="fil1" points="66,30 66,30 66,30 66,30 "/>
  <polygon class="fil0" points="53,30 53,30 53,30 53,30 "/>
  <polygon class="fil0" points="45,50 45,50 45,50 45,50 "/>
  <polygon class="fil0" points="53,31 53,31 53,31 53,31 "/>
  <polygon class="fil0" points="65,50 65,50 65,50 65,50 "/>
  <polygon class="fil1" points="53,31 53,31 53,31 53,31 "/>
  <polygon class="fil0" points="14,31 14,31 14,31 14,31 "/>
  <polygon class="fil1" points="65,51 65,51 65,51 65,51 "/>
  <polygon class="fil0" points="27,51 27,51 27,51 27,51 "/>
  <polygon class="fil0" points="27,51 27,51 27,51 27,51 "/>
  <polygon class="fil1" points="53,31 53,31 53,31 53,31 "/>
  <polygon class="fil0" points="14,31 14,31 14,31 14,31 "/>
  <polygon class="fil0" points="66,31 66,31 66,31 66,31 "/>
  <polygon class="fil1" points="27,51 27,51 27,51 27,51 "/>
  <polygon class="fil0" points="66,32 66,32 66,32 66,32 "/>
  <polygon class="fil1" points="65,32 65,32 65,32 65,32 "/>
  <polygon class="fil0" points="66,51 66,51 66,51 66,51 "/>
  <polygon class="fil0" points="65,32 65,32 65,33 65,33 "/>
  <polygon class="fil0" points="50,51 50,51 50,51 50,51 "/>
  <polygon class="fil1" points="52,33 52,33 52,33 52,33 "/>
  <polygon class="fil1" points="52,33 52,33 52,33 52,33 "/>
  <polygon class="fil0" points="66,52 66,51 66,51 66,52 "/>
  <polygon class="fil0" points="28,52 28,52 28,52 28,52 "/>
  <polygon class="fil0" points="65,33 65,33 65,33 65,33 "/>
  <polygon class="fil0" points="28,52 28,52 28,52 28,52 "/>
  <polygon class="fil1" points="51,52 51,52 51,52 51,52 "/>
  <polygon class="fil0" points="52,33 52,33 52,33 52,33 "/>
  <polygon class="fil1" points="15,33 15,33 15,33 15,33 "/>
  <polygon class="fil0" points="29,52 29,52 29,52 29,52 "/>
  <polygon class="fil1" points="15,33 15,33 15,33 15,33 "/>
  <polygon class="fil1" points="65,33 64,33 64,33 65,33 "/>
  <polygon class="fil1" points="15,34 15,33 15,33 15,34 "/>
  <polygon class="fil0" points="52,33 51,33 51,34 52,34 "/>
  <polygon class="fil1" points="15,34 15,34 15,34 15,34 "/>
  <polygon class="fil1" points="15,34 15,34 15,34 15,34 "/>
  <polygon class="fil1" points="27,34 27,34 27,34 27,34 "/>
  <polygon class="fil0" points="64,34 64,34 64,34 64,34 "/>
  <polygon class="fil0" points="30,53 30,53 30,53 30,53 "/>
  <polygon class="fil1" points="51,35 51,35 51,35 51,35 "/>
  <polygon class="fil1" points="52,53 52,53 52,53 52,53 "/>
  <polygon class="fil0" points="63,35 63,35 63,35 63,35 "/>
  <polygon class="fil0" points="52,54 52,53 52,53 52,54 "/>
  <polygon class="fil0" points="28,35 28,35 28,35 28,35 "/>
  <polygon class="fil0" points="51,34 51,34 51,34 51,34 "/>
  <polygon class="fil0" points="52,54 52,54 52,54 52,54 "/>
  <polygon class="fil0" points="63,35 63,35 63,35 63,35 "/>
  <polygon class="fil0" points="52,54 52,54 52,54 52,54 "/>
  <polygon class="fil1" points="50,35 50,35 50,36 50,36 "/>
  <polygon class="fil1" points="31,54 31,54 31,54 31,54 "/>
  <polygon class="fil0" points="53,54 53,54 53,54 53,54 "/>
  <polygon class="fil0" points="63,36 63,36 63,36 63,36 "/>
  <polygon class="fil0" points="53,54 53,54 53,54 53,54 "/>
  <polygon class="fil1" points="31,54 31,54 31,54 31,54 "/>
  <polygon class="fil0" points="50,36 50,36 50,36 50,36 "/>
  <polygon class="fil1" points="53,54 53,54 53,54 53,54 "/>
  <polygon class="fil1" points="28,36 28,36 28,36 28,36 "/>
  <polygon class="fil0" points="50,36 50,36 50,36 50,36 "/>
  <polygon class="fil0" points="62,37 62,37 62,37 62,37 "/>
  <polygon class="fil0" points="17,37 17,37 17,37 17,37 "/>
  <polygon class="fil0" points="50,37 49,37 49,37 50,37 "/>
  <polygon class="fil0" points="62,37 62,37 62,37 62,37 "/>
  <polygon class="fil0" points="17,37 17,37 17,37 17,37 "/>
  <polygon class="fil1" points="29,37 29,37 29,37 29,37 "/>
  <polygon class="fil0" points="17,38 17,38 17,38 17,38 "/>
  <polygon class="fil1" points="54,55 54,55 54,55 54,55 "/>
  <polygon class="fil0" points="49,38 49,38 49,38 49,38 "/>
  <polygon class="fil1" points="61,38 61,38 61,38 61,38 "/>
  <polygon class="fil0" points="61,38 61,38 61,38 61,38 "/>
  <polygon class="fil1" points="30,38 30,38 30,38 30,38 "/>
  <polygon class="fil0" points="48,38 48,38 48,38 48,38 "/>
  <polygon class="fil0" points="35,55 35,55 35,55 35,55 "/>
  <polygon class="fil0" points="54,28 54,28 54,28 54,28 "/>
  <polygon class="fil1" points="30,39 30,39 30,39 30,39 "/>
  <polygon class="fil1" points="61,39 60,39 60,39 61,39 "/>
  <polygon class="fil1" points="55,56 55,55 55,55 55,56 "/>
  <polygon class="fil0" points="66,55 66,55 66,56 66,56 "/>
  <polygon class="fil1" points="34,39 34,39 34,39 34,39 "/>
  <polygon class="fil0" points="66,56 66,56 66,56 66,56 "/>
  <polygon class="fil1" points="18,39 18,39 18,39 18,39 "/>
  <polygon class="fil0" points="48,39 48,39 48,39 48,39 "/>
  <polygon class="fil1" points="48,39 48,39 48,39 48,39 "/>
  <polygon class="fil0" points="60,39 60,39 60,39 60,39 "/>
  <polygon class="fil1" points="48,39 47,39 47,39 48,39 "/>
  <polygon class="fil0" points="45,39 45,39 45,39 45,39 "/>
  <polygon class="fil1" points="47,39 47,39 47,39 47,39 "/>
  <polygon class="fil0" points="43,56 43,56 43,56 43,56 "/>
  <polygon class="fil1" points="18,39 18,39 18,39 18,39 "/>
  <polygon class="fil0" points="47,39 47,39 47,39 47,39 "/>
  <polygon class="fil0" points="47,39 47,39 47,40 47,40 "/>
  <polygon class="fil0" points="33,40 33,40 33,40 33,40 "/>
  <polygon class="fil1" points="47,40 47,40 47,40 47,40 "/>
  <polygon class="fil0" points="45,40 45,40 45,40 45,40 "/>
  <polygon class="fil1" points="47,40 46,40 46,40 47,40 "/>
  <polygon class="fil1" points="61,46 61,46 61,46 61,46 "/>
  <polygon class="fil1" points="66,52 66,52 66,52 66,52 "/>
  <polygon class="fil1" points="33,55 33,54 32,54 32,55 "/>
  <polygon class="fil0" points="24,28 24,28 24,28 24,28 "/>
  <polygon class="fil0" points="27,33 27,33 27,33 27,33 "/>
  <polygon class="fil1" points="33,28 33,28 33,28 33,28 "/>
  <polygon class="fil1" points="15,33 15,33 15,33 15,33 "/>
  <polygon class="fil1" points="28,52 28,52 28,52 28,52 "/>
  <polygon class="fil0" points="67,55 67,55 67,55 67,55 "/>
  <polygon class="fil0" points="23,27 23,27 23,27 23,27 "/>
  <polygon class="fil0" points="61,38 61,38 61,38 61,38 "/>
  <polygon class="fil0" points="18,38 18,38 18,38 18,38 "/>
  <polygon class="fil0" points="65,33 65,33 65,33 65,33 "/>
  <polygon class="fil0" points="51,53 51,53 51,53 51,53 "/>
  <polygon class="fil0" points="20,42 20,42 20,42 20,42 "/>
  <polygon class="fil0" points="26,33 26,32 26,32 26,33 "/>
  <polygon class="fil0" points="26,32 26,32 26,32 26,32 "/>
  <polygon class="fil0" points="67,53 67,53 67,53 67,53 "/>
  <polygon class="fil1" points="26,31 26,31 26,31 26,31 "/>
  <polygon class="fil0" points="19,40 19,40 18,40 18,40 "/>
  <polygon class="fil0" points="50,36 50,36 50,37 50,37 "/>
  <polygon class="fil0" points="67,53 67,53 67,53 67,53 "/>
  <polygon class="fil1" points="66,31 66,31 66,31 66,31 "/>
  <polygon class="fil0" points="45,51 45,51 45,51 45,51 "/>
  <polygon class="fil0" points="63,35 63,35 63,35 63,35 "/>
  <polygon class="fil0" points="16,35 16,35 16,35 16,35 "/>
  <polygon class="fil0" points="29,37 29,36 29,36 29,37 "/>
  <polygon class="fil0" points="62,36 62,36 62,36 62,36 "/>
  <polygon class="fil0" points="26,31 26,31 25,31 25,31 "/>
  <polygon class="fil0" points="43,56 43,56 43,56 43,56 "/>
  <polygon class="fil0" points="50,51 50,51 50,51 50,51 "/>
  <polygon class="fil0" points="66,51 66,51 66,51 66,51 "/>
  <polygon class="fil1" points="53,30 53,30 53,30 53,30 "/>
  <polygon class="fil0" points="59,44 59,44 59,44 59,44 "/>
  <polygon class="fil0" points="50,36 50,36 50,36 50,36 "/>
  <polygon class="fil0" points="27,51 27,51 27,51 27,51 "/>
  <polygon class="fil1" points="16,36 16,36 16,36 16,36 "/>
  <polygon class="fil0" points="59,40 59,40 59,40 59,40 "/>
  <polygon class="fil0" points="67,29 67,29 67,29 67,29 "/>
  <polygon class="fil0" points="13,29 13,29 13,29 13,29 "/>
  <polygon class="fil1" points="64,35 64,35 64,35 64,35 "/>
  <polygon class="fil0" points="65,50 65,50 64,50 64,50 "/>
  <rect class="fil2" width="80.0012" height="80.0012" rx="13" ry="13"/>
  <g id="_2113125340544">
   <polygon class="fil3" points="22,45 22,45 22,45 21,45 21,45 21,45 21,46 21,46 21,47 21,47 21,47 21,47 21,48 22,48 22,48 22,48 22,48 22,48 22,48 22,48 22,49 22,49 22,49 22,49 22,49 22,49 22,49 22,49 22,49 22,49 22,49 22,49 22,49 22,49 22,50 22,50 22,50 23,50 23,50 23,50 23,50 23,50 23,50 23,50 23,50 23,50 23,50 23,50 23,50 23,50 23,50 23,50 23,50 23,50 23,50 23,50 23,50 24,50 24,51 24,51 24,51 24,51 24,51 24,51 24,51 24,51 24,51 24,51 24,51 24,51 24,51 25,51 25,51 25,51 25,51 25,51 25,51 25,51 25,51 25,51 25,52 25,52 25,52 26,52 26,52 26,52 26,52 26,52 26,52 26,52 26,52 26,52 26,52 26,52 26,52 27,52 27,52 27,52 27,52 27,52 27,52 27,52 27,52 27,52 27,53 28,53 28,53 28,53 28,53 28,53 28,53 28,53 28,53 28,53 28,53 29,53 29,53 29,53 29,53 29,53 29,53 29,53 29,53 29,53 29,53 30,53 30,54 30,54 30,54 30,54 30,54 30,54 30,54 31,54 31,54 31,54 31,54 31,54 31,54 32,54 32,54 32,54 32,54 32,54 32,54 33,54 33,54 33,54 33,54 33,54 33,55 33,55 33,55 33,55 33,55 33,55 33,55 33,55 33,55 33,55 33,55 33,55 33,55 33,55 33,55 33,55 33,55 33,55 33,55 33,55 33,56 33,56 33,56 32,56 32,56 32,56 32,56 32,56 32,56 32,56 32,56 32,56 32,56 32,56 32,56 32,56 32,56 32,56 32,56 32,56 32,56 32,56 32,56 32,56 32,57 32,57 32,57 31,57 31,57 31,57 31,57 31,57 31,57 31,57 31,57 31,57 31,57 31,57 31,57 31,57 31,57 31,57 31,57 31,57 31,57 31,57 31,58 31,58 31,58 30,58 30,58 30,58 30,58 30,58 30,58 30,58 30,58 30,58 30,58 30,58 30,58 30,58 30,58 30,58 30,58 30,58 30,58 30,58 30,58 30,58 30,59 30,59 30,59 29,59 29,59 29,59 29,59 29,59 29,59 29,59 29,59 29,59 29,59 29,59 29,59 29,59 29,59 29,59 29,59 29,59 29,59 29,59 29,60 29,60 29,60 28,60 28,60 28,60 28,60 28,60 28,60 28,60 28,60 28,60 28,60 28,60 28,60 28,60 28,60 28,60 28,60 28,60 28,60 28,60 28,60 28,60 28,61 28,61 28,61 27,61 27,61 27,61 27,61 27,61 27,61 27,61 27,61 27,61 27,61 27,61 27,61 27,61 27,61 27,61 27,61 27,61 27,61 27,61 27,62 27,62 27,62 26,62 26,62 26,62 26,62 26,62 26,62 26,62 26,62 26,62 26,62 26,62 26,62 26,62 26,62 26,62 26,62 26,62 26,62 26,62 26,62 26,62 26,63 26,63 26,63 25,63 25,63 25,63 25,63 25,63 25,63 25,63 25,63 25,63 25,63 25,63 25,63 25,63 25,63 25,63 25,63 25,63 25,63 25,63 25,64 25,64 25,64 24,64 24,64 24,64 24,64 24,64 24,64 24,64 24,64 24,64 24,64 24,64 24,64 24,64 24,64 24,64 24,64 24,64 24,64 24,64 24,64 24,64 24,65 24,65 24,65 23,65 23,65 23,65 23,65 23,65 23,65 23,65 23,65 23,65 23,65 23,65 23,66 23,66 23,65 23,65 23,66 23,66 23,66 23,66 23,66 23,66 23,67 22,67 22,68 23,68 23,68 23,68 23,69 23,69 23,69 23,69 23,69 23,69 23,69 23,69 23,70 23,70 23,70 23,70 23,70 23,70 23,70 23,70 23,70 23,70 23,70 24,70 24,70 24,70 24,70 24,70 24,71 24,71 24,71 24,71 24,71 24,71 24,71 24,71 24,71 24,71 24,71 24,71 24,71 24,71 24,71 24,71 24,71 25,71 25,71 25,71 25,71 25,71 25,72 25,72 25,72 25,72 25,72 25,72 25,72 26,72 26,72 26,72 26,72 26,72 26,72 26,72 26,72 28,72 28,72 29,72 29,72 29,72 29,72 29,72 29,72 29,72 29,72 30,72 30,72 30,72 30,72 30,72 30,71 30,71 30,71 30,71 30,71 30,71 30,71 30,71 30,71 30,71 30,71 31,71 31,71 31,71 31,71 31,71 31,71 31,71 31,71 31,71 31,71 31,71 31,70 31,70 31,70 31,70 31,70 31,70 31,70 31,70 31,70 32,70 32,70 32,70 32,70 32,70 32,70 32,70 32,70 32,70 32,70 32,70 32,70 32,70 32,70 32,70 32,69 32,69 32,69 32,69 32,69 32,69 32,69 32,69 32,69 33,69 33,69 33,69 33,69 33,69 33,69 33,69 33,69 33,69 33,69 33,69 33,69 33,69 33,68 33,68 33,68 33,68 33,68 33,68 33,68 33,68 33,68 34,68 34,68 34,68 34,68 34,68 34,68 34,68 34,68 34,68 34,68 34,68 34,68 34,68 34,68 34,68 34,67 34,67 34,67 34,67 34,67 34,67 34,67 34,67 34,67 35,67 35,67 35,67 35,67 35,67 35,67 35,67 35,67 35,67 35,67 35,67 35,67 35,67 35,66 35,66 35,66 35,66 35,66 35,66 35,66 35,66 35,66 36,66 36,66 36,66 36,66 36,66 36,66 36,66 36,66 36,66 36,66 36,66 36,66 36,66 36,66 36,66 36,65 36,65 36,65 36,65 36,65 36,65 36,65 36,65 36,65 37,65 37,65 37,65 37,65 37,65 37,65 37,65 37,65 37,65 37,65 37,65 37,65 37,65 37,64 37,64 37,64 37,64 37,64 37,64 37,64 37,64 37,64 38,64 38,64 38,64 38,64 38,64 38,64 38,64 38,64 38,64 38,64 38,64 38,64 38,64 38,64 38,64 38,63 38,63 38,63 38,63 38,63 38,63 38,63 38,63 38,63 39,63 39,63 39,63 39,63 39,63 39,63 39,63 39,63 39,63 39,63 39,63 39,63 39,63 39,62 39,62 39,62 39,62 39,62 39,62 39,62 39,62 39,62 40,62 40,62 40,62 40,62 40,62 40,62 40,62 40,62 40,62 40,62 40,62 40,62 40,62 40,62 40,62 40,62 40,62 40,62 40,62 40,62 40,62 40,62 40,62 40,62 41,62 41,62 41,62 41,62 41,62 41,62 41,62 41,62 41,62 41,63 41,63 41,63 41,63 41,63 41,63 41,63 41,63 41,63 41,63 41,63 41,63 41,63 42,63 42,63 42,63 42,63 42,63 42,63 42,63 42,63 42,63 42,64 42,64 42,64 42,64 42,64 42,64 42,64 42,64 42,64 42,64 42,64 42,64 42,64 42,64 42,64 43,64 43,64 43,64 43,64 43,64 43,64 43,64 43,64 43,64 43,65 43,65 43,65 43,65 43,65 43,65 43,65 43,65 43,65 43,65 43,65 43,65 43,65 44,65 44,65 44,65 44,65 44,65 44,65 44,65 44,65 44,65 44,66 44,66 44,66 44,66 44,66 44,66 44,66 44,66 44,66 44,66 44,66 44,66 44,66 44,66 44,66 45,66 45,66 45,66 45,66 45,66 45,66 45,66 45,66 45,66 45,67 45,67 45,67 45,67 45,67 45,67 45,67 45,67 45,67 45,67 45,67 45,67 45,67 46,67 46,67 46,67 46,67 46,67 46,67 46,67 46,67 46,67 46,68 46,68 46,68 46,68 46,68 46,68 46,68 46,68 46,68 46,68 46,68 46,68 46,68 46,68 46,68 47,68 47,68 47,68 47,68 47,68 47,68 47,68 47,68 47,68 47,69 47,69 47,69 47,69 47,69 47,69 47,69 47,69 47,69 47,69 47,69 47,69 47,69 48,69 48,69 48,69 48,69 48,69 48,69 48,69 48,69 48,69 48,70 48,70 48,70 48,70 48,70 48,70 48,70 48,70 48,70 48,70 48,70 48,70 48,70 48,70 48,70 49,70 49,70 49,70 49,70 49,70 49,70 49,70 49,70 49,70 49,71 49,71 49,71 49,71 49,71 49,71 49,71 49,71 49,71 49,71 49,71 50,71 50,71 50,71 50,71 50,71 50,71 50,71 50,71 50,71 50,71 50,71 50,72 50,72 50,72 50,72 50,72 51,72 51,72 51,72 51,72 51,72 51,72 51,72 51,72 52,72 52,72 54,72 54,72 54,72 54,72 54,72 54,72 54,72 54,72 55,72 55,72 55,72 55,72 55,72 55,72 55,72 55,71 55,71 55,71 55,71 55,71 56,71 56,71 56,71 56,71 56,71 56,71 56,71 56,71 56,71 56,71 56,71 56,71 56,71 56,71 56,71 56,71 56,71 56,70 56,70 56,70 56,70 56,70 57,70 57,70 57,70 57,70 57,70 57,70 57,70 57,70 57,70 57,70 57,70 57,69 57,69 57,69 57,69 57,69 57,69 57,69 57,69 57,68 57,68 57,68 58,68 58,67 57,67 57,66 57,66 57,66 57,66 57,66 57,66 57,66 57,66 57,66 57,66 57,65 57,65 57,65 57,65 57,65 57,65 57,65 57,65 57,65 57,65 57,65 56,65 56,65 56,65 56,64 56,64 56,64 56,64 56,64 56,64 56,64 56,64 56,64 56,64 56,64 56,64 56,64 56,64 56,64 56,64 56,64 56,64 56,64 56,64 56,64 55,64 55,64 55,64 55,63 55,63 55,63 55,63 55,63 55,63 55,63 55,63 55,63 55,63 55,63 55,63 55,63 55,63 55,63 55,63 55,63 55,63 55,63 54,63 54,63 54,63 54,62 54,62 54,62 54,62 54,62 54,62 54,62 54,62 54,62 54,62 54,62 54,62 54,62 54,62 54,62 54,62 54,62 54,62 54,62 54,62 54,62 53,62 53,62 53,62 53,61 53,61 53,61 53,61 53,61 53,61 53,61 53,61 53,61 53,61 53,61 53,61 53,61 53,61 53,61 53,61 53,61 53,61 53,61 52,61 52,61 52,61 52,60 52,60 52,60 52,60 52,60 52,60 52,60 52,60 52,60 52,60 52,60 52,60 52,60 52,60 52,60 52,60 52,60 52,60 52,60 52,60 52,60 51,60 51,60 51,60 51,59 51,59 51,59 51,59 51,59 51,59 51,59 51,59 51,59 51,59 51,59 51,59 51,59 51,59 51,59 51,59 51,59 51,59 51,59 50,59 50,59 50,59 50,58 50,58 50,58 50,58 50,58 50,58 50,58 50,58 50,58 50,58 50,58 50,58 50,58 50,58 50,58 50,58 50,58 50,58 50,58 50,58 50,58 49,58 49,58 49,58 49,57 49,57 49,57 49,57 49,57 49,57 49,57 49,57 49,57 49,57 49,57 49,57 49,57 49,57 49,57 49,57 49,57 49,57 49,57 48,57 48,57 48,57 48,56 48,56 48,56 48,56 48,56 48,56 48,56 48,56 48,56 48,56 48,56 48,56 48,56 48,56 48,56 48,56 48,56 48,56 48,56 48,56 48,56 47,56 47,56 47,56 47,55 47,55 47,55 47,55 47,55 47,55 47,55 47,55 47,55 47,55 47,55 47,55 47,55 47,55 47,55 47,55 47,55 47,55 47,55 47,55 47,54 47,54 47,54 47,54 47,54 48,54 48,54 48,54 48,54 48,54 48,54 49,54 49,54 49,54 49,54 49,54 49,54 50,54 50,54 50,54 50,54 50,54 50,54 50,54 50,53 51,53 51,53 51,53 51,53 51,53 51,53 51,53 51,53 51,53 51,53 52,53 52,53 52,53 52,53 52,53 52,53 52,53 52,53 52,53 52,53 53,53 53,52 53,52 53,52 53,52 53,52 53,52 53,52 53,52 53,52 54,52 54,52 54,52 54,52 54,52 54,52 54,52 54,52 54,52 54,52 54,52 54,52 55,52 55,52 55,52 55,51 55,51 55,51 55,51 55,51 55,51 55,51 55,51 55,51 56,51 56,51 56,51 56,51 56,51 56,51 56,51 56,51 56,51 56,51 56,51 56,51 56,51 56,50 57,50 57,50 57,50 57,50 57,50 57,50 57,50 57,50 57,50 57,50 57,50 57,50 57,50 57,50 57,50 57,50 57,50 57,50 57,50 57,50 58,50 58,50 58,50 58,49 58,49 58,49 58,49 58,49 58,49 58,49 58,49 58,49 58,49 58,49 58,49 58,49 58,49 58,48 58,48 58,48 58,48 58,48 58,48 58,48 59,48 59,47 59,47 59,47 59,47 59,46 59,46 59,45 59,45 59,45 58,45 58,45 58,45 58,45 58,45 58,44 58,44 58,44 58,44 58,44 58,44 58,44 58,44 58,44 58,44 58,44 58,44 58,44 58,44 58,44 58,44 58,43 57,43 57,43 57,43 57,43 57,43 57,43 57,43 57,43 57,43 57,43 57,43 57,43 57,43 57,43 57,43 57,43 57,43 57,43 56,43 56,43 56,43 56,42 56,42 56,42 56,42 56,42 56,42 56,42 56,42 56,42 55,42 55,42 55,42 55,42 55,42 55,42 53,42 53,42 52,42 52,42 52,42 52,42 52,42 52,42 52,42 52,42 52,42 52,42 51,42 51,42 51,42 51,43 51,43 51,43 51,43 51,43 51,43 51,43 51,43 51,43 51,43 51,43 50,43 50,43 50,43 50,43 50,43 50,43 50,43 50,43 50,43 50,43 50,43 50,44 50,44 50,44 49,44 49,44 49,44 49,44 49,44 49,44 49,44 49,44 49,44 49,44 48,44 48,44 48,44 48,44 48,44 48,44 48,44 48,44 48,44 48,44 47,44 47,45 47,45 47,45 47,45 47,45 47,45 47,45 46,45 46,45 46,45 46,45 46,45 46,45 45,45 45,45 45,45 45,45 45,45 45,45 44,45 44,45 44,45 44,46 43,46 43,46 43,46 43,46 42,46 42,46 38,46 38,46 37,46 37,46 37,46 37,46 36,46 36,45 36,45 36,45 35,45 35,45 35,45 35,45 35,45 35,45 34,45 34,45 34,45 34,45 34,45 34,45 33,45 33,45 33,45 33,45 33,45 33,45 33,45 33,44 32,44 32,44 32,44 32,44 32,44 32,44 32,44 32,44 32,44 32,44 31,44 31,44 31,44 31,44 31,44 31,44 31,44 31,44 31,44 31,44 30,44 30,44 30,44 30,43 30,43 30,43 30,43 30,43 30,43 30,43 30,43 30,43 30,43 30,43 29,43 29,43 29,43 29,43 29,43 29,43 29,43 29,43 29,43 29,43 29,43 29,42 28,42 28,42 28,42 28,42 28,42 28,42 28,42 28,42 28,42 28,42 28,42 28,42 27,42 27,42 25,42 25,42 25,42 25,42 25,42 25,42 24,42 24,42 24,42 24,42 24,42 24,42 24,42 24,42 24,42 24,43 24,43 24,43 23,43 23,43 23,43 23,43 23,43 23,43 23,43 23,43 23,43 23,43 23,43 23,43 23,43 23,43 23,43 23,43 23,43 23,43 22,43 22,44 22,44 22,44 22,44 22,44 22,44 22,44 22,44 22,44 22,44 22,44 22,44 22,44 22,44 22,44 22,44 22,45 22,45 22,45 22,45 "/>
   <path class="fil3" d="M33 23l0 0 0 0 0 -1 0 0 0 0 0 0 0 0 1 0 0 0 0 0 0 -1 0 0 0 0 0 0 0 0 0 0 0 0 0 0 0 0 0 0 0 0 0 0 0 -1 0 0 0 0 0 0 0 0 0 0 0 0 0 0 0 0 1 0 0 0 0 0 0 0 0 0 0 0 0 0 0 0 0 0 0 0 0 0 0 -1 0 0 0 0 0 0 0 0 0 0 0 0 0 0 0 0 0 0 0 0 1 0 0 0 0 0 0 0 0 0 0 0 0 0 0 0 0 0 0 0 0 0 0 -1 0 0 0 0 0 0 0 0 0 0 0 0 1 0 0 0 0 0 0 0 0 0 0 0 0 0 0 0 0 0 0 0 1 0 0 0 0 0 0 0 0 0 0 0 0 0 0 -1 1 0 0 0 2 0 0 0 1 0 0 1 0 0 0 0 0 0 0 0 0 0 0 0 1 0 0 0 0 0 0 0 0 0 0 0 0 0 0 0 0 0 0 0 1 0 0 0 0 0 0 0 0 0 0 0 0 0 0 1 0 0 0 0 0 0 0 0 0 0 0 0 0 0 0 0 0 0 0 0 1 0 0 0 0 0 0 0 0 0 0 0 0 0 0 0 0 0 0 0 0 0 0 1 0 0 0 0 0 0 0 0 0 0 0 0 0 0 0 0 0 0 0 0 1 0 0 0 0 0 0 0 0 0 0 0 0 0 0 0 0 0 0 1 0 0 0 0 0 0 0 0 0 0 0 0 0 0 0 0 0 0 0 0 0 0 0 1 0 0 0 0 1 0 0 0 0 0 0 0 0 0 0 1 0 0 0 0 0 0 0 2 0 0 0 1 0 0 0 0 0 0 0 0 0 0 0 1 -1 0 0 0 0 0 0 0 0 0 0 0 0 0 0 0 0 0 0 1 0 0 0 0 0 0 0 0 0 0 0 0 0 0 0 0 0 0 0 0 0 0 0 0 0 0 0 1 0 0 0 0 0 0 0 0 -1 0 0 0 0 0 0 0 0 0 0 0 0 0 0 0 0 0 0 0 0 0 0 0 0 0 0 1 0 0 0 0 0 0 0 0 0 0 0 0 -1 0 0 0 0 0 0 0 0 0 0 0 0 0 0 0 0 0 0 0 0 0 0 0 0 0 0 0 0 0 0 0 0 0 0 1 -1 0 0 0 0 0 0 0 0 0 0 0 0 0 0 0 0 0 0 0 -1 0 0 0 0 0 0 0 0 0 0 0 0 0 0 0 -1 0 0 0 -2 0 0 0 -1 0 0 0 0 0 0 0 0 0 0 0 0 0 0 0 -1 0 0 0 0 0 0 0 0 0 0 0 0 0 0 0 0 0 0 0 -1 0 0 -1 0 0 0 0 0 0 0 0 0 0 0 0 0 0 0 0 0 0 0 0 0 0 0 0 0 0 0 0 0 0 0 0 -1 0 0 0 0 0 0 0 0 0 0 0 0 0 0 -1 0 0 0 0 0 0 0 0 0 0 0 0 0 0 0 0 0 0 0 0 0 0 0 0 0 0 0 0 -1 0 0 0 0 0 0 0 0 0 0 -1 0 0 0 0 0 0 0 0 0 0 0 0 0 0 0 0 0 0 0 0 0 0 0 0 0 0 0 -1 0 0 0 0 0 0 0 0 0 0 0 0 0 0 0 0 -1 0 0 -1 0 0 0 0 0 0 0 0 0 0 0 -1 0 0 0 -2 0 0zm-8 -5l0 0 0 0 0 0 0 0 -1 0 0 0 0 0 0 0 0 0 0 1 0 0 0 0 0 0 0 0 0 0 0 1 0 0 0 0 0 0 0 0 0 0 0 1 0 0 0 0 0 0 0 0 0 0 0 1 -1 0 0 1 0 0 0 3 0 0 0 1 1 0 0 0 0 0 0 1 0 0 0 0 0 0 0 0 0 0 0 1 0 0 0 0 0 0 0 0 0 0 0 1 0 0 0 0 0 0 0 0 0 0 0 0 0 0 0 0 1 0 0 1 0 0 0 0 0 0 0 0 0 0 0 0 0 0 0 0 0 0 0 1 0 0 0 0 0 0 0 0 0 0 0 0 0 0 0 0 0 0 0 0 1 0 0 1 0 0 0 0 0 0 0 0 0 0 0 0 0 0 0 0 0 0 0 0 0 0 0 0 0 0 0 1 0 0 0 0 0 0 0 0 0 0 0 0 0 0 0 0 1 0 0 0 0 0 0 0 0 0 0 0 0 0 0 0 0 0 0 1 0 0 0 0 0 0 0 0 0 0 0 0 0 0 0 0 0 0 0 0 0 0 0 0 1 0 0 0 0 0 0 0 0 0 0 1 0 0 0 0 0 0 0 0 0 0 0 0 0 0 0 0 0 0 0 0 0 0 0 0 0 0 0 0 0 0 0 0 0 0 0 0 1 0 0 0 0 0 0 0 0 0 0 1 0 0 0 0 0 0 0 0 0 0 0 0 0 0 0 0 0 0 0 0 0 0 0 0 0 0 0 0 1 0 0 0 0 0 0 0 0 0 0 0 0 0 0 1 0 0 0 0 0 0 0 0 0 0 0 0 0 0 0 0 0 0 0 0 1 0 0 0 0 0 0 0 0 0 0 0 0 0 0 0 0 0 0 0 0 0 0 0 0 0 0 1 1 0 0 0 0 0 0 0 0 0 0 0 0 0 0 0 0 0 0 0 0 0 0 0 1 0 0 0 0 0 0 0 0 0 0 0 0 0 0 0 0 0 0 1 0 0 0 0 1 0 0 0 0 0 0 0 0 0 0 0 0 0 0 0 1 0 0 0 0 0 0 0 0 0 0 0 0 0 0 0 1 0 0 0 0 0 0 0 0 0 0 1 1 0 0 0 0 0 0 0 1 0 0 0 1 0 0 0 2 0 0 0 1 0 0 0 1 0 0 0 0 0 0 0 1 0 0 -1 0 0 0 0 0 0 0 0 1 0 0 0 0 0 0 0 0 0 0 0 0 0 0 0 1 0 0 0 0 0 0 0 0 0 0 0 0 0 0 0 1 0 0 0 0 0 0 -1 0 0 0 0 0 0 0 0 0 0 0 0 0 0 0 0 1 0 0 0 0 0 0 0 0 0 0 0 0 0 0 0 0 0 0 0 0 0 0 0 1 0 0 -1 0 0 0 0 0 0 0 0 0 0 0 0 0 0 0 0 0 0 0 0 0 0 0 0 1 0 0 0 0 0 0 0 0 0 0 0 0 0 0 0 0 0 0 0 0 0 0 -1 0 0 0 0 0 0 0 0 0 0 0 0 1 0 0 0 0 0 0 0 0 0 0 0 0 0 0 0 0 0 0 0 0 0 0 0 0 0 0 0 0 0 0 -1 0 0 0 0 0 0 0 0 1 0 0 0 0 0 0 0 0 0 0 0 0 0 0 0 0 0 0 0 0 0 0 0 0 0 0 0 0 0 0 0 0 0 0 0 0 0 0 -1 0 0 0 0 0 0 0 0 1 0 0 0 0 0 0 0 0 0 0 0 0 0 0 0 0 0 0 0 0 0 0 0 0 0 0 -1 0 0 0 0 0 0 0 0 0 0 0 0 0 0 0 0 1 0 0 0 0 0 0 0 0 0 0 0 0 0 0 0 0 0 0 -1 0 0 0 0 0 0 0 0 0 0 0 0 0 0 0 0 0 0 0 0 0 0 0 0 0 0 0 -1 1 0 0 0 0 0 0 0 0 0 0 0 0 0 0 0 0 0 0 0 0 0 0 -1 0 0 0 0 0 0 0 0 0 0 0 0 0 0 0 0 0 0 0 -1 1 0 0 0 0 0 0 0 0 0 0 0 0 0 0 0 0 0 0 -1 0 0 0 0 0 0 0 0 0 0 0 -1 0 0 0 0 0 0 0 0 0 0 0 -1 0 0 0 0 1 0 0 -1 0 0 0 -3 0 0 0 -1 -1 0 0 -1 0 0 0 0 0 0 0 -1 0 0 0 0 0 0 0 0 0 0 0 0 0 0 0 -1 0 0 0 0 0 0 0 0 0 0 0 -1 0 0 0 0 0 0 0 0 -1 0 0 0 0 0 0 0 0 0 0 0 0 0 0 0 0 0 0 -1 0 0 0 0 0 0 0 0 0 0 0 0 0 0 0 0 0 0 0 -1 0 0 0 0 -1 0 0 0 0 0 0 0 0 0 0 0 0 0 0 0 0 0 0 0 0 0 0 0 0 0 0 -1 0 0 0 0 0 0 0 0 0 0 0 0 0 0 0 0 0 0 0 0 -1 0 0 0 0 0 0 -1 0 0 0 0 0 0 0 0 0 0 0 0 0 0 0 0 0 0 0 0 0 0 0 0 0 0 0 0 0 0 0 0 0 0 0 0 -1 0 0 -1 0 0 0 0 0 0 0 0 0 0 0 0 0 0 0 0 0 0 0 0 0 0 0 0 0 0 0 0 0 0 0 0 0 0 0 0 0 0 0 0 0 0 0 -1 -1 0 0 0 0 0 0 0 0 0 0 0 0 0 0 0 0 0 0 0 0 0 0 0 0 0 0 0 0 0 0 0 0 0 0 0 0 0 0 0 -1 0 0 0 0 0 0 -1 0 0 0 0 0 0 0 0 0 0 0 0 0 0 0 0 0 0 0 0 0 0 0 0 0 0 0 0 -1 0 0 0 0 0 0 0 0 0 0 0 0 0 0 -1 0 0 0 0 0 0 0 0 0 0 0 0 -1 0 0 0 0 0 0 0 0 0 0 0 0 0 0 0 0 0 0 0 0 0 0 0 -1 0 0 0 0 0 0 0 0 0 0 -1 0 0 0 0 0 0 0 0 -1 0 0 0 0 0 0 0 0 0 0 0 0 0 0 0 0 0 0 0 -1 0 0 0 0 0 0 0 0 0 0 0 0 0 0 -1 -1 0 0 0 0 0 0 0 -1 0 0 0 0 0 0 0 0 0 0 0 -1 0 0 0 -2 0 0 0 -1 0 0 0 -1 0 0 0 0 0 0 0 -1 0 0 0 0 0 0 0 -1 0 0 0 0 0 0 0 -1 0 0 1 0 0 0 0 0 0 0 0 0 0 0 0 -1 0 0 0 0 0 0 0 0 0 0 0 0 0 0 0 -1 0 0 0 0 0 0 0 0 0 0 0 0 0 0 1 0 0 0 0 0 0 0 0 -1 0 0 0 0 0 0 0 0 0 0 0 0 0 0 0 0 0 0 0 0 0 0 0 -1 0 0 0 0 0 0 0 0 0 0 0 0 0 0 1 0 0 0 0 0 0 0 0 0 0 0 0 -1 0 0 0 0 0 0 0 0 0 0 0 0 0 0 0 0 0 0 0 0 0 0 0 0 0 0 0 0 0 0 1 0 0 0 0 -1 0 0 0 0 0 0 0 0 0 0 0 0 0 0 0 0 0 0 0 0 0 0 0 0 0 0 0 0 0 0 0 0 0 0 0 0 0 0 0 -1 0 0 1 0 0 0 0 0 0 0 0 0 0 0 0 0 0 0 0 0 0 0 0 0 0 0 0 0 0 0 0 0 0 0 0 0 0 0 0 0 0 0 0 0 0 0 1 -1 0 0 0 0 0 0 0 0 0 0 0 0 0 0 0 0 0 0 0 0 0 0 0 0 0 0 0 0 0 0 0 0 0 0 0 0 0 0 1 0 0 0 0 -1 0 0 0 0 0 0 0 0 0 0 0 0 0 0 0 0 0 0 0 0 0 0 1 0 0 0 0 0 0 0 0 0 0 0 0 0 0 0 0 0 0 0 0 0 0 0 0 -1 0 0 0 0 0 0 1 0 0 0 0 0 0 0 0 0 0 0 0 0 0 0 0 0 0 0 1 0 0 0 0 0 0 0 0z"/>
  </g>
 </g>
</svg>
