<?xml version="1.0" encoding="UTF-8"?>
<!DOCTYPE svg PUBLIC "-//W3C//DTD SVG 1.1//EN" "http://www.w3.org/Graphics/SVG/1.1/DTD/svg11.dtd">
<!-- Creator: CorelDRAW X8 -->
<svg xmlns="http://www.w3.org/2000/svg" xml:space="preserve" width="80px" height="80px" version="1.1" style="shape-rendering:geometricPrecision; text-rendering:geometricPrecision; image-rendering:optimizeQuality; fill-rule:evenodd; clip-rule:evenodd"
viewBox="0 0 80 80"
 xmlns:xlink="http://www.w3.org/1999/xlink">
 <defs>
  <style type="text/css">
   <![CDATA[
    .fil0 {fill:#4C75A2}
    .fil3 {fill:#96AEC9}
    .fil2 {fill:#AABED3}
    .fil1 {fill:white}
   ]]>
  </style>
 </defs>
 <g id="Слой_x0020_1">
  <metadata id="CorelCorpID_0Corel-Layer"/>
  <g id="_2149288805712">
   <path class="fil0" d="M31 27l0 0 0 0 0 -1 0 0 0 0 0 0 0 0 0 0 0 0 0 0 0 0 0 0 0 0 0 0 0 0 0 0 0 0 1 0 0 0 0 0 0 0 0 0 0 0 0 0 0 0 0 0 0 0 0 0 0 0 0 0 0 -1 1 0 0 0 0 0 0 0 0 0 0 0 0 0 0 0 1 0 0 0 0 0 0 0 1 0 0 0 6 0 0 0 0 0 0 0 1 0 0 0 0 0 0 0 1 0 0 0 0 0 0 0 0 0 0 0 0 0 0 1 0 0 0 0 1 0 0 0 0 0 0 0 0 0 0 0 0 0 0 0 0 0 0 0 0 0 0 0 0 0 0 0 0 0 0 0 0 0 0 0 0 0 0 0 0 0 0 1 0 0 0 0 0 0 0 0 1 0 0 1 0 0 0 3 0 0 0 2 -1 0 0 5 1 0 0 0 0 0 0 1 0 0 0 0 0 0 0 0 0 0 0 0 0 0 0 0 0 0 0 1 0 0 0 0 0 0 0 0 0 0 0 0 0 0 0 0 0 0 0 0 0 0 0 0 1 0 0 0 0 0 0 0 0 0 0 0 0 0 0 0 0 0 0 0 1 0 0 0 0 0 0 0 0 0 0 0 0 0 0 0 0 0 0 0 0 0 0 0 0 0 0 -1 0 0 0 0 0 0 0 0 0 0 0 0 0 0 0 0 1 0 0 0 0 0 0 0 0 0 0 0 0 0 0 0 0 0 0 0 0 0 0 0 0 0 0 0 0 0 0 0 0 0 0 -1 0 0 0 0 0 0 0 0 0 0 0 0 0 0 0 0 1 0 0 0 0 0 0 0 0 0 0 0 0 0 0 0 0 0 0 0 0 0 0 0 0 0 0 -1 0 0 0 0 0 0 0 0 0 0 0 0 0 0 0 0 0 0 0 0 0 0 0 0 0 0 0 0 1 0 0 0 0 0 0 -1 0 0 0 0 0 0 0 0 0 0 0 0 0 0 0 0 0 0 0 0 0 0 0 0 0 0 0 0 0 0 0 0 0 0 0 -1 0 0 0 0 0 0 0 0 0 0 0 0 1 0 0 0 0 0 0 0 0 0 0 0 0 0 0 0 0 0 0 0 0 0 0 -1 0 0 0 0 0 0 0 0 0 0 0 0 0 0 0 0 0 0 0 0 0 0 0 0 0 0 0 0 0 0 0 -1 1 0 0 0 0 0 0 0 0 0 0 0 0 0 0 0 0 0 0 0 0 0 0 0 0 0 0 0 0 0 0 -1 0 0 0 0 0 0 0 0 0 0 0 0 0 0 0 0 0 0 0 0 0 0 0 0 1 0 0 -1 0 0 0 0 0 0 0 0 0 0 0 0 0 0 0 0 0 0 0 0 0 0 0 0 0 0 0 -1 0 0 0 0 0 0 0 0 0 0 0 0 0 0 0 0 0 0 0 0 0 0 0 -1 0 0 0 0 1 0 0 0 0 0 0 0 0 0 0 0 0 0 0 0 0 0 0 -1 0 0 0 0 0 0 0 0 0 0 0 0 0 0 0 0 0 0 0 0 0 0 0 -1 0 0 0 0 0 0 0 0 0 0 0 0 1 0 0 0 0 0 0 0 0 0 0 0 0 0 0 0 0 0 0 0 0 0 0 0 0 0 0 0 0 0 0 -1 0 0 0 0 9 0 0 0 2 0 0 0 0 0 0 0 0 0 0 1 1 0 0 0 0 0 0 0 0 0 0 0 0 0 0 0 0 0 0 0 0 0 0 0 0 0 0 0 0 0 0 0 0 0 0 1 0 0 0 0 0 0 0 1 0 0 0 0 0 0 0 0 0 0 0 0 0 0 0 0 0 0 0 0 0 0 0 1 0 0 0 0 0 0 0 0 0 0 0 0 -1 0 0 0 0 0 0 0 0 0 0 0 0 0 0 1 0 0 0 0 0 0 0 0 0 0 0 0 0 0 0 0 0 0 0 0 0 0 0 0 0 0 0 0 0 0 0 1 0 0 0 0 0 0 0 0 -1 0 0 0 0 0 0 0 0 0 0 0 0 0 0 0 0 0 0 0 0 0 0 1 0 0 0 0 0 0 0 0 0 0 0 0 0 0 0 0 0 0 0 0 0 0 0 0 0 0 0 0 0 0 0 0 -1 0 0 0 0 0 0 1 0 0 0 0 0 0 0 0 0 0 0 0 0 0 0 0 0 0 0 0 0 0 0 0 0 0 0 0 0 0 0 0 0 0 0 0 0 0 0 1 0 0 0 0 0 0 0 0 -1 0 0 0 0 0 0 0 0 0 0 0 0 0 0 0 0 0 0 0 0 0 0 0 0 0 0 0 0 0 0 1 0 0 0 0 0 0 0 0 0 0 0 0 0 0 0 0 0 0 0 0 0 0 0 0 -1 0 0 0 0 0 0 0 0 0 0 0 0 0 0 0 0 0 0 1 0 0 0 0 0 0 0 0 0 0 0 0 0 0 0 0 0 0 0 0 0 0 0 0 0 0 0 0 0 0 0 0 0 0 0 0 -1 0 0 1 0 0 0 0 0 0 0 0 0 0 0 0 0 0 0 0 0 0 0 0 0 0 0 0 0 0 0 0 0 0 0 0 0 0 0 0 0 0 0 0 0 0 0 1 0 0 0 0 0 0 0 0 -1 0 0 0 0 0 0 0 0 0 0 0 0 0 0 0 0 0 0 0 0 0 0 0 0 0 0 0 0 0 0 0 0 0 0 1 0 0 0 0 0 0 0 0 0 0 0 0 0 0 0 0 0 0 0 0 -1 0 0 0 0 0 0 0 0 0 0 0 0 0 0 0 0 0 0 0 0 0 0 1 0 0 0 0 0 0 0 0 0 0 0 0 0 0 0 0 0 0 0 0 0 0 0 0 0 0 0 0 0 0 0 1 -1 0 0 0 0 0 0 0 0 0 0 1 0 0 0 0 0 0 0 0 1 0 0 1 0 0 0 0 0 0 0 0 0 0 0 0 0 0 0 0 0 0 0 0 0 0 0 0 0 0 0 0 0 0 0 0 0 0 0 0 0 0 0 0 0 0 0 1 0 0 0 0 0 0 0 0 1 0 0 0 0 0 0 0 0 0 0 0 0 0 0 0 0 0 0 0 0 0 0 0 0 0 0 0 0 0 0 0 0 0 0 0 0 0 0 0 0 0 0 0 0 0 0 1 0 0 0 0 0 0 0 0 1 0 0 0 0 0 0 0 0 0 0 0 0 0 0 0 0 0 0 0 0 0 0 0 0 0 0 0 0 0 0 0 0 0 0 0 0 0 0 0 0 0 0 0 0 0 0 1 0 0 0 0 1 0 0 0 0 0 0 0 0 0 0 0 0 0 0 0 0 0 0 0 0 0 0 0 0 0 0 0 0 0 0 0 0 0 0 0 0 0 0 0 0 0 0 0 0 0 0 0 0 0 0 1 1 0 0 0 0 0 0 0 0 0 0 0 0 0 0 0 0 0 0 0 0 0 0 0 0 0 0 0 0 0 0 0 0 0 0 0 0 0 0 0 0 0 0 0 0 0 0 0 0 0 0 0 0 0 0 1 1 0 0 0 0 0 0 0 0 0 0 0 0 0 0 0 0 0 0 0 0 0 0 0 0 0 0 0 0 0 0 0 0 0 0 0 0 0 0 0 0 0 0 0 0 0 0 0 0 0 0 1 0 0 0 0 1 0 0 0 0 0 0 0 0 0 0 0 0 0 0 0 0 0 0 0 0 0 0 0 0 0 0 0 0 0 0 0 0 0 0 0 0 0 0 0 0 0 0 1 0 0 0 0 0 0 0 0 0 0 0 0 1 0 0 0 0 0 0 0 0 0 0 0 0 0 0 0 0 0 0 0 0 0 0 0 0 0 0 0 0 0 0 1 0 0 0 0 0 0 0 0 0 0 0 0 0 0 0 0 0 0 0 0 0 0 0 0 1 0 0 0 0 0 0 0 0 0 0 1 0 0 0 0 0 0 0 0 0 0 0 0 0 0 0 0 0 0 0 0 0 0 0 0 0 0 0 1 0 0 0 0 0 0 0 0 0 0 0 1 0 0 0 0 0 0 0 0 0 0 0 0 0 0 0 0 0 0 0 0 0 0 0 0 0 0 0 0 0 0 0 0 0 0 0 0 -1 0 0 1 0 0 0 0 0 0 0 0 0 0 0 0 0 0 0 0 0 0 0 0 -1 0 0 0 -2 0 0 0 -6 0 0 0 0 0 0 0 -1 0 0 0 0 0 0 0 0 0 0 0 -1 0 0 0 0 0 0 0 0 0 0 0 0 0 0 0 0 0 0 -1 0 0 0 0 -1 0 0 0 0 0 0 0 0 0 0 0 0 0 0 0 0 0 0 0 0 0 0 0 0 0 0 0 0 0 0 0 0 0 0 0 -1 0 0 0 0 0 0 0 0 0 0 0 0 0 0 -1 0 0 0 0 0 0 0 0 0 0 0 0 0 0 0 0 0 0 0 0 0 0 0 0 0 0 0 0 0 0 0 0 0 0 0 0 -1 0 0 0 0 0 0 0 0 0 0 0 0 0 0 0 0 0 0 -1 0 0 0 0 0 0 0 0 0 0 0 0 0 0 0 0 0 0 0 0 0 0 0 0 0 0 0 0 0 0 0 0 0 0 0 0 -1 0 0 0 0 0 0 0 0 0 0 0 0 0 0 -1 0 0 0 0 0 0 0 0 0 0 0 0 0 0 0 0 0 0 0 0 0 0 0 0 0 0 0 0 0 0 0 0 0 0 0 0 0 0 0 0 -1 0 0 0 0 0 0 0 0 0 0 -1 0 0 0 0 0 0 0 0 0 0 0 0 0 0 0 0 0 0 0 0 0 0 0 0 0 0 0 0 0 0 0 0 0 0 0 0 0 0 0 0 0 0 0 0 -1 0 0 -1 0 0 0 0 0 0 0 0 0 0 0 0 0 0 0 0 0 0 0 0 0 0 0 0 0 0 0 0 0 0 0 0 0 0 0 0 0 0 0 0 0 0 0 0 0 0 0 0 -1 0 0 0 0 0 0 -1 0 0 0 0 0 0 0 0 0 0 0 0 0 0 0 0 0 0 0 0 0 0 0 0 0 0 0 0 -1 0 0 0 0 0 0 0 0 0 0 0 -1 0 0 0 0 0 0 0 0 0 0 0 0 0 0 0 0 0 0 0 0 0 0 0 0 0 0 0 0 0 0 1 0 0 0 0 0 0 0 0 -1 0 0 0 0 0 0 0 0 0 0 0 0 0 0 0 0 0 0 0 0 0 0 1 0 0 0 0 0 0 0 0 0 0 0 0 0 0 0 1 0 0 0 0 0 0 0 0 0 0 0 1 0 0 0 1 -1 0 0 1 0 0 0 0 0 0 0 0 0 0 0 0 0 0 0 0 0 0 0 0 0 0 0 0 0 0 0 0 0 0 0 1 0 0 0 0 0 0 0 0 -1 0 0 0 0 0 0 0 0 0 0 0 0 0 0 0 -5 0 0 0 -1 0 0 0 0 0 0 0 0 0 0 0 -1 0 0 0 0 0 0 0 -1 0 0 -1 0 0 0 0 0 0 0 0 0 0 0 0 -1 0 0 0 0 0 0 0 0 0 0 0 0 0 0 0 0 0 0 0 -1 0 0 0 0 0 0 0 0 0 0 0 0 0 0 0 0 0 0 0 -1 0 0 -1 0 0 0 0 0 0 0 0 0 0 0 0 0 0 0 0 0 0 0 0 0 0 0 0 -1 0 0 0 0 0 0 0 0 0 0 0 0 0 0 0 0 0 0 0 0 0 0 0 0 0 0 0 -1 0 0 -1 0 0 0 0 0 0 0 0 0 0 0 0 0 0 0 0 0 0 0 0 0 0 0 0 0 0 0 0 0 0 0 0 -1 0 0 0 0 0 0 0 0 0 0 0 0 0 0 0 0 0 0 0 0 0 0 0 0 0 0 -1 0 0 0 0 0 0 0 0 0 0 0 0 -1 0 0 0 0 0 0 0 0 0 0 0 0 0 0 0 0 0 0 0 0 0 0 0 0 0 0 0 0 0 0 0 0 0 0 0 0 0 0 0 0 0 0 -1 -1 0 0 0 0 0 0 0 0 0 0 0 0 0 0 0 0 0 0 0 0 0 0 0 0 0 0 0 0 0 0 0 0 0 0 0 0 0 0 0 0 0 0 0 0 0 0 0 0 0 0 0 -1 0 0 -1 0 0 0 0 0 0 0 0 0 0 0 0 0 0 0 0 0 0 0 0 0 0 0 0 0 0 0 0 0 0 0 0 0 0 0 0 0 0 0 0 0 0 0 0 0 0 0 0 0 0 0 0 -1 0 0 -1 0 0 0 0 0 0 0 0 0 0 0 0 0 0 0 0 0 0 0 0 0 0 0 0 0 0 0 0 0 0 0 0 0 0 0 0 0 0 0 0 0 0 0 0 0 0 0 -1 0 0 0 0 -1 0 0 0 0 0 0 0 0 0 0 0 0 0 0 0 0 0 0 0 0 0 0 0 0 0 0 0 0 0 0 0 0 0 0 0 0 0 0 0 0 0 0 -1 0 0 0 0 0 0 0 0 0 0 0 0 -1 0 0 0 0 0 0 0 0 0 0 0 0 0 0 0 0 0 0 0 0 0 0 0 0 0 0 0 0 0 0 -1 0 0 0 0 0 0 0 0 0 0 0 0 0 0 0 0 0 0 0 0 0 0 0 0 -1 0 0 0 0 0 0 0 0 0 0 0 0 0 0 -1 0 0 0 0 0 0 0 0 0 0 0 0 0 0 0 0 0 0 0 0 0 0 0 0 0 0 0 0 0 0 0 0 0 0 0 0 0 0 0 -1 -1 0 0 0 0 0 0 0 0 0 0 0 0 0 0 0 0 0 0 0 0 0 0 0 0 0 0 0 0 0 0 0 0 0 0 -1 0 0 0 0 0 0 0 0 0 0 0 0 0 0 0 0 0 0 0 0 -1 0 0 0 0 0 0 0 0 0 0 0 0 0 0 -1 0 0 0 0 0 0 0 0 0 0 0 0 0 0 0 0 0 0 0 0 0 0 0 0 0 0 0 0 0 0 0 0 0 0 0 -1 0 0 0 0 -1 0 0 0 0 0 0 0 0 0 0 0 0 0 0 0 0 0 0 0 0 0 0 0 0 0 0 0 0 0 0 -1 0 0 0 0 0 0 0 0 0 0 0 0 0 0 0 0 0 0 0 0 0 0 0 0 -1 0 0 0 0 0 0 -1 0 0 0 0 0 0 0 0 0 0 0 0 0 0 0 0 0 0 0 0 0 0 0 0 0 0 0 0 0 0 0 -1 0 0 0 0 0 0 0 0 0 0 0 0 0 0 0 0 -1 0 0 0 0 0 0 0 0 0 0 0 0 0 0 -1 0 0 0 0 0 0 0 0 0 0 0 0 0 0 0 0 0 0 0 0 0 0 0 0 0 0 0 0 0 0 0 -1 0 0 0 0 0 0 0 0 -1 0 0 0 0 0 0 0 0 0 0 0 0 0 0 0 0 0 0 -1 0 0 0 0 0 0 0 0 0 0 0 0 0 0 0 0 0 0 0 0 0 0 0 0 0 0 0 -1 0 0 0 0 0 0 0 0 -1 0 0 0 0 0 0 0 0 0 0 0 0 0 0 0 0 0 0 0 0 0 0 -1 0 0 0 0 0 0 0 0 0 0 0 0 0 0 0 0 0 0 0 0 0 0 0 -1 0 0 0 0 0 0 0 0 -1 0 0 0 0 0 0 0 0 0 0 0 0 0 0 0 0 0 0 -1 0 0 0 0 0 0 0 0 0 0 0 0 0 0 0 0 0 0 0 0 0 0 0 0 0 0 0 -1 0 0 0 0 0 0 0 0 -1 0 0 0 0 0 0 0 0 0 0 0 0 0 0 -1 0 0 0 0 0 0 0 0 0 0 0 0 0 0 0 0 0 0 0 0 0 0 0 0 0 0 0 -1 0 0 0 0 0 0 0 0 0 0 0 -1 0 0 0 0 0 0 0 0 0 0 0 0 0 0 0 0 0 0 0 0 0 0 0 0 0 0 0 0 0 0 0 -1 1 0 0 0 0 0 0 0 8 0 0 0 1 0 0 0 0 0 0 1 0 0 0 0 0 0 0 0 0 0 0 0 0 0 0 0 0 0 0 0 1 0 0 0 0 0 0 0 0 0 0 0 0 0 0 0 0 0 0 0 0 0 0 0 0 0 0 0 0 0 0 1 0 0 0 0 0 0 0 0 0 0 0 0 0 0 0 0 0 0 0 0 0 0 0 1 1 0 0 0 0 0 0 0 0 0 0 0 0 0 0 0 0 0 0 0 0 0 0 1 0 0 0 0 0 0 0 0 0 0 0 0 0 0 0 0 0 0 0 0 0 0 0 0 0 0 0 1 0 0 0 0 1 0 0 0 0 0 0 0 0 0 0 0 0 0 0 0 0 0 0 0 0 0 0 1 0 0 0 0 0 0 0 0 0 0 0 0 0 0 0 0 0 0 0 0 0 0 0 0 0 0 0 1 0 0 0 0 1 0 0 0 0 0 0 0 0 0 0 0 0 0 0 0 0 0 0 0 0 0 0 1 0 0 0 0 0 0 0 0 0 0 0 0 0 0 0 0 0 0 0 0 0 0 0 0 0 0 0 0 0 0 0 1 0 0 0 0 1 0 0 0 0 0 0 0 0 0 0 0 0 0 0 0 0 0 0 0 0 0 0 0 0 0 0 0 0 0 0 1 0 0 0 0 0 0 0 0 0 0 0 0 0 0 0 0 0 0 0 0 0 0 0 0 1 0 0 0 0 0 0 0 0 0 0 1 0 0 0 0 0 0 0 0 0 0 0 0 0 0 0 0 0 0 0 0 0 0 0 0 0 0 0 0 0 0 0 0 0 0 0 1 0 0 0 0 0 0 0 0 1 0 0 0 0 0 0 0 0 0 0 0 0 0 0 0 0 0 0 0 0 0 0 0 0 0 0 0 0 0 0 0 0 0 0 1 0 0 0 0 0 0 0 0 0 0 0 0 0 0 0 0 0 0 0 0 1 0 0 0 0 0 0 0 0 0 0 0 0 0 0 0 0 0 0 0 0 0 0 0 0 0 0 1 0 0 0 0 0 0 0 0 0 0 0 0 0 0 0 0 0 0 0 0 1 0 0 0 0 0 0 0 0 0 0 0 0 0 0 0 0 0 0 0 1 0 0 0 0 0 0 0 0 0 0 0 0 0 0 0 0 0 0 0 0 0 0 0 0 0 0 0 0 0 0 0 0 0 0 -1 1 0 0 0 0 0 0 0 0 0 0 0 0 0 0 -1 0 0 0 0 0 0 0 0 0 0 0 -1 0 0 0 -1 0 0 0 -4 0 0 0 -1 0 0 0 -1 0 0 0 0 0 0 0 0 0 0 0 -1 0 0 0 0 0 0 0 0 0 0 0 0 -1 0 0 0 0 0 0 0 0 0 0 -1 0 0 0 0 0 0 0 0 0 0 0 0 0 0 0 0 0 0 0 0 0 0 0 0 0 0 0 0 0 0 0 0 0 0 0 0 -1 0 0 0 0 0 0 0 0 0 0 -1 0 0 0 0 0 0 0 0 0 0 0 0 -1 0 0 0 0 0 0 0 0 0 0 0 0 0 0 0 0 0 0 0 0 0zm-19 -27l-1 0 0 0 -1 0 0 0 0 0 0 0 0 0 0 0 -1 0 0 0 0 0 0 0 0 0 0 1 0 0 0 0 -1 0 0 0 0 0 0 0 0 0 0 0 0 0 0 0 0 0 0 0 -1 0 0 0 0 0 0 0 0 0 0 0 0 0 0 0 0 0 0 0 0 0 0 0 0 0 0 0 -1 0 0 1 0 0 0 0 0 0 0 0 0 0 0 0 0 0 0 0 0 0 0 0 0 0 0 0 0 0 0 0 -1 0 0 0 0 0 0 0 0 0 0 0 0 0 0 0 0 0 0 0 0 0 0 0 0 0 0 1 0 0 0 0 0 0 0 0 0 0 0 0 0 0 0 0 -1 0 0 0 0 0 0 0 0 0 0 0 0 0 0 0 0 0 0 0 0 0 0 0 0 0 0 0 0 0 0 0 0 0 0 0 0 0 0 1 0 0 0 0 0 0 0 0 0 0 0 0 -1 0 0 0 0 0 0 0 0 0 0 0 0 0 0 0 0 0 0 0 0 0 0 0 0 0 0 0 0 0 0 0 0 0 0 0 0 0 0 1 0 0 0 0 0 0 0 0 0 0 0 0 0 0 0 0 -1 0 0 0 0 0 0 0 0 0 0 0 0 0 0 0 0 0 0 0 0 0 0 0 0 0 0 1 0 0 0 0 0 0 0 0 0 0 0 0 0 0 0 0 0 0 0 0 0 0 0 0 0 0 0 0 -1 0 0 1 0 0 0 0 0 0 0 0 0 0 0 0 0 0 0 0 0 0 0 0 0 0 0 0 0 0 0 1 0 0 0 0 0 0 0 0 0 0 0 0 0 0 0 0 0 0 0 1 0 0 0 0 -1 0 0 0 0 0 0 0 0 0 0 1 0 0 0 0 0 0 0 0 0 0 0 1 0 0 0 1 0 0 0 56 0 0 0 1 0 0 0 1 0 0 0 0 0 0 0 0 0 0 0 1 0 0 0 0 0 0 0 0 1 0 0 0 0 0 0 1 0 0 0 0 0 0 0 0 0 0 0 0 0 0 0 0 0 0 0 1 0 0 0 0 0 0 0 0 0 0 0 0 0 0 0 0 0 0 0 0 0 0 0 0 0 0 0 1 1 0 0 0 0 0 0 0 0 0 0 0 0 0 0 0 0 0 0 0 0 0 0 0 0 0 0 0 0 0 0 1 0 0 0 0 0 0 0 0 0 0 0 0 0 0 0 0 0 0 0 0 0 0 0 0 1 0 0 0 0 0 0 0 0 0 0 0 0 0 0 0 0 0 0 1 0 0 0 0 0 0 0 0 0 0 0 0 0 0 0 0 0 0 0 0 0 0 0 0 0 0 0 0 0 0 0 0 0 0 0 0 1 0 0 0 0 0 0 0 0 0 0 0 0 0 0 1 0 0 0 0 0 0 0 0 0 0 0 0 0 0 0 0 0 0 0 0 0 0 0 0 0 0 0 0 0 0 0 0 0 0 0 0 1 0 0 0 0 0 0 0 0 0 0 0 0 0 0 0 0 0 0 1 0 0 0 0 0 0 0 0 0 0 0 0 0 0 0 0 0 0 0 0 0 0 0 0 1 0 0 0 0 0 0 0 0 0 0 0 0 0 0 0 0 0 0 0 0 0 0 0 0 0 0 0 0 0 0 1 1 0 0 0 0 0 0 0 0 0 0 0 0 0 0 0 0 0 0 0 0 0 0 0 0 0 0 0 1 0 0 0 0 0 0 0 0 0 0 0 0 0 0 0 0 0 0 0 1 0 0 0 0 0 0 1 0 0 0 0 0 0 0 0 1 0 0 0 0 0 0 0 0 0 0 0 1 0 0 0 1 0 0 0 56 0 0 0 1 0 0 0 1 0 0 0 0 0 0 0 0 0 0 0 1 0 0 0 0 0 0 0 0 0 0 -1 0 0 0 0 1 0 0 0 0 0 0 0 0 0 0 0 0 0 0 0 0 0 0 0 1 0 0 0 0 0 0 0 0 0 0 0 0 0 0 0 0 0 0 0 0 0 0 0 0 0 0 0 1 0 0 -1 0 0 0 0 0 0 0 0 0 0 0 0 0 0 0 0 0 0 0 0 0 0 0 0 0 0 0 0 1 0 0 0 0 0 0 0 0 0 0 0 0 0 0 0 0 0 0 0 0 0 0 0 0 0 0 -1 0 0 0 0 0 0 0 0 0 0 0 0 0 0 0 0 1 0 0 0 0 0 0 0 0 0 0 0 0 0 0 0 0 0 0 0 0 0 0 0 0 0 0 0 0 0 0 0 0 0 0 0 0 0 0 -1 0 0 0 0 0 0 0 0 0 0 0 0 1 0 0 0 0 0 0 0 0 0 0 0 0 0 0 0 0 0 0 0 0 0 0 0 0 0 0 0 0 0 0 0 0 0 0 0 0 0 0 -1 0 0 0 0 0 0 0 0 0 0 0 0 0 0 0 0 1 0 0 0 0 0 0 0 0 0 0 0 0 0 0 0 0 0 0 0 0 0 0 0 0 0 0 -1 0 0 0 0 0 0 0 0 0 0 0 0 0 0 0 0 0 0 0 0 0 0 0 0 0 0 0 0 1 0 0 -1 0 0 0 0 0 0 0 0 0 0 0 0 0 0 0 0 0 0 0 0 0 0 0 0 0 0 0 -1 0 0 0 0 0 0 0 0 0 0 0 0 0 0 0 0 0 0 0 -1 0 0 0 0 1 0 0 0 0 0 0 0 0 0 0 -1 0 0 0 0 0 0 0 0 0 0 0 -1 0 0 0 -1 0 0 0 -56 0 0 0 -1 0 0 0 -1 0 0 0 0 0 0 0 0 0 0 0 -1 0 0 0 0 0 0 0 0 -1 0 0 0 0 0 0 -1 0 0 0 0 0 0 0 0 0 0 0 0 0 0 0 0 0 0 0 -1 0 0 0 0 0 0 0 0 0 0 0 0 0 0 0 0 0 0 0 0 0 0 0 0 0 0 0 -1 -1 0 0 0 0 0 0 0 0 0 0 0 0 0 0 0 0 0 0 0 0 0 0 0 0 0 0 0 0 0 0 -1 0 0 0 0 0 0 0 0 0 0 0 0 0 0 0 0 0 0 0 0 0 0 0 0 -1 0 0 0 0 0 0 0 0 0 0 0 0 0 0 0 0 0 0 -1 0 0 0 0 0 0 0 0 0 0 0 0 0 0 0 0 0 0 0 0 0 0 0 0 0 0 0 0 0 0 0 0 0 0 0 0 -1 0 0 0 0 0 0 0 0 0 0 0 0 0 0 -1 0 0 0 0 0 0 0 0 0 0 0 0 0 0 0 0 0 0 0 0 0 0 0 0 0 0 0 0 0 0 0 0 0 0 0 0 -1 0 0 0 0 0 0 0 0 0 0 0 0 0 0 0 0 0 0 -1 0 0 0 0 0 0 0 0 0 0 0 0 0 0 0 0 0 0 0 0 0 0 0 0 -1 0 0 0 0 0 0 0 0 0 0 0 0 0 0 0 0 0 0 0 0 0 0 0 0 0 0 0 0 0 0 -1 -1 0 0 0 0 0 0 0 0 0 0 0 0 0 0 0 0 0 0 0 0 0 0 0 0 0 0 0 -1 0 0 0 0 0 0 0 0 0 0 0 0 0 0 0 0 0 0 0 -1 0 0 0 0 0 0 -1 0 0 0 0 0 0 0 0 -1 0 0 0 0 0 0 0 0 0 0 0 -1 0 0 0 -1 0 0 0 -56 0 0 0z"/>
   <polygon class="fil1" points="34,25 34,25 34,25 34,25 34,25 34,25 33,25 33,25 33,25 33,25 33,25 33,25 32,25 32,26 32,26 32,26 32,26 32,26 32,26 32,26 32,26 32,26 32,26 32,26 32,26 32,26 31,26 31,26 31,26 31,26 31,26 31,26 31,26 31,26 31,26 31,26 31,26 31,26 31,26 31,26 31,26 31,27 31,27 31,27 31,27 31,27 31,27 31,27 31,27 31,27 31,27 31,27 31,27 31,27 31,27 31,27 32,27 32,27 32,27 32,27 32,27 32,27 32,27 32,28 32,28 32,28 32,28 32,28 33,28 33,28 33,28 33,28 33,28 33,28 33,28 33,28 33,28 33,28 33,28 33,28 33,28 33,28 33,28 33,28 33,28 33,28 33,28 33,28 33,28 33,29 33,29 33,29 34,29 34,29 34,29 34,29 34,29 34,29 34,29 34,30 34,30 34,30 34,30 34,30 34,30 34,31 34,31 34,32 34,32 34,37 34,37 34,37 34,37 34,38 34,38 34,38 34,38 34,39 34,39 34,39 34,39 34,39 34,39 34,39 34,39 34,39 33,39 33,40 33,40 33,40 33,40 33,40 33,40 33,40 33,40 33,40 33,40 33,40 33,40 33,40 33,40 33,40 33,40 33,40 32,40 32,40 32,40 32,40 32,40 32,40 32,40 32,40 32,40 32,40 31,40 31,40 31,40 31,40 31,40 31,40 31,40 31,40 31,40 31,40 31,40 31,39 31,39 31,39 31,39 31,39 31,39 31,39 31,39 31,39 31,39 31,39 31,39 31,39 30,39 30,39 30,39 30,39 30,39 30,39 30,39 30,39 30,39 30,39 30,39 30,39 30,39 30,38 30,38 30,38 30,38 30,38 30,38 30,38 30,38 30,38 30,38 30,38 30,38 30,38 30,38 30,38 29,38 29,38 29,38 29,38 29,38 29,37 29,37 29,37 29,37 29,37 29,37 29,37 29,37 29,37 29,37 29,37 29,37 29,37 29,37 29,37 29,37 29,37 29,37 29,37 29,37 29,36 29,36 29,36 28,36 28,36 28,36 28,36 28,36 28,36 28,36 28,36 28,36 28,36 28,36 28,36 28,36 28,35 28,35 28,35 28,35 28,35 28,35 28,35 28,35 28,35 28,35 28,35 28,35 28,35 28,35 28,35 27,35 27,35 27,35 27,34 27,34 27,34 27,34 27,34 27,34 27,34 27,34 27,34 27,34 27,34 27,34 27,34 27,34 27,34 27,34 27,33 27,33 27,33 27,33 27,33 27,33 27,33 27,33 27,33 27,33 27,33 26,33 26,33 26,33 26,33 26,33 26,32 26,32 26,32 26,32 26,32 26,32 26,32 26,32 26,32 26,32 26,32 26,32 26,32 26,32 26,31 26,31 26,31 26,31 26,31 26,31 26,31 26,31 26,31 25,31 25,31 25,31 25,31 25,31 25,30 25,30 25,30 25,30 25,30 25,30 25,30 25,30 25,30 25,30 25,30 25,30 25,29 25,29 25,29 25,29 25,29 25,29 25,29 25,29 25,29 25,29 25,29 24,29 24,28 24,28 24,28 24,28 24,28 24,28 24,28 24,28 24,28 24,28 24,28 24,28 24,27 24,27 24,27 24,27 24,27 24,27 24,27 24,27 24,27 24,27 24,27 24,27 24,27 24,27 24,27 23,27 23,27 23,27 23,27 23,27 23,27 23,27 23,27 23,27 23,27 23,27 23,26 23,26 23,26 22,26 22,26 21,26 21,26 14,26 14,26 13,26 13,27 13,27 13,27 13,27 13,27 13,27 13,27 13,27 13,27 13,27 13,27 13,27 13,27 13,27 13,27 13,27 13,28 13,28 13,28 13,28 13,28 13,28 13,28 13,28 13,29 13,29 13,29 13,29 13,29 13,29 13,29 13,29 13,29 13,29 13,29 13,29 13,30 13,30 13,30 13,30 13,30 13,30 13,30 14,30 14,30 14,30 14,30 14,30 14,31 14,31 14,31 14,31 14,31 14,31 14,31 14,31 14,31 14,31 14,31 14,31 14,31 14,31 14,32 14,32 14,32 14,32 14,32 14,32 14,32 14,32 14,32 15,32 15,32 15,32 15,32 15,32 15,33 15,33 15,33 15,33 15,33 15,33 15,33 15,33 15,33 15,33 15,33 15,33 15,33 15,33 15,34 15,34 15,34 15,34 15,34 15,34 15,34 15,34 15,34 16,34 16,34 16,34 16,34 16,34 16,35 16,35 16,35 16,35 16,35 16,35 16,35 16,35 16,35 16,35 16,35 16,35 16,35 16,35 16,36 16,36 16,36 16,36 16,36 16,36 16,36 16,36 16,36 17,36 17,36 17,36 17,36 17,36 17,37 17,37 17,37 17,37 17,37 17,37 17,37 17,37 17,37 17,37 17,37 17,37 17,37 17,37 17,37 17,37 17,38 17,38 17,38 17,38 17,38 17,38 17,38 18,38 18,38 18,38 18,38 18,38 18,38 18,38 18,38 18,38 18,39 18,39 18,39 18,39 18,39 18,39 18,39 18,39 18,39 18,39 18,39 18,39 18,39 18,39 18,39 18,39 18,40 18,40 18,40 19,40 19,40 19,40 19,40 19,40 19,40 19,40 19,40 19,40 19,40 19,40 19,40 19,40 19,40 19,40 19,41 19,41 19,41 19,41 19,41 19,41 19,41 19,41 19,41 19,41 19,41 19,41 19,41 20,41 20,41 20,41 20,42 20,42 20,42 20,42 20,42 20,42 20,42 20,42 20,42 20,42 20,42 20,42 20,42 20,42 20,42 20,42 20,42 20,42 20,43 20,43 20,43 20,43 20,43 20,43 20,43 21,43 21,43 21,43 21,43 21,43 21,43 21,43 21,43 21,43 21,43 21,43 21,44 21,44 21,44 21,44 21,44 21,44 21,44 21,44 21,44 21,44 21,44 21,44 21,44 21,44 21,44 21,44 21,44 22,44 22,45 22,45 22,45 22,45 22,45 22,45 22,45 22,45 22,45 22,45 22,45 22,45 22,45 22,45 22,45 22,45 22,45 22,45 22,45 22,45 22,46 22,46 22,46 22,46 22,46 22,46 22,46 23,46 23,46 23,46 23,46 23,46 23,46 23,46 23,46 23,46 23,46 23,46 23,46 23,46 23,46 23,46 23,47 23,47 23,47 23,47 23,47 23,47 23,47 23,47 23,47 23,47 23,47 23,47 23,47 24,47 24,47 24,47 24,47 24,47 24,47 24,47 24,48 24,48 24,48 24,48 24,48 24,48 24,48 24,48 24,48 24,48 24,48 24,48 24,48 24,48 24,48 24,48 24,48 24,48 24,48 24,48 24,48 25,48 25,48 25,48 25,49 25,49 25,49 25,49 25,49 25,49 25,49 25,49 25,49 25,49 25,49 25,49 25,49 25,49 25,49 25,49 25,49 25,49 25,49 25,49 25,49 25,49 25,49 25,49 25,49 26,49 26,50 26,50 26,50 26,50 26,50 26,50 26,50 26,50 26,50 26,50 26,50 26,50 26,50 26,50 26,50 26,50 26,50 26,50 26,50 26,50 26,50 26,50 26,50 26,50 26,50 26,50 26,51 27,51 27,51 27,51 27,51 27,51 27,51 27,51 27,51 27,51 27,51 27,51 27,51 27,51 27,51 27,51 27,51 27,51 27,51 27,51 27,51 27,51 27,51 27,51 27,51 27,51 27,51 28,51 28,52 28,52 28,52 28,52 28,52 28,52 28,52 28,52 28,52 28,52 28,52 28,52 28,52 28,52 28,52 28,52 28,52 28,52 28,52 28,52 28,52 29,52 29,52 29,52 29,52 29,52 29,52 29,52 29,53 29,53 29,53 29,53 29,53 29,53 29,53 29,53 29,53 29,53 29,53 29,53 29,53 30,53 30,53 30,53 30,53 30,53 30,53 30,53 30,53 30,53 30,53 30,53 30,53 30,53 30,53 30,53 30,53 31,53 31,54 31,54 31,54 31,54 31,54 31,54 31,54 31,54 31,54 31,54 31,54 31,54 31,54 31,54 31,54 32,54 32,54 32,54 32,54 32,54 32,54 32,54 32,54 32,54 32,54 32,54 32,54 33,54 33,55 33,55 33,55 33,55 33,55 33,55 33,55 33,55 33,55 33,55 33,55 34,55 34,55 34,55 34,55 34,55 34,55 34,55 34,55 35,55 35,55 35,55 35,55 35,55 35,55 35,55 35,55 36,55 36,56 36,56 36,56 36,56 36,56 37,56 37,56 37,56 37,56 38,56 38,56 38,56 38,56 43,56 43,56 43,56 43,56 43,56 43,56 43,56 43,56 44,56 44,56 44,56 44,56 44,56 44,55 44,55 44,55 44,55 44,55 44,55 44,55 44,55 44,55 44,55 44,55 44,55 44,55 44,55 44,55 44,55 44,54 45,54 45,53 45,53 45,52 45,52 45,52 45,52 45,51 45,51 45,51 45,51 45,51 45,51 45,51 45,51 45,51 45,51 45,50 45,50 45,50 45,50 45,50 45,50 45,50 45,50 45,50 45,50 45,50 46,50 46,50 46,50 46,49 46,49 46,49 46,49 46,49 46,49 46,49 46,49 46,49 46,49 46,49 46,49 46,49 46,49 46,49 46,49 46,49 47,49 47,49 47,49 47,49 47,49 47,49 48,49 48,49 48,49 48,49 48,49 48,49 48,49 48,49 48,49 48,49 48,49 48,49 48,49 48,49 48,49 48,50 48,50 48,50 49,50 49,50 49,50 49,50 49,50 49,50 49,50 49,50 49,50 49,50 49,50 49,50 49,50 49,50 49,50 49,50 49,50 49,50 49,50 49,50 49,50 49,50 49,50 49,50 49,50 49,51 50,51 50,51 50,51 50,51 50,51 50,51 50,51 50,51 50,51 50,51 50,51 50,51 50,51 50,51 50,51 50,51 50,51 50,51 50,51 50,51 50,51 50,51 50,51 50,51 50,51 50,52 50,52 50,52 51,52 51,52 51,52 51,52 51,52 51,52 51,52 51,52 51,52 51,52 51,52 51,52 51,52 51,52 51,52 51,52 51,52 51,52 51,52 51,52 51,52 51,53 51,53 51,53 51,53 51,53 51,53 51,53 52,53 52,53 52,53 52,53 52,53 52,53 52,53 52,53 52,53 52,53 52,53 52,53 52,53 52,53 52,53 52,53 52,53 52,53 52,53 52,53 52,53 52,54 52,54 52,54 52,54 52,54 52,54 52,54 53,54 53,54 53,54 53,54 53,54 53,54 53,54 53,54 53,54 53,54 53,54 53,54 53,54 53,54 53,54 53,54 53,54 53,54 53,54 53,54 53,54 53,55 53,55 53,55 53,55 53,55 53,55 53,55 54,55 54,55 54,55 54,55 54,55 54,55 54,55 54,55 54,55 54,55 54,55 54,55 54,55 54,55 54,55 54,55 54,55 54,55 55,55 55,55 55,55 55,56 55,56 55,56 55,56 55,56 55,56 55,56 55,56 55,56 56,56 56,56 56,56 56,56 56,56 56,56 57,56 57,56 57,56 57,56 60,56 60,56 65,56 65,56 65,56 65,56 66,56 66,56 66,56 66,56 66,56 66,56 66,56 66,56 66,56 66,55 67,55 67,55 67,55 67,55 67,55 67,55 67,55 67,55 67,55 67,55 67,55 67,55 67,55 67,55 67,55 67,55 67,55 67,55 67,55 67,54 67,54 67,54 67,54 67,54 67,54 67,53 67,53 67,53 67,53 67,53 67,53 67,53 67,53 67,53 67,53 67,53 67,53 67,53 67,53 67,52 67,52 67,52 67,52 67,52 66,52 66,52 66,52 66,52 66,52 66,52 66,52 66,52 66,52 66,52 66,52 66,52 66,52 66,52 66,52 66,51 66,51 66,51 66,51 66,51 66,51 66,51 66,51 66,51 66,51 66,51 66,51 66,51 65,51 65,51 65,51 65,51 65,51 65,51 65,51 65,50 65,50 65,50 65,50 65,50 65,50 65,50 65,50 65,50 65,50 65,50 65,50 65,50 65,50 65,50 65,50 65,50 65,50 65,50 65,50 65,50 64,50 64,50 64,50 64,49 64,49 64,49 64,49 64,49 64,49 64,49 64,49 64,49 64,49 64,49 64,49 64,49 64,49 64,49 64,49 64,49 64,49 64,49 64,49 64,49 64,49 64,49 64,49 64,49 63,49 63,48 63,48 63,48 63,48 63,48 63,48 63,48 63,48 63,48 63,48 63,48 63,48 63,48 63,48 63,48 63,48 63,48 63,48 63,48 63,48 63,48 63,48 63,48 63,48 63,48 63,48 63,48 62,48 62,47 62,47 62,47 62,47 62,47 62,47 62,47 62,47 62,47 62,47 62,47 62,47 62,47 62,47 62,47 62,47 62,47 62,47 62,47 62,47 62,47 62,47 62,47 62,47 62,47 61,47 61,47 61,47 61,46 61,46 61,46 61,46 61,46 61,46 61,46 61,46 61,46 61,46 61,46 61,46 61,46 61,46 61,46 61,46 61,46 61,46 61,46 61,46 61,46 61,46 61,46 60,46 60,46 60,46 60,46 60,46 60,45 60,45 60,45 60,45 60,45 60,45 60,45 60,45 60,45 60,45 60,45 60,45 60,45 60,45 60,45 60,45 60,45 60,45 60,45 60,45 60,45 60,45 60,45 59,45 59,45 59,45 59,45 59,45 59,44 59,44 59,44 59,44 59,44 59,44 59,44 59,44 59,44 59,44 59,44 59,44 59,44 59,44 59,44 59,44 59,44 59,44 59,44 59,44 59,44 59,44 59,43 58,43 58,43 58,43 58,43 58,43 58,43 58,43 58,42 58,42 58,42 58,42 58,42 58,42 58,42 59,42 59,41 59,41 59,41 59,41 59,41 59,41 59,41 59,41 59,41 59,41 59,41 59,41 59,41 59,41 59,41 59,41 59,40 59,40 59,40 59,40 59,40 59,40 59,40 59,40 59,40 59,40 59,40 60,40 60,40 60,40 60,40 60,40 60,40 60,40 60,40 60,40 60,40 60,40 60,39 60,39 60,39 60,39 60,39 60,39 60,39 60,39 60,39 60,39 60,39 60,39 60,39 60,39 60,39 60,39 60,39 61,39 61,39 61,39 61,39 61,39 61,38 61,38 61,38 61,38 61,38 61,38 61,38 61,38 61,38 61,38 61,38 61,38 61,38 61,38 61,38 61,38 61,38 61,38 61,38 61,38 61,37 61,37 61,37 62,37 62,37 62,37 62,37 62,37 62,37 62,37 62,37 62,37 62,37 62,37 62,37 62,37 62,37 62,37 62,37 62,37 62,37 62,37 62,36 62,36 62,36 62,36 62,36 62,36 62,36 62,36 62,36 63,36 63,36 63,36 63,36 63,36 63,36 63,36 63,36 63,36 63,36 63,36 63,36 63,36 63,35 63,35 63,35 63,35 63,35 63,35 63,35 63,35 63,35 63,35 63,35 63,35 63,35 63,35 63,35 64,35 64,35 64,35 64,35 64,35 64,34 64,34 64,34 64,34 64,34 64,34 64,34 64,34 64,34 64,34 64,34 64,34 64,34 64,34 64,34 64,34 64,34 64,34 64,34 64,34 64,33 64,33 64,33 65,33 65,33 65,33 65,33 65,33 65,33 65,33 65,33 65,33 65,33 65,33 65,33 65,33 65,33 65,33 65,32 65,32 65,32 65,32 65,32 65,32 65,32 65,32 65,32 65,32 65,32 65,32 65,32 66,32 66,32 66,32 66,32 66,32 66,31 66,31 66,31 66,31 66,31 66,31 66,31 66,31 66,31 66,31 66,31 66,31 66,31 66,31 66,31 66,31 66,30 66,30 66,30 66,30 66,30 66,30 66,30 67,30 67,30 67,30 67,30 67,30 67,30 67,30 67,29 67,29 67,29 67,29 67,29 67,29 67,29 67,29 67,29 67,29 67,28 67,28 67,28 67,28 67,27 67,27 67,27 67,27 67,27 67,27 67,27 67,27 67,27 67,27 67,27 67,27 67,27 67,27 67,27 67,27 67,27 66,27 66,26 66,26 66,26 55,26 55,26 55,26 55,27 55,27 55,27 55,27 55,27 55,27 55,27 55,27 55,27 55,27 55,27 55,27 55,27 55,27 55,27 54,27 54,27 54,27 54,27 54,27 54,27 54,27 54,28 54,28 54,28 54,28 54,28 54,28 54,28 54,28 54,28 54,28 54,28 54,28 54,29 54,29 54,29 54,29 54,29 54,29 54,29 54,29 54,29 53,29 53,29 53,29 53,30 53,30 53,30 53,30 53,30 53,30 53,30 53,30 53,30 53,30 53,30 53,30 53,31 53,31 53,31 53,31 53,31 53,31 53,31 53,31 53,31 53,31 53,31 53,31 53,31 53,31 53,32 52,32 52,32 52,32 52,32 52,32 52,32 52,32 52,32 52,32 52,32 52,32 52,32 52,32 52,33 52,33 52,33 52,33 52,33 52,33 52,33 52,33 52,33 52,33 52,33 52,33 52,33 52,33 52,34 51,34 51,34 51,34 51,34 51,34 51,34 51,34 51,34 51,34 51,34 51,34 51,34 51,34 51,34 51,34 51,34 51,34 51,35 51,35 51,35 51,35 51,35 51,35 51,35 51,35 51,35 51,35 51,35 50,35 50,35 50,35 50,35 50,35 50,36 50,36 50,36 50,36 50,36 50,36 50,36 50,36 50,36 50,36 50,36 50,36 50,36 50,36 50,36 50,36 50,36 50,36 50,37 50,37 50,37 50,37 50,37 49,37 49,37 49,37 49,37 49,37 49,37 49,37 49,37 49,37 49,37 49,37 49,37 49,37 49,37 49,37 49,38 49,38 49,38 49,38 49,38 49,38 49,38 49,38 49,38 49,38 49,38 49,38 49,38 48,38 48,38 48,38 48,38 48,38 48,38 48,38 48,38 48,38 48,39 48,39 48,39 48,39 48,39 48,39 48,39 48,39 48,39 48,39 48,39 48,39 48,39 48,39 48,39 48,39 48,39 48,39 48,39 47,39 47,39 47,39 47,39 47,39 47,39 47,39 47,40 47,40 47,40 47,40 47,40 47,40 47,40 47,40 47,40 47,40 47,40 47,40 47,40 47,40 47,40 46,40 46,40 46,40 46,40 46,40 46,40 46,40 46,40 45,40 45,40 45,40 45,40 45,40 45,40 45,40 45,40 45,40 45,40 45,40 45,40 45,40 45,39 45,39 45,39 45,39 45,39 45,39 45,39 45,39 45,39 45,39 45,38 45,38 45,38 44,38 44,33 45,33 45,30 45,30 45,28 45,28 45,27 44,27 44,27 44,27 44,27 44,27 44,27 44,27 44,26 44,26 44,26 44,26 44,26 44,26 44,26 44,26 44,26 44,26 44,26 44,26 44,26 44,26 44,26 44,26 44,26 43,26 43,26 43,26 43,26 43,26 43,25 43,25 43,25 43,25 43,25 43,25 43,25 42,25 42,25 42,25 42,25 41,25 41,25 40,25 40,25 35,25 35,25 "/>
   <polygon class="fil2" points="21,26 14,26 14,26 21,26 "/>
   <polygon class="fil2" points="63,56 60,56 60,56 63,56 "/>
   <polygon class="fil2" points="66,26 66,26 64,26 64,26 "/>
   <polygon class="fil2" points="41,25 41,25 40,25 40,25 "/>
   <polygon class="fil2" points="45,30 45,30 45,31 45,31 "/>
   <polygon class="fil2" points="67,27 67,28 67,28 67,27 "/>
   <polygon class="fil2" points="58,43 58,42 58,42 58,43 "/>
   <polygon class="fil3" points="34,36 34,36 34,37 34,37 "/>
   <polygon class="fil2" points="45,38 45,38 44,38 44,38 "/>
   <polygon class="fil2" points="38,56 38,56 38,56 38,56 "/>
   <polygon class="fil2" points="41,25 41,25 41,25 41,25 "/>
   <polygon class="fil3" points="45,53 45,53 45,53 45,53 "/>
   <polygon class="fil2" points="37,56 37,56 37,56 37,56 "/>
   <polygon class="fil3" points="34,38 34,38 34,38 34,38 "/>
   <polygon class="fil3" points="36,56 36,56 36,56 36,56 "/>
   <polygon class="fil3" points="34,25 33,25 33,25 34,25 "/>
   <polygon class="fil2" points="36,56 36,55 35,55 35,56 "/>
   <polygon class="fil2" points="67,28 67,28 67,28 67,28 "/>
   <polygon class="fil2" points="13,28 13,28 13,28 13,28 "/>
   <polygon class="fil2" points="45,52 45,52 45,52 45,52 "/>
   <polygon class="fil2" points="45,27 45,27 44,27 44,27 "/>
   <polygon class="fil2" points="66,26 66,26 66,26 66,26 "/>
   <polygon class="fil2" points="43,56 43,56 43,56 43,56 "/>
   <polygon class="fil3" points="34,25 34,25 34,25 34,25 "/>
   <polygon class="fil3" points="45,38 45,38 45,38 45,38 "/>
   <polygon class="fil2" points="45,51 45,51 45,52 45,52 "/>
   <polygon class="fil3" points="31,27 31,27 31,27 31,27 "/>
   <polygon class="fil2" points="34,30 34,30 34,30 34,30 "/>
   <polygon class="fil2" points="31,27 31,27 31,27 31,27 "/>
   <polygon class="fil2" points="66,27 66,26 66,26 66,27 "/>
   <polygon class="fil2" points="33,25 33,25 33,25 33,25 "/>
   <polygon class="fil2" points="34,37 34,37 34,37 34,37 "/>
   <polygon class="fil2" points="47,49 47,49 47,49 47,49 "/>
   <polygon class="fil2" points="44,55 44,55 44,55 44,55 "/>
   <polygon class="fil2" points="35,55 35,55 34,55 34,55 "/>
   <polygon class="fil2" points="38,56 38,56 37,56 37,56 "/>
   <polygon class="fil2" points="66,56 65,56 65,56 66,56 "/>
   <polygon class="fil2" points="34,38 34,38 34,39 34,39 "/>
   <polygon class="fil2" points="44,27 44,27 44,27 44,27 "/>
   <polygon class="fil2" points="34,30 34,30 34,30 34,30 "/>
   <polygon class="fil3" points="45,51 45,51 45,51 45,51 "/>
   <polygon class="fil2" points="45,51 45,51 45,51 45,51 "/>
   <polygon class="fil2" points="13,27 13,27 13,27 13,27 "/>
   <polygon class="fil2" points="67,54 67,54 67,54 67,54 "/>
   <polygon class="fil2" points="33,40 33,40 33,40 33,40 "/>
   <polygon class="fil2" points="42,25 42,25 42,25 42,25 "/>
   <polygon class="fil2" points="42,25 42,25 42,25 42,25 "/>
   <polygon class="fil2" points="45,39 45,39 45,39 45,39 "/>
   <polygon class="fil3" points="14,26 14,26 14,26 14,26 "/>
   <polygon class="fil2" points="34,25 34,25 34,25 34,25 "/>
   <polygon class="fil2" points="56,56 56,56 56,56 56,56 "/>
   <polygon class="fil2" points="32,27 32,27 32,27 32,27 "/>
   <polygon class="fil2" points="47,49 47,49 47,49 47,49 "/>
   <polygon class="fil2" points="34,30 34,30 34,30 34,30 "/>
   <polygon class="fil2" points="22,26 22,26 22,26 22,26 "/>
   <polygon class="fil2" points="33,25 33,25 33,25 33,25 "/>
   <polygon class="fil3" points="58,42 58,42 58,42 58,42 "/>
   <polygon class="fil2" points="35,55 35,55 35,55 35,55 "/>
   <polygon class="fil2" points="36,56 36,56 36,56 36,56 "/>
   <polygon class="fil3" points="66,56 66,56 66,56 66,56 "/>
   <polygon class="fil2" points="58,43 58,43 58,43 58,43 "/>
   <polygon class="fil2" points="56,56 56,56 56,56 56,56 "/>
   <polygon class="fil2" points="52,54 52,54 52,54 52,54 "/>
   <polygon class="fil3" points="32,28 32,28 32,28 32,28 "/>
   <polygon class="fil3" points="24,28 24,28 24,28 24,28 "/>
   <polygon class="fil2" points="33,28 33,28 33,28 33,28 "/>
   <polygon class="fil3" points="15,34 15,34 15,34 15,34 "/>
   <polygon class="fil3" points="19,41 19,41 19,41 19,41 "/>
   <polygon class="fil2" points="24,28 24,28 24,28 24,28 "/>
   <polygon class="fil2" points="13,28 13,28 13,28 13,28 "/>
   <polygon class="fil2" points="30,39 30,39 30,39 30,39 "/>
   <polygon class="fil2" points="54,28 54,28 54,28 54,28 "/>
   <polygon class="fil2" points="19,40 19,40 19,40 19,40 "/>
   <polygon class="fil2" points="13,29 13,28 13,28 13,29 "/>
   <polygon class="fil2" points="33,29 33,28 33,28 33,29 "/>
   <polygon class="fil2" points="67,28 67,28 67,29 67,29 "/>
   <polygon class="fil3" points="25,29 25,29 24,29 24,29 "/>
   <polygon class="fil2" points="27,34 27,34 27,34 27,34 "/>
   <polygon class="fil2" points="51,34 51,34 51,34 51,34 "/>
   <polygon class="fil2" points="64,34 64,34 64,34 64,34 "/>
   <polygon class="fil3" points="54,29 54,29 54,29 54,29 "/>
   <polygon class="fil2" points="29,38 29,38 29,38 29,38 "/>
   <polygon class="fil2" points="34,29 34,29 34,29 34,29 "/>
   <polygon class="fil2" points="67,29 67,29 67,29 67,29 "/>
   <polygon class="fil3" points="13,29 13,29 13,29 13,29 "/>
   <polygon class="fil3" points="51,34 51,34 51,34 51,34 "/>
   <polygon class="fil2" points="13,29 13,29 13,29 13,29 "/>
   <polygon class="fil3" points="34,29 34,29 34,29 34,29 "/>
   <polygon class="fil2" points="54,29 54,29 54,29 54,29 "/>
   <polygon class="fil3" points="67,29 67,29 67,29 67,29 "/>
   <polygon class="fil2" points="27,34 27,34 27,34 27,34 "/>
   <polygon class="fil2" points="30,39 30,38 30,38 30,39 "/>
   <polygon class="fil2" points="25,30 25,30 25,30 25,30 "/>
   <polygon class="fil3" points="67,30 67,30 67,30 67,30 "/>
   <polygon class="fil2" points="18,39 18,39 18,39 18,39 "/>
   <polygon class="fil2" points="53,30 53,30 53,30 53,30 "/>
   <polygon class="fil3" points="47,39 47,39 47,39 47,39 "/>
   <polygon class="fil2" points="28,35 28,35 27,35 27,35 "/>
   <polygon class="fil2" points="51,35 51,35 51,35 51,35 "/>
   <polygon class="fil3" points="46,40 46,40 46,40 46,40 "/>
   <polygon class="fil2" points="17,37 17,37 17,37 17,37 "/>
   <polygon class="fil2" points="14,30 14,30 13,30 13,30 "/>
   <polygon class="fil2" points="67,30 66,30 66,30 67,30 "/>
   <polygon class="fil3" points="51,35 51,35 51,35 51,35 "/>
   <polygon class="fil3" points="49,37 49,37 49,37 49,37 "/>
   <polygon class="fil2" points="25,31 25,30 25,30 25,31 "/>
   <polygon class="fil2" points="50,35 50,35 50,35 50,35 "/>
   <polygon class="fil2" points="25,31 25,31 25,31 25,31 "/>
   <polygon class="fil2" points="53,31 53,31 53,31 53,31 "/>
   <polygon class="fil2" points="33,40 33,40 33,40 33,40 "/>
   <polygon class="fil3" points="14,31 14,31 14,31 14,31 "/>
   <polygon class="fil2" points="28,35 28,35 28,35 28,35 "/>
   <polygon class="fil2" points="66,31 66,31 66,31 66,31 "/>
   <polygon class="fil2" points="26,31 26,31 26,31 26,31 "/>
   <polygon class="fil3" points="19,40 19,40 19,40 19,40 "/>
   <polygon class="fil3" points="34,39 34,39 34,39 34,39 "/>
   <polygon class="fil2" points="18,39 18,39 18,39 18,39 "/>
   <polygon class="fil2" points="47,40 47,40 47,40 47,40 "/>
   <polygon class="fil2" points="26,31 26,31 26,31 26,31 "/>
   <polygon class="fil2" points="43,25 43,25 43,25 43,25 "/>
   <polygon class="fil2" points="60,40 60,40 60,40 60,40 "/>
   <polygon class="fil2" points="14,31 14,31 14,31 14,31 "/>
   <polygon class="fil3" points="26,31 26,31 26,31 26,31 "/>
   <polygon class="fil2" points="16,36 16,36 16,36 16,36 "/>
   <polygon class="fil3" points="26,32 26,31 26,31 26,32 "/>
   <polygon class="fil3" points="28,36 28,36 28,36 28,36 "/>
   <polygon class="fil3" points="26,32 26,32 26,32 26,32 "/>
   <polygon class="fil3" points="26,32 26,32 26,32 26,32 "/>
   <polygon class="fil2" points="45,40 45,40 45,40 45,40 "/>
   <polygon class="fil2" points="26,32 26,32 26,32 26,32 "/>
   <polygon class="fil2" points="16,36 16,36 16,36 16,36 "/>
   <polygon class="fil2" points="26,32 26,32 26,32 26,32 "/>
   <polygon class="fil3" points="31,40 31,40 31,40 31,40 "/>
   <polygon class="fil2" points="28,36 28,36 28,36 28,36 "/>
   <polygon class="fil2" points="31,39 31,39 30,39 30,39 "/>
   <polygon class="fil2" points="48,39 48,39 48,39 48,39 "/>
   <polygon class="fil3" points="31,40 31,40 31,40 31,40 "/>
   <polygon class="fil2" points="20,41 20,41 20,41 20,41 "/>
   <polygon class="fil3" points="33,25 33,25 33,25 33,25 "/>
   <polygon class="fil2" points="20,43 20,43 20,43 20,43 "/>
   <polygon class="fil2" points="43,25 43,25 43,25 43,25 "/>
   <polygon class="fil2" points="20,43 20,43 20,43 20,43 "/>
   <polygon class="fil3" points="15,33 15,33 15,33 15,33 "/>
   <polygon class="fil3" points="21,44 21,44 21,44 21,44 "/>
   <polygon class="fil2" points="59,44 59,44 59,44 59,44 "/>
   <polygon class="fil3" points="21,44 21,44 21,44 21,44 "/>
   <polygon class="fil3" points="21,44 21,44 21,44 21,44 "/>
   <polygon class="fil2" points="22,45 22,45 22,45 22,45 "/>
   <polygon class="fil2" points="22,45 22,45 22,45 22,45 "/>
   <polygon class="fil2" points="23,46 23,46 23,46 23,46 "/>
   <polygon class="fil2" points="61,46 61,46 61,46 61,46 "/>
   <polygon class="fil2" points="61,46 61,46 61,46 61,46 "/>
   <polygon class="fil2" points="23,46 23,46 23,46 23,46 "/>
   <polygon class="fil2" points="23,47 23,47 23,47 23,47 "/>
   <polygon class="fil3" points="23,47 23,47 23,47 23,47 "/>
   <polygon class="fil2" points="62,47 62,47 62,47 62,47 "/>
   <polygon class="fil2" points="24,47 24,47 24,47 24,47 "/>
   <polygon class="fil2" points="24,48 24,48 24,48 24,48 "/>
   <polygon class="fil2" points="24,48 24,48 24,48 24,48 "/>
   <polygon class="fil2" points="25,49 25,49 25,49 25,49 "/>
   <polygon class="fil2" points="32,26 32,26 32,26 32,26 "/>
   <polygon class="fil2" points="43,26 43,26 43,26 43,26 "/>
   <polygon class="fil3" points="64,49 64,49 64,49 64,49 "/>
   <polygon class="fil2" points="47,49 47,49 47,49 47,49 "/>
   <polygon class="fil2" points="46,49 46,49 46,49 46,49 "/>
   <polygon class="fil3" points="25,49 25,49 25,49 25,49 "/>
   <polygon class="fil2" points="64,50 64,50 64,50 64,50 "/>
   <polygon class="fil2" points="52,33 52,33 52,33 52,33 "/>
   <polygon class="fil2" points="49,50 49,50 49,50 49,50 "/>
   <polygon class="fil3" points="65,50 65,50 65,50 65,50 "/>
   <polygon class="fil2" points="49,50 49,50 49,50 49,50 "/>
   <polygon class="fil3" points="65,50 65,50 65,50 65,50 "/>
   <polygon class="fil2" points="32,26 32,26 32,26 32,26 "/>
   <polygon class="fil2" points="50,51 50,51 50,51 50,51 "/>
   <polygon class="fil3" points="27,51 27,51 27,51 27,51 "/>
   <polygon class="fil2" points="50,51 50,51 50,51 50,51 "/>
   <polygon class="fil2" points="45,39 45,39 45,39 45,39 "/>
   <polygon class="fil2" points="28,36 28,36 28,36 28,36 "/>
   <polygon class="fil3" points="27,51 27,51 27,51 27,51 "/>
   <polygon class="fil3" points="49,38 48,38 48,38 49,38 "/>
   <polygon class="fil2" points="50,52 50,51 50,51 50,52 "/>
   <polygon class="fil2" points="23,26 23,26 23,26 23,26 "/>
   <polygon class="fil2" points="51,52 51,52 51,52 51,52 "/>
   <polygon class="fil2" points="67,52 67,52 67,52 67,52 "/>
   <polygon class="fil2" points="29,53 29,53 29,53 29,53 "/>
   <polygon class="fil3" points="51,53 51,53 51,53 51,53 "/>
   <polygon class="fil2" points="29,53 29,53 29,53 29,53 "/>
   <polygon class="fil2" points="51,53 51,53 51,53 51,53 "/>
   <polygon class="fil3" points="67,53 67,53 67,53 67,53 "/>
   <polygon class="fil2" points="30,53 30,53 30,53 30,53 "/>
   <polygon class="fil2" points="23,27 23,26 23,26 23,27 "/>
   <polygon class="fil3" points="30,53 30,53 30,53 30,53 "/>
   <polygon class="fil3" points="67,53 67,53 67,53 67,53 "/>
   <polygon class="fil2" points="31,54 31,53 30,53 30,54 "/>
   <polygon class="fil2" points="31,54 31,54 31,54 31,54 "/>
   <polygon class="fil3" points="44,27 44,26 44,26 44,27 "/>
   <polygon class="fil3" points="53,54 53,54 52,54 52,54 "/>
   <polygon class="fil3" points="31,54 31,54 31,54 31,54 "/>
   <polygon class="fil3" points="53,54 53,54 53,54 53,54 "/>
   <polygon class="fil3" points="32,54 32,54 32,54 32,54 "/>
   <polygon class="fil2" points="32,54 32,54 32,54 32,54 "/>
   <polygon class="fil3" points="45,50 45,50 45,50 45,50 "/>
   <polygon class="fil2" points="33,55 33,55 33,55 33,55 "/>
   <polygon class="fil2" points="55,26 55,26 55,27 55,27 "/>
   <polygon class="fil2" points="67,55 67,55 67,55 67,55 "/>
   <polygon class="fil2" points="33,55 33,55 33,55 33,55 "/>
   <polygon class="fil3" points="34,55 34,55 34,55 34,55 "/>
   <polygon class="fil2" points="44,55 44,55 44,55 44,55 "/>
   <polygon class="fil3" points="34,55 34,55 34,55 34,55 "/>
   <polygon class="fil3" points="27,33 27,33 27,33 27,33 "/>
   <polygon class="fil2" points="54,55 54,55 54,55 54,55 "/>
   <polygon class="fil2" points="35,55 35,55 35,55 35,55 "/>
   <polygon class="fil2" points="65,33 65,33 65,33 65,33 "/>
   <polygon class="fil3" points="55,55 55,55 55,55 55,55 "/>
   <polygon class="fil2" points="31,27 31,27 31,27 31,27 "/>
   <polygon class="fil2" points="44,55 44,55 44,56 44,56 "/>
   <polygon class="fil2" points="55,27 55,27 55,27 55,27 "/>
   <polygon class="fil3" points="15,33 15,33 15,33 15,33 "/>
   <polygon class="fil2" points="66,56 66,56 66,56 66,56 "/>
   <polygon class="fil2" points="55,56 55,56 55,56 55,56 "/>
   <polygon class="fil3" points="19,41 19,41 19,41 19,41 "/>
   <polygon class="fil2" points="60,39 60,39 60,39 60,39 "/>
   <polygon class="fil3" points="67,27 67,27 67,27 67,27 "/>
   <polygon class="fil2" points="55,27 55,27 55,27 55,27 "/>
   <polygon class="fil3" points="31,27 31,27 31,27 31,27 "/>
   <polygon class="fil2" points="61,37 61,37 61,38 61,38 "/>
   <polygon class="fil2" points="45,39 45,39 45,39 45,39 "/>
   <polygon class="fil2" points="32,27 32,27 32,27 32,27 "/>
   <polygon class="fil2" points="56,56 56,56 56,56 56,56 "/>
   <polygon class="fil3" points="32,28 32,27 32,27 32,28 "/>
   <polygon class="fil3" points="53,55 53,55 53,55 53,55 "/>
   <polygon class="fil2" points="19,40 19,40 19,40 19,40 "/>
   <polygon class="fil3" points="32,40 32,40 32,40 32,40 "/>
   <polygon class="fil3" points="33,40 33,40 33,40 33,40 "/>
   <polygon class="fil3" points="59,40 59,40 59,40 59,40 "/>
   <polygon class="fil3" points="19,41 19,40 19,40 19,41 "/>
   <polygon class="fil2" points="59,41 59,41 59,41 59,41 "/>
   <polygon class="fil2" points="43,26 43,25 43,25 43,26 "/>
   <polygon class="fil2" points="20,42 20,42 20,42 20,42 "/>
   <polygon class="fil2" points="58,42 58,42 58,42 58,42 "/>
   <polygon class="fil2" points="44,26 44,26 43,26 43,26 "/>
   <polygon class="fil3" points="20,42 20,42 20,42 20,42 "/>
   <polygon class="fil2" points="44,26 44,26 44,26 44,26 "/>
   <polygon class="fil3" points="32,26 32,26 32,26 32,26 "/>
   <polygon class="fil2" points="44,26 44,26 44,26 44,26 "/>
   <polygon class="fil3" points="44,26 44,26 44,26 44,26 "/>
   <polygon class="fil3" points="21,43 21,43 21,43 21,43 "/>
   <polygon class="fil2" points="13,27 13,27 13,27 13,27 "/>
   <polygon class="fil3" points="55,27 55,27 55,27 55,27 "/>
   <polygon class="fil2" points="13,27 13,27 13,27 13,27 "/>
   <polygon class="fil2" points="59,44 59,44 59,44 59,44 "/>
   <polygon class="fil3" points="21,44 21,44 21,44 21,44 "/>
   <polygon class="fil2" points="55,27 55,27 55,27 55,27 "/>
   <polygon class="fil2" points="54,27 54,27 54,27 54,27 "/>
   <polygon class="fil2" points="22,45 22,45 22,45 22,45 "/>
   <polygon class="fil3" points="32,27 32,27 32,27 32,27 "/>
   <polygon class="fil2" points="22,45 22,45 22,45 22,45 "/>
   <polygon class="fil3" points="22,46 22,46 22,46 22,46 "/>
   <polygon class="fil3" points="24,27 24,27 24,27 24,27 "/>
   <polygon class="fil2" points="24,28 24,28 24,28 24,28 "/>
   <polygon class="fil2" points="54,28 54,28 54,28 54,28 "/>
   <polygon class="fil2" points="33,28 33,28 33,28 33,28 "/>
   <polygon class="fil2" points="23,47 23,46 23,46 23,47 "/>
   <polygon class="fil2" points="13,29 13,29 13,29 13,29 "/>
   <polygon class="fil3" points="62,47 62,47 62,47 62,47 "/>
   <polygon class="fil3" points="62,47 62,47 62,47 62,47 "/>
   <polygon class="fil3" points="33,29 33,29 33,29 33,29 "/>
   <polygon class="fil2" points="54,29 54,29 54,29 54,29 "/>
   <polygon class="fil2" points="24,47 24,47 23,47 23,47 "/>
   <polygon class="fil2" points="62,47 62,47 62,47 62,47 "/>
   <polygon class="fil2" points="62,47 62,47 62,47 62,47 "/>
   <polygon class="fil3" points="34,29 34,29 33,29 33,29 "/>
   <polygon class="fil2" points="24,48 24,48 24,48 24,48 "/>
   <polygon class="fil2" points="25,29 25,29 25,29 25,29 "/>
   <polygon class="fil2" points="25,29 25,29 25,29 25,29 "/>
   <polygon class="fil3" points="54,29 53,29 53,29 54,29 "/>
   <polygon class="fil2" points="64,49 64,49 64,49 64,49 "/>
   <polygon class="fil3" points="64,49 64,49 64,49 64,49 "/>
   <polygon class="fil3" points="34,29 34,29 34,29 34,29 "/>
   <polygon class="fil2" points="25,30 25,30 25,30 25,30 "/>
   <polygon class="fil3" points="13,30 13,30 13,30 13,30 "/>
   <polygon class="fil3" points="67,30 67,30 67,30 67,30 "/>
   <polygon class="fil2" points="46,49 46,49 46,49 46,49 "/>
   <polygon class="fil3" points="25,30 25,30 25,30 25,30 "/>
   <polygon class="fil2" points="48,49 48,49 48,49 48,49 "/>
   <polygon class="fil3" points="25,49 25,49 25,49 25,49 "/>
   <polygon class="fil2" points="13,30 13,30 13,30 13,30 "/>
   <polygon class="fil2" points="25,49 25,49 25,49 25,49 "/>
   <polygon class="fil3" points="48,49 48,49 48,49 48,49 "/>
   <polygon class="fil2" points="26,50 26,49 25,49 25,50 "/>
   <polygon class="fil3" points="46,49 46,49 46,50 46,50 "/>
   <polygon class="fil2" points="67,30 67,30 67,30 67,30 "/>
   <polygon class="fil2" points="66,30 66,30 66,30 66,30 "/>
   <polygon class="fil3" points="66,30 66,30 66,30 66,30 "/>
   <polygon class="fil2" points="53,30 53,30 53,30 53,30 "/>
   <polygon class="fil2" points="45,50 45,50 45,50 45,50 "/>
   <polygon class="fil2" points="53,31 53,31 53,31 53,31 "/>
   <polygon class="fil2" points="65,50 65,50 65,50 65,50 "/>
   <polygon class="fil3" points="53,31 53,31 53,31 53,31 "/>
   <polygon class="fil2" points="14,31 14,31 14,31 14,31 "/>
   <polygon class="fil3" points="65,51 65,51 65,51 65,51 "/>
   <polygon class="fil2" points="27,51 27,51 27,51 27,51 "/>
   <polygon class="fil2" points="27,51 27,51 27,51 27,51 "/>
   <polygon class="fil3" points="53,31 53,31 53,31 53,31 "/>
   <polygon class="fil2" points="14,31 14,31 14,31 14,31 "/>
   <polygon class="fil2" points="66,31 66,31 66,31 66,31 "/>
   <polygon class="fil3" points="27,51 27,51 27,51 27,51 "/>
   <polygon class="fil2" points="66,32 66,32 66,32 66,32 "/>
   <polygon class="fil3" points="65,32 65,32 65,32 65,32 "/>
   <polygon class="fil2" points="66,51 66,51 66,51 66,51 "/>
   <polygon class="fil2" points="65,32 65,32 65,33 65,33 "/>
   <polygon class="fil2" points="50,51 50,51 50,51 50,51 "/>
   <polygon class="fil3" points="52,33 52,33 52,33 52,33 "/>
   <polygon class="fil3" points="52,33 52,33 52,33 52,33 "/>
   <polygon class="fil2" points="66,52 66,51 66,51 66,52 "/>
   <polygon class="fil2" points="28,52 28,52 28,52 28,52 "/>
   <polygon class="fil2" points="65,33 65,33 65,33 65,33 "/>
   <polygon class="fil2" points="28,52 28,52 28,52 28,52 "/>
   <polygon class="fil3" points="51,52 51,52 51,52 51,52 "/>
   <polygon class="fil2" points="52,33 52,33 52,33 52,33 "/>
   <polygon class="fil3" points="15,33 15,33 15,33 15,33 "/>
   <polygon class="fil2" points="29,52 29,52 29,52 29,52 "/>
   <polygon class="fil3" points="15,33 15,33 15,33 15,33 "/>
   <polygon class="fil3" points="65,33 64,33 64,33 65,33 "/>
   <polygon class="fil3" points="15,34 15,33 15,33 15,34 "/>
   <polygon class="fil2" points="52,33 51,33 51,34 52,34 "/>
   <polygon class="fil3" points="15,34 15,34 15,34 15,34 "/>
   <polygon class="fil3" points="15,34 15,34 15,34 15,34 "/>
   <polygon class="fil3" points="27,34 27,34 27,34 27,34 "/>
   <polygon class="fil2" points="64,34 64,34 64,34 64,34 "/>
   <polygon class="fil2" points="30,53 30,53 30,53 30,53 "/>
   <polygon class="fil3" points="51,35 51,35 51,35 51,35 "/>
   <polygon class="fil3" points="52,53 52,53 52,53 52,53 "/>
   <polygon class="fil2" points="63,35 63,35 63,35 63,35 "/>
   <polygon class="fil2" points="52,54 52,53 52,53 52,54 "/>
   <polygon class="fil2" points="28,35 28,35 28,35 28,35 "/>
   <polygon class="fil2" points="51,34 51,34 51,34 51,34 "/>
   <polygon class="fil2" points="52,54 52,54 52,54 52,54 "/>
   <polygon class="fil2" points="63,35 63,35 63,35 63,35 "/>
   <polygon class="fil2" points="52,54 52,54 52,54 52,54 "/>
   <polygon class="fil3" points="50,35 50,35 50,36 50,36 "/>
   <polygon class="fil3" points="31,54 31,54 31,54 31,54 "/>
   <polygon class="fil2" points="53,54 53,54 53,54 53,54 "/>
   <polygon class="fil2" points="63,36 63,36 63,36 63,36 "/>
   <polygon class="fil2" points="53,54 53,54 53,54 53,54 "/>
   <polygon class="fil3" points="31,54 31,54 31,54 31,54 "/>
   <polygon class="fil2" points="50,36 50,36 50,36 50,36 "/>
   <polygon class="fil3" points="53,54 53,54 53,54 53,54 "/>
   <polygon class="fil3" points="28,36 28,36 28,36 28,36 "/>
   <polygon class="fil2" points="50,36 50,36 50,36 50,36 "/>
   <polygon class="fil2" points="62,37 62,37 62,37 62,37 "/>
   <polygon class="fil2" points="17,37 17,37 17,37 17,37 "/>
   <polygon class="fil2" points="50,37 49,37 49,37 50,37 "/>
   <polygon class="fil2" points="62,37 62,37 62,37 62,37 "/>
   <polygon class="fil2" points="17,37 17,37 17,37 17,37 "/>
   <polygon class="fil3" points="29,37 29,37 29,37 29,37 "/>
   <polygon class="fil2" points="17,38 17,38 17,38 17,38 "/>
   <polygon class="fil3" points="54,55 54,55 54,55 54,55 "/>
   <polygon class="fil2" points="49,38 49,38 49,38 49,38 "/>
   <polygon class="fil3" points="61,38 61,38 61,38 61,38 "/>
   <polygon class="fil2" points="61,38 61,38 61,38 61,38 "/>
   <polygon class="fil3" points="30,38 30,38 30,38 30,38 "/>
   <polygon class="fil2" points="48,38 48,38 48,38 48,38 "/>
   <polygon class="fil2" points="35,55 35,55 35,55 35,55 "/>
   <polygon class="fil2" points="54,28 54,28 54,28 54,28 "/>
   <polygon class="fil3" points="30,39 30,39 30,39 30,39 "/>
   <polygon class="fil3" points="61,39 60,39 60,39 61,39 "/>
   <polygon class="fil3" points="55,56 55,55 55,55 55,56 "/>
   <polygon class="fil2" points="66,55 66,55 66,56 66,56 "/>
   <polygon class="fil3" points="34,39 34,39 34,39 34,39 "/>
   <polygon class="fil2" points="66,56 66,56 66,56 66,56 "/>
   <polygon class="fil3" points="18,39 18,39 18,39 18,39 "/>
   <polygon class="fil2" points="48,39 48,39 48,39 48,39 "/>
   <polygon class="fil3" points="48,39 48,39 48,39 48,39 "/>
   <polygon class="fil2" points="60,39 60,39 60,39 60,39 "/>
   <polygon class="fil3" points="48,39 47,39 47,39 48,39 "/>
   <polygon class="fil2" points="45,39 45,39 45,39 45,39 "/>
   <polygon class="fil3" points="47,39 47,39 47,39 47,39 "/>
   <polygon class="fil2" points="43,56 43,56 43,56 43,56 "/>
   <polygon class="fil3" points="18,39 18,39 18,39 18,39 "/>
   <polygon class="fil2" points="47,39 47,39 47,39 47,39 "/>
   <polygon class="fil2" points="47,39 47,39 47,40 47,40 "/>
   <polygon class="fil2" points="33,40 33,40 33,40 33,40 "/>
   <polygon class="fil3" points="47,40 47,40 47,40 47,40 "/>
   <polygon class="fil2" points="45,40 45,40 45,40 45,40 "/>
   <polygon class="fil3" points="47,40 46,40 46,40 47,40 "/>
   <polygon class="fil3" points="61,46 61,46 61,46 61,46 "/>
   <polygon class="fil3" points="66,52 66,52 66,52 66,52 "/>
   <polygon class="fil3" points="33,55 33,54 32,54 32,55 "/>
   <polygon class="fil2" points="24,28 24,28 24,28 24,28 "/>
   <polygon class="fil2" points="27,33 27,33 27,33 27,33 "/>
   <polygon class="fil3" points="33,28 33,28 33,28 33,28 "/>
   <polygon class="fil3" points="15,33 15,33 15,33 15,33 "/>
   <polygon class="fil3" points="28,52 28,52 28,52 28,52 "/>
   <polygon class="fil2" points="67,55 67,55 67,55 67,55 "/>
   <polygon class="fil2" points="23,27 23,27 23,27 23,27 "/>
   <polygon class="fil2" points="61,38 61,38 61,38 61,38 "/>
   <polygon class="fil2" points="18,38 18,38 18,38 18,38 "/>
   <polygon class="fil2" points="65,33 65,33 65,33 65,33 "/>
   <polygon class="fil2" points="51,53 51,53 51,53 51,53 "/>
   <polygon class="fil2" points="20,42 20,42 20,42 20,42 "/>
   <polygon class="fil2" points="26,33 26,32 26,32 26,33 "/>
   <polygon class="fil2" points="26,32 26,32 26,32 26,32 "/>
   <polygon class="fil2" points="67,53 67,53 67,53 67,53 "/>
   <polygon class="fil3" points="26,31 26,31 26,31 26,31 "/>
   <polygon class="fil2" points="19,40 19,40 18,40 18,40 "/>
   <polygon class="fil2" points="50,36 50,36 50,37 50,37 "/>
   <polygon class="fil2" points="67,53 67,53 67,53 67,53 "/>
   <polygon class="fil3" points="66,31 66,31 66,31 66,31 "/>
   <polygon class="fil2" points="45,51 45,51 45,51 45,51 "/>
   <polygon class="fil2" points="63,35 63,35 63,35 63,35 "/>
   <polygon class="fil2" points="16,35 16,35 16,35 16,35 "/>
   <polygon class="fil2" points="29,37 29,36 29,36 29,37 "/>
   <polygon class="fil2" points="62,36 62,36 62,36 62,36 "/>
   <polygon class="fil2" points="26,31 26,31 25,31 25,31 "/>
   <polygon class="fil2" points="43,56 43,56 43,56 43,56 "/>
   <polygon class="fil2" points="50,51 50,51 50,51 50,51 "/>
   <polygon class="fil2" points="66,51 66,51 66,51 66,51 "/>
   <polygon class="fil3" points="53,30 53,30 53,30 53,30 "/>
   <polygon class="fil2" points="59,44 59,44 59,44 59,44 "/>
   <polygon class="fil2" points="50,36 50,36 50,36 50,36 "/>
   <polygon class="fil2" points="27,51 27,51 27,51 27,51 "/>
   <polygon class="fil3" points="16,36 16,36 16,36 16,36 "/>
   <polygon class="fil2" points="59,40 59,40 59,40 59,40 "/>
   <polygon class="fil2" points="67,29 67,29 67,29 67,29 "/>
   <polygon class="fil2" points="13,29 13,29 13,29 13,29 "/>
   <polygon class="fil3" points="64,35 64,35 64,35 64,35 "/>
   <polygon class="fil2" points="65,50 65,50 64,50 64,50 "/>
  </g>
 </g>
</svg>
