<?xml version="1.0" encoding="UTF-8"?>
<!DOCTYPE svg PUBLIC "-//W3C//DTD SVG 1.1//EN" "http://www.w3.org/Graphics/SVG/1.1/DTD/svg11.dtd">
<!-- Creator: CorelDRAW X8 -->
<svg xmlns="http://www.w3.org/2000/svg" xml:space="preserve" width="80px" height="80px" version="1.1" style="shape-rendering:geometricPrecision; text-rendering:geometricPrecision; image-rendering:optimizeQuality; fill-rule:evenodd; clip-rule:evenodd"
viewBox="0 0 80 80"
 xmlns:xlink="http://www.w3.org/1999/xlink">
 <defs>
  <style type="text/css">
   <![CDATA[
    .fil0 {fill:#FEFEFE}
    .fil1 {fill:#217BBC}
    .fil3 {fill:#96AEC9}
    .fil2 {fill:#AABED3}
    .fil4 {fill:#E7F0F5}
   ]]>
  </style>
 </defs>
 <g id="Слой_x0020_1">
  <metadata id="CorelCorpID_0Corel-Layer"/>
  <path class="fil0" d="M31 27l0 0 0 0 0 -1 0 0 0 0 0 0 0 0 0 0 0 0 0 0 0 0 0 0 0 0 0 0 0 0 0 0 0 0 1 0 0 0 0 0 0 0 0 0 0 0 0 0 0 0 0 0 0 0 0 0 0 0 0 0 0 -1 1 0 0 0 0 0 0 0 0 0 0 0 0 0 0 0 1 0 0 0 0 0 0 0 1 0 0 0 6 0 0 0 0 0 0 0 1 0 0 0 0 0 0 0 1 0 0 0 0 0 0 0 0 0 0 0 0 0 0 1 0 0 0 0 1 0 0 0 0 0 0 0 0 0 0 0 0 0 0 0 0 0 0 0 0 0 0 0 0 0 0 0 0 0 0 0 0 0 0 0 0 0 0 0 0 0 0 1 0 0 0 0 0 0 0 0 1 0 0 1 0 0 0 3 0 0 0 2 -1 0 0 5 1 0 0 0 0 0 0 1 0 0 0 0 0 0 0 0 0 0 0 0 0 0 0 0 0 0 0 1 0 0 0 0 0 0 0 0 0 0 0 0 0 0 0 0 0 0 0 0 0 0 0 0 1 0 0 0 0 0 0 0 0 0 0 0 0 0 0 0 0 0 0 0 1 0 0 0 0 0 0 0 0 0 0 0 0 0 0 0 0 0 0 0 0 0 0 0 0 0 0 -1 0 0 0 0 0 0 0 0 0 0 0 0 0 0 0 0 1 0 0 0 0 0 0 0 0 0 0 0 0 0 0 0 0 0 0 0 0 0 0 0 0 0 0 0 0 0 0 0 0 0 0 -1 0 0 0 0 0 0 0 0 0 0 0 0 0 0 0 0 1 0 0 0 0 0 0 0 0 0 0 0 0 0 0 0 0 0 0 0 0 0 0 0 0 0 0 -1 0 0 0 0 0 0 0 0 0 0 0 0 0 0 0 0 0 0 0 0 0 0 0 0 0 0 0 0 1 0 0 0 0 0 0 -1 0 0 0 0 0 0 0 0 0 0 0 0 0 0 0 0 0 0 0 0 0 0 0 0 0 0 0 0 0 0 0 0 0 0 0 -1 0 0 0 0 0 0 0 0 0 0 0 0 1 0 0 0 0 0 0 0 0 0 0 0 0 0 0 0 0 0 0 0 0 0 0 -1 0 0 0 0 0 0 0 0 0 0 0 0 0 0 0 0 0 0 0 0 0 0 0 0 0 0 0 0 0 0 0 -1 1 0 0 0 0 0 0 0 0 0 0 0 0 0 0 0 0 0 0 0 0 0 0 0 0 0 0 0 0 0 0 -1 0 0 0 0 0 0 0 0 0 0 0 0 0 0 0 0 0 0 0 0 0 0 0 0 1 0 0 -1 0 0 0 0 0 0 0 0 0 0 0 0 0 0 0 0 0 0 0 0 0 0 0 0 0 0 0 -1 0 0 0 0 0 0 0 0 0 0 0 0 0 0 0 0 0 0 0 0 0 0 0 -1 0 0 0 0 1 0 0 0 0 0 0 0 0 0 0 0 0 0 0 0 0 0 0 -1 0 0 0 0 0 0 0 0 0 0 0 0 0 0 0 0 0 0 0 0 0 0 0 -1 0 0 0 0 0 0 0 0 0 0 0 0 1 0 0 0 0 0 0 0 0 0 0 0 0 0 0 0 0 0 0 0 0 0 0 0 0 0 0 0 0 0 0 -1 0 0 0 0 9 0 0 0 2 0 0 0 0 0 0 0 0 0 0 1 1 0 0 0 0 0 0 0 0 0 0 0 0 0 0 0 0 0 0 0 0 0 0 0 0 0 0 0 0 0 0 0 0 0 0 1 0 0 0 0 0 0 0 1 0 0 0 0 0 0 0 0 0 0 0 0 0 0 0 0 0 0 0 0 0 0 0 1 0 0 0 0 0 0 0 0 0 0 0 0 -1 0 0 0 0 0 0 0 0 0 0 0 0 0 0 1 0 0 0 0 0 0 0 0 0 0 0 0 0 0 0 0 0 0 0 0 0 0 0 0 0 0 0 0 0 0 0 1 0 0 0 0 0 0 0 0 -1 0 0 0 0 0 0 0 0 0 0 0 0 0 0 0 0 0 0 0 0 0 0 1 0 0 0 0 0 0 0 0 0 0 0 0 0 0 0 0 0 0 0 0 0 0 0 0 0 0 0 0 0 0 0 0 -1 0 0 0 0 0 0 1 0 0 0 0 0 0 0 0 0 0 0 0 0 0 0 0 0 0 0 0 0 0 0 0 0 0 0 0 0 0 0 0 0 0 0 0 0 0 0 1 0 0 0 0 0 0 0 0 -1 0 0 0 0 0 0 0 0 0 0 0 0 0 0 0 0 0 0 0 0 0 0 0 0 0 0 0 0 0 0 1 0 0 0 0 0 0 0 0 0 0 0 0 0 0 0 0 0 0 0 0 0 0 0 0 -1 0 0 0 0 0 0 0 0 0 0 0 0 0 0 0 0 0 0 1 0 0 0 0 0 0 0 0 0 0 0 0 0 0 0 0 0 0 0 0 0 0 0 0 0 0 0 0 0 0 0 0 0 0 0 0 -1 0 0 1 0 0 0 0 0 0 0 0 0 0 0 0 0 0 0 0 0 0 0 0 0 0 0 0 0 0 0 0 0 0 0 0 0 0 0 0 0 0 0 0 0 0 0 1 0 0 0 0 0 0 0 0 -1 0 0 0 0 0 0 0 0 0 0 0 0 0 0 0 0 0 0 0 0 0 0 0 0 0 0 0 0 0 0 0 0 0 0 1 0 0 0 0 0 0 0 0 0 0 0 0 0 0 0 0 0 0 0 0 -1 0 0 0 0 0 0 0 0 0 0 0 0 0 0 0 0 0 0 0 0 0 0 1 0 0 0 0 0 0 0 0 0 0 0 0 0 0 0 0 0 0 0 0 0 0 0 0 0 0 0 0 0 0 0 1 -1 0 0 0 0 0 0 0 0 0 0 1 0 0 0 0 0 0 0 0 1 0 0 1 0 0 0 0 0 0 0 0 0 0 0 0 0 0 0 0 0 0 0 0 0 0 0 0 0 0 0 0 0 0 0 0 0 0 0 0 0 0 0 0 0 0 0 1 0 0 0 0 0 0 0 0 1 0 0 0 0 0 0 0 0 0 0 0 0 0 0 0 0 0 0 0 0 0 0 0 0 0 0 0 0 0 0 0 0 0 0 0 0 0 0 0 0 0 0 0 0 0 0 1 0 0 0 0 0 0 0 0 1 0 0 0 0 0 0 0 0 0 0 0 0 0 0 0 0 0 0 0 0 0 0 0 0 0 0 0 0 0 0 0 0 0 0 0 0 0 0 0 0 0 0 0 0 0 0 1 0 0 0 0 1 0 0 0 0 0 0 0 0 0 0 0 0 0 0 0 0 0 0 0 0 0 0 0 0 0 0 0 0 0 0 0 0 0 0 0 0 0 0 0 0 0 0 0 0 0 0 0 0 0 0 1 1 0 0 0 0 0 0 0 0 0 0 0 0 0 0 0 0 0 0 0 0 0 0 0 0 0 0 0 0 0 0 0 0 0 0 0 0 0 0 0 0 0 0 0 0 0 0 0 0 0 0 0 0 0 0 1 1 0 0 0 0 0 0 0 0 0 0 0 0 0 0 0 0 0 0 0 0 0 0 0 0 0 0 0 0 0 0 0 0 0 0 0 0 0 0 0 0 0 0 0 0 0 0 0 0 0 0 1 0 0 0 0 1 0 0 0 0 0 0 0 0 0 0 0 0 0 0 0 0 0 0 0 0 0 0 0 0 0 0 0 0 0 0 0 0 0 0 0 0 0 0 0 0 0 0 1 0 0 0 0 0 0 0 0 0 0 0 0 1 0 0 0 0 0 0 0 0 0 0 0 0 0 0 0 0 0 0 0 0 0 0 0 0 0 0 0 0 0 0 1 0 0 0 0 0 0 0 0 0 0 0 0 0 0 0 0 0 0 0 0 0 0 0 0 1 0 0 0 0 0 0 0 0 0 0 1 0 0 0 0 0 0 0 0 0 0 0 0 0 0 0 0 0 0 0 0 0 0 0 0 0 0 0 1 0 0 0 0 0 0 0 0 0 0 0 1 0 0 0 0 0 0 0 0 0 0 0 0 0 0 0 0 0 0 0 0 0 0 0 0 0 0 0 0 0 0 0 0 0 0 0 0 -1 0 0 1 0 0 0 0 0 0 0 0 0 0 0 0 0 0 0 0 0 0 0 0 -1 0 0 0 -2 0 0 0 -6 0 0 0 0 0 0 0 -1 0 0 0 0 0 0 0 0 0 0 0 -1 0 0 0 0 0 0 0 0 0 0 0 0 0 0 0 0 0 0 -1 0 0 0 0 -1 0 0 0 0 0 0 0 0 0 0 0 0 0 0 0 0 0 0 0 0 0 0 0 0 0 0 0 0 0 0 0 0 0 0 0 -1 0 0 0 0 0 0 0 0 0 0 0 0 0 0 -1 0 0 0 0 0 0 0 0 0 0 0 0 0 0 0 0 0 0 0 0 0 0 0 0 0 0 0 0 0 0 0 0 0 0 0 0 -1 0 0 0 0 0 0 0 0 0 0 0 0 0 0 0 0 0 0 -1 0 0 0 0 0 0 0 0 0 0 0 0 0 0 0 0 0 0 0 0 0 0 0 0 0 0 0 0 0 0 0 0 0 0 0 0 -1 0 0 0 0 0 0 0 0 0 0 0 0 0 0 -1 0 0 0 0 0 0 0 0 0 0 0 0 0 0 0 0 0 0 0 0 0 0 0 0 0 0 0 0 0 0 0 0 0 0 0 0 0 0 0 0 -1 0 0 0 0 0 0 0 0 0 0 -1 0 0 0 0 0 0 0 0 0 0 0 0 0 0 0 0 0 0 0 0 0 0 0 0 0 0 0 0 0 0 0 0 0 0 0 0 0 0 0 0 0 0 0 0 -1 0 0 -1 0 0 0 0 0 0 0 0 0 0 0 0 0 0 0 0 0 0 0 0 0 0 0 0 0 0 0 0 0 0 0 0 0 0 0 0 0 0 0 0 0 0 0 0 0 0 0 0 -1 0 0 0 0 0 0 -1 0 0 0 0 0 0 0 0 0 0 0 0 0 0 0 0 0 0 0 0 0 0 0 0 0 0 0 0 -1 0 0 0 0 0 0 0 0 0 0 0 -1 0 0 0 0 0 0 0 0 0 0 0 0 0 0 0 0 0 0 0 0 0 0 0 0 0 0 0 0 0 0 1 0 0 0 0 0 0 0 0 -1 0 0 0 0 0 0 0 0 0 0 0 0 0 0 0 0 0 0 0 0 0 0 1 0 0 0 0 0 0 0 0 0 0 0 0 0 0 0 1 0 0 0 0 0 0 0 0 0 0 0 1 0 0 0 1 -1 0 0 1 0 0 0 0 0 0 0 0 0 0 0 0 0 0 0 0 0 0 0 0 0 0 0 0 0 0 0 0 0 0 0 1 0 0 0 0 0 0 0 0 -1 0 0 0 0 0 0 0 0 0 0 0 0 0 0 0 -5 0 0 0 -1 0 0 0 0 0 0 0 0 0 0 0 -1 0 0 0 0 0 0 0 -1 0 0 -1 0 0 0 0 0 0 0 0 0 0 0 0 -1 0 0 0 0 0 0 0 0 0 0 0 0 0 0 0 0 0 0 0 -1 0 0 0 0 0 0 0 0 0 0 0 0 0 0 0 0 0 0 0 -1 0 0 -1 0 0 0 0 0 0 0 0 0 0 0 0 0 0 0 0 0 0 0 0 0 0 0 0 -1 0 0 0 0 0 0 0 0 0 0 0 0 0 0 0 0 0 0 0 0 0 0 0 0 0 0 0 -1 0 0 -1 0 0 0 0 0 0 0 0 0 0 0 0 0 0 0 0 0 0 0 0 0 0 0 0 0 0 0 0 0 0 0 0 -1 0 0 0 0 0 0 0 0 0 0 0 0 0 0 0 0 0 0 0 0 0 0 0 0 0 0 -1 0 0 0 0 0 0 0 0 0 0 0 0 -1 0 0 0 0 0 0 0 0 0 0 0 0 0 0 0 0 0 0 0 0 0 0 0 0 0 0 0 0 0 0 0 0 0 0 0 0 0 0 0 0 0 0 -1 -1 0 0 0 0 0 0 0 0 0 0 0 0 0 0 0 0 0 0 0 0 0 0 0 0 0 0 0 0 0 0 0 0 0 0 0 0 0 0 0 0 0 0 0 0 0 0 0 0 0 0 0 -1 0 0 -1 0 0 0 0 0 0 0 0 0 0 0 0 0 0 0 0 0 0 0 0 0 0 0 0 0 0 0 0 0 0 0 0 0 0 0 0 0 0 0 0 0 0 0 0 0 0 0 0 0 0 0 0 -1 0 0 -1 0 0 0 0 0 0 0 0 0 0 0 0 0 0 0 0 0 0 0 0 0 0 0 0 0 0 0 0 0 0 0 0 0 0 0 0 0 0 0 0 0 0 0 0 0 0 0 -1 0 0 0 0 -1 0 0 0 0 0 0 0 0 0 0 0 0 0 0 0 0 0 0 0 0 0 0 0 0 0 0 0 0 0 0 0 0 0 0 0 0 0 0 0 0 0 0 -1 0 0 0 0 0 0 0 0 0 0 0 0 -1 0 0 0 0 0 0 0 0 0 0 0 0 0 0 0 0 0 0 0 0 0 0 0 0 0 0 0 0 0 0 -1 0 0 0 0 0 0 0 0 0 0 0 0 0 0 0 0 0 0 0 0 0 0 0 0 -1 0 0 0 0 0 0 0 0 0 0 0 0 0 0 -1 0 0 0 0 0 0 0 0 0 0 0 0 0 0 0 0 0 0 0 0 0 0 0 0 0 0 0 0 0 0 0 0 0 0 0 0 0 0 0 -1 -1 0 0 0 0 0 0 0 0 0 0 0 0 0 0 0 0 0 0 0 0 0 0 0 0 0 0 0 0 0 0 0 0 0 0 -1 0 0 0 0 0 0 0 0 0 0 0 0 0 0 0 0 0 0 0 0 -1 0 0 0 0 0 0 0 0 0 0 0 0 0 0 -1 0 0 0 0 0 0 0 0 0 0 0 0 0 0 0 0 0 0 0 0 0 0 0 0 0 0 0 0 0 0 0 0 0 0 0 -1 0 0 0 0 -1 0 0 0 0 0 0 0 0 0 0 0 0 0 0 0 0 0 0 0 0 0 0 0 0 0 0 0 0 0 0 -1 0 0 0 0 0 0 0 0 0 0 0 0 0 0 0 0 0 0 0 0 0 0 0 0 -1 0 0 0 0 0 0 -1 0 0 0 0 0 0 0 0 0 0 0 0 0 0 0 0 0 0 0 0 0 0 0 0 0 0 0 0 0 0 0 -1 0 0 0 0 0 0 0 0 0 0 0 0 0 0 0 0 -1 0 0 0 0 0 0 0 0 0 0 0 0 0 0 -1 0 0 0 0 0 0 0 0 0 0 0 0 0 0 0 0 0 0 0 0 0 0 0 0 0 0 0 0 0 0 0 -1 0 0 0 0 0 0 0 0 -1 0 0 0 0 0 0 0 0 0 0 0 0 0 0 0 0 0 0 -1 0 0 0 0 0 0 0 0 0 0 0 0 0 0 0 0 0 0 0 0 0 0 0 0 0 0 0 -1 0 0 0 0 0 0 0 0 -1 0 0 0 0 0 0 0 0 0 0 0 0 0 0 0 0 0 0 0 0 0 0 -1 0 0 0 0 0 0 0 0 0 0 0 0 0 0 0 0 0 0 0 0 0 0 0 -1 0 0 0 0 0 0 0 0 -1 0 0 0 0 0 0 0 0 0 0 0 0 0 0 0 0 0 0 -1 0 0 0 0 0 0 0 0 0 0 0 0 0 0 0 0 0 0 0 0 0 0 0 0 0 0 0 -1 0 0 0 0 0 0 0 0 -1 0 0 0 0 0 0 0 0 0 0 0 0 0 0 -1 0 0 0 0 0 0 0 0 0 0 0 0 0 0 0 0 0 0 0 0 0 0 0 0 0 0 0 -1 0 0 0 0 0 0 0 0 0 0 0 -1 0 0 0 0 0 0 0 0 0 0 0 0 0 0 0 0 0 0 0 0 0 0 0 0 0 0 0 0 0 0 0 -1 1 0 0 0 0 0 0 0 8 0 0 0 1 0 0 0 0 0 0 1 0 0 0 0 0 0 0 0 0 0 0 0 0 0 0 0 0 0 0 0 1 0 0 0 0 0 0 0 0 0 0 0 0 0 0 0 0 0 0 0 0 0 0 0 0 0 0 0 0 0 0 1 0 0 0 0 0 0 0 0 0 0 0 0 0 0 0 0 0 0 0 0 0 0 0 1 1 0 0 0 0 0 0 0 0 0 0 0 0 0 0 0 0 0 0 0 0 0 0 1 0 0 0 0 0 0 0 0 0 0 0 0 0 0 0 0 0 0 0 0 0 0 0 0 0 0 0 1 0 0 0 0 1 0 0 0 0 0 0 0 0 0 0 0 0 0 0 0 0 0 0 0 0 0 0 1 0 0 0 0 0 0 0 0 0 0 0 0 0 0 0 0 0 0 0 0 0 0 0 0 0 0 0 1 0 0 0 0 1 0 0 0 0 0 0 0 0 0 0 0 0 0 0 0 0 0 0 0 0 0 0 1 0 0 0 0 0 0 0 0 0 0 0 0 0 0 0 0 0 0 0 0 0 0 0 0 0 0 0 0 0 0 0 1 0 0 0 0 1 0 0 0 0 0 0 0 0 0 0 0 0 0 0 0 0 0 0 0 0 0 0 0 0 0 0 0 0 0 0 1 0 0 0 0 0 0 0 0 0 0 0 0 0 0 0 0 0 0 0 0 0 0 0 0 1 0 0 0 0 0 0 0 0 0 0 1 0 0 0 0 0 0 0 0 0 0 0 0 0 0 0 0 0 0 0 0 0 0 0 0 0 0 0 0 0 0 0 0 0 0 0 1 0 0 0 0 0 0 0 0 1 0 0 0 0 0 0 0 0 0 0 0 0 0 0 0 0 0 0 0 0 0 0 0 0 0 0 0 0 0 0 0 0 0 0 1 0 0 0 0 0 0 0 0 0 0 0 0 0 0 0 0 0 0 0 0 1 0 0 0 0 0 0 0 0 0 0 0 0 0 0 0 0 0 0 0 0 0 0 0 0 0 0 1 0 0 0 0 0 0 0 0 0 0 0 0 0 0 0 0 0 0 0 0 1 0 0 0 0 0 0 0 0 0 0 0 0 0 0 0 0 0 0 0 1 0 0 0 0 0 0 0 0 0 0 0 0 0 0 0 0 0 0 0 0 0 0 0 0 0 0 0 0 0 0 0 0 0 0 -1 1 0 0 0 0 0 0 0 0 0 0 0 0 0 0 -1 0 0 0 0 0 0 0 0 0 0 0 -1 0 0 0 -1 0 0 0 -4 0 0 0 -1 0 0 0 -1 0 0 0 0 0 0 0 0 0 0 0 -1 0 0 0 0 0 0 0 0 0 0 0 0 -1 0 0 0 0 0 0 0 0 0 0 -1 0 0 0 0 0 0 0 0 0 0 0 0 0 0 0 0 0 0 0 0 0 0 0 0 0 0 0 0 0 0 0 0 0 0 0 0 -1 0 0 0 0 0 0 0 0 0 0 -1 0 0 0 0 0 0 0 0 0 0 0 0 -1 0 0 0 0 0 0 0 0 0 0 0 0 0 0 0 0 0 0 0 0 0zm-19 -27l-1 0 0 0 -1 0 0 0 0 0 0 0 0 0 0 0 -1 0 0 0 0 0 0 0 0 0 0 1 0 0 0 0 -1 0 0 0 0 0 0 0 0 0 0 0 0 0 0 0 0 0 0 0 -1 0 0 0 0 0 0 0 0 0 0 0 0 0 0 0 0 0 0 0 0 0 0 0 0 0 0 0 -1 0 0 1 0 0 0 0 0 0 0 0 0 0 0 0 0 0 0 0 0 0 0 0 0 0 0 0 0 0 0 0 -1 0 0 0 0 0 0 0 0 0 0 0 0 0 0 0 0 0 0 0 0 0 0 0 0 0 0 1 0 0 0 0 0 0 0 0 0 0 0 0 0 0 0 0 -1 0 0 0 0 0 0 0 0 0 0 0 0 0 0 0 0 0 0 0 0 0 0 0 0 0 0 0 0 0 0 0 0 0 0 0 0 0 0 1 0 0 0 0 0 0 0 0 0 0 0 0 -1 0 0 0 0 0 0 0 0 0 0 0 0 0 0 0 0 0 0 0 0 0 0 0 0 0 0 0 0 0 0 0 0 0 0 0 0 0 0 1 0 0 0 0 0 0 0 0 0 0 0 0 0 0 0 0 -1 0 0 0 0 0 0 0 0 0 0 0 0 0 0 0 0 0 0 0 0 0 0 0 0 0 0 1 0 0 0 0 0 0 0 0 0 0 0 0 0 0 0 0 0 0 0 0 0 0 0 0 0 0 0 0 -1 0 0 1 0 0 0 0 0 0 0 0 0 0 0 0 0 0 0 0 0 0 0 0 0 0 0 0 0 0 0 1 0 0 0 0 0 0 0 0 0 0 0 0 0 0 0 0 0 0 0 1 0 0 0 0 -1 0 0 0 0 0 0 0 0 0 0 1 0 0 0 0 0 0 0 0 0 0 0 1 0 0 0 1 0 0 0 56 0 0 0 1 0 0 0 1 0 0 0 0 0 0 0 0 0 0 0 1 0 0 0 0 0 0 0 0 1 0 0 0 0 0 0 1 0 0 0 0 0 0 0 0 0 0 0 0 0 0 0 0 0 0 0 1 0 0 0 0 0 0 0 0 0 0 0 0 0 0 0 0 0 0 0 0 0 0 0 0 0 0 0 1 1 0 0 0 0 0 0 0 0 0 0 0 0 0 0 0 0 0 0 0 0 0 0 0 0 0 0 0 0 0 0 1 0 0 0 0 0 0 0 0 0 0 0 0 0 0 0 0 0 0 0 0 0 0 0 0 1 0 0 0 0 0 0 0 0 0 0 0 0 0 0 0 0 0 0 1 0 0 0 0 0 0 0 0 0 0 0 0 0 0 0 0 0 0 0 0 0 0 0 0 0 0 0 0 0 0 0 0 0 0 0 0 1 0 0 0 0 0 0 0 0 0 0 0 0 0 0 1 0 0 0 0 0 0 0 0 0 0 0 0 0 0 0 0 0 0 0 0 0 0 0 0 0 0 0 0 0 0 0 0 0 0 0 0 1 0 0 0 0 0 0 0 0 0 0 0 0 0 0 0 0 0 0 1 0 0 0 0 0 0 0 0 0 0 0 0 0 0 0 0 0 0 0 0 0 0 0 0 1 0 0 0 0 0 0 0 0 0 0 0 0 0 0 0 0 0 0 0 0 0 0 0 0 0 0 0 0 0 0 1 1 0 0 0 0 0 0 0 0 0 0 0 0 0 0 0 0 0 0 0 0 0 0 0 0 0 0 0 1 0 0 0 0 0 0 0 0 0 0 0 0 0 0 0 0 0 0 0 1 0 0 0 0 0 0 1 0 0 0 0 0 0 0 0 1 0 0 0 0 0 0 0 0 0 0 0 1 0 0 0 1 0 0 0 56 0 0 0 1 0 0 0 1 0 0 0 0 0 0 0 0 0 0 0 1 0 0 0 0 0 0 0 0 0 0 -1 0 0 0 0 1 0 0 0 0 0 0 0 0 0 0 0 0 0 0 0 0 0 0 0 1 0 0 0 0 0 0 0 0 0 0 0 0 0 0 0 0 0 0 0 0 0 0 0 0 0 0 0 1 0 0 -1 0 0 0 0 0 0 0 0 0 0 0 0 0 0 0 0 0 0 0 0 0 0 0 0 0 0 0 0 1 0 0 0 0 0 0 0 0 0 0 0 0 0 0 0 0 0 0 0 0 0 0 0 0 0 0 -1 0 0 0 0 0 0 0 0 0 0 0 0 0 0 0 0 1 0 0 0 0 0 0 0 0 0 0 0 0 0 0 0 0 0 0 0 0 0 0 0 0 0 0 0 0 0 0 0 0 0 0 0 0 0 0 -1 0 0 0 0 0 0 0 0 0 0 0 0 1 0 0 0 0 0 0 0 0 0 0 0 0 0 0 0 0 0 0 0 0 0 0 0 0 0 0 0 0 0 0 0 0 0 0 0 0 0 0 -1 0 0 0 0 0 0 0 0 0 0 0 0 0 0 0 0 1 0 0 0 0 0 0 0 0 0 0 0 0 0 0 0 0 0 0 0 0 0 0 0 0 0 0 -1 0 0 0 0 0 0 0 0 0 0 0 0 0 0 0 0 0 0 0 0 0 0 0 0 0 0 0 0 1 0 0 -1 0 0 0 0 0 0 0 0 0 0 0 0 0 0 0 0 0 0 0 0 0 0 0 0 0 0 0 -1 0 0 0 0 0 0 0 0 0 0 0 0 0 0 0 0 0 0 0 -1 0 0 0 0 1 0 0 0 0 0 0 0 0 0 0 -1 0 0 0 0 0 0 0 0 0 0 0 -1 0 0 0 -1 0 0 0 -56 0 0 0 -1 0 0 0 -1 0 0 0 0 0 0 0 0 0 0 0 -1 0 0 0 0 0 0 0 0 -1 0 0 0 0 0 0 -1 0 0 0 0 0 0 0 0 0 0 0 0 0 0 0 0 0 0 0 -1 0 0 0 0 0 0 0 0 0 0 0 0 0 0 0 0 0 0 0 0 0 0 0 0 0 0 0 -1 -1 0 0 0 0 0 0 0 0 0 0 0 0 0 0 0 0 0 0 0 0 0 0 0 0 0 0 0 0 0 0 -1 0 0 0 0 0 0 0 0 0 0 0 0 0 0 0 0 0 0 0 0 0 0 0 0 -1 0 0 0 0 0 0 0 0 0 0 0 0 0 0 0 0 0 0 -1 0 0 0 0 0 0 0 0 0 0 0 0 0 0 0 0 0 0 0 0 0 0 0 0 0 0 0 0 0 0 0 0 0 0 0 0 -1 0 0 0 0 0 0 0 0 0 0 0 0 0 0 -1 0 0 0 0 0 0 0 0 0 0 0 0 0 0 0 0 0 0 0 0 0 0 0 0 0 0 0 0 0 0 0 0 0 0 0 0 -1 0 0 0 0 0 0 0 0 0 0 0 0 0 0 0 0 0 0 -1 0 0 0 0 0 0 0 0 0 0 0 0 0 0 0 0 0 0 0 0 0 0 0 0 -1 0 0 0 0 0 0 0 0 0 0 0 0 0 0 0 0 0 0 0 0 0 0 0 0 0 0 0 0 0 0 -1 -1 0 0 0 0 0 0 0 0 0 0 0 0 0 0 0 0 0 0 0 0 0 0 0 0 0 0 0 -1 0 0 0 0 0 0 0 0 0 0 0 0 0 0 0 0 0 0 0 -1 0 0 0 0 0 0 -1 0 0 0 0 0 0 0 0 -1 0 0 0 0 0 0 0 0 0 0 0 -1 0 0 0 -1 0 0 0 -56 0 0 0z"/>
  <polygon class="fil1" points="34,25 34,25 34,25 34,25 34,25 34,25 33,25 33,25 33,25 33,25 33,25 33,25 32,25 32,26 32,26 32,26 32,26 32,26 32,26 32,26 32,26 32,26 32,26 32,26 32,26 32,26 31,26 31,26 31,26 31,26 31,26 31,26 31,26 31,26 31,26 31,26 31,26 31,26 31,26 31,26 31,26 31,27 31,27 31,27 31,27 31,27 31,27 31,27 31,27 31,27 31,27 31,27 31,27 31,27 31,27 31,27 32,27 32,27 32,27 32,27 32,27 32,27 32,27 32,28 32,28 32,28 32,28 32,28 33,28 33,28 33,28 33,28 33,28 33,28 33,28 33,28 33,28 33,28 33,28 33,28 33,28 33,28 33,28 33,28 33,28 33,28 33,28 33,28 33,28 33,29 33,29 33,29 34,29 34,29 34,29 34,29 34,29 34,29 34,29 34,30 34,30 34,30 34,30 34,30 34,30 34,31 34,31 34,32 34,32 34,37 34,37 34,37 34,37 34,38 34,38 34,38 34,38 34,39 34,39 34,39 34,39 34,39 34,39 34,39 34,39 34,39 33,39 33,40 33,40 33,40 33,40 33,40 33,40 33,40 33,40 33,40 33,40 33,40 33,40 33,40 33,40 33,40 33,40 33,40 32,40 32,40 32,40 32,40 32,40 32,40 32,40 32,40 32,40 32,40 31,40 31,40 31,40 31,40 31,40 31,40 31,40 31,40 31,40 31,40 31,40 31,39 31,39 31,39 31,39 31,39 31,39 31,39 31,39 31,39 31,39 31,39 31,39 31,39 30,39 30,39 30,39 30,39 30,39 30,39 30,39 30,39 30,39 30,39 30,39 30,39 30,39 30,38 30,38 30,38 30,38 30,38 30,38 30,38 30,38 30,38 30,38 30,38 30,38 30,38 30,38 30,38 29,38 29,38 29,38 29,38 29,38 29,37 29,37 29,37 29,37 29,37 29,37 29,37 29,37 29,37 29,37 29,37 29,37 29,37 29,37 29,37 29,37 29,37 29,37 29,37 29,37 29,36 29,36 29,36 28,36 28,36 28,36 28,36 28,36 28,36 28,36 28,36 28,36 28,36 28,36 28,36 28,36 28,35 28,35 28,35 28,35 28,35 28,35 28,35 28,35 28,35 28,35 28,35 28,35 28,35 28,35 28,35 27,35 27,35 27,35 27,34 27,34 27,34 27,34 27,34 27,34 27,34 27,34 27,34 27,34 27,34 27,34 27,34 27,34 27,34 27,34 27,33 27,33 27,33 27,33 27,33 27,33 27,33 27,33 27,33 27,33 27,33 26,33 26,33 26,33 26,33 26,33 26,32 26,32 26,32 26,32 26,32 26,32 26,32 26,32 26,32 26,32 26,32 26,32 26,32 26,32 26,31 26,31 26,31 26,31 26,31 26,31 26,31 26,31 26,31 25,31 25,31 25,31 25,31 25,31 25,30 25,30 25,30 25,30 25,30 25,30 25,30 25,30 25,30 25,30 25,30 25,30 25,29 25,29 25,29 25,29 25,29 25,29 25,29 25,29 25,29 25,29 25,29 24,29 24,28 24,28 24,28 24,28 24,28 24,28 24,28 24,28 24,28 24,28 24,28 24,28 24,27 24,27 24,27 24,27 24,27 24,27 24,27 24,27 24,27 24,27 24,27 24,27 24,27 24,27 24,27 23,27 23,27 23,27 23,27 23,27 23,27 23,27 23,27 23,27 23,27 23,27 23,26 23,26 23,26 22,26 22,26 21,26 21,26 14,26 14,26 13,26 13,27 13,27 13,27 13,27 13,27 13,27 13,27 13,27 13,27 13,27 13,27 13,27 13,27 13,27 13,27 13,27 13,28 13,28 13,28 13,28 13,28 13,28 13,28 13,28 13,29 13,29 13,29 13,29 13,29 13,29 13,29 13,29 13,29 13,29 13,29 13,29 13,30 13,30 13,30 13,30 13,30 13,30 13,30 14,30 14,30 14,30 14,30 14,30 14,31 14,31 14,31 14,31 14,31 14,31 14,31 14,31 14,31 14,31 14,31 14,31 14,31 14,31 14,32 14,32 14,32 14,32 14,32 14,32 14,32 14,32 14,32 15,32 15,32 15,32 15,32 15,32 15,33 15,33 15,33 15,33 15,33 15,33 15,33 15,33 15,33 15,33 15,33 15,33 15,33 15,33 15,34 15,34 15,34 15,34 15,34 15,34 15,34 15,34 15,34 16,34 16,34 16,34 16,34 16,34 16,35 16,35 16,35 16,35 16,35 16,35 16,35 16,35 16,35 16,35 16,35 16,35 16,35 16,35 16,36 16,36 16,36 16,36 16,36 16,36 16,36 16,36 16,36 17,36 17,36 17,36 17,36 17,36 17,37 17,37 17,37 17,37 17,37 17,37 17,37 17,37 17,37 17,37 17,37 17,37 17,37 17,37 17,37 17,37 17,38 17,38 17,38 17,38 17,38 17,38 17,38 18,38 18,38 18,38 18,38 18,38 18,38 18,38 18,38 18,38 18,39 18,39 18,39 18,39 18,39 18,39 18,39 18,39 18,39 18,39 18,39 18,39 18,39 18,39 18,39 18,39 18,40 18,40 18,40 19,40 19,40 19,40 19,40 19,40 19,40 19,40 19,40 19,40 19,40 19,40 19,40 19,40 19,40 19,40 19,41 19,41 19,41 19,41 19,41 19,41 19,41 19,41 19,41 19,41 19,41 19,41 19,41 20,41 20,41 20,41 20,42 20,42 20,42 20,42 20,42 20,42 20,42 20,42 20,42 20,42 20,42 20,42 20,42 20,42 20,42 20,42 20,42 20,42 20,43 20,43 20,43 20,43 20,43 20,43 20,43 21,43 21,43 21,43 21,43 21,43 21,43 21,43 21,43 21,43 21,43 21,43 21,44 21,44 21,44 21,44 21,44 21,44 21,44 21,44 21,44 21,44 21,44 21,44 21,44 21,44 21,44 21,44 21,44 22,44 22,45 22,45 22,45 22,45 22,45 22,45 22,45 22,45 22,45 22,45 22,45 22,45 22,45 22,45 22,45 22,45 22,45 22,45 22,45 22,45 22,46 22,46 22,46 22,46 22,46 22,46 22,46 23,46 23,46 23,46 23,46 23,46 23,46 23,46 23,46 23,46 23,46 23,46 23,46 23,46 23,46 23,46 23,47 23,47 23,47 23,47 23,47 23,47 23,47 23,47 23,47 23,47 23,47 23,47 23,47 24,47 24,47 24,47 24,47 24,47 24,47 24,47 24,48 24,48 24,48 24,48 24,48 24,48 24,48 24,48 24,48 24,48 24,48 24,48 24,48 24,48 24,48 24,48 24,48 24,48 24,48 24,48 24,48 25,48 25,48 25,48 25,49 25,49 25,49 25,49 25,49 25,49 25,49 25,49 25,49 25,49 25,49 25,49 25,49 25,49 25,49 25,49 25,49 25,49 25,49 25,49 25,49 25,49 25,49 25,49 25,49 26,49 26,50 26,50 26,50 26,50 26,50 26,50 26,50 26,50 26,50 26,50 26,50 26,50 26,50 26,50 26,50 26,50 26,50 26,50 26,50 26,50 26,50 26,50 26,50 26,50 26,50 26,50 26,51 27,51 27,51 27,51 27,51 27,51 27,51 27,51 27,51 27,51 27,51 27,51 27,51 27,51 27,51 27,51 27,51 27,51 27,51 27,51 27,51 27,51 27,51 27,51 27,51 27,51 27,51 28,51 28,52 28,52 28,52 28,52 28,52 28,52 28,52 28,52 28,52 28,52 28,52 28,52 28,52 28,52 28,52 28,52 28,52 28,52 28,52 28,52 28,52 29,52 29,52 29,52 29,52 29,52 29,52 29,52 29,53 29,53 29,53 29,53 29,53 29,53 29,53 29,53 29,53 29,53 29,53 29,53 29,53 30,53 30,53 30,53 30,53 30,53 30,53 30,53 30,53 30,53 30,53 30,53 30,53 30,53 30,53 30,53 30,53 31,53 31,54 31,54 31,54 31,54 31,54 31,54 31,54 31,54 31,54 31,54 31,54 31,54 31,54 31,54 31,54 32,54 32,54 32,54 32,54 32,54 32,54 32,54 32,54 32,54 32,54 32,54 32,54 33,54 33,55 33,55 33,55 33,55 33,55 33,55 33,55 33,55 33,55 33,55 33,55 34,55 34,55 34,55 34,55 34,55 34,55 34,55 34,55 35,55 35,55 35,55 35,55 35,55 35,55 35,55 35,55 36,55 36,56 36,56 36,56 36,56 36,56 37,56 37,56 37,56 37,56 38,56 38,56 38,56 38,56 43,56 43,56 43,56 43,56 43,56 43,56 43,56 43,56 44,56 44,56 44,56 44,56 44,56 44,55 44,55 44,55 44,55 44,55 44,55 44,55 44,55 44,55 44,55 44,55 44,55 44,55 44,55 44,55 44,55 44,54 45,54 45,53 45,53 45,52 45,52 45,52 45,52 45,51 45,51 45,51 45,51 45,51 45,51 45,51 45,51 45,51 45,51 45,50 45,50 45,50 45,50 45,50 45,50 45,50 45,50 45,50 45,50 45,50 46,50 46,50 46,50 46,49 46,49 46,49 46,49 46,49 46,49 46,49 46,49 46,49 46,49 46,49 46,49 46,49 46,49 46,49 46,49 46,49 47,49 47,49 47,49 47,49 47,49 47,49 48,49 48,49 48,49 48,49 48,49 48,49 48,49 48,49 48,49 48,49 48,49 48,49 48,49 48,49 48,49 48,50 48,50 48,50 49,50 49,50 49,50 49,50 49,50 49,50 49,50 49,50 49,50 49,50 49,50 49,50 49,50 49,50 49,50 49,50 49,50 49,50 49,50 49,50 49,50 49,50 49,50 49,50 49,50 49,51 50,51 50,51 50,51 50,51 50,51 50,51 50,51 50,51 50,51 50,51 50,51 50,51 50,51 50,51 50,51 50,51 50,51 50,51 50,51 50,51 50,51 50,51 50,51 50,51 50,51 50,52 50,52 50,52 51,52 51,52 51,52 51,52 51,52 51,52 51,52 51,52 51,52 51,52 51,52 51,52 51,52 51,52 51,52 51,52 51,52 51,52 51,52 51,52 51,52 51,53 51,53 51,53 51,53 51,53 51,53 51,53 52,53 52,53 52,53 52,53 52,53 52,53 52,53 52,53 52,53 52,53 52,53 52,53 52,53 52,53 52,53 52,53 52,53 52,53 52,53 52,53 52,53 52,54 52,54 52,54 52,54 52,54 52,54 52,54 53,54 53,54 53,54 53,54 53,54 53,54 53,54 53,54 53,54 53,54 53,54 53,54 53,54 53,54 53,54 53,54 53,54 53,54 53,54 53,54 53,54 53,55 53,55 53,55 53,55 53,55 53,55 53,55 54,55 54,55 54,55 54,55 54,55 54,55 54,55 54,55 54,55 54,55 54,55 54,55 54,55 54,55 54,55 54,55 54,55 54,55 55,55 55,55 55,55 55,56 55,56 55,56 55,56 55,56 55,56 55,56 55,56 55,56 56,56 56,56 56,56 56,56 56,56 56,56 57,56 57,56 57,56 57,56 60,56 60,56 65,56 65,56 65,56 65,56 66,56 66,56 66,56 66,56 66,56 66,56 66,56 66,56 66,56 66,55 67,55 67,55 67,55 67,55 67,55 67,55 67,55 67,55 67,55 67,55 67,55 67,55 67,55 67,55 67,55 67,55 67,55 67,55 67,55 67,54 67,54 67,54 67,54 67,54 67,54 67,53 67,53 67,53 67,53 67,53 67,53 67,53 67,53 67,53 67,53 67,53 67,53 67,53 67,53 67,52 67,52 67,52 67,52 67,52 66,52 66,52 66,52 66,52 66,52 66,52 66,52 66,52 66,52 66,52 66,52 66,52 66,52 66,52 66,52 66,51 66,51 66,51 66,51 66,51 66,51 66,51 66,51 66,51 66,51 66,51 66,51 66,51 65,51 65,51 65,51 65,51 65,51 65,51 65,51 65,50 65,50 65,50 65,50 65,50 65,50 65,50 65,50 65,50 65,50 65,50 65,50 65,50 65,50 65,50 65,50 65,50 65,50 65,50 65,50 65,50 64,50 64,50 64,50 64,49 64,49 64,49 64,49 64,49 64,49 64,49 64,49 64,49 64,49 64,49 64,49 64,49 64,49 64,49 64,49 64,49 64,49 64,49 64,49 64,49 64,49 64,49 64,49 64,49 63,49 63,48 63,48 63,48 63,48 63,48 63,48 63,48 63,48 63,48 63,48 63,48 63,48 63,48 63,48 63,48 63,48 63,48 63,48 63,48 63,48 63,48 63,48 63,48 63,48 63,48 63,48 63,48 62,48 62,47 62,47 62,47 62,47 62,47 62,47 62,47 62,47 62,47 62,47 62,47 62,47 62,47 62,47 62,47 62,47 62,47 62,47 62,47 62,47 62,47 62,47 62,47 62,47 62,47 61,47 61,47 61,47 61,46 61,46 61,46 61,46 61,46 61,46 61,46 61,46 61,46 61,46 61,46 61,46 61,46 61,46 61,46 61,46 61,46 61,46 61,46 61,46 61,46 61,46 61,46 60,46 60,46 60,46 60,46 60,46 60,45 60,45 60,45 60,45 60,45 60,45 60,45 60,45 60,45 60,45 60,45 60,45 60,45 60,45 60,45 60,45 60,45 60,45 60,45 60,45 60,45 60,45 60,45 59,45 59,45 59,45 59,45 59,45 59,44 59,44 59,44 59,44 59,44 59,44 59,44 59,44 59,44 59,44 59,44 59,44 59,44 59,44 59,44 59,44 59,44 59,44 59,44 59,44 59,44 59,44 59,43 58,43 58,43 58,43 58,43 58,43 58,43 58,43 58,42 58,42 58,42 58,42 58,42 58,42 58,42 59,42 59,41 59,41 59,41 59,41 59,41 59,41 59,41 59,41 59,41 59,41 59,41 59,41 59,41 59,41 59,41 59,41 59,40 59,40 59,40 59,40 59,40 59,40 59,40 59,40 59,40 59,40 59,40 60,40 60,40 60,40 60,40 60,40 60,40 60,40 60,40 60,40 60,40 60,40 60,39 60,39 60,39 60,39 60,39 60,39 60,39 60,39 60,39 60,39 60,39 60,39 60,39 60,39 60,39 60,39 60,39 61,39 61,39 61,39 61,39 61,39 61,38 61,38 61,38 61,38 61,38 61,38 61,38 61,38 61,38 61,38 61,38 61,38 61,38 61,38 61,38 61,38 61,38 61,38 61,38 61,38 61,37 61,37 61,37 62,37 62,37 62,37 62,37 62,37 62,37 62,37 62,37 62,37 62,37 62,37 62,37 62,37 62,37 62,37 62,37 62,37 62,37 62,37 62,36 62,36 62,36 62,36 62,36 62,36 62,36 62,36 62,36 63,36 63,36 63,36 63,36 63,36 63,36 63,36 63,36 63,36 63,36 63,36 63,36 63,36 63,35 63,35 63,35 63,35 63,35 63,35 63,35 63,35 63,35 63,35 63,35 63,35 63,35 63,35 63,35 64,35 64,35 64,35 64,35 64,35 64,34 64,34 64,34 64,34 64,34 64,34 64,34 64,34 64,34 64,34 64,34 64,34 64,34 64,34 64,34 64,34 64,34 64,34 64,34 64,34 64,33 64,33 64,33 65,33 65,33 65,33 65,33 65,33 65,33 65,33 65,33 65,33 65,33 65,33 65,33 65,33 65,33 65,33 65,32 65,32 65,32 65,32 65,32 65,32 65,32 65,32 65,32 65,32 65,32 65,32 65,32 66,32 66,32 66,32 66,32 66,32 66,31 66,31 66,31 66,31 66,31 66,31 66,31 66,31 66,31 66,31 66,31 66,31 66,31 66,31 66,31 66,31 66,30 66,30 66,30 66,30 66,30 66,30 66,30 67,30 67,30 67,30 67,30 67,30 67,30 67,30 67,29 67,29 67,29 67,29 67,29 67,29 67,29 67,29 67,29 67,29 67,28 67,28 67,28 67,28 67,27 67,27 67,27 67,27 67,27 67,27 67,27 67,27 67,27 67,27 67,27 67,27 67,27 67,27 67,27 67,27 67,27 66,27 66,26 66,26 66,26 55,26 55,26 55,26 55,27 55,27 55,27 55,27 55,27 55,27 55,27 55,27 55,27 55,27 55,27 55,27 55,27 55,27 55,27 54,27 54,27 54,27 54,27 54,27 54,27 54,27 54,28 54,28 54,28 54,28 54,28 54,28 54,28 54,28 54,28 54,28 54,28 54,28 54,29 54,29 54,29 54,29 54,29 54,29 54,29 54,29 54,29 53,29 53,29 53,29 53,30 53,30 53,30 53,30 53,30 53,30 53,30 53,30 53,30 53,30 53,30 53,30 53,31 53,31 53,31 53,31 53,31 53,31 53,31 53,31 53,31 53,31 53,31 53,31 53,31 53,31 53,32 52,32 52,32 52,32 52,32 52,32 52,32 52,32 52,32 52,32 52,32 52,32 52,32 52,32 52,33 52,33 52,33 52,33 52,33 52,33 52,33 52,33 52,33 52,33 52,33 52,33 52,33 52,33 52,34 51,34 51,34 51,34 51,34 51,34 51,34 51,34 51,34 51,34 51,34 51,34 51,34 51,34 51,34 51,34 51,34 51,34 51,35 51,35 51,35 51,35 51,35 51,35 51,35 51,35 51,35 51,35 51,35 50,35 50,35 50,35 50,35 50,35 50,36 50,36 50,36 50,36 50,36 50,36 50,36 50,36 50,36 50,36 50,36 50,36 50,36 50,36 50,36 50,36 50,36 50,36 50,37 50,37 50,37 50,37 50,37 49,37 49,37 49,37 49,37 49,37 49,37 49,37 49,37 49,37 49,37 49,37 49,37 49,37 49,37 49,37 49,38 49,38 49,38 49,38 49,38 49,38 49,38 49,38 49,38 49,38 49,38 49,38 49,38 48,38 48,38 48,38 48,38 48,38 48,38 48,38 48,38 48,38 48,39 48,39 48,39 48,39 48,39 48,39 48,39 48,39 48,39 48,39 48,39 48,39 48,39 48,39 48,39 48,39 48,39 48,39 48,39 47,39 47,39 47,39 47,39 47,39 47,39 47,39 47,40 47,40 47,40 47,40 47,40 47,40 47,40 47,40 47,40 47,40 47,40 47,40 47,40 47,40 47,40 46,40 46,40 46,40 46,40 46,40 46,40 46,40 46,40 45,40 45,40 45,40 45,40 45,40 45,40 45,40 45,40 45,40 45,40 45,40 45,40 45,40 45,39 45,39 45,39 45,39 45,39 45,39 45,39 45,39 45,39 45,39 45,38 45,38 45,38 44,38 44,33 45,33 45,30 45,30 45,28 45,28 45,27 44,27 44,27 44,27 44,27 44,27 44,27 44,27 44,26 44,26 44,26 44,26 44,26 44,26 44,26 44,26 44,26 44,26 44,26 44,26 44,26 44,26 44,26 44,26 44,26 43,26 43,26 43,26 43,26 43,26 43,25 43,25 43,25 43,25 43,25 43,25 43,25 42,25 42,25 42,25 42,25 41,25 41,25 40,25 40,25 35,25 35,25 "/>
  <polygon class="fil2" points="21,26 14,26 14,26 21,26 "/>
  <polygon class="fil2" points="63,56 60,56 60,56 63,56 "/>
  <polygon class="fil2" points="66,26 66,26 64,26 64,26 "/>
  <polygon class="fil2" points="41,25 41,25 40,25 40,25 "/>
  <polygon class="fil2" points="45,30 45,30 45,31 45,31 "/>
  <polygon class="fil2" points="67,27 67,28 67,28 67,27 "/>
  <polygon class="fil2" points="58,43 58,42 58,42 58,43 "/>
  <polygon class="fil3" points="34,36 34,36 34,37 34,37 "/>
  <polygon class="fil2" points="45,38 45,38 44,38 44,38 "/>
  <polygon class="fil2" points="38,56 38,56 38,56 38,56 "/>
  <polygon class="fil2" points="41,25 41,25 41,25 41,25 "/>
  <polygon class="fil3" points="45,53 45,53 45,53 45,53 "/>
  <polygon class="fil2" points="37,56 37,56 37,56 37,56 "/>
  <polygon class="fil3" points="34,38 34,38 34,38 34,38 "/>
  <polygon class="fil3" points="36,56 36,56 36,56 36,56 "/>
  <polygon class="fil3" points="34,25 33,25 33,25 34,25 "/>
  <polygon class="fil2" points="36,56 36,55 35,55 35,56 "/>
  <polygon class="fil2" points="67,28 67,28 67,28 67,28 "/>
  <polygon class="fil2" points="13,28 13,28 13,28 13,28 "/>
  <polygon class="fil2" points="45,52 45,52 45,52 45,52 "/>
  <polygon class="fil2" points="45,27 45,27 44,27 44,27 "/>
  <polygon class="fil2" points="66,26 66,26 66,26 66,26 "/>
  <polygon class="fil2" points="43,56 43,56 43,56 43,56 "/>
  <polygon class="fil3" points="34,25 34,25 34,25 34,25 "/>
  <polygon class="fil3" points="45,38 45,38 45,38 45,38 "/>
  <polygon class="fil2" points="45,51 45,51 45,52 45,52 "/>
  <polygon class="fil3" points="31,27 31,27 31,27 31,27 "/>
  <polygon class="fil2" points="34,30 34,30 34,30 34,30 "/>
  <polygon class="fil2" points="31,27 31,27 31,27 31,27 "/>
  <polygon class="fil2" points="66,27 66,26 66,26 66,27 "/>
  <polygon class="fil2" points="33,25 33,25 33,25 33,25 "/>
  <polygon class="fil2" points="34,37 34,37 34,37 34,37 "/>
  <polygon class="fil2" points="47,49 47,49 47,49 47,49 "/>
  <polygon class="fil2" points="44,55 44,55 44,55 44,55 "/>
  <polygon class="fil2" points="35,55 35,55 34,55 34,55 "/>
  <polygon class="fil2" points="38,56 38,56 37,56 37,56 "/>
  <polygon class="fil2" points="66,56 65,56 65,56 66,56 "/>
  <polygon class="fil2" points="34,38 34,38 34,39 34,39 "/>
  <polygon class="fil2" points="44,27 44,27 44,27 44,27 "/>
  <polygon class="fil2" points="34,30 34,30 34,30 34,30 "/>
  <polygon class="fil3" points="45,51 45,51 45,51 45,51 "/>
  <polygon class="fil2" points="45,51 45,51 45,51 45,51 "/>
  <polygon class="fil2" points="13,27 13,27 13,27 13,27 "/>
  <polygon class="fil2" points="67,54 67,54 67,54 67,54 "/>
  <polygon class="fil2" points="33,40 33,40 33,40 33,40 "/>
  <polygon class="fil2" points="42,25 42,25 42,25 42,25 "/>
  <polygon class="fil2" points="42,25 42,25 42,25 42,25 "/>
  <polygon class="fil2" points="45,39 45,39 45,39 45,39 "/>
  <polygon class="fil3" points="14,26 14,26 14,26 14,26 "/>
  <polygon class="fil2" points="34,25 34,25 34,25 34,25 "/>
  <polygon class="fil2" points="56,56 56,56 56,56 56,56 "/>
  <polygon class="fil2" points="32,27 32,27 32,27 32,27 "/>
  <polygon class="fil2" points="47,49 47,49 47,49 47,49 "/>
  <polygon class="fil2" points="34,30 34,30 34,30 34,30 "/>
  <polygon class="fil2" points="22,26 22,26 22,26 22,26 "/>
  <polygon class="fil2" points="33,25 33,25 33,25 33,25 "/>
  <polygon class="fil3" points="58,42 58,42 58,42 58,42 "/>
  <polygon class="fil2" points="35,55 35,55 35,55 35,55 "/>
  <polygon class="fil2" points="36,56 36,56 36,56 36,56 "/>
  <polygon class="fil3" points="66,56 66,56 66,56 66,56 "/>
  <polygon class="fil2" points="58,43 58,43 58,43 58,43 "/>
  <polygon class="fil2" points="56,56 56,56 56,56 56,56 "/>
  <polygon class="fil2" points="52,54 52,54 52,54 52,54 "/>
  <polygon class="fil3" points="32,28 32,28 32,28 32,28 "/>
  <polygon class="fil3" points="24,28 24,28 24,28 24,28 "/>
  <polygon class="fil2" points="33,28 33,28 33,28 33,28 "/>
  <polygon class="fil3" points="15,34 15,34 15,34 15,34 "/>
  <polygon class="fil3" points="19,41 19,41 19,41 19,41 "/>
  <polygon class="fil2" points="24,28 24,28 24,28 24,28 "/>
  <polygon class="fil2" points="13,28 13,28 13,28 13,28 "/>
  <polygon class="fil2" points="30,39 30,39 30,39 30,39 "/>
  <polygon class="fil2" points="54,28 54,28 54,28 54,28 "/>
  <polygon class="fil2" points="19,40 19,40 19,40 19,40 "/>
  <polygon class="fil2" points="13,29 13,28 13,28 13,29 "/>
  <polygon class="fil2" points="33,29 33,28 33,28 33,29 "/>
  <polygon class="fil2" points="67,28 67,28 67,29 67,29 "/>
  <polygon class="fil3" points="25,29 25,29 24,29 24,29 "/>
  <polygon class="fil2" points="27,34 27,34 27,34 27,34 "/>
  <polygon class="fil2" points="51,34 51,34 51,34 51,34 "/>
  <polygon class="fil2" points="64,34 64,34 64,34 64,34 "/>
  <polygon class="fil3" points="54,29 54,29 54,29 54,29 "/>
  <polygon class="fil2" points="29,38 29,38 29,38 29,38 "/>
  <polygon class="fil2" points="34,29 34,29 34,29 34,29 "/>
  <polygon class="fil2" points="67,29 67,29 67,29 67,29 "/>
  <polygon class="fil3" points="13,29 13,29 13,29 13,29 "/>
  <polygon class="fil3" points="51,34 51,34 51,34 51,34 "/>
  <polygon class="fil2" points="13,29 13,29 13,29 13,29 "/>
  <polygon class="fil3" points="34,29 34,29 34,29 34,29 "/>
  <polygon class="fil2" points="54,29 54,29 54,29 54,29 "/>
  <polygon class="fil3" points="67,29 67,29 67,29 67,29 "/>
  <polygon class="fil2" points="27,34 27,34 27,34 27,34 "/>
  <polygon class="fil2" points="30,39 30,38 30,38 30,39 "/>
  <polygon class="fil2" points="25,30 25,30 25,30 25,30 "/>
  <polygon class="fil3" points="67,30 67,30 67,30 67,30 "/>
  <polygon class="fil2" points="18,39 18,39 18,39 18,39 "/>
  <polygon class="fil2" points="53,30 53,30 53,30 53,30 "/>
  <polygon class="fil3" points="47,39 47,39 47,39 47,39 "/>
  <polygon class="fil2" points="28,35 28,35 27,35 27,35 "/>
  <polygon class="fil2" points="51,35 51,35 51,35 51,35 "/>
  <polygon class="fil3" points="46,40 46,40 46,40 46,40 "/>
  <polygon class="fil2" points="17,37 17,37 17,37 17,37 "/>
  <polygon class="fil2" points="14,30 14,30 13,30 13,30 "/>
  <polygon class="fil2" points="67,30 66,30 66,30 67,30 "/>
  <polygon class="fil3" points="51,35 51,35 51,35 51,35 "/>
  <polygon class="fil3" points="49,37 49,37 49,37 49,37 "/>
  <polygon class="fil2" points="25,31 25,30 25,30 25,31 "/>
  <polygon class="fil2" points="50,35 50,35 50,35 50,35 "/>
  <polygon class="fil2" points="25,31 25,31 25,31 25,31 "/>
  <polygon class="fil2" points="53,31 53,31 53,31 53,31 "/>
  <polygon class="fil2" points="33,40 33,40 33,40 33,40 "/>
  <polygon class="fil3" points="14,31 14,31 14,31 14,31 "/>
  <polygon class="fil2" points="28,35 28,35 28,35 28,35 "/>
  <polygon class="fil2" points="66,31 66,31 66,31 66,31 "/>
  <polygon class="fil2" points="26,31 26,31 26,31 26,31 "/>
  <polygon class="fil3" points="19,40 19,40 19,40 19,40 "/>
  <polygon class="fil3" points="34,39 34,39 34,39 34,39 "/>
  <polygon class="fil2" points="18,39 18,39 18,39 18,39 "/>
  <polygon class="fil2" points="47,40 47,40 47,40 47,40 "/>
  <polygon class="fil2" points="26,31 26,31 26,31 26,31 "/>
  <polygon class="fil2" points="43,25 43,25 43,25 43,25 "/>
  <polygon class="fil2" points="60,40 60,40 60,40 60,40 "/>
  <polygon class="fil2" points="14,31 14,31 14,31 14,31 "/>
  <polygon class="fil3" points="26,31 26,31 26,31 26,31 "/>
  <polygon class="fil2" points="16,36 16,36 16,36 16,36 "/>
  <polygon class="fil3" points="26,32 26,31 26,31 26,32 "/>
  <polygon class="fil3" points="28,36 28,36 28,36 28,36 "/>
  <polygon class="fil3" points="26,32 26,32 26,32 26,32 "/>
  <polygon class="fil3" points="26,32 26,32 26,32 26,32 "/>
  <polygon class="fil2" points="45,40 45,40 45,40 45,40 "/>
  <polygon class="fil2" points="26,32 26,32 26,32 26,32 "/>
  <polygon class="fil2" points="16,36 16,36 16,36 16,36 "/>
  <polygon class="fil2" points="26,32 26,32 26,32 26,32 "/>
  <polygon class="fil3" points="31,40 31,40 31,40 31,40 "/>
  <polygon class="fil2" points="28,36 28,36 28,36 28,36 "/>
  <polygon class="fil2" points="31,39 31,39 30,39 30,39 "/>
  <polygon class="fil2" points="48,39 48,39 48,39 48,39 "/>
  <polygon class="fil3" points="31,40 31,40 31,40 31,40 "/>
  <polygon class="fil2" points="20,41 20,41 20,41 20,41 "/>
  <polygon class="fil3" points="33,25 33,25 33,25 33,25 "/>
  <polygon class="fil2" points="20,43 20,43 20,43 20,43 "/>
  <polygon class="fil2" points="43,25 43,25 43,25 43,25 "/>
  <polygon class="fil2" points="20,43 20,43 20,43 20,43 "/>
  <polygon class="fil3" points="15,33 15,33 15,33 15,33 "/>
  <polygon class="fil3" points="21,44 21,44 21,44 21,44 "/>
  <polygon class="fil2" points="59,44 59,44 59,44 59,44 "/>
  <polygon class="fil3" points="21,44 21,44 21,44 21,44 "/>
  <polygon class="fil3" points="21,44 21,44 21,44 21,44 "/>
  <polygon class="fil2" points="22,45 22,45 22,45 22,45 "/>
  <polygon class="fil2" points="22,45 22,45 22,45 22,45 "/>
  <polygon class="fil2" points="23,46 23,46 23,46 23,46 "/>
  <polygon class="fil2" points="61,46 61,46 61,46 61,46 "/>
  <polygon class="fil2" points="61,46 61,46 61,46 61,46 "/>
  <polygon class="fil2" points="23,46 23,46 23,46 23,46 "/>
  <polygon class="fil2" points="23,47 23,47 23,47 23,47 "/>
  <polygon class="fil3" points="23,47 23,47 23,47 23,47 "/>
  <polygon class="fil2" points="62,47 62,47 62,47 62,47 "/>
  <polygon class="fil2" points="24,47 24,47 24,47 24,47 "/>
  <polygon class="fil2" points="24,48 24,48 24,48 24,48 "/>
  <polygon class="fil2" points="24,48 24,48 24,48 24,48 "/>
  <polygon class="fil2" points="25,49 25,49 25,49 25,49 "/>
  <polygon class="fil2" points="32,26 32,26 32,26 32,26 "/>
  <polygon class="fil2" points="43,26 43,26 43,26 43,26 "/>
  <polygon class="fil3" points="64,49 64,49 64,49 64,49 "/>
  <polygon class="fil2" points="47,49 47,49 47,49 47,49 "/>
  <polygon class="fil2" points="46,49 46,49 46,49 46,49 "/>
  <polygon class="fil3" points="25,49 25,49 25,49 25,49 "/>
  <polygon class="fil2" points="64,50 64,50 64,50 64,50 "/>
  <polygon class="fil2" points="52,33 52,33 52,33 52,33 "/>
  <polygon class="fil2" points="49,50 49,50 49,50 49,50 "/>
  <polygon class="fil3" points="65,50 65,50 65,50 65,50 "/>
  <polygon class="fil2" points="49,50 49,50 49,50 49,50 "/>
  <polygon class="fil3" points="65,50 65,50 65,50 65,50 "/>
  <polygon class="fil2" points="32,26 32,26 32,26 32,26 "/>
  <polygon class="fil2" points="50,51 50,51 50,51 50,51 "/>
  <polygon class="fil3" points="27,51 27,51 27,51 27,51 "/>
  <polygon class="fil2" points="50,51 50,51 50,51 50,51 "/>
  <polygon class="fil2" points="45,39 45,39 45,39 45,39 "/>
  <polygon class="fil2" points="28,36 28,36 28,36 28,36 "/>
  <polygon class="fil3" points="27,51 27,51 27,51 27,51 "/>
  <polygon class="fil3" points="49,38 48,38 48,38 49,38 "/>
  <polygon class="fil2" points="50,52 50,51 50,51 50,52 "/>
  <polygon class="fil2" points="23,26 23,26 23,26 23,26 "/>
  <polygon class="fil2" points="51,52 51,52 51,52 51,52 "/>
  <polygon class="fil2" points="67,52 67,52 67,52 67,52 "/>
  <polygon class="fil2" points="29,53 29,53 29,53 29,53 "/>
  <polygon class="fil3" points="51,53 51,53 51,53 51,53 "/>
  <polygon class="fil2" points="29,53 29,53 29,53 29,53 "/>
  <polygon class="fil2" points="51,53 51,53 51,53 51,53 "/>
  <polygon class="fil3" points="67,53 67,53 67,53 67,53 "/>
  <polygon class="fil2" points="30,53 30,53 30,53 30,53 "/>
  <polygon class="fil2" points="23,27 23,26 23,26 23,27 "/>
  <polygon class="fil3" points="30,53 30,53 30,53 30,53 "/>
  <polygon class="fil3" points="67,53 67,53 67,53 67,53 "/>
  <polygon class="fil2" points="31,54 31,53 30,53 30,54 "/>
  <polygon class="fil2" points="31,54 31,54 31,54 31,54 "/>
  <polygon class="fil3" points="44,27 44,26 44,26 44,27 "/>
  <polygon class="fil3" points="53,54 53,54 52,54 52,54 "/>
  <polygon class="fil3" points="31,54 31,54 31,54 31,54 "/>
  <polygon class="fil3" points="53,54 53,54 53,54 53,54 "/>
  <polygon class="fil3" points="32,54 32,54 32,54 32,54 "/>
  <polygon class="fil2" points="32,54 32,54 32,54 32,54 "/>
  <polygon class="fil3" points="45,50 45,50 45,50 45,50 "/>
  <polygon class="fil2" points="33,55 33,55 33,55 33,55 "/>
  <polygon class="fil2" points="55,26 55,26 55,27 55,27 "/>
  <polygon class="fil2" points="67,55 67,55 67,55 67,55 "/>
  <polygon class="fil2" points="33,55 33,55 33,55 33,55 "/>
  <polygon class="fil3" points="34,55 34,55 34,55 34,55 "/>
  <polygon class="fil2" points="44,55 44,55 44,55 44,55 "/>
  <polygon class="fil3" points="34,55 34,55 34,55 34,55 "/>
  <polygon class="fil3" points="27,33 27,33 27,33 27,33 "/>
  <polygon class="fil2" points="54,55 54,55 54,55 54,55 "/>
  <polygon class="fil2" points="35,55 35,55 35,55 35,55 "/>
  <polygon class="fil2" points="65,33 65,33 65,33 65,33 "/>
  <polygon class="fil3" points="55,55 55,55 55,55 55,55 "/>
  <polygon class="fil2" points="31,27 31,27 31,27 31,27 "/>
  <polygon class="fil2" points="44,55 44,55 44,56 44,56 "/>
  <polygon class="fil2" points="55,27 55,27 55,27 55,27 "/>
  <polygon class="fil3" points="15,33 15,33 15,33 15,33 "/>
  <polygon class="fil2" points="66,56 66,56 66,56 66,56 "/>
  <polygon class="fil2" points="55,56 55,56 55,56 55,56 "/>
  <polygon class="fil3" points="19,41 19,41 19,41 19,41 "/>
  <polygon class="fil2" points="60,39 60,39 60,39 60,39 "/>
  <polygon class="fil3" points="67,27 67,27 67,27 67,27 "/>
  <polygon class="fil2" points="55,27 55,27 55,27 55,27 "/>
  <polygon class="fil3" points="31,27 31,27 31,27 31,27 "/>
  <polygon class="fil2" points="61,37 61,37 61,38 61,38 "/>
  <polygon class="fil2" points="45,39 45,39 45,39 45,39 "/>
  <polygon class="fil2" points="32,27 32,27 32,27 32,27 "/>
  <polygon class="fil2" points="56,56 56,56 56,56 56,56 "/>
  <polygon class="fil3" points="32,28 32,27 32,27 32,28 "/>
  <polygon class="fil3" points="53,55 53,55 53,55 53,55 "/>
  <polygon class="fil2" points="19,40 19,40 19,40 19,40 "/>
  <polygon class="fil3" points="32,40 32,40 32,40 32,40 "/>
  <polygon class="fil3" points="33,40 33,40 33,40 33,40 "/>
  <polygon class="fil3" points="59,40 59,40 59,40 59,40 "/>
  <polygon class="fil3" points="19,41 19,40 19,40 19,41 "/>
  <polygon class="fil2" points="59,41 59,41 59,41 59,41 "/>
  <polygon class="fil2" points="43,26 43,25 43,25 43,26 "/>
  <polygon class="fil2" points="20,42 20,42 20,42 20,42 "/>
  <polygon class="fil2" points="58,42 58,42 58,42 58,42 "/>
  <polygon class="fil2" points="44,26 44,26 43,26 43,26 "/>
  <polygon class="fil3" points="20,42 20,42 20,42 20,42 "/>
  <polygon class="fil2" points="44,26 44,26 44,26 44,26 "/>
  <polygon class="fil3" points="32,26 32,26 32,26 32,26 "/>
  <polygon class="fil2" points="44,26 44,26 44,26 44,26 "/>
  <polygon class="fil3" points="44,26 44,26 44,26 44,26 "/>
  <polygon class="fil3" points="21,43 21,43 21,43 21,43 "/>
  <polygon class="fil2" points="13,27 13,27 13,27 13,27 "/>
  <polygon class="fil3" points="55,27 55,27 55,27 55,27 "/>
  <polygon class="fil2" points="13,27 13,27 13,27 13,27 "/>
  <polygon class="fil2" points="59,44 59,44 59,44 59,44 "/>
  <polygon class="fil3" points="21,44 21,44 21,44 21,44 "/>
  <polygon class="fil2" points="55,27 55,27 55,27 55,27 "/>
  <polygon class="fil2" points="54,27 54,27 54,27 54,27 "/>
  <polygon class="fil2" points="22,45 22,45 22,45 22,45 "/>
  <polygon class="fil3" points="32,27 32,27 32,27 32,27 "/>
  <polygon class="fil2" points="22,45 22,45 22,45 22,45 "/>
  <polygon class="fil3" points="22,46 22,46 22,46 22,46 "/>
  <polygon class="fil3" points="24,27 24,27 24,27 24,27 "/>
  <polygon class="fil2" points="24,28 24,28 24,28 24,28 "/>
  <polygon class="fil2" points="54,28 54,28 54,28 54,28 "/>
  <polygon class="fil2" points="33,28 33,28 33,28 33,28 "/>
  <polygon class="fil2" points="23,47 23,46 23,46 23,47 "/>
  <polygon class="fil2" points="13,29 13,29 13,29 13,29 "/>
  <polygon class="fil3" points="62,47 62,47 62,47 62,47 "/>
  <polygon class="fil3" points="62,47 62,47 62,47 62,47 "/>
  <polygon class="fil3" points="33,29 33,29 33,29 33,29 "/>
  <polygon class="fil2" points="54,29 54,29 54,29 54,29 "/>
  <polygon class="fil2" points="24,47 24,47 23,47 23,47 "/>
  <polygon class="fil2" points="62,47 62,47 62,47 62,47 "/>
  <polygon class="fil2" points="62,47 62,47 62,47 62,47 "/>
  <polygon class="fil3" points="34,29 34,29 33,29 33,29 "/>
  <polygon class="fil2" points="24,48 24,48 24,48 24,48 "/>
  <polygon class="fil2" points="25,29 25,29 25,29 25,29 "/>
  <polygon class="fil2" points="25,29 25,29 25,29 25,29 "/>
  <polygon class="fil3" points="54,29 53,29 53,29 54,29 "/>
  <polygon class="fil2" points="64,49 64,49 64,49 64,49 "/>
  <polygon class="fil3" points="64,49 64,49 64,49 64,49 "/>
  <polygon class="fil3" points="34,29 34,29 34,29 34,29 "/>
  <polygon class="fil2" points="25,30 25,30 25,30 25,30 "/>
  <polygon class="fil3" points="13,30 13,30 13,30 13,30 "/>
  <polygon class="fil3" points="67,30 67,30 67,30 67,30 "/>
  <polygon class="fil2" points="46,49 46,49 46,49 46,49 "/>
  <polygon class="fil3" points="25,30 25,30 25,30 25,30 "/>
  <polygon class="fil2" points="48,49 48,49 48,49 48,49 "/>
  <polygon class="fil3" points="25,49 25,49 25,49 25,49 "/>
  <polygon class="fil2" points="13,30 13,30 13,30 13,30 "/>
  <polygon class="fil2" points="25,49 25,49 25,49 25,49 "/>
  <polygon class="fil3" points="48,49 48,49 48,49 48,49 "/>
  <polygon class="fil2" points="26,50 26,49 25,49 25,50 "/>
  <polygon class="fil3" points="46,49 46,49 46,50 46,50 "/>
  <polygon class="fil2" points="67,30 67,30 67,30 67,30 "/>
  <polygon class="fil2" points="66,30 66,30 66,30 66,30 "/>
  <polygon class="fil3" points="66,30 66,30 66,30 66,30 "/>
  <polygon class="fil2" points="53,30 53,30 53,30 53,30 "/>
  <polygon class="fil2" points="45,50 45,50 45,50 45,50 "/>
  <polygon class="fil2" points="53,31 53,31 53,31 53,31 "/>
  <polygon class="fil2" points="65,50 65,50 65,50 65,50 "/>
  <polygon class="fil3" points="53,31 53,31 53,31 53,31 "/>
  <polygon class="fil2" points="14,31 14,31 14,31 14,31 "/>
  <polygon class="fil3" points="65,51 65,51 65,51 65,51 "/>
  <polygon class="fil2" points="27,51 27,51 27,51 27,51 "/>
  <polygon class="fil2" points="27,51 27,51 27,51 27,51 "/>
  <polygon class="fil3" points="53,31 53,31 53,31 53,31 "/>
  <polygon class="fil2" points="14,31 14,31 14,31 14,31 "/>
  <polygon class="fil2" points="66,31 66,31 66,31 66,31 "/>
  <polygon class="fil3" points="27,51 27,51 27,51 27,51 "/>
  <polygon class="fil2" points="66,32 66,32 66,32 66,32 "/>
  <polygon class="fil3" points="65,32 65,32 65,32 65,32 "/>
  <polygon class="fil2" points="66,51 66,51 66,51 66,51 "/>
  <polygon class="fil2" points="65,32 65,32 65,33 65,33 "/>
  <polygon class="fil2" points="50,51 50,51 50,51 50,51 "/>
  <polygon class="fil3" points="52,33 52,33 52,33 52,33 "/>
  <polygon class="fil3" points="52,33 52,33 52,33 52,33 "/>
  <polygon class="fil2" points="66,52 66,51 66,51 66,52 "/>
  <polygon class="fil2" points="28,52 28,52 28,52 28,52 "/>
  <polygon class="fil2" points="65,33 65,33 65,33 65,33 "/>
  <polygon class="fil2" points="28,52 28,52 28,52 28,52 "/>
  <polygon class="fil3" points="51,52 51,52 51,52 51,52 "/>
  <polygon class="fil2" points="52,33 52,33 52,33 52,33 "/>
  <polygon class="fil3" points="15,33 15,33 15,33 15,33 "/>
  <polygon class="fil2" points="29,52 29,52 29,52 29,52 "/>
  <polygon class="fil3" points="15,33 15,33 15,33 15,33 "/>
  <polygon class="fil3" points="65,33 64,33 64,33 65,33 "/>
  <polygon class="fil3" points="15,34 15,33 15,33 15,34 "/>
  <polygon class="fil2" points="52,33 51,33 51,34 52,34 "/>
  <polygon class="fil3" points="15,34 15,34 15,34 15,34 "/>
  <polygon class="fil3" points="15,34 15,34 15,34 15,34 "/>
  <polygon class="fil3" points="27,34 27,34 27,34 27,34 "/>
  <polygon class="fil2" points="64,34 64,34 64,34 64,34 "/>
  <polygon class="fil2" points="30,53 30,53 30,53 30,53 "/>
  <polygon class="fil3" points="51,35 51,35 51,35 51,35 "/>
  <polygon class="fil3" points="52,53 52,53 52,53 52,53 "/>
  <polygon class="fil2" points="63,35 63,35 63,35 63,35 "/>
  <polygon class="fil2" points="52,54 52,53 52,53 52,54 "/>
  <polygon class="fil2" points="28,35 28,35 28,35 28,35 "/>
  <polygon class="fil2" points="51,34 51,34 51,34 51,34 "/>
  <polygon class="fil2" points="52,54 52,54 52,54 52,54 "/>
  <polygon class="fil2" points="63,35 63,35 63,35 63,35 "/>
  <polygon class="fil2" points="52,54 52,54 52,54 52,54 "/>
  <polygon class="fil3" points="50,35 50,35 50,36 50,36 "/>
  <polygon class="fil3" points="31,54 31,54 31,54 31,54 "/>
  <polygon class="fil2" points="53,54 53,54 53,54 53,54 "/>
  <polygon class="fil2" points="63,36 63,36 63,36 63,36 "/>
  <polygon class="fil2" points="53,54 53,54 53,54 53,54 "/>
  <polygon class="fil3" points="31,54 31,54 31,54 31,54 "/>
  <polygon class="fil2" points="50,36 50,36 50,36 50,36 "/>
  <polygon class="fil3" points="53,54 53,54 53,54 53,54 "/>
  <polygon class="fil3" points="28,36 28,36 28,36 28,36 "/>
  <polygon class="fil2" points="50,36 50,36 50,36 50,36 "/>
  <polygon class="fil2" points="62,37 62,37 62,37 62,37 "/>
  <polygon class="fil2" points="17,37 17,37 17,37 17,37 "/>
  <polygon class="fil2" points="50,37 49,37 49,37 50,37 "/>
  <polygon class="fil2" points="62,37 62,37 62,37 62,37 "/>
  <polygon class="fil2" points="17,37 17,37 17,37 17,37 "/>
  <polygon class="fil3" points="29,37 29,37 29,37 29,37 "/>
  <polygon class="fil2" points="17,38 17,38 17,38 17,38 "/>
  <polygon class="fil3" points="54,55 54,55 54,55 54,55 "/>
  <polygon class="fil2" points="49,38 49,38 49,38 49,38 "/>
  <polygon class="fil3" points="61,38 61,38 61,38 61,38 "/>
  <polygon class="fil2" points="61,38 61,38 61,38 61,38 "/>
  <polygon class="fil3" points="30,38 30,38 30,38 30,38 "/>
  <polygon class="fil2" points="48,38 48,38 48,38 48,38 "/>
  <polygon class="fil2" points="35,55 35,55 35,55 35,55 "/>
  <polygon class="fil2" points="54,28 54,28 54,28 54,28 "/>
  <polygon class="fil3" points="30,39 30,39 30,39 30,39 "/>
  <polygon class="fil3" points="61,39 60,39 60,39 61,39 "/>
  <polygon class="fil3" points="55,56 55,55 55,55 55,56 "/>
  <polygon class="fil2" points="66,55 66,55 66,56 66,56 "/>
  <polygon class="fil3" points="34,39 34,39 34,39 34,39 "/>
  <polygon class="fil2" points="66,56 66,56 66,56 66,56 "/>
  <polygon class="fil3" points="18,39 18,39 18,39 18,39 "/>
  <polygon class="fil2" points="48,39 48,39 48,39 48,39 "/>
  <polygon class="fil3" points="48,39 48,39 48,39 48,39 "/>
  <polygon class="fil2" points="60,39 60,39 60,39 60,39 "/>
  <polygon class="fil3" points="48,39 47,39 47,39 48,39 "/>
  <polygon class="fil2" points="45,39 45,39 45,39 45,39 "/>
  <polygon class="fil3" points="47,39 47,39 47,39 47,39 "/>
  <polygon class="fil2" points="43,56 43,56 43,56 43,56 "/>
  <polygon class="fil3" points="18,39 18,39 18,39 18,39 "/>
  <polygon class="fil2" points="47,39 47,39 47,39 47,39 "/>
  <polygon class="fil2" points="47,39 47,39 47,40 47,40 "/>
  <polygon class="fil2" points="33,40 33,40 33,40 33,40 "/>
  <polygon class="fil3" points="47,40 47,40 47,40 47,40 "/>
  <polygon class="fil2" points="45,40 45,40 45,40 45,40 "/>
  <polygon class="fil3" points="47,40 46,40 46,40 47,40 "/>
  <polygon class="fil3" points="61,46 61,46 61,46 61,46 "/>
  <polygon class="fil3" points="66,52 66,52 66,52 66,52 "/>
  <polygon class="fil3" points="33,55 33,54 32,54 32,55 "/>
  <polygon class="fil2" points="24,28 24,28 24,28 24,28 "/>
  <polygon class="fil2" points="27,33 27,33 27,33 27,33 "/>
  <polygon class="fil3" points="33,28 33,28 33,28 33,28 "/>
  <polygon class="fil3" points="15,33 15,33 15,33 15,33 "/>
  <polygon class="fil3" points="28,52 28,52 28,52 28,52 "/>
  <polygon class="fil2" points="67,55 67,55 67,55 67,55 "/>
  <polygon class="fil2" points="23,27 23,27 23,27 23,27 "/>
  <polygon class="fil2" points="61,38 61,38 61,38 61,38 "/>
  <polygon class="fil2" points="18,38 18,38 18,38 18,38 "/>
  <polygon class="fil2" points="65,33 65,33 65,33 65,33 "/>
  <polygon class="fil2" points="51,53 51,53 51,53 51,53 "/>
  <polygon class="fil2" points="20,42 20,42 20,42 20,42 "/>
  <polygon class="fil2" points="26,33 26,32 26,32 26,33 "/>
  <polygon class="fil2" points="26,32 26,32 26,32 26,32 "/>
  <polygon class="fil2" points="67,53 67,53 67,53 67,53 "/>
  <polygon class="fil3" points="26,31 26,31 26,31 26,31 "/>
  <polygon class="fil2" points="19,40 19,40 18,40 18,40 "/>
  <polygon class="fil2" points="50,36 50,36 50,37 50,37 "/>
  <polygon class="fil2" points="67,53 67,53 67,53 67,53 "/>
  <polygon class="fil3" points="66,31 66,31 66,31 66,31 "/>
  <polygon class="fil2" points="45,51 45,51 45,51 45,51 "/>
  <polygon class="fil2" points="63,35 63,35 63,35 63,35 "/>
  <polygon class="fil2" points="16,35 16,35 16,35 16,35 "/>
  <polygon class="fil2" points="29,37 29,36 29,36 29,37 "/>
  <polygon class="fil2" points="62,36 62,36 62,36 62,36 "/>
  <polygon class="fil2" points="26,31 26,31 25,31 25,31 "/>
  <polygon class="fil2" points="43,56 43,56 43,56 43,56 "/>
  <polygon class="fil2" points="50,51 50,51 50,51 50,51 "/>
  <polygon class="fil2" points="66,51 66,51 66,51 66,51 "/>
  <polygon class="fil3" points="53,30 53,30 53,30 53,30 "/>
  <polygon class="fil2" points="59,44 59,44 59,44 59,44 "/>
  <polygon class="fil2" points="50,36 50,36 50,36 50,36 "/>
  <polygon class="fil2" points="27,51 27,51 27,51 27,51 "/>
  <polygon class="fil3" points="16,36 16,36 16,36 16,36 "/>
  <polygon class="fil2" points="59,40 59,40 59,40 59,40 "/>
  <polygon class="fil2" points="67,29 67,29 67,29 67,29 "/>
  <polygon class="fil2" points="13,29 13,29 13,29 13,29 "/>
  <polygon class="fil3" points="64,35 64,35 64,35 64,35 "/>
  <polygon class="fil2" points="65,50 65,50 64,50 64,50 "/>
  <g id="_2149297765872">
   <polygon class="fil4" points="-93,290 -93,290 -93,291 -93,291 -93,291 -93,291 -93,293 -94,293 -94,294 -93,294 -93,295 -93,295 -93,296 -93,296 -93,297 -93,297 -93,297 -93,297 -93,298 -93,298 -93,298 -92,298 -92,298 -92,298 -92,299 -92,299 -92,299 -92,299 -92,299 -92,299 -92,300 -92,300 -92,300 -91,300 -91,300 -91,300 -91,300 -91,300 -91,300 -91,300 -91,300 -91,300 -91,301 -90,301 -90,301 -90,301 -90,301 -90,301 -90,301 -90,301 -90,301 -90,301 -90,301 -89,301 -89,302 -89,302 -89,302 -89,302 -89,302 -89,302 -89,302 -88,302 -88,302 -88,302 -88,303 -88,303 -88,303 -87,303 -87,303 -87,303 -87,303 -87,303 -87,303 -87,303 -87,303 -86,303 -86,304 -86,304 -86,304 -85,304 -85,304 -85,304 -85,304 -85,304 -85,304 -85,304 -85,305 -84,305 -84,305 -84,305 -84,305 -83,305 -83,305 -83,305 -83,305 -83,305 -83,305 -82,305 -82,306 -82,306 -82,306 -82,306 -82,306 -81,306 -81,306 -81,306 -81,306 -80,306 -80,306 -80,306 -80,307 -80,307 -80,307 -79,307 -79,307 -79,307 -79,307 -78,307 -78,307 -78,307 -78,308 -77,308 -77,308 -77,308 -77,308 -76,308 -76,308 -76,308 -76,308 -75,308 -75,308 -75,308 -75,309 -74,309 -74,309 -74,309 -74,309 -73,309 -73,309 -72,309 -72,309 -72,309 -72,310 -71,310 -71,310 -70,310 -70,310 -70,310 -70,310 -69,310 -69,310 -69,310 -69,310 -69,310 -69,311 -70,311 -70,311 -69,311 -69,311 -69,311 -69,311 -70,311 -70,311 -70,311 -70,312 -70,312 -70,312 -70,312 -70,312 -70,312 -70,312 -70,312 -70,312 -71,312 -71,313 -71,313 -71,313 -71,313 -71,313 -71,313 -71,313 -71,313 -71,313 -72,313 -72,313 -72,313 -72,314 -72,314 -72,314 -72,314 -72,314 -72,314 -72,314 -72,314 -72,314 -73,314 -73,315 -73,315 -73,315 -73,315 -73,315 -73,315 -73,315 -73,315 -73,315 -73,315 -73,315 -74,315 -74,316 -74,316 -74,316 -74,316 -74,316 -74,316 -74,316 -74,316 -74,316 -75,316 -75,316 -75,316 -75,317 -75,317 -75,317 -75,317 -75,317 -75,317 -75,317 -75,317 -75,317 -76,317 -76,318 -76,318 -76,318 -76,318 -76,318 -76,318 -76,318 -76,318 -76,318 -77,318 -77,318 -77,318 -77,319 -77,319 -77,319 -77,319 -77,319 -77,319 -77,319 -77,319 -77,319 -78,319 -78,320 -78,320 -78,320 -78,320 -78,320 -78,320 -78,320 -78,320 -78,320 -78,320 -78,320 -79,320 -79,321 -79,321 -79,321 -79,321 -79,321 -79,321 -79,321 -79,321 -79,321 -80,321 -80,321 -80,321 -80,322 -80,322 -80,322 -80,322 -80,322 -80,322 -80,322 -80,322 -80,322 -81,322 -81,323 -81,323 -81,323 -81,323 -81,323 -81,323 -81,323 -81,323 -81,323 -82,323 -82,323 -82,323 -82,324 -82,324 -82,324 -82,324 -82,324 -82,324 -82,324 -82,324 -82,324 -83,324 -83,325 -83,325 -83,325 -83,325 -83,325 -83,325 -83,325 -83,325 -83,325 -83,325 -83,325 -84,325 -84,326 -84,326 -84,326 -84,326 -84,326 -84,326 -84,326 -84,326 -84,326 -85,326 -85,326 -85,326 -85,327 -85,327 -85,327 -85,327 -85,327 -85,327 -85,327 -85,327 -85,327 -86,327 -86,328 -86,328 -86,328 -86,328 -86,328 -86,328 -86,328 -86,328 -86,328 -87,328 -87,328 -87,328 -87,329 -87,329 -87,329 -87,329 -87,329 -87,329 -87,329 -87,329 -87,329 -88,329 -88,330 -88,330 -88,330 -88,330 -88,330 -88,330 -88,330 -88,330 -88,330 -88,330 -88,330 -89,330 -89,331 -89,331 -89,331 -89,331 -89,331 -89,331 -89,331 -89,331 -89,331 -90,331 -90,332 -90,332 -90,332 -90,332 -90,332 -90,332 -90,333 -90,333 -90,333 -90,333 -90,333 -91,333 -91,334 -91,334 -91,334 -91,334 -91,335 -91,335 -91,337 -91,337 -91,338 -91,338 -91,339 -91,339 -91,340 -90,340 -90,340 -90,340 -90,341 -90,341 -90,341 -90,341 -90,341 -90,341 -90,342 -90,342 -90,342 -89,342 -89,342 -89,342 -89,342 -89,342 -89,343 -89,343 -89,343 -89,343 -89,343 -88,343 -88,343 -88,343 -88,343 -88,343 -88,344 -88,344 -88,344 -88,344 -88,344 -88,344 -88,344 -87,344 -87,344 -87,344 -87,345 -87,345 -87,345 -87,345 -87,345 -86,345 -86,345 -86,345 -86,345 -86,345 -86,345 -85,345 -85,346 -85,346 -85,346 -84,346 -84,346 -84,346 -84,346 -83,346 -83,346 -79,346 -79,346 -78,346 -78,346 -78,346 -78,346 -77,346 -77,346 -77,346 -77,345 -77,345 -77,345 -76,345 -76,345 -76,345 -76,345 -76,345 -76,345 -75,345 -75,345 -75,345 -75,344 -75,344 -75,344 -75,344 -75,344 -75,344 -75,344 -74,344 -74,344 -74,344 -74,343 -74,343 -74,343 -74,343 -74,343 -73,343 -73,343 -73,343 -73,343 -73,343 -73,343 -73,343 -73,342 -73,342 -73,342 -73,342 -73,342 -72,342 -72,342 -72,342 -72,342 -72,342 -72,341 -72,341 -72,341 -72,341 -72,341 -72,341 -72,341 -71,341 -71,341 -71,341 -71,341 -71,341 -71,340 -71,340 -71,340 -71,340 -71,340 -70,340 -70,340 -70,340 -70,340 -70,340 -70,340 -70,340 -70,339 -70,339 -70,339 -70,339 -70,339 -69,339 -69,339 -69,339 -69,339 -69,339 -69,338 -69,338 -69,338 -69,338 -69,338 -68,338 -68,338 -68,338 -68,338 -68,338 -68,338 -68,338 -68,337 -68,337 -68,337 -68,337 -68,337 -67,337 -67,337 -67,337 -67,337 -67,337 -67,336 -67,336 -67,336 -67,336 -67,336 -67,336 -67,336 -66,336 -66,336 -66,336 -66,336 -66,336 -66,335 -66,335 -66,335 -66,335 -66,335 -65,335 -65,335 -65,335 -65,335 -65,335 -65,335 -65,335 -65,334 -65,334 -65,334 -65,334 -65,334 -64,334 -64,334 -64,334 -64,334 -64,334 -64,333 -64,333 -64,333 -64,333 -64,333 -63,333 -63,333 -63,333 -63,333 -63,333 -63,333 -63,333 -63,332 -63,332 -63,332 -63,332 -63,332 -62,332 -62,332 -62,332 -62,332 -62,332 -62,331 -62,331 -62,331 -62,331 -62,331 -62,331 -62,331 -61,331 -61,331 -61,331 -61,331 -61,331 -61,330 -61,330 -61,330 -61,330 -61,330 -60,330 -60,330 -60,330 -60,330 -60,330 -60,330 -60,330 -60,329 -60,329 -60,329 -60,329 -60,329 -59,329 -59,329 -59,329 -59,329 -59,329 -59,328 -59,328 -59,328 -59,328 -59,328 -58,328 -58,328 -58,328 -58,328 -58,328 -58,328 -58,328 -58,327 -58,327 -58,327 -58,327 -58,327 -57,327 -57,327 -57,327 -57,327 -57,327 -57,326 -57,326 -57,326 -57,326 -57,326 -57,326 -57,326 -56,326 -56,326 -56,326 -56,326 -56,326 -56,325 -56,325 -56,325 -56,325 -56,325 -55,325 -55,325 -55,325 -55,325 -55,325 -55,325 -55,325 -55,325 -55,325 -55,325 -55,325 -55,325 -54,325 -54,326 -54,326 -54,326 -54,326 -54,326 -54,326 -54,326 -54,326 -54,326 -53,326 -53,326 -53,326 -53,327 -53,327 -53,327 -53,327 -53,327 -53,327 -53,327 -53,327 -53,327 -52,327 -52,328 -52,328 -52,328 -52,328 -52,328 -52,328 -52,328 -52,328 -52,328 -52,328 -52,328 -51,328 -51,329 -51,329 -51,329 -51,329 -51,329 -51,329 -51,329 -51,329 -51,329 -50,329 -50,330 -50,330 -50,330 -50,330 -50,330 -50,330 -50,330 -50,330 -50,330 -50,330 -50,330 -49,330 -49,331 -49,331 -49,331 -49,331 -49,331 -49,331 -49,331 -49,331 -49,331 -48,331 -48,331 -48,331 -48,332 -48,332 -48,332 -48,332 -48,332 -48,332 -48,332 -48,332 -48,332 -47,332 -47,333 -47,333 -47,333 -47,333 -47,333 -47,333 -47,333 -47,333 -47,333 -46,333 -46,333 -46,333 -46,334 -46,334 -46,334 -46,334 -46,334 -46,334 -46,334 -46,334 -46,334 -45,334 -45,335 -45,335 -45,335 -45,335 -45,335 -45,335 -45,335 -45,335 -45,335 -45,335 -45,335 -44,335 -44,336 -44,336 -44,336 -44,336 -44,336 -44,336 -44,336 -44,336 -44,336 -43,336 -43,336 -43,336 -43,337 -43,337 -43,337 -43,337 -43,337 -43,337 -43,337 -43,337 -43,337 -42,337 -42,338 -42,338 -42,338 -42,338 -42,338 -42,338 -42,338 -42,338 -42,338 -41,338 -41,338 -41,338 -41,339 -41,339 -41,339 -41,339 -41,339 -41,339 -41,339 -41,339 -41,339 -40,339 -40,340 -40,340 -40,340 -40,340 -40,340 -40,340 -40,340 -40,340 -40,340 -40,340 -40,340 -39,340 -39,341 -39,341 -39,341 -39,341 -39,341 -39,341 -39,341 -39,341 -39,341 -38,341 -38,341 -38,341 -38,342 -38,342 -38,342 -38,342 -38,342 -38,342 -38,342 -38,342 -38,342 -37,342 -37,343 -37,343 -37,343 -37,343 -37,343 -37,343 -37,343 -37,343 -37,343 -36,343 -36,343 -36,343 -36,344 -36,344 -36,344 -36,344 -36,344 -36,344 -36,344 -35,344 -35,344 -35,344 -35,345 -35,345 -35,345 -35,345 -35,345 -34,345 -34,345 -34,345 -34,345 -34,345 -34,345 -33,345 -33,346 -33,346 -33,346 -33,346 -33,346 -32,346 -32,346 -31,346 -31,346 -27,346 -27,346 -26,346 -26,346 -26,346 -26,346 -25,346 -25,346 -25,346 -25,345 -25,345 -25,345 -24,345 -24,345 -24,345 -24,345 -24,345 -24,345 -23,345 -23,345 -23,345 -23,344 -23,344 -23,344 -23,344 -23,344 -23,344 -23,344 -22,344 -22,344 -22,344 -22,343 -22,343 -22,343 -22,343 -22,343 -22,343 -22,343 -21,343 -21,343 -21,343 -21,342 -21,342 -21,342 -21,342 -21,342 -21,342 -21,342 -21,342 -21,341 -20,341 -20,341 -20,341 -20,341 -20,341 -20,340 -20,340 -20,340 -20,340 -20,339 -20,339 -20,338 -19,338 -19,337 -19,337 -19,335 -19,335 -19,334 -20,334 -20,333 -20,333 -20,334 -20,334 -20,333 -20,333 -20,333 -20,333 -20,332 -20,332 -20,332 -21,332 -21,332 -21,332 -21,331 -21,331 -21,331 -21,331 -21,331 -21,331 -21,331 -21,331 -21,331 -22,331 -22,330 -22,330 -22,330 -22,330 -22,330 -22,330 -22,330 -22,330 -22,330 -23,330 -23,330 -23,330 -23,329 -23,329 -23,329 -23,329 -23,329 -23,329 -23,329 -23,329 -23,329 -24,329 -24,328 -24,328 -24,328 -24,328 -24,328 -24,328 -24,328 -24,328 -24,328 -25,328 -25,328 -25,328 -25,327 -25,327 -25,327 -25,327 -25,327 -25,327 -25,327 -25,327 -25,327 -26,327 -26,326 -26,326 -26,326 -26,326 -26,326 -26,326 -26,326 -26,326 -26,326 -26,326 -26,326 -27,326 -27,325 -27,325 -27,325 -27,325 -27,325 -27,325 -27,325 -27,325 -27,325 -28,325 -28,325 -28,325 -28,324 -28,324 -28,324 -28,324 -28,324 -28,324 -28,324 -28,324 -28,324 -29,324 -29,323 -29,323 -29,323 -29,323 -29,323 -29,323 -29,323 -29,323 -29,323 -30,323 -30,323 -30,323 -30,322 -30,322 -30,322 -30,322 -30,322 -30,322 -30,322 -30,322 -30,322 -31,322 -31,321 -31,321 -31,321 -31,321 -31,321 -31,321 -31,321 -31,321 -31,321 -31,321 -31,321 -32,321 -32,320 -32,320 -32,320 -32,320 -32,320 -32,320 -32,320 -32,320 -32,320 -33,320 -33,320 -33,320 -33,319 -33,319 -33,319 -33,319 -33,319 -33,319 -33,319 -33,319 -33,319 -34,319 -34,318 -34,318 -34,318 -34,318 -34,318 -34,318 -34,318 -34,318 -34,318 -35,318 -35,318 -35,318 -35,317 -35,317 -35,317 -35,317 -35,317 -35,317 -35,317 -35,317 -35,317 -36,317 -36,316 -36,316 -36,316 -36,316 -36,316 -36,316 -36,316 -36,316 -36,316 -36,316 -36,316 -37,316 -37,315 -37,315 -37,315 -37,315 -37,315 -37,315 -37,315 -37,315 -37,315 -38,315 -38,315 -38,315 -38,314 -38,314 -38,314 -38,314 -38,314 -38,314 -38,314 -38,314 -38,314 -39,314 -39,313 -39,313 -39,313 -39,313 -39,313 -39,313 -39,313 -39,313 -39,313 -40,313 -40,313 -40,313 -40,312 -40,312 -40,312 -40,312 -40,312 -40,312 -40,312 -40,312 -40,312 -41,312 -41,311 -41,311 -41,311 -41,311 -41,311 -41,311 -41,311 -41,311 -41,311 -41,311 -41,310 -41,310 -41,310 -41,310 -41,310 -41,310 -41,310 -40,310 -40,310 -39,310 -39,310 -39,310 -39,309 -38,309 -38,309 -37,309 -37,309 -37,309 -37,309 -36,309 -36,309 -36,309 -36,308 -35,308 -35,308 -35,308 -35,308 -34,308 -34,308 -33,308 -33,308 -33,308 -33,308 -33,308 -33,307 -32,307 -32,307 -32,307 -32,307 -31,307 -31,307 -31,307 -31,307 -30,307 -30,306 -30,306 -30,306 -30,306 -30,306 -29,306 -29,306 -29,306 -29,306 -28,306 -28,306 -28,306 -28,305 -28,305 -28,305 -27,305 -27,305 -27,305 -27,305 -26,305 -26,305 -26,305 -26,305 -26,305 -26,304 -25,304 -25,304 -25,304 -25,304 -25,304 -25,304 -25,304 -25,304 -24,304 -24,303 -24,303 -24,303 -24,303 -24,303 -23,303 -23,303 -23,303 -23,303 -23,303 -23,303 -22,303 -22,302 -22,302 -22,302 -22,302 -22,302 -21,302 -21,302 -21,302 -21,302 -21,302 -21,301 -21,301 -21,301 -20,301 -20,301 -20,301 -20,301 -20,301 -20,301 -20,301 -20,301 -20,301 -20,300 -20,300 -20,300 -19,300 -19,300 -19,300 -19,300 -19,300 -19,300 -19,300 -19,300 -19,300 -19,299 -18,299 -18,299 -18,299 -18,299 -18,299 -18,298 -18,298 -18,298 -18,298 -18,298 -18,298 -18,297 -17,297 -17,297 -17,297 -17,296 -17,296 -17,295 -17,295 -17,294 -17,294 -17,293 -17,293 -17,291 -17,291 -17,291 -17,291 -17,290 -18,290 -18,290 -18,290 -18,290 -18,290 -18,289 -18,289 -18,289 -18,289 -18,289 -18,289 -18,288 -19,288 -19,288 -19,288 -19,288 -19,288 -19,288 -19,288 -19,287 -19,287 -19,287 -20,287 -20,287 -20,287 -20,287 -20,287 -20,287 -20,287 -20,286 -20,286 -20,286 -21,286 -21,286 -21,286 -21,286 -21,286 -21,286 -21,286 -21,286 -21,286 -21,285 -22,285 -22,285 -22,285 -22,285 -23,285 -23,285 -23,285 -23,285 -23,285 -23,285 -24,285 -24,284 -25,284 -25,284 -29,284 -29,284 -30,284 -30,285 -30,285 -30,285 -30,285 -30,285 -31,285 -31,285 -31,285 -31,285 -32,285 -32,285 -32,285 -32,286 -32,286 -32,286 -32,286 -32,286 -33,286 -33,286 -33,286 -33,286 -33,286 -33,286 -34,286 -34,287 -34,287 -34,287 -34,287 -34,287 -35,287 -35,287 -35,287 -35,287 -35,287 -35,288 -36,288 -36,288 -36,288 -36,288 -36,288 -36,288 -37,288 -37,288 -37,288 -37,288 -38,288 -38,289 -38,289 -38,289 -38,289 -38,289 -39,289 -39,289 -39,289 -39,289 -40,289 -40,290 -40,290 -40,290 -41,290 -41,290 -41,290 -41,290 -42,290 -42,290 -42,290 -42,290 -43,290 -43,291 -44,291 -44,291 -44,291 -44,291 -45,291 -45,291 -46,291 -46,291 -47,291 -47,291 -47,291 -47,292 -48,292 -48,292 -50,292 -50,292 -51,292 -51,292 -59,292 -59,292 -61,292 -61,292 -62,292 -62,292 -63,292 -63,291 -64,291 -64,291 -65,291 -65,291 -66,291 -66,291 -66,291 -66,291 -67,291 -67,291 -67,291 -67,290 -68,290 -68,290 -69,290 -69,290 -69,290 -69,290 -70,290 -70,290 -70,290 -70,290 -71,290 -71,289 -71,289 -71,289 -72,289 -72,289 -72,289 -72,289 -72,289 -72,289 -73,289 -73,288 -73,288 -73,288 -73,288 -73,288 -74,288 -74,288 -74,288 -74,288 -75,288 -75,288 -75,288 -75,287 -75,287 -75,287 -76,287 -76,287 -76,287 -76,287 -76,287 -76,287 -77,287 -77,286 -77,286 -77,286 -77,286 -77,286 -78,286 -78,286 -78,286 -78,286 -78,286 -78,286 -78,286 -78,285 -79,285 -79,285 -79,285 -79,285 -80,285 -80,285 -80,285 -80,285 -80,285 -80,285 -81,285 -81,284 -82,284 -82,284 -86,284 -86,284 -86,284 -86,285 -87,285 -87,285 -87,285 -87,285 -88,285 -88,285 -88,285 -88,285 -88,285 -88,285 -89,285 -89,286 -89,286 -89,286 -89,286 -89,286 -90,286 -90,286 -90,286 -90,286 -90,286 -90,286 -90,286 -90,287 -90,287 -90,287 -91,287 -91,287 -91,287 -91,287 -91,287 -91,287 -91,287 -91,288 -91,288 -91,288 -92,288 -92,288 -92,288 -92,288 -92,288 -92,289 -92,289 -92,289 -92,289 -92,289 -92,289 -92,290 -93,290 -93,290 -93,290 -93,290 -93,290 "/>
   <path class="fil4" d="M-69 246l0 -1 0 0 0 -1 0 0 0 0 0 0 0 -1 1 0 0 0 0 0 0 -1 0 0 0 0 0 0 0 -1 0 0 0 0 0 0 0 0 1 0 0 0 0 0 0 -1 0 0 0 0 0 0 0 0 0 0 0 -1 0 0 0 0 1 0 0 0 0 0 0 0 0 0 0 0 0 0 0 -1 0 0 0 0 1 0 0 0 0 0 0 0 0 0 0 0 0 0 0 0 0 0 0 -1 0 0 0 0 1 0 0 0 0 0 0 0 0 0 0 0 0 0 0 -1 1 0 0 0 0 0 0 0 0 0 0 0 0 0 0 0 1 0 0 0 0 0 0 -1 0 0 0 0 1 0 0 0 0 0 0 0 0 0 0 0 1 0 0 -1 0 0 0 0 1 0 0 0 1 0 0 0 0 0 0 0 5 0 0 0 1 0 0 0 1 0 0 0 0 0 0 0 1 0 0 1 0 0 0 0 1 0 0 0 0 0 0 0 0 0 0 0 1 0 0 1 0 0 0 0 0 0 0 0 1 0 0 0 0 0 0 0 0 0 0 0 0 0 0 1 1 0 0 0 0 0 0 0 0 0 0 0 0 0 0 0 0 0 0 1 1 0 0 0 0 0 0 0 0 0 0 0 0 0 0 0 0 0 0 0 0 0 0 1 1 0 0 0 0 0 0 0 0 0 0 0 0 0 0 0 0 0 0 1 1 0 0 0 0 0 0 0 0 0 0 1 0 0 0 0 0 0 0 0 0 0 0 0 1 0 0 1 0 0 0 0 0 0 0 1 0 0 0 0 0 0 0 1 1 0 0 0 0 0 0 1 0 0 0 1 0 0 0 4 0 0 0 1 0 0 0 1 0 0 0 0 -1 0 0 1 0 0 0 0 0 0 0 1 0 0 0 0 0 0 0 0 0 0 0 1 0 0 0 0 -1 0 0 0 0 0 0 1 0 0 0 0 0 0 0 0 0 0 0 0 0 0 0 1 -1 0 0 0 0 0 0 0 0 0 0 1 0 0 0 0 0 0 0 0 -1 0 0 0 0 0 0 0 0 0 0 0 0 0 0 1 0 0 0 0 -1 0 0 0 0 0 0 0 0 0 0 0 0 0 0 1 0 0 0 0 -1 0 0 0 0 0 0 0 0 0 0 0 0 0 0 1 -1 0 0 0 0 0 0 0 0 0 0 0 -1 0 0 0 0 0 0 0 0 0 0 1 -1 0 0 0 0 0 0 0 -1 0 0 0 0 0 0 0 -1 0 0 1 -1 0 0 0 -5 0 0 0 0 0 0 -1 -1 0 0 0 -1 0 0 0 0 0 0 0 -1 0 0 0 0 0 0 -1 0 0 0 0 -1 0 0 0 0 0 0 0 0 0 0 0 -1 0 0 0 0 0 0 -1 0 0 0 0 0 0 0 0 -1 0 0 0 0 0 0 0 0 0 0 -1 0 0 0 0 -1 0 0 0 0 0 0 0 0 0 0 0 0 0 0 0 0 0 0 -1 0 0 0 0 -1 0 0 0 0 0 0 0 0 0 0 0 0 0 0 0 0 0 0 -1 -1 0 0 0 0 0 0 0 0 0 0 -1 0 0 0 0 0 0 0 0 0 0 0 0 -1 0 0 -1 0 0 0 0 0 0 0 0 0 0 0 -1 0 0 0 0 0 0 0 0 0 0 0 -1 0 0 0 0 -1 0 0 -1 0 0 0 0 0 0 0 -1 0 0 0 -1 0 0 0 -4 0 0zm-18 -12l0 0 0 1 0 0 0 0 0 0 0 1 0 0 0 0 0 0 0 0 -1 0 0 1 0 0 0 1 0 0 0 0 0 0 0 1 0 0 0 0 0 0 0 1 -1 0 0 1 0 0 0 1 0 0 0 1 0 0 0 2 0 0 0 6 0 0 0 2 0 0 0 1 0 0 0 1 0 0 0 0 1 0 0 1 0 0 0 1 0 0 0 1 0 0 0 0 0 0 0 1 0 0 0 0 1 0 0 1 0 0 0 0 0 0 0 1 0 0 0 0 0 0 0 0 0 0 0 1 1 0 0 0 0 0 0 1 0 0 0 0 0 0 0 0 0 0 0 1 1 0 0 0 0 0 0 0 0 0 0 1 0 0 0 0 0 0 0 0 0 0 0 1 1 0 0 0 0 0 0 0 0 0 0 0 0 0 0 1 0 0 0 0 1 0 0 0 0 0 0 1 0 0 0 0 0 0 0 0 0 0 0 0 0 0 0 1 1 0 0 0 0 0 0 0 0 0 0 0 0 0 0 0 0 0 0 1 0 0 0 0 1 0 0 0 0 0 0 0 0 0 0 1 0 0 0 0 0 0 0 0 1 0 0 0 0 0 0 0 0 0 0 0 0 0 0 1 0 0 0 0 0 0 0 0 1 0 0 0 0 0 0 0 0 0 0 1 0 0 0 0 0 0 0 0 1 0 0 0 0 0 0 0 0 0 0 0 0 0 0 1 0 0 0 0 1 0 0 0 0 0 0 0 0 0 0 0 0 0 0 1 0 0 0 0 1 0 0 0 0 0 0 0 0 0 0 0 0 0 0 0 1 0 0 1 0 0 0 0 0 0 0 0 0 0 0 0 1 0 0 0 0 0 0 0 0 0 0 1 0 0 0 0 1 0 0 0 0 0 0 0 0 0 0 0 1 0 0 1 0 0 0 0 0 0 0 0 0 0 0 0 1 0 0 0 0 0 0 0 1 0 0 1 0 0 0 0 0 0 0 0 1 0 0 0 0 0 0 0 0 0 0 1 1 0 0 0 0 0 0 0 1 0 0 0 0 0 0 0 1 0 0 0 0 0 0 1 1 0 0 0 0 0 0 0 1 0 0 0 1 0 0 0 1 0 0 0 0 0 0 1 1 0 0 0 2 0 0 0 2 0 0 0 3 0 0 0 3 0 0 0 1 0 0 0 1 0 0 -1 1 0 0 0 1 0 0 0 1 0 0 0 0 0 0 0 1 0 0 0 0 0 0 -1 1 0 0 0 0 0 0 0 1 0 0 0 0 0 0 0 1 0 0 0 0 0 0 -1 1 0 0 0 0 0 0 0 0 0 0 0 1 0 0 0 0 0 0 -1 0 0 0 0 1 0 0 0 0 0 0 0 1 0 0 0 0 0 0 0 0 0 0 -1 0 0 0 0 1 0 0 0 0 0 0 0 0 0 0 0 1 0 0 -1 0 0 0 0 0 0 0 0 0 0 0 0 1 0 0 0 0 0 0 0 0 0 0 -1 0 0 0 0 1 0 0 0 0 0 0 0 0 0 0 0 0 0 0 0 1 0 0 -1 0 0 0 0 0 0 0 0 0 0 0 0 0 0 0 0 1 0 0 -1 0 0 0 0 0 0 0 0 0 0 0 0 0 0 0 0 1 0 0 0 0 0 0 -1 0 0 0 0 0 0 0 0 0 0 0 0 0 0 0 0 1 0 0 -1 0 0 0 0 0 0 0 0 0 0 0 0 0 0 0 0 0 0 0 0 1 0 0 -1 0 0 0 0 0 0 0 0 0 0 0 0 0 0 0 -1 1 0 0 0 0 0 0 0 0 0 0 0 0 0 0 0 0 0 0 -1 0 0 0 0 1 0 0 0 0 0 0 0 0 0 0 -1 0 0 0 0 0 0 0 0 1 0 0 -1 0 0 0 0 0 0 0 0 0 0 0 0 0 0 0 -1 0 0 0 0 1 0 0 0 0 0 0 -1 0 0 0 0 0 0 0 0 0 0 0 -1 0 0 0 0 1 0 0 0 0 0 0 -1 0 0 0 0 0 0 0 -1 0 0 0 0 1 0 0 0 0 0 0 -1 0 0 0 0 0 0 0 -1 0 0 0 0 0 0 0 -1 1 0 0 0 0 0 0 -1 0 0 0 -1 0 0 0 0 0 0 0 -1 1 0 0 -1 0 0 0 -1 0 0 0 -2 0 0 0 -6 0 0 0 -2 0 0 0 -1 0 0 0 -1 -1 0 0 -1 0 0 0 -1 0 0 0 0 0 0 0 -1 0 0 0 0 -1 0 0 -1 0 0 0 -1 0 0 0 0 0 0 0 0 0 0 0 -1 0 0 0 0 -1 0 0 0 0 0 0 0 0 0 0 -1 0 0 0 0 0 0 0 -1 -1 0 0 0 0 0 0 0 0 0 0 -1 0 0 0 0 0 0 0 0 0 0 0 -1 -1 0 0 0 0 0 0 0 0 0 0 0 0 0 0 -1 0 0 0 0 0 0 0 0 -1 0 0 -1 0 0 0 0 0 0 0 0 0 0 0 0 0 0 0 -1 -1 0 0 0 0 0 0 0 0 0 0 0 0 0 0 0 0 0 0 -1 0 0 0 0 -1 0 0 0 0 0 0 0 0 0 0 -1 0 0 0 0 0 0 0 0 -1 0 0 0 0 0 0 0 0 0 0 -1 0 0 0 0 0 0 0 0 0 0 0 0 -1 0 0 0 0 0 0 -1 0 0 0 0 0 0 0 0 0 0 0 0 0 0 0 0 -1 0 0 0 0 0 0 -1 0 0 0 0 0 0 0 0 0 0 0 0 -1 0 0 0 0 0 0 0 0 0 0 -1 0 0 0 0 0 0 0 0 -1 0 0 0 0 0 0 0 0 0 0 -1 0 0 0 0 -1 0 0 0 0 0 0 0 0 0 0 0 0 0 0 0 -1 0 0 -1 0 0 0 0 0 0 0 0 0 0 0 0 -1 0 0 0 0 0 0 -1 0 0 0 0 -1 0 0 0 0 0 0 0 0 0 0 0 0 0 0 0 -1 0 0 -1 0 0 0 0 -1 0 0 0 0 0 0 0 0 0 0 0 -1 0 0 0 0 0 0 -1 0 0 0 0 -1 0 0 0 0 0 0 0 -1 0 0 0 0 0 0 -1 -1 0 0 0 0 0 0 0 -1 0 0 0 0 0 0 0 -1 0 0 0 0 0 0 -1 -1 0 0 0 -1 0 0 0 -1 0 0 0 -1 0 0 0 -1 0 0 -1 -3 0 0 0 -4 0 0 0 -1 0 0 1 -1 0 0 0 -2 0 0 0 0 0 0 0 -1 0 0 0 -1 0 0 1 -1 0 0 0 0 0 0 0 -1 0 0 0 0 0 0 0 -1 0 0 0 0 0 0 1 -1 0 0 0 0 0 0 0 -1 0 0 0 0 0 0 0 0 0 0 1 -1 0 0 0 0 0 0 0 0 0 0 0 -1 0 0 0 0 0 0 0 -1 0 0 1 0 0 0 0 0 0 0 0 0 0 0 0 -1 0 0 0 0 0 0 0 0 0 0 1 -1 0 0 0 0 0 0 0 0 0 0 0 0 0 0 0 -1 0 0 1 0 0 0 0 0 0 0 0 0 0 0 0 -1 0 0 0 0 0 0 0 0 0 0 1 0 0 0 0 -1 0 0 0 0 0 0 0 0 0 0 0 0 0 0 1 0 0 0 0 -1 0 0 0 0 0 0 0 0 0 0 0 0 0 0 0 0 0 0 1 -1 0 0 0 0 0 0 0 0 0 0 0 0 0 0 0 0 0 0 0 -1 0 0 1 0 0 0 0 0 0 0 0 0 0 0 0 0 0 0 0 0 0 0 1 -1 0 0 0 0 0 0 0 0 0 0 0 0 0 0 0 0 0 0 1 -1 0 0 0 0 0 0 0 0 0 0 0 0 0 0 1 0 0 0 0 0 0 0 0 -1 0 0 0 0 0 0 0 0 0 0 1 0 0 0 0 0 0 0 0 0 0 0 0 -1 0 0 1 0 0 0 0 0 0 0 0 0 0 0 1 0 0 0 0 -1 0 0 0 0 0 0 0 0 0 0 1 0 0 0 0 0 0 0 0 0 0 0 1 -1 0 0 0 0 0 0 0 0 0 0 1 0 0 0 0 0 0 0 0 -1 0 0 0z"/>
  </g>
 </g>
</svg>
