<?xml version="1.0" encoding="UTF-8"?>
<!DOCTYPE svg PUBLIC "-//W3C//DTD SVG 1.1//EN" "http://www.w3.org/Graphics/SVG/1.1/DTD/svg11.dtd">
<!-- Creator: CorelDRAW X8 -->
<svg xmlns="http://www.w3.org/2000/svg" xml:space="preserve" width="500px" height="500px" version="1.1" style="shape-rendering:geometricPrecision; text-rendering:geometricPrecision; image-rendering:optimizeQuality; fill-rule:evenodd; clip-rule:evenodd"
viewBox="0 0 500 500"
 xmlns:xlink="http://www.w3.org/1999/xlink">
 <defs>
  <style type="text/css">
   <![CDATA[
    .str0 {stroke:#2B2A29;stroke-width:19.9997}
    .str1 {stroke:#2B2A29;stroke-width:7.99963}
    .fil0 {fill:none}
    .fil1 {fill:#2B2A29;fill-rule:nonzero}
   ]]>
  </style>
 </defs>
 <g id="Слой_x0020_1">
  <metadata id="CorelCorpID_0Corel-Layer"/>
  <circle class="fil0 str0" cx="250" cy="250" r="238"/>
  <circle class="fil0 str1" cx="250" cy="250" r="200"/>
  <path class="fil1" d="M145 317l38 -3c3,18 9,32 20,42 10,9 22,14 37,14 18,0 33,-7 45,-20 12,-13 18,-31 18,-53 0,-21 -6,-37 -17,-49 -12,-12 -27,-18 -46,-18 -12,0 -23,2 -32,8 -9,5 -17,12 -22,21l-35 -5 29 -154 148 0 0 35 -119 0 -16 81c18,-13 37,-19 56,-19 26,0 48,9 66,27 18,18 27,41 27,70 0,27 -8,50 -24,70 -19,24 -45,36 -78,36 -27,0 -49,-8 -66,-23 -17,-15 -27,-35 -29,-60z"/>
 </g>
</svg>
