<?xml version="1.0" encoding="UTF-8"?>
<!DOCTYPE svg PUBLIC "-//W3C//DTD SVG 1.1//EN" "http://www.w3.org/Graphics/SVG/1.1/DTD/svg11.dtd">
<!-- Creator: CorelDRAW X8 -->
<svg xmlns="http://www.w3.org/2000/svg" xml:space="preserve" width="500px" height="500px" version="1.1" style="shape-rendering:geometricPrecision; text-rendering:geometricPrecision; image-rendering:optimizeQuality; fill-rule:evenodd; clip-rule:evenodd"
viewBox="0 0 500 500"
 xmlns:xlink="http://www.w3.org/1999/xlink">
 <defs>
  <style type="text/css">
   <![CDATA[
    .str0 {stroke:#2B2A29;stroke-width:19.9997}
    .str1 {stroke:#2B2A29;stroke-width:7.99963}
    .fil0 {fill:none}
    .fil1 {fill:#2B2A29;fill-rule:nonzero}
   ]]>
  </style>
 </defs>
 <g id="Слой_x0020_1">
  <metadata id="CorelCorpID_0Corel-Layer"/>
  <circle class="fil0 str0" cx="250" cy="250" r="238"/>
  <circle class="fil0 str1" cx="250" cy="250" r="200"/>
  <path class="fil1" d="M335 170l-37 3c-3,-15 -8,-25 -14,-32 -10,-10 -22,-16 -37,-16 -11,0 -22,4 -31,10 -11,9 -20,21 -27,37 -7,16 -10,39 -10,69 8,-13 19,-23 32,-30 13,-6 26,-10 40,-10 25,0 46,9 63,27 17,18 26,41 26,70 0,19 -5,36 -13,52 -8,16 -19,29 -33,37 -14,9 -30,13 -48,13 -30,0 -55,-11 -75,-34 -19,-22 -29,-59 -29,-111 0,-57 11,-99 32,-125 19,-23 44,-35 76,-35 23,0 42,7 57,20 15,13 25,31 28,55zm-150 128c0,13 2,25 8,37 5,11 12,20 22,26 10,6 20,9 30,9 16,0 29,-6 40,-19 11,-12 17,-29 17,-51 0,-20 -5,-36 -16,-48 -11,-12 -25,-18 -42,-18 -17,0 -31,6 -42,18 -12,12 -17,27 -17,46z"/>
 </g>
</svg>
