<?xml version="1.0" encoding="UTF-8"?>
<!DOCTYPE svg PUBLIC "-//W3C//DTD SVG 1.1//EN" "http://www.w3.org/Graphics/SVG/1.1/DTD/svg11.dtd">
<!-- Creator: CorelDRAW X8 -->
<svg xmlns="http://www.w3.org/2000/svg" xml:space="preserve" width="500px" height="500px" version="1.1" style="shape-rendering:geometricPrecision; text-rendering:geometricPrecision; image-rendering:optimizeQuality; fill-rule:evenodd; clip-rule:evenodd"
viewBox="0 0 500 500"
 xmlns:xlink="http://www.w3.org/1999/xlink">
 <defs>
  <style type="text/css">
   <![CDATA[
    .str0 {stroke:#2B2A29;stroke-width:19.9997}
    .str1 {stroke:#2B2A29;stroke-width:7.99963}
    .fil0 {fill:none}
    .fil1 {fill:#2B2A29;fill-rule:nonzero}
   ]]>
  </style>
 </defs>
 <g id="Слой_x0020_1">
  <metadata id="CorelCorpID_0Corel-Layer"/>
  <circle class="fil0 str0" cx="250" cy="250" r="238"/>
  <circle class="fil0 str1" cx="250" cy="250" r="200"/>
  <path class="fil1" d="M211 233c-16,-5 -27,-13 -34,-24 -7,-10 -11,-22 -11,-37 0,-21 8,-40 23,-54 16,-15 36,-23 62,-23 26,0 47,8 63,23 16,15 24,34 24,55 0,14 -4,26 -11,37 -7,10 -18,18 -33,23 18,6 32,16 42,29 9,13 14,29 14,48 0,25 -9,47 -27,64 -18,17 -42,26 -71,26 -29,0 -53,-9 -71,-26 -18,-18 -27,-39 -27,-65 0,-20 5,-36 15,-49 9,-13 23,-22 42,-27zm-8 -62c0,14 5,26 14,35 9,9 21,13 35,13 15,0 26,-4 35,-13 9,-9 13,-20 13,-33 0,-13 -4,-25 -13,-34 -10,-9 -21,-14 -35,-14 -14,0 -26,5 -35,14 -9,9 -14,20 -14,32zm-12 138c0,10 3,21 8,30 4,10 12,18 22,23 9,5 20,8 31,8 18,0 32,-6 44,-17 11,-11 17,-25 17,-43 0,-17 -6,-32 -18,-44 -12,-11 -26,-17 -44,-17 -17,0 -32,6 -43,17 -11,12 -17,26 -17,43z"/>
 </g>
</svg>
